<?xml version="1.0" encoding="utf-8"?>
<!-- Generator: Adobe Illustrator 18.1.1, SVG Export Plug-In . SVG Version: 6.00 Build 0)  -->
<svg version="1.1" id="Layer_1" xmlns="http://www.w3.org/2000/svg" xmlns:xlink="http://www.w3.org/1999/xlink" x="0px" y="0px"
	 viewBox="30.3 16.3 191.8 163.4" enable-background="new 30.3 16.3 191.8 163.4" xml:space="preserve">
<g>
	<path fill="#FF99A1" d="M78.5,64.8c-0.6,0.1-1.4,0.1-2.3-0.2c-1.5-0.6-2.3-1.8-1.9-2.6c0.4-0.9,1.8-1.1,3.3-0.5
		c1.5,0.6,2.3,1.8,1.9,2.6c-0.1,0.2-0.2,0.3-0.3,0.5c4.5,1,11.8,9.1,14.5,12.1l0.2-0.4c0.4-5.2,1.7-7.3,1.6-7.9
		c-4.4-17-48.3-47.4-57.4-14.7c-8.3,29.8,32.6,31.2,44.3,31c0.6,0,2.9-3.9,9-4.8l2.1-3.1L78.5,64.8z"/>
	<path fill="#FF99A1" d="M127.7,23.1c0,0-12.5-10.5-24.9-3.6c-22.8,14.9-11.3,38.3-6.3,46.4c0.4,0.7,4,2.9,6.7,8.2l3.6,1.2
		c2.4-2.5,8.7-2.3,9.1-2.5C150.7,49.1,127.7,23.1,127.7,23.1z M112.4,52.7c-0.4-0.5-0.6-1.3-0.6-2.2c0-1.6,0.8-2.8,1.8-2.8
		c0.9,0.1,1.7,1.3,1.7,2.9c0,1.6-0.8,2.8-1.8,2.8c-0.2,0-0.4-0.1-0.6-0.2c0.8,5.7-6.9,19.1-6.9,19.1L112.4,52.7z"/>
	<path fill="#FF99A1" d="M98.1,97.9c0.1-0.4-2.1-3.4-1.3-5.7l-4-3.7L80.2,99.2c0,0.7-0.1,1.4-0.6,2.1c-0.8,1.3-2.2,1.9-3,1.4
		c-0.8-0.5-0.8-2,0.1-3.3c0.8-1.3,2.2-1.9,3-1.4c0.2,0.1,0.3,0.2,0.4,0.4c1.6-3.4,8-7.9,12.2-10.4l-1.6-1.5c-2.7,0.5-5.4-1.5-6-1.5
		c-27,0.4-37.2,22-37.2,22s-12.5,33.1,24.3,31.5C91.6,133.6,96.7,105.6,98.1,97.9z"/>
	<path fill="#FF99A1" d="M170,95.8c0,0,8.2-13-2.3-26.9c-21.1-22.5-48.5,1.8-54.1,7.3c-0.2,0.2-0.4,2.7-2.3,3.7c0,0-0.7,6.2-0.6,6.1
		c1.2,0,4.2,5.2,4.8,5.5C160.3,115.1,170,95.8,170,95.8z M135.4,72.2c-1.1,1.1-2.6,1.4-3.2,0.7c-0.1-0.1-0.2-0.3-0.3-0.5
		c-3.5,4.6-18.4,8.6-18.4,8.6l18.4-9.4c0.2-0.6,0.5-1.3,1.1-1.9c1.1-1.1,2.6-1.4,3.2-0.7C136.9,69.7,136.5,71.1,135.4,72.2z"/>
	<path fill="#FF99A1" d="M115.3,92.8c-0.5-0.4-3.7,0-5.3-2.8l-7.9,3c1.4,0-1,4.4-3.7,5.4c-6.6,51.6,18.5,53.9,18.5,53.9
		s11.9,2.1,19-4.5C155,126.7,123,99,115.3,92.8z M113.8,117c-0.9,0.4-2.1-0.3-2.8-1.7c-0.7-1.4-0.7-2.8,0.2-3.3
		c0.2-0.1,0.4-0.1,0.5-0.1c-3.4-4.5-3.5-20-3.5-20l4.2,20.2c0.6,0.3,1.1,0.8,1.5,1.6C114.7,115,114.7,116.5,113.8,117z"/>
	<path fill="#FF99A1" d="M109.3,70.7c-6.7-3.9-15-2-18.5,4.1c-3.5,6.1-1.1,14.2,5.6,18.1c6.7,3.9,15,2,18.5-4.1
		C118.5,82.7,115.9,74.5,109.3,70.7z M93.4,83.3c-0.4,0.5-1.1,0.6-1.6,0.3c-0.6-0.3-0.7-1-0.4-1.5c0.4-0.5,1.1-0.6,1.6-0.3
		c0.2,0.1,0.4,0.3,0.4,0.5c1-1,4.8-1.8,4.8-1.8l-4.7,2.3C93.6,83,93.6,83.2,93.4,83.3z M102.7,71c-0.5-0.3-0.8-0.8-1.1-1.3
		c-0.5-0.7-0.1-1.2,0.7-0.9c0.8,0.3,1.8,1.1,2.2,2c0.5,0.7,0.1,1.2-0.7,0.9c-0.2,0-0.3-0.1-0.5-0.2c2.3,3.1-0.3,7.7-0.3,7.7
		L102.7,71z M103.8,91.9c-0.6,0.3-1.3-0.1-1.5-0.6c-0.1-0.6,0.1-1.2,0.8-1.5c0.1,0,0.2-0.1,0.3,0c-1.9-1.9-0.5-7.9-0.5-7.9l0.8,7.9
		c0.4,0.1,0.7,0.3,0.8,0.7C104.7,91,104.4,91.7,103.8,91.9z M111.7,88.9c-0.5-0.2-0.8-0.9-0.8-1.5c0-0.1,0-0.2,0-0.3
		c-1.7-0.2-5.6-6.8-5.6-6.8l5.8,6.6c0.1-0.1,0.4-0.2,0.6,0c0.5,0.2,0.8,0.9,0.8,1.5C112.6,88.8,112.1,89,111.7,88.9z"/>
</g>
<g>
	<path fill="#FFFFFF" d="M160.2,56.2c-0.3,0.3-0.8,0.5-1.3,0.6c-1,0.1-1.9-0.2-2-0.8c-0.1-0.6,0.7-1.2,1.7-1.4c1-0.1,1.9,0.2,2,0.8
		c0,0.1,0,0.2,0,0.4c2.9-0.9,9.7,1.3,12.2,2.1v-0.3c-1.5-3.1-1.5-4.7-1.7-5c-8.1-8.2-42.8-10.9-37.3,10.5c5.1,19.5,28.7,6.9,35.2,3
		c0.3-0.2,0.3-3.1,3.5-5.7l0.2-2.5L160.2,56.2z"/>
	<path fill="#FFFFFF" d="M174.3,16.5c0,0-10.5-1.8-15.3,6.2c-8,15.9,6.2,25.3,11.7,28.3c0.5,0.2,3.2,0.3,6.5,2.4l2.4-0.5
		c0.6-2.2,4.2-4.2,4.3-4.4C195.8,23.6,174.3,16.5,174.3,16.5z M175.4,38.2c-0.4-0.2-0.7-0.5-1-1c-0.5-0.9-0.5-1.8,0.1-2.2
		c0.5-0.3,1.4,0.2,1.9,1.1c0.5,0.9,0.5,1.8-0.1,2.2c-0.1,0-0.2,0.1-0.4,0.1c2.3,3,2.4,13.1,2.4,13.1L175.4,38.2z"/>
	<path fill="#FFFFFF" d="M182.1,68.5c-0.1-0.3-2.3-1.2-2.6-2.8l-3.5-0.8l-3.6,10.2c0.2,0.4,0.4,0.8,0.3,1.4c0,1-0.6,1.8-1.2,1.8
		c-0.6,0-1.1-0.8-1-1.9c0-1,0.6-1.8,1.2-1.8c0.1,0,0.2,0,0.4,0.1c-0.2-2.5,2-7.1,3.5-9.9l-1.4-0.3c-1.3,1.2-3.5,0.9-3.9,1.2
		c-15.1,9.1-13.8,24.7-13.8,24.7s3.8,22.8,24.1,9.8C190.1,90.8,183.9,73.3,182.1,68.5z"/>
	<path fill="#FFFFFF" d="M222.1,43.7c0,0,0.3-10-10.2-14.5c-19.3-5.8-26.8,16.9-28.2,21.9c0,0.2,0.7,1.7-0.1,2.8
		c0,0,1.7,3.7,1.7,3.7c0.7-0.4,4.1,1.6,4.5,1.5C222.9,57.8,222.1,43.7,222.1,43.7z M194.8,41.7c-0.3,1-1,1.7-1.6,1.4
		c-0.1,0-0.2-0.1-0.3-0.2c-0.5,3.7-7.6,10.9-7.6,10.9l7.3-11.3c-0.1-0.4-0.2-0.9,0-1.5c0.3-1,1-1.7,1.6-1.4
		C194.8,39.8,195.1,40.7,194.8,41.7z"/>
	<path fill="#FFFFFF" d="M190.2,59.9c-0.4,0-2.1,1.2-3.9,0.2l-3.5,4.3c0.8-0.5,0.9,2.8-0.3,4.3c13.2,31.3,28.2,24.4,28.2,24.4
		s7.4-2.7,9.3-8.8C223.7,66,196.6,60.9,190.2,59.9z M197.3,74.1c-0.3,0.5-1.3,0.5-2.2,0c-0.8-0.5-1.3-1.4-1-1.9
		c0.1-0.1,0.2-0.2,0.3-0.2c-3.4-1.4-8.5-10.2-8.5-10.2l9,10c0.4,0,0.9,0.1,1.4,0.4C197.1,72.7,197.6,73.5,197.3,74.1z"/>
	<path fill="#FFFFFF" d="M179.5,49.4c-5,0-9.1,3.8-9.1,8.4s4.1,8.4,9.1,8.4c5,0,9.1-3.8,9.1-8.4S184.5,49.4,179.5,49.4z M174.7,61.8
		c0,0.4-0.4,0.7-0.8,0.7c-0.4,0-0.7-0.3-0.7-0.7c0-0.4,0.4-0.7,0.8-0.7c0.2,0,0.3,0,0.4,0.2c0.2-0.9,2.1-2.6,2.1-2.6l-1.9,2.8
		C174.7,61.5,174.7,61.6,174.7,61.8z M175.9,51.7c-0.4,0-0.7-0.2-1-0.4c-0.5-0.3-0.5-0.6,0.1-0.7c0.5-0.1,1.4,0,1.9,0.4
		c0.5,0.3,0.5,0.6-0.1,0.7c-0.1,0-0.2,0-0.4,0c2.3,1,2.4,4.5,2.4,4.5L175.9,51.7z M183.4,63.2c-0.2,0.3-0.7,0.4-1,0.1
		c-0.3-0.3-0.3-0.7,0-1.1c0,0,0.1-0.1,0.2-0.1c-1.7-0.5-2.8-4.3-2.8-4.3l3,4.2c0.2-0.1,0.5,0,0.7,0.1
		C183.6,62.4,183.6,62.9,183.4,63.2z M186.8,58.9c-0.3,0-0.8-0.2-0.9-0.6c0-0.1-0.1-0.1-0.1-0.2c-1,0.4-5.4-2-5.4-2l5.4,1.8
		c0-0.1,0.2-0.2,0.3-0.2c0.3,0,0.8,0.2,0.9,0.6C187.3,58.5,187.1,58.8,186.8,58.9z"/>
</g>
<g>
	<path fill="#7ACCBE" d="M144.6,139.4c-0.2,0.2-0.5,0.4-0.9,0.4c-0.7,0.1-1.3-0.2-1.3-0.6c-0.1-0.4,0.4-0.8,1.2-0.9
		c0.7-0.1,1.3,0.2,1.3,0.6c0,0.1,0,0.2,0,0.3c2-0.6,6.6,0.9,8.3,1.4v-0.2c-1-2.1-1-3.2-1.2-3.4c-5.5-5.6-29.3-7.5-25.5,7.2
		c3.5,13.4,19.6,4.7,24.1,2.1c0.2-0.1,0.2-2.1,2.4-3.9l0.1-1.7L144.6,139.4z"/>
	<path fill="#7ACCBE" d="M154.2,112.2c0,0-7.2-1.3-10.4,4.2c-5.5,10.9,4.2,17.3,8,19.3c0.3,0.2,2.2,0.2,4.4,1.7l1.7-0.4
		c0.4-1.5,2.8-2.8,2.9-3C169,117.1,154.2,112.2,154.2,112.2z M155,127.1c-0.3-0.1-0.5-0.4-0.7-0.7c-0.3-0.6-0.3-1.3,0.1-1.5
		c0.4-0.2,0.9,0.1,1.3,0.7c0.3,0.6,0.3,1.3-0.1,1.5c-0.1,0-0.2,0.1-0.3,0.1c1.6,2,1.6,8.9,1.6,8.9L155,127.1z"/>
	<path fill="#7ACCBE" d="M159.6,147.8c-0.1-0.2-1.6-0.8-1.8-1.9l-2.4-0.5l-2.5,7c0.2,0.3,0.3,0.6,0.2,1c0,0.7-0.4,1.2-0.8,1.2
		c-0.4,0-0.8-0.6-0.7-1.3c0-0.7,0.4-1.2,0.8-1.2c0.1,0,0.2,0,0.3,0.1c-0.2-1.7,1.3-4.8,2.4-6.8l-0.9-0.2c-0.9,0.8-2.4,0.6-2.7,0.8
		c-10.3,6.2-9.4,16.9-9.4,16.9s2.6,15.6,16.5,6.7C165.1,163,160.8,151.1,159.6,147.8z"/>
	<path fill="#7ACCBE" d="M186.9,130.8c0,0,0.2-6.9-6.9-9.9c-13.2-4-18.3,11.6-19.3,15c0,0.1,0.4,1.2-0.1,1.9c0,0,1.1,2.5,1.2,2.5
		c0.5-0.3,2.8,1.1,3.1,1.1C187.5,140.5,186.9,130.8,186.9,130.8z M168.2,129.4c-0.2,0.7-0.7,1.1-1.1,1c-0.1,0-0.2-0.1-0.2-0.1
		c-0.3,2.6-5.2,7.5-5.2,7.5l5-7.8c-0.1-0.3-0.1-0.6,0-1c0.2-0.7,0.7-1.1,1.1-1C168.3,128.2,168.4,128.8,168.2,129.4z"/>
	<path fill="#7ACCBE" d="M165.1,141.9c-0.3,0-1.4,0.8-2.7,0.1L160,145c0.6-0.3,0.6,1.9-0.2,2.9c9.1,21.4,19.3,16.7,19.3,16.7
		s5.1-1.9,6.3-6C188,146.1,169.5,142.6,165.1,141.9z M169.9,151.6c-0.2,0.4-0.9,0.4-1.5,0c-0.6-0.4-0.9-0.9-0.7-1.3
		c0.1-0.1,0.1-0.1,0.2-0.2c-2.3-1-5.8-7-5.8-7l6.2,6.9c0.3,0,0.6,0.1,0.9,0.3C169.9,150.7,170.2,151.3,169.9,151.6z"/>
	<path fill="#7ACCBE" d="M157.8,134.7c-3.4,0-6.2,2.6-6.2,5.7c0,3.2,2.8,5.7,6.2,5.7c3.4,0,6.2-2.6,6.2-5.7
		C164,137.3,161.2,134.7,157.8,134.7z M154.5,143.2c0,0.3-0.3,0.5-0.6,0.5c-0.3,0-0.5-0.2-0.5-0.5c0-0.3,0.3-0.5,0.6-0.5
		c0.1,0,0.2,0,0.3,0.1c0.2-0.6,1.4-1.8,1.4-1.8l-1.3,1.9C154.5,143,154.5,143.1,154.5,143.2z M155.3,136.3c-0.3,0-0.5-0.1-0.7-0.3
		c-0.3-0.2-0.3-0.4,0.1-0.5c0.4-0.1,0.9,0,1.3,0.3c0.3,0.2,0.3,0.4-0.1,0.5c-0.1,0-0.2,0-0.3,0c1.6,0.7,1.6,3.1,1.6,3.1L155.3,136.3
		z M160.5,144.2c-0.2,0.2-0.5,0.3-0.7,0.1c-0.2-0.2-0.2-0.5,0-0.7c0,0,0.1-0.1,0.1-0.1c-1.2-0.3-1.9-2.9-1.9-2.9l2.1,2.9
		c0.2-0.1,0.3,0,0.5,0.1C160.6,143.6,160.6,144,160.5,144.2z M162.8,141.2c-0.2,0-0.5-0.2-0.6-0.4c0-0.1-0.1-0.1-0.1-0.1
		c-0.7,0.3-3.7-1.4-3.7-1.4l3.7,1.2c0-0.1,0.1-0.2,0.2-0.2c0.2,0,0.5,0.2,0.6,0.4C163.1,141,163,141.2,162.8,141.2z"/>
</g>
</svg>
