<?xml version="1.0" encoding="utf-8"?>
<!-- Generator: Adobe Illustrator 18.1.1, SVG Export Plug-In . SVG Version: 6.00 Build 0)  -->
<svg version="1.1" id="Layer_1" xmlns="http://www.w3.org/2000/svg" xmlns:xlink="http://www.w3.org/1999/xlink" x="0px" y="0px"
	 viewBox="30.3 16.3 191.8 163.4" enable-background="new 30.3 16.3 191.8 163.4" xml:space="preserve">
<g>
	<path fill="#FF99A1" d="M165.6,76.6l2.1,3.1c6.2,1,8.4,4.8,9,4.8c11.7,0.2,52.5-1.3,44.3-31c-9.1-32.7-53-2.3-57.4,14.7
		c-0.1,0.6,1.1,2.8,1.6,7.9l0.2,0.4c2.6-3,10-11,14.5-12.1c-0.2-0.2-0.3-0.3-0.3-0.5c-0.4-0.9,0.5-2,1.9-2.6
		c1.5-0.6,2.9-0.3,3.3,0.5c0.4,0.9-0.5,2-1.9,2.6c-0.8,0.3-1.7,0.4-2.3,0.2L165.6,76.6z"/>
	<path fill="#FF99A1" d="M143.2,72.6c0.4,0.2,6.6,0.1,9.1,2.5l3.6-1.2c2.7-5.2,6.3-7.5,6.7-8.2c5.1-8.1,16.5-31.5-6.3-46.4
		c-12.4-6.9-24.9,3.6-24.9,3.6S108.4,49.1,143.2,72.6z M153,72.4c0,0-7.7-13.4-6.9-19.1c-0.2,0.1-0.4,0.2-0.6,0.2
		c-1,0-1.8-1.2-1.8-2.8c0-1.6,0.7-2.8,1.7-2.9c1,0,1.8,1.2,1.8,2.8c0,0.9-0.2,1.7-0.6,2.2L153,72.4z"/>
	<path fill="#FF99A1" d="M187.4,138.6c36.8,1.7,24.3-31.5,24.3-31.5s-10.2-21.6-37.2-22c-0.6,0-3.3,2-6,1.5l-1.6,1.5
		c4.1,2.6,10.6,7,12.2,10.4c0.1-0.2,0.3-0.4,0.4-0.4c0.8-0.5,2.1,0.1,3,1.4c0.9,1.3,0.9,2.8,0.1,3.3c-0.8,0.5-2.1-0.1-3-1.4
		c-0.5-0.7-0.6-1.5-0.6-2.1l-12.6-10.7l-4,3.7c0.9,2.3-1.3,5.2-1.3,5.7C162.4,105.6,167.5,133.6,187.4,138.6z"/>
	<path fill="#FF99A1" d="M143.7,91.5c0.5-0.2,3.6-5.5,4.8-5.5c0.1,0-0.6-6.1-0.6-6.1c-1.9-0.9-2.2-3.5-2.3-3.7
		c-5.7-5.5-33.1-29.8-54.1-7.3c-10.5,13.9-2.3,26.9-2.3,26.9S98.8,115.1,143.7,91.5z M122.9,68.9c0.6-0.7,2.1-0.4,3.2,0.7
		c0.6,0.6,1,1.3,1.1,1.9l18.4,9.4c0,0-14.9-4-18.4-8.6c-0.1,0.2-0.2,0.4-0.3,0.5c-0.6,0.7-2.1,0.4-3.2-0.7
		C122.5,71.1,122.2,69.7,122.9,68.9z"/>
	<path fill="#FF99A1" d="M123.2,147.9c7.1,6.5,19,4.5,19,4.5s25.1-2.3,18.5-53.9c-2.8-1-5.2-5.4-3.7-5.4l-7.9-3
		c-1.7,2.7-4.8,2.4-5.3,2.8C136,99,104.1,126.7,123.2,147.9z M145.1,113.7c0.4-0.8,0.9-1.3,1.5-1.6l4.2-20.2c0,0,0,15.5-3.5,20
		c0.2,0,0.3,0,0.5,0.1c0.8,0.5,0.9,1.9,0.2,3.3c-0.7,1.4-2,2.1-2.8,1.7C144.4,116.5,144.4,115,145.1,113.7z"/>
	<path fill="#FF99A1" d="M144.1,88.8c3.5,6.1,11.8,8,18.5,4.1c6.7-3.9,9.2-12,5.6-18.1s-11.8-8-18.5-4.1
		C143.1,74.5,140.6,82.7,144.1,88.8z M165.5,82.8l-4.7-2.3c0,0,3.8,0.8,4.8,1.8c0-0.2,0.2-0.4,0.4-0.5c0.5-0.3,1.2-0.2,1.6,0.3
		c0.3,0.5,0.2,1.2-0.4,1.5c-0.5,0.3-1.2,0.2-1.6-0.3C165.5,83.2,165.5,83,165.5,82.8z M156,79.1c0,0-2.6-4.6-0.3-7.7
		c-0.2,0.1-0.4,0.2-0.5,0.2c-0.9,0.3-1.2-0.1-0.7-0.9c0.4-0.8,1.4-1.6,2.2-2c0.9-0.3,1.2,0.1,0.7,0.9c-0.2,0.5-0.6,1-1.1,1.3
		L156,79.1z M154.4,90.5c0.1-0.4,0.5-0.6,0.8-0.7l0.8-7.9c0,0,1.4,6-0.5,7.9c0.1-0.1,0.2,0,0.3,0c0.7,0.2,0.9,0.9,0.8,1.5
		c-0.2,0.6-0.9,0.9-1.5,0.6C154.7,91.7,154.3,91,154.4,90.5z M146.6,88.3c-0.1-0.6,0.3-1.3,0.8-1.5c0.3-0.1,0.5-0.1,0.6,0l5.8-6.6
		c0,0-3.9,6.6-5.6,6.8c0.1,0.1,0,0.2,0,0.3c0.1,0.6-0.3,1.3-0.8,1.5C146.9,89,146.5,88.8,146.6,88.3z"/>
</g>
<g>
	<path fill="#FFFFFF" d="M86.5,58l0.2,2.5c3.2,2.6,3.2,5.5,3.5,5.7c6.5,3.9,30.1,16.5,35.2-3c5.6-21.5-29.2-18.7-37.3-10.5
		c-0.3,0.3-0.3,1.9-1.7,5v0.3c2.5-0.8,9.3-3,12.2-2.1c0-0.2,0-0.3,0-0.4c0.1-0.6,0.9-1,2-0.8c1,0.2,1.8,0.8,1.7,1.4
		c-0.1,0.6-0.9,1-2,0.8c-0.6-0.1-1.1-0.3-1.3-0.6L86.5,58z"/>
	<path fill="#FFFFFF" d="M75.2,48.3c0.2,0.3,3.7,2.2,4.3,4.4l2.4,0.5c3.2-2.1,6-2.2,6.5-2.4c5.5-2.9,19.7-12.4,11.7-28.3
		c-4.7-8-15.3-6.2-15.3-6.2S63.2,23.6,75.2,48.3z M80.8,51.4c0,0,0.1-10.1,2.4-13.1c-0.2,0-0.3,0-0.4-0.1c-0.6-0.3-0.6-1.3-0.1-2.2
		c0.5-0.9,1.3-1.3,1.9-1.1c0.6,0.3,0.6,1.3,0.1,2.2c-0.3,0.5-0.7,0.9-1,1L80.8,51.4z"/>
	<path fill="#FFFFFF" d="M78.5,100.2c20.3,13,24.1-9.8,24.1-9.8s1.3-15.6-13.8-24.7c-0.3-0.2-2.5,0-3.9-1.2l-1.4,0.3
		c1.5,2.8,3.7,7.4,3.5,9.9c0.2-0.1,0.3-0.1,0.4-0.1c0.6,0,1.2,0.7,1.2,1.8c0.1,1-0.4,1.8-1,1.9c-0.6,0-1.2-0.7-1.2-1.8
		c0-0.6,0.1-1,0.3-1.4L83,64.9l-3.5,0.8c-0.3,1.6-2.5,2.5-2.6,2.8C75.2,73.3,68.9,90.8,78.5,100.2z"/>
	<path fill="#FFFFFF" d="M69.3,59.2c0.4,0,3.8-1.9,4.5-1.5c0,0,1.7-3.7,1.7-3.7c-0.8-1.2-0.1-2.7-0.1-2.8c-1.4-5-8.9-27.7-28.2-21.9
		C36.6,33.7,37,43.7,37,43.7S36.1,57.8,69.3,59.2z M64.9,39.6c0.6-0.2,1.3,0.4,1.6,1.4c0.2,0.6,0.1,1,0,1.5l7.3,11.3
		c0,0-7.1-7.2-7.6-10.9C66.1,43,66,43,65.9,43.1c-0.6,0.2-1.3-0.4-1.6-1.4C64,40.7,64.3,39.8,64.9,39.6z"/>
	<path fill="#FFFFFF" d="M39.2,84.3c1.9,6,9.3,8.8,9.3,8.8s15,6.9,28.2-24.4c-1.2-1.5-1.2-4.7-0.3-4.3l-3.5-4.3
		c-1.8,1-3.5-0.2-3.9-0.2C62.5,60.9,35.3,66,39.2,84.3z M62.8,72.2c0.5-0.3,1-0.4,1.4-0.4l9-10c0,0-5.1,8.8-8.5,10.2
		c0.1,0,0.2,0.1,0.3,0.2c0.3,0.5-0.2,1.4-1,1.9c-0.8,0.5-1.8,0.5-2.2,0C61.5,73.5,61.9,72.7,62.8,72.2z"/>
	<path fill="#FFFFFF" d="M70.4,57.8c0,4.6,4.1,8.4,9.1,8.4s9.1-3.8,9.1-8.4s-4.1-8.4-9.1-8.4C74.5,49.4,70.4,53.2,70.4,57.8z
		 M84.5,61.4l-1.9-2.8c0,0,1.9,1.7,2.1,2.6c0.1-0.1,0.3-0.2,0.4-0.2c0.4,0,0.8,0.3,0.8,0.7c0,0.4-0.3,0.7-0.7,0.7
		c-0.4,0-0.8-0.3-0.8-0.7C84.3,61.6,84.4,61.5,84.5,61.4z M80.3,56.2c0,0,0.1-3.5,2.4-4.5c-0.2,0-0.3,0-0.4,0
		c-0.6-0.1-0.6-0.5-0.1-0.7c0.5-0.3,1.3-0.5,1.9-0.4c0.6,0.1,0.6,0.5,0.1,0.7c-0.3,0.2-0.7,0.3-1,0.4L80.3,56.2z M75.7,62.1
		c0.2-0.2,0.5-0.2,0.7-0.1l3-4.2c0,0-1.2,3.8-2.8,4.3c0.1,0,0.1,0.1,0.2,0.1c0.3,0.3,0.2,0.8,0,1.1c-0.3,0.3-0.8,0.2-1-0.1
		C75.4,62.9,75.5,62.4,75.7,62.1z M72,58.3c0.2-0.3,0.6-0.6,0.9-0.6c0.2,0,0.3,0.1,0.3,0.2l5.4-1.8c0,0-4.4,2.4-5.4,2
		c0,0.1,0,0.1-0.1,0.2c-0.2,0.3-0.6,0.6-0.9,0.6C71.9,58.8,71.8,58.5,72,58.3z"/>
</g>
<g>
	<path fill="#7ACCBE" d="M106,140.6l0.1,1.7c2.2,1.8,2.2,3.8,2.4,3.9c4.5,2.7,20.6,11.3,24.1-2.1c3.8-14.7-20-12.8-25.5-7.2
		c-0.2,0.2-0.2,1.3-1.2,3.4L106,140.6c1.6-0.6,6.3-2.1,8.2-1.5c0-0.1,0-0.2,0-0.3c0.1-0.4,0.6-0.7,1.3-0.6c0.7,0.1,1.2,0.5,1.2,0.9
		c-0.1,0.4-0.6,0.7-1.3,0.6c-0.4-0.1-0.7-0.2-0.9-0.4L106,140.6z"/>
	<path fill="#7ACCBE" d="M98.3,134c0.1,0.2,2.6,1.5,2.9,3l1.7,0.4c2.2-1.4,4.1-1.5,4.4-1.7c3.8-2,13.5-8.5,8-19.3
		c-3.2-5.5-10.4-4.2-10.4-4.2S90.1,117.1,98.3,134z M102.1,136.1c0,0,0.1-6.9,1.6-8.9c-0.1,0-0.2,0-0.3-0.1
		c-0.4-0.2-0.4-0.9-0.1-1.5c0.3-0.6,0.9-0.9,1.3-0.7c0.4,0.2,0.4,0.9,0.1,1.5c-0.2,0.3-0.4,0.6-0.7,0.7L102.1,136.1z"/>
	<path fill="#7ACCBE" d="M100.5,169.5c13.9,8.9,16.5-6.7,16.5-6.7s0.9-10.7-9.4-16.9c-0.2-0.2-1.7,0-2.7-0.8l-0.9,0.2
		c1,1.9,2.5,5.1,2.4,6.8c0.1-0.1,0.2-0.1,0.3-0.1c0.4,0,0.8,0.5,0.8,1.2c0.1,0.7-0.3,1.3-0.7,1.3c-0.4,0-0.8-0.5-0.8-1.2
		c0-0.4,0.1-0.7,0.2-1l-2.5-7l-2.4,0.5c-0.2,1.1-1.7,1.7-1.8,1.9C98.3,151.1,94,163,100.5,169.5z"/>
	<path fill="#7ACCBE" d="M94.2,141.4c0.3,0,2.6-1.3,3.1-1.1c0,0,1.2-2.5,1.2-2.5c-0.5-0.8-0.1-1.8-0.1-1.9c-0.9-3.4-6.1-19-19.3-15
		c-7.2,3-6.9,9.9-6.9,9.9S71.6,140.5,94.2,141.4z M91.3,128c0.4-0.2,0.9,0.3,1.1,1c0.1,0.4,0.1,0.7,0,1l5,7.8c0,0-4.9-4.9-5.2-7.5
		c-0.1,0.1-0.2,0.1-0.2,0.1c-0.4,0.2-0.9-0.3-1.1-1C90.6,128.8,90.8,128.2,91.3,128z"/>
	<path fill="#7ACCBE" d="M73.6,158.6c1.3,4.1,6.3,6,6.3,6s10.2,4.7,19.3-16.7c-0.8-1-0.8-3.2-0.2-2.9l-2.4-2.9
		c-1.3,0.7-2.4-0.2-2.7-0.1C89.6,142.6,71,146.1,73.6,158.6z M89.8,150.3c0.3-0.2,0.7-0.3,0.9-0.3l6.2-6.9c0,0-3.5,6-5.8,7
		c0.1,0,0.1,0.1,0.2,0.2c0.2,0.4-0.1,0.9-0.7,1.3s-1.2,0.4-1.5,0S89.2,150.7,89.8,150.3z"/>
	<path fill="#7ACCBE" d="M95,140.5c0,3.2,2.8,5.7,6.2,5.7s6.2-2.6,6.2-5.7c0-3.2-2.8-5.7-6.2-5.7C97.8,134.7,95,137.3,95,140.5z
		 M104.6,143l-1.3-1.9c0,0,1.3,1.2,1.4,1.8c0.1-0.1,0.2-0.1,0.3-0.1c0.3,0,0.5,0.2,0.6,0.5c0,0.3-0.2,0.5-0.5,0.5
		c-0.3,0-0.5-0.2-0.6-0.5C104.5,143.1,104.6,143,104.6,143z M101.8,139.4c0,0,0.1-2.4,1.6-3.1c-0.1,0-0.2,0-0.3,0
		c-0.4-0.1-0.4-0.3-0.1-0.5c0.3-0.2,0.9-0.3,1.3-0.3c0.4,0.1,0.4,0.3,0.1,0.5c-0.2,0.2-0.4,0.2-0.7,0.3L101.8,139.4z M98.6,143.4
		c0.1-0.1,0.3-0.1,0.5-0.1l2.1-2.9c0,0-0.8,2.6-1.9,2.9c0.1,0,0.1,0.1,0.1,0.1c0.2,0.2,0.2,0.6,0,0.7c-0.2,0.2-0.6,0.2-0.7-0.1
		C98.4,144,98.5,143.6,98.6,143.4z M96.1,140.8c0.1-0.2,0.4-0.4,0.6-0.4c0.1,0,0.2,0.1,0.2,0.2l3.7-1.2c0,0-3,1.7-3.7,1.4
		c0,0.1,0,0.1-0.1,0.1c-0.1,0.2-0.4,0.4-0.6,0.4C96,141.2,95.9,141,96.1,140.8z"/>
</g>
</svg>
