<?xml version="1.0" encoding="utf-8"?>
<!-- Generator: Adobe Illustrator 16.0.4, SVG Export Plug-In . SVG Version: 6.00 Build 0)  -->
<!DOCTYPE svg PUBLIC "-//W3C//DTD SVG 1.1//EN" "http://www.w3.org/Graphics/SVG/1.1/DTD/svg11.dtd">
<svg version="1.1" id="Layer_1" xmlns="http://www.w3.org/2000/svg" xmlns:xlink="http://www.w3.org/1999/xlink" x="0px" y="0px"
	 width="358.827px" height="6px" viewBox="0 0 358.827 6" enable-background="new 0 0 358.827 6" xml:space="preserve">
<polygon fill="#F05879" points="15.871,6 7.615,6 2.091,0 21.424,0 "/>
<polygon fill="#F05879" points="30.138,0 38.394,0 43.918,6 24.584,6 "/>
<polygon fill="#F05879" points="60.858,6 52.602,6 47.078,0 66.411,0 "/>
<polygon fill="#F05879" points="75.125,0 83.381,0 88.905,6 69.571,6 "/>
<polygon fill="#F05879" points="105.845,6 97.589,6 92.065,0 111.398,0 "/>
<polygon fill="#F05879" points="120.112,0 128.368,0 133.892,6 114.559,6 "/>
<polygon fill="#F05879" points="150.832,6 142.576,6 137.052,0 156.385,0 "/>
<polygon fill="#F05879" points="165.099,0 173.355,0 178.879,6 159.545,6 "/>
<polygon fill="#F05879" points="195.819,6 187.563,6 182.039,0 201.373,0 "/>
<polygon fill="#F05879" points="210.086,0 218.342,0 223.866,6 204.533,6 "/>
<polygon fill="#F05879" points="240.806,6 232.55,6 227.026,0 246.359,0 "/>
<polygon fill="#F05879" points="255.073,0 263.329,0 268.853,6 249.52,6 "/>
<polygon fill="#F05879" points="285.793,6 277.537,6 272.013,0 291.347,0 "/>
<polygon fill="#F05879" points="300.06,0 308.316,0 313.84,6 294.507,6 "/>
<polygon fill="#F05879" points="330.78,6 322.524,6 317,0 336.333,0 "/>
<polygon fill="#F05879" points="345.047,0 353.303,0 358.827,6 339.494,6 "/>
</svg>
