<?xml version="1.0" encoding="utf-8"?>
<!-- Generator: Adobe Illustrator 18.1.1, SVG Export Plug-In . SVG Version: 6.00 Build 0)  -->
<svg version="1.1" id="Layer_1" xmlns="http://www.w3.org/2000/svg" xmlns:xlink="http://www.w3.org/1999/xlink" x="0px" y="0px"
	 viewBox="199.2 -1.8 560.4 560.6" enable-background="new 199.2 -1.8 560.4 560.6" xml:space="preserve">
<g>
	<g>
		<path fill="#3DA8A4" d="M363.3,293.4c-3.3,13.4-7.2,23.8-11.5,31.1c-2,3.5-3.9,5.2-5.9,5.2c-0.8,0-1.7-0.2-2.8-0.6
			c-5.3-1.6-7.9-3.5-7.9-5.7c0-1.1,0.7-1.8,2.2-2.2c6.1-9.1,9.7-20,10.8-32.8c-3.8-3.4-7.4-5-10.8-5c-7.2-0.1-15.6,6.2-25.4,18.9
			c-9,11.9-16.8,25.9-23.4,42.1c-6.9,17-10.2,31-9.9,42.4c0.1,6.5,2,11.4,5.9,14.7c2.8,2.4,6.1,3.5,9.6,3.5c2,0,4.5-0.4,7.2-1.3
			c6.6-2,14.2-6.1,22.9-11.9c8.3-5.7,15.2-11.4,20.7-17.2c1.7-1.9,2.8-4.2,3.1-7.2c0.2-1.5,0.9-2.3,2-2.3c0.9,0,1.7,0.6,2.2,1.9
			c2.5,6.2,3.7,10.5,3.7,12.9c0,2.3-0.9,4.4-2.8,6.4c-1.3,1.3-4.2,3.6-8.8,7.2c-14.6,10.9-27.1,17.8-37.6,20.4
			c-3.2,0.9-6.2,1.3-8.9,1.3c-5.7,0-10-1.9-12.9-5.7c-13.4-5-20.1-12.7-20.1-23c0-16.7,4.4-34.6,13.1-53.7
			c7.5-16.6,16.7-31.2,27.8-43.8c10.6-12,19.2-18.3,25.9-18.8c2.4-0.2,5.2,0.8,8.3,3c0.4,0.3,3.6,2.8,9.6,7.8
			c0.3-2.8,1.3-4.2,2.8-4.2c1.7,0,4.5,1.5,8.3,4.6c2.5,2,3.7,3.8,3.7,5.6C364.5,288,364.1,290.2,363.3,293.4z"/>
		<path fill="#3DA8A4" d="M451.9,281.7c-8.6,15.6-17,33.9-25,54.9c-6.9,18-12.3,35.4-16.3,52.5c-2.7,11.4-3.9,18.5-3.6,21.4
			c0.4,1.1,0.6,2.1,0.6,3c0,1.4-0.6,2.2-1.7,2.2c-1.4,0-3.8-1.3-7-3.7c-3.6-2.7-5.3-4.9-5.3-6.6c0-1.1,0.3-2.8,0.9-4.9
			c5.7-19.9,12.7-40.9,21.1-63.2c5.5-13.8,11.5-28.8,18-45c-19.7,4.8-33.8,10.6-42.3,17.4c-3.1,2.4-4.6,4.7-4.6,6.9
			c0,1.5,0.7,5.6,2,12.1c0.5,2.1-0.3,3.2-2.3,3.2c-1.4,0-2.4-0.6-3.2-2c-2.4-3.7-4.7-9.1-7.2-16.2c-0.5-1.6-0.7-3.1-0.7-4.3
			c0-5.2,4-9.4,11.9-12.6c2.8-1.2,17.1-6,42.8-14.5c6.1-2,10.2-4.4,12.4-7.2c1.6-2,3-2.9,4.2-2.9c1.1,0,2.5,0.6,4.2,1.9
			c2,1.4,2.9,2.5,2.9,3.5C453.5,278.4,453,279.8,451.9,281.7z M512.8,273.4c1.4,1.4,2,2.5,2,3.4c0,1.1-1.4,3.5-4.3,7
			c-7.5,9.4-18.7,21.3-33.5,35.8c-14.1,13.9-23.7,22.6-28.7,25.9c6.3,8.9,12.5,17.8,18.8,26.7c9.6,13.5,17.8,22.6,24.8,27.2
			c3.1,2,5.7,3.1,8.2,3.1c2.4,0,5.3-1.2,8.5-3.5c0.7-0.5,1.3-0.7,2-0.7c1.4,0,2.2,0.7,2.2,2.2c0,0.9-0.3,1.7-0.9,2.6
			c-2,3.2-6.6,7.9-13.5,14.1c-1.6,1.4-3.1,2.2-4.6,2.2c-1.8,0-3.9-0.9-6.1-2.8c-8.5-6.8-18-17.5-28.5-32.3
			c-11-15.5-18.6-25.1-22.9-28.8c-2.2,0.9-3.9,1.3-5.3,1.3c-2.4,0-3.8-1.8-4-5.3c-0.1-1.1-0.1-2-0.1-2.8c0-2.9,0.8-5,2.4-6.4
			c1.6-1.3,4.7-2.5,9.4-3.5c1.7-0.3,3.1,0.1,3.9,1.3c8.1-6.3,17.3-14.7,27.6-25.3c10.1-10.4,16.3-17.7,18.4-21.9
			c-4.3-2.5-6.5-4.6-6.5-6.3c0-1.3,1.3-2.2,3.7-2.8c3.5-2.4,7.5-6.3,12.3-11.7c2-2.3,4.2-3.4,6.4-3.4
			C506.8,268.8,509.7,270.4,512.8,273.4z"/>
		<path fill="#3DA8A4" d="M648.6,277c-4.2,6.1-8.3,22.6-12.1,49.3c-3.3,23.7-4.9,42-4.6,55.2c0.2,13.2,2.4,19.8,6.5,19.8
			c0.8,0,1.8-0.2,3.2-0.9c1.4-0.6,2.5-0.9,3.2-0.9c1.4,0,2,0.6,2,1.6c0,0.8-0.6,1.6-1.6,2.5c-3.5,3.1-8.7,6.4-15.8,10.1
			c-1.7,0.9-3.2,1.3-4.5,1.3c-6.8,0-9.2-17.1-7.2-51.2c-16.5,0.9-32.1,2.3-46.8,4l-20.4,25c3.6-0.4,5-0.6,4.2-0.6
			c3.3,0,5.8,3.4,7.6,10.1c0.5,1.6,0.7,2.8,0.7,3.7c0,1.7-0.7,2.5-2.2,2.5c-0.7,0-1.7-0.2-3.1-0.6c-1.3-0.3-2.4-0.6-3.1-0.6
			c-5.8,0-13.8,3.1-23.7,9.4l-4.5,2.8c-0.6,0-1.6-0.6-3.1-1.6c-3.2-2.2-5.5-4.9-6.8-7.9c-0.9-2.1,0.4-4.2,3.6-6.4
			c4.2-2.8,10.1-7.4,17.5-13.9c7.5-6.5,12.3-11.2,14.5-14.1c-0.6-6.3-0.9-9.5-0.9-9.8c0.2-3.9,1.7-6.4,4.5-7.6c2.5-1,6.9-1.7,13.2-2
			c17.1-20.8,30.8-41.1,41.2-60.9c-3.4,1.8-9.4,4.1-18.2,6.9c-14,4.6-23.7,7.8-28.9,9.6c-7.5,2.7-11.2,7.4-11.2,14.1
			c0,1.4,0.2,2.9,0.4,4.6c0.4,2.5-0.2,3.9-2,3.9c-1.3,0-2.1-0.6-2.7-1.7c-3.8-7.9-6.1-13.5-6.7-16.7c-0.6-2.9-0.9-4.4-0.9-4.6
			c0-2.4,1.1-4.6,3.4-6.6c4.2-3.5,11.9-6.1,23.6-7.9c17.4-2.6,32.3-6.7,44.8-12.3c1.5-1.5,2.4-2.4,2.5-2.6c0.3-0.5,0.7-1.4,1.1-2.8
			c0.4-1.4,1-2,2-2c1.6,0,3.9,1.7,7.2,5c1,1.2,1.6,2.4,1.6,3.5c0,0.7-1.2,3.1-3.5,7.2c-5.1,9-11.9,20-20.4,32.8
			c-9.5,14.3-16.9,24.4-22.1,30.5c16.4,0,29.2-0.4,38.5-1.3c0.9-9.7,3.1-23.3,6.3-41.2c1.7-8.7,3.3-17.5,5-26.2
			c1-7.5,6.1-12.9,15-16.3c1.4-0.6,2.5-0.9,3.4-0.9c1.5,0,2.3,0.6,2.3,2C650.7,273.5,650,275.1,648.6,277z"/>
	</g>
	<path fill="#3DA8A4" d="M599.5,99.2h64.3v66l-87,29.7l-14.1,14.6c0,0,15.9,5.5,7.5,13.6c-5.5,5.3-12.7-1.3-13.4-6.5
		c-7.2,8.2-0.4,20.8-4.6,31.7c-4,10.3-13.3,15.9-13.3,15.9s13.7,7.6,0.1,14.1c-8.4,4-9.4-8.3-7.6-10.8
		c-16.1,5.1-19.6,14.4-19.6,14.4l-12.2-10.9l26.4-15.6c0,0-11.8-6.7-2-13.3c4.3-2.9,9.7,1.3,8.5,9.1c6.4,0.8,10.8-5.9,8.8-23.8
		c-1.4-12.3,5.8-21.6,5.8-21.6s-18.9-3.9-7.9-14.1c7-6.4,14.3,4.3,13.4,9.2l17.2-15.7L599.5,99.2z"/>
</g>
<circle fill="none" stroke="#3DA8A4" stroke-width="13" stroke-miterlimit="10" cx="479.4" cy="278.6" r="273.7"/>
</svg>
