<?xml version="1.0" encoding="utf-8"?>
<!-- Generator: Adobe Illustrator 18.1.1, SVG Export Plug-In . SVG Version: 6.00 Build 0)  -->
<svg version="1.1" id="Layer_1" xmlns="http://www.w3.org/2000/svg" xmlns:xlink="http://www.w3.org/1999/xlink" x="0px" y="0px"
	 viewBox="0 239 600 361" enable-background="new 0 239 600 361" xml:space="preserve">
<polygon fill="#7ACCBE" points="908.9,598 -105,608.9 -105.2,592.3 908.8,569.8 "/>
<polygon fill="#3DA8A4" points="909.2,607.8 -104.9,618.5 -105.2,599.1 908.8,574.8 "/>
<line fill="none" stroke="#3DA8A4" stroke-width="3" stroke-miterlimit="10" x1="-165.1" y1="605.1" x2="1003.9" y2="605.1"/>
<path opacity="0.43" fill="#FFFFFF" enable-background="new    " d="M72.4,501c-6.9,2.9-17.9,5.8-26.2,0.2c-19.8,14.5-35.1,0-35.1,0
	s-19.5,8.2-29.3,0c0,0-11.5-23.5,15.5-19.5c-6.1-6.9-0.7-18,12.3-13.3c7.9-11.1,32.6-7.6,46.8,0.2c10.8-0.6,8.6,9.6,8.6,9.6
	s9-1.1,7.6,7.6C81.7,493.4,72.4,501,72.4,501z"/>
<g>
	<path fill="#F0BCC8" d="M67.5,448.7l0.1-0.2c0.3-0.1,0.4-0.3,0.5-0.3c0.6-0.1,3-0.4,2.7,1.2c-0.2,1.8-2.8,0.6-3.3-0.3
		C67.4,449.1,67.6,449,67.5,448.7L67.5,448.7c0.1,0.2,0.7,0.4,0.9,0.5c-0.1,0.1-0.1,0.1,0,0c0,0.1-0.1,0.1,0.1,0.1
		c0.1,0.1,0.1,0,0.1,0s-0.1-0.1-0.1-0.2c0,0,0,0-0.1,0.1L67.5,448.7z"/>
	<path fill="#F0BCC8" d="M66,451.8c0,0,0.9,0.2,1.5-0.1c1.2-1,0.4-2.1,0-2.4c-0.1-0.1-0.2-0.2-0.6-0.2l-0.1-0.2
		c0,0.1-0.4,0.2-0.4,0.2C64.6,450.7,66,451.8,66,451.8z M66.6,450.1L66.6,450.1c0,0.2,0.1,0.3,0,0.3c-0.1-0.1-0.1-0.1-0.1-0.2
		C66.4,450.1,66.4,450.1,66.6,450.1L66.6,450.1c-0.1-0.3,0.2-1,0.2-1L66.6,450.1z"/>
	<path fill="#F0BCC8" d="M68.3,445.4c2.1-0.3,1.6,1.4,1.6,1.4s-0.6,1.2-1.9,1.4c-0.1-0.1-0.2-0.1-0.4,0l-0.1-0.1
		c0.1-0.2,0.5-0.4,0.6-0.6c0.1,0.1,0.1,0.1,0.1,0.1s0.1-0.1,0.2-0.1c0.1-0.1,0-0.1,0-0.1s-0.1,0.1-0.2,0.1c-0.1,0.1,0.1,0.1,0,0.1
		l-0.6,0.6l-0.2-0.1c0-0.1-0.1-0.2-0.1-0.2C67.2,447.3,67.3,445.8,68.3,445.4z"/>
	<path fill="#F0BCC8" d="M63.4,448.4c0,0-0.3,1.1,0.3,1.4c1.2,1,2.7-0.5,3-0.9c0,0,0-0.1,0.1-0.2l-0.1-0.3c-0.1,0.1-0.2-0.1-0.2-0.2
		C63.6,447.1,63.4,448.4,63.4,448.4z M65.1,449.3c0.1-0.1,0.2-0.1,0.2,0c0,0.1,0.1,0.1,0.1,0.1c0.1-0.2,1-0.6,1-0.6l-1,0.7
		c-0.1,0.1-0.1,0.1,0,0.1c-0.1,0.1-0.2,0.1-0.2,0C65.2,449.5,65.2,449.5,65.1,449.3z"/>
	<path fill="#F0BCC8" d="M66.3,448c0.1,0.1,0.3,0,0.3,0l0.4-0.2c0,0,0.1-0.2,0.2-0.3c0.1-2.8-1.4-2.6-1.4-2.6s-0.6-0.1-1,0.3
		C63.8,446.6,65.7,447.8,66.3,448z M66,446.8c0.1-0.1,0.1,0,0.2,0.1c0.1,0.1,0.1,0.2,0,0.1l0,0c0.2,0.1,0.3,1,0.3,1l-0.3-1
		c0,0,0,0-0.1-0.1C66,446.8,66.1,446.9,66,446.8z"/>
	<path fill="#F0BCC8" d="M66.7,449.1c0.4,0.1,0.9-0.1,1-0.3c0.1-0.4-0.1-0.8-0.5-0.9c-0.4-0.1-0.9,0.1-1,0.3
		C66.1,448.6,66.3,449.1,66.7,449.1z M67.5,448.4C67.6,448.4,67.7,448.4,67.5,448.4C67.7,448.4,67.7,448.4,67.5,448.4
		C67.6,448.5,67.5,448.6,67.5,448.4C67.5,448.6,67.5,448.6,67.5,448.4c0,0.1-0.2,0.2-0.2,0.1L67.5,448.4L67.5,448.4z M67,449.1
		L67,449.1C67.2,449.2,67.2,449.2,67,449.1c-0.1,0-0.1,0-0.1-0.1C66.9,449.1,66.9,449,67,449.1L67,449.1c-0.1-0.2-0.1-0.3-0.1-0.3
		L67,449.1z M67,448.1L67,448.1L67,448.1L67,448.1c0.2,0.1,0.1,0.5,0.1,0.5L67,448.1L67,448.1C66.8,448,67,448.1,67,448.1z
		 M66.5,448.3C66.5,448.2,66.6,448.3,66.5,448.3L66.5,448.3c0.2,0,0.4,0.4,0.4,0.4L66.5,448.3L66.5,448.3
		C66.4,448.5,66.4,448.4,66.5,448.3L66.5,448.3z"/>
</g>
<g>
	<path fill="#F0BCC8" d="M175.7,414.1l0.1-0.2c0.3-0.1,0.5-0.4,0.5-0.3c0.8-0.2,3.4-0.5,3.1,1.4c-0.3,2-3.4,0.7-3.8-0.3
		C175.7,414.6,175.8,414.4,175.7,414.1L175.7,414.1c0.1,0.2,0.7,0.5,1.1,0.4l-0.1,0.1l0.1,0.2c0,0,0.1,0,0.2,0l-0.1-0.2
		c0,0-0.1-0.1-0.1,0L175.7,414.1z"/>
	<path fill="#F0BCC8" d="M173.9,417.8c0,0,1.1,0.3,1.6-0.1c1.3-1.1,0.5-2.5,0-2.9c0,0-0.2-0.1-0.5-0.1l-0.1-0.3
		c-0.2,0.1-0.6,0.2-0.5,0.3C172.2,416.3,173.9,417.8,173.9,417.8z M174.6,415.7L174.6,415.7c0.1,0.2,0,0.2,0,0.3
		c-0.1,0.1-0.1,0-0.1-0.2C174.5,415.8,174.5,415.7,174.6,415.7L174.6,415.7c-0.1-0.3,0.2-1.3,0.2-1.3L174.6,415.7z"/>
	<path fill="#F0BCC8" d="M176.5,410c2.5-0.3,1.8,1.7,1.8,1.7s-0.7,1.5-2.3,1.8c0,0-0.2-0.1-0.4,0l-0.1-0.2c0.2-0.2,0.6-0.6,0.7-0.7
		c0.1,0.1,0.1,0.1,0.1,0.1c0.1,0.1,0.2,0,0.1-0.2c0-0.2,0.1-0.2,0-0.3c-0.1-0.1-0.2,0-0.1,0.2c-0.1,0.1,0.1,0.1,0,0.1l-0.7,0.7
		l-0.3-0.2c0-0.1-0.1-0.2-0.1-0.3C175.4,412.2,175.5,410.5,176.5,410z"/>
	<path fill="#F0BCC8" d="M170.7,413.7c0,0-0.3,1.3,0.4,1.6c1.4,1.2,3.1-0.6,3.5-1.1c0,0,0-0.3,0.1-0.2l0-0.4
		c-0.1,0.1-0.2-0.2-0.4-0.3C171.2,412.1,170.7,413.7,170.7,413.7z M173,414.9c0.1-0.1,0.2-0.1,0.2,0c0,0.1,0.1,0.1,0.1,0.1
		c0.3-0.4,1.1-0.7,1.1-0.7l-1.1,0.8c-0.1,0.1-0.1,0.1,0,0.1c-0.1,0.1-0.2,0.1-0.2,0C173,415,173.1,414.9,173,414.9z"/>
	<path fill="#F0BCC8" d="M174.2,413.3c0,0,0.1,0,0.3,0l0.5-0.3c-0.1,0.1,0-0.3,0.3-0.4c0.1-3.3-1.6-3.1-1.6-3.1s-0.7-0.1-1.2,0.5
		C171.4,411.6,173.6,413,174.2,413.3z M174.1,411.7c0.1-0.1,0.1,0,0.2,0.1c0.1,0.1,0,0.2,0,0.3c-0.1,0.1-0.1,0.1-0.1,0.1
		c0.2,0.2,0.4,1.2,0.4,1.2l-0.4-1.2c-0.1-0.1-0.1-0.1-0.1-0.2C174.1,411.9,174.2,411.8,174.1,411.7z"/>
	<path fill="#F0BCC8" d="M174.8,414.5c0.5,0.1,1-0.1,1.2-0.5c0.2-0.4,0-0.8-0.4-1c-0.5-0.1-1,0.1-1.2,0.5S174.2,414.4,174.8,414.5z
		 M175.8,413.7C175.8,413.6,175.8,413.5,175.8,413.7L175.8,413.7C175.8,413.8,175.7,413.8,175.8,413.7
		C175.7,413.7,175.7,413.7,175.8,413.7c0,0.1-0.3,0.1-0.3,0.1L175.8,413.7L175.8,413.7z M175.1,414.4
		C175.1,414.4,175,414.4,175.1,414.4C175.3,414.5,175.2,414.6,175.1,414.4c-0.1,0-0.1,0.1-0.1-0.1
		C174.9,414.4,174.9,414.4,175.1,414.4L175.1,414.4c-0.2-0.1-0.1-0.5-0.1-0.5L175.1,414.4z M174.9,413.3L174.9,413.3
		C175,413.3,175,413.3,174.9,413.3L174.9,413.3c0.2,0.1,0.2,0.6,0.2,0.6L174.9,413.3L174.9,413.3C174.9,413.3,175,413.2,174.9,413.3
		z M174.4,413.5C174.5,413.5,174.5,413.5,174.4,413.5L174.4,413.5c0.2,0,0.5,0.3,0.5,0.3L174.4,413.5
		C174.5,413.6,174.5,413.6,174.4,413.5C174.5,413.6,174.5,413.6,174.4,413.5L174.4,413.5z"/>
</g>
<g>
	<path fill="#F0BCC8" d="M159,441.3l0.1-0.2c0.3-0.1,0.5-0.4,0.5-0.4c0.8-0.2,3.4-0.5,3.1,1.4c-0.3,2-3.4,0.7-3.8-0.3
		C159,441.8,158.9,441.7,159,441.3L159,441.3c0.1,0.2,0.7,0.5,1.1,0.4c-0.1,0.1-0.1,0.1-0.1,0.1l0.1,0.2c0.1,0.1,0.1,0,0.2,0
		l-0.1-0.2c-0.1-0.1-0.1-0.1-0.1,0L159,441.3z"/>
	<path fill="#F0BCC8" d="M157.3,445c0,0,1.1,0.3,1.6-0.1c1.3-1.1,0.5-2.5,0-2.9c0,0-0.2-0.1-0.5-0.1l-0.1-0.3
		c-0.2,0.1-0.6,0.2-0.5,0.3C155.6,443.6,157.3,445,157.3,445z M158,442.9L158,442.9c0.1,0.2,0,0.2,0,0.3c-0.1,0.1-0.1,0-0.1-0.2
		C157.7,442.9,157.8,442.9,158,442.9L158,442.9c-0.1-0.3,0.2-1.3,0.2-1.3L158,442.9z"/>
	<path fill="#F0BCC8" d="M159.7,437.3c2.5-0.3,1.8,1.7,1.8,1.7s-0.7,1.5-2.3,1.8c0,0-0.2-0.1-0.4,0l-0.1-0.2
		c0.2-0.2,0.6-0.6,0.7-0.7c0.1,0.1,0.1,0.1,0.1,0.1c0.1,0.1,0.2,0,0.1-0.2c0-0.2,0.1-0.2,0-0.3c-0.1-0.1-0.2,0-0.1,0.2
		c-0.1,0.1,0.1,0.1,0,0.1l-0.7,0.7l-0.3-0.2c0-0.1-0.1-0.2-0.1-0.3C158.6,439.5,158.7,437.7,159.7,437.3z"/>
	<path fill="#F0BCC8" d="M154,440.8c0,0-0.3,1.3,0.4,1.6c1.4,1.2,3.1-0.6,3.5-1.1c0,0,0-0.3,0.1-0.2l0-0.4c-0.1,0.1-0.2-0.2-0.4-0.3
		C154.4,439.3,154,440.8,154,440.8z M156.3,442.1c0.1-0.1,0.2-0.1,0.2,0c0,0.1,0.1,0.1,0.1,0.1c0.3-0.4,1.1-0.7,1.1-0.7l-1.1,0.8
		c-0.1,0.1-0.1,0.1,0,0.1c-0.1,0.1-0.2,0.1-0.2,0C156.3,442.1,156.3,442,156.3,442.1z"/>
	<path fill="#F0BCC8" d="M157.5,440.5c0,0,0.1,0,0.3,0l0.5-0.3c-0.1,0.1,0-0.3,0.3-0.4c0.1-3.3-1.6-3.1-1.6-3.1s-0.7-0.1-1.2,0.5
		C154.7,438.8,157,440.2,157.5,440.5z M157.5,439c0.1-0.1,0.1,0,0.2,0.1c0.1,0.1,0,0.2,0,0.3c-0.1,0.1-0.1,0.1-0.1,0.1
		c0.2,0.2,0.4,1.2,0.4,1.2l-0.4-1.2c-0.1-0.1-0.1-0.1-0.1-0.2C157.4,439.2,157.4,439,157.5,439z"/>
	<path fill="#F0BCC8" d="M158,441.7c0.5,0.1,1-0.1,1.2-0.5c0.2-0.4,0-0.8-0.4-1c-0.5-0.1-1,0.1-1.2,0.5
		C157.4,441.1,157.6,441.5,158,441.7z M159,440.9C159.1,440.8,159.1,440.8,159,440.9L159,440.9C159.2,440.9,159.1,441,159,440.9
		L159,440.9c0,0.1-0.3,0.1-0.3,0.1L159,440.9L159,440.9z M158.5,441.7C158.5,441.7,158.4,441.8,158.5,441.7
		C158.7,441.7,158.6,441.8,158.5,441.7c-0.1,0-0.1,0.1-0.1-0.1C158.3,441.6,158.3,441.6,158.5,441.7L158.5,441.7
		c-0.2-0.1-0.1-0.5-0.1-0.5L158.5,441.7z M158.2,440.5L158.2,440.5C158.3,440.4,158.3,440.4,158.2,440.5L158.2,440.5
		c0.2,0.1,0.2,0.6,0.2,0.6L158.2,440.5L158.2,440.5L158.2,440.5z M157.7,440.7C157.8,440.6,157.8,440.7,157.7,440.7L157.7,440.7
		c0.2,0,0.5,0.3,0.5,0.3L157.7,440.7C157.8,440.8,157.8,440.8,157.7,440.7C157.8,440.8,157.7,440.8,157.7,440.7
		C157.7,440.7,157.8,440.6,157.7,440.7z"/>
</g>
<g>
	<path fill="#F3DADC" d="M84.8,453.5l0.2-0.3c0.6-0.2,0.7-0.6,0.8-0.5c1.1-0.2,5.2-0.7,4.7,2.2c-0.5,3.1-5.2,1-5.8-0.5
		C84.8,454.2,84.8,454,84.8,453.5L84.8,453.5c0.4,0.3,1.2,0.9,1.7,1l0,0.1c-0.1,0.1,0,0.2,0.2,0.1c0.2,0,0.2-0.1,0.2-0.1
		c0.1-0.1,0-0.2-0.2-0.1c-0.1,0-0.1,0-0.3,0L84.8,453.5z"/>
	<path fill="#F3DADC" d="M82.2,458.9c0,0,1.7,0.5,2.5-0.1c2.1-1.8,0.7-3.7,0.2-4.4c-0.1-0.1-0.2-0.4-0.9-0.3l-0.3-0.5
		c-0.2,0.2-0.9,0.3-0.9,0.4C79.6,456.9,82.2,458.9,82.2,458.9z M83.4,456c0.1,0.1,0.1,0.1,0,0.2c0,0.1,0,0.3-0.1,0.4
		c-0.1,0.1-0.2-0.1-0.2-0.1C83.1,456.3,83.1,456.2,83.4,456L83.4,456c-0.3-0.5,0.4-1.9,0.4-1.9L83.4,456z"/>
	<path fill="#F3DADC" d="M86.3,447.5c3.8-0.5,2.7,2.5,2.7,2.5s-1.2,2.2-3.5,2.6c0,0-0.3-0.2-0.5-0.1l-0.1-0.2c0.5-0.3,1-0.8,1.1-1.2
		l0.1,0.1c0.1,0,0.2-0.1,0.3-0.1c0.1-0.1,0-0.3-0.1-0.3c-0.1,0-0.2,0.1-0.3,0.1c-0.1,0.1,0,0.1,0,0.3l-1.1,1.2l-0.4-0.3
		c0.1-0.2-0.2-0.4-0.2-0.4C84.2,451,84.5,448.3,86.3,447.5z"/>
	<path fill="#F3DADC" d="M77.1,452.9c0,0-0.5,2,0.5,2.4c2.3,1.7,4.8-0.9,5.4-1.5c0.1-0.1,0-0.3,0.3-0.4l0-0.6
		c-0.1,0-0.5-0.4-0.5-0.4C77.8,450.6,77.1,452.9,77.1,452.9z M80.9,454.5c0-0.1,0.2-0.2,0.2-0.1l0.1,0.1c0.3-0.5,1.7-1.1,1.7-1.1
		l-1.7,1.1c0.1,0.1,0,0.1-0.1,0.2c0,0.1-0.2,0.2-0.2,0.1C80.7,454.9,80.7,454.7,80.9,454.5z"/>
	<path fill="#F3DADC" d="M82.7,452.2c-0.1,0.1,0.3-0.1,0.6,0.2l0.8-0.3c-0.1,0,0.1-0.5,0.3-0.6c0-4.8-2.5-4.7-2.5-4.7
		s-1.3-0.1-1.8,0.7C78.2,449.9,81.8,451.9,82.7,452.2z M82.4,450.1c0.1-0.1,0.3,0,0.3,0c0.1,0.2,0.1,0.2,0.1,0.3
		c-0.1,0.1-0.1,0.1-0.1,0.1c0.3,0.4,0.6,1.8,0.6,1.8l-0.7-1.8c-0.1-0.1-0.1,0-0.1-0.2C82.4,450.3,82.4,450.1,82.4,450.1z"/>
	<path fill="#F3DADC" d="M83.4,454.4c0.8,0.2,1.5,0,1.8-0.7c0.3-0.7,0-1.3-0.7-1.7c-0.8-0.2-1.5,0.1-1.8,0.7
		C82.4,453.4,82.7,454,83.4,454.4z M84.8,452.9C85,452.8,85,452.8,84.8,452.9L85,453C84.9,453,84.9,453.1,84.8,452.9
		C84.9,453.1,84.9,453.1,84.8,452.9c0,0.1-0.5,0.3-0.5,0.3L84.8,452.9L84.8,452.9z M84.1,454.2c0.1,0.1,0.1,0.1,0.1,0.2
		s0.1,0.1-0.1,0.1c-0.1,0-0.2-0.1-0.2-0.1C83.8,454.2,83.8,454.2,84.1,454.2L84.1,454.2c-0.4-0.3-0.1-0.8-0.1-0.8L84.1,454.2z
		 M83.6,452.3C83.7,452.2,83.7,452.2,83.6,452.3c0.1,0.1,0.2,0.1,0.1,0.1l0,0c0.2,0.1,0.1,0.8,0.1,0.8l-0.2-0.7
		c-0.1,0.1-0.1,0.1-0.1-0.1C83.7,452.4,83.7,452.3,83.6,452.3z M83.1,452.6c0.1,0.1,0.1,0.1,0.1,0.2c-0.1,0.1-0.1,0.1-0.1,0.1
		c0.1,0,0.6,0.6,0.6,0.6L83,453c-0.1,0.1-0.1,0.1-0.1,0.1c-0.1-0.1-0.1-0.1-0.1-0.2C82.9,452.7,83,452.5,83.1,452.6z"/>
</g>
<g>
	<path fill="#F3DADC" d="M101.9,431.1l0.1-0.2c0.3-0.1,0.5-0.4,0.5-0.3c0.8-0.1,3.4-0.5,3.2,1.4c-0.3,2-3.5,0.7-3.9-0.3
		C101.8,431.5,102,431.3,101.9,431.1L101.9,431.1c0.2,0.1,0.7,0.5,1.1,0.5c-0.2,0.1-0.2,0.1-0.1,0.1l0.1,0.2c0.1,0,0.3,0,0.2-0.1
		l-0.1-0.2c-0.1-0.1-0.1-0.1-0.1,0L101.9,431.1z"/>
	<path fill="#F3DADC" d="M100,434.6c0,0,1.1,0.3,1.6-0.1c1.4-1,0.5-2.5,0-2.9c-0.1-0.1-0.2-0.2-0.7-0.2l-0.1-0.3
		c-0.2,0.1-0.6,0.2-0.5,0.3C98.3,433.3,100,434.6,100,434.6z M100.8,432.7L100.8,432.7c0.1,0.2,0,0.2,0,0.3s-0.1,0-0.1-0.2
		C100.7,432.7,100.7,432.6,100.8,432.7L100.8,432.7c-0.1-0.3,0.2-1.3,0.2-1.3L100.8,432.7z"/>
	<path fill="#F3DADC" d="M102.7,427c2.5-0.3,1.8,1.7,1.8,1.7s-0.8,1.5-2.4,1.7c0,0-0.2-0.1-0.4,0l-0.1-0.2c0.2-0.2,0.6-0.6,0.7-0.7
		l0.1,0.1c0.1,0.1,0.2,0,0.1-0.2c0-0.2,0.1-0.2,0-0.3c-0.1-0.1-0.2,0-0.1,0.2c-0.1,0.1,0.1,0.1,0,0.1l-0.7,0.7l-0.3-0.2
		c0-0.1-0.1-0.2-0.1-0.3C101.3,429.2,101.6,427.5,102.7,427z"/>
	<path fill="#F3DADC" d="M96.7,430.5c0,0-0.3,1.3,0.4,1.6c1.4,1.2,3.2-0.6,3.5-1c0,0,0-0.3,0.1-0.2l0-0.4c-0.1,0.1-0.2-0.2-0.4-0.3
		C97.1,429,96.7,430.5,96.7,430.5z M99.1,431.8c0.1-0.1,0.2-0.1,0.2,0c0.1,0.1,0.1,0.1,0.1,0.1c0.3-0.4,1.1-0.7,1.1-0.7l-1.1,0.7
		c-0.1,0.1-0.1,0.1,0,0.1c-0.1,0.1-0.2,0.1-0.2,0C99.2,431.9,99.2,431.8,99.1,431.8z"/>
	<path fill="#F3DADC" d="M100.3,430.2c0,0,0.1,0,0.3,0l0.5-0.3c-0.1,0.1,0-0.3,0.3-0.4c0.1-3.3-1.6-3.2-1.6-3.2s-0.8-0.1-1.3,0.5
		C97.4,428.5,99.8,429.9,100.3,430.2z M100.4,428.8c0.1-0.1,0.1,0,0.2,0.1c0.1,0.1,0,0.2,0,0.3c-0.1,0.1-0.1,0.1-0.1,0.1
		c0.2,0.2,0.4,1.2,0.4,1.2l-0.5-1.2c-0.1-0.1-0.1-0.1-0.1-0.2C100.1,428.8,100.2,428.8,100.4,428.8z"/>
	<path fill="#F3DADC" d="M100.9,431.5c0.5,0.1,1-0.1,1.2-0.5c0.2-0.4,0-0.9-0.5-1.1c-0.5-0.1-1,0.1-1.2,0.5
		C100.3,430.9,100.4,431.4,100.9,431.5z M101.8,430.7C101.7,430.6,101.9,430.5,101.8,430.7L101.8,430.7
		C101.9,430.7,101.9,430.7,101.8,430.7C101.8,430.6,101.8,430.6,101.8,430.7c-0.1,0.1-0.2,0.2-0.3,0.1L101.8,430.7
		C101.8,430.7,101.7,430.6,101.8,430.7z M101.3,431.5C101.3,431.5,101.2,431.5,101.3,431.5C101.5,431.5,101.4,431.6,101.3,431.5
		c-0.1,0-0.1,0.1-0.1-0.1C101.1,431.3,101.1,431.3,101.3,431.5L101.3,431.5c-0.2-0.1-0.1-0.5-0.1-0.5L101.3,431.5z M101,430.2
		L101,430.2C101.1,430.1,101.1,430.1,101,430.2L101,430.2c0.2,0.1,0.2,0.6,0.2,0.6L101,430.2L101,430.2
		C101.1,430.2,101.1,430.2,101,430.2z M100.5,430.5C100.6,430.4,100.6,430.5,100.5,430.5L100.5,430.5c0.2,0,0.5,0.3,0.5,0.3
		L100.5,430.5C100.6,430.6,100.6,430.6,100.5,430.5L100.5,430.5C100.5,430.5,100.6,430.5,100.5,430.5z"/>
</g>
<g>
	<path fill="#F3DADC" d="M174.6,393.7l0.1-0.2c0.3-0.1,0.5-0.4,0.5-0.3c0.8-0.1,3.4-0.5,3.2,1.4c-0.3,2-3.5,0.7-3.9-0.3
		C174.4,394.1,174.6,394,174.6,393.7L174.6,393.7c0.2,0.1,0.7,0.5,1.1,0.5c-0.2,0.1-0.2,0.1-0.1,0.1l0.1,0.2c0.1,0,0.3,0,0.2-0.1
		l-0.1-0.2c-0.1-0.1-0.1-0.1-0.1,0L174.6,393.7z"/>
	<path fill="#F3DADC" d="M172.7,397.2c0,0,1.1,0.3,1.6-0.1c1.4-1,0.5-2.5,0-2.9c-0.1-0.1-0.2-0.2-0.7-0.2l-0.1-0.3
		c-0.2,0.1-0.6,0.2-0.5,0.3C170.9,395.9,172.7,397.2,172.7,397.2z M173.5,395.3L173.5,395.3c0.1,0.2,0,0.2,0,0.3
		c-0.1,0.1-0.1,0-0.1-0.2C173.3,395.3,173.3,395.2,173.5,395.3L173.5,395.3c-0.1-0.3,0.2-1.3,0.2-1.3L173.5,395.3z"/>
	<path fill="#F3DADC" d="M175.3,389.6c2.5-0.3,1.8,1.7,1.8,1.7s-0.8,1.5-2.4,1.7c0,0-0.2-0.1-0.4,0l-0.1-0.2
		c0.2-0.2,0.6-0.6,0.7-0.7l0.1,0.1c0.1,0.1,0.2,0,0.1-0.2s0.1-0.2,0-0.3c-0.1-0.1-0.2,0-0.1,0.2c-0.1,0.1,0.1,0.1,0,0.1l-0.7,0.7
		l-0.3-0.2c0-0.1-0.1-0.2-0.1-0.3C174,391.8,174.2,390.1,175.3,389.6z"/>
	<path fill="#F3DADC" d="M169.3,393.1c0,0-0.3,1.3,0.4,1.6c1.4,1.2,3.2-0.6,3.5-1c0,0,0-0.3,0.1-0.2l0-0.4c-0.1,0.1-0.2-0.2-0.4-0.3
		C169.8,391.6,169.3,393.1,169.3,393.1z M171.7,394.4c0.1-0.1,0.2-0.1,0.2,0c0.1,0.1,0.1,0.1,0.1,0.1c0.3-0.4,1.1-0.7,1.1-0.7
		l-1.1,0.7c-0.1,0.1-0.1,0.1,0,0.1c-0.1,0.1-0.2,0.1-0.2,0C171.8,394.5,171.8,394.4,171.7,394.4z"/>
	<path fill="#F3DADC" d="M173,392.8c0,0,0.1,0,0.3,0l0.5-0.3c-0.1,0.1,0-0.3,0.3-0.4c0.1-3.3-1.6-3.2-1.6-3.2s-0.8-0.1-1.3,0.5
		C170,391.2,172.4,392.5,173,392.8z M173,391.4c0.1-0.1,0.1,0,0.2,0.1c0.1,0.1,0,0.2,0,0.3c-0.1,0.1-0.1,0.1-0.1,0.1
		c0.2,0.2,0.4,1.2,0.4,1.2l-0.5-1.2c-0.1-0.1-0.1-0.1-0.1-0.2C172.8,391.4,172.8,391.4,173,391.4z"/>
	<path fill="#F3DADC" d="M173.6,394.1c0.5,0.1,1-0.1,1.2-0.5s0-0.9-0.5-1.1c-0.5-0.1-1,0.1-1.2,0.5C172.9,393.5,173,394,173.6,394.1
		z M174.4,393.3C174.4,393.2,174.6,393.2,174.4,393.3L174.4,393.3C174.5,393.3,174.5,393.3,174.4,393.3
		C174.5,393.3,174.5,393.3,174.4,393.3c-0.1,0.1-0.2,0.2-0.3,0.1L174.4,393.3C174.4,393.3,174.4,393.2,174.4,393.3z M173.9,394.1
		C173.9,394.1,173.8,394.1,173.9,394.1C174.1,394.1,174,394.2,173.9,394.1c-0.1,0-0.1,0.1-0.1-0.1
		C173.7,393.9,173.7,393.9,173.9,394.1L173.9,394.1c-0.2-0.1-0.1-0.5-0.1-0.5L173.9,394.1z M173.7,392.8L173.7,392.8
		C173.8,392.8,173.8,392.8,173.7,392.8L173.7,392.8c0.2,0.1,0.2,0.6,0.2,0.6L173.7,392.8L173.7,392.8
		C173.7,392.9,173.7,392.9,173.7,392.8z M173.1,393.1C173.2,393,173.2,393.1,173.1,393.1L173.1,393.1c0.2,0,0.5,0.3,0.5,0.3
		L173.1,393.1C173.2,393.2,173.2,393.2,173.1,393.1L173.1,393.1C173.1,393.1,173.2,393.1,173.1,393.1z"/>
</g>
<g>
	<path fill="#F3DADC" d="M332,428.5l0.1-0.2c0.3-0.1,0.5-0.4,0.5-0.3c0.8-0.1,3.4-0.5,3.2,1.4c-0.3,2-3.5,0.7-3.9-0.3
		C331.9,428.8,332,428.7,332,428.5L332,428.5c0.2,0.1,0.7,0.5,1.1,0.5c-0.2,0.1-0.2,0.1-0.1,0.1l0.1,0.2c0.1,0,0.3,0,0.2-0.1
		l-0.1-0.2c-0.1-0.1-0.1-0.1-0.1,0L332,428.5z"/>
	<path fill="#F3DADC" d="M330.1,432c0,0,1.1,0.3,1.6-0.1c1.4-1,0.5-2.5,0-2.9c-0.1-0.1-0.2-0.2-0.7-0.2l-0.1-0.3
		c-0.2,0.1-0.6,0.2-0.5,0.3C328.3,430.7,330.1,432,330.1,432z M330.9,430.1L330.9,430.1c0.1,0.2,0,0.2,0,0.3c-0.1,0.1-0.1,0-0.1-0.2
		C330.7,430.1,330.7,430,330.9,430.1L330.9,430.1c-0.1-0.3,0.2-1.3,0.2-1.3L330.9,430.1z"/>
	<path fill="#F3DADC" d="M332.7,424.4c2.5-0.3,1.8,1.7,1.8,1.7s-0.8,1.5-2.4,1.7c0,0-0.2-0.1-0.4,0l-0.1-0.2
		c0.2-0.2,0.6-0.6,0.7-0.7l0.1,0.1c0.1,0.1,0.2,0,0.1-0.2s0.1-0.2,0-0.3c-0.1-0.1-0.2,0-0.1,0.2c-0.1,0.1,0.1,0.1,0,0.1l-0.7,0.7
		l-0.3-0.2c0-0.1-0.1-0.2-0.1-0.3C331.4,426.6,331.6,424.9,332.7,424.4z"/>
	<path fill="#F3DADC" d="M326.7,427.9c0,0-0.3,1.3,0.4,1.6c1.4,1.2,3.2-0.6,3.5-1c0,0,0-0.3,0.1-0.2l0-0.4c-0.1,0.1-0.2-0.2-0.4-0.3
		C327.2,426.4,326.7,427.9,326.7,427.9z M329.2,429.2c0.1-0.1,0.2-0.1,0.2,0c0.1,0.1,0.1,0.1,0.1,0.1c0.3-0.4,1.1-0.7,1.1-0.7
		l-1.1,0.7c-0.1,0.1-0.1,0.1,0,0.1c-0.1,0.1-0.2,0.1-0.2,0C329.3,429.3,329.3,429.2,329.2,429.2z"/>
	<path fill="#F3DADC" d="M330.4,427.6c0,0,0.1,0,0.3,0l0.5-0.3c-0.1,0.1,0-0.3,0.3-0.4c0.1-3.3-1.6-3.2-1.6-3.2s-0.8-0.1-1.3,0.5
		C327.5,425.9,329.8,427.3,330.4,427.6z M330.4,426.1c0.1-0.1,0.1,0,0.2,0.1c0.1,0.1,0,0.2,0,0.3c-0.1,0.1-0.1,0.1-0.1,0.1
		c0.2,0.2,0.4,1.2,0.4,1.2l-0.5-1.2c-0.1-0.1-0.1-0.1-0.1-0.2C330.2,426.2,330.3,426.2,330.4,426.1z"/>
	<path fill="#F3DADC" d="M331,428.9c0.5,0.1,1-0.1,1.2-0.5c0.2-0.4,0-0.9-0.5-1.1c-0.5-0.1-1,0.1-1.2,0.5
		C330.4,428.3,330.4,428.8,331,428.9z M331.8,428.1C331.8,428,332,427.9,331.8,428.1L331.8,428.1
		C331.9,428.1,331.9,428.1,331.8,428.1C331.9,428,331.9,428,331.8,428.1c-0.1,0.1-0.2,0.2-0.3,0.1L331.8,428.1
		C331.8,428.1,331.8,428,331.8,428.1z M331.3,428.9C331.3,428.9,331.2,428.9,331.3,428.9C331.5,428.9,331.5,429,331.3,428.9
		c-0.1,0-0.1,0.1-0.1-0.1C331.1,428.7,331.1,428.7,331.3,428.9L331.3,428.9c-0.2-0.1-0.1-0.5-0.1-0.5L331.3,428.9z M331.1,427.5
		L331.1,427.5C331.2,427.5,331.2,427.5,331.1,427.5L331.1,427.5c0.2,0.1,0.2,0.6,0.2,0.6L331.1,427.5L331.1,427.5
		C331.1,427.6,331.1,427.6,331.1,427.5z M330.6,427.9C330.6,427.8,330.6,427.9,330.6,427.9L330.6,427.9c0.2,0,0.5,0.3,0.5,0.3
		L330.6,427.9C330.7,428,330.7,428,330.6,427.9L330.6,427.9C330.6,427.9,330.6,427.9,330.6,427.9z"/>
</g>
<g>
	<path fill="#F3DADC" d="M412.9,395.7l0.1-0.2c0.3-0.1,0.5-0.4,0.5-0.3c0.8-0.1,3.4-0.5,3.2,1.4c-0.3,2-3.5,0.7-3.9-0.3
		C412.8,396.1,412.9,396,412.9,395.7L412.9,395.7c0.2,0.1,0.7,0.5,1.1,0.5c-0.2,0.1-0.2,0.1-0.1,0.1l0.1,0.2c0.1,0,0.3,0,0.2-0.1
		l-0.1-0.2c-0.1-0.1-0.1-0.1-0.1,0L412.9,395.7z"/>
	<path fill="#F3DADC" d="M411,399.3c0,0,1.1,0.3,1.6-0.1c1.4-1,0.5-2.5,0-2.9c-0.1-0.1-0.2-0.2-0.7-0.2l-0.1-0.3
		c-0.2,0.1-0.6,0.2-0.5,0.3C409.2,398,411,399.3,411,399.3z M411.8,397.3L411.8,397.3c0.1,0.2,0,0.2,0,0.3c-0.1,0.1-0.1,0-0.1-0.2
		C411.6,397.4,411.6,397.3,411.8,397.3L411.8,397.3c-0.1-0.3,0.2-1.3,0.2-1.3L411.8,397.3z"/>
	<path fill="#F3DADC" d="M413.6,391.7c2.5-0.3,1.8,1.7,1.8,1.7s-0.8,1.5-2.4,1.7c0,0-0.2-0.1-0.4,0l-0.1-0.2
		c0.2-0.2,0.6-0.6,0.7-0.7l0.1,0.1c0.1,0.1,0.2,0,0.1-0.2c0-0.2,0.1-0.2,0-0.3c-0.1-0.1-0.2,0-0.1,0.2c-0.1,0.1,0.1,0.1,0,0.1
		l-0.7,0.7l-0.3-0.2c0-0.1-0.1-0.2-0.1-0.3C412.3,393.9,412.5,392.1,413.6,391.7z"/>
	<path fill="#F3DADC" d="M407.6,395.2c0,0-0.3,1.3,0.4,1.6c1.4,1.2,3.2-0.6,3.5-1c0,0,0-0.3,0.1-0.2l0-0.4c-0.1,0.1-0.2-0.2-0.4-0.3
		C408.1,393.7,407.6,395.2,407.6,395.2z M410.1,396.5c0.1-0.1,0.2-0.1,0.2,0c0.1,0.1,0.1,0.1,0.1,0.1c0.3-0.4,1.1-0.7,1.1-0.7
		l-1.1,0.7c-0.1,0.1-0.1,0.1,0,0.1c-0.1,0.1-0.2,0.1-0.2,0S410.1,396.5,410.1,396.5z"/>
	<path fill="#F3DADC" d="M411.3,394.8c0,0,0.1,0,0.3,0l0.5-0.3c-0.1,0.1,0-0.3,0.3-0.4c0.1-3.3-1.6-3.2-1.6-3.2s-0.8-0.1-1.3,0.5
		C408.3,393.2,410.7,394.6,411.3,394.8z M411.3,393.4c0.1-0.1,0.1,0,0.2,0.1c0.1,0.1,0,0.2,0,0.3c-0.1,0.1-0.1,0.1-0.1,0.1
		c0.2,0.2,0.4,1.2,0.4,1.2l-0.5-1.2c-0.1-0.1-0.1-0.1-0.1-0.2C411.1,393.5,411.1,393.4,411.3,393.4z"/>
	<path fill="#F3DADC" d="M411.9,396.2c0.5,0.1,1-0.1,1.2-0.5c0.2-0.4,0-0.9-0.5-1.1c-0.5-0.1-1,0.1-1.2,0.5
		C411.2,395.6,411.3,396.1,411.9,396.2z M412.7,395.3C412.7,395.2,412.9,395.2,412.7,395.3L412.7,395.3
		C412.8,395.4,412.8,395.4,412.7,395.3C412.8,395.3,412.8,395.3,412.7,395.3c-0.1,0.1-0.2,0.2-0.3,0.1L412.7,395.3
		C412.7,395.3,412.7,395.2,412.7,395.3z M412.2,396.1C412.2,396.1,412.1,396.1,412.2,396.1C412.4,396.2,412.3,396.3,412.2,396.1
		c-0.1,0-0.1,0.1-0.1-0.1C412,396,412,396,412.2,396.1L412.2,396.1c-0.2-0.1-0.1-0.5-0.1-0.5L412.2,396.1z M412,394.8L412,394.8
		C412.1,394.8,412.1,394.8,412,394.8L412,394.8c0.2,0.1,0.2,0.6,0.2,0.6L412,394.8L412,394.8C412,394.9,412,394.9,412,394.8z
		 M411.4,395.2C411.5,395.1,411.5,395.2,411.4,395.2L411.4,395.2c0.2,0,0.5,0.3,0.5,0.3L411.4,395.2
		C411.5,395.2,411.5,395.2,411.4,395.2L411.4,395.2C411.4,395.2,411.5,395.2,411.4,395.2z"/>
</g>
<g>
	<path fill="#F3DADC" d="M551.3,472.6l0.1-0.2c0.3-0.1,0.5-0.4,0.5-0.3c0.8-0.1,3.4-0.5,3.2,1.4c-0.3,2-3.5,0.7-3.9-0.3
		C551.2,472.9,551.4,472.8,551.3,472.6L551.3,472.6c0.2,0.1,0.7,0.5,1.1,0.5c-0.2,0.1-0.2,0.1-0.1,0.1l0.1,0.2c0.1,0,0.3,0,0.2-0.1
		l-0.1-0.2c-0.1-0.1-0.1-0.1-0.1,0L551.3,472.6z"/>
	<path fill="#F3DADC" d="M549.4,476.1c0,0,1.1,0.3,1.6-0.1c1.4-1,0.5-2.5,0-2.9c-0.1-0.1-0.2-0.2-0.7-0.2l-0.1-0.3
		c-0.2,0.1-0.6,0.2-0.5,0.3C547.7,474.8,549.4,476.1,549.4,476.1z M550.3,474.2L550.3,474.2c0.1,0.2,0,0.2,0,0.3
		c-0.1,0.1-0.1,0-0.1-0.2C550.1,474.2,550.1,474.1,550.3,474.2L550.3,474.2c-0.1-0.3,0.2-1.3,0.2-1.3L550.3,474.2z"/>
	<path fill="#F3DADC" d="M552.1,468.5c2.5-0.3,1.8,1.7,1.8,1.7s-0.8,1.5-2.4,1.7c0,0-0.2-0.1-0.4,0l-0.1-0.2
		c0.2-0.2,0.6-0.6,0.7-0.7l0.1,0.1c0.1,0.1,0.2,0,0.1-0.2c0-0.2,0.1-0.2,0-0.3c-0.1-0.1-0.2,0-0.1,0.2c-0.1,0.1,0.1,0.1,0,0.1
		l-0.7,0.7l-0.3-0.2c0-0.1-0.1-0.2-0.1-0.3C550.8,470.7,551,469,552.1,468.5z"/>
	<path fill="#F3DADC" d="M546.1,472c0,0-0.3,1.3,0.4,1.6c1.4,1.2,3.2-0.6,3.5-1c0,0,0-0.3,0.1-0.2l0-0.4c-0.1,0.1-0.2-0.2-0.4-0.3
		C546.5,470.5,546.1,472,546.1,472z M548.5,473.3c0.1-0.1,0.2-0.1,0.2,0c0.1,0.1,0.1,0.1,0.1,0.1c0.3-0.4,1.1-0.7,1.1-0.7l-1.1,0.7
		c-0.1,0.1-0.1,0.1,0,0.1c-0.1,0.1-0.2,0.1-0.2,0S548.6,473.3,548.5,473.3z"/>
	<path fill="#F3DADC" d="M549.8,471.7c0,0,0.1,0,0.3,0l0.5-0.3c-0.1,0.1,0-0.3,0.3-0.4c0.1-3.3-1.6-3.2-1.6-3.2s-0.8-0.1-1.3,0.5
		C546.8,470,549.2,471.4,549.8,471.7z M549.8,470.2c0.1-0.1,0.1,0,0.2,0.1s0,0.2,0,0.3c-0.1,0.1-0.1,0.1-0.1,0.1
		c0.2,0.2,0.4,1.2,0.4,1.2l-0.5-1.2c-0.1-0.1-0.1-0.1-0.1-0.2C549.5,470.3,549.6,470.3,549.8,470.2z"/>
	<path fill="#F3DADC" d="M550.3,473c0.5,0.1,1-0.1,1.2-0.5c0.2-0.4,0-0.9-0.5-1.1c-0.5-0.1-1,0.1-1.2,0.5
		C549.7,472.4,549.8,472.9,550.3,473z M551.2,472.1C551.2,472.1,551.3,472,551.2,472.1L551.2,472.1
		C551.3,472.2,551.3,472.2,551.2,472.1C551.3,472.1,551.3,472.1,551.2,472.1c-0.1,0.1-0.2,0.2-0.3,0.1L551.2,472.1
		C551.2,472.1,551.2,472.1,551.2,472.1z M550.7,472.9C550.7,472.9,550.6,473,550.7,472.9C550.9,473,550.8,473.1,550.7,472.9
		c-0.1,0-0.1,0.1-0.1-0.1C550.5,472.8,550.5,472.8,550.7,472.9L550.7,472.9c-0.2-0.1-0.1-0.5-0.1-0.5L550.7,472.9z M550.5,471.6
		L550.5,471.6C550.6,471.6,550.6,471.6,550.5,471.6L550.5,471.6c0.2,0.1,0.2,0.6,0.2,0.6L550.5,471.6L550.5,471.6
		C550.5,471.7,550.5,471.7,550.5,471.6z M549.9,472C550,471.9,550,472,549.9,472L549.9,472c0.2,0,0.5,0.3,0.5,0.3L549.9,472
		C550,472.1,550,472.1,549.9,472L549.9,472C549.9,472,550,472,549.9,472z"/>
</g>
<g>
	<path fill="#F3DADC" d="M125.1,453.8l0.2-0.3c0.6-0.2,0.7-0.6,0.8-0.5c1.1-0.2,5.2-0.7,4.7,2.2c-0.5,3.1-5.2,1-5.8-0.5
		C125.2,454.6,125.2,454.4,125.1,453.8L125.1,453.8c0.4,0.3,1.2,0.9,1.7,1l0,0.1c-0.1,0.1,0,0.2,0.2,0.1c0.1,0,0.2-0.1,0.2-0.1
		c0.1-0.1,0-0.2-0.2-0.1c-0.2,0-0.1,0-0.3,0L125.1,453.8z"/>
	<path fill="#F3DADC" d="M122.6,459.1c0,0,1.7,0.5,2.5-0.1c2.1-1.8,0.7-3.7,0.2-4.4c-0.1-0.1-0.2-0.4-0.9-0.3l-0.3-0.5
		c-0.2,0.2-0.9,0.3-0.9,0.4C120,457.1,122.6,459.1,122.6,459.1z M123.8,456.2c0.1,0.1,0.1,0.1,0,0.2c0,0.1,0,0.3-0.1,0.4
		c-0.1,0.1-0.2-0.1-0.2-0.1s0-0.3,0.1-0.4L123.8,456.2c-0.3-0.5,0.4-1.9,0.4-1.9L123.8,456.2z"/>
	<path fill="#F3DADC" d="M126.8,447.7c3.8-0.5,2.7,2.5,2.7,2.5s-1.2,2.2-3.5,2.6c0,0-0.3-0.2-0.5-0.1l-0.1-0.2
		c0.5-0.3,1-0.8,1.1-1.2l0.1,0.1c0.1,0,0.2-0.1,0.3-0.1c0-0.1,0-0.3-0.1-0.3c-0.1,0-0.2,0.1-0.3,0.1c-0.1,0.1,0,0.1,0,0.3l-1.1,1.2
		l-0.4-0.3c0.1-0.2-0.2-0.4-0.2-0.4C124.6,451.2,124.9,448.5,126.8,447.7z"/>
	<path fill="#F3DADC" d="M117.5,453.1c0,0-0.5,2,0.5,2.4c2.3,1.7,4.8-0.9,5.4-1.5c0.1-0.1,0-0.3,0.3-0.4l0-0.6
		c-0.1,0-0.5-0.4-0.5-0.4C118.3,450.7,117.5,453.1,117.5,453.1z M121.2,454.7c0-0.1,0.2-0.2,0.2-0.1l0.1,0.1
		c0.3-0.5,1.7-1.1,1.7-1.1l-1.7,1.1c0.1,0.1,0,0.1-0.1,0.2c0,0.1-0.2,0.2-0.2,0.1C121.1,455.1,121.1,454.9,121.2,454.7z"/>
	<path fill="#F3DADC" d="M123.1,452.5c-0.1,0.1,0.3-0.1,0.6,0.2l0.8-0.3c-0.1,0,0.1-0.5,0.3-0.6c0-4.8-2.5-4.7-2.5-4.7
		s-1.3-0.1-1.8,0.7C118.6,450.1,122.1,452.1,123.1,452.5z M122.8,450.3c0.1-0.1,0.3,0,0.3,0c0.1,0.2,0.1,0.2,0.1,0.3
		c-0.1,0.1-0.1,0.1-0.1,0.1c0.3,0.4,0.6,1.8,0.6,1.8l-0.7-1.8c-0.1-0.1-0.1,0-0.1-0.2C122.9,450.5,122.8,450.3,122.8,450.3z"/>
	<path fill="#F3DADC" d="M123.7,454.6c0.8,0.2,1.5,0,1.8-0.7c0.3-0.7,0-1.3-0.7-1.7c-0.8-0.2-1.5,0.1-1.8,0.7
		C122.8,453.5,123.1,454.3,123.7,454.6z M125.2,453.2C125.3,453.1,125.4,453.1,125.2,453.2c0.1,0,0.2,0,0.2,0.1
		C125.4,453.2,125.4,453.4,125.2,453.2C125.3,453.3,125.3,453.3,125.2,453.2c-0.2,0.1-0.5,0.3-0.5,0.3L125.2,453.2
		C125.3,453.1,125.3,453.1,125.2,453.2z M124.4,454.4c0.1,0.1,0.1,0.1,0.1,0.2c0.1,0.1,0.1,0.1-0.1,0.1c-0.2,0-0.2-0.1-0.2-0.1
		C124.2,454.5,124.2,454.5,124.4,454.4L124.4,454.4c-0.4-0.3-0.1-0.8-0.1-0.8L124.4,454.4z M124.1,452.5
		C124.2,452.4,124.2,452.6,124.1,452.5c0.2-0.1,0.2,0.1,0.1,0.1l0,0c0.2,0.1,0.1,0.8,0.1,0.8L124.1,452.5
		C124,452.6,124,452.6,124.1,452.5C124,452.5,124.1,452.5,124.1,452.5z M123.4,452.8c0.1,0.1,0.1,0.1,0.1,0.2
		c-0.1,0.1-0.1,0.1-0.1,0.1c0.1,0,0.6,0.6,0.6,0.6l-0.7-0.5c-0.1,0.1-0.1,0.1-0.1,0.1c-0.1-0.1-0.1-0.1-0.1-0.2
		C123.3,452.9,123.3,452.9,123.4,452.8z"/>
</g>
<g>
	<path fill="#F3DADC" d="M191.9,430.5l0.2-0.1c0.5,0.3,0.8,0.1,0.8,0.1c0.9,0.6,3.9,2.6,1.9,4.5c-2.2,2.1-4.1-2.3-3.8-3.8
		c0.1-0.1,0.2-0.2,0.4-0.5L191.9,430.5c0,0.4,0.2,1.2,0.5,1.6c-0.1,0-0.1,0-0.1,0.1c-0.1,0.1,0,0.3,0.1,0.3c0.1,0.1,0.1,0.2,0.2,0.1
		c0.1-0.1,0.1-0.2-0.1-0.3c-0.1-0.1-0.1-0.2-0.1-0.2L191.9,430.5z"/>
	<path fill="#F3DADC" d="M186.8,432.8c0,0,0.9,1.4,1.8,1.5c2.3,0.1,2.6-2.3,2.6-3.1c0.1-0.1,0-0.5-0.4-0.7l0.1-0.5
		c-0.2,0.1-0.8-0.2-0.8-0.2C186.2,429.6,186.8,432.8,186.8,432.8z M189.2,431.3c0.1,0.1,0,0.1,0,0.3c0,0.1-0.1,0.2-0.2,0.1
		c0.1-0.1,0-0.1,0-0.3C188.9,431.1,189.1,431.1,189.2,431.3C189.2,431.3,189.2,431.3,189.2,431.3c0.3-0.5,1.4-1,1.4-1L189.2,431.3z"
		/>
	<path fill="#F3DADC" d="M196.4,426.9c2.8,1.9,0.4,3.5,0.4,3.5s-2,1-3.8-0.2c-0.1-0.1-0.2-0.2-0.4-0.3l0-0.2
		c0.5,0.1,1.1,0.1,1.4-0.1c0.1,0.1,0.1,0.1,0.1,0.1c0.1,0.1,0.2,0.1,0.3,0c0.1,0,0.1-0.2,0.1-0.2c-0.1-0.1-0.2-0.1-0.3,0
		c0,0.1-0.2,0.1-0.2,0.1l-1.5,0.2l-0.2-0.4c0.2-0.1,0.1-0.5,0.1-0.5C192.8,428.2,194.5,426.3,196.4,426.9z"/>
	<path fill="#F3DADC" d="M186.8,425.3c0,0-1.4,1-1.1,2.1c0.6,2.8,3.8,2.2,4.4,2.1c0.1-0.1,0.1-0.2,0.3-0.1l0.3-0.4
		c-0.1,0,0-0.5-0.1-0.6C188.7,424,186.8,425.3,186.8,425.3z M188.5,428.7c0.1-0.1,0.3,0,0.2,0.1l-0.1,0.1c0.4-0.2,1.8,0.2,1.8,0.2
		l-1.7-0.2c-0.1,0.1-0.1,0.1-0.2,0c-0.1,0.1-0.3,0-0.2-0.1C188.2,428.8,188.3,428.8,188.5,428.7z"/>
	<path fill="#F3DADC" d="M190.9,428.1c0,0,0.3,0.2,0.3,0.5l0.7,0.1c-0.2-0.1,0.2-0.2,0.4-0.2c2.9-3.5,1-4.9,1-4.9s-0.8-0.9-1.6-0.7
		C189.3,423.7,190.5,427.4,190.9,428.1z M192.2,426.6c0.1,0.1,0.1,0.2,0.1,0.2s-0.1,0.2-0.1,0.2l-0.1-0.1c0,0.5-0.6,1.6-0.6,1.6
		l0.5-1.7c-0.1-0.1,0-0.1,0-0.2C191.9,426.5,192,426.4,192.2,426.6z"/>
	<path fill="#F3DADC" d="M190.4,430.1c0.4,0.6,1.1,1,1.6,0.7c0.6-0.3,0.7-1,0.4-1.6c-0.4-0.6-1.1-0.9-1.6-0.7
		C190.1,428.7,190,429.4,190.4,430.1z M192.1,430c0.2-0.1,0.2,0,0.3,0c0.1,0.1,0.1,0.1,0,0.1s-0.1,0.1-0.1,0
		C192,430,192,430,192.1,430c-0.1,0.1-0.5-0.1-0.5-0.1L192.1,430L192.1,430z M190.9,430.4C190.8,430.5,191,430.4,190.9,430.4
		c-0.1,0.2,0,0.2-0.1,0.2c-0.1,0,0-0.2-0.1-0.2c0.1-0.1,0-0.1,0.1-0.1C190.7,430.3,190.7,430.4,190.9,430.4
		c-0.1-0.3,0.3-0.6,0.3-0.6L190.9,430.4z M191.6,428.8c0.1,0.1,0.1,0,0.1,0.2l-0.1,0.1l-0.1-0.1c0,0.2-0.3,0.6-0.3,0.6l0.3-0.6
		L191.6,428.8L191.6,428.8z M190.9,428.6c0.1,0.1,0.1,0.1,0.1,0.2c-0.1,0.1-0.1,0.1-0.1,0.1c0.1,0,0.1,0.8,0.1,0.8l-0.1-0.8
		l-0.1-0.1C190.9,428.7,190.9,428.7,190.9,428.6C190.9,428.6,191,428.7,190.9,428.6z"/>
</g>
<g>
	<path fill="#F3DADC" d="M39.3,468.7l0-0.3c0.3-0.3,0.3-0.6,0.3-0.6c0.6-0.5,2.8-2.2,3.5-0.3c0.9,1.9-2.6,2.3-3.7,1.6
		C39.5,469.2,39.6,469.1,39.3,468.7L39.3,468.7c0.4,0,1,0.1,1.3-0.1c-0.1,0.1-0.1,0.1,0,0.1c0,0,0.1,0,0.3,0c0.1-0.1,0.2,0,0.2-0.1
		c0,0-0.1,0-0.3,0c0,0-0.1-0.1-0.1,0.1L39.3,468.7z"/>
	<path fill="#F3DADC" d="M39.8,472.6c0,0,1-0.3,1.5-0.9c0.6-1.5-1-2.2-1.6-2.4c-0.1-0.1-0.3,0-0.6,0.2l-0.3-0.2
		c0,0.3-0.3,0.4-0.3,0.4C37.5,472.2,39.8,472.6,39.8,472.6z M39.4,470.6c0.1,0.1,0.1,0.1,0.1,0.2c0,0.1,0,0.2,0,0.3
		c-0.1,0.1-0.1,0-0.2-0.1S39.2,470.7,39.4,470.6L39.4,470.6c-0.2-0.1-0.4-1.2-0.4-1.2L39.4,470.6z"/>
	<path fill="#F3DADC" d="M38.1,464.8c2.1-1.4,2.5,0.6,2.5,0.6s0.1,1.5-1.1,2.5c-0.1,0.1-0.3,0-0.3,0.1l-0.1,0
		c0.1-0.2,0.2-0.7,0.2-0.9c0.1,0.1,0.1,0.1,0.1,0.1c0.1,0.1,0.2-0.1,0.1-0.2s0-0.2-0.1-0.2c-0.1-0.1-0.2,0.1-0.1,0.2
		c0,0-0.1,0.1,0.1,0.1l-0.2,1l-0.4,0c-0.1-0.2-0.3-0.2-0.3-0.2C38.1,467.4,37.2,466,38.1,464.8z"/>
	<path fill="#F3DADC" d="M34.6,470.9c0,0,0.5,1.2,1.2,1.1c2,0.2,2.5-1.9,2.6-2.6c0,0-0.1-0.2,0-0.2l-0.2-0.2
		c-0.1,0.1-0.5-0.1-0.5-0.1C34.2,469.3,34.6,470.9,34.6,470.9z M37.4,470.6c0-0.1,0.1-0.2,0.2-0.1l0.1,0.1c0-0.4,0.6-1.2,0.6-1.2
		l-0.6,1.2c-0.1,0.1,0.1,0.1,0,0.1c0,0.1-0.1,0.2-0.2,0.1C37.4,470.7,37.4,470.7,37.4,470.6z"/>
	<path fill="#F3DADC" d="M37.8,468.9c0.1,0.1,0.1-0.2,0.4-0.1l0.3-0.5c-0.2,0.1-0.2-0.1-0.1-0.3c-1.8-2.6-3.2-1.9-3.2-1.9
		s-0.6,0.4-0.8,0.9C34.2,468.8,37,468.8,37.8,468.9z M36.8,467.6c0,0,0.1-0.1,0.3,0c0.1,0,0.2,0.1,0.1,0.2s-0.1,0.1-0.1,0.1
		c0.5,0.1,0.9,0.8,0.9,0.8L37,468c-0.1,0.1-0.1,0.1-0.1,0C36.8,467.7,36.7,467.7,36.8,467.6z"/>
	<path fill="#F3DADC" d="M38.8,469.5c0.5-0.1,0.8-0.5,0.8-0.9c-0.1-0.4-0.5-0.5-1.1-0.6c-0.5,0.1-0.8,0.5-0.8,0.9
		C37.9,469.4,38.3,469.6,38.8,469.5z M39.2,468.4c0,0,0.1-0.1,0.2-0.1l0.1,0.1C39.3,468.4,39.3,468.4,39.2,468.4
		C39.3,468.4,39.3,468.4,39.2,468.4c0,0.1-0.1,0.4-0.2,0.3L39.2,468.4L39.2,468.4z M39.1,469.2L39.1,469.2c0.2,0.1,0.2,0.1,0.1,0.2
		c-0.1-0.1-0.1,0-0.3,0c-0.1,0-0.1,0-0.1-0.1c0.1,0.1,0.1,0.1,0.1,0.1c-0.3,0-0.3-0.3-0.3-0.3L39.1,469.2z M38.3,468.4L38.3,468.4
		L38.3,468.4L38.3,468.4c0.4,0,0.4,0.4,0.4,0.4L38.3,468.4C38.4,468.5,38.4,468.5,38.3,468.4C38.2,468.5,38.3,468.4,38.3,468.4z
		 M38,468.9L38,468.9L38,468.9c0.2-0.1,0.6,0,0.6,0L38,468.9L38,468.9C38,468.9,38,468.9,38,468.9C37.8,468.9,37.8,468.9,38,468.9z"
		/>
</g>
<g>
	<path fill="#F0BCC8" d="M141,419.4l0.6,0c0.7,0.7,1.5,0.5,1.4,0.6c1.1,1.5,4.9,7.1,0.4,9.1c-5.1,2.2-5.4-6.7-3.7-9.1
		c0.1-0.1,0.4-0.2,1.2-0.6L141,419.4c-0.2,0.7-0.5,2.5-0.2,3.2l-0.1,0.1c-0.1,0-0.2,0.2-0.1,0.5c0.1,0.2,0.3,0.4,0.4,0.3
		c0.1,0,0.2-0.3,0.1-0.5c-0.1-0.1-0.2-0.1-0.1-0.3L141,419.4z"/>
	<path fill="#F0BCC8" d="M130.9,420.5c0,0,0.4,2.9,1.9,3.6c4.1,1.5,5.9-2.5,6.6-4c0.1-0.1,0.3-0.8-0.2-1.5l0.4-0.9
		c-0.5,0-1.1-0.9-1.2-0.9C132.1,414.7,130.9,420.5,130.9,420.5z M136.2,419.5c0,0.1-0.1,0.2-0.2,0.3c-0.1,0.2-0.4,0.2-0.5,0
		c-0.1-0.1,0-0.4,0.3-0.5c0.1-0.2,0.4-0.2,0.5,0l0.1,0.1c0.7-0.7,3.1-1.1,3.1-1.1L136.2,419.5z"/>
	<path fill="#F0BCC8" d="M151.2,415.9c3.5,5.1-1.7,6.5-1.7,6.5s-4,0.4-6.4-2.7c-0.1-0.1-0.1-0.6-0.4-0.9l0-0.3
		c0.8,0.2,1.9,0.7,2.5,0.5c0,0,0,0-0.1,0.1c0,0.1,0.2,0.2,0.5,0.3c0.2-0.1,0.4-0.2,0.5-0.3c0-0.1-0.2-0.2-0.5-0.3
		c-0.1-0.1-0.2,0-0.2,0.1l-2.6-0.5l0.1-0.9c0.3-0.1,0.5-0.8,0.6-0.8C144.6,416,148.5,413.9,151.2,415.9z"/>
	<path fill="#F0BCC8" d="M136.1,407.5c0,0-3.1,1.1-3.2,3c-0.8,5.1,4.9,6.1,6.2,6.5c0.1,0.1,0.4-0.2,0.7,0l0.8-0.5
		c0-0.2,0.3-1.1,0.3-1.2C140.2,406.2,136.1,407.5,136.1,407.5z M136.5,414.3c0.2,0.1,0.4,0.2,0.4,0.3c0,0,0,0-0.1,0.1
		c0.9,0,2.9,1.6,2.9,1.6l-3-1.4c-0.2,0.1-0.2,0-0.3,0.1c-0.2-0.1-0.4-0.2-0.4-0.3C136.1,414.4,136.2,414.3,136.5,414.3z"/>
	<path fill="#F0BCC8" d="M141.1,414.7c-0.1,0.1,0.3,0.5,0.3,1l1.2,0.7c0-0.2,0.7-0.3,1.1,0c7.2-4.4,5.1-8,5.1-8s-0.9-1.7-2.5-1.9
		C141.6,406.2,141.2,413.3,141.1,414.7z M144.2,412.5c0.1,0.2,0.1,0.3,0,0.5c-0.1,0.2-0.3,0.4-0.5,0.3c0,0,0.1-0.1-0.1-0.1
		c-0.2,0.9-2.2,2.5-2.2,2.5l2.2-2.7c0.1-0.1,0-0.3,0-0.3C144,412.6,144.1,412.5,144.2,412.5z"/>
	<path fill="#F0BCC8" d="M138.9,418c0.2,1.2,1.2,2.1,2.4,2c1-0.2,1.9-1.3,1.8-2.6c-0.2-1.2-1.2-2.1-2.4-2
		C139.5,415.5,138.6,416.8,138.9,418z M142,418.8c0.1-0.1,0.1,0,0.1,0.2c-0.1,0.1,0,0.1-0.2,0.1c-0.1,0.1-0.1,0-0.1-0.2
		c-0.1-0.1-0.1-0.1,0-0.1c-0.2,0.1-0.7-0.4-0.7-0.4l0.7,0.4C141.9,418.7,142,418.8,142,418.8z M139.5,418.9c0.1,0.1,0,0.3,0,0.3
		c0,0.1-0.2,0-0.3,0c0-0.2-0.1-0.3,0-0.5c0-0.1,0.2,0,0.3,0l0.1,0.1c0.2-0.7,1-0.8,1-0.8L139.5,418.9z M142.1,416.5
		c0.1,0.1,0,0.2,0,0.2c-0.1,0.1-0.2,0-0.2,0.1l-0.1-0.1c0,0.5-0.9,0.9-0.9,0.9l0.9-0.9c-0.1-0.1,0-0.1,0-0.3
		C141.9,416.5,142,416.5,142.1,416.5z M141,415.8c0.1,0.1,0,0.3-0.1,0.2s-0.1,0.1-0.1,0.1c0.1,0.2-0.3,1.5-0.3,1.5l0.2-1.5
		c0,0,0,0-0.1-0.1s0-0.3,0.1-0.2C140.9,415.8,140.9,415.8,141,415.8z"/>
</g>
<g>
	<path fill="#F1BBC8" d="M437.1,416.8l0.4-0.7c1.4-0.4,1.8-1.3,1.9-1.3c2.6-0.5,11.9-1.6,10.8,5c-1.2,7.2-11.8,2.3-13.4-1.1
		C436.8,418.4,437.1,417.8,437.1,416.8L437.1,416.8c0.7,0.7,2.6,2.1,3.6,2.1c-0.1,0.1-0.1,0.1,0,0.1c0,0.3,0.2,0.4,0.5,0.4
		c0.4,0,0.7,0,0.7-0.3c0-0.3-0.2-0.4-0.5-0.4c-0.2-0.1-0.5,0-0.5,0L437.1,416.8z"/>
	<path fill="#F1BBC8" d="M430.8,429.3c0,0,3.7,1.3,5.7-0.2c4.7-3.9,1.4-8.4,0.1-10c0-0.2-0.7-1-1.9-0.7l-0.6-1
		c-0.4,0.6-1.8,0.8-2,0.9C425,424.6,430.8,429.3,430.8,429.3z M433.5,422.4c0.1,0.2,0.2,0.1,0.2,0.4c0.1,0.3-0.2,0.7-0.3,0.6
		c-0.2,0.1-0.4-0.2-0.4-0.5c-0.1-0.3,0.2-0.7,0.3-0.6c0.1-0.1,0.1-0.1,0.1,0c-0.4-1.1,1.1-4.3,1.1-4.3L433.5,422.4z"/>
	<path fill="#F1BBC8" d="M440.5,403.1c8.6-1.1,6.3,5.8,6.3,5.8s-2.6,5-7.8,6c-0.1,0-0.8-0.2-1.4-0.1l-0.4-0.2
		c0.9-0.8,2.3-1.9,2.4-2.6c0.1,0.1,0.1,0.1,0.1,0.2c0.2,0.1,0.5-0.1,0.6-0.5c0.1-0.4,0.2-0.7-0.1-0.8c-0.2-0.1-0.5,0.1-0.6,0.5
		c-0.1,0.2-0.1,0.4-0.1,0.5l-2.6,2.7l-1-0.6c0.1-0.5-0.4-1.1-0.4-1.2C435.7,410.7,436.1,404.7,440.5,403.1z"/>
	<path fill="#F1BBC8" d="M419.3,415.4c0,0-1.1,4.5,1.3,5.6c5.4,4,10.8-2.1,12.1-3.5c0.1-0.1,0-0.6,0.4-0.9l0-1.3
		c-0.2,0.1-1.1-0.9-1.2-1C421.1,409.8,419.3,415.4,419.3,415.4z M427.9,419.1c0.2-0.2,0.5-0.4,0.7-0.3c0,0,0,0,0.1,0.1
		c0.6-1.1,3.9-2.4,3.9-2.4l-3.9,2.7c0,0.1,0,0.3-0.2,0.4c-0.2,0.2-0.5,0.4-0.7,0.3C427.6,419.7,427.6,419.4,427.9,419.1z"/>
	<path fill="#F1BBC8" d="M431.7,414.1c0.1,0,0.8-0.1,1.3,0.3l1.7-0.9c-0.3,0.1,0.2-1,0.8-1.3c0.2-11.2-5.5-10.7-5.5-10.7
		s-2.8,0-4.2,1.6C422,408.3,429.9,413,431.7,414.1z M431.5,408.9c0.2-0.1,0.4-0.1,0.7,0.2s0.2,0.6,0.1,0.8l-0.1,0.1
		c0.9,0.9,1.3,4.1,1.3,4.1l-1.4-4.1c-0.1,0-0.3-0.2-0.4-0.3C431.4,409.4,431.3,409.1,431.5,408.9z"/>
	<path fill="#F1BBC8" d="M433.7,418.6c1.6,0.5,3.4,0,4-1.5c0.7-1.4-0.2-3.1-1.7-3.6c-1.6-0.5-3.4,0-4,1.5
		C431.4,416.3,432.1,418,433.7,418.6z M437,415.3c0-0.1,0.1-0.2,0.3-0.1c0.1,0,0.1,0.2,0.1,0.2s-0.1,0.2-0.3,0.1
		C437,415.5,437,415.5,437,415.3c-0.2,0.4-1.1,0.6-1.1,0.6L437,415.3C436.9,415.4,436.9,415.4,437,415.3z M435.2,418.2
		c0.1,0.2,0.2,0.1,0.2,0.2c0.1,0.2,0,0.2-0.2,0.1s-0.4-0.2-0.6-0.3c-0.1-0.2,0-0.2,0.2-0.1c0.1,0.1,0.1,0.1,0.1,0
		c-0.6-0.6-0.2-1.7-0.2-1.7L435.2,418.2z M434.3,413.9c0.2,0,0.3-0.1,0.4,0c0.1,0.1,0,0.3-0.1,0.4l-0.1,0.1c0.6,0.3,0.4,1.6,0.4,1.6
		l-0.4-1.6c-0.1-0.1-0.1,0-0.1-0.2C434.2,414.1,434.3,414,434.3,413.9z M432.6,414.7c0.1,0,0.2,0.1,0.2,0.2c0.1,0.1,0.1,0.1,0.1,0.1
		c0.5,0,1.5,1.3,1.5,1.3l-1.5-1.3l-0.1,0.1c-0.1,0-0.2-0.1-0.2-0.2C432.6,414.7,432.5,414.8,432.6,414.7z"/>
</g>
<g>
	<path fill="#F0BCC8" d="M255.7,433.7l0.1-0.2c0.3-0.1,0.4-0.3,0.5-0.3c0.6-0.1,3-0.4,2.7,1.2c-0.2,1.8-2.8,0.6-3.3-0.3
		C255.6,434.1,255.8,434,255.7,433.7L255.7,433.7c0.1,0.2,0.7,0.4,0.9,0.5c-0.1,0.1-0.1,0.1,0,0c0,0.1-0.1,0.1,0.1,0.1
		c0.1,0.1,0.1,0,0.1,0s-0.1-0.1-0.1-0.2c0,0,0,0-0.1,0.1L255.7,433.7z"/>
	<path fill="#F0BCC8" d="M254.2,436.8c0,0,0.9,0.2,1.5-0.1c1.2-1,0.4-2.1,0-2.4c-0.1-0.1-0.2-0.2-0.6-0.2l-0.1-0.2
		c0,0.1-0.4,0.2-0.4,0.2C252.8,435.7,254.2,436.8,254.2,436.8z M254.8,435.1L254.8,435.1c0,0.2,0.1,0.3,0,0.3s-0.1-0.1-0.1-0.2
		C254.6,435.1,254.6,435.1,254.8,435.1L254.8,435.1c-0.1-0.3,0.2-1,0.2-1L254.8,435.1z"/>
	<path fill="#F0BCC8" d="M256.5,430.4c2.1-0.3,1.6,1.4,1.6,1.4s-0.6,1.2-1.9,1.4c-0.1-0.1-0.2-0.1-0.4,0l-0.1-0.1
		c0.1-0.2,0.5-0.4,0.6-0.6c0.1,0.1,0.1,0.1,0.1,0.1s0.1-0.1,0.2-0.1c0.1-0.1,0-0.1,0-0.1s-0.1,0.1-0.2,0.1c-0.1,0.1,0.1,0.1,0,0.1
		l-0.6,0.6l-0.2-0.1c0-0.1-0.1-0.2-0.1-0.2C255.4,432.3,255.5,430.8,256.5,430.4z"/>
	<path fill="#F0BCC8" d="M251.6,433.4c0,0-0.3,1.1,0.3,1.4c1.2,1,2.7-0.5,3-0.9c0,0,0-0.1,0.1-0.2l-0.1-0.3
		c-0.1,0.1-0.2-0.1-0.2-0.2C251.8,432.1,251.6,433.4,251.6,433.4z M253.3,434.3c0.1-0.1,0.2-0.1,0.2,0c0,0.1,0.1,0.1,0.1,0.1
		c0.1-0.2,1-0.6,1-0.6l-1,0.7c-0.1,0.1-0.1,0.1,0,0.1c-0.1,0.1-0.2,0.1-0.2,0C253.4,434.5,253.4,434.5,253.3,434.3z"/>
	<path fill="#F0BCC8" d="M254.5,433c0.1,0.1,0.3,0,0.3,0l0.4-0.2c0,0,0.1-0.2,0.2-0.3c0.1-2.8-1.4-2.6-1.4-2.6s-0.6-0.1-1,0.3
		C252,431.6,253.9,432.8,254.5,433z M254.2,431.8c0.1-0.1,0.1,0,0.2,0.1c0.1,0.1,0.1,0.2,0,0.1l0,0c0.2,0.1,0.3,1,0.3,1l-0.3-1
		c0,0,0,0-0.1-0.1C254.2,431.8,254.3,431.9,254.2,431.8z"/>
	<path fill="#F0BCC8" d="M254.9,434.1c0.4,0.1,0.9-0.1,1-0.3c0.1-0.4-0.1-0.8-0.5-0.9c-0.4-0.1-0.9,0.1-1,0.3
		C254.3,433.6,254.5,434.1,254.9,434.1z M255.7,433.4C255.8,433.4,255.9,433.4,255.7,433.4C255.9,433.4,255.9,433.4,255.7,433.4
		C255.8,433.5,255.7,433.6,255.7,433.4C255.7,433.6,255.7,433.6,255.7,433.4c0,0.1-0.2,0.2-0.2,0.1L255.7,433.4L255.7,433.4z
		 M255.2,434.1L255.2,434.1C255.4,434.2,255.4,434.2,255.2,434.1c-0.1,0-0.1,0-0.1-0.1C255.1,434.1,255.1,434,255.2,434.1
		L255.2,434.1c-0.1-0.2-0.1-0.3-0.1-0.3L255.2,434.1z M255.2,433.1L255.2,433.1L255.2,433.1L255.2,433.1c0.2,0.1,0.1,0.5,0.1,0.5
		L255.2,433.1L255.2,433.1C255,433.1,255.2,433.1,255.2,433.1z M254.7,433.3C254.7,433.2,254.8,433.3,254.7,433.3L254.7,433.3
		c0.2,0,0.4,0.4,0.4,0.4L254.7,433.3L254.7,433.3C254.6,433.5,254.6,433.4,254.7,433.3L254.7,433.3z"/>
</g>
<g>
	<path fill="#F0BCC8" d="M365.2,446.1l0.1-0.2c0.3-0.1,0.5-0.4,0.5-0.3c0.8-0.2,3.4-0.5,3.1,1.4c-0.3,2-3.4,0.7-3.8-0.3
		C365.1,446.5,365.2,446.3,365.2,446.1L365.2,446.1c0.1,0.2,0.7,0.5,1.1,0.4l-0.1,0.1l0.1,0.2c0,0,0.1,0,0.2,0l-0.1-0.2
		c0,0-0.1-0.1-0.1,0L365.2,446.1z"/>
	<path fill="#F0BCC8" d="M363.4,449.7c0,0,1.1,0.3,1.6-0.1c1.3-1.1,0.5-2.5,0-2.9c0,0-0.2-0.1-0.5-0.1l-0.1-0.3
		c-0.2,0.1-0.6,0.2-0.5,0.3C361.7,448.3,363.4,449.7,363.4,449.7z M364.1,447.6L364.1,447.6c0.1,0.2,0,0.2,0,0.3s-0.1,0-0.1-0.2
		C363.9,447.7,364,447.6,364.1,447.6L364.1,447.6c-0.1-0.3,0.2-1.3,0.2-1.3L364.1,447.6z"/>
	<path fill="#F0BCC8" d="M366,441.9c2.5-0.3,1.8,1.7,1.8,1.7s-0.7,1.5-2.3,1.8c0,0-0.2-0.1-0.4,0l-0.1-0.2c0.2-0.2,0.6-0.6,0.7-0.7
		c0.1,0.1,0.1,0.1,0.1,0.1c0.1,0.1,0.2,0,0.1-0.2c0-0.2,0.1-0.2,0-0.3c-0.1-0.1-0.2,0-0.1,0.2c-0.1,0.1,0.1,0.1,0,0.1l-0.7,0.7
		l-0.3-0.2c0-0.1-0.1-0.2-0.1-0.3C364.8,444.2,364.9,442.5,366,441.9z"/>
	<path fill="#F0BCC8" d="M360.2,445.6c0,0-0.3,1.3,0.4,1.6c1.4,1.2,3.1-0.6,3.5-1.1c0,0,0-0.3,0.1-0.2l0-0.4
		c-0.1,0.1-0.2-0.2-0.4-0.3C360.6,444,360.2,445.6,360.2,445.6z M362.4,446.8c0.1-0.1,0.2-0.1,0.2,0s0.1,0.1,0.1,0.1
		c0.3-0.4,1.1-0.7,1.1-0.7l-1.1,0.8c-0.1,0.1-0.1,0.1,0,0.1c-0.1,0.1-0.2,0.1-0.2,0C362.4,446.9,362.5,446.8,362.4,446.8z"/>
	<path fill="#F0BCC8" d="M363.7,445.2c0,0,0.1,0,0.3,0l0.5-0.3c-0.1,0.1,0-0.3,0.3-0.4c0.1-3.3-1.6-3.1-1.6-3.1s-0.7-0.1-1.2,0.5
		C360.9,443.5,363.1,444.9,363.7,445.2z M363.6,443.7c0.1-0.1,0.1,0,0.2,0.1s0,0.2,0,0.3c-0.1,0.1-0.1,0.1-0.1,0.1
		c0.2,0.2,0.4,1.2,0.4,1.2l-0.4-1.2c-0.1-0.1-0.1-0.1-0.1-0.2S363.6,443.7,363.6,443.7z"/>
	<path fill="#F0BCC8" d="M364.2,446.4c0.5,0.1,1-0.1,1.2-0.5c0.2-0.4,0-0.8-0.4-1c-0.5-0.1-1,0.1-1.2,0.5S363.7,446.3,364.2,446.4z
		 M365.3,445.6C365.2,445.5,365.2,445.4,365.3,445.6L365.3,445.6C365.3,445.7,365.2,445.7,365.3,445.6
		C365.2,445.6,365.2,445.6,365.3,445.6c0,0.1-0.3,0.1-0.3,0.1L365.3,445.6L365.3,445.6z M364.6,446.3
		C364.6,446.3,364.5,446.4,364.6,446.3C364.8,446.4,364.7,446.5,364.6,446.3c-0.1,0-0.1,0.1-0.1-0.1
		C364.4,446.3,364.4,446.3,364.6,446.3L364.6,446.3c-0.2-0.1-0.1-0.5-0.1-0.5L364.6,446.3z M364.4,445.2L364.4,445.2
		C364.5,445.2,364.5,445.2,364.4,445.2L364.4,445.2c0.2,0.1,0.2,0.6,0.2,0.6L364.4,445.2L364.4,445.2
		C364.4,445.2,364.5,445.1,364.4,445.2z M363.9,445.4C364,445.5,364,445.4,363.9,445.4L363.9,445.4c0.2,0,0.5,0.3,0.5,0.3
		L363.9,445.4C363.9,445.5,363.9,445.5,363.9,445.4C363.9,445.5,363.9,445.5,363.9,445.4L363.9,445.4z"/>
</g>
<g>
	<path fill="#F0BCC8" d="M345.1,458.9l0.1-0.2c0.3-0.1,0.5-0.4,0.5-0.4c0.8-0.2,3.4-0.5,3.1,1.4c-0.3,2-3.4,0.7-3.8-0.3
		C345.1,459.5,345.1,459.3,345.1,458.9L345.1,458.9c0.1,0.2,0.7,0.5,1.1,0.4c-0.1,0.1-0.1,0.1-0.1,0.1l0.1,0.2c0.1,0.1,0.1,0,0.2,0
		l-0.1-0.2c-0.1-0.1-0.1-0.1-0.1,0L345.1,458.9z"/>
	<path fill="#F0BCC8" d="M343.4,462.6c0,0,1.1,0.3,1.6-0.1c1.3-1.1,0.5-2.5,0-2.9c0,0-0.2-0.1-0.5-0.1l-0.1-0.3
		c-0.2,0.1-0.6,0.2-0.5,0.3C341.8,461.2,343.4,462.6,343.4,462.6z M344.1,460.5L344.1,460.5c0.1,0.2,0,0.2,0,0.3
		c-0.1,0.1-0.1,0-0.1-0.2C343.9,460.6,344,460.5,344.1,460.5L344.1,460.5c-0.1-0.3,0.2-1.3,0.2-1.3L344.1,460.5z"/>
	<path fill="#F0BCC8" d="M345.9,454.9c2.5-0.3,1.8,1.7,1.8,1.7s-0.7,1.5-2.3,1.8c0,0-0.2-0.1-0.4,0l-0.1-0.2
		c0.2-0.2,0.6-0.6,0.7-0.7c0.1,0.1,0.1,0.1,0.1,0.1c0.1,0.1,0.2,0,0.1-0.2c0-0.2,0.1-0.2,0-0.3c-0.1-0.1-0.2,0-0.1,0.2
		c-0.1,0.1,0.1,0.1,0,0.1l-0.7,0.7l-0.3-0.2c0-0.1-0.1-0.2-0.1-0.3C344.7,457.1,344.9,455.3,345.9,454.9z"/>
	<path fill="#F0BCC8" d="M340.1,458.4c0,0-0.3,1.3,0.4,1.6c1.4,1.2,3.1-0.6,3.5-1.1c0,0,0-0.3,0.1-0.2l0-0.4
		c-0.1,0.1-0.2-0.2-0.4-0.3C340.6,456.9,340.1,458.4,340.1,458.4z M342.4,459.7c0.1-0.1,0.2-0.1,0.2,0c0,0.1,0.1,0.1,0.1,0.1
		c0.3-0.4,1.1-0.7,1.1-0.7l-1.1,0.8c-0.1,0.1-0.1,0.1,0,0.1c-0.1,0.1-0.2,0.1-0.2,0C342.4,459.7,342.5,459.6,342.4,459.7z"/>
	<path fill="#F0BCC8" d="M343.7,458.1c0,0,0.1,0,0.3,0l0.5-0.3c-0.1,0.1,0-0.3,0.3-0.4c0.1-3.3-1.6-3.1-1.6-3.1s-0.7-0.1-1.2,0.5
		C340.9,456.4,343.2,457.8,343.7,458.1z M343.7,456.6c0.1-0.1,0.1,0,0.2,0.1c0.1,0.1,0,0.2,0,0.3c-0.1,0.1-0.1,0.1-0.1,0.1
		c0.2,0.2,0.4,1.2,0.4,1.2l-0.4-1.2c-0.1-0.1-0.1-0.1-0.1-0.2C343.5,456.8,343.6,456.6,343.7,456.6z"/>
	<path fill="#F0BCC8" d="M344.1,459.4c0.5,0.1,1-0.1,1.2-0.5c0.2-0.4,0-0.8-0.4-1c-0.5-0.1-1,0.1-1.2,0.5
		C343.6,458.7,343.7,459.2,344.1,459.4z M345.2,458.6C345.2,458.5,345.2,458.5,345.2,458.6L345.2,458.6
		C345.3,458.5,345.3,458.6,345.2,458.6L345.2,458.6c0,0.1-0.3,0.1-0.3,0.1L345.2,458.6L345.2,458.6z M344.7,459.3
		C344.7,459.3,344.6,459.4,344.7,459.3C344.8,459.3,344.8,459.4,344.7,459.3c-0.1,0-0.1,0.1-0.1-0.1
		C344.5,459.2,344.5,459.2,344.7,459.3L344.7,459.3c-0.2-0.1-0.1-0.5-0.1-0.5L344.7,459.3z M344.4,458.1L344.4,458.1
		C344.4,458.1,344.4,458.1,344.4,458.1L344.4,458.1c0.2,0.1,0.2,0.6,0.2,0.6L344.4,458.1L344.4,458.1L344.4,458.1z M343.9,458.3
		C343.9,458.2,344,458.3,343.9,458.3L343.9,458.3c0.2,0,0.5,0.3,0.5,0.3L343.9,458.3C344,458.4,344,458.4,343.9,458.3
		C344,458.4,343.9,458.4,343.9,458.3C343.9,458.3,343.9,458.2,343.9,458.3z"/>
</g>
<g>
	<path fill="#F3DADC" d="M273,438.5l0.2-0.3c0.6-0.2,0.7-0.6,0.8-0.5c1.1-0.2,5.2-0.7,4.7,2.2c-0.5,3.1-5.2,1-5.8-0.5
		C273,439.2,273,439,273,438.5L273,438.5c0.4,0.3,1.2,0.9,1.7,1l0,0.1c-0.1,0.1,0,0.2,0.2,0.1c0.2,0,0.2-0.1,0.2-0.1
		c0.1-0.1,0-0.2-0.2-0.1c-0.1,0-0.1,0-0.3,0L273,438.5z"/>
	<path fill="#F3DADC" d="M270.4,443.9c0,0,1.7,0.5,2.5-0.1c2.1-1.8,0.7-3.7,0.2-4.4c-0.1-0.1-0.2-0.4-0.9-0.3l-0.3-0.5
		c-0.2,0.2-0.9,0.3-0.9,0.4C267.8,441.9,270.4,443.9,270.4,443.9z M271.6,441c0.1,0.1,0.1,0.1,0,0.2c0,0.1,0,0.3-0.1,0.4
		c-0.1,0.1-0.2-0.1-0.2-0.1C271.3,441.3,271.3,441.2,271.6,441L271.6,441c-0.3-0.5,0.4-1.9,0.4-1.9L271.6,441z"/>
	<path fill="#F3DADC" d="M274.5,432.5c3.8-0.5,2.7,2.5,2.7,2.5s-1.2,2.2-3.5,2.6c0,0-0.3-0.2-0.5-0.1l-0.1-0.2
		c0.5-0.3,1-0.8,1.1-1.2l0.1,0.1c0.1,0,0.2-0.1,0.3-0.1c0.1-0.1,0-0.3-0.1-0.3c-0.1,0-0.2,0.1-0.3,0.1c-0.1,0.1,0,0.1,0,0.3
		l-1.1,1.2l-0.4-0.3c0.1-0.2-0.2-0.4-0.2-0.4C272.4,436,272.7,433.3,274.5,432.5z"/>
	<path fill="#F3DADC" d="M265.3,437.9c0,0-0.5,2,0.5,2.4c2.3,1.7,4.8-0.9,5.4-1.5c0.1-0.1,0-0.3,0.3-0.4l0-0.6
		c-0.1,0-0.5-0.4-0.5-0.4C266,435.6,265.3,437.9,265.3,437.9z M269.1,439.5c0-0.1,0.2-0.2,0.2-0.1l0.1,0.1c0.3-0.5,1.7-1.1,1.7-1.1
		l-1.7,1.1c0.1,0.1,0,0.1-0.1,0.2c0,0.1-0.2,0.2-0.2,0.1C268.9,439.9,268.9,439.7,269.1,439.5z"/>
	<path fill="#F3DADC" d="M270.9,437.2c-0.1,0.1,0.3-0.1,0.6,0.2l0.8-0.3c-0.1,0,0.1-0.5,0.3-0.6c0-4.8-2.5-4.7-2.5-4.7
		s-1.3-0.1-1.8,0.7C266.4,434.9,270,436.9,270.9,437.2z M270.6,435.2c0.1-0.1,0.3,0,0.3,0c0.1,0.2,0.1,0.2,0.1,0.3
		c-0.1,0.1-0.1,0.1-0.1,0.1c0.3,0.4,0.6,1.8,0.6,1.8l-0.7-1.8c-0.1-0.1-0.1,0-0.1-0.2C270.6,435.3,270.6,435.2,270.6,435.2z"/>
	<path fill="#F3DADC" d="M271.6,439.4c0.8,0.2,1.5,0,1.8-0.7c0.3-0.7,0-1.3-0.7-1.7c-0.8-0.2-1.5,0.1-1.8,0.7
		C270.6,438.4,270.9,439,271.6,439.4z M273,438C273.2,437.8,273.2,437.8,273,438l0.2,0.1C273.1,438,273.1,438.1,273,438
		C273.1,438.1,273.1,438.1,273,438c0,0.1-0.5,0.3-0.5,0.3L273,438L273,438z M272.3,439.2c0.1,0.1,0.1,0.1,0.1,0.2
		c0,0.1,0.1,0.1-0.1,0.1c-0.1,0-0.2-0.1-0.2-0.1C272,439.2,272,439.2,272.3,439.2L272.3,439.2c-0.4-0.3-0.1-0.8-0.1-0.8L272.3,439.2
		z M271.8,437.3C271.9,437.2,271.9,437.2,271.8,437.3c0.1,0.1,0.2,0.1,0.1,0.1l0,0c0.2,0.1,0.1,0.8,0.1,0.8l-0.2-0.7
		c-0.1,0.1-0.1,0.1-0.1-0.1C271.9,437.4,271.9,437.3,271.8,437.3z M271.3,437.6c0.1,0.1,0.1,0.1,0.1,0.2c-0.1,0.1-0.1,0.1-0.1,0.1
		c0.1,0,0.6,0.6,0.6,0.6l-0.7-0.5c-0.1,0.1-0.1,0.1-0.1,0.1c-0.1-0.1-0.1-0.1-0.1-0.2C271.1,437.7,271.2,437.5,271.3,437.6z"/>
</g>
<g>
	<path fill="#F3DADC" d="M298.1,440.2l0.1-0.2c0.3-0.1,0.5-0.4,0.5-0.3c0.8-0.1,3.4-0.5,3.2,1.4c-0.3,2-3.5,0.7-3.9-0.3
		C298,440.6,298.1,440.5,298.1,440.2L298.1,440.2c0.2,0.1,0.7,0.5,1.1,0.5c-0.2,0.1-0.2,0.1-0.1,0.1l0.1,0.2c0.1,0,0.3,0,0.2-0.1
		l-0.1-0.2c-0.1-0.1-0.1-0.1-0.1,0L298.1,440.2z"/>
	<path fill="#F3DADC" d="M296.2,443.7c0,0,1.1,0.3,1.6-0.1c1.4-1,0.5-2.5,0-2.9c-0.1-0.1-0.2-0.2-0.7-0.2l-0.1-0.3
		c-0.2,0.1-0.6,0.2-0.5,0.3C294.5,442.4,296.2,443.7,296.2,443.7z M297,441.8L297,441.8c0.1,0.2,0,0.2,0,0.3c-0.1,0.1-0.1,0-0.1-0.2
		C296.8,441.8,296.8,441.8,297,441.8L297,441.8c-0.1-0.3,0.2-1.3,0.2-1.3L297,441.8z"/>
	<path fill="#F3DADC" d="M298.8,436.2c2.5-0.3,1.8,1.7,1.8,1.7s-0.8,1.5-2.4,1.7c0,0-0.2-0.1-0.4,0l-0.1-0.2
		c0.2-0.2,0.6-0.6,0.7-0.7l0.1,0.1c0.1,0.1,0.2,0,0.1-0.2c0-0.2,0.1-0.2,0-0.3c-0.1-0.1-0.2,0-0.1,0.2c-0.1,0.1,0.1,0.1,0,0.1
		l-0.7,0.7l-0.3-0.2c0-0.1-0.1-0.2-0.1-0.3C297.5,438.3,297.8,436.6,298.8,436.2z"/>
	<path fill="#F3DADC" d="M292.8,439.7c0,0-0.3,1.3,0.4,1.6c1.4,1.2,3.2-0.6,3.5-1c0,0,0-0.3,0.1-0.2l0-0.4c-0.1,0.1-0.2-0.2-0.4-0.3
		C293.3,438.2,292.8,439.7,292.8,439.7z M295.3,440.9c0.1-0.1,0.2-0.1,0.2,0c0.1,0.1,0.1,0.1,0.1,0.1c0.3-0.4,1.1-0.7,1.1-0.7
		l-1.1,0.7c-0.1,0.1-0.1,0.1,0,0.1c-0.1,0.1-0.2,0.1-0.2,0C295.4,441,295.4,440.9,295.3,440.9z"/>
	<path fill="#F3DADC" d="M296.5,439.3c0,0,0.1,0,0.3,0l0.5-0.3c-0.1,0.1,0-0.3,0.3-0.4c0.1-3.3-1.6-3.2-1.6-3.2s-0.8-0.1-1.3,0.5
		C293.6,437.7,295.9,439.1,296.5,439.3z M296.5,437.9c0.1-0.1,0.1,0,0.2,0.1c0.1,0.1,0,0.2,0,0.3c-0.1,0.1-0.1,0.1-0.1,0.1
		c0.2,0.2,0.4,1.2,0.4,1.2l-0.5-1.2c-0.1-0.1-0.1-0.1-0.1-0.2C296.3,437.9,296.4,437.9,296.5,437.9z"/>
	<path fill="#F3DADC" d="M297.1,440.6c0.5,0.1,1-0.1,1.2-0.5c0.2-0.4,0-0.9-0.5-1.1c-0.5-0.1-1,0.1-1.2,0.5
		C296.5,440,296.5,440.6,297.1,440.6z M297.9,439.8C297.9,439.7,298.1,439.7,297.9,439.8L297.9,439.8
		C298,439.9,298,439.9,297.9,439.8C298,439.8,298,439.8,297.9,439.8c-0.1,0.1-0.2,0.2-0.3,0.1L297.9,439.8
		C297.9,439.8,297.9,439.7,297.9,439.8z M297.4,440.6C297.4,440.6,297.4,440.6,297.4,440.6C297.6,440.6,297.6,440.7,297.4,440.6
		c-0.1,0-0.1,0.1-0.1-0.1C297.2,440.4,297.2,440.4,297.4,440.6L297.4,440.6c-0.2-0.1-0.1-0.5-0.1-0.5L297.4,440.6z M297.2,439.3
		L297.2,439.3C297.3,439.3,297.3,439.3,297.2,439.3L297.2,439.3c0.2,0.1,0.2,0.6,0.2,0.6L297.2,439.3L297.2,439.3
		C297.2,439.4,297.2,439.4,297.2,439.3z M296.7,439.6C296.7,439.5,296.7,439.6,296.7,439.6L296.7,439.6c0.2,0,0.5,0.3,0.5,0.3
		L296.7,439.6C296.8,439.7,296.8,439.7,296.7,439.6L296.7,439.6C296.7,439.6,296.7,439.6,296.7,439.6z"/>
</g>
<g>
	<path fill="#F3DADC" d="M355.5,431.5l0.2-0.3c0.6-0.2,0.7-0.6,0.8-0.5c1.1-0.2,5.2-0.7,4.7,2.2c-0.5,3.1-5.2,1-5.8-0.5
		C355.5,432.3,355.6,432.1,355.5,431.5L355.5,431.5c0.4,0.3,1.2,0.9,1.7,1l0,0.1c-0.1,0.1,0,0.2,0.2,0.1c0.1,0,0.2-0.1,0.2-0.1
		c0.1-0.1,0-0.2-0.2-0.1c-0.2,0-0.1,0-0.3,0L355.5,431.5z"/>
	<path fill="#F3DADC" d="M352.9,436.8c0,0,1.7,0.5,2.5-0.1c2.1-1.8,0.7-3.7,0.2-4.4c-0.1-0.1-0.2-0.4-0.9-0.3l-0.3-0.5
		c-0.2,0.2-0.9,0.3-0.9,0.4C350.3,434.8,352.9,436.8,352.9,436.8z M354.1,433.9c0.1,0.1,0.1,0.1,0,0.2c0,0.1,0,0.3-0.1,0.4
		c-0.1,0.1-0.2-0.1-0.2-0.1c0-0.1,0-0.3,0.1-0.4L354.1,433.9c-0.3-0.5,0.4-1.9,0.4-1.9L354.1,433.9z"/>
	<path fill="#F3DADC" d="M357.1,425.4c3.8-0.5,2.7,2.5,2.7,2.5s-1.2,2.2-3.5,2.6c0,0-0.3-0.2-0.5-0.1l-0.1-0.2
		c0.5-0.3,1-0.8,1.1-1.2l0.1,0.1c0.1,0,0.2-0.1,0.3-0.1c0-0.1,0-0.3-0.1-0.3c-0.1,0-0.2,0.1-0.3,0.1c-0.1,0.1,0,0.1,0,0.3l-1.1,1.2
		l-0.4-0.3c0.1-0.2-0.2-0.4-0.2-0.4C355,428.9,355.2,426.2,357.1,425.4z"/>
	<path fill="#F3DADC" d="M347.9,430.8c0,0-0.5,2,0.5,2.4c2.3,1.7,4.8-0.9,5.4-1.5c0.1-0.1,0-0.3,0.3-0.4l0-0.6
		c-0.1,0-0.5-0.4-0.5-0.4C348.6,428.3,347.9,430.8,347.9,430.8z M351.5,432.4c0-0.1,0.2-0.2,0.2-0.1l0.1,0.1
		c0.3-0.5,1.7-1.1,1.7-1.1l-1.7,1.1c0.1,0.1,0,0.1-0.1,0.2c0,0.1-0.2,0.2-0.2,0.1C351.4,432.8,351.5,432.6,351.5,432.4z"/>
	<path fill="#F3DADC" d="M353.5,430.2c-0.1,0.1,0.3-0.1,0.6,0.2l0.8-0.3c-0.1,0,0.1-0.5,0.3-0.6c0-4.8-2.5-4.7-2.5-4.7
		s-1.3-0.1-1.8,0.7C349,427.7,352.4,429.7,353.5,430.2z M353.1,428c0.1-0.1,0.3,0,0.3,0c0.1,0.2,0.1,0.2,0.1,0.3
		c-0.1,0.1-0.1,0.1-0.1,0.1c0.3,0.4,0.6,1.8,0.6,1.8l-0.7-1.8c-0.1-0.1-0.1,0-0.1-0.2C353.2,428.2,353.1,427.9,353.1,428z"/>
	<path fill="#F3DADC" d="M354.1,432.2c0.8,0.2,1.5,0,1.8-0.7c0.3-0.7,0-1.3-0.7-1.7c-0.8-0.2-1.5,0.1-1.8,0.7
		C353.1,431.1,353.4,432,354.1,432.2z M355.6,430.9C355.6,430.8,355.7,430.8,355.6,430.9c0.1,0,0.2,0,0.2,0.1
		C355.7,430.9,355.8,431.1,355.6,430.9C355.7,431,355.7,431,355.6,430.9c-0.2,0.1-0.5,0.3-0.5,0.3L355.6,430.9
		C355.6,430.8,355.6,430.8,355.6,430.9z M354.8,432.1c0.1,0.1,0.1,0.1,0.1,0.2c0.1,0.1,0.1,0.1-0.1,0.1c-0.2,0-0.2-0.1-0.2-0.1
		C354.5,432.2,354.5,432.2,354.8,432.1L354.8,432.1c-0.4-0.3-0.1-0.8-0.1-0.8L354.8,432.1z M354.5,430.2
		C354.5,430.1,354.6,430.3,354.5,430.2c0.2-0.1,0.2,0.1,0.1,0.1l0,0c0.2,0.1,0.1,0.8,0.1,0.8L354.5,430.2
		C354.4,430.3,354.4,430.3,354.5,430.2C354.4,430.2,354.5,430.2,354.5,430.2z M353.7,430.5c0.1,0.1,0.1,0.1,0.1,0.2
		c-0.1,0.1-0.1,0.1-0.1,0.1c0.1,0,0.6,0.6,0.6,0.6l-0.7-0.5c-0.1,0.1-0.1,0.1-0.1,0.1c-0.1-0.1-0.1-0.1-0.1-0.2
		C353.7,430.6,353.7,430.6,353.7,430.5z"/>
</g>
<g>
	<path fill="#F3DADC" d="M380.1,415.5l0.2-0.1c0.5,0.3,0.8,0.1,0.8,0.1c0.9,0.6,3.9,2.6,1.9,4.5c-2.2,2.1-4.1-2.3-3.8-3.8
		c0.1-0.1,0.2-0.2,0.4-0.5L380.1,415.5c0,0.4,0.2,1.2,0.5,1.6c-0.1,0-0.1,0-0.1,0.1c-0.1,0.1,0,0.3,0.1,0.3c0.1,0.1,0.1,0.2,0.2,0.1
		c0.1-0.1,0.1-0.2-0.1-0.3c-0.1-0.1-0.1-0.2-0.1-0.2L380.1,415.5z"/>
	<path fill="#F3DADC" d="M375,417.8c0,0,0.9,1.4,1.8,1.5c2.3,0.1,2.6-2.3,2.6-3.1c0.1-0.1,0-0.5-0.4-0.7l0.1-0.5
		c-0.2,0.1-0.8-0.2-0.8-0.2C374.4,414.6,375,417.8,375,417.8z M377.4,416.3c0.1,0.1,0,0.1,0,0.3c0,0.1-0.1,0.2-0.2,0.1
		c0.1-0.1,0-0.1,0-0.3C377.1,416.1,377.3,416.1,377.4,416.3C377.4,416.3,377.4,416.3,377.4,416.3c0.3-0.5,1.4-1,1.4-1L377.4,416.3z"
		/>
	<path fill="#F3DADC" d="M384.6,411.9c2.8,1.9,0.4,3.5,0.4,3.5s-2,1-3.8-0.2c-0.1-0.1-0.2-0.2-0.4-0.3l0-0.2
		c0.5,0.1,1.1,0.1,1.4-0.1c0.1,0.1,0.1,0.1,0.1,0.1c0.1,0.1,0.2,0.1,0.3,0s0.1-0.2,0.1-0.2c-0.1-0.1-0.2-0.1-0.3,0
		c0,0.1-0.2,0.1-0.2,0.1l-1.5,0.2l-0.2-0.4c0.2-0.1,0.1-0.5,0.1-0.5C381,413.2,382.7,411.3,384.6,411.9z"/>
	<path fill="#F3DADC" d="M375,410.4c0,0-1.4,1-1.1,2.1c0.6,2.8,3.8,2.2,4.4,2.1c0.1-0.1,0.1-0.2,0.3-0.1l0.3-0.4
		c-0.1,0,0-0.5-0.1-0.6C376.9,409,375,410.4,375,410.4z M376.7,413.7c0.1-0.1,0.3,0,0.2,0.1l-0.1,0.1c0.4-0.2,1.8,0.2,1.8,0.2
		l-1.7-0.2c-0.1,0.1-0.1,0.1-0.2,0c-0.1,0.1-0.3,0-0.2-0.1C376.4,413.8,376.5,413.8,376.7,413.7z"/>
	<path fill="#F3DADC" d="M379.1,413.1c0,0,0.3,0.2,0.3,0.5l0.7,0.1c-0.2-0.1,0.2-0.2,0.4-0.2c2.9-3.5,1-4.9,1-4.9s-0.8-0.9-1.6-0.7
		C377.5,408.7,378.7,412.4,379.1,413.1z M380.4,411.6c0.1,0.1,0.1,0.2,0.1,0.2s-0.1,0.2-0.1,0.2l-0.1-0.1c0,0.5-0.6,1.6-0.6,1.6
		l0.5-1.7c-0.1-0.1,0-0.1,0-0.2C380.1,411.5,380.2,411.4,380.4,411.6z"/>
	<path fill="#F3DADC" d="M378.6,415.1c0.4,0.6,1.1,1,1.6,0.7s0.7-1,0.4-1.6c-0.4-0.6-1.1-0.9-1.6-0.7
		C378.3,413.7,378.2,414.5,378.6,415.1z M380.3,415c0.2-0.1,0.2,0,0.3,0c0.1,0.1,0.1,0.1,0,0.1c-0.1,0-0.1,0.1-0.1,0
		C380.2,415,380.2,415,380.3,415c-0.1,0.1-0.5-0.1-0.5-0.1L380.3,415L380.3,415z M379.1,415.4C379,415.5,379.2,415.4,379.1,415.4
		c-0.1,0.2,0,0.2-0.1,0.2c-0.1,0,0-0.2-0.1-0.2c0.1-0.1,0-0.1,0.1-0.1C378.9,415.3,378.9,415.4,379.1,415.4
		c-0.1-0.3,0.3-0.6,0.3-0.6L379.1,415.4z M379.8,413.8c0.1,0.1,0.1,0,0.1,0.2l-0.1,0.1l-0.1-0.1c0,0.2-0.3,0.6-0.3,0.6l0.3-0.6
		L379.8,413.8L379.8,413.8z M379.1,413.6c0.1,0.1,0.1,0.1,0.1,0.2c-0.1,0.1-0.1,0.1-0.1,0.1c0.1,0,0.1,0.8,0.1,0.8l-0.1-0.8
		l-0.1-0.1C379.1,413.7,379.1,413.7,379.1,413.6C379.1,413.6,379.2,413.7,379.1,413.6z"/>
</g>
<g>
	<path fill="#F3DADC" d="M218.5,411.2l0-0.3c0.3-0.3,0.3-0.6,0.3-0.6c0.6-0.5,2.8-2.2,3.5-0.3c0.9,1.9-2.6,2.3-3.7,1.6
		C218.7,411.7,218.7,411.6,218.5,411.2L218.5,411.2c0.4,0,1,0.1,1.3-0.1c-0.1,0.1-0.1,0.1,0,0.1c0,0,0.1,0,0.3,0
		c0.1-0.1,0.2,0,0.2-0.1c0,0-0.1,0-0.3,0c0,0-0.1-0.1-0.1,0.1L218.5,411.2z"/>
	<path fill="#F3DADC" d="M219,415c0,0,1-0.3,1.5-0.9c0.6-1.5-1-2.2-1.6-2.4c-0.1-0.1-0.3,0-0.6,0.2l-0.3-0.2c0,0.3-0.3,0.4-0.3,0.4
		C216.7,414.7,219,415,219,415z M218.5,413c0.1,0.1,0.1,0.1,0.1,0.2c0,0.1,0,0.2,0,0.3c-0.1,0.1-0.1,0-0.2-0.1
		C218.3,413.3,218.4,413.1,218.5,413L218.5,413c-0.2-0.1-0.4-1.2-0.4-1.2L218.5,413z"/>
	<path fill="#F3DADC" d="M217.3,407.3c2.1-1.4,2.5,0.6,2.5,0.6s0.1,1.5-1.1,2.5c-0.1,0.1-0.3,0-0.3,0.1l-0.1,0
		c0.1-0.2,0.2-0.7,0.2-0.9c0.1,0.1,0.1,0.1,0.1,0.1c0.1,0.1,0.2-0.1,0.1-0.2s0-0.2-0.1-0.2c-0.1-0.1-0.2,0.1-0.1,0.2
		c0,0-0.1,0.1,0.1,0.1l-0.2,1l-0.4,0c-0.1-0.2-0.3-0.2-0.3-0.2C217.3,409.8,216.3,408.4,217.3,407.3z"/>
	<path fill="#F3DADC" d="M213.8,413.3c0,0,0.5,1.2,1.2,1.1c2,0.2,2.5-1.9,2.6-2.6c0,0-0.1-0.2,0-0.2l-0.2-0.2
		c-0.1,0.1-0.5-0.1-0.5-0.1C213.3,411.8,213.8,413.3,213.8,413.3z M216.6,413.1c0-0.1,0.1-0.2,0.2-0.1l0.1,0.1
		c0-0.4,0.6-1.2,0.6-1.2l-0.6,1.2c-0.1,0.1,0.1,0.1,0,0.1c0,0.1-0.1,0.2-0.2,0.1C216.5,413.2,216.6,413.2,216.6,413.1z"/>
	<path fill="#F3DADC" d="M216.9,411.3c0.1,0.1,0.1-0.2,0.4-0.1l0.3-0.5c-0.2,0.1-0.2-0.1-0.1-0.3c-1.8-2.6-3.2-1.9-3.2-1.9
		s-0.6,0.4-0.8,0.9C213.3,411.2,216.2,411.3,216.9,411.3z M216,410.1c0,0,0.1-0.1,0.3,0c0.1,0,0.2,0.1,0.1,0.2
		c-0.1,0.1-0.1,0.1-0.1,0.1c0.5,0.1,0.9,0.8,0.9,0.8l-1.1-0.8c-0.1,0.1-0.1,0.1-0.1,0C215.9,410.2,215.8,410.2,216,410.1z"/>
	<path fill="#F3DADC" d="M218,412c0.5-0.1,0.8-0.5,0.8-0.9c-0.1-0.4-0.5-0.5-1.1-0.6c-0.5,0.1-0.8,0.5-0.8,0.9
		C217.1,411.8,217.5,412,218,412z M218.3,410.8c0,0,0.1-0.1,0.2-0.1l0.1,0.1C218.4,410.8,218.4,410.8,218.3,410.8
		C218.4,410.8,218.4,410.8,218.3,410.8c0,0.1-0.1,0.4-0.2,0.3L218.3,410.8L218.3,410.8z M218.3,411.6L218.3,411.6
		c0.2,0.1,0.2,0.1,0.1,0.2c-0.1-0.1-0.1,0-0.3,0c-0.1,0-0.1,0-0.1-0.1c0.1,0.1,0.1,0.1,0.1,0.1c-0.3,0-0.3-0.3-0.3-0.3L218.3,411.6z
		 M217.4,410.8L217.4,410.8L217.4,410.8L217.4,410.8c0.4,0,0.4,0.4,0.4,0.4L217.4,410.8C217.6,411,217.6,411,217.4,410.8
		C217.4,411,217.4,410.8,217.4,410.8z M217.2,411.3L217.2,411.3L217.2,411.3c0.2-0.1,0.6,0,0.6,0L217.2,411.3L217.2,411.3
		C217.2,411.4,217.2,411.4,217.2,411.3C217,411.3,217,411.3,217.2,411.3z"/>
</g>
<g>
	<path fill="#F0BCC8" d="M319.8,459l0.6,0c0.7,0.7,1.5,0.5,1.4,0.6c1.1,1.5,4.9,7.1,0.4,9.1c-5.1,2.2-5.4-6.7-3.7-9.1
		c0.1-0.1,0.4-0.2,1.2-0.6L319.8,459c-0.2,0.7-0.5,2.5-0.2,3.2l-0.1,0.1c-0.1,0-0.2,0.2-0.1,0.5c0.1,0.2,0.3,0.4,0.4,0.3
		c0.1,0,0.2-0.3,0.1-0.5c-0.1-0.1-0.2-0.1-0.1-0.3L319.8,459z"/>
	<path fill="#F0BCC8" d="M309.7,460.1c0,0,0.4,2.9,1.9,3.6c4.1,1.5,5.9-2.5,6.6-4c0.1-0.1,0.3-0.8-0.2-1.5l0.4-0.9
		c-0.5,0-1.1-0.9-1.2-0.9C310.9,454.4,309.7,460.1,309.7,460.1z M315,459.1c0,0.1-0.1,0.2-0.2,0.3c-0.1,0.2-0.4,0.2-0.5,0
		c-0.1-0.1,0-0.4,0.3-0.5c0.1-0.2,0.4-0.2,0.5,0l0.1,0.1c0.7-0.7,3.1-1.1,3.1-1.1L315,459.1z"/>
	<path fill="#F0BCC8" d="M330,455.5c3.5,5.1-1.7,6.5-1.7,6.5s-4,0.4-6.4-2.7c-0.1-0.1-0.1-0.6-0.4-0.9l0-0.3
		c0.8,0.2,1.9,0.7,2.5,0.5c0,0,0,0-0.1,0.1c0,0.1,0.2,0.2,0.5,0.3c0.2-0.1,0.4-0.2,0.5-0.3c0-0.1-0.2-0.2-0.5-0.3
		c-0.1-0.1-0.2,0-0.2,0.1l-2.6-0.5l0.1-0.9c0.3-0.1,0.5-0.8,0.6-0.8C323.3,455.7,327.2,453.5,330,455.5z"/>
	<path fill="#F0BCC8" d="M314.8,447.1c0,0-3.1,1.1-3.2,3c-0.8,5.1,4.9,6.1,6.2,6.5c0.1,0.1,0.4-0.2,0.7,0l0.8-0.5
		c0-0.2,0.3-1.1,0.3-1.2C319,445.9,314.8,447.1,314.8,447.1z M315.2,453.9c0.2,0.1,0.4,0.2,0.4,0.3c0,0,0,0-0.1,0.1
		c0.9,0,2.9,1.6,2.9,1.6l-3-1.4c-0.2,0.1-0.2,0-0.3,0.1c-0.2-0.1-0.4-0.2-0.4-0.3C314.8,454,315,453.9,315.2,453.9z"/>
	<path fill="#F0BCC8" d="M319.9,454.4c-0.1,0.1,0.3,0.5,0.3,1l1.2,0.7c0-0.2,0.7-0.3,1.1,0c7.2-4.4,5.1-8,5.1-8s-0.9-1.7-2.5-1.9
		C320.3,445.8,320,452.9,319.9,454.4z M323,452.1c0.1,0.2,0.1,0.3,0,0.5c-0.1,0.2-0.3,0.4-0.5,0.3c0,0,0.1-0.1-0.1-0.1
		c-0.2,0.9-2.2,2.5-2.2,2.5l2.2-2.7c0.1-0.1,0-0.3,0-0.3C322.7,452.2,322.9,452.2,323,452.1z"/>
	<path fill="#F0BCC8" d="M317.6,457.6c0.2,1.2,1.2,2.1,2.4,2c1-0.2,1.9-1.3,1.8-2.6c-0.2-1.2-1.2-2.1-2.4-2
		C318.2,455.2,317.3,456.4,317.6,457.6z M320.7,458.4c0.1-0.1,0.1,0,0.1,0.2c-0.1,0.1,0,0.1-0.2,0.1c-0.1,0.1-0.1,0-0.1-0.2
		c-0.1-0.1-0.1-0.1,0-0.1c-0.2,0.1-0.7-0.4-0.7-0.4l0.7,0.4C320.6,458.3,320.7,458.4,320.7,458.4z M318.2,458.6c0.1,0.1,0,0.3,0,0.3
		c0,0.1-0.2,0-0.3,0c0-0.2-0.1-0.3,0-0.5c0-0.1,0.2,0,0.3,0l0.1,0.1c0.2-0.7,1-0.8,1-0.8L318.2,458.6z M320.8,456.2
		c0.1,0.1,0,0.2,0,0.2c-0.1,0.1-0.2,0-0.2,0.1l-0.1-0.1c0,0.5-0.9,0.9-0.9,0.9l0.9-0.9c-0.1-0.1,0-0.1,0-0.3
		C320.6,456.1,320.8,456.1,320.8,456.2z M319.7,455.5c0.1,0.1,0,0.3-0.1,0.2c-0.1-0.1-0.1,0.1-0.1,0.1c0.1,0.2-0.3,1.5-0.3,1.5
		l0.2-1.5c0,0,0,0-0.1-0.1c-0.1-0.1,0-0.3,0.1-0.2C319.6,455.4,319.6,455.4,319.7,455.5z"/>
</g>
<g>
	<path fill="#F0BCC8" d="M571.9,449.9l0.6,0c0.7,0.7,1.5,0.5,1.4,0.6c1.1,1.5,4.9,7.1,0.4,9.1c-5.1,2.2-5.4-6.7-3.7-9.1
		c0.1-0.1,0.4-0.2,1.2-0.6L571.9,449.9c-0.2,0.7-0.5,2.5-0.2,3.2l-0.1,0.1c-0.1,0-0.2,0.2-0.1,0.5c0.1,0.2,0.3,0.4,0.4,0.3
		c0.1,0,0.2-0.3,0.1-0.5c-0.1-0.1-0.2-0.1-0.1-0.3L571.9,449.9z"/>
	<path fill="#F0BCC8" d="M561.9,451c0,0,0.4,2.9,1.9,3.6c4.1,1.5,5.9-2.5,6.6-4c0.1-0.1,0.3-0.8-0.2-1.5l0.4-0.9
		c-0.5,0-1.1-0.9-1.2-0.9C563,445.2,561.9,451,561.9,451z M567.1,450c0,0.1-0.1,0.2-0.2,0.3c-0.1,0.2-0.4,0.2-0.5,0
		c-0.1-0.1,0-0.4,0.3-0.5c0.1-0.2,0.4-0.2,0.5,0l0.1,0.1c0.7-0.7,3.1-1.1,3.1-1.1L567.1,450z"/>
	<path fill="#F0BCC8" d="M582.1,446.4c3.5,5.1-1.7,6.5-1.7,6.5s-4,0.4-6.4-2.7c-0.1-0.1-0.1-0.6-0.4-0.9l0-0.3
		c0.8,0.2,1.9,0.7,2.5,0.5c0,0,0,0-0.1,0.1c0,0.1,0.2,0.2,0.5,0.3c0.2-0.1,0.4-0.2,0.5-0.3c0-0.1-0.2-0.2-0.5-0.3
		c-0.1-0.1-0.2,0-0.2,0.1l-2.6-0.5l0.1-0.9c0.3-0.1,0.5-0.8,0.6-0.8C575.5,446.5,579.4,444.4,582.1,446.4z"/>
	<path fill="#F0BCC8" d="M567,438c0,0-3.1,1.1-3.2,3c-0.8,5.1,4.9,6.1,6.2,6.5c0.1,0.1,0.4-0.2,0.7,0l0.8-0.5c0-0.2,0.3-1.1,0.3-1.2
		C571.1,436.8,567,438,567,438z M567.4,444.8c0.2,0.1,0.4,0.2,0.4,0.3c0,0,0,0-0.1,0.1c0.9,0,2.9,1.6,2.9,1.6l-3-1.4
		c-0.2,0.1-0.2,0-0.3,0.1c-0.2-0.1-0.4-0.2-0.4-0.3C567,444.9,567.2,444.8,567.4,444.8z"/>
	<path fill="#F0BCC8" d="M572,445.2c-0.1,0.1,0.3,0.5,0.3,1l1.2,0.7c0-0.2,0.7-0.3,1.1,0c7.2-4.4,5.1-8,5.1-8s-0.9-1.7-2.5-1.9
		C572.5,436.7,572.2,443.8,572,445.2z M575.1,443c0.1,0.2,0.1,0.3,0,0.5c-0.1,0.2-0.3,0.4-0.5,0.3c0,0,0.1-0.1-0.1-0.1
		c-0.2,0.9-2.2,2.5-2.2,2.5l2.2-2.7c0.1-0.1,0-0.3,0-0.3C574.9,443.1,575.1,443,575.1,443z"/>
	<path fill="#F0BCC8" d="M569.8,448.5c0.2,1.2,1.2,2.1,2.4,2c1-0.2,1.9-1.3,1.8-2.6c-0.2-1.2-1.2-2.1-2.4-2
		C570.4,446.1,569.5,447.3,569.8,448.5z M572.9,449.3c0.1-0.1,0.1,0,0.1,0.2c-0.1,0.1,0,0.1-0.2,0.1c-0.1,0.1-0.1,0-0.1-0.2
		c-0.1-0.1-0.1-0.1,0-0.1c-0.2,0.1-0.7-0.4-0.7-0.4l0.7,0.4C572.8,449.2,572.9,449.3,572.9,449.3z M570.4,449.4c0.1,0.1,0,0.3,0,0.3
		c0,0.1-0.2,0-0.3,0c0-0.2-0.1-0.3,0-0.5c0-0.1,0.2,0,0.3,0l0.1,0.1c0.2-0.7,1-0.8,1-0.8L570.4,449.4z M573,447.1
		c0.1,0.1,0,0.2,0,0.2c-0.1,0.1-0.2,0-0.2,0.1l-0.1-0.1c0,0.5-0.9,0.9-0.9,0.9l0.9-0.9c-0.1-0.1,0-0.1,0-0.3
		C572.8,447,573,447,573,447.1z M571.9,446.3c0.1,0.1,0,0.3-0.1,0.2c-0.1-0.1-0.1,0.1-0.1,0.1c0.1,0.2-0.3,1.5-0.3,1.5l0.2-1.5
		c0,0,0,0-0.1-0.1s0-0.3,0.1-0.2C571.8,446.3,571.8,446.3,571.9,446.3z"/>
</g>
<g>
	<path fill="#F1BBC8" d="M476.3,463.5l0.3-0.5c1-0.3,1.4-1,1.4-1c1.9-0.4,8.8-1.2,8.1,3.7c-0.9,5.4-8.8,1.7-10-0.8
		C476.2,464.7,476.3,464.3,476.3,463.5L476.3,463.5c0.5,0.5,1.9,1.5,2.6,1.5c-0.1,0.1-0.1,0.1,0,0.1c0,0.2,0.1,0.3,0.4,0.3
		s0.5,0,0.5-0.2c0-0.2-0.1-0.3-0.4-0.3c-0.1,0-0.4,0-0.4,0L476.3,463.5z"/>
	<path fill="#F1BBC8" d="M471.7,472.9c0,0,2.7,0.9,4.2-0.1c3.5-2.9,1.1-6.3,0.1-7.4c0-0.1-0.5-0.7-1.4-0.5l-0.5-0.7
		c-0.3,0.5-1.4,0.6-1.5,0.6C467.4,469.3,471.7,472.9,471.7,472.9z M473.7,467.7c0.1,0.1,0.2,0.1,0.1,0.3c0,0.3-0.1,0.5-0.3,0.4
		c-0.2,0.1-0.3-0.2-0.3-0.4c0-0.3,0.1-0.5,0.3-0.4c0.1-0.1,0.1-0.1,0.1,0c-0.3-0.8,0.8-3.2,0.8-3.2L473.7,467.7z"/>
	<path fill="#F1BBC8" d="M478.9,453.3c6.4-0.8,4.7,4.3,4.7,4.3s-2,3.7-5.8,4.4c-0.1,0-0.6-0.2-1-0.1l-0.3-0.2c0.7-0.6,1.7-1.4,1.8-2
		c0.1,0.1,0.1,0.1,0.1,0.1c0.1,0,0.4-0.1,0.5-0.3c0.1-0.3,0.1-0.5-0.1-0.6c-0.1,0-0.4,0.1-0.5,0.3c0,0.1-0.1,0.3-0.1,0.3l-1.9,2
		l-0.7-0.5c0.1-0.3-0.3-0.8-0.3-0.9C475.3,459,475.6,454.5,478.9,453.3z"/>
	<path fill="#F1BBC8" d="M463.2,462.5c0,0-0.8,3.3,1,4.2c4,3,8-1.6,9-2.6c0.1-0.1,0-0.5,0.3-0.6l0-1c-0.2,0.1-0.8-0.7-0.9-0.8
		C464.5,458.4,463.2,462.5,463.2,462.5z M469.5,465.3c0.2-0.2,0.4-0.3,0.5-0.2c0,0,0,0,0.1,0.1c0.5-0.8,2.9-1.8,2.9-1.8l-2.9,2
		c0,0.1,0,0.2-0.2,0.3c-0.2,0.2-0.4,0.3-0.5,0.2C469.3,465.7,469.3,465.5,469.5,465.3z"/>
	<path fill="#F1BBC8" d="M472.4,461.5c0.1,0,0.6-0.1,1,0.2l1.3-0.7c-0.3,0,0.1-0.8,0.6-1c0.1-8.3-4.1-7.9-4.1-7.9s-2.1,0-3.1,1.2
		C465.1,457.2,471,460.8,472.4,461.5z M472.2,457.7c0.1-0.1,0.3-0.1,0.5,0.2c0.2,0.2,0.1,0.4,0.1,0.6l-0.1,0.1c0.6,0.7,1,3,1,3
		l-1-3.1c-0.1,0-0.2-0.2-0.3-0.2C472.1,458.1,472.1,457.8,472.2,457.7z"/>
	<path fill="#F1BBC8" d="M473.8,464.9c1.2,0.4,2.5,0,3-1.1c0.6-1-0.1-2.3-1.3-2.7c-1.2-0.4-2.5,0-3,1.1
		C472.1,463.2,472.7,464.5,473.8,464.9z M476.3,462.5c0-0.1,0.1-0.2,0.2-0.1c0.1,0,0.1,0.1,0.1,0.2s-0.1,0.2-0.2,0.1
		C476.3,462.6,476.3,462.6,476.3,462.5c-0.2,0.3-0.8,0.5-0.8,0.5L476.3,462.5C476.2,462.5,476.2,462.5,476.3,462.5z M475,464.6
		c0.1,0.1,0.2,0.1,0.2,0.2c0.1,0.1,0,0.1-0.1,0.1c-0.1,0-0.3-0.2-0.4-0.3c-0.1-0.1,0-0.1,0.1-0.1c0.1,0.1,0.1,0.1,0.1,0
		c-0.5-0.5-0.1-1.2-0.1-1.2L475,464.6z M474.3,461.4c0.1,0,0.3,0,0.3,0c0.1,0.1,0,0.2-0.1,0.3l-0.1,0.1c0.4,0.3,0.3,1.2,0.3,1.2
		l-0.3-1.2c-0.1-0.1-0.1,0-0.1-0.1C474.2,461.6,474.3,461.5,474.3,461.4z M473,462c0.1,0,0.2,0.1,0.2,0.2c0.1,0.1,0.1,0.1,0.1,0.1
		c0.4,0,1.2,0.9,1.2,0.9l-1.2-0.9l-0.1,0.1c-0.1,0-0.2-0.1-0.2-0.2C473,462,473,462.1,473,462z"/>
</g>
<g>
	<path fill="#F0BCC8" d="M435.4,444.3l0.1-0.2c0.3-0.1,0.4-0.3,0.5-0.3c0.6-0.1,3-0.4,2.7,1.2c-0.2,1.8-2.8,0.6-3.3-0.3
		C435.3,444.6,435.5,444.5,435.4,444.3L435.4,444.3c0.1,0.2,0.7,0.4,0.9,0.5c-0.1,0.1-0.1,0.1,0,0c0,0.1-0.1,0.1,0.1,0.1
		c0.1,0.1,0.1,0,0.1,0s-0.1-0.1-0.1-0.2c0,0,0,0-0.1,0.1L435.4,444.3z"/>
	<path fill="#F0BCC8" d="M433.9,447.4c0,0,0.9,0.2,1.5-0.1c1.2-1,0.4-2.1,0-2.4c-0.1-0.1-0.2-0.2-0.6-0.2l-0.1-0.2
		c0,0.1-0.4,0.2-0.4,0.2C432.4,446.2,433.9,447.4,433.9,447.4z M434.5,445.7L434.5,445.7c0,0.2,0.1,0.3,0,0.3
		c-0.1-0.1-0.1-0.1-0.1-0.2C434.3,445.6,434.3,445.6,434.5,445.7L434.5,445.7c-0.1-0.3,0.2-1,0.2-1L434.5,445.7z"/>
	<path fill="#F0BCC8" d="M436.2,440.9c2.1-0.3,1.6,1.4,1.6,1.4s-0.6,1.2-1.9,1.4c-0.1-0.1-0.2-0.1-0.4,0l-0.1-0.1
		c0.1-0.2,0.5-0.4,0.6-0.6c0.1,0.1,0.1,0.1,0.1,0.1s0.1-0.1,0.2-0.1c0.1-0.1,0-0.1,0-0.1s-0.1,0.1-0.2,0.1c-0.1,0.1,0.1,0.1,0,0.1
		l-0.6,0.6l-0.2-0.1c0-0.1-0.1-0.2-0.1-0.2C435.1,442.8,435.2,441.4,436.2,440.9z"/>
	<path fill="#F0BCC8" d="M431.2,443.9c0,0-0.3,1.1,0.3,1.4c1.2,1,2.7-0.5,3-0.9c0,0,0-0.1,0.1-0.2l-0.1-0.3
		c-0.1,0.1-0.2-0.1-0.2-0.2C431.5,442.6,431.2,443.9,431.2,443.9z M433,444.8c0.1-0.1,0.2-0.1,0.2,0c0,0.1,0.1,0.1,0.1,0.1
		c0.1-0.2,1-0.6,1-0.6l-1,0.7c-0.1,0.1-0.1,0.1,0,0.1c-0.1,0.1-0.2,0.1-0.2,0C433,445,433.1,445,433,444.8z"/>
	<path fill="#F0BCC8" d="M434.2,443.6c0.1,0.1,0.3,0,0.3,0l0.4-0.2c0,0,0.1-0.2,0.2-0.3c0.1-2.8-1.4-2.6-1.4-2.6s-0.6-0.1-1,0.3
		C431.7,442.1,433.6,443.3,434.2,443.6z M433.9,442.4c0.1-0.1,0.1,0,0.2,0.1c0.1,0.1,0.1,0.2,0,0.1l0,0c0.2,0.1,0.3,1,0.3,1l-0.3-1
		c0,0,0,0-0.1-0.1S434,442.4,433.9,442.4z"/>
	<path fill="#F0BCC8" d="M434.6,444.7c0.4,0.1,0.9-0.1,1-0.3c0.1-0.4-0.1-0.8-0.5-0.9c-0.4-0.1-0.9,0.1-1,0.3
		C434,444.1,434.2,444.6,434.6,444.7z M435.4,443.9C435.4,443.9,435.5,444,435.4,443.9C435.5,444,435.5,444,435.4,443.9
		C435.5,444,435.4,444.1,435.4,443.9C435.4,444.1,435.4,444.1,435.4,443.9c0,0.1-0.2,0.2-0.2,0.1L435.4,443.9L435.4,443.9z
		 M434.9,444.6L434.9,444.6C435,444.8,435,444.8,434.9,444.6c-0.1,0-0.1,0-0.1-0.1C434.8,444.6,434.8,444.5,434.9,444.6L434.9,444.6
		c-0.1-0.2-0.1-0.3-0.1-0.3L434.9,444.6z M434.9,443.6L434.9,443.6L434.9,443.6L434.9,443.6c0.2,0.1,0.1,0.5,0.1,0.5L434.9,443.6
		L434.9,443.6C434.7,443.6,434.9,443.6,434.9,443.6z M434.4,443.8C434.4,443.7,434.4,443.8,434.4,443.8L434.4,443.8
		c0.2,0,0.4,0.4,0.4,0.4L434.4,443.8L434.4,443.8C434.3,444,434.3,443.9,434.4,443.8L434.4,443.8z"/>
</g>
<g>
	<path fill="#F0BCC8" d="M544.8,456.6l0.1-0.2c0.3-0.1,0.5-0.4,0.5-0.3c0.8-0.2,3.4-0.5,3.1,1.4c-0.3,2-3.4,0.7-3.8-0.3
		C544.8,457,544.9,456.9,544.8,456.6L544.8,456.6c0.1,0.2,0.7,0.5,1.1,0.4l-0.1,0.1l0.1,0.2c0,0,0.1,0,0.2,0l-0.1-0.2
		c0,0-0.1-0.1-0.1,0L544.8,456.6z"/>
	<path fill="#F0BCC8" d="M543,460.2c0,0,1.1,0.3,1.6-0.1c1.3-1.1,0.5-2.5,0-2.9c0,0-0.2-0.1-0.5-0.1l-0.1-0.3
		c-0.2,0.1-0.6,0.2-0.5,0.3C541.4,458.8,543,460.2,543,460.2z M543.8,458.1L543.8,458.1c0.1,0.2,0,0.2,0,0.3c-0.1,0.1-0.1,0-0.1-0.2
		C543.6,458.2,543.7,458.1,543.8,458.1L543.8,458.1c-0.1-0.3,0.2-1.3,0.2-1.3L543.8,458.1z"/>
	<path fill="#F0BCC8" d="M545.7,452.4c2.5-0.3,1.8,1.7,1.8,1.7s-0.7,1.5-2.3,1.8c0,0-0.2-0.1-0.4,0l-0.1-0.2
		c0.2-0.2,0.6-0.6,0.7-0.7c0.1,0.1,0.1,0.1,0.1,0.1c0.1,0.1,0.2,0,0.1-0.2s0.1-0.2,0-0.3c-0.1-0.1-0.2,0-0.1,0.2
		c-0.1,0.1,0.1,0.1,0,0.1l-0.7,0.7l-0.3-0.2c0-0.1-0.1-0.2-0.1-0.3C544.5,454.7,544.6,453,545.7,452.4z"/>
	<path fill="#F0BCC8" d="M539.9,456.1c0,0-0.3,1.3,0.4,1.6c1.4,1.2,3.1-0.6,3.5-1.1c0,0,0-0.3,0.1-0.2l0-0.4
		c-0.1,0.1-0.2-0.2-0.4-0.3C540.3,454.5,539.9,456.1,539.9,456.1z M542.1,457.3c0.1-0.1,0.2-0.1,0.2,0c0,0.1,0.1,0.1,0.1,0.1
		c0.3-0.4,1.1-0.7,1.1-0.7l-1.1,0.8c-0.1,0.1-0.1,0.1,0,0.1c-0.1,0.1-0.2,0.1-0.2,0C542.1,457.4,542.2,457.3,542.1,457.3z"/>
	<path fill="#F0BCC8" d="M543.4,455.8c0,0,0.1,0,0.3,0l0.5-0.3c-0.1,0.1,0-0.3,0.3-0.4c0.1-3.3-1.6-3.1-1.6-3.1s-0.7-0.1-1.2,0.5
		C540.6,454,542.8,455.4,543.4,455.8z M543.3,454.2c0.1-0.1,0.1,0,0.2,0.1c0.1,0.1,0,0.2,0,0.3c-0.1,0.1-0.1,0.1-0.1,0.1
		c0.2,0.2,0.4,1.2,0.4,1.2l-0.4-1.2c-0.1-0.1-0.1-0.1-0.1-0.2S543.3,454.3,543.3,454.2z"/>
	<path fill="#F0BCC8" d="M543.9,456.9c0.5,0.1,1-0.1,1.2-0.5c0.2-0.4,0-0.8-0.4-1c-0.5-0.1-1,0.1-1.2,0.5
		C543.3,456.3,543.4,456.8,543.9,456.9z M544.9,456.1C544.9,456,544.9,456,544.9,456.1L544.9,456.1
		C545,456.2,544.9,456.2,544.9,456.1C544.9,456.2,544.9,456.2,544.9,456.1c0,0.1-0.3,0.1-0.3,0.1L544.9,456.1L544.9,456.1z
		 M544.3,456.9C544.3,456.9,544.2,456.9,544.3,456.9C544.4,456.9,544.4,457,544.3,456.9c-0.1,0-0.1,0.1-0.1-0.1
		C544.1,456.8,544.1,456.8,544.3,456.9L544.3,456.9c-0.2-0.1-0.1-0.5-0.1-0.5L544.3,456.9z M544.1,455.7L544.1,455.7
		C544.2,455.7,544.2,455.7,544.1,455.7L544.1,455.7c0.2,0.1,0.2,0.6,0.2,0.6L544.1,455.7L544.1,455.7
		C544.1,455.7,544.1,455.6,544.1,455.7z M543.6,455.9C543.7,456,543.7,455.9,543.6,455.9L543.6,455.9c0.2,0,0.5,0.3,0.5,0.3
		L543.6,455.9C543.6,456,543.6,456,543.6,455.9C543.6,456,543.6,456,543.6,455.9L543.6,455.9z"/>
</g>
<g>
	<path fill="#F0BCC8" d="M529.2,460.1l0.1-0.2c0.3-0.1,0.5-0.4,0.5-0.4c0.8-0.2,3.4-0.5,3.1,1.4c-0.3,2-3.4,0.7-3.8-0.3
		C529.2,460.7,529.2,460.5,529.2,460.1L529.2,460.1c0.1,0.2,0.7,0.5,1.1,0.4c-0.1,0.1-0.1,0.1-0.1,0.1l0.1,0.2c0.1,0.1,0.1,0,0.2,0
		l-0.1-0.2c-0.1-0.1-0.1-0.1-0.1,0L529.2,460.1z"/>
	<path fill="#F0BCC8" d="M527.5,463.8c0,0,1.1,0.3,1.6-0.1c1.3-1.1,0.5-2.5,0-2.9c0,0-0.2-0.1-0.5-0.1l-0.1-0.3
		c-0.2,0.1-0.6,0.2-0.5,0.3C525.8,462.4,527.5,463.8,527.5,463.8z M528.2,461.7L528.2,461.7c0.1,0.2,0,0.2,0,0.3s-0.1,0-0.1-0.2
		C528,461.8,528.1,461.7,528.2,461.7L528.2,461.7c-0.1-0.3,0.2-1.3,0.2-1.3L528.2,461.7z"/>
	<path fill="#F0BCC8" d="M529.9,456.1c2.5-0.3,1.8,1.7,1.8,1.7s-0.7,1.5-2.3,1.8c0,0-0.2-0.1-0.4,0l-0.1-0.2
		c0.2-0.2,0.6-0.6,0.7-0.7c0.1,0.1,0.1,0.1,0.1,0.1c0.1,0.1,0.2,0,0.1-0.2s0.1-0.2,0-0.3c-0.1-0.1-0.2,0-0.1,0.2
		c-0.1,0.1,0.1,0.1,0,0.1l-0.7,0.7l-0.3-0.2c0-0.1-0.1-0.2-0.1-0.3C528.8,458.3,529,456.5,529.9,456.1z"/>
	<path fill="#F0BCC8" d="M524.2,459.6c0,0-0.3,1.3,0.4,1.6c1.4,1.2,3.1-0.6,3.5-1.1c0,0,0-0.3,0.1-0.2l0-0.4
		c-0.1,0.1-0.2-0.2-0.4-0.3C524.7,458.1,524.2,459.6,524.2,459.6z M526.5,460.9c0.1-0.1,0.2-0.1,0.2,0c0,0.1,0.1,0.1,0.1,0.1
		c0.3-0.4,1.1-0.7,1.1-0.7l-1.1,0.8c-0.1,0.1-0.1,0.1,0,0.1c-0.1,0.1-0.2,0.1-0.2,0C526.5,460.9,526.6,460.8,526.5,460.9z"/>
	<path fill="#F0BCC8" d="M527.7,459.3c0,0,0.1,0,0.3,0l0.5-0.3c-0.1,0.1,0-0.3,0.3-0.4c0.1-3.3-1.6-3.1-1.6-3.1s-0.7-0.1-1.2,0.5
		C525,457.6,527.2,459,527.7,459.3z M527.7,457.8c0.1-0.1,0.1,0,0.2,0.1c0.1,0.1,0,0.2,0,0.3c-0.1,0.1-0.1,0.1-0.1,0.1
		c0.2,0.2,0.4,1.2,0.4,1.2l-0.4-1.2c-0.1-0.1-0.1-0.1-0.1-0.2C527.6,458,527.7,457.8,527.7,457.8z"/>
	<path fill="#F0BCC8" d="M528.2,460.6c0.5,0.1,1-0.1,1.2-0.5s0-0.8-0.4-1c-0.5-0.1-1,0.1-1.2,0.5
		C527.7,459.9,527.8,460.4,528.2,460.6z M529.2,459.8C529.3,459.7,529.3,459.7,529.2,459.8L529.2,459.8
		C529.4,459.7,529.3,459.8,529.2,459.8L529.2,459.8c0,0.1-0.3,0.1-0.3,0.1L529.2,459.8L529.2,459.8z M528.7,460.5
		C528.7,460.5,528.7,460.6,528.7,460.5C528.9,460.5,528.8,460.6,528.7,460.5c-0.1,0-0.1,0.1-0.1-0.1
		C528.5,460.4,528.5,460.4,528.7,460.5L528.7,460.5c-0.2-0.1-0.1-0.5-0.1-0.5L528.7,460.5z M528.4,459.3L528.4,459.3
		C528.5,459.3,528.5,459.3,528.4,459.3L528.4,459.3c0.2,0.1,0.2,0.6,0.2,0.6L528.4,459.3L528.4,459.3L528.4,459.3z M527.9,459.5
		C528,459.4,528,459.5,527.9,459.5L527.9,459.5c0.2,0,0.5,0.3,0.5,0.3L527.9,459.5C528,459.6,528,459.6,527.9,459.5
		C528,459.6,528,459.6,527.9,459.5C527.9,459.5,528,459.4,527.9,459.5z"/>
</g>
<g>
	<path fill="#F3DADC" d="M452.7,449l0.2-0.3c0.6-0.2,0.7-0.6,0.8-0.5c1.1-0.2,5.2-0.7,4.7,2.2c-0.5,3.1-5.2,1-5.8-0.5
		C452.6,449.7,452.7,449.5,452.7,449L452.7,449c0.4,0.3,1.2,0.9,1.7,1l0,0.1c-0.1,0.1,0,0.2,0.2,0.1c0.2,0,0.2-0.1,0.2-0.1
		c0.1-0.1,0-0.2-0.2-0.1c-0.1,0-0.1,0-0.3,0L452.7,449z"/>
	<path fill="#F3DADC" d="M450.1,454.5c0,0,1.7,0.5,2.5-0.1c2.1-1.8,0.7-3.7,0.2-4.4c-0.1-0.1-0.2-0.4-0.9-0.3l-0.3-0.5
		c-0.2,0.2-0.9,0.3-0.9,0.4C447.5,452.5,450.1,454.5,450.1,454.5z M451.3,451.6c0.1,0.1,0.1,0.1,0,0.2c0,0.1,0,0.3-0.1,0.4
		c-0.1,0.1-0.2-0.1-0.2-0.1C450.9,451.8,451,451.7,451.3,451.6L451.3,451.6c-0.3-0.5,0.4-1.9,0.4-1.9L451.3,451.6z"/>
	<path fill="#F3DADC" d="M454.2,443.1c3.8-0.5,2.7,2.5,2.7,2.5s-1.2,2.2-3.5,2.6c0,0-0.3-0.2-0.5-0.1l-0.1-0.2
		c0.5-0.3,1-0.8,1.1-1.2l0.1,0.1c0.1,0,0.2-0.1,0.3-0.1c0.1-0.1,0-0.3-0.1-0.3c-0.1,0-0.2,0.1-0.3,0.1c-0.1,0.1,0,0.1,0,0.3
		l-1.1,1.2l-0.4-0.3c0.1-0.2-0.2-0.4-0.2-0.4C452.1,446.5,452.4,443.8,454.2,443.1z"/>
	<path fill="#F3DADC" d="M445,448.4c0,0-0.5,2,0.5,2.4c2.3,1.7,4.8-0.9,5.4-1.5c0.1-0.1,0-0.3,0.3-0.4l0-0.6c-0.1,0-0.5-0.4-0.5-0.4
		C445.7,446.1,445,448.4,445,448.4z M448.8,450c0-0.1,0.2-0.2,0.2-0.1l0.1,0.1c0.3-0.5,1.7-1.1,1.7-1.1l-1.7,1.1
		c0.1,0.1,0,0.1-0.1,0.2c0,0.1-0.2,0.2-0.2,0.1C448.6,450.4,448.6,450.2,448.8,450z"/>
	<path fill="#F3DADC" d="M450.5,447.8c-0.1,0.1,0.3-0.1,0.6,0.2l0.8-0.3c-0.1,0,0.1-0.5,0.3-0.6c0-4.8-2.5-4.7-2.5-4.7
		s-1.3-0.1-1.8,0.7C446.1,445.4,449.7,447.4,450.5,447.8z M450.3,445.7c0.1-0.1,0.3,0,0.3,0c0.1,0.2,0.1,0.2,0.1,0.3
		c-0.1,0.1-0.1,0.1-0.1,0.1c0.3,0.4,0.6,1.8,0.6,1.8l-0.7-1.8c-0.1-0.1-0.1,0-0.1-0.2C450.3,445.9,450.3,445.7,450.3,445.7z"/>
	<path fill="#F3DADC" d="M451.2,449.9c0.8,0.2,1.5,0,1.8-0.7c0.3-0.7,0-1.3-0.7-1.7c-0.8-0.2-1.5,0.1-1.8,0.7
		C450.3,448.9,450.6,449.6,451.2,449.9z M452.7,448.5C452.9,448.4,452.9,448.4,452.7,448.5l0.2,0.1
		C452.8,448.6,452.8,448.6,452.7,448.5C452.7,448.7,452.7,448.7,452.7,448.5c0,0.1-0.5,0.3-0.5,0.3L452.7,448.5L452.7,448.5z
		 M451.9,449.8c0.1,0.1,0.1,0.1,0.1,0.2c0,0.1,0.1,0.1-0.1,0.1c-0.1,0-0.2-0.1-0.2-0.1C451.7,449.7,451.7,449.7,451.9,449.8
		L451.9,449.8c-0.4-0.3-0.1-0.8-0.1-0.8L451.9,449.8z M451.5,447.8C451.6,447.7,451.6,447.7,451.5,447.8c0.1,0.1,0.2,0.1,0.1,0.1
		l0,0c0.2,0.1,0.1,0.8,0.1,0.8l-0.2-0.7c-0.1,0.1-0.1,0.1-0.1-0.1C451.5,448,451.6,447.9,451.5,447.8z M451,448.1
		c0.1,0.1,0.1,0.1,0.1,0.2c-0.1,0.1-0.1,0.1-0.1,0.1c0.1,0,0.6,0.6,0.6,0.6l-0.7-0.5c-0.1,0.1-0.1,0.1-0.1,0.1
		c-0.1-0.1-0.1-0.1-0.1-0.2C450.8,448.3,450.9,448.1,451,448.1z"/>
</g>
<g>
	<path fill="#F3DADC" d="M469.8,426.6l0.1-0.2c0.3-0.1,0.5-0.4,0.5-0.3c0.8-0.1,3.4-0.5,3.2,1.4c-0.3,2-3.5,0.7-3.9-0.3
		C469.7,427,469.8,426.9,469.8,426.6L469.8,426.6c0.2,0.1,0.7,0.5,1.1,0.5c-0.2,0.1-0.2,0.1-0.1,0.1l0.1,0.2c0.1,0,0.3,0,0.2-0.1
		l-0.1-0.2c-0.1-0.1-0.1-0.1-0.1,0L469.8,426.6z"/>
	<path fill="#F3DADC" d="M467.9,430.1c0,0,1.1,0.3,1.6-0.1c1.4-1,0.5-2.5,0-2.9c-0.1-0.1-0.2-0.2-0.7-0.2l-0.1-0.3
		c-0.2,0.1-0.6,0.2-0.5,0.3C466.2,428.8,467.9,430.1,467.9,430.1z M468.7,428.2L468.7,428.2c0.1,0.2,0,0.2,0,0.3
		c-0.1,0.1-0.1,0-0.1-0.2C468.6,428.2,468.5,428.2,468.7,428.2L468.7,428.2c-0.1-0.3,0.2-1.3,0.2-1.3L468.7,428.2z"/>
	<path fill="#F3DADC" d="M470.5,422.6c2.5-0.3,1.8,1.7,1.8,1.7s-0.8,1.5-2.4,1.7c0,0-0.2-0.1-0.4,0l-0.1-0.2
		c0.2-0.2,0.6-0.6,0.7-0.7l0.1,0.1c0.1,0.1,0.2,0,0.1-0.2c0-0.2,0.1-0.2,0-0.3c-0.1-0.1-0.2,0-0.1,0.2c-0.1,0.1,0.1,0.1,0,0.1
		l-0.7,0.7l-0.3-0.2c0-0.1-0.1-0.2-0.1-0.3C469.2,424.7,469.5,423,470.5,422.6z"/>
	<path fill="#F3DADC" d="M464.5,426.1c0,0-0.3,1.3,0.4,1.6c1.4,1.2,3.2-0.6,3.5-1c0,0,0-0.3,0.1-0.2l0-0.4c-0.1,0.1-0.2-0.2-0.4-0.3
		C465,424.6,464.5,426.1,464.5,426.1z M467,427.4c0.1-0.1,0.2-0.1,0.2,0c0.1,0.1,0.1,0.1,0.1,0.1c0.3-0.4,1.1-0.7,1.1-0.7l-1.1,0.7
		c-0.1,0.1-0.1,0.1,0,0.1c-0.1,0.1-0.2,0.1-0.2,0C467.1,427.4,467.1,427.3,467,427.4z"/>
	<path fill="#F3DADC" d="M468.2,425.7c0,0,0.1,0,0.3,0l0.5-0.3c-0.1,0.1,0-0.3,0.3-0.4c0.1-3.3-1.6-3.2-1.6-3.2s-0.8-0.1-1.3,0.5
		C465.3,424.1,467.6,425.5,468.2,425.7z M468.2,424.3c0.1-0.1,0.1,0,0.2,0.1c0.1,0.1,0,0.2,0,0.3s-0.1,0.1-0.1,0.1
		c0.2,0.2,0.4,1.2,0.4,1.2l-0.5-1.2c-0.1-0.1-0.1-0.1-0.1-0.2C468,424.3,468.1,424.3,468.2,424.3z"/>
	<path fill="#F3DADC" d="M468.8,427c0.5,0.1,1-0.1,1.2-0.5c0.2-0.4,0-0.9-0.5-1.1c-0.5-0.1-1,0.1-1.2,0.5
		C468.2,426.4,468.3,427,468.8,427z M469.6,426.2C469.6,426.1,469.8,426.1,469.6,426.2L469.6,426.2
		C469.7,426.3,469.7,426.3,469.6,426.2C469.7,426.2,469.7,426.2,469.6,426.2c-0.1,0.1-0.2,0.2-0.3,0.1L469.6,426.2
		C469.6,426.2,469.6,426.1,469.6,426.2z M469.1,427C469.1,427,469.1,427,469.1,427C469.3,427,469.3,427.1,469.1,427
		c-0.1,0-0.1,0.1-0.1-0.1C468.9,426.8,468.9,426.8,469.1,427L469.1,427c-0.2-0.1-0.1-0.5-0.1-0.5L469.1,427z M468.9,425.7
		L468.9,425.7C469,425.7,469,425.7,468.9,425.7L468.9,425.7c0.2,0.1,0.2,0.6,0.2,0.6L468.9,425.7L468.9,425.7
		C468.9,425.8,468.9,425.8,468.9,425.7z M468.4,426C468.4,425.9,468.5,426,468.4,426L468.4,426c0.2,0,0.5,0.3,0.5,0.3L468.4,426
		C468.5,426.1,468.5,426.1,468.4,426L468.4,426C468.4,426,468.5,426,468.4,426z"/>
</g>
<g>
	<path fill="#F3DADC" d="M509.1,478.8l0.2-0.3c0.6-0.2,0.7-0.6,0.8-0.5c1.1-0.2,5.2-0.7,4.7,2.2c-0.5,3.1-5.2,1-5.8-0.5
		C509.1,479.6,509.2,479.4,509.1,478.8L509.1,478.8c0.4,0.3,1.2,0.9,1.7,1l0,0.1c-0.1,0.1,0,0.2,0.2,0.1c0.1,0,0.2-0.1,0.2-0.1
		c0.1-0.1,0-0.2-0.2-0.1c-0.2,0-0.1,0-0.3,0L509.1,478.8z"/>
	<path fill="#F3DADC" d="M506.5,484.1c0,0,1.7,0.5,2.5-0.1c2.1-1.8,0.7-3.7,0.2-4.4c-0.1-0.1-0.2-0.4-0.9-0.3l-0.3-0.5
		c-0.2,0.2-0.9,0.3-0.9,0.4C503.9,482.1,506.5,484.1,506.5,484.1z M507.7,481.2c0.1,0.1,0.1,0.1,0,0.2c0,0.1,0,0.3-0.1,0.4
		c-0.1,0.1-0.2-0.1-0.2-0.1c0-0.1,0-0.3,0.1-0.4L507.7,481.2c-0.3-0.5,0.4-1.9,0.4-1.9L507.7,481.2z"/>
	<path fill="#F3DADC" d="M510.7,472.7c3.8-0.5,2.7,2.5,2.7,2.5s-1.2,2.2-3.5,2.6c0,0-0.3-0.2-0.5-0.1l-0.1-0.2
		c0.5-0.3,1-0.8,1.1-1.2l0.1,0.1c0.1,0,0.2-0.1,0.3-0.1c0-0.1,0-0.3-0.1-0.3c-0.1,0-0.2,0.1-0.3,0.1c-0.1,0.1,0,0.1,0,0.3l-1.1,1.2
		l-0.4-0.3c0.1-0.2-0.2-0.4-0.2-0.4C508.5,476.2,508.8,473.5,510.7,472.7z"/>
	<path fill="#F3DADC" d="M501.5,478.1c0,0-0.5,2,0.5,2.4c2.3,1.7,4.8-0.9,5.4-1.5c0.1-0.1,0-0.3,0.3-0.4l0-0.6
		c-0.1,0-0.5-0.4-0.5-0.4C502.2,475.6,501.5,478.1,501.5,478.1z M505.1,479.7c0-0.1,0.2-0.2,0.2-0.1l0.1,0.1
		c0.3-0.5,1.7-1.1,1.7-1.1l-1.7,1.1c0.1,0.1,0,0.1-0.1,0.2c0,0.1-0.2,0.2-0.2,0.1C505,480.1,505.1,479.9,505.1,479.7z"/>
	<path fill="#F3DADC" d="M507.1,477.5c-0.1,0.1,0.3-0.1,0.6,0.2l0.8-0.3c-0.1,0,0.1-0.5,0.3-0.6c0-4.8-2.5-4.7-2.5-4.7
		s-1.3-0.1-1.8,0.7C502.6,475,506,477,507.1,477.5z M506.7,475.3c0.1-0.1,0.3,0,0.3,0c0.1,0.2,0.1,0.2,0.1,0.3
		c-0.1,0.1-0.1,0.1-0.1,0.1c0.3,0.4,0.6,1.8,0.6,1.8l-0.7-1.8c-0.1-0.1-0.1,0-0.1-0.2C506.8,475.5,506.7,475.2,506.7,475.3z"/>
	<path fill="#F3DADC" d="M507.7,479.5c0.8,0.2,1.5,0,1.8-0.7c0.3-0.7,0-1.3-0.7-1.7c-0.8-0.2-1.5,0.1-1.8,0.7
		C506.7,478.4,507,479.3,507.7,479.5z M509.2,478.2C509.2,478.1,509.3,478.1,509.2,478.2c0.1,0,0.2,0,0.2,0.1
		C509.3,478.2,509.4,478.4,509.2,478.2C509.3,478.3,509.3,478.3,509.2,478.2c-0.2,0.1-0.5,0.3-0.5,0.3L509.2,478.2
		C509.2,478.1,509.2,478.1,509.2,478.2z M508.4,479.4c0.1,0.1,0.1,0.1,0.1,0.2c0.1,0.1,0.1,0.1-0.1,0.1c-0.2,0-0.2-0.1-0.2-0.1
		C508.1,479.5,508.1,479.5,508.4,479.4L508.4,479.4c-0.4-0.3-0.1-0.8-0.1-0.8L508.4,479.4z M508.1,477.5
		C508.1,477.4,508.2,477.6,508.1,477.5c0.2-0.1,0.2,0.1,0.1,0.1l0,0c0.2,0.1,0.1,0.8,0.1,0.8L508.1,477.5
		C508,477.6,508,477.6,508.1,477.5C508,477.5,508.1,477.5,508.1,477.5z M507.3,477.8c0.1,0.1,0.1,0.1,0.1,0.2
		c-0.1,0.1-0.1,0.1-0.1,0.1c0.1,0,0.6,0.6,0.6,0.6l-0.7-0.5c-0.1,0.1-0.1,0.1-0.1,0.1c-0.1-0.1-0.1-0.1-0.1-0.2
		C507.2,477.9,507.2,477.9,507.3,477.8z"/>
</g>
<g>
	<path fill="#F3DADC" d="M559.8,426l0.2-0.1c0.5,0.3,0.8,0.1,0.8,0.1c0.9,0.6,3.9,2.6,1.9,4.5c-2.2,2.1-4.1-2.3-3.8-3.8
		c0.1-0.1,0.2-0.2,0.4-0.5L559.8,426c0,0.4,0.2,1.2,0.5,1.6c-0.1,0-0.1,0-0.1,0.1c-0.1,0.1,0,0.3,0.1,0.3s0.1,0.2,0.2,0.1
		c0.1-0.1,0.1-0.2-0.1-0.3c-0.1-0.1-0.1-0.2-0.1-0.2L559.8,426z"/>
	<path fill="#F3DADC" d="M554.7,428.4c0,0,0.9,1.4,1.8,1.5c2.3,0.1,2.6-2.3,2.6-3.1c0.1-0.1,0-0.5-0.4-0.7l0.1-0.5
		c-0.2,0.1-0.8-0.2-0.8-0.2C554.1,425.2,554.7,428.4,554.7,428.4z M557,426.8c0.1,0.1,0,0.1,0,0.3c0,0.1-0.1,0.2-0.2,0.1
		c0.1-0.1,0-0.1,0-0.3C556.8,426.7,557,426.6,557,426.8C557,426.8,557.1,426.8,557,426.8c0.3-0.5,1.4-1,1.4-1L557,426.8z"/>
	<path fill="#F3DADC" d="M564.3,422.4c2.8,1.9,0.4,3.5,0.4,3.5s-2,1-3.8-0.2c-0.1-0.1-0.2-0.2-0.4-0.3l0-0.2
		c0.5,0.1,1.1,0.1,1.4-0.1c0.1,0.1,0.1,0.1,0.1,0.1c0.1,0.1,0.2,0.1,0.3,0c0.1,0,0.1-0.2,0.1-0.2c-0.1-0.1-0.2-0.1-0.3,0
		c0,0.1-0.2,0.1-0.2,0.1l-1.5,0.2l-0.2-0.4c0.2-0.1,0.1-0.5,0.1-0.5C560.7,423.7,562.4,421.8,564.3,422.4z"/>
	<path fill="#F3DADC" d="M554.7,420.9c0,0-1.4,1-1.1,2.1c0.6,2.8,3.8,2.2,4.4,2.1c0.1-0.1,0.1-0.2,0.3-0.1l0.3-0.4
		c-0.1,0,0-0.5-0.1-0.6C556.6,419.5,554.7,420.9,554.7,420.9z M556.3,424.3c0.1-0.1,0.3,0,0.2,0.1l-0.1,0.1c0.4-0.2,1.8,0.2,1.8,0.2
		l-1.7-0.2c-0.1,0.1-0.1,0.1-0.2,0c-0.1,0.1-0.3,0-0.2-0.1C556.1,424.3,556.2,424.3,556.3,424.3z"/>
	<path fill="#F3DADC" d="M558.8,423.7c0,0,0.3,0.2,0.3,0.5l0.7,0.1c-0.2-0.1,0.2-0.2,0.4-0.2c2.9-3.5,1-4.9,1-4.9s-0.8-0.9-1.6-0.7
		C557.2,419.2,558.4,422.9,558.8,423.7z M560.1,422.1c0.1,0.1,0.1,0.2,0.1,0.2s-0.1,0.2-0.1,0.2l-0.1-0.1c0,0.5-0.6,1.6-0.6,1.6
		l0.5-1.7c-0.1-0.1,0-0.1,0-0.2C559.8,422.1,559.9,422,560.1,422.1z"/>
	<path fill="#F3DADC" d="M558.3,425.6c0.4,0.6,1.1,1,1.6,0.7c0.6-0.3,0.7-1,0.4-1.6c-0.4-0.6-1.1-0.9-1.6-0.7
		C558,424.2,557.9,425,558.3,425.6z M559.9,425.5c0.2-0.1,0.2,0,0.3,0c0.1,0.1,0.1,0.1,0,0.1c-0.1,0-0.1,0.1-0.1,0
		C559.9,425.5,559.9,425.5,559.9,425.5c-0.1,0.1-0.5-0.1-0.5-0.1L559.9,425.5L559.9,425.5z M558.8,425.9
		C558.7,426,558.9,426,558.8,425.9c-0.1,0.2,0,0.2-0.1,0.2s0-0.2-0.1-0.2c0.1-0.1,0-0.1,0.1-0.1
		C558.6,425.8,558.6,425.9,558.8,425.9c-0.1-0.3,0.3-0.6,0.3-0.6L558.8,425.9z M559.5,424.4c0.1,0.1,0.1,0,0.1,0.2l-0.1,0.1
		l-0.1-0.1c0,0.2-0.3,0.6-0.3,0.6l0.3-0.6L559.5,424.4L559.5,424.4z M558.8,424.1c0.1,0.1,0.1,0.1,0.1,0.2c-0.1,0.1-0.1,0.1-0.1,0.1
		c0.1,0,0.1,0.8,0.1,0.8l-0.1-0.8l-0.1-0.1C558.7,424.2,558.7,424.2,558.8,424.1C558.8,424.1,558.9,424.2,558.8,424.1z"/>
</g>
<g>
	<path fill="#F3DADC" d="M408,419.7l0-0.3c0.3-0.3,0.3-0.6,0.3-0.6c0.6-0.5,2.8-2.2,3.5-0.3c0.9,1.9-2.6,2.3-3.7,1.6
		C408.2,420.2,408.3,420.1,408,419.7L408,419.7c0.4,0,1,0.1,1.3-0.1c-0.1,0.1-0.1,0.1,0,0.1c0,0,0.1,0,0.3,0c0.1-0.1,0.2,0,0.2-0.1
		c0,0-0.1,0-0.3,0c0,0-0.1-0.1-0.1,0.1L408,419.7z"/>
	<path fill="#F3DADC" d="M408.5,423.5c0,0,1-0.3,1.5-0.9c0.6-1.5-1-2.2-1.6-2.4c-0.1-0.1-0.3,0-0.6,0.2l-0.3-0.2
		c0,0.3-0.3,0.4-0.3,0.4C406.2,423.2,408.5,423.5,408.5,423.5z M408.1,421.5c0.1,0.1,0.1,0.1,0.1,0.2c0,0.1,0,0.2,0,0.3
		c-0.1,0.1-0.1,0-0.2-0.1C407.9,421.8,407.9,421.6,408.1,421.5L408.1,421.5c-0.2-0.1-0.4-1.2-0.4-1.2L408.1,421.5z"/>
	<path fill="#F3DADC" d="M406.8,415.8c2.1-1.4,2.5,0.6,2.5,0.6s0.1,1.5-1.1,2.5c-0.1,0.1-0.3,0-0.3,0.1l-0.1,0
		c0.1-0.2,0.2-0.7,0.2-0.9c0.1,0.1,0.1,0.1,0.1,0.1c0.1,0.1,0.2-0.1,0.1-0.2c-0.1-0.1,0-0.2-0.1-0.2c-0.1-0.1-0.2,0.1-0.1,0.2
		c0,0-0.1,0.1,0.1,0.1l-0.2,1l-0.4,0c-0.1-0.2-0.3-0.2-0.3-0.2C406.8,418.3,405.9,416.9,406.8,415.8z"/>
	<path fill="#F3DADC" d="M403.3,421.8c0,0,0.5,1.2,1.2,1.1c2,0.2,2.5-1.9,2.6-2.6c0,0-0.1-0.2,0-0.2l-0.2-0.2
		c-0.1,0.1-0.5-0.1-0.5-0.1C402.9,420.3,403.3,421.8,403.3,421.8z M406.1,421.6c0-0.1,0.1-0.2,0.2-0.1l0.1,0.1
		c0-0.4,0.6-1.2,0.6-1.2l-0.6,1.2c-0.1,0.1,0.1,0.1,0,0.1c0,0.1-0.1,0.2-0.2,0.1C406.1,421.7,406.1,421.7,406.1,421.6z"/>
	<path fill="#F3DADC" d="M406.5,419.8c0.1,0.1,0.1-0.2,0.4-0.1l0.3-0.5c-0.2,0.1-0.2-0.1-0.1-0.3c-1.8-2.6-3.2-1.9-3.2-1.9
		s-0.6,0.4-0.8,0.9C402.9,419.7,405.7,419.8,406.5,419.8z M405.5,418.6c0,0,0.1-0.1,0.3,0c0.1,0,0.2,0.1,0.1,0.2
		c-0.1,0.1-0.1,0.1-0.1,0.1c0.5,0.1,0.9,0.8,0.9,0.8l-1.1-0.8c-0.1,0.1-0.1,0.1-0.1,0C405.5,418.7,405.4,418.7,405.5,418.6z"/>
	<path fill="#F3DADC" d="M407.5,420.5c0.5-0.1,0.8-0.5,0.8-0.9c-0.1-0.4-0.5-0.5-1.1-0.6c-0.5,0.1-0.8,0.5-0.8,0.9
		C406.6,420.3,407,420.5,407.5,420.5z M407.9,419.3c0,0,0.1-0.1,0.2-0.1l0.1,0.1C408,419.3,408,419.3,407.9,419.3
		C408,419.3,408,419.3,407.9,419.3c0,0.1-0.1,0.4-0.2,0.3L407.9,419.3L407.9,419.3z M407.8,420.1L407.8,420.1
		c0.2,0.1,0.2,0.1,0.1,0.2c-0.1-0.1-0.1,0-0.3,0c-0.1,0-0.1,0-0.1-0.1c0.1,0.1,0.1,0.1,0.1,0.1c-0.3,0-0.3-0.3-0.3-0.3L407.8,420.1z
		 M407,419.3L407,419.3L407,419.3L407,419.3c0.4,0,0.4,0.4,0.4,0.4L407,419.3C407.1,419.5,407.1,419.5,407,419.3
		C406.9,419.5,407,419.3,407,419.3z M406.7,419.8L406.7,419.8L406.7,419.8c0.2-0.1,0.6,0,0.6,0L406.7,419.8L406.7,419.8
		C406.7,419.9,406.7,419.9,406.7,419.8C406.5,419.8,406.5,419.8,406.7,419.8z"/>
</g>
<g>
	<polygon fill="#7ACCBE" points="528.1,583.7 501.9,583.7 505.4,389 521.9,389 	"/>
	<polygon fill="#7ACCBE" points="513.6,364.3 505.4,389 521.8,389 	"/>
</g>
</svg>
