<?xml version="1.0" encoding="utf-8"?>
<!-- Generator: Adobe Illustrator 18.1.1, SVG Export Plug-In . SVG Version: 6.00 Build 0)  -->
<svg version="1.1" id="Layer_1" xmlns="http://www.w3.org/2000/svg" xmlns:xlink="http://www.w3.org/1999/xlink" x="0px" y="0px"
	 viewBox="0 0 504 504" enable-background="new 0 0 504 504" xml:space="preserve">
<g>
	<g id="XMLID_1_">
		<g>
			<path fill="#FECACE" d="M314,299.7c-1.2,2,0.6,5.2,3.7,7.2c3.2,2,6.8,2,8.1,0c1.3-2-0.4-5.2-3.7-7.2c-1.9-1.2-3.6-1.6-5.2-1.4
				l-0.6-0.7l-29.6-32.8c-0.2,0.3-0.5,0.5-0.7,0.8c5.8,9.2,19.2,29.2,29,33.2C314.6,298.9,314.3,299.2,314,299.7z M248.1,248.8
				c-0.4,0.4-7.1,6.4-7.9,9.8c-0.3-0.4-1-0.6-1.6-0.6c-1.4,0-2.9,1-3,2.6c-0.1,1.4,1,2.7,2.6,2.7c1.5,0.1,2.9-0.9,3-2.5
				c0.1-0.6,0-1-0.3-1.3L248.1,248.8z M271.2,261.8L259.8,246c0,0,4.3,14.4,10.7,16.1c-0.3,0-0.4,0.3-0.6,0.4c-1.2,1.3-0.9,3,0.1,4
				c1.2,1.1,3.1,0.9,3.9-0.3c0.9-1.2,0.7-3-0.1-4C273.1,261.6,272.1,261.5,271.2,261.8z M262.7,239.6c0.9,0.5,16.5,9,20.3,7.5
				c0,0.3,0.1,0.4,0.3,0.7c0.6,1.3,2.2,2.3,3.5,2.2c1.2-0.1,1.7-1.3,1-2.3c-0.2-0.4-0.5-0.8-0.9-1.1c-1-0.4-2-0.7-2.9-1
				c-0.5,0.1-0.9,0.4-1,0.8L262.7,239.6z M380.6,139.1c39.3,16.6,38,54.1,38,54.1s3.2,52.7-120.8,58c-0.5,0-2.3-0.8-4.5-1.8
				c-0.3,2.3-0.8,4.5-1.6,6.6c3.7-0.4,6.6-2.2,7.6-2.1c23.9,3.6,125.6,22.9,111.2,91.3c-7.1,22.6-34.7,32.8-34.7,32.8
				s-56,25.9-105.5-91.3c2.7-3.2,3.7-8.7,3.5-12.4c-4.2,1.8-8.8,2.8-13.7,2.9c2.1,4.9,8.7,7.8,9.1,8.7c0.1,0.3,0.3,0.7,0.4,1
				c7.1,19.4,29.1,83.1-6.2,117.7c-75.9,48.8-90.1-36.7-90.1-36.7s-4.6-55.1,47.1-89.5c1.5-1,3-2,4.6-2.9c1.3-0.9,9.3,0.1,14.4-4.2
				c-4.5-3-8.1-7-10.6-11.7c-7.9,8.5-8,17-9.2,17.6c-24.6,14.6-112.8,61.8-132-11.3c-20.9-80.3,109.3-70.1,139.5-39.5
				c0.5,0.6,0.8,2.4,1.6,5.6c1.9-3.6,4.5-6.8,7.7-9.4c-5.4-1.7-9.2-2-10.2-2.5c-20.7-10.9-73.7-46.4-43.8-105.8
				c17.7-30,57.2-23,57.2-23s80.8,26.8,36,119.4c-0.3,0.5-3.4,2.4-6.9,5.1c2.5,0.7,4.9,1.6,7.1,2.7
				C282.6,195.5,311.3,118.3,380.6,139.1z M316.4,185.5c1.2-3.6,0.1-7.1-2.3-7.8c-2.2-0.9-4.9,1.6-5.9,5.3c-0.6,2.2-0.4,3.9,0,5.5
				l-0.4,0.7l-23,35.7c0.3,0.3,0.6,0.6,0.9,1c7.8-8.5,22.3-25.6,23.5-35.8c0.4,0.4,0.9,0.6,1.3,0.7
				C312.7,191.7,315.4,189.2,316.4,185.5z M249,228.2l7.5,11.8c0,0-0.1-6.4-3.3-11.5l-2.8,0.6C249.9,228.8,249.4,228.5,249,228.2z
				 M253,215c0.4-0.1,0.9-0.1,1.3-0.2c-0.6-11.5-2.5-33.6-8.7-41.7c0.6,0,1-0.1,1.4-0.3c2.2-1.2,2.3-4.8,0.4-8.1c-1.9-3.5-5-5-7.1-4
				c-2.2,1.2-2.3,4.8-0.4,8.1c1.2,1.9,2.4,3.3,3.9,3.9l0.2,0.8h0L253,215z M233.1,309.8l12.5-35.3c-0.6-0.2-1.2-0.5-1.8-0.8
				c-5.6,10.6-13,26.8-12.2,35.6c-0.6-0.3-1-0.4-1.4-0.4c-2.3-0.1-4.5,2.7-4.6,6.6c-0.3,3.9,1.6,6.9,3.9,7.1
				c2.3,0.1,4.5-2.7,4.6-6.6c0.1-2.2-0.4-3.9-1.3-5.3L233.1,309.8z M225.2,245.4c0.1-0.6,0.1-1.2,0.2-1.9
				c-11.6-3.5-28.9-7.8-37.3-5.2c0.1-0.6,0.1-1,0.1-1.4c-0.3-2.3-3.5-3.6-7.3-3.2c-3.9,0.6-6.6,2.9-6.3,5.2c0.3,2.3,3.5,3.6,7.3,3.2
				c2.2-0.3,4-1.3,5-2.3l1,0.1L225.2,245.4z"/>
			<path fill="#3DA8A4" d="M322.1,299.7c3.3,2,5,5.2,3.7,7.2c-1.3,2-4.9,2-8.1,0c-3.1-2-4.9-5.2-3.7-7.2c0.3-0.5,0.6-0.8,1-0.9
				l1.3-1.2l0.6,0.7C318.5,298.1,320.2,298.5,322.1,299.7z"/>
			<path fill="#3DA8A4" d="M316.3,297.6l-1.3,1.2c-9.8-4-23.2-24-29-33.2c0.2-0.3,0.5-0.5,0.7-0.8L316.3,297.6z"/>
			<path fill="#3DA8A4" d="M308.2,188.5c-0.4-1.6-0.6-3.3,0-5.5c1-3.7,3.7-6.2,5.9-5.3c2.4,0.7,3.5,4.2,2.3,7.8
				c-1,3.7-3.7,6.2-5.9,5.3c-0.4-0.1-0.9-0.3-1.3-0.7l-1.4-0.9L308.2,188.5z"/>
			<path fill="#3DA8A4" d="M307.8,189.2l1.4,0.9c-1.2,10.2-15.7,27.3-23.5,35.8c-0.3-0.4-0.6-0.7-0.9-1L307.8,189.2z"/>
			<path fill="#3DA8A4" d="M297.8,251.2c124-5.3,120.8-58,120.8-58s1.3-37.5-38-54.1c-69.3-20.8-98,56.4-104.8,79.4
				c-2.2-1.1-4.6-2-7.1-2.7c3.5-2.7,6.6-4.6,6.9-5.1c44.8-92.6-36-119.4-36-119.4s-39.5-7-57.2,23c-29.9,59.4,23.1,94.9,43.8,105.8
				c1,0.5,4.8,0.8,10.2,2.5c-3.2,2.6-5.8,5.8-7.7,9.4c-0.8-3.2-1.1-5-1.6-5.6c-30.2-30.6-160.4-40.8-139.5,39.5
				c19.2,73.1,107.4,25.9,132,11.3l0.8,1.2c-51.8,34.4-47.1,89.5-47.1,89.5s14.2,85.5,90.1,36.7c35.2-34.6,13.3-98.3,6.2-117.7
				l0.7-0.2C319.8,403.9,375.8,378,375.8,378s27.6-10.2,34.7-32.8c14.4-68.4-87.3-87.7-111.2-91.3c-1-0.1-3.9,1.7-7.6,2.1
				c0.8-2.1,1.3-4.3,1.6-6.6C295.5,250.4,297.3,251.2,297.8,251.2z M252.3,0.2c139.2,0,252,112.8,252,252s-112.8,252-252,252
				s-252-112.8-252-252S113.1,0.2,252.3,0.2z"/>
			<path fill="#3DA8A4" d="M287.8,247.7c0.7,1,0.2,2.2-1,2.3c-1.3,0.1-2.9-0.9-3.5-2.2c-0.2-0.3-0.3-0.4-0.3-0.7
				c-3.8,1.5-19.4-7-20.3-7.5l20.3,6.8c0.1-0.4,0.5-0.7,1-0.8c0.9,0.3,1.9,0.6,2.9,1C287.3,246.9,287.6,247.3,287.8,247.7z"/>
			<path fill="#3DA8A4" d="M270.5,262.1c-6.4-1.7-10.7-16.1-10.7-16.1l11.4,15.8c0.9-0.3,1.9-0.2,2.6,0.4c0.8,1,1,2.8,0.1,4
				c-0.8,1.2-2.7,1.4-3.9,0.3c-1-1-1.3-2.7-0.1-4C270.1,262.4,270.2,262.1,270.5,262.1z"/>
			<path fill="#3DA8A4" d="M269.2,285.9c-0.4-0.9-7-3.8-9.1-8.7c4.9-0.1,9.5-1.1,13.7-2.9c0.2,3.7-0.8,9.2-3.5,12.4l-0.7,0.2
				C269.5,286.6,269.3,286.2,269.2,285.9z"/>
			<path fill="#3DA8A4" d="M256.5,240l-7.5-11.8c0.4,0.3,0.9,0.6,1.4,0.9l2.8-0.6C256.4,233.6,256.5,240,256.5,240z"/>
			<path fill="#3DA8A4" d="M254.3,214.8c-0.4,0.1-0.9,0.1-1.3,0.2l-9-41.5l1.6-0.4C251.8,181.2,253.7,203.3,254.3,214.8z"/>
			<path fill="#3DA8A4" d="M245.6,173.1l-1.6,0.4h0l-0.2-0.8c-1.5-0.6-2.7-2-3.9-3.9c-1.9-3.3-1.8-6.9,0.4-8.1c2.1-1,5.2,0.5,7.1,4
				c1.9,3.3,1.8,6.9-0.4,8.1C246.6,173,246.2,173.1,245.6,173.1z"/>
			<path fill="#3DA8A4" d="M240.9,259.5c0.3,0.3,0.4,0.7,0.3,1.3c-0.1,1.6-1.5,2.6-3,2.5c-1.6,0-2.7-1.3-2.6-2.7
				c0.1-1.6,1.6-2.6,3-2.6c0.6,0,1.3,0.2,1.6,0.6c0.8-3.4,7.5-9.4,7.9-9.8L240.9,259.5z"/>
			<path fill="#3DA8A4" d="M228.8,259.6c2.5,4.7,6.1,8.7,10.6,11.7c-5.1,4.3-13.1,3.3-14.4,4.2c-1.6,1-3.1,1.9-4.6,2.9l-0.8-1.2
				C220.8,276.6,220.9,268.1,228.8,259.6z"/>
			<path fill="#3DA8A4" d="M245.6,274.5l-12.5,35.3l-1.5-0.5c-0.8-8.8,6.6-25,12.2-35.6C244.4,274,245,274.3,245.6,274.5z"/>
			<path fill="#3DA8A4" d="M232.8,310.7c0.9,1.4,1.4,3.1,1.3,5.3c-0.1,3.9-2.3,6.7-4.6,6.6c-2.3-0.2-4.2-3.2-3.9-7.1
				c0.1-3.9,2.3-6.7,4.6-6.6c0.4,0,0.8,0.1,1.4,0.4l1.5,0.5L232.8,310.7z"/>
			<path fill="#3DA8A4" d="M225.4,243.5c-0.1,0.7-0.1,1.3-0.2,1.9l-37.3-5.5l0.2-1.6C196.5,235.7,213.8,240,225.4,243.5z"/>
			<path fill="#3DA8A4" d="M188.2,236.9c0,0.4,0,0.8-0.1,1.4l-0.2,1.6l-1-0.1c-1,1-2.8,2-5,2.3c-3.8,0.4-7-0.9-7.3-3.2
				c-0.3-2.3,2.4-4.6,6.3-5.2C184.7,233.3,187.9,234.6,188.2,236.9z"/>
		</g>
		<g>
		</g>
	</g>
</g>
</svg>
