<?xml version="1.0" encoding="utf-8"?>
<!-- Generator: Adobe Illustrator 18.1.1, SVG Export Plug-In . SVG Version: 6.00 Build 0)  -->
<svg version="1.1" id="Layer_1" xmlns="http://www.w3.org/2000/svg" xmlns:xlink="http://www.w3.org/1999/xlink" x="0px" y="0px"
	 viewBox="0 89 171 51" enable-background="new 0 89 171 51" xml:space="preserve">
<polygon fill="#7ACCBE" points="171.8,139.8 -2.1,141.6 -2.1,138.8 171.7,135 "/>
<polygon fill="#3DA8A4" points="171.8,141 -2,142.7 -2.1,139.5 171.7,135.4 "/>
<g>
	<g>
		<path fill="#F0BCC8" d="M146.2,117.3c0,0-0.1,0-0.1,0c-0.1,0-0.1,0-0.1-0.1c0,0,0-0.1,0.1-0.1
			C146.1,117.2,146.2,117.2,146.2,117.3L146.2,117.3c0.2-0.1,0.6,0.1,0.8,0.1l0,0c-0.1-0.2-0.1-0.3-0.1-0.3
			c-0.5-0.6-2.8-0.9-2.5,0.5c0.2,1.4,1.9,0.6,2.3,0.4c0,0,0-0.2,0.3-0.3l0-0.2L146.2,117.3z"/>
		<path fill="#F0BCC8" d="M147.4,114.7c0,0-0.8,0-1.1,0.3c-0.6,1,0.3,1.7,0.6,2c0,0,0.2,0.1,0.4,0l0.2,0.2c0-0.1,0.3-0.3,0.3-0.3
			C148.7,115.3,147.4,114.7,147.4,114.7z M147.3,116.2C147.3,116.2,147.3,116.1,147.3,116.2c-0.1-0.1-0.1-0.2-0.1-0.2
			c0,0,0.1,0,0.1,0.1C147.4,116.1,147.3,116.2,147.3,116.2C147.3,116.2,147.3,116.2,147.3,116.2c0.2,0.2,0.1,0.9,0.1,0.9
			L147.3,116.2z"/>
		<path fill="#F0BCC8" d="M147.6,118.2c0,0-0.1-0.1-0.2-0.2l-0.2-0.1l-0.3,0.7c0,0,0,0.1,0,0.1c0,0.1,0,0.1-0.1,0.1
			c0,0-0.1-0.1-0.1-0.1c0-0.1,0-0.1,0.1-0.1l0,0c0-0.2,0.2-0.5,0.3-0.6l-0.1,0c-0.1,0.1-0.2,0-0.3,0.1c-0.9,0.4-1.1,1.6-1.1,1.6
			s0,1.5,1.6,0.8C148,119.8,147.7,118.6,147.6,118.2z"/>
		<path fill="#F0BCC8" d="M150.4,116.8c0,0-0.1-0.9-0.6-1c-1.3-0.5-1.9,1-2,1.3c0,0,0,0.1,0,0.2l0.1,0.3c0,0,0.3,0.1,0.3,0.1
			C150.5,117.9,150.4,116.8,150.4,116.8z M148.6,116.5c0,0.1-0.1,0.1-0.1,0.1l0,0c0,0.2-0.6,0.7-0.6,0.7l0.5-0.7c0,0,0-0.1,0-0.1
			c0-0.1,0.1-0.1,0.1-0.1S148.6,116.4,148.6,116.5z"/>
		<path fill="#F0BCC8" d="M148.2,117.7c0,0-0.1,0.1-0.3,0l-0.3,0.3c0.1,0,0,0.2,0,0.3c0.7,2.2,1.7,1.8,1.7,1.8s0.5-0.1,0.7-0.5
			C150.4,118.3,148.6,117.8,148.2,117.7z M148.6,118.7c0,0-0.1,0-0.1,0c-0.1,0-0.1-0.1-0.1-0.1l0,0c-0.2-0.1-0.5-0.7-0.5-0.7
			l0.5,0.7c0,0,0.1,0,0.1,0C148.6,118.6,148.6,118.7,148.6,118.7z"/>
		<path fill="#F0BCC8" d="M147.5,116.9c-0.3,0-0.6,0.2-0.7,0.5c0,0.3,0.2,0.6,0.6,0.6c0.3,0,0.6-0.2,0.7-0.5
			C148.1,117.2,147.8,117,147.5,116.9z M147.1,117.7C147.1,117.8,147.1,117.8,147.1,117.7c-0.1,0-0.1,0-0.1,0
			C147,117.7,147.1,117.7,147.1,117.7C147.1,117.7,147.1,117.7,147.1,117.7c0-0.1,0.2-0.2,0.2-0.2L147.1,117.7
			C147.1,117.7,147.1,117.7,147.1,117.7z M147.3,117.1C147.2,117.1,147.2,117.1,147.3,117.1C147.2,117.1,147.2,117,147.3,117.1
			C147.2,117,147.3,117,147.3,117.1C147.4,117.1,147.4,117.1,147.3,117.1C147.3,117.1,147.3,117.1,147.3,117.1
			c0.2,0.1,0.2,0.3,0.2,0.3L147.3,117.1z M147.7,117.9C147.7,117.9,147.7,117.9,147.7,117.9C147.6,117.9,147.6,117.8,147.7,117.9
			L147.7,117.9c-0.2-0.1-0.2-0.4-0.2-0.4L147.7,117.9L147.7,117.9C147.7,117.8,147.7,117.9,147.7,117.9z M147.9,117.6
			C147.9,117.6,147.9,117.6,147.9,117.6L147.9,117.6c-0.1,0-0.4-0.2-0.4-0.2L147.9,117.6L147.9,117.6
			C147.9,117.6,147.9,117.6,147.9,117.6C148,117.6,148,117.6,147.9,117.6z"/>
	</g>
	<g>
		<path fill="#F0BCC8" d="M150.9,106.9C150.9,106.9,150.9,106.9,150.9,106.9c-0.1,0-0.1,0-0.1,0S150.8,106.8,150.9,106.9
			C150.9,106.8,151,106.8,150.9,106.9C151,106.8,151,106.8,150.9,106.9c0.1,0,0.4,0.1,0.5,0.1l0,0c0-0.1,0-0.2,0-0.2
			c-0.3-0.3-1.7-0.6-1.5,0.3c0.1,0.8,1.1,0.4,1.4,0.2c0,0,0-0.1,0.2-0.2V107L150.9,106.9z"/>
		<path fill="#F0BCC8" d="M151.6,105.3c0,0-0.4,0-0.6,0.2c-0.4,0.6,0.2,1,0.4,1.2c0,0,0.1,0.1,0.2,0l0.1,0.1c0-0.1,0.2-0.2,0.2-0.2
			C152.4,105.7,151.6,105.3,151.6,105.3z M151.6,106.2C151.6,106.2,151.5,106.2,151.6,106.2c0-0.1,0-0.1,0-0.1c0,0,0.1,0,0.1,0
			C151.6,106.1,151.6,106.2,151.6,106.2L151.6,106.2c0.1,0.1,0.1,0.5,0.1,0.5L151.6,106.2z"/>
		<path fill="#F0BCC8" d="M151.7,107.4c0,0-0.1-0.1-0.1-0.1l-0.1,0l-0.2,0.4c0,0,0,0,0,0.1s0,0.1-0.1,0.1c0,0,0,0,0-0.1
			s0-0.1,0.1-0.1l0,0c0-0.1,0.1-0.3,0.2-0.4h-0.1c-0.1,0-0.1,0-0.2,0c-0.5,0.3-0.6,0.9-0.6,0.9s0,0.8,0.9,0.5
			C152,108.3,151.8,107.6,151.7,107.4z"/>
		<path fill="#F0BCC8" d="M153.4,106.5c0,0,0-0.5-0.3-0.6c-0.7-0.3-1.1,0.6-1.2,0.8c0,0,0,0.1,0,0.1c0,0,0,0.1,0.1,0.1
			c0,0,0.2,0.1,0.2,0.1C153.4,107.2,153.4,106.5,153.4,106.5z M152.4,106.4C152.4,106.4,152.3,106.4,152.4,106.4L152.4,106.4
			c-0.1,0.2-0.4,0.4-0.4,0.4L152.4,106.4C152.3,106.4,152.3,106.3,152.4,106.4c-0.1-0.1,0-0.1,0-0.1
			C152.4,106.3,152.4,106.3,152.4,106.4z"/>
		<path fill="#F0BCC8" d="M152.1,107.1c0,0-0.1,0-0.2,0l-0.2,0.2c0,0,0,0.1,0,0.2c0.4,1.3,1,1.1,1,1.1s0.3-0.1,0.4-0.3
			C153.4,107.4,152.4,107.2,152.1,107.1z M152.3,107.7c0,0,0,0-0.1,0c0,0,0-0.1,0-0.1l0,0c-0.1-0.1-0.3-0.4-0.3-0.4l0.3,0.4
			C152.2,107.6,152.3,107.6,152.3,107.7C152.3,107.6,152.4,107.7,152.3,107.7z"/>
		<path fill="#F0BCC8" d="M151.7,106.6c-0.2,0-0.4,0.1-0.4,0.3c0,0.2,0.1,0.3,0.3,0.3c0.2,0,0.4-0.1,0.4-0.3
			C152,106.8,151.9,106.6,151.7,106.6z M151.5,107.1C151.5,107.1,151.5,107.1,151.5,107.1C151.4,107.1,151.4,107.1,151.5,107.1
			C151.4,107.1,151.4,107.1,151.5,107.1C151.5,107.1,151.5,107.1,151.5,107.1c0-0.1,0.1-0.1,0.1-0.1L151.5,107.1L151.5,107.1z
			 M151.6,106.7L151.6,106.7L151.6,106.7L151.6,106.7C151.6,106.7,151.6,106.7,151.6,106.7L151.6,106.7c0.1,0,0.1,0.2,0.1,0.2
			L151.6,106.7z M151.8,107.2L151.8,107.2L151.8,107.2L151.8,107.2c-0.1,0-0.1-0.2-0.1-0.2L151.8,107.2
			C151.8,107.2,151.8,107.2,151.8,107.2C151.8,107.2,151.8,107.2,151.8,107.2z M152,107C152,107,151.9,107,152,107L152,107
			c-0.1,0-0.2-0.1-0.2-0.1L152,107L152,107C151.9,107,152,107,152,107L152,107z"/>
	</g>
	<g>
		<path fill="#F0BCC8" d="M159.4,102.2C159.4,102.2,159.4,102.2,159.4,102.2C159.3,102.2,159.3,102.2,159.4,102.2
			C159.3,102.2,159.3,102.2,159.4,102.2L159.4,102.2L159.4,102.2c0.1,0,0.2,0,0.2,0l0,0c0,0,0-0.1,0-0.1c-0.1-0.1-0.7-0.2-0.6,0.1
			c0.1,0.3,0.5,0.2,0.6,0.1c0,0,0,0,0.1-0.1v0L159.4,102.2z"/>
		<path fill="#F0BCC8" d="M159.6,101.6c0,0-0.2,0-0.3,0.1c-0.2,0.3,0.1,0.4,0.2,0.5c0,0,0,0,0.1,0l0,0c0,0,0.1-0.1,0.1-0.1
			C160,101.7,159.6,101.6,159.6,101.6z M159.6,101.9L159.6,101.9C159.6,101.9,159.6,101.9,159.6,101.9
			C159.6,101.8,159.6,101.8,159.6,101.9C159.7,101.9,159.6,101.9,159.6,101.9L159.6,101.9c0,0.1,0,0.2,0,0.2L159.6,101.9z"/>
		<path fill="#F0BCC8" d="M159.7,102.4C159.7,102.4,159.7,102.4,159.7,102.4l-0.1,0l-0.1,0.2l0,0v0c0,0,0,0,0,0c0,0,0,0,0,0l0,0
			c0,0,0-0.1,0.1-0.2l0,0h-0.1c-0.2,0.1-0.3,0.4-0.3,0.4s0,0.3,0.4,0.2C159.8,102.8,159.8,102.5,159.7,102.4z"/>
		<path fill="#F0BCC8" d="M160.4,102.1c0,0,0-0.2-0.1-0.3c-0.3-0.1-0.5,0.2-0.5,0.3v0v0.1l0.1,0
			C160.4,102.3,160.4,102.1,160.4,102.1z M160,102C160,102,160,102,160,102C160,102,160,102,160,102c0,0.1-0.2,0.2-0.2,0.2L160,102
			L160,102C160,102,160,102,160,102C160,102,160,102,160,102z"/>
		<path fill="#F0BCC8" d="M159.9,102.3C159.9,102.3,159.9,102.3,159.9,102.3l-0.1,0.1c0,0,0,0,0,0.1c0.2,0.5,0.4,0.4,0.4,0.4
			s0.1,0,0.2-0.1C160.4,102.4,160,102.3,159.9,102.3z M160,102.5C160,102.5,160,102.5,160,102.5L160,102.5L160,102.5
			c-0.1-0.1-0.2-0.2-0.2-0.2L160,102.5C160,102.5,160,102.5,160,102.5C160,102.5,160,102.5,160,102.5z"/>
		<path fill="#F0BCC8" d="M159.7,102.1c-0.1,0-0.2,0-0.2,0.1c0,0.1,0.1,0.1,0.1,0.1s0.2,0,0.2-0.1
			C159.9,102.2,159.8,102.1,159.7,102.1z M159.6,102.3L159.6,102.3L159.6,102.3C159.6,102.3,159.6,102.3,159.6,102.3L159.6,102.3
			C159.6,102.3,159.6,102.3,159.6,102.3L159.6,102.3L159.6,102.3z M159.6,102.1L159.6,102.1C159.6,102.1,159.6,102.1,159.6,102.1
			C159.6,102.1,159.6,102.1,159.6,102.1L159.6,102.1L159.6,102.1C159.7,102.1,159.7,102.2,159.6,102.1L159.6,102.1z M159.8,102.3
			C159.8,102.3,159.7,102.3,159.8,102.3L159.8,102.3L159.8,102.3c0,0-0.1-0.1-0.1-0.1L159.8,102.3L159.8,102.3L159.8,102.3z
			 M159.8,102.3C159.8,102.3,159.8,102.2,159.8,102.3L159.8,102.3c0,0-0.1-0.1-0.1-0.1L159.8,102.3L159.8,102.3L159.8,102.3
			L159.8,102.3z"/>
	</g>
	<g>
		<path fill="#F3DADC" d="M157.4,108.3C157.4,108.3,157.4,108.3,157.4,108.3c-0.1,0-0.1,0-0.1,0
			C157.3,108.3,157.3,108.3,157.4,108.3C157.4,108.3,157.4,108.3,157.4,108.3L157.4,108.3c0.1,0,0.3,0,0.3,0.1l0,0
			c0-0.1,0-0.1,0-0.1c-0.2-0.3-1.2-0.4-1.1,0.2c0.1,0.6,0.8,0.3,1,0.2c0,0,0-0.1,0.1-0.2v-0.1L157.4,108.3z"/>
		<path fill="#F3DADC" d="M157.9,107.2c0,0-0.3,0-0.5,0.1c-0.3,0.4,0.1,0.7,0.3,0.8c0,0,0.1,0.1,0.2,0l0.1,0.1
			c0-0.1,0.1-0.1,0.1-0.1C158.5,107.5,157.9,107.2,157.9,107.2z M157.9,107.9C157.9,107.9,157.9,107.9,157.9,107.9
			c0-0.1,0-0.1,0-0.1C157.9,107.8,157.9,107.8,157.9,107.9C157.9,107.9,157.9,107.9,157.9,107.9L157.9,107.9c0.1,0.1,0,0.4,0,0.4
			L157.9,107.9z"/>
		<path fill="#F3DADC" d="M158,108.8c0,0-0.1,0-0.1-0.1l-0.1,0l-0.1,0.3v0c0,0,0,0,0,0c0,0,0,0,0-0.1c0,0,0,0,0,0l0,0
			c0-0.1,0.1-0.2,0.1-0.3h0c0,0-0.1,0-0.1,0c-0.4,0.2-0.5,0.7-0.5,0.7s0,0.6,0.7,0.3C158.2,109.5,158.1,108.9,158,108.8z"/>
		<path fill="#F3DADC" d="M159.2,108.1c0,0,0-0.4-0.3-0.4c-0.5-0.2-0.8,0.4-0.9,0.6c0,0,0,0,0,0.1l0,0.1c0,0,0.1,0.1,0.1,0.1
			C159.3,108.7,159.2,108.1,159.2,108.1z M158.4,108C158.4,108,158.4,108,158.4,108L158.4,108c0,0.1-0.3,0.3-0.3,0.3L158.4,108
			L158.4,108C158.4,108,158.4,108,158.4,108C158.4,108,158.5,108,158.4,108z"/>
		<path fill="#F3DADC" d="M158.3,108.5c0,0-0.1,0-0.1,0l-0.1,0.1c0,0,0,0.1,0,0.1c0.3,0.9,0.8,0.8,0.8,0.8s0.2-0.1,0.3-0.2
			C159.2,108.8,158.4,108.6,158.3,108.5z M158.4,109C158.4,109,158.4,109,158.4,109C158.3,109,158.3,109,158.4,109L158.4,109
			c-0.2-0.1-0.3-0.4-0.3-0.4L158.4,109L158.4,109C158.4,109,158.4,109,158.4,109z"/>
		<path fill="#F3DADC" d="M158,108.2c-0.1,0-0.3,0.1-0.3,0.2c0,0.1,0.1,0.3,0.2,0.3s0.3-0.1,0.3-0.2
			C158.2,108.3,158.1,108.2,158,108.2z M157.8,108.5C157.8,108.6,157.8,108.6,157.8,108.5C157.8,108.5,157.8,108.5,157.8,108.5
			C157.8,108.5,157.8,108.5,157.8,108.5C157.8,108.5,157.8,108.5,157.8,108.5C157.8,108.5,157.9,108.5,157.8,108.5L157.8,108.5
			L157.8,108.5z M157.9,108.3L157.9,108.3C157.8,108.2,157.8,108.2,157.9,108.3C157.9,108.2,157.9,108.3,157.9,108.3
			C157.9,108.3,157.9,108.3,157.9,108.3L157.9,108.3c0.1,0,0.1,0.1,0.1,0.1L157.9,108.3z M158.1,108.6
			C158,108.7,158,108.7,158.1,108.6C158,108.6,158,108.6,158.1,108.6C158,108.6,158,108.6,158.1,108.6c-0.1,0-0.1-0.2-0.1-0.2
			L158.1,108.6L158.1,108.6L158.1,108.6z M158.2,108.5L158.2,108.5C158.1,108.5,158.1,108.5,158.2,108.5c-0.1,0-0.2-0.1-0.2-0.1
			L158.2,108.5L158.2,108.5C158.2,108.5,158.2,108.5,158.2,108.5C158.2,108.5,158.2,108.5,158.2,108.5z"/>
	</g>
	<g>
		<path fill="#F3DADC" d="M151.8,112.5L151.8,112.5C151.8,112.5,151.7,112.5,151.8,112.5C151.7,112.5,151.7,112.5,151.8,112.5
			C151.8,112.5,151.8,112.5,151.8,112.5L151.8,112.5c0.1,0,0.2,0,0.2,0l0,0c0-0.1,0-0.1,0-0.1c-0.1-0.2-0.8-0.3-0.7,0.1
			c0.1,0.4,0.5,0.2,0.7,0.1c0,0,0-0.1,0.1-0.1v0L151.8,112.5z"/>
		<path fill="#F3DADC" d="M152.1,111.7c0,0-0.2,0-0.3,0.1c-0.2,0.3,0.1,0.5,0.2,0.6c0,0,0.1,0,0.1,0l0.1,0c0,0,0.1-0.1,0.1-0.1
			C152.6,111.9,152.1,111.7,152.1,111.7z M152.1,112.1C152.1,112.1,152.1,112.1,152.1,112.1C152.1,112.1,152.1,112.1,152.1,112.1
			L152.1,112.1C152.2,112.1,152.2,112.1,152.1,112.1L152.1,112.1c0,0.1,0,0.3,0,0.3L152.1,112.1z"/>
		<path fill="#F3DADC" d="M152.2,112.8C152.2,112.8,152.2,112.7,152.2,112.8l-0.1-0.1l-0.1,0.2c0,0,0,0,0,0c0,0,0,0,0,0c0,0,0,0,0,0
			c0,0,0,0,0,0l0,0c0,0,0-0.1,0.1-0.2h0c0,0-0.1,0-0.1,0c-0.3,0.1-0.3,0.5-0.3,0.5s0,0.4,0.4,0.2
			C152.4,113.2,152.3,112.9,152.2,112.8z"/>
		<path fill="#F3DADC" d="M153,112.3c0,0,0-0.3-0.2-0.3c-0.4-0.1-0.5,0.3-0.6,0.4c0,0,0,0,0,0.1l0,0.1c0,0,0.1,0,0.1,0
			C153.1,112.7,153,112.3,153,112.3z M152.5,112.2C152.5,112.3,152.5,112.3,152.5,112.2C152.5,112.3,152.5,112.3,152.5,112.2
			c0,0.1-0.2,0.2-0.2,0.2L152.5,112.2C152.5,112.3,152.5,112.3,152.5,112.2C152.5,112.2,152.5,112.2,152.5,112.2
			C152.5,112.2,152.5,112.2,152.5,112.2z"/>
		<path fill="#F3DADC" d="M152.4,112.6C152.4,112.6,152.4,112.6,152.4,112.6l-0.1,0.1c0,0,0,0.1,0,0.1c0.2,0.6,0.5,0.5,0.5,0.5
			s0.1,0,0.2-0.2C153,112.8,152.5,112.6,152.4,112.6z M152.5,112.9L152.5,112.9L152.5,112.9L152.5,112.9c-0.1-0.1-0.2-0.2-0.2-0.2
			L152.5,112.9C152.5,112.9,152.5,112.9,152.5,112.9C152.5,112.9,152.5,112.9,152.5,112.9z"/>
		<path fill="#F3DADC" d="M152.2,112.4c-0.1,0-0.2,0.1-0.2,0.1c0,0.1,0.1,0.2,0.2,0.2s0.2-0.1,0.2-0.1
			C152.4,112.5,152.3,112.4,152.2,112.4z M152.1,112.6L152.1,112.6C152,112.6,152,112.6,152.1,112.6
			C152,112.6,152.1,112.6,152.1,112.6L152.1,112.6C152.1,112.6,152.1,112.6,152.1,112.6L152.1,112.6L152.1,112.6z M152.1,112.4
			L152.1,112.4C152.1,112.4,152.1,112.4,152.1,112.4C152.1,112.4,152.1,112.4,152.1,112.4C152.2,112.4,152.2,112.4,152.1,112.4
			C152.1,112.4,152.1,112.4,152.1,112.4c0,0,0,0.1,0,0.1L152.1,112.4z M152.3,112.7C152.3,112.7,152.3,112.7,152.3,112.7
			C152.2,112.7,152.2,112.7,152.3,112.7L152.3,112.7c0,0-0.1-0.1-0.1-0.1L152.3,112.7L152.3,112.7L152.3,112.7z M152.3,112.6
			L152.3,112.6L152.3,112.6c0,0-0.1-0.1-0.1-0.1L152.3,112.6L152.3,112.6L152.3,112.6C152.4,112.6,152.4,112.6,152.3,112.6z"/>
	</g>
	<g>
		<path fill="#F3DADC" d="M139.2,115.6C139.2,115.6,139.2,115.6,139.2,115.6c-0.1,0-0.1,0-0.1,0
			C139.1,115.6,139.1,115.6,139.2,115.6C139.2,115.6,139.2,115.6,139.2,115.6L139.2,115.6c0.1,0,0.3,0,0.3,0.1l0,0
			c0-0.1,0-0.1,0-0.1c-0.2-0.3-1.2-0.4-1.1,0.2c0.1,0.6,0.8,0.3,1,0.2c0,0,0-0.1,0.1-0.2v-0.1L139.2,115.6z"/>
		<path fill="#F3DADC" d="M139.7,114.6c0,0-0.3,0-0.5,0.1c-0.3,0.4,0.1,0.7,0.3,0.8c0,0,0.1,0.1,0.2,0l0.1,0.1
			c0-0.1,0.1-0.1,0.1-0.1C140.3,114.8,139.7,114.6,139.7,114.6z M139.7,115.2L139.7,115.2c0-0.1,0-0.1,0-0.1
			C139.7,115.1,139.7,115.1,139.7,115.2C139.8,115.2,139.8,115.2,139.7,115.2L139.7,115.2c0.1,0.1,0,0.4,0,0.4L139.7,115.2z"/>
		<path fill="#F3DADC" d="M139.8,116.1c0,0-0.1,0-0.1-0.1l-0.1,0l-0.1,0.3v0c0,0,0,0,0,0c0,0,0,0,0-0.1c0,0,0,0,0,0l0,0
			c0-0.1,0.1-0.2,0.1-0.3h0c0,0-0.1,0-0.1,0c-0.4,0.2-0.5,0.7-0.5,0.7s0,0.6,0.7,0.3C140,116.8,139.9,116.2,139.8,116.1z"/>
		<path fill="#F3DADC" d="M141.1,115.4c0,0,0-0.4-0.3-0.4c-0.5-0.2-0.8,0.4-0.9,0.6c0,0,0,0,0,0.1l0,0.1c0,0,0.1,0.1,0.1,0.1
			C141.1,115.9,141.1,115.4,141.1,115.4z M140.3,115.3C140.3,115.3,140.2,115.3,140.3,115.3L140.3,115.3c0,0.1-0.3,0.3-0.3,0.3
			L140.3,115.3L140.3,115.3C140.2,115.3,140.2,115.3,140.3,115.3C140.3,115.3,140.3,115.3,140.3,115.3z"/>
		<path fill="#F3DADC" d="M140.1,115.8c0,0-0.1,0-0.1,0l-0.1,0.1c0,0,0,0.1,0,0.1c0.3,0.9,0.8,0.8,0.8,0.8s0.2-0.1,0.3-0.2
			C141.1,116.1,140.3,115.9,140.1,115.8z M140.3,116.3C140.3,116.3,140.2,116.3,140.3,116.3C140.2,116.3,140.2,116.3,140.3,116.3
			L140.3,116.3c-0.2-0.1-0.3-0.4-0.3-0.4L140.3,116.3L140.3,116.3C140.3,116.3,140.3,116.3,140.3,116.3z"/>
		<path fill="#F3DADC" d="M139.8,115.5c-0.1,0-0.3,0.1-0.3,0.2c0,0.1,0.1,0.3,0.2,0.3c0.1,0,0.3-0.1,0.3-0.2
			C140.1,115.6,140,115.5,139.8,115.5z M139.6,115.9L139.6,115.9C139.6,115.9,139.6,115.9,139.6,115.9
			C139.6,115.9,139.6,115.8,139.6,115.9C139.6,115.8,139.6,115.8,139.6,115.9C139.6,115.8,139.7,115.8,139.6,115.9L139.6,115.9
			C139.6,115.8,139.6,115.8,139.6,115.9z M139.7,115.6L139.7,115.6C139.7,115.5,139.7,115.5,139.7,115.6
			C139.7,115.5,139.7,115.6,139.7,115.6C139.7,115.6,139.7,115.6,139.7,115.6L139.7,115.6c0.1,0,0.1,0.1,0.1,0.1L139.7,115.6z
			 M139.9,115.9C139.9,115.9,139.9,115.9,139.9,115.9C139.9,115.9,139.9,115.9,139.9,115.9C139.9,115.9,139.9,115.9,139.9,115.9
			c-0.1,0-0.1-0.2-0.1-0.2L139.9,115.9L139.9,115.9L139.9,115.9L139.9,115.9z M140,115.8C140,115.8,140,115.8,140,115.8
			C140,115.8,140,115.8,140,115.8c-0.1,0-0.2-0.1-0.2-0.1L140,115.8L140,115.8C140,115.8,140,115.8,140,115.8
			C140,115.8,140,115.8,140,115.8z"/>
	</g>
	<g>
		<path fill="#F3DADC" d="M135.8,120.6L135.8,120.6C135.8,120.6,135.8,120.6,135.8,120.6C135.8,120.6,135.8,120.6,135.8,120.6
			C135.8,120.6,135.9,120.6,135.8,120.6L135.8,120.6c0.1,0,0.2,0.2,0.2,0.3l0,0c0-0.1,0.1-0.1,0.1-0.2c0-0.3-0.6-1.2-1-0.5
			c-0.3,0.6,0.4,0.7,0.7,0.8c0,0,0.1-0.1,0.2-0.1l0.1-0.1L135.8,120.6z"/>
		<path fill="#F3DADC" d="M137.1,120c0,0-0.3-0.2-0.5-0.2c-0.5,0.2-0.5,0.7-0.4,0.9c0,0,0,0.1,0.1,0.1v0.1c0.1,0,0.2,0,0.2,0
			C137.3,120.6,137.1,120,137.1,120z M136.5,120.6L136.5,120.6C136.5,120.5,136.6,120.5,136.5,120.6
			C136.6,120.5,136.6,120.5,136.5,120.6C136.6,120.6,136.6,120.6,136.5,120.6L136.5,120.6c0,0.1-0.3,0.4-0.3,0.4L136.5,120.6z"/>
		<path fill="#F3DADC" d="M136,121.4c0,0,0-0.1,0-0.1l-0.1-0.1l-0.3,0.2c0,0,0,0,0,0s-0.1,0-0.1,0c0,0,0,0,0-0.1c0,0,0.1,0,0.1,0
			l0,0c0-0.1,0.2-0.1,0.3-0.2v0c-0.1,0-0.1,0-0.1-0.1c-0.4-0.1-0.9,0.3-0.9,0.3s-0.5,0.5,0.3,0.7C135.6,122.1,135.9,121.5,136,121.4
			z"/>
		<path fill="#F3DADC" d="M137.4,121.6c0,0,0.3-0.4,0.1-0.5c-0.3-0.5-0.9-0.2-1.1-0.1c0,0,0,0-0.1,0.1l0,0.1c0,0,0,0.1,0.1,0.1
			C137.1,122.1,137.4,121.6,137.4,121.6z M136.9,121C136.8,121,136.8,121,136.9,121L136.9,121c-0.2,0.1-0.5,0.1-0.5,0.1L136.9,121
			C136.8,121,136.8,121,136.9,121C136.9,121,136.9,121,136.9,121C136.9,121,136.9,121,136.9,121z"/>
		<path fill="#F3DADC" d="M136.3,121.4c0,0-0.1,0-0.1-0.1l-0.2,0c0,0,0,0.1-0.1,0.1c-0.5,1,0,1.2,0,1.2s0.2,0.1,0.4,0
			C136.9,122.2,136.5,121.5,136.3,121.4z M136.2,121.8C136.2,121.8,136.1,121.8,136.2,121.8c0-0.1,0-0.1,0-0.1l0,0
			c0-0.1,0.1-0.4,0.1-0.4L136.2,121.8C136.2,121.8,136.2,121.8,136.2,121.8C136.2,121.8,136.2,121.8,136.2,121.8z"/>
		<path fill="#F3DADC" d="M136.4,120.9c-0.1-0.1-0.3-0.1-0.4,0s-0.1,0.3,0,0.4c0.1,0.1,0.3,0.1,0.4,0
			C136.5,121.2,136.5,121,136.4,120.9z M136,121.1C136,121.1,136,121.1,136,121.1C135.9,121.1,135.9,121.1,136,121.1
			C136,121,136,121,136,121.1L136,121.1c0,0,0.1,0,0.1,0L136,121.1L136,121.1z M136.2,120.9L136.2,120.9
			C136.2,120.8,136.2,120.8,136.2,120.9C136.2,120.8,136.3,120.9,136.2,120.9C136.3,120.9,136.3,120.9,136.2,120.9
			C136.3,120.9,136.3,120.9,136.2,120.9c0,0.1,0,0.2,0,0.2L136.2,120.9z M136.1,121.3C136.1,121.3,136.1,121.3,136.1,121.3
			C136.1,121.3,136.1,121.3,136.1,121.3L136.1,121.3c0-0.1,0-0.2,0-0.2L136.1,121.3C136.2,121.2,136.2,121.3,136.1,121.3
			C136.2,121.3,136.1,121.3,136.1,121.3z M136.3,121.3C136.3,121.2,136.3,121.2,136.3,121.3C136.3,121.2,136.3,121.2,136.3,121.3
			c0,0-0.1-0.2-0.1-0.2L136.3,121.3L136.3,121.3C136.3,121.2,136.3,121.2,136.3,121.3C136.3,121.2,136.3,121.3,136.3,121.3z"/>
	</g>
	<g>
		<path fill="#F3DADC" d="M140,113.4C140,113.4,140,113.4,140,113.4C140,113.4,140,113.4,140,113.4L140,113.4
			C140,113.3,140,113.3,140,113.4C140,113.3,140,113.3,140,113.4c0,0,0.2-0.1,0.2-0.1l0,0c-0.1,0-0.1-0.1-0.1-0.1
			c-0.2-0.1-0.8,0.2-0.6,0.5c0.3,0.3,0.6-0.1,0.6-0.3c0,0,0-0.1,0-0.1v0L140,113.4z"/>
		<path fill="#F3DADC" d="M139.9,112.5c0,0-0.2,0.1-0.2,0.2c0,0.3,0.3,0.4,0.4,0.4c0,0,0.1,0,0.1-0.1h0.1c0,0,0-0.1,0-0.1
			C140.4,112.5,139.9,112.5,139.9,112.5z M140.2,112.9C140.1,112.9,140.1,112.9,140.2,112.9C140.1,112.9,140.1,112.9,140.2,112.9
			L140.2,112.9C140.2,112.9,140.2,112.9,140.2,112.9L140.2,112.9c0.1,0,0.2,0.2,0.2,0.2L140.2,112.9z"/>
		<path fill="#F3DADC" d="M140.5,113.4C140.5,113.4,140.5,113.4,140.5,113.4l-0.1,0l0,0.2l0,0v0c0,0,0,0,0,0v0l0,0c0,0,0-0.1,0-0.2
			h0c0,0-0.1,0-0.1,0.1c-0.2,0.3,0,0.6,0,0.6s0.2,0.4,0.5,0C140.9,113.7,140.6,113.5,140.5,113.4z"/>
		<path fill="#F3DADC" d="M141.1,112.6c0,0-0.2-0.2-0.3-0.2c-0.4,0.1-0.3,0.5-0.3,0.6c0,0,0,0,0,0.1l0.1,0h0.1
			C141.2,112.9,141.1,112.6,141.1,112.6z M140.5,112.8L140.5,112.8L140.5,112.8c0,0.1,0,0.3,0,0.3L140.5,112.8
			C140.5,112.9,140.5,112.9,140.5,112.8L140.5,112.8C140.5,112.8,140.5,112.8,140.5,112.8z"/>
		<path fill="#F3DADC" d="M140.6,113.2C140.6,113.2,140.6,113.2,140.6,113.2l-0.1,0.1c0,0,0,0,0,0.1c0.5,0.4,0.7,0.2,0.7,0.2
			s0.1-0.1,0.1-0.2C141.3,113,140.8,113.2,140.6,113.2z M140.9,113.4C140.9,113.4,140.9,113.4,140.9,113.4
			C140.8,113.4,140.8,113.4,140.9,113.4L140.9,113.4c-0.1,0-0.3-0.1-0.3-0.1L140.9,113.4C140.9,113.3,140.9,113.3,140.9,113.4
			C140.9,113.3,140.9,113.4,140.9,113.4z"/>
		<path fill="#F3DADC" d="M140.3,113.1c-0.1,0-0.1,0.1-0.1,0.2c0,0.1,0.1,0.1,0.2,0.1c0.1,0,0.1-0.1,0.1-0.2
			C140.5,113.1,140.4,113,140.3,113.1z M140.4,113.3C140.4,113.4,140.4,113.4,140.4,113.3C140.3,113.4,140.3,113.4,140.4,113.3
			C140.3,113.3,140.3,113.3,140.4,113.3L140.4,113.3C140.4,113.3,140.4,113.3,140.4,113.3L140.4,113.3L140.4,113.3z M140.3,113.2
			C140.3,113.2,140.3,113.2,140.3,113.2C140.3,113.2,140.3,113.1,140.3,113.2C140.3,113.1,140.3,113.1,140.3,113.2
			C140.3,113.1,140.3,113.1,140.3,113.2L140.3,113.2c0.1,0,0.1,0.1,0.1,0.1L140.3,113.2z M140.5,113.3
			C140.5,113.3,140.5,113.3,140.5,113.3C140.5,113.3,140.5,113.3,140.5,113.3L140.5,113.3c-0.1,0-0.1-0.1-0.1-0.1L140.5,113.3
			C140.5,113.3,140.5,113.3,140.5,113.3C140.5,113.3,140.5,113.3,140.5,113.3z M140.5,113.2L140.5,113.2L140.5,113.2
			c0,0-0.1,0-0.1,0H140.5L140.5,113.2L140.5,113.2L140.5,113.2z"/>
	</g>
	<g>
		<path fill="#F0BCC8" d="M154.1,118.4C154.1,118.4,154.1,118.4,154.1,118.4c0,0-0.1,0-0.1,0c0,0,0,0,0-0.1
			C154.1,118.4,154.1,118.4,154.1,118.4L154.1,118.4c0-0.1,0.3-0.1,0.3-0.1l0,0c-0.1-0.1-0.1-0.1-0.1-0.1c-0.3-0.1-1.3,0.3-0.8,0.8
			c0.4,0.5,0.8-0.2,0.9-0.4c0,0,0-0.1,0-0.2l0-0.1L154.1,118.4z"/>
		<path fill="#F0BCC8" d="M153.9,117.1c0,0-0.3,0.2-0.3,0.4c0,0.5,0.5,0.6,0.7,0.6c0,0,0.1,0,0.1-0.1h0.1c0-0.1,0-0.2,0-0.2
			C154.6,117.1,153.9,117.1,153.9,117.1z M154.3,117.7L154.3,117.7C154.2,117.7,154.2,117.7,154.3,117.7
			C154.2,117.6,154.2,117.6,154.3,117.7C154.3,117.7,154.3,117.7,154.3,117.7L154.3,117.7c0.1,0,0.3,0.3,0.3,0.3L154.3,117.7z"/>
		<path fill="#F0BCC8" d="M154.8,118.5c0,0-0.1,0-0.1,0l-0.1,0l0,0.3c0,0,0,0,0,0c0,0,0,0.1,0,0.1c0,0,0,0,0,0c0,0,0-0.1,0-0.1l0,0
			c0-0.1,0-0.2,0-0.3h0c0,0-0.1,0.1-0.1,0.1c-0.2,0.4,0,0.8,0,0.8s0.3,0.5,0.7,0C155.3,119,154.9,118.6,154.8,118.5z"/>
		<path fill="#F0BCC8" d="M155.5,117.3c0,0-0.2-0.3-0.4-0.3c-0.6,0.1-0.5,0.8-0.4,0.9c0,0,0,0,0,0.1l0.1,0.1h0.1
			C155.8,117.7,155.5,117.3,155.5,117.3z M154.8,117.6C154.8,117.6,154.8,117.6,154.8,117.6L154.8,117.6c0,0.2,0,0.4,0,0.4
			L154.8,117.6C154.8,117.6,154.8,117.6,154.8,117.6C154.8,117.5,154.8,117.5,154.8,117.6C154.8,117.5,154.8,117.5,154.8,117.6z"/>
		<path fill="#F0BCC8" d="M154.9,118.1c0,0,0,0.1-0.1,0.1l0,0.2c0,0,0.1,0.1,0,0.1c0.8,0.7,1.1,0.3,1.1,0.3s0.2-0.2,0.1-0.3
			C155.8,117.8,155.1,118,154.9,118.1z M155.3,118.4C155.3,118.4,155.3,118.5,155.3,118.4c-0.1,0-0.1,0-0.1,0l0,0
			c-0.1,0-0.3-0.2-0.3-0.2L155.3,118.4L155.3,118.4C155.3,118.4,155.3,118.4,155.3,118.4z"/>
		<path fill="#F0BCC8" d="M154.5,118c-0.1,0.1-0.2,0.2-0.1,0.3c0.1,0.1,0.2,0.2,0.3,0.1s0.2-0.2,0.1-0.3
			C154.8,117.9,154.6,117.9,154.5,118z M154.6,118.4C154.6,118.4,154.6,118.4,154.6,118.4C154.5,118.4,154.5,118.4,154.6,118.4
			C154.5,118.4,154.5,118.4,154.6,118.4L154.6,118.4c0,0,0-0.1,0-0.1V118.4C154.5,118.4,154.6,118.4,154.6,118.4z M154.4,118.1
			L154.4,118.1C154.4,118.1,154.4,118.1,154.4,118.1C154.4,118,154.4,118,154.4,118.1C154.5,118,154.5,118,154.4,118.1
			C154.5,118.1,154.5,118.1,154.4,118.1c0.1,0,0.1,0.1,0.1,0.1L154.4,118.1z M154.8,118.3C154.8,118.3,154.8,118.3,154.8,118.3
			C154.8,118.3,154.8,118.3,154.8,118.3L154.8,118.3c-0.1,0-0.2-0.1-0.2-0.1L154.8,118.3L154.8,118.3
			C154.8,118.3,154.8,118.3,154.8,118.3z M154.8,118.2C154.8,118.2,154.8,118.2,154.8,118.2L154.8,118.2c0,0-0.2,0-0.2,0H154.8
			C154.8,118.2,154.8,118.1,154.8,118.2C154.8,118.1,154.8,118.1,154.8,118.2C154.8,118.1,154.8,118.2,154.8,118.2z"/>
	</g>
</g>
<g>
	<path fill="#F1BBC8" d="M29.3,116.7c0,0-0.1,0-0.1,0c-0.1,0-0.1,0-0.2,0.1c0,0,0,0.1,0.1,0.1C29.2,116.8,29.3,116.8,29.3,116.7
		C29.3,116.7,29.3,116.7,29.3,116.7c0.2,0.1,0.8-0.1,1-0.1l0,0c-0.1,0.2-0.1,0.4-0.1,0.4c-0.6,0.7-3.5,0.9-3.1-0.8
		c0.4-1.6,2.3-0.6,2.9-0.3c0,0,0,0.2,0.3,0.4v0.2L29.3,116.7z"/>
	<path fill="#F1BBC8" d="M31.2,117.2c0,0-0.3-0.2-0.3-0.3l-0.2,0.2c-0.2-0.2-0.4,0-0.5,0c-0.4,0.2-1.6,1-0.9,2.3
		c0.3,0.5,1.3,0.5,1.3,0.5S32.2,119.2,31.2,117.2z M30.8,117c0,0,0,0.8-0.2,1.1c0,0,0,0,0,0s0,0.1,0,0.2c0,0.1-0.1,0.1-0.1,0.1
		c0,0,0-0.1,0-0.2c0,0,0-0.1,0.1-0.1L30.8,117z"/>
	<path fill="#F1BBC8" d="M31.1,115.6c0,0-0.2,0.1-0.2,0.2l-0.3,0.1l-0.3-0.8c0,0,0-0.1,0-0.1c0-0.1,0-0.1-0.1-0.1
		c-0.1,0-0.1,0.1-0.1,0.2c0,0.1,0,0.1,0.1,0.1c0,0,0,0,0,0c0,0.2,0.2,0.6,0.3,0.8h-0.1c-0.1-0.1-0.3-0.1-0.3-0.1
		c-1.1-0.6-1.2-2-1.2-2s0.1-1.8,1.9-0.8C31.7,113.8,31.2,115.2,31.1,115.6z"/>
	<path fill="#F1BBC8" d="M31.7,116.4c0,0-0.3,0.2-0.4,0.1l-0.1,0.3c0.1,0.1,0,0.2,0,0.2c0.1,0.4,0.7,2.2,2.3,1.8
		c0.6-0.1,0.8-1.2,0.8-1.2S34.5,116.2,31.7,116.4z M32.1,117.9c0,0-0.1,0-0.1-0.1c0,0,0-0.1,0-0.1l-0.6-0.9c0,0,0.6,0.6,0.6,0.9l0,0
		c0,0,0.1,0,0.1,0.1C32.1,117.8,32.1,117.9,32.1,117.9z"/>
	<path fill="#F1BBC8" d="M34.1,114.3c-0.2-0.5-0.7-0.7-0.7-0.7s-1.2-0.5-2.2,2c0.1,0.1,0.1,0.4,0,0.3l0.3,0.3c0.1-0.1,0.3,0,0.3,0
		C32.2,116.2,34.5,115.7,34.1,114.3z M32.2,115.3c0,0-0.1,0-0.1,0l-0.7,0.8c0,0,0.4-0.7,0.7-0.8l0,0c0,0,0-0.1,0.1-0.2
		c0.1,0,0.1,0,0.2,0C32.3,115.2,32.3,115.2,32.2,115.3z"/>
	<path fill="#F1BBC8" d="M31.6,116.5c0-0.4-0.3-0.7-0.7-0.7s-0.7,0.3-0.7,0.7c0,0.4,0.3,0.7,0.7,0.7
		C31.3,117.2,31.6,116.9,31.6,116.5z M30.4,116.2l0.2,0.2C30.6,116.4,30.4,116.3,30.4,116.2C30.4,116.2,30.4,116.2,30.4,116.2
		c-0.1,0-0.1,0-0.1,0S30.3,116.1,30.4,116.2C30.4,116.1,30.4,116.1,30.4,116.2L30.4,116.2z M30.8,116.6c0,0,0,0.3-0.2,0.4
		c0,0,0,0,0,0s0,0,0,0s-0.1,0-0.1,0s0,0,0,0c0,0,0,0,0.1,0L30.8,116.6z M31.2,116.1L31.2,116.1l-0.3,0.3
		C30.9,116.5,31,116.1,31.2,116.1L31.2,116.1L31.2,116.1C31.1,116,31.2,116,31.2,116.1C31.2,116.1,31.2,116.1,31.2,116.1z
		 M31.5,116.4C31.5,116.4,31.4,116.5,31.5,116.4L31.5,116.4l-0.5,0.2C31,116.6,31.3,116.4,31.5,116.4L31.5,116.4
		C31.4,116.4,31.4,116.4,31.5,116.4C31.5,116.4,31.5,116.4,31.5,116.4z"/>
	<g>
		<path fill="#F0BCC8" d="M41.5,116.6C41.5,116.6,41.5,116.6,41.5,116.6C41.5,116.6,41.5,116.6,41.5,116.6
			C41.5,116.6,41.5,116.6,41.5,116.6C41.5,116.6,41.5,116.6,41.5,116.6L41.5,116.6c0.1,0,0.2,0,0.2,0l0,0c0,0,0,0.1,0,0.1
			c-0.2,0.2-0.8,0.2-0.7-0.2c0.1-0.4,0.6-0.1,0.7-0.1c0,0,0,0,0.1,0.1v0L41.5,116.6z"/>
		<path fill="#F0BCC8" d="M42,116.7C42,116.7,41.9,116.7,42,116.7l-0.1,0c0,0-0.1,0-0.1,0c-0.1,0-0.4,0.2-0.2,0.6
			c0.1,0.1,0.3,0.1,0.3,0.1S42.2,117.2,42,116.7z M41.8,116.7c0,0,0,0.2,0,0.3l0,0c0,0,0,0,0,0c0,0,0,0,0,0c0,0,0,0,0,0l0,0
			L41.8,116.7z"/>
		<path fill="#F0BCC8" d="M41.9,116.3C41.9,116.3,41.9,116.3,41.9,116.3l-0.1,0l-0.1-0.2c0,0,0,0,0,0v0c0,0,0,0,0,0v0l0,0
			c0,0,0,0.1,0.1,0.2l0,0h-0.1c-0.3-0.2-0.3-0.5-0.3-0.5s0-0.4,0.5-0.2C42.1,115.9,42,116.3,41.9,116.3z"/>
		<path fill="#F0BCC8" d="M42.1,116.5L42.1,116.5l-0.1,0.1v0c0,0.1,0.2,0.6,0.6,0.4c0.2,0,0.2-0.3,0.2-0.3S42.8,116.5,42.1,116.5z
			 M42.2,116.9C42.2,116.9,42.2,116.9,42.2,116.9C42.2,116.9,42.2,116.9,42.2,116.9l-0.2-0.3c0,0,0.1,0.1,0.2,0.2l0,0
			C42.2,116.8,42.2,116.8,42.2,116.9C42.2,116.9,42.2,116.9,42.2,116.9z"/>
		<path fill="#F0BCC8" d="M42.7,116c0-0.1-0.2-0.2-0.2-0.2s-0.3-0.1-0.6,0.5c0,0,0,0.1,0,0.1l0.1,0.1c0,0,0.1,0,0.1,0
			C42.2,116.5,42.8,116.4,42.7,116z M42.2,116.3C42.2,116.3,42.2,116.3,42.2,116.3l-0.2,0.2C42,116.5,42.1,116.3,42.2,116.3
			L42.2,116.3C42.2,116.3,42.2,116.3,42.2,116.3L42.2,116.3L42.2,116.3z"/>
		<path fill="#F0BCC8" d="M42.1,116.6c0-0.1-0.1-0.2-0.2-0.2c-0.1,0-0.2,0.1-0.2,0.2s0.1,0.2,0.2,0.2
			C42,116.7,42.1,116.7,42.1,116.6z M41.8,116.5L41.8,116.5C41.8,116.6,41.8,116.5,41.8,116.5C41.7,116.5,41.7,116.5,41.8,116.5
			C41.7,116.5,41.7,116.5,41.8,116.5C41.7,116.5,41.7,116.5,41.8,116.5C41.7,116.5,41.8,116.5,41.8,116.5L41.8,116.5z M41.8,116.6
			C41.8,116.6,41.8,116.7,41.8,116.6L41.8,116.6L41.8,116.6C41.8,116.7,41.8,116.7,41.8,116.6L41.8,116.6L41.8,116.6L41.8,116.6z
			 M42,116.5L42,116.5L42,116.5C41.9,116.6,41.9,116.5,42,116.5L42,116.5C41.9,116.5,41.9,116.5,42,116.5L42,116.5L42,116.5z
			 M42,116.6L42,116.6L42,116.6l-0.1,0C41.9,116.6,42,116.6,42,116.6L42,116.6C42,116.5,42,116.5,42,116.6
			C42,116.5,42,116.5,42,116.6z"/>
	</g>
	<g>
		<path fill="#F0BCC8" d="M16,110.7C16,110.6,16,110.6,16,110.7C16,110.7,15.9,110.7,16,110.7C15.9,110.7,15.9,110.7,16,110.7
			C16,110.7,16,110.7,16,110.7L16,110.7c0.1,0,0.2,0,0.3,0l0,0c0,0.1,0,0.1,0,0.1c-0.2,0.2-1,0.3-0.8-0.2c0.1-0.5,0.7-0.2,0.8-0.1
			c0,0,0,0.1,0.1,0.1v0L16,110.7z"/>
		<path fill="#F0BCC8" d="M16.6,110.8c0,0-0.1,0-0.1-0.1l-0.1,0c-0.1,0-0.1,0-0.1,0c-0.1,0.1-0.4,0.3-0.3,0.7
			c0.1,0.1,0.3,0.1,0.3,0.1S16.8,111.4,16.6,110.8z M16.4,110.8c0,0,0,0.2,0,0.3l0,0v0c0,0,0,0,0,0v0l0,0L16.4,110.8z"/>
		<path fill="#F0BCC8" d="M16.5,110.3C16.5,110.3,16.5,110.4,16.5,110.3l-0.1,0.1l-0.1-0.2c0,0,0,0,0,0c0,0,0,0,0,0s0,0,0,0
			c0,0,0,0,0,0l0,0c0,0,0,0.2,0.1,0.2h0c0,0-0.1,0-0.1,0c-0.3-0.2-0.3-0.6-0.3-0.6s0-0.5,0.6-0.2C16.7,109.8,16.6,110.2,16.5,110.3z
			"/>
		<path fill="#F0BCC8" d="M16.7,110.6c0,0-0.1,0-0.1,0l0,0.1v0.1c0,0.1,0.2,0.7,0.7,0.5c0.2,0,0.2-0.3,0.2-0.3
			S17.5,110.5,16.7,110.6z M16.8,111C16.8,111,16.8,111,16.8,111C16.8,111,16.8,111,16.8,111l-0.2-0.3
			C16.6,110.7,16.8,110.9,16.8,111L16.8,111C16.8,111,16.8,111,16.8,111L16.8,111z"/>
		<path fill="#F0BCC8" d="M17.4,109.9c0-0.1-0.2-0.2-0.2-0.2s-0.3-0.2-0.6,0.6c0,0,0,0.1,0,0.1l0.1,0.1c0,0,0.1,0,0.1,0
			C16.8,110.5,17.5,110.4,17.4,109.9z M16.8,110.2C16.8,110.3,16.8,110.3,16.8,110.2l-0.2,0.3C16.6,110.5,16.7,110.3,16.8,110.2
			C16.8,110.2,16.8,110.2,16.8,110.2L16.8,110.2L16.8,110.2C16.9,110.2,16.9,110.2,16.8,110.2z"/>
		<path fill="#F0BCC8" d="M16.7,110.6c0-0.1-0.1-0.2-0.2-0.2s-0.2,0.1-0.2,0.2c0,0.1,0.1,0.2,0.2,0.2
			C16.6,110.8,16.7,110.7,16.7,110.6z M16.3,110.5L16.3,110.5C16.4,110.6,16.3,110.6,16.3,110.5L16.3,110.5
			C16.3,110.5,16.3,110.5,16.3,110.5C16.3,110.5,16.3,110.5,16.3,110.5C16.3,110.5,16.3,110.5,16.3,110.5L16.3,110.5z M16.5,110.6
			c0,0,0,0.1,0,0.1l0,0l0,0h0l0,0l0,0L16.5,110.6z M16.6,110.5L16.6,110.5l-0.1,0.1C16.5,110.6,16.5,110.5,16.6,110.5L16.6,110.5
			C16.5,110.5,16.5,110.5,16.6,110.5L16.6,110.5C16.6,110.4,16.6,110.5,16.6,110.5z M16.6,110.6C16.6,110.6,16.6,110.6,16.6,110.6
			C16.6,110.6,16.6,110.6,16.6,110.6l-0.2,0C16.5,110.6,16.6,110.6,16.6,110.6L16.6,110.6C16.6,110.6,16.6,110.6,16.6,110.6
			L16.6,110.6z"/>
	</g>
	<g>
		<path fill="#F0BCC8" d="M19.1,112.7C19.1,112.7,19.1,112.7,19.1,112.7C19.1,112.7,19,112.7,19.1,112.7
			C19,112.7,19,112.8,19.1,112.7C19.1,112.8,19.1,112.7,19.1,112.7L19.1,112.7c0.1,0,0.2,0,0.3,0l0,0c0,0.1,0,0.1,0,0.1
			c-0.2,0.2-1,0.3-0.8-0.2c0.1-0.5,0.7-0.2,0.8-0.1c0,0,0,0.1,0.1,0.1v0L19.1,112.7z"/>
		<path fill="#F0BCC8" d="M19.7,112.9c0,0-0.1,0-0.1-0.1l-0.1,0c-0.1,0-0.1,0-0.1,0c-0.1,0.1-0.4,0.3-0.3,0.7
			c0.1,0.1,0.3,0.1,0.3,0.1S20,113.5,19.7,112.9z M19.6,112.8c0,0,0,0.2,0,0.3l0,0v0c0,0,0,0,0,0v0l0,0L19.6,112.8z"/>
		<path fill="#F0BCC8" d="M19.6,112.4C19.6,112.4,19.6,112.5,19.6,112.4l-0.1,0.1l-0.1-0.2c0,0,0,0,0,0c0,0,0,0,0,0c0,0,0,0,0,0
			c0,0,0,0,0,0l0,0c0,0,0,0.2,0.1,0.2h0c0,0-0.1,0-0.1,0c-0.3-0.2-0.3-0.6-0.3-0.6s0-0.5,0.6-0.2C19.8,111.9,19.7,112.3,19.6,112.4z
			"/>
		<path fill="#F0BCC8" d="M19.8,112.6c0,0-0.1,0-0.1,0l0,0.1v0.1c0,0.1,0.2,0.7,0.7,0.5c0.2,0,0.2-0.3,0.2-0.3
			S20.6,112.6,19.8,112.6z M19.9,113.1C19.9,113.1,19.9,113.1,19.9,113.1C19.9,113.1,19.9,113.1,19.9,113.1l-0.2-0.3
			C19.7,112.8,19.9,113,19.9,113.1L19.9,113.1C19.9,113.1,20,113.1,19.9,113.1C19.9,113.1,19.9,113.1,19.9,113.1z"/>
		<path fill="#F0BCC8" d="M20.5,112c0-0.1-0.2-0.2-0.2-0.2s-0.3-0.2-0.6,0.6c0,0,0,0.1,0,0.1l0.1,0.1c0,0,0.1,0,0.1,0
			C20,112.6,20.6,112.5,20.5,112z M20,112.3C19.9,112.3,19.9,112.3,20,112.3l-0.2,0.3C19.7,112.6,19.8,112.4,20,112.3
			C19.9,112.3,19.9,112.3,20,112.3L20,112.3L20,112.3C20,112.3,20,112.3,20,112.3z"/>
		<path fill="#F0BCC8" d="M19.8,112.7c0-0.1-0.1-0.2-0.2-0.2s-0.2,0.1-0.2,0.2c0,0.1,0.1,0.2,0.2,0.2S19.8,112.8,19.8,112.7z
			 M19.5,112.6L19.5,112.6C19.5,112.7,19.5,112.6,19.5,112.6L19.5,112.6C19.5,112.6,19.4,112.6,19.5,112.6
			C19.4,112.6,19.5,112.6,19.5,112.6L19.5,112.6L19.5,112.6z M19.6,112.7c0,0,0,0.1,0,0.1l0,0l0,0h0l0,0l0,0L19.6,112.7z
			 M19.7,112.6L19.7,112.6l-0.1,0.1C19.6,112.7,19.6,112.6,19.7,112.6L19.7,112.6C19.7,112.6,19.7,112.6,19.7,112.6
			C19.7,112.6,19.7,112.6,19.7,112.6L19.7,112.6z M19.8,112.7C19.8,112.7,19.7,112.7,19.8,112.7C19.7,112.7,19.7,112.7,19.8,112.7
			l-0.2,0C19.6,112.7,19.7,112.7,19.8,112.7L19.8,112.7C19.7,112.6,19.7,112.6,19.8,112.7C19.8,112.6,19.8,112.7,19.8,112.7z"/>
	</g>
	<g>
		<path fill="#F3DADC" d="M37,116.3C37,116.3,37,116.3,37,116.3c-0.1,0-0.1,0-0.1,0C36.9,116.4,36.9,116.4,37,116.3
			C37,116.4,37,116.4,37,116.3L37,116.3c0.1,0,0.3,0,0.4-0.1l0,0c0,0.1,0,0.2,0,0.2c-0.3,0.3-1.5,0.4-1.4-0.3c0.2-0.7,1-0.3,1.3-0.1
			c0,0,0,0.1,0.1,0.2v0.1L37,116.3z"/>
		<path fill="#F3DADC" d="M37.8,116.6c0,0-0.1-0.1-0.2-0.2l-0.1,0.1c-0.1-0.1-0.2,0-0.2,0c-0.2,0.1-0.7,0.4-0.4,1
			c0.1,0.2,0.5,0.2,0.5,0.2S38.3,117.5,37.8,116.6z M37.6,116.5c0,0,0,0.4-0.1,0.5l0,0c0,0,0,0,0,0.1c0,0,0,0-0.1,0c0,0,0,0,0-0.1
			c0,0,0,0,0,0L37.6,116.5z"/>
		<path fill="#F3DADC" d="M37.8,115.9c0,0-0.1,0-0.1,0.1l-0.1,0l-0.1-0.4v0c0,0,0-0.1,0-0.1c0,0,0,0,0,0.1s0,0.1,0,0.1l0,0
			c0,0.1,0.1,0.2,0.1,0.3h0c0,0-0.1,0-0.1,0c-0.5-0.3-0.5-0.9-0.5-0.9s0-0.8,0.8-0.4C38,115.1,37.8,115.7,37.8,115.9z"/>
		<path fill="#F3DADC" d="M38,116.2c0,0-0.1,0.1-0.2,0l0,0.1c0,0,0,0.1,0,0.1c0,0.2,0.3,1,1,0.8c0.3,0,0.3-0.5,0.3-0.5
			S39.3,116.1,38,116.2z M38.2,116.9C38.2,116.9,38.2,116.9,38.2,116.9L38.2,116.9l-0.3-0.5c0,0,0.3,0.2,0.3,0.4l0,0
			C38.2,116.8,38.2,116.8,38.2,116.9C38.3,116.9,38.2,116.9,38.2,116.9z"/>
		<path fill="#F3DADC" d="M39.1,115.3c-0.1-0.2-0.3-0.3-0.3-0.3s-0.5-0.2-1,0.9c0,0,0,0.2,0,0.1l0.1,0.1c0.1,0,0.1,0,0.1,0
			C38.3,116.1,39.3,115.9,39.1,115.3z M38.3,115.7L38.3,115.7l-0.3,0.4C37.9,116.1,38.1,115.8,38.3,115.7L38.3,115.7
			C38.2,115.7,38.2,115.7,38.3,115.7C38.3,115.7,38.3,115.7,38.3,115.7C38.3,115.7,38.3,115.7,38.3,115.7z"/>
		<path fill="#F3DADC" d="M38,116.3c0-0.2-0.1-0.3-0.3-0.3s-0.3,0.1-0.3,0.3c0,0.2,0.1,0.3,0.3,0.3C37.9,116.6,38,116.4,38,116.3z
			 M37.5,116.1l0.1,0.1C37.6,116.3,37.5,116.2,37.5,116.1C37.5,116.2,37.5,116.2,37.5,116.1C37.5,116.1,37.5,116.1,37.5,116.1
			C37.4,116.1,37.5,116.1,37.5,116.1C37.5,116.1,37.5,116.1,37.5,116.1L37.5,116.1z M37.6,116.3c0,0,0,0.1-0.1,0.2l0,0l0,0
			c0,0,0,0-0.1,0l0,0c0,0,0,0,0,0L37.6,116.3z M37.8,116.1C37.8,116.1,37.8,116.1,37.8,116.1l-0.1,0.1
			C37.7,116.3,37.7,116.1,37.8,116.1L37.8,116.1C37.8,116.1,37.8,116.1,37.8,116.1C37.8,116.1,37.8,116.1,37.8,116.1
			C37.8,116.1,37.8,116.1,37.8,116.1z M37.9,116.3L37.9,116.3C37.9,116.3,37.9,116.3,37.9,116.3l-0.2,0.1
			C37.7,116.3,37.9,116.3,37.9,116.3L37.9,116.3C37.9,116.3,37.9,116.3,37.9,116.3C37.9,116.2,37.9,116.3,37.9,116.3z"/>
	</g>
	<g>
		<path fill="#F3DADC" d="M35.5,109.7C35.5,109.7,35.5,109.7,35.5,109.7C35.5,109.7,35.5,109.7,35.5,109.7
			C35.4,109.8,35.5,109.8,35.5,109.7C35.5,109.8,35.5,109.8,35.5,109.7C35.5,109.8,35.5,109.8,35.5,109.7c0.1,0,0.2,0,0.3,0l0,0
			c0,0.1,0,0.1,0,0.1c-0.2,0.2-1,0.3-0.9-0.2c0.1-0.5,0.7-0.2,0.8-0.1c0,0,0,0.1,0.1,0.1v0L35.5,109.7z"/>
		<path fill="#F3DADC" d="M36.1,109.9c0,0-0.1,0-0.1-0.1l-0.1,0c-0.1,0-0.1,0-0.1,0c-0.1,0.1-0.5,0.3-0.3,0.7
			c0.1,0.1,0.4,0.1,0.4,0.1S36.4,110.5,36.1,109.9z M36,109.9c0,0,0,0.2,0,0.3l0,0v0c0,0,0,0,0,0s0,0,0,0l0,0L36,109.9z"/>
		<path fill="#F3DADC" d="M36,109.5C36,109.5,36,109.5,36,109.5l-0.1,0.1l-0.1-0.2c0,0,0,0,0,0c0,0,0,0,0,0s0,0,0,0c0,0,0,0,0,0l0,0
			c0,0,0,0.2,0.1,0.2h0c0,0-0.1,0-0.1,0c-0.3-0.2-0.3-0.6-0.3-0.6s0-0.5,0.6-0.2C36.3,108.9,36.1,109.4,36,109.5z"/>
		<path fill="#F3DADC" d="M36.3,109.7c0,0-0.1,0-0.1,0l0,0.1v0.1c0,0.1,0.2,0.7,0.7,0.5c0.2,0,0.2-0.3,0.2-0.3
			S37.1,109.6,36.3,109.7z M36.4,110.1C36.4,110.1,36.3,110.1,36.4,110.1C36.3,110.1,36.3,110.1,36.4,110.1l-0.2-0.3
			C36.1,109.8,36.3,110,36.4,110.1L36.4,110.1C36.4,110.1,36.4,110.1,36.4,110.1C36.4,110.1,36.4,110.1,36.4,110.1z"/>
		<path fill="#F3DADC" d="M37,109.1c0-0.1-0.2-0.2-0.2-0.2s-0.4-0.2-0.7,0.6c0,0,0,0.1,0,0.1l0.1,0.1c0,0,0.1,0,0.1,0
			C36.4,109.6,37.1,109.5,37,109.1z M36.4,109.4C36.4,109.4,36.4,109.4,36.4,109.4l-0.2,0.2C36.1,109.6,36.3,109.4,36.4,109.4
			L36.4,109.4L36.4,109.4L36.4,109.4C36.4,109.3,36.4,109.4,36.4,109.4z"/>
		<path fill="#F3DADC" d="M36.2,109.7c0-0.1-0.1-0.2-0.2-0.2c-0.1,0-0.2,0.1-0.2,0.2c0,0.1,0.1,0.2,0.2,0.2
			C36.1,109.9,36.2,109.8,36.2,109.7z M35.9,109.6L35.9,109.6C35.9,109.7,35.9,109.6,35.9,109.6L35.9,109.6
			C35.9,109.6,35.8,109.6,35.9,109.6L35.9,109.6C35.9,109.6,35.9,109.6,35.9,109.6C35.9,109.6,35.9,109.6,35.9,109.6z M36,109.7
			c0,0,0,0.1,0,0.1l0,0l0,0h0l0,0l0,0L36,109.7z M36.1,109.6L36.1,109.6l-0.1,0.1C36,109.7,36,109.6,36.1,109.6L36.1,109.6
			L36.1,109.6L36.1,109.6L36.1,109.6z M36.2,109.7C36.2,109.7,36.1,109.7,36.2,109.7C36.1,109.7,36.1,109.7,36.2,109.7l-0.2,0
			C36,109.7,36.1,109.7,36.2,109.7L36.2,109.7C36.1,109.7,36.1,109.7,36.2,109.7C36.2,109.7,36.2,109.7,36.2,109.7z"/>
	</g>
	<g>
		<path fill="#F3DADC" d="M21.6,118.7C21.6,118.7,21.6,118.7,21.6,118.7c-0.1,0-0.1,0-0.1,0C21.5,118.7,21.5,118.7,21.6,118.7
			C21.6,118.7,21.6,118.7,21.6,118.7L21.6,118.7c0.1,0,0.3,0,0.4-0.1l0,0c0,0.1,0,0.2,0,0.2c-0.3,0.3-1.5,0.4-1.4-0.3
			c0.2-0.7,1-0.3,1.3-0.1c0,0,0,0.1,0.1,0.2v0.1L21.6,118.7z"/>
		<path fill="#F3DADC" d="M22.5,118.9c0,0-0.1-0.1-0.2-0.2l-0.1,0.1c-0.1-0.1-0.2,0-0.2,0c-0.2,0.1-0.7,0.4-0.4,1
			c0.1,0.2,0.5,0.2,0.5,0.2S22.9,119.8,22.5,118.9z M22.3,118.8c0,0,0,0.4-0.1,0.5l0,0c0,0,0,0,0,0.1c0,0,0,0-0.1,0c0,0,0,0,0-0.1
			c0,0,0,0,0,0L22.3,118.8z"/>
		<path fill="#F3DADC" d="M22.4,118.2c0,0-0.1,0-0.1,0.1l-0.1,0l-0.1-0.4v0c0,0,0-0.1,0-0.1c0,0,0,0,0,0.1c0,0,0,0.1,0,0.1l0,0
			c0,0.1,0.1,0.2,0.1,0.3h0c0,0-0.1,0-0.1,0c-0.5-0.3-0.5-0.9-0.5-0.9s0-0.8,0.8-0.4C22.7,117.4,22.5,118,22.4,118.2z"/>
		<path fill="#F3DADC" d="M22.7,118.5c0,0-0.1,0.1-0.2,0l0,0.1c0,0,0,0.1,0,0.1c0,0.2,0.3,1,1,0.8c0.3,0,0.3-0.5,0.3-0.5
			S23.9,118.5,22.7,118.5z M22.8,119.2C22.8,119.2,22.8,119.2,22.8,119.2L22.8,119.2l-0.3-0.5c0,0,0.3,0.2,0.3,0.4l0,0
			C22.8,119.1,22.8,119.1,22.8,119.2C22.9,119.2,22.9,119.2,22.8,119.2z"/>
		<path fill="#F3DADC" d="M23.7,117.6c-0.1-0.2-0.3-0.3-0.3-0.3s-0.5-0.2-1,0.9c0,0,0,0.2,0,0.1l0.1,0.1c0.1,0,0.1,0,0.1,0
			C22.9,118.5,23.9,118.3,23.7,117.6z M22.9,118L22.9,118l-0.3,0.4C22.6,118.4,22.7,118.1,22.9,118L22.9,118
			C22.9,118,22.9,118,22.9,118C23,118,23,118,22.9,118C23,118,22.9,118,22.9,118z"/>
		<path fill="#F3DADC" d="M22.6,118.6c0-0.2-0.1-0.3-0.3-0.3s-0.3,0.1-0.3,0.3s0.1,0.3,0.3,0.3C22.5,118.9,22.6,118.7,22.6,118.6z
			 M22.1,118.5l0.1,0.1C22.2,118.6,22.1,118.5,22.1,118.5C22.1,118.5,22.1,118.5,22.1,118.5C22.1,118.5,22.1,118.5,22.1,118.5
			C22.1,118.5,22.1,118.5,22.1,118.5C22.1,118.4,22.1,118.5,22.1,118.5L22.1,118.5z M22.3,118.6c0,0,0,0.1-0.1,0.2l0,0l0,0
			c0,0,0,0-0.1,0l0,0c0,0,0,0,0,0L22.3,118.6z M22.5,118.4C22.4,118.5,22.4,118.5,22.5,118.4l-0.1,0.2
			C22.3,118.6,22.4,118.5,22.5,118.4L22.5,118.4C22.4,118.4,22.4,118.4,22.5,118.4C22.4,118.4,22.4,118.4,22.5,118.4
			C22.5,118.4,22.5,118.4,22.5,118.4z M22.6,118.6L22.6,118.6C22.5,118.6,22.5,118.6,22.6,118.6l-0.2,0.1
			C22.3,118.6,22.5,118.6,22.6,118.6L22.6,118.6C22.5,118.6,22.5,118.6,22.6,118.6C22.6,118.5,22.6,118.5,22.6,118.6z"/>
	</g>
	<g>
		<path fill="#F3DADC" d="M15.7,102.7L15.7,102.7C15.6,102.7,15.6,102.7,15.7,102.7C15.6,102.8,15.6,102.8,15.7,102.7
			C15.7,102.8,15.7,102.7,15.7,102.7C15.7,102.7,15.7,102.7,15.7,102.7c0.1,0,0.2-0.2,0.3-0.3l0,0c0,0.1,0,0.1,0,0.2
			c0,0.4-0.9,1.3-1.2,0.6c-0.3-0.6,0.6-0.8,0.8-0.9c0,0,0.1,0.1,0.2,0l0,0L15.7,102.7z"/>
		<path fill="#F3DADC" d="M16.4,102.3c0,0-0.1,0-0.2,0l0,0.1c-0.1,0-0.2,0.1-0.2,0.1c-0.1,0.2-0.3,0.7,0.3,0.9
			c0.2,0,0.5-0.2,0.5-0.2S17.3,102.6,16.4,102.3z M16.2,102.4c0,0,0.2,0.2,0.2,0.4l0,0c0,0,0,0,0,0s0,0,0,0.1c0,0,0,0,0,0v0
			L16.2,102.4z"/>
		<path fill="#F3DADC" d="M16,101.9c0,0,0,0.1,0,0.1l-0.1,0.1l-0.3-0.2c0,0,0,0,0,0c0,0,0,0-0.1,0c0,0,0,0,0,0.1c0,0,0,0,0.1,0l0,0
			c0,0.1,0.2,0.1,0.3,0.1l0,0c0,0-0.1,0-0.1,0c-0.5,0.1-0.8-0.3-0.8-0.3s-0.4-0.5,0.4-0.8C15.8,101.2,15.9,101.8,16,101.9z"/>
		<path fill="#F3DADC" d="M16.4,102c0,0,0,0.1-0.1,0.1l0,0.1c0,0,0,0,0,0.1c0.1,0.1,0.8,0.4,1.2-0.1c0.2-0.2,0-0.6,0-0.6
			S17.3,101.1,16.4,102z M16.9,102.3C16.9,102.3,16.8,102.3,16.9,102.3c-0.1,0-0.1,0-0.1,0l-0.4-0.1c0,0,0.3,0,0.4,0.1l0,0
			C16.8,102.2,16.8,102.2,16.9,102.3C16.9,102.3,16.9,102.3,16.9,102.3z"/>
		<path fill="#F3DADC" d="M16.6,100.7c-0.2-0.1-0.4,0-0.4,0s-0.5,0.2-0.2,1.2c0,0,0.1,0.1,0.1,0.1h0.2c0-0.1,0.1-0.1,0.1-0.1
			C16.5,101.8,17.1,101,16.6,100.7z M16.3,101.5C16.3,101.5,16.3,101.5,16.3,101.5l-0.1,0.5C16.2,102,16.2,101.7,16.3,101.5
			L16.3,101.5C16.2,101.5,16.2,101.5,16.3,101.5C16.2,101.4,16.2,101.4,16.3,101.5C16.3,101.5,16.3,101.5,16.3,101.5z"/>
		<path fill="#F3DADC" d="M16.4,102c-0.1-0.1-0.3-0.1-0.4,0c-0.1,0.1-0.2,0.3-0.1,0.4c0.1,0.1,0.3,0.1,0.4,0
			C16.4,102.3,16.5,102.1,16.4,102z M15.9,102.2H16C16,102.3,16,102.3,15.9,102.2C15.9,102.3,15.9,102.3,15.9,102.2
			C15.9,102.3,15.9,102.3,15.9,102.2C15.9,102.2,15.9,102.2,15.9,102.2C15.9,102.2,15.9,102.2,15.9,102.2L15.9,102.2z M16.2,102.3
			c0,0,0.1,0.1,0,0.2l0,0l0,0c0,0,0,0,0,0l0,0c0,0,0,0,0,0V102.3z M16.2,102C16.2,102.1,16.1,102.1,16.2,102v0.2
			C16.2,102.2,16.1,102.1,16.2,102C16.1,102.1,16.1,102.1,16.2,102C16.1,102,16.1,102,16.2,102C16.1,102,16.1,102,16.2,102L16.2,102
			z M16.3,102C16.3,102.1,16.3,102.1,16.3,102L16.3,102l-0.1,0.2C16.2,102.2,16.3,102.1,16.3,102C16.3,102.1,16.3,102.1,16.3,102
			C16.3,102,16.3,102,16.3,102C16.3,102,16.3,102,16.3,102z"/>
	</g>
	<g>
		<path fill="#F3DADC" d="M45.8,123.3C45.8,123.3,45.8,123.3,45.8,123.3C45.8,123.3,45.7,123.3,45.8,123.3L45.8,123.3
			C45.8,123.3,45.8,123.3,45.8,123.3L45.8,123.3c0,0.1,0.2,0.1,0.3,0.1l0,0c-0.1,0-0.1,0.1-0.1,0.1c-0.3,0.1-1-0.3-0.6-0.7
			c0.3-0.3,0.7,0.2,0.7,0.4c0,0,0,0.1,0,0.2v0L45.8,123.3z"/>
		<path fill="#F3DADC" d="M46.2,123.7c0,0,0-0.1,0-0.1h-0.1c0-0.1-0.1-0.1-0.1-0.1c-0.1,0-0.6,0-0.6,0.4c0,0.2,0.2,0.3,0.2,0.3
			S46.2,124.4,46.2,123.7z M46.1,123.6c0,0-0.1,0.2-0.2,0.2l0,0v0h0v0c0,0,0,0,0,0L46.1,123.6z"/>
		<path fill="#F3DADC" d="M46.4,123.3C46.4,123.3,46.3,123.3,46.4,123.3h-0.1l0-0.2l0,0v0h0v0l0,0c0,0,0,0.2,0,0.2h0
			c0,0,0,0-0.1-0.1c-0.2-0.3,0-0.7,0-0.7s0.3-0.4,0.6,0.1C46.8,122.9,46.5,123.2,46.4,123.3z"/>
		<path fill="#F3DADC" d="M46.4,123.6h-0.1l-0.1,0c0,0,0,0,0,0c0,0.1-0.1,0.7,0.3,0.8c0.2,0.1,0.4-0.2,0.4-0.2S47.1,124,46.4,123.6z
			 M46.3,124.1C46.3,124.1,46.3,124.1,46.3,124.1C46.3,124,46.3,124,46.3,124.1v-0.4C46.3,123.7,46.3,123.9,46.3,124.1L46.3,124.1
			C46.3,124,46.3,124,46.3,124.1C46.3,124,46.3,124.1,46.3,124.1z"/>
		<path fill="#F3DADC" d="M47.3,123.4c0-0.1-0.1-0.3-0.1-0.3s-0.2-0.3-0.9,0.2c0,0,0,0.1,0,0.1v0.1c0,0,0.1,0,0.1,0
			C46.6,123.6,47.2,123.9,47.3,123.4z M46.7,123.4L46.7,123.4l-0.3,0.1C46.4,123.5,46.6,123.4,46.7,123.4L46.7,123.4
			C46.7,123.4,46.7,123.4,46.7,123.4C46.7,123.4,46.7,123.4,46.7,123.4C46.8,123.4,46.7,123.4,46.7,123.4z"/>
		<path fill="#F3DADC" d="M46.4,123.6c0-0.1,0-0.2-0.1-0.3c-0.1,0-0.2,0-0.3,0c0,0.1,0,0.2,0.1,0.3
			C46.2,123.7,46.3,123.7,46.4,123.6z M46.2,123.3L46.2,123.3C46.2,123.4,46.1,123.4,46.2,123.3C46.1,123.3,46.1,123.3,46.2,123.3
			C46.1,123.3,46.1,123.3,46.2,123.3C46.1,123.3,46.1,123.3,46.2,123.3L46.2,123.3L46.2,123.3z M46.2,123.5c0,0,0,0.1-0.1,0l0,0l0,0
			h0l0,0l0,0L46.2,123.5z M46.3,123.4C46.3,123.4,46.3,123.4,46.3,123.4l-0.1,0C46.2,123.5,46.3,123.4,46.3,123.4L46.3,123.4
			C46.3,123.4,46.3,123.4,46.3,123.4C46.3,123.4,46.3,123.4,46.3,123.4L46.3,123.4z M46.4,123.6C46.3,123.6,46.3,123.6,46.4,123.6
			L46.4,123.6l-0.1,0C46.2,123.5,46.3,123.5,46.4,123.6L46.4,123.6L46.4,123.6L46.4,123.6z"/>
	</g>
	<g>
		<path fill="#F0BCC8" d="M24.7,111.5C24.7,111.5,24.7,111.6,24.7,111.5c-0.1,0.1-0.1,0.1-0.1,0.2c0,0,0.1,0,0.1,0
			C24.9,111.6,24.9,111.6,24.7,111.5L24.7,111.5c0.2-0.1,0.3-0.6,0.3-0.7l0,0c0.1,0.2,0.2,0.2,0.2,0.2c0.2,0.7-0.8,2.7-1.7,1.8
			c-0.8-0.8,0.5-1.8,1-2.1c0,0,0.2,0.1,0.4,0l0.1,0L24.7,111.5z"/>
		<path fill="#F0BCC8" d="M25.9,110.4c0,0-0.2,0.1-0.3,0.1v0.2c-0.2,0.1-0.2,0.3-0.2,0.3c0,0.4,0,1.5,1.1,1.5c0.4,0,0.8-0.7,0.8-0.7
			S27.5,110.4,25.9,110.4z M25.6,110.6c0,0,0.5,0.3,0.6,0.5l0,0c0,0,0.1,0,0.1,0c0,0,0,0.1,0,0.1c0,0-0.1,0-0.1,0c0,0,0,0,0-0.1
			L25.6,110.6z"/>
		<path fill="#F0BCC8" d="M24.8,109.9c0,0,0,0.2,0,0.2l-0.1,0.2l-0.6-0.1l0,0c0,0-0.1,0-0.1,0c0,0,0,0.1,0.1,0.1c0,0,0.1,0,0.1,0
			l0,0c0.1,0.1,0.4,0.1,0.6,0.1v0.1c-0.1,0-0.2,0.2-0.2,0.2c-0.8,0.5-1.7,0.1-1.7,0.1s-1-0.7,0.2-1.6
			C24,108.9,24.6,109.7,24.8,109.9z"/>
		<path fill="#F0BCC8" d="M25.5,109.8c0,0,0,0.3,0,0.3l0.1,0.2c0.1,0,0.1,0.1,0.1,0.1c0.3,0,1.7,0.3,2-1c0.2-0.5-0.4-0.9-0.4-0.9
			S26.5,107.8,25.5,109.8z M26.6,110.1c0,0-0.1,0-0.1,0c0,0,0,0-0.1,0l-0.8,0.1c0,0,0.6-0.2,0.8-0.1l0,0c0,0,0.1,0,0.1,0
			C26.6,110,26.6,110,26.6,110.1z"/>
		<path fill="#F0BCC8" d="M25.2,107.4c-0.4,0-0.7,0.3-0.7,0.3s-0.8,0.6,0.3,2.2c0.1,0,0.3,0.1,0.2,0.1l0.3-0.1
			c0-0.1,0.1-0.2,0.1-0.2C25.6,109.3,26.2,107.7,25.2,107.4z M25.1,109C25.1,109.1,25.1,109.1,25.1,109l0.2,0.8c0,0-0.3-0.5-0.2-0.7
			l0,0C25.1,109.1,25,109.1,25.1,109c-0.1-0.1,0-0.1,0-0.1C25.1,108.9,25.1,109,25.1,109z"/>
		<path fill="#F0BCC8" d="M25.6,109.9c-0.2-0.1-0.5,0-0.7,0.3s-0.1,0.6,0.1,0.7c0.2,0.1,0.5,0,0.7-0.3
			C25.9,110.3,25.8,110,25.6,109.9z M25,110.6l0.2,0C25.2,110.5,25,110.6,25,110.6C25,110.6,25,110.6,25,110.6
			C25,110.6,24.9,110.6,25,110.6L25,110.6C24.9,110.5,24.9,110.5,25,110.6C24.9,110.6,25,110.6,25,110.6z M25.3,110.4
			c0,0,0.2,0.1,0.1,0.3l0,0h0c0,0,0,0.1,0,0.1h0c0,0,0,0,0-0.1L25.3,110.4z M25.2,110L25.2,110l0.1,0.3
			C25.3,110.3,25.2,110.2,25.2,110L25.2,110C25.2,110.1,25.2,110.1,25.2,110C25.2,110,25.2,110,25.2,110C25.2,110,25.2,110,25.2,110
			z M25.5,109.9C25.5,109.9,25.5,110,25.5,109.9L25.5,109.9l-0.1,0.4C25.4,110.3,25.4,110,25.5,109.9L25.5,109.9
			C25.5,110,25.5,109.9,25.5,109.9C25.5,109.9,25.5,109.9,25.5,109.9z"/>
	</g>
</g>
<path fill="#FFFFFF" d="M44,109.6c0.6-1.8,3.6-3.5,5.6-2.3c4.5-3.7,8.3-0.4,8.3-0.4s2.1-0.9,2,1.2c0,0,2.7,0.8,0.6,3.3
	c1.1,0.7,1.2,4.3-1.9,3.4c-3.9,2.9-5.7-0.4-5.7-0.4s-1.9,2.5-5.3,0.8c-2.8,1.1-3.9-0.6-3.9-0.6s-3.3-0.4-2.7-3.2
	C41.8,108.8,44,109.6,44,109.6z"/>
<path fill="#FFFFFF" d="M99.3,108.3c-2.1,1.5-3.7,0-3.7,0s-1.9,0.4-1.5-0.9c0,0-1.7-0.3-0.2-1.3c-0.4-0.5,0.1-1.7,1.5-1.2
	c0.8-1.2,3.7-1.7,4.9,0c1.4,0.7,0.1,1.4,0.1,1.4S102,108.6,99.3,108.3z"/>
<g>
	<rect x="99.2" y="126.1" fill="#7ACCBE" width="6.5" height="12.2"/>
	<polygon fill="#7ACCBE" points="105.7,126.1 99.2,126.1 114.6,115.3 115.2,115.3 	"/>
	<rect x="112.1" y="126.1" fill="#7ACCBE" width="6.5" height="12.2"/>
	<polygon fill="#7ACCBE" points="118.7,126.2 112.1,126.2 115.2,115.3 115.6,115.3 	"/>
	<rect x="125.1" y="126.1" fill="#7ACCBE" width="6.5" height="12.2"/>
	<polygon fill="#7ACCBE" points="125.1,126.2 131.7,126.2 116.3,115.3 115.6,115.3 	"/>
	<rect x="115.2" y="109.2" fill="#7ACCBE" width="0.5" height="6.1"/>
	<path fill="#7ACCBE" d="M123.7,112.5c0,0-2.7,1.1-4.1,0.6c-1.4-0.5-1-1.9-1.7-2.3c-0.7-0.4-1.8,0.8-1.8,0.8v-2.2
		c0,0,1.1-0.7,2.1-0.7c1,0,0.6,1.6,1.5,1.9c0.9,0.3,4-0.3,4-0.3l-1.1,1.3L123.7,112.5z"/>
</g>
<g>
	<rect x="98.6" y="126.1" fill="#3DA8A4" width="6.5" height="12.2"/>
	<polygon fill="#3DA8A4" points="105.2,126.1 98.6,126.1 114,115.3 114.7,115.3 	"/>
	<rect x="111.7" y="126.1" fill="#3DA8A4" width="6.5" height="12.2"/>
	<polygon fill="#3DA8A4" points="118.2,126.2 111.7,126.2 114.7,115.3 115.1,115.3 	"/>
	<rect x="124.6" y="126.1" fill="#3DA8A4" width="6.5" height="12.2"/>
	<polygon fill="#3DA8A4" points="124.6,126.2 131.1,126.2 115.7,115.3 115.1,115.3 	"/>
	<rect x="114.7" y="109.2" fill="#3DA8A4" width="0.5" height="6.1"/>
	<path fill="#3DA8A4" d="M123.1,112.6c0,0-2.7,1.1-4.1,0.6c-1.4-0.5-1-1.9-1.7-2.3c-0.7-0.4-1.8,0.8-1.8,0.8v-2.2
		c0,0,1.1-0.7,2.1-0.7s0.6,1.6,1.5,1.9c0.9,0.3,4-0.3,4-0.3l-1.1,1.3L123.1,112.6z"/>
</g>
<line fill="none" stroke="#3DA8A4" stroke-miterlimit="10" x1="-4.1" y1="140.2" x2="178.1" y2="140.2"/>
</svg>
