<?xml version="1.0" encoding="utf-8"?>
<!-- Generator: Adobe Illustrator 18.1.1, SVG Export Plug-In . SVG Version: 6.00 Build 0)  -->
<svg version="1.1" id="Capa_1" xmlns="http://www.w3.org/2000/svg" xmlns:xlink="http://www.w3.org/1999/xlink" x="0px" y="0px"
	 viewBox="-103 -4 512 512" enable-background="new -103 -4 512 512" xml:space="preserve">
<g>
	<path fill="#FFFFFF" d="M153-4C11.6-4-103,110.6-103,252S11.6,508,153,508s256-114.6,256-256S294.4-4,153-4z M153,468
		C33.7,468-63,371.3-63,252S33.7,36,153,36s216,96.7,216,216S272.3,468,153,468z"/>
	<path fill="#FFFFFF" d="M213.8,212.8h-44.5v-32.5c0-10,10.3-12.3,15.1-12.3c4.8,0,28.8,0,28.8,0v-43.9l-33-0.2
		c-45,0-55.3,32.7-55.3,53.7v35.1H92.3V258h32.6c0,58,0,122,0,122h44.3c0,0,0-64.6,0-122h37.7L213.8,212.8z"/>
</g>
</svg>
