<?xml version="1.0" encoding="utf-8"?>
<!-- Generator: Adobe Illustrator 18.1.1, SVG Export Plug-In . SVG Version: 6.00 Build 0)  -->
<svg version="1.1" id="Capa_1" xmlns="http://www.w3.org/2000/svg" xmlns:xlink="http://www.w3.org/1999/xlink" x="0px" y="0px"
	 viewBox="97 0 560 560" enable-background="new 97 0 560 560" xml:space="preserve">
<g>
	<path fill="#FF99A1" d="M377,0C222.3,0,97,125.3,97,280s125.3,280,280,280s280-125.3,280-280S531.7,0,377,0z M377,516.3
		c-130.5,0-236.3-105.8-236.3-236.3S246.5,43.8,377,43.8S613.3,149.5,613.3,280S507.5,516.3,377,516.3z"/>
	<path fill="#FF99A1" d="M443.5,237.1h-48.7v-35.5c0-10.9,11.3-13.5,16.5-13.5s31.5,0,31.5,0v-48l-36.1-0.2
		c-49.2,0-60.5,35.8-60.5,58.7V237h-35.7v49.5h35.7c0,63.4,0,133.4,0,133.4h48.5c0,0,0-70.7,0-133.4H436L443.5,237.1z"/>
</g>
</svg>
