<?xml version="1.0" encoding="utf-8"?>
<!-- Generator: Adobe Illustrator 18.1.1, SVG Export Plug-In . SVG Version: 6.00 Build 0)  -->
<svg version="1.1" id="Layer_1" xmlns="http://www.w3.org/2000/svg" xmlns:xlink="http://www.w3.org/1999/xlink" x="0px" y="0px"
	 viewBox="0 0 601.1 451.3" enable-background="new 0 0 601.1 451.3" xml:space="preserve">
<path fill="#F1BCC9" d="M266.4,150.7c-0.5,0.4-1.2,0.8-2,0.9c-1.5,0.2-2.9-0.4-3-1.3c-0.1-0.9,1-1.9,2.5-2.1c1.5-0.2,2.9,0.4,3,1.3
	c0,0.2,0,0.4-0.1,0.6c4.4-1.3,14.7,1.9,18.5,3.2l0-0.4c-2.2-4.7-2.2-7.2-2.6-7.6c-12.3-12.4-65.1-16.5-56.5,16.1
	c7.8,29.7,43.5,10.5,53.5,4.5c0.5-0.3,0.5-4.7,5.4-8.6l0.3-3.7L266.4,150.7z"/>
<path fill="#F1BCC9" d="M287.8,90.5c0,0-17.6,0.5-23.2,9.4c-12.1,24.1,9.4,38.4,17.8,42.9c0.7,0.4,4.4,2.9,9-0.5l4.4,3.4
	c0.9-3.3,6.3-6.3,6.5-6.7C320.6,101.3,287.8,90.5,287.8,90.5z M289.5,123.5c-0.6-0.3-1.1-0.8-1.6-1.6c-0.7-1.3-0.7-2.8,0.2-3.3
	s2.1,0.3,2.8,1.6s0.7,2.8-0.2,3.3c-0.2,0.1-0.3,0.1-0.5,0.1c3.5,4.5,3.6,19.8,3.6,19.8L289.5,123.5z"/>
<path fill="#F1BCC9" d="M299.7,169.4c-0.2-0.4-3.5-1.8-3.9-4.3l-5.4-1.2l-5.5,15.4c0.3,0.5,0.5,1.3,0.5,2.2
	c-0.1,1.5-0.9,2.7-1.9,2.7c-0.9,0-1.6-1.3-1.6-2.9c0.1-1.5,0.9-2.7,1.9-2.7c0.2,0,0.4,0.1,0.5,0.2c-0.4-3.7,3-10.7,5.3-15l-2.1-0.5
	c-2,1.8-5.4,1.4-5.9,1.8c-19.7,12-21,37.5-21,37.5s2.9,32.6,36.5,14.9C311.9,203.3,302.4,176.7,299.7,169.4z"/>
<path fill="#F1BCC9" d="M360.4,131.8c0,0-3.7-20.4-15.4-22c-29.3-8.8-40.7,25.7-42.8,33.2c-0.1,0.3,1,2.6-0.2,4.4
	c0,0,2.5,5.6,2.5,5.5c1-0.6,6.3,2.4,6.8,2.4C364.1,157.8,360.4,131.8,360.4,131.8z M318.9,128.7c-0.4,1.5-1.5,2.5-2.4,2.2
	c-0.2-0.1-0.3-0.2-0.5-0.3c-0.7,5.6-11.5,16.6-11.5,16.6l11.1-17.2c-0.2-0.6-0.2-1.4,0-2.2c0.4-1.5,1.5-2.5,2.4-2.2
	C319,125.9,319.4,127.3,318.9,128.7z"/>
<path fill="#F1BCC9" d="M312,156.5c-0.6-0.1-3.1,1.8-6,0.3l-5.3,6.5c1.3-0.7,1.4,4.3-0.5,6.5c20.1,47.5,42.8,37.1,42.8,37.1
	s11.2-4.2,14.1-13.3C362.9,165.7,321.7,157.9,312,156.5z M322.7,177.9c-0.5,0.8-2,0.8-3.3,0c-1.3-0.8-2-2.1-1.5-2.9
	c0.1-0.2,0.2-0.3,0.4-0.4c-5.2-2.2-13-15.5-13-15.5l13.7,15.3c0.6,0,1.4,0.1,2.1,0.6C322.6,175.8,323.2,177.1,322.7,177.9z"/>
<path fill="#F1BCC9" d="M295.8,140.5c-7.6,0-13.8,5.7-13.8,12.7s6.2,12.7,13.8,12.7c7.6,0,13.8-5.7,13.8-12.7
	S303.4,140.5,295.8,140.5z M288.5,159.2c-0.1,0.6-0.6,1.1-1.3,1.1c-0.6,0-1.1-0.5-1.1-1.1c0.1-0.6,0.6-1.1,1.3-1.1
	c0.3,0,0.5,0.1,0.7,0.2c0.4-1.4,3.2-4,3.2-4l-2.9,4.3C288.5,158.9,288.5,159,288.5,159.2z M290.4,144c-0.6-0.1-1.1-0.3-1.6-0.5
	c-0.7-0.5-0.7-1,0.2-1.1c0.8-0.2,2.1,0.1,2.8,0.5c0.7,0.5,0.7,1-0.2,1.1c-0.2,0-0.4,0-0.6,0c3.5,1.5,3.6,6.7,3.6,6.7L290.4,144z
	 M301.7,161.4c-0.4,0.5-1.1,0.6-1.5,0.2s-0.5-1.1-0.1-1.6c0.1-0.1,0.2-0.2,0.2-0.2c-2.5-0.7-4.3-6.5-4.3-6.5l4.6,6.4
	c0.4-0.1,0.8-0.1,1.1,0.2C302,160.2,302.1,160.9,301.7,161.4z M306.9,154.8c-0.5,0-1.1-0.4-1.4-0.9c-0.1-0.1-0.1-0.2-0.1-0.3
	c-1.6,0.6-8.2-3.1-8.2-3.1l8.2,2.7c0.1-0.2,0.2-0.4,0.5-0.4c0.5,0,1.1,0.4,1.4,0.9C307.6,154.4,307.4,154.8,306.9,154.8z"/>
<g>
	<path fill="#F1BDC9" d="M493.8,148.2c-0.1,0.1-0.3,0.2-0.5,0.2c-0.4,0.1-0.7-0.1-0.7-0.3c0-0.2,0.2-0.5,0.6-0.5s0.7,0.1,0.7,0.3
		c0,0,0,0.1,0,0.1c1.1-0.3,3.6,0.5,4.6,0.8l0-0.1c-0.6-1.2-0.5-1.8-0.6-1.9c-3-3-16.1-4.1-14,4c1.9,7.3,10.7,2.6,13.2,1.1
		c0.1-0.1,0.1-1.2,1.3-2.1l0.1-0.9L493.8,148.2z"/>
	<path fill="#F1BDC9" d="M499,133.3c0,0-4.3,0.1-5.7,2.3c-3,5.9,2.3,9.5,4.4,10.6c0.2,0.1,1.1,0.7,2.2-0.1l1.1,0.8
		c0.2-0.8,1.6-1.6,1.6-1.7C507.1,136,499,133.3,499,133.3z M499.5,141.5c-0.1-0.1-0.3-0.2-0.4-0.4c-0.2-0.3-0.2-0.7,0-0.8
		s0.5,0.1,0.7,0.4c0.2,0.3,0.2,0.7,0,0.8c0,0-0.1,0-0.1,0c0.9,1.1,0.9,4.9,0.9,4.9L499.5,141.5z"/>
	<path fill="#F1BDC9" d="M502,152.8c0-0.1-0.9-0.5-1-1.1l-1.3-0.3l-1.4,3.8c0.1,0.1,0.1,0.3,0.1,0.5c0,0.4-0.2,0.7-0.5,0.7
		s-0.4-0.3-0.4-0.7c0-0.4,0.2-0.7,0.5-0.7c0,0,0.1,0,0.1,0c-0.1-0.9,0.7-2.6,1.3-3.7l-0.5-0.1c-0.5,0.4-1.3,0.4-1.5,0.4
		c-4.9,3-5.2,9.3-5.2,9.3s0.7,8.1,9,3.7C505,161.2,502.7,154.6,502,152.8z"/>
	<path fill="#F1BDC9" d="M517,143.6c0,0-0.9-5-3.8-5.4c-7.2-2.2-10,6.3-10.6,8.2c0,0.1,0.2,0.6,0,1.1c0,0,0.6,1.4,0.6,1.4
		c0.3-0.1,1.5,0.6,1.7,0.6C517.9,150,517,143.6,517,143.6z M506.7,142.8c-0.1,0.4-0.4,0.6-0.6,0.5c0,0-0.1,0-0.1-0.1
		c-0.2,1.4-2.8,4.1-2.8,4.1l2.7-4.3c-0.1-0.1-0.1-0.3,0-0.5c0.1-0.4,0.4-0.6,0.6-0.5S506.8,142.4,506.7,142.8z"/>
	<path fill="#F1BDC9" d="M505,149.6c-0.1,0-0.8,0.4-1.5,0.1l-1.3,1.6c0.3-0.2,0.3,1.1-0.1,1.6c5,11.7,10.6,9.1,10.6,9.1
		s2.8-1,3.5-3.3C517.6,151.9,507.4,150,505,149.6z M507.7,154.9c-0.1,0.2-0.5,0.2-0.8,0c-0.3-0.2-0.5-0.5-0.4-0.7
		c0,0,0.1-0.1,0.1-0.1c-1.3-0.5-3.2-3.8-3.2-3.8l3.4,3.8c0.2,0,0.3,0,0.5,0.1C507.6,154.4,507.8,154.7,507.7,154.9z"/>
	<path fill="#F1BDC9" d="M501,145.7c-1.9,0-3.4,1.4-3.4,3.1c0,1.7,1.5,3.1,3.4,3.1c1.9,0,3.4-1.4,3.4-3.1
		C504.4,147.1,502.9,145.7,501,145.7z M499.2,150.3c0,0.1-0.2,0.3-0.3,0.3c-0.2,0-0.3-0.1-0.3-0.3c0-0.1,0.2-0.3,0.3-0.3
		c0.1,0,0.1,0,0.2,0.1c0.1-0.4,0.8-1,0.8-1l-0.7,1.1C499.2,150.2,499.2,150.3,499.2,150.3z M499.7,146.6c-0.1,0-0.3-0.1-0.4-0.1
		c-0.2-0.1-0.2-0.2,0-0.3c0.2,0,0.5,0,0.7,0.1s0.2,0.2,0,0.3c0,0-0.1,0-0.1,0c0.9,0.4,0.9,1.7,0.9,1.7L499.7,146.6z M502.5,150.9
		c-0.1,0.1-0.3,0.1-0.4,0s-0.1-0.3,0-0.4c0,0,0,0,0.1-0.1c-0.6-0.2-1.1-1.6-1.1-1.6l1.1,1.6c0.1,0,0.2,0,0.3,0
		C502.6,150.6,502.6,150.7,502.5,150.9z M503.8,149.2c-0.1,0-0.3-0.1-0.4-0.2c0,0,0-0.1,0-0.1c-0.4,0.2-2-0.8-2-0.8l2,0.7
		c0-0.1,0.1-0.1,0.1-0.1c0.1,0,0.3,0.1,0.4,0.2S503.9,149.2,503.8,149.2z"/>
</g>
<g>
	<path fill="#F1BDC9" d="M20.9,266.1c-0.1,0.1-0.3,0.2-0.6,0.3c-0.4,0.1-0.8-0.1-0.9-0.4c0-0.3,0.3-0.6,0.7-0.6
		c0.4-0.1,0.8,0.1,0.9,0.4c0,0.1,0,0.1,0,0.2c1.3-0.4,4.2,0.6,5.3,0.9l0-0.1c-0.6-1.4-0.6-2.1-0.7-2.2c-3.5-3.6-18.5-4.9-16.1,4.7
		c2.2,8.8,12.4,3.1,15.2,1.3c0.1-0.1,0.1-1.4,1.5-2.5l0.1-1.1L20.9,266.1z"/>
	<path fill="#F1BDC9" d="M27,248.4c0,0-5,0.2-6.6,2.8c-3.5,7.1,2.7,11.3,5.1,12.7c0.2,0.1,1.3,0.9,2.6-0.2l1.3,1
		c0.2-1,1.8-1.9,1.9-2C36.3,251.6,27,248.4,27,248.4z M27.5,258.1c-0.2-0.1-0.3-0.2-0.4-0.5c-0.2-0.4-0.2-0.8,0-1
		c0.2-0.1,0.6,0.1,0.8,0.5c0.2,0.4,0.2,0.8,0,1c0,0-0.1,0-0.2,0c1,1.3,1,5.9,1,5.9L27.5,258.1z"/>
	<path fill="#F1BDC9" d="M30.4,271.7c0-0.1-1-0.5-1.1-1.3l-1.5-0.4l-1.6,4.6c0.1,0.2,0.2,0.4,0.1,0.6c0,0.5-0.3,0.8-0.5,0.8
		c-0.3,0-0.5-0.4-0.4-0.8c0-0.5,0.3-0.8,0.5-0.8c0.1,0,0.1,0,0.2,0.1c-0.1-1.1,0.8-3.2,1.5-4.4l-0.6-0.1c-0.6,0.5-1.5,0.4-1.7,0.5
		c-5.6,3.6-6,11.1-6,11.1s0.8,9.6,10.4,4.4C33.9,281.6,31.2,273.8,30.4,271.7z"/>
	<path fill="#F1BDC9" d="M47.7,260.6c0,0-1.1-6-4.4-6.5c-8.3-2.6-11.6,7.6-12.2,9.8c0,0.1,0.3,0.8-0.1,1.3c0,0,0.7,1.6,0.7,1.6
		c0.3-0.2,1.8,0.7,1.9,0.7C48.7,268.2,47.7,260.6,47.7,260.6z M35.9,259.6c-0.1,0.4-0.4,0.7-0.7,0.6c-0.1,0-0.1,0-0.1-0.1
		c-0.2,1.7-3.3,4.9-3.3,4.9l3.2-5.1c-0.1-0.2-0.1-0.4,0-0.7c0.1-0.4,0.4-0.7,0.7-0.6S36,259.2,35.9,259.6z"/>
	<path fill="#F1BDC9" d="M33.9,267.8c-0.2,0-0.9,0.5-1.7,0.1l-1.5,1.9c0.4-0.2,0.4,1.3-0.1,1.9c5.7,14,12.2,10.9,12.2,10.9
		s3.2-1.2,4-3.9C48.4,270.6,36.7,268.3,33.9,267.8z M36.9,274.2c-0.1,0.2-0.6,0.2-0.9,0c-0.4-0.2-0.6-0.6-0.4-0.9
		c0,0,0.1-0.1,0.1-0.1c-1.5-0.6-3.7-4.6-3.7-4.6l3.9,4.5c0.2,0,0.4,0,0.6,0.2C36.9,273.5,37.1,273.9,36.9,274.2z"/>
	<path fill="#F1BDC9" d="M29.3,263.1c-2.2,0-3.9,1.7-3.9,3.7s1.8,3.7,3.9,3.7s3.9-1.7,3.9-3.7S31.5,263.1,29.3,263.1z M27.2,268.6
		c0,0.2-0.2,0.3-0.4,0.3c-0.2,0-0.3-0.2-0.3-0.3c0-0.2,0.2-0.3,0.4-0.3c0.1,0,0.1,0,0.2,0.1c0.1-0.4,0.9-1.2,0.9-1.2l-0.8,1.3
		C27.2,268.5,27.2,268.6,27.2,268.6z M27.7,264.2c-0.2,0-0.3-0.1-0.4-0.2c-0.2-0.1-0.2-0.3,0-0.3c0.2,0,0.6,0,0.8,0.2
		c0.2,0.1,0.2,0.3,0,0.3c0,0-0.1,0-0.2,0c1,0.4,1,2,1,2L27.7,264.2z M31,269.3c-0.1,0.1-0.3,0.2-0.4,0c-0.1-0.1-0.1-0.3,0-0.5
		c0,0,0,0,0.1-0.1c-0.7-0.2-1.2-1.9-1.2-1.9l1.3,1.9c0.1,0,0.2,0,0.3,0.1C31.1,268.9,31.1,269.2,31,269.3z M32.5,267.4
		c-0.1,0-0.3-0.1-0.4-0.3c0,0,0-0.1,0-0.1c-0.4,0.2-2.3-0.9-2.3-0.9l2.3,0.8c0-0.1,0.1-0.1,0.1-0.1c0.1,0,0.3,0.1,0.4,0.3
		S32.6,267.3,32.5,267.4z"/>
</g>
<g>
	<path fill="#F1BDC9" d="M78.4,226.6c-0.1,0.1-0.3,0.2-0.6,0.3c-0.4,0.1-0.8-0.1-0.9-0.4c0-0.3,0.3-0.6,0.7-0.6
		c0.4-0.1,0.8,0.1,0.9,0.4c0,0.1,0,0.1,0,0.2c1.3-0.4,4.2,0.6,5.3,0.9l0-0.1c-0.6-1.4-0.6-2.1-0.7-2.2c-3.5-3.6-18.5-4.9-16.1,4.7
		c2.2,8.8,12.4,3.1,15.2,1.3c0.1-0.1,0.1-1.4,1.5-2.5l0.1-1.1L78.4,226.6z"/>
	<path fill="#F1BDC9" d="M84.5,208.8c0,0-5,0.2-6.6,2.8c-3.5,7.1,2.7,11.3,5.1,12.7c0.2,0.1,1.3,0.9,2.6-0.2l1.3,1
		c0.2-1,1.8-1.9,1.9-2C93.8,212,84.5,208.8,84.5,208.8z M85,218.6c-0.2-0.1-0.3-0.2-0.4-0.5c-0.2-0.4-0.2-0.8,0-1
		c0.2-0.1,0.6,0.1,0.8,0.5s0.2,0.8,0,1c0,0-0.1,0-0.2,0c1,1.3,1,5.9,1,5.9L85,218.6z"/>
	<path fill="#F1BDC9" d="M87.9,232.1c0-0.1-1-0.5-1.1-1.3l-1.5-0.4l-1.6,4.6c0.1,0.2,0.2,0.4,0.1,0.6c0,0.5-0.3,0.8-0.5,0.8
		c-0.3,0-0.5-0.4-0.4-0.8s0.3-0.8,0.5-0.8c0.1,0,0.1,0,0.2,0.1c-0.1-1.1,0.8-3.2,1.5-4.4l-0.6-0.1c-0.6,0.5-1.5,0.4-1.7,0.5
		c-5.6,3.6-6,11.1-6,11.1s0.8,9.6,10.4,4.4C91.3,242.1,88.6,234.3,87.9,232.1z"/>
	<path fill="#F1BDC9" d="M105.1,221c0,0-1.1-6-4.4-6.5c-8.3-2.6-11.6,7.6-12.2,9.8c0,0.1,0.3,0.8-0.1,1.3c0,0,0.7,1.6,0.7,1.6
		c0.3-0.2,1.8,0.7,1.9,0.7C106.2,228.7,105.1,221,105.1,221z M93.3,220.1c-0.1,0.4-0.4,0.7-0.7,0.6c-0.1,0-0.1,0-0.1-0.1
		c-0.2,1.7-3.3,4.9-3.3,4.9l3.2-5.1c-0.1-0.2-0.1-0.4,0-0.7c0.1-0.4,0.4-0.7,0.7-0.6C93.4,219.3,93.5,219.7,93.3,220.1z"/>
	<path fill="#F1BDC9" d="M91.4,228.3c-0.2,0-0.9,0.5-1.7,0.1l-1.5,1.9c0.4-0.2,0.4,1.3-0.1,1.9c5.7,14,12.2,10.9,12.2,10.9
		s3.2-1.2,4-3.9C105.8,231,94.1,228.7,91.4,228.3z M94.4,234.6c-0.1,0.2-0.6,0.2-0.9,0c-0.4-0.2-0.6-0.6-0.4-0.9
		c0,0,0.1-0.1,0.1-0.1c-1.5-0.6-3.7-4.6-3.7-4.6l3.9,4.5c0.2,0,0.4,0,0.6,0.2C94.4,234,94.6,234.4,94.4,234.6z"/>
	<path fill="#F1BDC9" d="M86.8,223.6c-2.2,0-3.9,1.7-3.9,3.7c0,2.1,1.8,3.7,3.9,3.7s3.9-1.7,3.9-3.7
		C90.7,225.3,88.9,223.6,86.8,223.6z M84.7,229.1c0,0.2-0.2,0.3-0.4,0.3c-0.2,0-0.3-0.2-0.3-0.3c0-0.2,0.2-0.3,0.4-0.3
		c0.1,0,0.1,0,0.2,0.1c0.1-0.4,0.9-1.2,0.9-1.2l-0.8,1.3C84.7,229,84.7,229.1,84.7,229.1z M85.2,224.6c-0.2,0-0.3-0.1-0.4-0.2
		c-0.2-0.1-0.2-0.3,0-0.3c0.2,0,0.6,0,0.8,0.2c0.2,0.1,0.2,0.3,0,0.3c0,0-0.1,0-0.2,0c1,0.4,1,2,1,2L85.2,224.6z M88.4,229.8
		c-0.1,0.1-0.3,0.2-0.4,0c-0.1-0.1-0.1-0.3,0-0.5c0,0,0,0,0.1-0.1c-0.7-0.2-1.2-1.9-1.2-1.9l1.3,1.9c0.1,0,0.2,0,0.3,0.1
		C88.5,229.4,88.5,229.6,88.4,229.8z M89.9,227.8c-0.1,0-0.3-0.1-0.4-0.3c0,0,0-0.1,0-0.1c-0.4,0.2-2.3-0.9-2.3-0.9l2.3,0.8
		c0-0.1,0.1-0.1,0.1-0.1c0.1,0,0.3,0.1,0.4,0.3C90.1,227.7,90.1,227.8,89.9,227.8z"/>
</g>
<g>
	<path fill="#F4DBDD" d="M410,154.2c-0.2,0.2-0.5,0.3-0.9,0.4c-0.7,0.1-1.3-0.2-1.3-0.6c-0.1-0.4,0.4-0.8,1.1-0.9
		c0.7-0.1,1.3,0.2,1.3,0.6c0,0.1,0,0.2,0,0.2c1.9-0.6,6.5,0.8,8.1,1.4l0-0.2c-1-2-1-3.1-1.1-3.3c-5.4-5.4-28.6-7.2-24.8,7
		c3.4,13,19.1,4.6,23.5,2c0.2-0.1,0.2-2.1,2.3-3.8l0.1-1.6L410,154.2z"/>
	<path fill="#F4DBDD" d="M419.3,127.8c0,0-7.7,0.2-10.2,4.1c-5.3,10.6,4.1,16.8,7.8,18.8c0.3,0.2,1.9,1.3,4-0.2l1.9,1.5
		c0.4-1.5,2.8-2.8,2.9-2.9C433.7,132.5,419.3,127.8,419.3,127.8z M420.1,142.3c-0.3-0.1-0.5-0.4-0.7-0.7c-0.3-0.6-0.3-1.2,0.1-1.4
		c0.4-0.2,0.9,0.1,1.2,0.7s0.3,1.2-0.1,1.4c-0.1,0-0.2,0.1-0.2,0.1c1.5,2,1.6,8.7,1.6,8.7L420.1,142.3z"/>
	<path fill="#F4DBDD" d="M424.6,162.4c-0.1-0.2-1.5-0.8-1.7-1.9l-2.4-0.5l-2.4,6.8c0.2,0.2,0.2,0.6,0.2,0.9c0,0.7-0.4,1.2-0.8,1.2
		c-0.4,0-0.7-0.6-0.7-1.3s0.4-1.2,0.8-1.2c0.1,0,0.2,0,0.2,0.1c-0.2-1.6,1.3-4.7,2.3-6.6l-0.9-0.2c-0.9,0.8-2.4,0.6-2.6,0.8
		c-8.7,5.3-9.2,16.4-9.2,16.4s1.3,14.3,16,6.5C429.9,177.3,425.8,165.6,424.6,162.4z"/>
	<path fill="#F4DBDD" d="M451.2,145.9c0,0-1.6-8.9-6.7-9.6c-12.8-3.9-17.9,11.3-18.8,14.6c0,0.1,0.4,1.1-0.1,1.9
		c0,0,1.1,2.4,1.1,2.4c0.5-0.3,2.8,1,3,1C452.8,157.3,451.2,145.9,451.2,145.9z M433,144.6c-0.2,0.6-0.7,1.1-1.1,1
		c-0.1,0-0.2-0.1-0.2-0.1c-0.3,2.5-5,7.3-5,7.3l4.9-7.6c-0.1-0.3-0.1-0.6,0-1c0.2-0.6,0.7-1.1,1.1-1
		C433,143.3,433.2,143.9,433,144.6z"/>
	<path fill="#F4DBDD" d="M430,156.7c-0.3,0-1.4,0.8-2.6,0.1l-2.3,2.9c0.5-0.3,0.6,1.9-0.2,2.8c8.8,20.8,18.8,16.3,18.8,16.3
		s4.9-1.8,6.2-5.8C452.3,160.8,434.2,157.4,430,156.7z M434.7,166.1c-0.2,0.4-0.9,0.4-1.4,0s-0.9-0.9-0.6-1.3c0-0.1,0.1-0.1,0.2-0.2
		c-2.3-0.9-5.7-6.8-5.7-6.8l6,6.7c0.3,0,0.6,0.1,0.9,0.3C434.6,165.2,434.9,165.8,434.7,166.1z"/>
	<path fill="#F4DBDD" d="M422.9,149.7c-3.4,0-6.1,2.5-6.1,5.6c0,3.1,2.7,5.6,6.1,5.6s6.1-2.5,6.1-5.6
		C428.9,152.2,426.2,149.7,422.9,149.7z M419.7,157.9c0,0.3-0.3,0.5-0.5,0.5c-0.3,0-0.5-0.2-0.5-0.5c0-0.3,0.3-0.5,0.5-0.5
		c0.1,0,0.2,0,0.3,0.1c0.2-0.6,1.4-1.7,1.4-1.7l-1.3,1.9C419.6,157.8,419.7,157.9,419.7,157.9z M420.5,151.3c-0.3,0-0.5-0.1-0.7-0.2
		c-0.3-0.2-0.3-0.4,0.1-0.5s0.9,0,1.2,0.2c0.3,0.2,0.3,0.4-0.1,0.5c-0.1,0-0.2,0-0.2,0c1.5,0.7,1.6,3,1.6,3L420.5,151.3z
		 M425.4,158.9c-0.2,0.2-0.5,0.2-0.7,0.1s-0.2-0.5,0-0.7c0,0,0.1-0.1,0.1-0.1c-1.1-0.3-1.9-2.9-1.9-2.9l2,2.8c0.2-0.1,0.3,0,0.5,0.1
		C425.6,158.4,425.6,158.7,425.4,158.9z M427.7,156c-0.2,0-0.5-0.2-0.6-0.4c0,0,0-0.1-0.1-0.1c-0.7,0.3-3.6-1.3-3.6-1.3l3.6,1.2
		c0-0.1,0.1-0.2,0.2-0.2c0.2,0,0.5,0.2,0.6,0.4C428,155.8,428,156,427.7,156z"/>
</g>
<g>
	<path fill="#F4DBDD" d="M384.8,277.1c-0.1,0.1-0.3,0.2-0.6,0.3c-0.4,0.1-0.8-0.1-0.9-0.4c0-0.3,0.3-0.5,0.7-0.6
		c0.4-0.1,0.8,0.1,0.9,0.4c0,0.1,0,0.1,0,0.2c1.3-0.4,4.3,0.6,5.4,0.9l0-0.1c-0.7-1.4-0.6-2.1-0.8-2.2c-3.6-3.6-19.1-4.8-16.6,4.7
		c2.3,8.7,12.8,3.1,15.7,1.3c0.2-0.1,0.1-1.4,1.6-2.5l0.1-1.1L384.8,277.1z"/>
	<path fill="#F4DBDD" d="M391.1,259.5c0,0-5.2,0.2-6.8,2.8c-3.6,7.1,2.8,11.3,5.2,12.6c0.2,0.1,1.3,0.9,2.6-0.2l1.3,1
		c0.3-1,1.9-1.9,1.9-2C400.7,262.7,391.1,259.5,391.1,259.5z M391.6,269.2c-0.2-0.1-0.3-0.2-0.5-0.5c-0.2-0.4-0.2-0.8,0-1
		c0.2-0.1,0.6,0.1,0.8,0.5c0.2,0.4,0.2,0.8,0,1c0,0-0.1,0-0.2,0c1,1.3,1.1,5.8,1.1,5.8L391.6,269.2z"/>
	<path fill="#F4DBDD" d="M394.6,282.6c0-0.1-1-0.5-1.2-1.3l-1.6-0.3l-1.6,4.5c0.1,0.2,0.2,0.4,0.1,0.6c0,0.5-0.3,0.8-0.5,0.8
		c-0.3,0-0.5-0.4-0.5-0.8c0-0.5,0.3-0.8,0.5-0.8c0.1,0,0.1,0,0.2,0.1c-0.1-1.1,0.9-3.1,1.6-4.4l-0.6-0.1c-0.6,0.5-1.6,0.4-1.7,0.5
		c-5.8,3.5-6.2,11-6.2,11s0.8,9.6,10.7,4.4C398.2,292.6,395.4,284.8,394.6,282.6z"/>
	<path fill="#F4DBDD" d="M412.4,271.6c0,0-1.1-6-4.5-6.4c-8.6-2.6-11.9,7.5-12.6,9.8c0,0.1,0.3,0.7-0.1,1.3c0,0,0.7,1.6,0.7,1.6
		c0.3-0.2,1.8,0.7,2,0.7C413.5,279.2,412.4,271.6,412.4,271.6z M400.2,270.7c-0.1,0.4-0.4,0.7-0.7,0.6c-0.1,0-0.1,0-0.1-0.1
		c-0.2,1.6-3.4,4.9-3.4,4.9l3.3-5.1c-0.1-0.2-0.1-0.4,0-0.6c0.1-0.4,0.4-0.7,0.7-0.6C400.3,269.9,400.4,270.3,400.2,270.7z"/>
	<path fill="#F4DBDD" d="M398.2,278.9c-0.2,0-0.9,0.5-1.7,0.1l-1.6,1.9c0.4-0.2,0.4,1.3-0.1,1.9c5.9,13.9,12.6,10.9,12.6,10.9
		s3.3-1.2,4.1-3.9C413.1,281.5,401.1,279.3,398.2,278.9z M401.4,285.1c-0.1,0.2-0.6,0.2-1,0c-0.4-0.2-0.6-0.6-0.4-0.9
		c0,0,0.1-0.1,0.1-0.1c-1.5-0.6-3.8-4.5-3.8-4.5l4,4.5c0.2,0,0.4,0,0.6,0.2C401.3,284.5,401.5,284.9,401.4,285.1z"/>
	<path fill="#F4DBDD" d="M393.5,274.2c-2.2,0-4.1,1.7-4.1,3.7c0,2.1,1.8,3.7,4.1,3.7c2.2,0,4.1-1.7,4.1-3.7
		C397.5,275.8,395.7,274.2,393.5,274.2z M391.3,279.7c0,0.2-0.2,0.3-0.4,0.3s-0.3-0.2-0.3-0.3c0-0.2,0.2-0.3,0.4-0.3
		c0.1,0,0.1,0,0.2,0.1c0.1-0.4,0.9-1.2,0.9-1.2l-0.9,1.3C391.3,279.5,391.3,279.6,391.3,279.7z M391.9,275.2c-0.2,0-0.3-0.1-0.5-0.2
		c-0.2-0.1-0.2-0.3,0-0.3c0.2,0,0.6,0,0.8,0.2c0.2,0.1,0.2,0.3,0,0.3c0,0-0.1,0-0.2,0c1,0.4,1.1,2,1.1,2L391.9,275.2z M395.2,280.3
		c-0.1,0.1-0.3,0.2-0.5,0s-0.1-0.3,0-0.5c0,0,0,0,0.1-0.1c-0.7-0.2-1.3-1.9-1.3-1.9l1.3,1.9c0.1,0,0.2,0,0.3,0.1
		C395.3,279.9,395.3,280.2,395.2,280.3z M396.7,278.4c-0.1,0-0.3-0.1-0.4-0.3c0,0,0-0.1,0-0.1c-0.5,0.2-2.4-0.9-2.4-0.9l2.4,0.8
		c0-0.1,0.1-0.1,0.1-0.1c0.1,0,0.3,0.1,0.4,0.3S396.9,278.4,396.7,278.4z"/>
</g>
<g>
	<path fill="#F4DBDD" d="M123.2,115.5c-0.2,0.2-0.5,0.3-0.9,0.4c-0.7,0.1-1.3-0.2-1.3-0.6c-0.1-0.4,0.4-0.8,1.1-0.9
		c0.7-0.1,1.3,0.2,1.3,0.6c0,0.1,0,0.2,0,0.2c1.9-0.6,6.5,0.8,8.1,1.4l0-0.2c-1-2-1-3.1-1.1-3.3c-5.4-5.4-28.6-7.2-24.8,7
		c3.4,13,19.1,4.6,23.5,2c0.2-0.1,0.2-2.1,2.3-3.8l0.1-1.6L123.2,115.5z"/>
	<path fill="#F4DBDD" d="M132.6,89c0,0-7.7,0.2-10.2,4.1c-5.3,10.6,4.1,16.8,7.8,18.8c0.3,0.2,1.9,1.3,4-0.2l1.9,1.5
		c0.4-1.5,2.8-2.8,2.9-2.9C147,93.8,132.6,89,132.6,89z M133.4,103.6c-0.3-0.1-0.5-0.4-0.7-0.7c-0.3-0.6-0.3-1.2,0.1-1.4
		c0.4-0.2,0.9,0.1,1.2,0.7s0.3,1.2-0.1,1.4c-0.1,0-0.2,0.1-0.2,0.1c1.5,2,1.6,8.7,1.6,8.7L133.4,103.6z"/>
	<path fill="#F4DBDD" d="M137.8,123.7c-0.1-0.2-1.5-0.8-1.7-1.9l-2.4-0.5l-2.4,6.8c0.2,0.2,0.2,0.6,0.2,0.9c0,0.7-0.4,1.2-0.8,1.2
		c-0.4,0-0.7-0.6-0.7-1.3c0-0.7,0.4-1.2,0.8-1.2c0.1,0,0.2,0,0.2,0.1c-0.2-1.6,1.3-4.7,2.3-6.6l-0.9-0.2c-0.9,0.8-2.4,0.6-2.6,0.8
		c-8.7,5.3-9.2,16.4-9.2,16.4s1.3,14.3,16,6.5C143.2,138.5,139,126.9,137.8,123.7z"/>
	<path fill="#F4DBDD" d="M164.4,107.2c0,0-1.6-8.9-6.7-9.6c-12.8-3.9-17.9,11.3-18.8,14.6c0,0.1,0.4,1.1-0.1,1.9
		c0,0,1.1,2.4,1.1,2.4c0.5-0.3,2.8,1,3,1C166.1,118.6,164.4,107.2,164.4,107.2z M146.2,105.8c-0.2,0.6-0.7,1.1-1.1,1
		c-0.1,0-0.2-0.1-0.2-0.1c-0.3,2.5-5,7.3-5,7.3l4.9-7.6c-0.1-0.3-0.1-0.6,0-1c0.2-0.6,0.7-1.1,1.1-1S146.4,105.2,146.2,105.8z"/>
	<path fill="#F4DBDD" d="M143.2,118c-0.3,0-1.4,0.8-2.6,0.1l-2.3,2.9c0.5-0.3,0.6,1.9-0.2,2.8c8.8,20.8,18.8,16.3,18.8,16.3
		s4.9-1.8,6.2-5.8C165.5,122,147.5,118.6,143.2,118z M147.9,127.4c-0.2,0.4-0.9,0.4-1.4,0c-0.6-0.4-0.9-0.9-0.6-1.3
		c0-0.1,0.1-0.1,0.2-0.2c-2.3-0.9-5.7-6.8-5.7-6.8l6,6.7c0.3,0,0.6,0.1,0.9,0.3C147.8,126.5,148.1,127.1,147.9,127.4z"/>
	<path fill="#F4DBDD" d="M136.1,111c-3.4,0-6.1,2.5-6.1,5.6c0,3.1,2.7,5.6,6.1,5.6s6.1-2.5,6.1-5.6C142.2,113.5,139.4,111,136.1,111
		z M132.9,119.2c0,0.3-0.3,0.5-0.5,0.5c-0.3,0-0.5-0.2-0.5-0.5c0-0.3,0.3-0.5,0.5-0.5c0.1,0,0.2,0,0.3,0.1c0.2-0.6,1.4-1.7,1.4-1.7
		l-1.3,1.9C132.9,119,132.9,119.1,132.9,119.2z M133.7,112.5c-0.3,0-0.5-0.1-0.7-0.2c-0.3-0.2-0.3-0.4,0.1-0.5
		c0.4-0.1,0.9,0,1.2,0.2c0.3,0.2,0.3,0.4-0.1,0.5c-0.1,0-0.2,0-0.2,0c1.5,0.7,1.6,3,1.6,3L133.7,112.5z M138.7,120.2
		c-0.2,0.2-0.5,0.2-0.7,0.1s-0.2-0.5,0-0.7c0,0,0.1-0.1,0.1-0.1c-1.1-0.3-1.9-2.9-1.9-2.9l2,2.8c0.2-0.1,0.3,0,0.5,0.1
		C138.8,119.6,138.8,120,138.7,120.2z M141,117.3c-0.2,0-0.5-0.2-0.6-0.4c0,0,0-0.1-0.1-0.1c-0.7,0.3-3.6-1.3-3.6-1.3l3.6,1.2
		c0-0.1,0.1-0.2,0.2-0.2c0.2,0,0.5,0.2,0.6,0.4C141.3,117.1,141.2,117.3,141,117.3z"/>
</g>
<g>
	<path fill="#F4DBDD" d="M16.6,414.1c-0.3,0-0.6-0.1-0.9-0.3c-0.5-0.4-0.8-0.9-0.7-1.2c0.2-0.3,0.8-0.3,1.3,0.1
		c0.5,0.4,0.8,0.9,0.7,1.2c0,0.1-0.1,0.1-0.2,0.1c1.8,0.8,4.3,4.6,5.2,6l0.1-0.1c0.4-2,1.1-2.7,1-2.9c-0.9-7-17.1-22.8-22.4-10.9
		c-4.8,10.8,11.6,15.1,16.3,16.1c0.2,0.1,1.3-1.2,3.9-1l1-1L16.6,414.1z"/>
	<path fill="#F4DBDD" d="M38.5,402.4c0,0-5.9-4.7-9.9-3.7c-9.9,3.7-6.4,13.8-4.8,17.4c0.1,0.3,0.7,2.1,3.1,2.3l0.6,2.2
		c1.1-0.7,3.6-0.1,3.8-0.2C46.5,414.7,38.5,402.4,38.5,402.4z M30.9,412.6c-0.1-0.2-0.2-0.6-0.1-0.9c0.1-0.6,0.5-1,0.9-0.9
		c0.4,0.1,0.6,0.7,0.5,1.3c-0.1,0.6-0.5,1-0.9,0.9c-0.1,0-0.1-0.1-0.2-0.1c0,2.3-3.7,6.8-3.7,6.8L30.9,412.6z"/>
	<path fill="#F4DBDD" d="M22.8,428.8c0.1-0.2-0.7-1.5-0.2-2.3l-1.5-1.8l-5.6,3c0,0.2-0.1,0.5-0.4,0.8c-0.4,0.4-1,0.5-1.3,0.3
		c-0.3-0.3-0.2-0.8,0.2-1.3c0.4-0.4,1-0.5,1.3-0.3c0.1,0.1,0.1,0.1,0.1,0.2c0.8-1.2,3.6-2.3,5.4-2.9l-0.6-0.7
		c-1.1,0-2.1-1.1-2.4-1.1c-9.4-1.9-16.1,5.2-16.1,5.2s-7.1,10.3,8.2,14.4C18.4,442,21.9,431.7,22.8,428.8z"/>
	<path fill="#F4DBDD" d="M51.9,434.6c0,0,3.8-7,0.4-10.7c-7.4-10.7-19.6-3.7-22.2-2.1c-0.1,0.1-0.3,1-1.1,1.2c0,0-0.6,2.3-0.6,2.3
		c0.5,0.1,1.5,2.4,1.6,2.6C46.7,443.2,51.9,434.6,51.9,434.6z M39.2,422.2c-0.5,0.3-1.1,0.3-1.3,0c0-0.1-0.1-0.1-0.1-0.2
		c-1.6,1.4-7.8,1.7-7.8,1.7l7.9-2c0.1-0.2,0.3-0.5,0.5-0.6c0.5-0.3,1.1-0.3,1.3,0C39.9,421.4,39.7,421.9,39.2,422.2z"/>
	<path fill="#F4DBDD" d="M30,428.4c-0.2-0.2-1.5-0.3-2-1.6l-3.4,0.4c0.6,0.1-0.6,1.6-1.8,1.8c-5.2,19.4,4.8,22.7,4.8,22.7
		s4.7,1.9,7.9,0C44.3,445.1,32.8,431.5,30,428.4z M28.2,437.6c-0.4,0.1-0.8-0.3-1.1-0.9c-0.2-0.6-0.1-1.2,0.2-1.3c0.1,0,0.2,0,0.2,0
		c-1.2-2.1-0.4-8.1-0.4-8.1l0.7,8.2c0.2,0.2,0.4,0.4,0.5,0.8C28.7,437,28.6,437.5,28.2,437.6z"/>
	<path fill="#F4DBDD" d="M28.7,419.3c-2.5-2.1-5.9-2.2-7.7-0.1c-1.7,2-1.1,5.4,1.4,7.5s5.9,2.2,7.7,0.1S31.2,421.4,28.7,419.3z
		 M21.7,422.7c-0.2,0.2-0.5,0.1-0.7,0c-0.2-0.2-0.2-0.5-0.1-0.6s0.5-0.1,0.7,0c0.1,0.1,0.1,0.2,0.2,0.2c0.5-0.3,2-0.3,2-0.3l-2,0.4
		C21.8,422.6,21.8,422.7,21.7,422.7z M26.1,418.8c-0.2-0.2-0.3-0.4-0.4-0.6c-0.1-0.3,0-0.5,0.3-0.3c0.3,0.2,0.7,0.6,0.8,0.9
		c0.1,0.3,0,0.5-0.3,0.3c-0.1,0-0.1-0.1-0.2-0.1c0.8,1.4-0.5,3-0.5,3L26.1,418.8z M25.4,427c-0.3,0-0.5-0.1-0.5-0.4
		c0-0.2,0.1-0.5,0.4-0.5c0,0,0.1,0,0.1,0c-0.7-0.9,0.2-3.1,0.2-3.1l-0.1,3.1c0.2,0.1,0.3,0.2,0.3,0.3C25.9,426.7,25.7,427,25.4,427z
		 M28.8,426.5c-0.2-0.1-0.3-0.4-0.3-0.7c0,0,0-0.1,0-0.1c-0.7-0.3-1.9-3.2-1.9-3.2l2,3.1c0.1,0,0.2,0,0.3,0c0.2,0.1,0.3,0.4,0.3,0.7
		C29.1,426.6,29,426.6,28.8,426.5z"/>
</g>
<g>
	<path fill="#F4DBDD" d="M571.8,22.2c0,0.2-0.2,0.4-0.4,0.5c-0.4,0.3-0.8,0.3-0.9,0.1c-0.2-0.2,0-0.6,0.3-0.9
		c0.4-0.3,0.8-0.3,0.9-0.1c0,0,0.1,0.1,0.1,0.1c0.9-1,4-1.7,5.1-2l-0.1-0.1c-1.3-0.8-1.6-1.4-1.8-1.5c-4.9-1.2-18.8,5.7-11.8,12.5
		c6.4,6.2,12.5-3.9,14.1-6.9c0.1-0.2-0.6-1.2,0.1-2.9l-0.5-1L571.8,22.2z"/>
	<path fill="#F4DBDD" d="M568.3,4c0,0-4.3,2.8-4.4,5.8c0.5,7.8,8.1,8.1,10.8,8c0.2,0,1.5,0.1,2.2-1.5l1.6,0.2
		c-0.3-1,0.7-2.5,0.6-2.6C578.1,1.8,568.3,4,568.3,4z M573.6,12c-0.2,0-0.4,0-0.6-0.2c-0.4-0.2-0.6-0.6-0.4-0.8c0.1-0.2,0.6-0.2,1,0
		c0.4,0.2,0.6,0.6,0.4,0.8c0,0-0.1,0.1-0.1,0.1c1.5,0.6,3.8,4.4,3.8,4.4L573.6,12z"/>
	<path fill="#F4DBDD" d="M583,21.8c-0.1-0.1-1.2,0.1-1.6-0.5l-1.5,0.5l0.9,4.7c0.2,0.1,0.3,0.2,0.4,0.5c0.2,0.4,0.2,0.8-0.1,0.9
		c-0.2,0.1-0.6-0.1-0.8-0.5c-0.2-0.4-0.2-0.8,0.1-0.9c0,0,0.1,0,0.2,0c-0.7-0.9-0.8-3.1-0.9-4.5l-0.6,0.2c-0.2,0.8-1.1,1.2-1.2,1.3
		c-3.2,6,0.3,12.5,0.3,12.5s5.6,7.7,11.4-1.8C591,28.4,584.7,23.2,583,21.8z"/>
	<path fill="#F4DBDD" d="M592.6,3.4c0,0-4-4.5-7.1-3.1c-8.7,2.2-6.4,12.5-5.8,14.7c0,0.1,0.6,0.5,0.6,1.1c0,0,1.5,1,1.5,1
		c0.2-0.3,1.9-0.4,2.1-0.4C597.4,9.3,592.6,3.4,592.6,3.4z M581.8,8.9c0.1,0.4,0,0.8-0.3,0.9c-0.1,0-0.1,0-0.2,0
		c0.7,1.5-0.4,5.8-0.4,5.8l0.2-5.9c-0.1-0.1-0.3-0.3-0.3-0.5c-0.1-0.4,0-0.8,0.3-0.9C581.4,8.1,581.7,8.4,581.8,8.9z"/>
	<path fill="#F4DBDD" d="M584.1,16.8c-0.2,0.1-0.5,0.9-1.5,1l-0.4,2.4c0.2-0.4,1,0.9,0.8,1.7c12.1,8.8,16.3,2.8,16.3,2.8
		s2.2-2.7,1.6-5.4C598.3,11.4,586.8,15.7,584.1,16.8z M590,20.5c0,0.3-0.4,0.5-0.8,0.5c-0.4,0-0.8-0.2-0.8-0.5c0-0.1,0-0.1,0-0.2
		c-1.6,0.3-5.5-1.9-5.5-1.9l5.7,1.7c0.2-0.1,0.4-0.2,0.6-0.2C589.7,20,590,20.2,590,20.5z"/>
	<path fill="#F4DBDD" d="M577.7,15.2c-1.9,1.1-2.6,3.5-1.6,5.2s3.4,2.2,5.4,1.1c1.9-1.1,2.6-3.5,1.6-5.2
		C582,14.6,579.6,14.1,577.7,15.2z M578.6,21c0.1,0.2,0,0.4-0.2,0.4c-0.2,0.1-0.4,0-0.4-0.1c-0.1-0.2,0-0.4,0.2-0.4
		c0.1,0,0.1,0,0.2,0c-0.1-0.4,0.2-1.5,0.2-1.5l-0.1,1.5C578.6,20.9,578.6,20.9,578.6,21z M576.8,16.9c-0.2,0.1-0.3,0.1-0.5,0.1
		c-0.3,0-0.3-0.1-0.1-0.3c0.2-0.2,0.5-0.3,0.8-0.3c0.3,0,0.3,0.1,0.1,0.3c0,0-0.1,0.1-0.1,0.1c1.1-0.1,1.9,1.1,1.9,1.1L576.8,16.9z
		 M582.3,19.6c0,0.2-0.2,0.3-0.4,0.3c-0.2,0-0.3-0.2-0.3-0.4c0,0,0-0.1,0-0.1c-0.7,0.2-2.1-1-2.1-1l2.1,0.9c0.1-0.1,0.2-0.1,0.3-0.1
		C582.2,19.2,582.3,19.4,582.3,19.6z M582.6,17.1c-0.1,0.1-0.3,0.1-0.5,0c0,0-0.1,0-0.1-0.1c-0.3,0.4-2.5,0.5-2.5,0.5L582,17
		c0-0.1,0-0.1,0.1-0.2c0.1-0.1,0.3-0.1,0.5,0C582.7,16.9,582.7,17,582.6,17.1z"/>
</g>
<g>
	<path fill="#F1BDC9" d="M183.6,247.5c-0.4-0.2-0.9-0.5-1.3-1.1c-0.7-1-0.9-2.1-0.4-2.5c0.5-0.4,1.5,0,2.3,1c0.7,1,0.9,2.1,0.4,2.5
		c-0.1,0.1-0.2,0.1-0.4,0.1c2.5,2.5,4.6,10.7,5.3,13.7l0.3-0.1c2-3.2,3.5-4,3.6-4.4c2.8-12.7-15.3-50.3-32-33
		c-15.2,15.7,10.6,33.4,18.2,38.1c0.4,0.2,3.1-1.3,7.4,0.6l2.4-1.1L183.6,247.5z"/>
	<path fill="#F1BDC9" d="M228.9,240.9c0,0-7.2-11.8-14.9-12.6c-19.5,0.2-19.9,19.9-19.3,27.2c0,0.6,0,4,3.9,6l-0.4,4.2
		c2.4-0.6,6.4,2.1,6.7,2.1C235.1,267.1,228.9,240.9,228.9,240.9z M209.3,253.7c-0.1-0.5,0.1-1.1,0.4-1.6c0.5-1,1.5-1.4,2.1-1
		c0.6,0.4,0.7,1.5,0.1,2.5s-1.5,1.4-2.1,1c-0.1-0.1-0.2-0.2-0.3-0.3c-1.4,3.9-10.8,9.4-10.8,9.4L209.3,253.7z"/>
	<path fill="#F1BDC9" d="M185.2,276.8c0.2-0.3-0.2-3,1.1-4.2l-1.4-4.1l-11.6,1.7c-0.2,0.4-0.6,0.8-1.1,1.1c-1,0.5-2,0.3-2.4-0.3
		c-0.3-0.7,0.2-1.6,1.1-2.1c1-0.5,2-0.3,2.4,0.3c0.1,0.1,0.1,0.3,0.1,0.4c2.1-1.6,7.7-1.7,11.3-1.7l-0.5-1.6c-1.9-0.8-3-3.2-3.4-3.4
		c-15.1-9.2-31.2-1.1-31.2-1.1s-18.9,13.4,5.2,30.2C169.2,297,181.8,281.2,185.2,276.8z"/>
	<path fill="#F1BDC9" d="M232,305.1c0,0,11-9.7,7.5-18.2c-6.1-23.1-31.7-18.8-37.2-17.6c-0.2,0-1.2,1.6-2.7,1.4c0,0-2.4,3.7-2.4,3.7
		c0.8,0.5,1,5.1,1.2,5.5C217.5,316.7,232,305.1,232,305.1z M217.7,275.6c-1.1,0.2-2.1-0.2-2.3-0.9c0-0.1,0-0.3,0-0.4
		c-3.7,1.5-14.7-2-14.7-2l14.9,1.5c0.3-0.4,0.8-0.6,1.4-0.8c1.1-0.2,2.1,0.2,2.3,0.9S218.7,275.4,217.7,275.6z"/>
	<path fill="#F1BDC9" d="M197.9,280.6c-0.2-0.4-2.3-1.5-2.5-4l-6.1-1.3c0.9,0.6-2.1,2.4-4.2,1.9c-21.3,30.4-6,42.3-6,42.3
		s7,6.2,13.7,4.9C212.2,318.7,200.8,287.8,197.9,280.6z M189,295.5c-0.7-0.1-1.3-1.1-1.3-2.2c0-1.2,0.5-2.1,1.2-2
		c0.1,0,0.3,0.1,0.4,0.2c-0.7-4.3,4.4-14.3,4.4-14.3l-4,14.7c0.3,0.4,0.5,1,0.5,1.7C190.2,294.7,189.6,295.6,189,295.5z"/>
	<path fill="#F1BDC9" d="M201.4,264c-3-5.2-8.9-7.5-13.2-5c-4.3,2.5-5.4,8.7-2.4,13.9s8.9,7.5,13.2,5
		C203.3,275.4,204.4,269.2,201.4,264z M187,265.6c-0.4,0.2-0.9,0-1.1-0.5c-0.2-0.4-0.1-0.9,0.3-1.1c0.4-0.2,0.9,0,1.1,0.5
		c0.1,0.2,0.1,0.4,0.1,0.5c1-0.2,3.7,0.8,3.7,0.8l-3.8-0.5C187.2,265.4,187.2,265.5,187,265.6z M197.1,261.5
		c-0.2-0.4-0.3-0.9-0.3-1.2c0-0.7,0.3-0.8,0.7-0.3c0.4,0.5,0.8,1.5,0.8,2.1c0,0.7-0.3,0.8-0.7,0.3c-0.1-0.1-0.2-0.2-0.2-0.4
		c0.4,2.9-2.7,4.8-2.7,4.8L197.1,261.5z M190.8,275.3c-0.5-0.1-0.8-0.5-0.7-1s0.5-0.7,1-0.6c0.1,0,0.2,0,0.2,0.1
		c-0.6-2,2.3-5.3,2.3-5.3l-2.1,5.4c0.2,0.2,0.4,0.5,0.3,0.8C191.7,275.2,191.3,275.4,190.8,275.3z M196.9,276.6
		c-0.2-0.3-0.2-0.9,0-1.3c0-0.1,0.1-0.1,0.1-0.2c-1-0.8-1.4-6.7-1.4-6.7l1.5,6.6c0.2,0,0.3,0,0.4,0.2c0.2,0.3,0.2,0.9,0,1.3
		C197.5,276.9,197.2,277,196.9,276.6z"/>
</g>
</svg>
