<?xml version="1.0" encoding="utf-8"?>
<!-- Generator: Adobe Illustrator 18.1.1, SVG Export Plug-In . SVG Version: 6.00 Build 0)  -->
<svg version="1.1" id="Layer_1" xmlns="http://www.w3.org/2000/svg" xmlns:xlink="http://www.w3.org/1999/xlink" x="0px" y="0px"
	 viewBox="0 0 601.1 451.3" enable-background="new 0 0 601.1 451.3" xml:space="preserve">
<path fill="#F1BCC9" d="M328.7,296.5c0.5-0.4,1.2-0.8,2-0.9c1.5-0.2,2.9,0.4,3,1.4c0.1,0.9-1,1.8-2.6,2c-1.5,0.2-2.9-0.4-3-1.4
	c0-0.2,0-0.4,0.1-0.6c-4.4,1.3-14.7-2.2-18.4-3.6l0,0.4c2.1,4.7,2,7.2,2.4,7.6c12,12.6,64.7,18,56.9-14.8
	c-7.1-29.8-43.3-11.5-53.4-5.7c-0.5,0.3-0.6,4.7-5.5,8.5l-0.3,3.7L328.7,296.5z"/>
<path fill="#F1BCC9" d="M306,356.3c0,0,17.6-0.1,23.4-8.9c12.7-23.8-8.6-38.6-16.8-43.3c-0.7-0.4-4.4-3-9,0.3l-4.4-3.5
	c-0.9,3.3-6.5,6.2-6.7,6.6C273.4,344.7,306,356.3,306,356.3z M305,323.2c0.6,0.3,1.1,0.8,1.5,1.6c0.7,1.4,0.6,2.8-0.2,3.3
	s-2.1-0.3-2.8-1.7c-0.7-1.4-0.6-2.8,0.2-3.3c0.2-0.1,0.4-0.1,0.5-0.1c-3.4-4.6-3.2-19.9-3.2-19.9L305,323.2z"/>
<path fill="#F1BCC9" d="M295.8,277.1c0.1,0.4,3.5,1.9,3.8,4.4l5.3,1.3l5.8-15.3c-0.3-0.5-0.5-1.3-0.4-2.2c0.1-1.5,1-2.7,1.9-2.6
	c0.9,0.1,1.6,1.4,1.5,2.9s-1,2.7-1.9,2.6c-0.2,0-0.4-0.1-0.5-0.2c0.3,3.7-3.2,10.7-5.6,14.9l2.1,0.5c2.1-1.8,5.4-1.3,5.9-1.6
	c20-11.6,21.8-37,21.8-37s-2.1-32.7-36.2-15.7C284.4,243,293.3,269.7,295.8,277.1z"/>
<path fill="#F1BCC9" d="M234.3,313.3c0,0,3.3,20.4,14.9,22.3c29.1,9.4,41.3-24.8,43.6-32.3c0.1-0.3-0.9-2.6,0.3-4.3
	c0,0-2.4-5.6-2.4-5.6c-1,0.6-6.2-2.5-6.8-2.5C231.2,287.3,234.3,313.3,234.3,313.3z M275.7,317.3c0.5-1.5,1.6-2.4,2.5-2.1
	c0.2,0.1,0.3,0.2,0.5,0.3c0.8-5.6,11.9-16.3,11.9-16.3l-11.5,17c0.2,0.6,0.2,1.4-0.1,2.2c-0.5,1.5-1.6,2.4-2.5,2.1
	C275.6,320.2,275.2,318.8,275.7,317.3z"/>
<path fill="#F1BCC9" d="M283.3,289.7c0.6,0.1,3.2-1.7,6-0.2l5.5-6.4c-1.3,0.7-1.3-4.3,0.6-6.5c-19-47.9-42-38-42-38
	s-11.3,3.9-14.4,13C232.6,279.4,273.6,288.1,283.3,289.7z M273,268.1c0.5-0.8,2-0.8,3.3,0.1c1.3,0.8,1.9,2.2,1.4,2.9
	c-0.1,0.2-0.3,0.3-0.4,0.4c5.2,2.3,12.6,15.8,12.6,15.8l-13.3-15.6c-0.6,0-1.4-0.2-2.1-0.6C273.1,270.2,272.5,268.8,273,268.1z"/>
<path fill="#F1BCC9" d="M299.1,306.1c7.6,0.2,14-5.4,14.1-12.4s-5.9-12.8-13.5-13c-7.6-0.2-14,5.4-14.1,12.4
	S291.5,305.9,299.1,306.1z M306.8,287.5c0.1-0.6,0.6-1.1,1.3-1c0.6,0,1.1,0.5,1,1.1c-0.1,0.6-0.6,1.1-1.3,1c-0.3,0-0.5-0.1-0.6-0.2
	c-0.4,1.4-3.3,3.9-3.3,3.9l3-4.3C306.8,287.9,306.8,287.7,306.8,287.5z M304.6,302.7c0.6,0.1,1.1,0.3,1.5,0.6c0.7,0.5,0.6,1-0.2,1.1
	c-0.8,0.1-2.1-0.1-2.8-0.6c-0.7-0.5-0.6-1,0.2-1.1c0.2,0,0.4,0,0.6,0c-3.4-1.6-3.5-6.8-3.5-6.8L304.6,302.7z M293.7,285
	c0.4-0.5,1.1-0.5,1.5-0.1c0.4,0.4,0.5,1.1,0.1,1.6c-0.1,0.1-0.2,0.2-0.2,0.2c2.5,0.7,4.2,6.6,4.2,6.6l-4.4-6.5
	c-0.4,0.1-0.8,0.1-1.1-0.2C293.3,286.2,293.3,285.5,293.7,285z M288.3,291.5c0.5,0,1.1,0.4,1.4,0.9c0.1,0.1,0.1,0.2,0.1,0.3
	c1.6-0.6,8.2,3.2,8.2,3.2l-8.2-2.9c-0.1,0.2-0.2,0.4-0.5,0.4c-0.5,0-1.1-0.4-1.4-0.9C287.6,291.9,287.8,291.5,288.3,291.5z"/>
<g>
	<path fill="#F1BDC9" d="M101.3,294c0.1-0.1,0.3-0.2,0.5-0.2c0.4,0,0.7,0.1,0.7,0.3c0,0.2-0.3,0.5-0.6,0.5s-0.7-0.1-0.7-0.3
		c0,0,0-0.1,0-0.1c-1.1,0.3-3.6-0.5-4.5-0.9l0,0.1c0.5,1.2,0.5,1.8,0.6,1.9c3,3.1,16,4.4,14-3.7c-1.8-7.4-10.7-2.8-13.2-1.4
		c-0.1,0.1-0.1,1.2-1.4,2.1l-0.1,0.9L101.3,294z"/>
	<path fill="#F1BDC9" d="M95.7,308.7c0,0,4.3,0,5.8-2.2c3.1-5.9-2.1-9.5-4.2-10.7c-0.2-0.1-1.1-0.7-2.2,0.1l-1.1-0.9
		c-0.2,0.8-1.6,1.5-1.6,1.6C87.7,305.8,95.7,308.7,95.7,308.7z M95.5,300.5c0.1,0.1,0.3,0.2,0.4,0.4c0.2,0.3,0.1,0.7-0.1,0.8
		c-0.2,0.1-0.5-0.1-0.7-0.4c-0.2-0.3-0.1-0.7,0.1-0.8c0,0,0.1,0,0.1,0c-0.8-1.1-0.8-4.9-0.8-4.9L95.5,300.5z"/>
	<path fill="#F1BDC9" d="M93.2,289.1c0,0.1,0.9,0.5,0.9,1.1l1.3,0.3l1.4-3.8c-0.1-0.1-0.1-0.3-0.1-0.5c0-0.4,0.2-0.7,0.5-0.7
		c0.2,0,0.4,0.3,0.4,0.7c0,0.4-0.2,0.7-0.5,0.7c0,0-0.1,0-0.1,0c0.1,0.9-0.8,2.6-1.4,3.7l0.5,0.1c0.5-0.4,1.3-0.3,1.5-0.4
		c4.9-2.9,5.4-9.1,5.4-9.1s-0.5-8.1-8.9-3.9C90.4,280.7,92.6,287.3,93.2,289.1z"/>
	<path fill="#F1BDC9" d="M78.1,298.1c0,0,0.8,5,3.7,5.5c7.2,2.3,10.2-6.1,10.8-8c0-0.1-0.2-0.6,0.1-1.1c0,0-0.6-1.4-0.6-1.4
		c-0.3,0.1-1.5-0.6-1.7-0.6C77.3,291.7,78.1,298.1,78.1,298.1z M88.3,299.1c0.1-0.4,0.4-0.6,0.6-0.5c0,0,0.1,0,0.1,0.1
		c0.2-1.4,2.9-4,2.9-4l-2.8,4.2c0,0.1,0,0.3,0,0.5c-0.1,0.4-0.4,0.6-0.6,0.5C88.2,299.8,88.1,299.4,88.3,299.1z"/>
	<path fill="#F1BDC9" d="M90.1,292.3c0.1,0,0.8-0.4,1.5,0l1.4-1.6c-0.3,0.2-0.3-1.1,0.2-1.6c-4.7-11.8-10.4-9.4-10.4-9.4
		s-2.8,1-3.6,3.2C77.6,289.7,87.7,291.9,90.1,292.3z M87.6,286.9c0.1-0.2,0.5-0.2,0.8,0s0.5,0.5,0.3,0.7c0,0-0.1,0.1-0.1,0.1
		c1.3,0.6,3.1,3.9,3.1,3.9l-3.3-3.8c-0.2,0-0.3,0-0.5-0.2C87.6,287.4,87.5,287.1,87.6,286.9z"/>
	<path fill="#F1BDC9" d="M94,296.3c1.9,0,3.4-1.3,3.5-3.1c0-1.7-1.5-3.2-3.3-3.2c-1.9,0-3.4,1.3-3.5,3.1S92.2,296.3,94,296.3z
		 M95.9,291.7c0-0.1,0.2-0.3,0.3-0.3c0.2,0,0.3,0.1,0.3,0.3s-0.2,0.3-0.3,0.3c-0.1,0-0.1,0-0.2-0.1c-0.1,0.3-0.8,1-0.8,1l0.7-1.1
		C95.9,291.8,95.9,291.8,95.9,291.7z M95.4,295.5c0.1,0,0.3,0.1,0.4,0.1c0.2,0.1,0.2,0.2,0,0.3c-0.2,0-0.5,0-0.7-0.2
		c-0.2-0.1-0.2-0.2,0-0.3c0,0,0.1,0,0.1,0c-0.9-0.4-0.9-1.7-0.9-1.7L95.4,295.5z M92.7,291.1c0.1-0.1,0.3-0.1,0.4,0
		c0.1,0.1,0.1,0.3,0,0.4c0,0,0,0-0.1,0.1c0.6,0.2,1,1.6,1,1.6l-1.1-1.6c-0.1,0-0.2,0-0.3-0.1C92.6,291.4,92.6,291.2,92.7,291.1z
		 M91.4,292.7c0.1,0,0.3,0.1,0.4,0.2c0,0,0,0.1,0,0.1c0.4-0.1,2,0.8,2,0.8l-2-0.7c0,0.1-0.1,0.1-0.1,0.1c-0.1,0-0.3-0.1-0.4-0.2
		C91.2,292.8,91.2,292.7,91.4,292.7z"/>
</g>
<g>
	<path fill="#F1BDC9" d="M576.7,186.6c0.1-0.1,0.3-0.2,0.6-0.3c0.4-0.1,0.8,0.1,0.8,0.4c0,0.3-0.3,0.5-0.7,0.6
		c-0.4,0.1-0.8-0.1-0.8-0.4c0-0.1,0-0.1,0-0.2c-1.3,0.4-4.2-0.7-5.2-1.1l0,0.1c0.6,1.4,0.6,2.1,0.7,2.2c3.4,3.7,18.4,5.3,16.2-4.4
		c-2-8.8-12.3-3.4-15.2-1.7c-0.1,0.1-0.2,1.4-1.6,2.5l-0.1,1.1L576.7,186.6z"/>
	<path fill="#F1BDC9" d="M570.2,204.2c0,0,5,0,6.7-2.6c3.6-7-2.4-11.4-4.8-12.8c-0.2-0.1-1.2-0.9-2.6,0.1l-1.2-1
		c-0.3,1-1.8,1.8-1.9,1.9C561,200.8,570.2,204.2,570.2,204.2z M569.9,194.5c0.2,0.1,0.3,0.2,0.4,0.5c0.2,0.4,0.2,0.8-0.1,1
		s-0.6-0.1-0.8-0.5c-0.2-0.4-0.2-0.8,0.1-1c0,0,0.1,0,0.2,0c-1-1.3-0.9-5.9-0.9-5.9L569.9,194.5z"/>
	<path fill="#F1BDC9" d="M567.3,180.9c0,0.1,1,0.6,1.1,1.3l1.5,0.4l1.7-4.5c-0.1-0.2-0.1-0.4-0.1-0.6c0-0.5,0.3-0.8,0.5-0.8
		c0.3,0,0.5,0.4,0.4,0.9s-0.3,0.8-0.5,0.8c-0.1,0-0.1,0-0.2-0.1c0.1,1.1-0.9,3.1-1.6,4.4l0.6,0.2c0.6-0.5,1.5-0.4,1.7-0.5
		c5.7-3.4,6.2-10.9,6.2-10.9s-0.6-9.6-10.3-4.6C564.1,170.8,566.6,178.7,567.3,180.9z"/>
	<path fill="#F1BDC9" d="M549.8,191.6c0,0,0.9,6,4.2,6.6c8.3,2.8,11.8-7.3,12.4-9.5c0-0.1-0.3-0.8,0.1-1.3c0,0-0.7-1.7-0.7-1.7
		c-0.3,0.2-1.8-0.7-1.9-0.7C548.9,183.9,549.8,191.6,549.8,191.6z M561.6,192.7c0.1-0.4,0.4-0.7,0.7-0.6c0.1,0,0.1,0,0.1,0.1
		c0.2-1.7,3.4-4.8,3.4-4.8l-3.3,5c0.1,0.2,0.1,0.4,0,0.7c-0.1,0.4-0.4,0.7-0.7,0.6C561.6,193.6,561.5,193.2,561.6,192.7z"/>
	<path fill="#F1BDC9" d="M563.8,184.6c0.2,0,0.9-0.5,1.7-0.1l1.6-1.9c-0.4,0.2-0.4-1.3,0.2-1.9c-5.4-14.1-11.9-11.2-11.9-11.2
		s-3.2,1.2-4.1,3.8C549.3,181.6,561,184.1,563.8,184.6z M560.9,178.2c0.1-0.2,0.6-0.2,0.9,0s0.5,0.6,0.4,0.9c0,0-0.1,0.1-0.1,0.1
		c1.5,0.7,3.6,4.6,3.6,4.6l-3.8-4.6c-0.2,0-0.4-0.1-0.6-0.2C560.9,178.8,560.7,178.4,560.9,178.2z"/>
	<path fill="#F1BDC9" d="M568.3,189.4c2.2,0,4-1.6,4-3.7c0-2.1-1.7-3.8-3.9-3.8c-2.2,0-4,1.6-4,3.7
		C564.4,187.7,566.1,189.4,568.3,189.4z M570.5,183.9c0-0.2,0.2-0.3,0.4-0.3c0.2,0,0.3,0.2,0.3,0.3c0,0.2-0.2,0.3-0.4,0.3
		c-0.1,0-0.1,0-0.2-0.1c-0.1,0.4-0.9,1.2-0.9,1.2l0.9-1.3C570.5,184.1,570.5,184,570.5,183.9z M569.8,188.4c0.2,0,0.3,0.1,0.4,0.2
		c0.2,0.1,0.2,0.3-0.1,0.3c-0.2,0-0.6,0-0.8-0.2c-0.2-0.1-0.2-0.3,0.1-0.3c0,0,0.1,0,0.2,0c-1-0.5-1-2-1-2L569.8,188.4z
		 M566.7,183.2c0.1-0.1,0.3-0.2,0.4,0c0.1,0.1,0.1,0.3,0,0.5c0,0,0,0-0.1,0.1c0.7,0.2,1.2,2,1.2,2l-1.3-1.9c-0.1,0-0.2,0-0.3-0.1
		C566.6,183.6,566.6,183.3,566.7,183.2z M565.2,185.1c0.1,0,0.3,0.1,0.4,0.3c0,0,0,0.1,0,0.1c0.4-0.2,2.3,1,2.3,1l-2.3-0.9
		c0,0.1-0.1,0.1-0.1,0.1c-0.1,0-0.3-0.1-0.4-0.3S565.1,185.1,565.2,185.1z"/>
</g>
<g>
	<path fill="#F1BDC9" d="M518.4,224.8c0.1-0.1,0.3-0.2,0.6-0.3c0.4-0.1,0.8,0.1,0.8,0.4c0,0.3-0.3,0.5-0.7,0.6
		c-0.4,0.1-0.8-0.1-0.8-0.4c0-0.1,0-0.1,0-0.2c-1.3,0.4-4.2-0.7-5.2-1.1l0,0.1c0.6,1.4,0.6,2.1,0.7,2.2c3.4,3.7,18.4,5.3,16.2-4.4
		c-2-8.8-12.3-3.4-15.2-1.7c-0.1,0.1-0.2,1.4-1.6,2.5l-0.1,1.1L518.4,224.8z"/>
	<path fill="#F1BDC9" d="M511.9,242.5c0,0,5,0,6.7-2.6c3.6-7-2.4-11.4-4.8-12.8c-0.2-0.1-1.2-0.9-2.6,0.1l-1.2-1
		c-0.3,1-1.8,1.8-1.9,1.9C502.6,239.1,511.9,242.5,511.9,242.5z M511.6,232.7c0.2,0.1,0.3,0.2,0.4,0.5c0.2,0.4,0.2,0.8-0.1,1
		s-0.6-0.1-0.8-0.5s-0.2-0.8,0.1-1c0,0,0.1,0,0.2,0c-1-1.3-0.9-5.9-0.9-5.9L511.6,232.7z"/>
	<path fill="#F1BDC9" d="M509,219.1c0,0.1,1,0.6,1.1,1.3l1.5,0.4l1.7-4.5c-0.1-0.2-0.1-0.4-0.1-0.6c0-0.5,0.3-0.8,0.5-0.8
		c0.3,0,0.5,0.4,0.4,0.9c0,0.5-0.3,0.8-0.5,0.8c-0.1,0-0.1,0-0.2-0.1c0.1,1.1-0.9,3.1-1.6,4.4l0.6,0.2c0.6-0.5,1.5-0.4,1.7-0.5
		c5.7-3.4,6.2-10.9,6.2-10.9s-0.6-9.6-10.3-4.6C505.8,209,508.3,216.9,509,219.1z"/>
	<path fill="#F1BDC9" d="M491.5,229.8c0,0,0.9,6,4.2,6.6c8.3,2.8,11.8-7.3,12.4-9.5c0-0.1-0.3-0.8,0.1-1.3c0,0-0.7-1.7-0.7-1.7
		c-0.3,0.2-1.8-0.7-1.9-0.7C490.6,222.1,491.5,229.8,491.5,229.8z M503.3,231c0.1-0.4,0.4-0.7,0.7-0.6c0.1,0,0.1,0,0.1,0.1
		c0.2-1.7,3.4-4.8,3.4-4.8l-3.3,5c0.1,0.2,0.1,0.4,0,0.7c-0.1,0.4-0.4,0.7-0.7,0.6C503.2,231.8,503.1,231.4,503.3,231z"/>
	<path fill="#F1BDC9" d="M505.4,222.8c0.2,0,0.9-0.5,1.7-0.1l1.6-1.9c-0.4,0.2-0.4-1.3,0.2-1.9c-5.4-14.1-11.9-11.2-11.9-11.2
		s-3.2,1.2-4.1,3.8C491,219.8,502.7,222.4,505.4,222.8z M502.5,216.5c0.1-0.2,0.6-0.2,0.9,0c0.4,0.2,0.5,0.6,0.4,0.9
		c0,0-0.1,0.1-0.1,0.1c1.5,0.7,3.6,4.6,3.6,4.6l-3.8-4.6c-0.2,0-0.4-0.1-0.6-0.2C502.5,217.1,502.4,216.7,502.5,216.5z"/>
	<path fill="#F1BDC9" d="M509.9,227.7c2.2,0,4-1.6,4-3.7c0-2.1-1.7-3.8-3.9-3.8c-2.2,0-4,1.6-4,3.7
		C506,225.9,507.8,227.6,509.9,227.7z M512.1,222.2c0-0.2,0.2-0.3,0.4-0.3c0.2,0,0.3,0.2,0.3,0.3c0,0.2-0.2,0.3-0.4,0.3
		c-0.1,0-0.1,0-0.2-0.1c-0.1,0.4-0.9,1.2-0.9,1.2l0.9-1.3C512.1,222.3,512.1,222.2,512.1,222.2z M511.5,226.7c0.2,0,0.3,0.1,0.4,0.2
		c0.2,0.1,0.2,0.3-0.1,0.3c-0.2,0-0.6,0-0.8-0.2c-0.2-0.1-0.2-0.3,0.1-0.3c0,0,0.1,0,0.2,0c-1-0.5-1-2-1-2L511.5,226.7z
		 M508.4,221.5c0.1-0.1,0.3-0.2,0.4,0c0.1,0.1,0.1,0.3,0,0.5c0,0,0,0-0.1,0.1c0.7,0.2,1.2,2,1.2,2l-1.3-1.9c-0.1,0-0.2,0-0.3-0.1
		C508.3,221.8,508.3,221.6,508.4,221.5z M506.9,223.4c0.1,0,0.3,0.1,0.4,0.3c0,0,0,0.1,0,0.1c0.4-0.2,2.3,1,2.3,1l-2.3-0.9
		c0,0.1-0.1,0.1-0.1,0.1c-0.1,0-0.3-0.1-0.4-0.3C506.7,223.5,506.7,223.4,506.9,223.4z"/>
</g>
<g>
	<path fill="#F4DBDD" d="M185.2,289.8c0.2-0.2,0.5-0.3,0.9-0.4c0.7-0.1,1.3,0.2,1.3,0.6s-0.5,0.8-1.1,0.9c-0.7,0.1-1.3-0.2-1.3-0.6
		c0-0.1,0-0.2,0-0.2c-1.9,0.5-6.4-1-8.1-1.6l0,0.2c0.9,2.1,0.9,3.2,1.1,3.3c5.3,5.5,28.4,7.9,25-6.5c-3.1-13.1-19-5-23.4-2.5
		c-0.2,0.1-0.3,2.1-2.4,3.7l-0.2,1.6L185.2,289.8z"/>
	<path fill="#F4DBDD" d="M175.3,316c0,0,7.7-0.1,10.3-3.9c5.6-10.4-3.8-16.9-7.4-19c-0.3-0.2-1.9-1.3-4,0.1l-1.9-1.6
		c-0.4,1.5-2.8,2.7-2.9,2.9C161,310.9,175.3,316,175.3,316z M174.8,301.5c0.2,0.1,0.5,0.4,0.7,0.7c0.3,0.6,0.3,1.2-0.1,1.4
		s-0.9-0.1-1.2-0.7c-0.3-0.6-0.3-1.2,0.1-1.4c0.1,0,0.2-0.1,0.2-0.1c-1.5-2-1.4-8.7-1.4-8.7L174.8,301.5z"/>
	<path fill="#F4DBDD" d="M170.8,281.3c0.1,0.2,1.5,0.8,1.7,1.9l2.3,0.6l2.6-6.7c-0.1-0.2-0.2-0.6-0.2-0.9c0.1-0.7,0.4-1.2,0.8-1.2
		c0.4,0,0.7,0.6,0.7,1.3c-0.1,0.7-0.4,1.2-0.8,1.2c-0.1,0-0.2,0-0.2-0.1c0.1,1.6-1.4,4.7-2.5,6.5l0.9,0.2c0.9-0.8,2.4-0.6,2.6-0.7
		c8.8-5.1,9.6-16.2,9.6-16.2s-0.9-14.3-15.9-6.9C165.8,266.3,169.7,278.1,170.8,281.3z"/>
	<path fill="#F4DBDD" d="M143.8,297.2c0,0,1.4,9,6.5,9.8c12.7,4.1,18.1-10.9,19.1-14.2c0-0.1-0.4-1.1,0.1-1.9c0,0-1-2.5-1.1-2.5
		c-0.5,0.2-2.7-1.1-3-1.1C142.5,285.8,143.8,297.2,143.8,297.2z M162,298.9c0.2-0.6,0.7-1.1,1.1-0.9c0.1,0,0.1,0.1,0.2,0.1
		c0.4-2.5,5.2-7.2,5.2-7.2l-5,7.4c0.1,0.3,0.1,0.6,0,1c-0.2,0.6-0.7,1.1-1.1,0.9C162,300.2,161.8,299.6,162,298.9z"/>
	<path fill="#F4DBDD" d="M165.3,286.8c0.3,0,1.4-0.8,2.6-0.1l2.4-2.8c-0.6,0.3-0.6-1.9,0.3-2.8c-8.4-21-18.4-16.7-18.4-16.7
		s-5,1.7-6.3,5.7C143.1,282.3,161.1,286.1,165.3,286.8z M160.8,277.3c0.2-0.3,0.9-0.3,1.4,0c0.6,0.4,0.8,0.9,0.6,1.3
		c0,0.1-0.1,0.1-0.2,0.2c2.3,1,5.5,6.9,5.5,6.9l-5.9-6.8c-0.3,0-0.6-0.1-0.9-0.3C160.9,278.3,160.6,277.7,160.8,277.3z"/>
	<path fill="#F4DBDD" d="M172.3,294c3.4,0.1,6.1-2.4,6.2-5.4c0.1-3.1-2.6-5.6-5.9-5.7c-3.4-0.1-6.1,2.4-6.2,5.4
		S168.9,293.9,172.3,294z M175.6,285.9c0-0.3,0.3-0.5,0.6-0.5c0.3,0,0.5,0.2,0.5,0.5s-0.3,0.5-0.6,0.5c-0.1,0-0.2,0-0.3-0.1
		c-0.2,0.6-1.5,1.7-1.5,1.7l1.3-1.9C175.7,286,175.6,285.9,175.6,285.9z M174.7,292.5c0.2,0,0.5,0.1,0.7,0.2
		c0.3,0.2,0.3,0.4-0.1,0.5s-0.9-0.1-1.2-0.3c-0.3-0.2-0.3-0.4,0.1-0.5c0.1,0,0.2,0,0.2,0c-1.5-0.7-1.5-3-1.5-3L174.7,292.5z
		 M169.9,284.8c0.2-0.2,0.5-0.2,0.7-0.1c0.2,0.2,0.2,0.5,0,0.7c0,0-0.1,0.1-0.1,0.1c1.1,0.3,1.8,2.9,1.8,2.9l-1.9-2.9
		c-0.2,0.1-0.3,0-0.5-0.1C169.7,285.3,169.7,285,169.9,284.8z M167.5,287.6c0.2,0,0.5,0.2,0.6,0.4c0,0,0,0.1,0,0.1
		c0.7-0.3,3.6,1.4,3.6,1.4l-3.6-1.3c0,0.1-0.1,0.2-0.2,0.2c-0.2,0-0.5-0.2-0.6-0.4S167.3,287.6,167.5,287.6z"/>
</g>
<g>
	<path fill="#F4DBDD" d="M242.1,397.4c0.1-0.1,0.3-0.2,0.6-0.3c0.4-0.1,0.8,0.1,0.9,0.4c0,0.3-0.3,0.5-0.8,0.6
		c-0.4,0.1-0.8-0.1-0.9-0.4c0-0.1,0-0.1,0-0.2c-1.3,0.4-4.3-0.7-5.4-1.1l0,0.1c0.6,1.4,0.6,2.1,0.7,2.2c3.5,3.7,19,5.3,16.7-4.3
		c-2.1-8.8-12.7-3.4-15.7-1.7c-0.2,0.1-0.2,1.4-1.6,2.5l-0.1,1.1L242.1,397.4z"/>
	<path fill="#F4DBDD" d="M235.4,414.9c0,0,5.2,0,6.9-2.6c3.7-7-2.5-11.3-4.9-12.7c-0.2-0.1-1.3-0.9-2.7,0.1l-1.3-1
		c-0.3,1-1.9,1.8-2,1.9C225.9,411.5,235.4,414.9,235.4,414.9z M235.1,405.2c0.2,0.1,0.3,0.2,0.4,0.5c0.2,0.4,0.2,0.8-0.1,1
		c-0.2,0.1-0.6-0.1-0.8-0.5c-0.2-0.4-0.2-0.8,0.1-1c0,0,0.1,0,0.2,0c-1-1.3-0.9-5.8-0.9-5.8L235.1,405.2z"/>
	<path fill="#F4DBDD" d="M232.4,391.6c0,0.1,1,0.6,1.1,1.3l1.6,0.4l1.7-4.5c-0.1-0.2-0.1-0.4-0.1-0.6c0-0.4,0.3-0.8,0.6-0.8
		c0.3,0,0.5,0.4,0.4,0.9c0,0.4-0.3,0.8-0.6,0.8c-0.1,0-0.1,0-0.2-0.1c0.1,1.1-0.9,3.1-1.7,4.4l0.6,0.2c0.6-0.5,1.6-0.4,1.7-0.5
		c5.9-3.4,6.4-10.9,6.4-10.9s-0.6-9.6-10.6-4.6C229.1,381.6,231.7,389.5,232.4,391.6z"/>
	<path fill="#F4DBDD" d="M214.4,402.3c0,0,1,6,4.4,6.5c8.5,2.8,12.1-7.3,12.8-9.5c0-0.1-0.3-0.8,0.1-1.3c0,0-0.7-1.6-0.7-1.6
		c-0.3,0.2-1.8-0.7-2-0.7C213.5,394.6,214.4,402.3,214.4,402.3z M226.5,403.5c0.1-0.4,0.5-0.7,0.7-0.6c0.1,0,0.1,0,0.1,0.1
		c0.2-1.6,3.5-4.8,3.5-4.8l-3.4,5c0.1,0.2,0.1,0.4,0,0.6c-0.1,0.4-0.5,0.7-0.7,0.6S226.4,403.9,226.5,403.5z"/>
	<path fill="#F4DBDD" d="M228.8,395.4c0.2,0,0.9-0.5,1.7,0l1.6-1.9c-0.4,0.2-0.4-1.3,0.2-1.9c-5.6-14.1-12.3-11.2-12.3-11.2
		s-3.3,1.2-4.2,3.8C213.9,392.3,225.9,394.9,228.8,395.4z M225.8,389c0.2-0.2,0.6-0.2,1,0s0.6,0.6,0.4,0.9c0,0-0.1,0.1-0.1,0.1
		c1.5,0.7,3.7,4.6,3.7,4.6l-3.9-4.6c-0.2,0-0.4-0.1-0.6-0.2C225.8,389.6,225.6,389.2,225.8,389z"/>
	<path fill="#F4DBDD" d="M233.4,400.2c2.2,0,4.1-1.6,4.1-3.6c0-2.1-1.7-3.8-4-3.8c-2.2,0-4.1,1.6-4.1,3.6
		C229.4,398.4,231.2,400.1,233.4,400.2z M235.7,394.7c0-0.2,0.2-0.3,0.4-0.3c0.2,0,0.3,0.2,0.3,0.3c0,0.2-0.2,0.3-0.4,0.3
		c-0.1,0-0.1,0-0.2-0.1c-0.1,0.4-1,1.1-1,1.1l0.9-1.2C235.7,394.8,235.7,394.8,235.7,394.7z M235,399.2c0.2,0,0.3,0.1,0.5,0.2
		c0.2,0.1,0.2,0.3-0.1,0.3c-0.2,0-0.6,0-0.8-0.2c-0.2-0.1-0.2-0.3,0.1-0.3c0,0,0.1,0,0.2,0c-1-0.5-1-2-1-2L235,399.2z M231.8,394
		c0.1-0.1,0.3-0.2,0.5,0c0.1,0.1,0.1,0.3,0,0.5c0,0,0,0-0.1,0.1c0.7,0.2,1.2,1.9,1.2,1.9l-1.3-1.9c-0.1,0-0.2,0-0.3-0.1
		C231.7,394.3,231.7,394.1,231.8,394z M230.2,395.9c0.1,0,0.3,0.1,0.4,0.3c0,0,0,0.1,0,0.1c0.5-0.2,2.4,0.9,2.4,0.9l-2.4-0.9
		c0,0.1-0.1,0.1-0.2,0.1c-0.1,0-0.3-0.1-0.4-0.3C230,396,230.1,395.9,230.2,395.9z"/>
</g>
<g>
	<path fill="#F4DBDD" d="M471.1,334.9c0.2-0.2,0.5-0.3,0.9-0.4c0.7-0.1,1.3,0.2,1.3,0.6c0,0.4-0.5,0.8-1.1,0.9
		c-0.7,0.1-1.3-0.2-1.3-0.6c0-0.1,0-0.2,0-0.2c-1.9,0.5-6.4-1-8.1-1.6l0,0.2c0.9,2.1,0.9,3.2,1.1,3.3c5.3,5.5,28.4,7.9,25-6.5
		c-3.1-13.1-19-5-23.4-2.5c-0.2,0.1-0.3,2.1-2.4,3.7l-0.2,1.6L471.1,334.9z"/>
	<path fill="#F4DBDD" d="M461.1,361.1c0,0,7.7-0.1,10.3-3.9c5.6-10.4-3.8-16.9-7.4-19c-0.3-0.2-1.9-1.3-4,0.1l-1.9-1.6
		c-0.4,1.5-2.8,2.7-2.9,2.9C446.8,356.1,461.1,361.1,461.1,361.1z M460.7,346.6c0.2,0.1,0.5,0.4,0.7,0.7c0.3,0.6,0.3,1.2-0.1,1.4
		s-0.9-0.1-1.2-0.7c-0.3-0.6-0.3-1.2,0.1-1.4c0.1,0,0.2-0.1,0.2-0.1c-1.5-2-1.4-8.7-1.4-8.7L460.7,346.6z"/>
	<path fill="#F4DBDD" d="M456.7,326.4c0.1,0.2,1.5,0.8,1.7,1.9l2.3,0.6l2.6-6.7c-0.1-0.2-0.2-0.6-0.2-0.9c0.1-0.7,0.4-1.2,0.8-1.2
		c0.4,0,0.7,0.6,0.7,1.3c-0.1,0.7-0.4,1.2-0.8,1.2c-0.1,0-0.2,0-0.2-0.1c0.1,1.6-1.4,4.7-2.5,6.5l0.9,0.2c0.9-0.8,2.4-0.6,2.6-0.7
		c8.8-5.1,9.6-16.2,9.6-16.2s-0.9-14.3-15.9-6.9C451.6,311.5,455.5,323.2,456.7,326.4z"/>
	<path fill="#F4DBDD" d="M429.7,342.3c0,0,1.4,9,6.5,9.8c12.7,4.1,18.1-10.9,19.1-14.2c0-0.1-0.4-1.1,0.1-1.9c0,0-1-2.5-1.1-2.5
		c-0.5,0.2-2.7-1.1-3-1.1C428.3,330.9,429.7,342.3,429.7,342.3z M447.8,344.1c0.2-0.6,0.7-1.1,1.1-0.9c0.1,0,0.1,0.1,0.2,0.1
		c0.4-2.5,5.2-7.2,5.2-7.2l-5,7.4c0.1,0.3,0.1,0.6,0,1c-0.2,0.6-0.7,1.1-1.1,0.9S447.6,344.7,447.8,344.1z"/>
	<path fill="#F4DBDD" d="M451.2,332c0.3,0,1.4-0.8,2.6-0.1l2.4-2.8c-0.6,0.3-0.6-1.9,0.3-2.8c-8.4-21-18.4-16.7-18.4-16.7
		s-5,1.7-6.3,5.7C428.9,327.4,446.9,331.2,451.2,332z M446.7,322.5c0.2-0.3,0.9-0.3,1.4,0c0.6,0.4,0.8,0.9,0.6,1.3
		c0,0.1-0.1,0.1-0.2,0.2c2.3,1,5.5,6.9,5.5,6.9l-5.9-6.8c-0.3,0-0.6-0.1-0.9-0.3C446.7,323.4,446.4,322.8,446.7,322.5z"/>
	<path fill="#F4DBDD" d="M458.1,339.1c3.4,0.1,6.1-2.4,6.2-5.4c0.1-3.1-2.6-5.6-5.9-5.7c-3.4-0.1-6.1,2.4-6.2,5.4
		C452.1,336.5,454.8,339.1,458.1,339.1z M461.5,331c0-0.3,0.3-0.5,0.6-0.5c0.3,0,0.5,0.2,0.5,0.5c0,0.3-0.3,0.5-0.6,0.5
		c-0.1,0-0.2,0-0.3-0.1c-0.2,0.6-1.5,1.7-1.5,1.7l1.3-1.9C461.5,331.2,461.5,331.1,461.5,331z M460.5,337.6c0.2,0,0.5,0.1,0.7,0.2
		c0.3,0.2,0.3,0.4-0.1,0.5c-0.4,0.1-0.9-0.1-1.2-0.3c-0.3-0.2-0.3-0.4,0.1-0.5c0.1,0,0.2,0,0.2,0c-1.5-0.7-1.5-3-1.5-3L460.5,337.6z
		 M455.7,329.9c0.2-0.2,0.5-0.2,0.7-0.1c0.2,0.2,0.2,0.5,0,0.7c0,0-0.1,0.1-0.1,0.1c1.1,0.3,1.8,2.9,1.8,2.9l-1.9-2.9
		c-0.2,0.1-0.3,0-0.5-0.1C455.6,330.4,455.5,330.1,455.7,329.9z M453.4,332.7c0.2,0,0.5,0.2,0.6,0.4c0,0,0,0.1,0,0.1
		c0.7-0.3,3.6,1.4,3.6,1.4l-3.6-1.3c0,0.1-0.1,0.2-0.2,0.2c-0.2,0-0.5-0.2-0.6-0.4S453.1,332.7,453.4,332.7z"/>
</g>
<g>
	<path fill="#F4DBDD" d="M580.3,52.7c0.3,0,0.6,0.1,0.9,0.3c0.5,0.4,0.8,0.9,0.6,1.2c-0.2,0.3-0.8,0.3-1.3-0.1
		c-0.5-0.4-0.8-0.9-0.6-1.2c0-0.1,0.1-0.1,0.2-0.1c-1.7-0.9-4.2-4.7-5.1-6.1l-0.1,0.1c-0.5,2-1.1,2.7-1.1,2.9
		c0.8,7,16.6,23.2,22.2,11.4c5-10.7-11.3-15.4-16-16.5c-0.2-0.1-1.3,1.2-3.9,0.9l-1,1L580.3,52.7z"/>
	<path fill="#F4DBDD" d="M558.2,63.9c0,0,5.8,4.8,9.8,3.9c10-3.5,6.7-13.7,5.2-17.3c-0.1-0.3-0.7-2.1-3-2.4l-0.5-2.2
		c-1.1,0.7-3.6,0-3.8,0.1C550.5,51.5,558.2,63.9,558.2,63.9z M566,53.9c0.1,0.2,0.2,0.6,0.1,0.9c-0.1,0.6-0.5,1-0.9,0.9
		c-0.4-0.1-0.6-0.7-0.5-1.3c0.1-0.6,0.5-1,0.9-0.9c0.1,0,0.1,0.1,0.2,0.1c0-2.3,3.9-6.7,3.9-6.7L566,53.9z"/>
	<path fill="#F4DBDD" d="M574.4,37.9c-0.1,0.2,0.7,1.5,0.2,2.3l1.4,1.9l5.7-2.9c0-0.2,0.2-0.5,0.4-0.8c0.4-0.4,1-0.5,1.3-0.2
		c0.3,0.3,0.2,0.8-0.2,1.3c-0.4,0.4-1,0.5-1.3,0.2c-0.1-0.1-0.1-0.1-0.1-0.2c-0.8,1.2-3.7,2.2-5.5,2.8l0.6,0.7
		c1.1,0.1,2.1,1.1,2.3,1.2c9.4,2.1,16.2-4.8,16.2-4.8s7.4-10.2-7.9-14.6C579.1,24.8,575.4,35.1,574.4,37.9z"/>
	<path fill="#F4DBDD" d="M545.5,31.5c0,0-4,6.9-0.7,10.6c7.1,10.8,19.5,4.2,22.1,2.6c0.1-0.1,0.3-1,1.2-1.2c0,0,0.6-2.3,0.6-2.3
		c-0.5-0.1-1.4-2.5-1.6-2.6C550.9,23,545.5,31.5,545.5,31.5z M557.9,44.1c0.5-0.3,1.1-0.3,1.3,0.1c0,0.1,0.1,0.1,0.1,0.2
		c1.7-1.4,7.9-1.5,7.9-1.5l-7.9,1.8c-0.1,0.2-0.3,0.5-0.6,0.6c-0.5,0.3-1.1,0.3-1.3-0.1C557.2,44.9,557.4,44.4,557.9,44.1z"/>
	<path fill="#F4DBDD" d="M567.2,38.1c0.2,0.2,1.5,0.4,2,1.6l3.4-0.4c-0.6-0.2,0.7-1.6,1.8-1.7c5.6-19.3-4.3-22.8-4.3-22.8
		s-4.7-2-7.9-0.2C553.3,21.1,564.5,35,567.2,38.1z M569.2,29c0.4-0.1,0.8,0.3,1,0.9c0.2,0.6,0.1,1.2-0.3,1.3c-0.1,0-0.2,0-0.2,0
		c1.1,2.1,0.2,8.1,0.2,8.1l-0.5-8.3c-0.2-0.2-0.4-0.4-0.5-0.8C568.7,29.6,568.9,29,569.2,29z"/>
	<path fill="#F4DBDD" d="M568.3,47.3c2.4,2.2,5.9,2.3,7.6,0.3c1.8-2,1.2-5.4-1.2-7.6c-2.4-2.2-5.9-2.3-7.6-0.3
		C565.3,41.8,565.9,45.1,568.3,47.3z M575.4,44c0.2-0.2,0.5-0.1,0.7,0.1c0.2,0.2,0.2,0.5,0.1,0.6c-0.2,0.2-0.5,0.1-0.7-0.1
		c-0.1-0.1-0.1-0.2-0.2-0.2c-0.5,0.3-2,0.2-2,0.2l2-0.4C575.3,44.1,575.4,44.1,575.4,44z M571,47.8c0.2,0.2,0.3,0.4,0.4,0.6
		c0.1,0.3,0,0.5-0.3,0.3c-0.3-0.2-0.6-0.6-0.8-1c-0.1-0.3,0-0.5,0.3-0.3c0.1,0,0.1,0.1,0.2,0.1c-0.7-1.4,0.6-3,0.6-3L571,47.8z
		 M571.8,39.6c0.3,0,0.5,0.1,0.5,0.4c0,0.2-0.1,0.5-0.4,0.5c0,0-0.1,0-0.1,0c0.6,0.9-0.3,3.1-0.3,3.1l0.2-3.1
		c-0.2-0.1-0.3-0.2-0.3-0.4C571.3,39.9,571.5,39.7,571.8,39.6z M568.4,40c0.2,0.1,0.3,0.4,0.2,0.7c0,0,0,0.1,0,0.1
		c0.7,0.3,1.9,3.2,1.9,3.2l-1.9-3.1c-0.1,0-0.2,0-0.3,0c-0.2-0.1-0.3-0.4-0.2-0.7C568.1,40,568.2,39.9,568.4,40z"/>
</g>
<g>
	<path fill="#F4DBDD" d="M37.6,419.4c0.1-0.2,0.2-0.4,0.4-0.5c0.4-0.3,0.8-0.3,0.9-0.1c0.2,0.2,0,0.6-0.3,0.9
		c-0.4,0.3-0.8,0.3-0.9,0.1c0,0-0.1-0.1-0.1-0.1c-0.9,1-4,1.6-5.2,1.9l0.1,0.1c1.2,0.8,1.6,1.5,1.7,1.5c4.9,1.3,18.9-5.2,12.1-12.2
		c-6.2-6.3-12.6,3.6-14.3,6.6c-0.1,0.2,0.5,1.2-0.1,2.9l0.5,1L37.6,419.4z"/>
	<path fill="#F4DBDD" d="M40.7,437.6c0,0,4.4-2.7,4.6-5.7c-0.3-7.8-7.9-8.3-10.6-8.2c-0.2,0-1.5-0.1-2.2,1.4l-1.6-0.2
		c0.3,1-0.7,2.5-0.7,2.6C30.8,439.6,40.7,437.6,40.7,437.6z M35.6,429.5c0.2,0,0.4,0,0.6,0.2c0.4,0.2,0.6,0.6,0.4,0.8
		c-0.1,0.2-0.6,0.2-1,0c-0.4-0.2-0.6-0.6-0.4-0.8c0,0,0.1-0.1,0.1-0.1c-1.5-0.6-3.7-4.5-3.7-4.5L35.6,429.5z"/>
	<path fill="#F4DBDD" d="M26.4,419.5c0.1,0.1,1.2,0,1.6,0.5l1.5-0.5l-0.8-4.7c-0.2-0.1-0.3-0.2-0.4-0.5c-0.2-0.4-0.2-0.8,0.1-0.9
		s0.6,0.1,0.8,0.5c0.2,0.4,0.2,0.8-0.1,0.9c0,0-0.1,0-0.2,0c0.6,0.9,0.8,3.1,0.8,4.5l0.6-0.2c0.3-0.8,1.2-1.1,1.2-1.3
		c3.3-5.9,0-12.5,0-12.5s-5.4-7.8-11.4,1.5C18.5,412.7,24.7,418,26.4,419.5z"/>
	<path fill="#F4DBDD" d="M16.4,437.7c0,0,3.8,4.6,7,3.3c8.7-2,6.7-12.3,6.2-14.5c0-0.1-0.6-0.5-0.6-1.1c0,0-1.4-1-1.4-1
		c-0.2,0.3-1.9,0.3-2.1,0.4C11.7,431.7,16.4,437.7,16.4,437.7z M27.4,432.5c-0.1-0.4,0-0.8,0.3-0.9c0.1,0,0.1,0,0.2,0
		c-0.6-1.5,0.6-5.8,0.6-5.8l-0.4,5.9c0.1,0.1,0.3,0.3,0.3,0.6c0.1,0.4,0,0.8-0.3,0.9C27.8,433.2,27.5,432.9,27.4,432.5z"/>
	<path fill="#F4DBDD" d="M25.2,424.5c0.2-0.1,0.5-0.9,1.5-0.9l0.4-2.4c-0.2,0.4-1-0.9-0.8-1.7c-11.9-9-16.2-3.1-16.2-3.1
		s-2.3,2.7-1.7,5.4C10.9,429.5,22.5,425.5,25.2,424.5z M19.4,420.6c0-0.3,0.4-0.5,0.8-0.5c0.4,0,0.8,0.2,0.8,0.5
		c0,0.1,0,0.1-0.1,0.2c1.6-0.2,5.5,2,5.5,2l-5.7-1.9c-0.2,0.1-0.4,0.2-0.6,0.2C19.7,421.1,19.4,420.9,19.4,420.6z"/>
	<path fill="#F4DBDD" d="M31.6,426.2c1.9-1.1,2.7-3.4,1.7-5.2c-1-1.8-3.4-2.3-5.3-1.2c-1.9,1.1-2.7,3.4-1.7,5.2
		S29.6,427.3,31.6,426.2z M30.8,420.4c-0.1-0.2,0-0.4,0.2-0.4c0.2-0.1,0.4,0,0.4,0.1c0.1,0.2,0,0.4-0.2,0.4c-0.1,0-0.1,0-0.2,0
		c0.1,0.4-0.3,1.5-0.3,1.5l0.1-1.5C30.8,420.5,30.8,420.4,30.8,420.4z M32.5,424.5c0.2-0.1,0.3-0.1,0.5-0.1c0.3,0,0.3,0.1,0.1,0.3
		c-0.2,0.2-0.5,0.3-0.8,0.3c-0.3,0-0.3-0.1-0.1-0.3c0,0,0.1-0.1,0.1-0.1c-1.1,0.1-1.9-1.2-1.9-1.2L32.5,424.5z M27.1,421.7
		c0-0.2,0.2-0.3,0.4-0.3c0.2,0,0.3,0.2,0.3,0.4c0,0,0,0.1,0,0.1c0.7-0.2,2,1,2,1l-2.1-1c-0.1,0.1-0.2,0.1-0.3,0.1
		C27.2,422.1,27.1,421.9,27.1,421.7z M26.7,424.2c0.1-0.1,0.3-0.1,0.5,0c0,0,0.1,0,0.1,0.1c0.3-0.4,2.5-0.4,2.5-0.4l-2.5,0.5
		c0,0.1,0,0.1-0.1,0.2c-0.1,0.1-0.3,0.1-0.5,0C26.6,424.4,26.6,424.2,26.7,424.2z"/>
</g>
<g>
	<path fill="#F1BDC9" d="M413.6,201.6c0.4,0.2,0.9,0.5,1.3,1.1c0.7,1,0.8,2.1,0.3,2.5c-0.5,0.4-1.5-0.1-2.2-1
		c-0.7-1-0.8-2.1-0.3-2.5c0.1-0.1,0.2-0.1,0.4-0.1c-2.5-2.6-4.4-10.8-5-13.8l-0.3,0.1c-2.1,3.1-3.6,3.9-3.7,4.4
		c-3.1,12.7,14.2,50.6,31.2,33.7c15.5-15.4-9.8-33.7-17.3-38.5c-0.4-0.3-3.1,1.3-7.4-0.8l-2.4,1.1L413.6,201.6z"/>
	<path fill="#F1BDC9" d="M368.2,207.2c0,0,6.9,12,14.6,12.9c19.5,0.3,20.3-19.5,19.9-26.8c0-0.6,0.1-4-3.7-6.1l0.5-4.2
		c-2.4,0.5-6.3-2.2-6.6-2.2C362.6,180.8,368.2,207.2,368.2,207.2z M388.1,194.8c0,0.5-0.1,1.1-0.4,1.6c-0.6,1-1.5,1.4-2.1,1
		c-0.6-0.4-0.6-1.5-0.1-2.5c0.6-1,1.5-1.4,2.1-1c0.1,0.1,0.2,0.2,0.3,0.3c1.5-3.9,11-9.2,11-9.2L388.1,194.8z"/>
	<path fill="#F1BDC9" d="M412.7,172.2c-0.2,0.3,0.2,3-1.2,4.2l1.3,4.1l11.6-1.4c0.2-0.4,0.6-0.8,1.2-1.1c1-0.5,2-0.3,2.4,0.4
		c0.3,0.7-0.2,1.6-1.2,2.1c-1,0.5-2,0.3-2.4-0.4c-0.1-0.1-0.1-0.3-0.1-0.4c-2.2,1.5-7.8,1.6-11.3,1.4l0.5,1.6
		c1.9,0.8,2.9,3.2,3.3,3.5c14.9,9.6,31.2,1.8,31.2,1.8s19.2-13-4.5-30.3C429.2,152.4,416.2,167.9,412.7,172.2z"/>
	<path fill="#F1BDC9" d="M366.6,143c0,0-11.3,9.4-7.9,18.1c5.5,23.2,31.3,19.5,36.8,18.4c0.2,0,1.2-1.6,2.8-1.3c0,0,2.5-3.6,2.5-3.6
		c-0.7-0.5-0.9-5.1-1.1-5.5C381.3,131.7,366.6,143,366.6,143z M380.2,172.7c1.1-0.2,2.1,0.2,2.3,0.9c0,0.1,0,0.3,0,0.4
		c3.8-1.4,14.6,2.3,14.6,2.3l-14.9-1.8c-0.3,0.3-0.8,0.6-1.4,0.7c-1.1,0.2-2.1-0.2-2.3-0.9C378.4,173.6,379.1,172.9,380.2,172.7z"/>
	<path fill="#F1BDC9" d="M400.1,168.1c0.2,0.4,2.3,1.6,2.4,4l6.1,1.5c-0.9-0.6,2.2-2.4,4.2-1.9c22-30,6.9-42.1,6.9-42.1
		s-6.8-6.4-13.6-5.3C386.7,129.8,397.3,160.9,400.1,168.1z M409.4,153.5c0.7,0.1,1.2,1.1,1.2,2.3c0,1.2-0.6,2.1-1.3,2
		c-0.1,0-0.3-0.1-0.4-0.2c0.6,4.3-4.7,14.2-4.7,14.2l4.3-14.6c-0.3-0.4-0.4-1-0.4-1.7C408.1,154.3,408.7,153.4,409.4,153.5z"/>
	<path fill="#F1BDC9" d="M396.2,184.7c2.9,5.3,8.7,7.6,13.1,5.3c4.4-2.4,5.6-8.6,2.7-13.9c-2.9-5.3-8.7-7.6-13.1-5.3
		S393.4,179.5,396.2,184.7z M410.6,183.4c0.4-0.2,0.9,0.1,1.1,0.5c0.2,0.4,0.1,0.9-0.3,1.1c-0.4,0.2-0.9-0.1-1.1-0.5
		c-0.1-0.2-0.1-0.4-0.1-0.5c-1,0.2-3.7-0.9-3.7-0.9l3.8,0.6C410.4,183.6,410.5,183.5,410.6,183.4z M400.5,187.3
		c0.2,0.4,0.3,0.9,0.3,1.3c0,0.7-0.3,0.8-0.7,0.3c-0.4-0.5-0.7-1.5-0.7-2.2c0-0.7,0.3-0.8,0.7-0.3c0.1,0.1,0.2,0.2,0.2,0.4
		c-0.4-2.9,2.8-4.8,2.8-4.8L400.5,187.3z M407,173.6c0.5,0.1,0.8,0.6,0.7,1c-0.1,0.4-0.5,0.7-1,0.6c-0.1,0-0.2-0.1-0.2-0.1
		c0.5,2-2.4,5.2-2.4,5.2l2.3-5.3c-0.2-0.2-0.3-0.5-0.3-0.8C406.1,173.8,406.6,173.5,407,173.6z M401,172.2c0.2,0.3,0.2,0.9,0,1.3
		c0,0.1-0.1,0.1-0.1,0.2c1,0.9,1.2,6.7,1.2,6.7l-1.4-6.6c-0.2,0-0.3,0-0.4-0.2c-0.2-0.3-0.2-0.9,0-1.3
		C400.4,171.9,400.8,171.8,401,172.2z"/>
</g>
</svg>
