<?xml version="1.0" encoding="utf-8"?>
<!-- Generator: Adobe Illustrator 18.1.1, SVG Export Plug-In . SVG Version: 6.00 Build 0)  -->
<svg version="1.1" id="Layer_1" xmlns="http://www.w3.org/2000/svg" xmlns:xlink="http://www.w3.org/1999/xlink" x="0px" y="0px"
	 viewBox="0 153.8 960 252.3" enable-background="new 0 153.8 960 252.3" xml:space="preserve">
<path fill="#F9A8AE" d="M941.7,406.2H18.3C8.2,406.2,0,397.9,0,387.9V183.5c0-10.1,8.2-18.3,18.3-18.3h923.4
	c10.1,0,18.3,8.2,18.3,18.3v204.3C960,397.9,951.8,406.2,941.7,406.2z"/>
<path fill="#FF5879" d="M941.7,394.7H18.3C8.2,394.7,0,386.5,0,376.5V172.1c0-10.1,8.2-18.3,18.3-18.3h923.4
	c10.1,0,18.3,8.2,18.3,18.3v204.3C960,386.5,951.8,394.7,941.7,394.7z"/>
<g enable-background="new    ">
	<path fill="#FFFFFF" d="M432.8,304.1h-14.9v-71.2h40.8v12.4h-26v18.4h24.2v12.3h-24.2V304.1z"/>
	<path fill="#FFFFFF" d="M486.4,304.1h-14.9v-75.8h14.9V304.1z"/>
	<path fill="#FFFFFF" d="M494.2,249.6h16.3l10.3,30.6c0.9,2.7,1.5,5.8,1.8,9.5h0.3c0.4-3.3,1.1-6.5,2.1-9.5l10.1-30.6h15.9l-23,61.4
		c-2.1,5.7-5.1,9.9-9,12.8c-3.9,2.8-8.5,4.2-13.7,4.2c-2.6,0-5.1-0.3-7.6-0.8v-11.8c1.8,0.4,3.7,0.6,5.8,0.6c2.6,0,4.9-0.8,6.9-2.4
		c2-1.6,3.5-4,4.6-7.3l0.9-2.7L494.2,249.6z"/>
</g>
</svg>
