<?xml version="1.0" encoding="utf-8"?>
<!-- Generator: Adobe Illustrator 18.1.1, SVG Export Plug-In . SVG Version: 6.00 Build 0)  -->
<svg version="1.1" id="Layer_1" xmlns="http://www.w3.org/2000/svg" xmlns:xlink="http://www.w3.org/1999/xlink" x="0px" y="0px"
	 viewBox="0 0 1101.3 397.8" enable-background="new 0 0 1101.3 397.8" xml:space="preserve">
<g>
	<path fill="#F1BDC9" d="M889,103.4c0,0-0.1,0.1-0.2,0.1c-0.2,0-0.3-0.1-0.3-0.1c0-0.1,0.1-0.2,0.3-0.2c0.2,0,0.3,0.1,0.3,0.1
		L889,103.4c0.6-0.2,1.7,0.2,2.1,0.4l0,0c-0.3-0.6-0.2-0.8-0.2-0.9c-1.3-1.4-7.3-2.2-6.5,1.6c0.7,3.4,4.9,1.4,6,0.7
		c0,0,0.1-0.5,0.6-0.9l0.1-0.4L889,103.4z"/>
	<path fill="#F1BDC9" d="M891.7,96.7c0,0-2,0-2.7,1c-1.5,2.6,0.9,4.4,1.8,4.9c0.1,0,0.5,0.3,1,0l0.5,0.4c0.1-0.4,0.8-0.7,0.8-0.7
		C895.3,98.1,891.7,96.7,891.7,96.7z M891.7,100.5c0,0-0.1-0.1-0.2-0.2c-0.1-0.1-0.1-0.3,0-0.4s0.2,0.1,0.3,0.2
		c0.1,0.1,0.1,0.3,0,0.4L891.7,100.5c0.5,0.5,0.4,2.3,0.4,2.3L891.7,100.5z"/>
	<path fill="#F1BDC9" d="M892.7,105.7c0,0-0.4-0.2-0.4-0.5l-0.6-0.2l-0.7,1.7c0,0,0,0.1,0,0.2c0,0.2-0.1,0.3-0.2,0.3
		c-0.1,0-0.2-0.1-0.2-0.3c0-0.2,0.1-0.3,0.2-0.3l0,0c0-0.4,0.4-1.2,0.7-1.7l-0.2-0.1c-0.2,0.2-0.6,0.2-0.7,0.2
		c-2.3,1.3-2.5,4.2-2.5,4.2s0.2,3.7,4.1,1.9C893.9,109.6,893,106.5,892.7,105.7z"/>
	<path fill="#F1BDC9" d="M899.7,101.7c0,0-0.3-2.3-1.6-2.5c-3.3-1.1-4.7,2.7-5,3.6c0,0,0.1,0.3,0,0.5l0.2,0.7c0.1,0,0.7,0.3,0.8,0.3
		C900,104.7,899.7,101.7,899.7,101.7z M895,101.2c-0.1,0.2-0.2,0.3-0.3,0.2c0,0,0,0,0,0c-0.1,0.6-1.4,1.8-1.4,1.8l1.3-1.9
		c0,0,0-0.1,0-0.2c0.1-0.2,0.2-0.3,0.3-0.2C895,100.9,895.1,101,895,101.2z"/>
	<path fill="#F1BDC9" d="M894.1,104.3c0,0-0.4,0.2-0.7,0l-0.6,0.7c0.1-0.1,0.1,0.5-0.1,0.7c2.1,5.4,4.7,4.4,4.7,4.4s1.3-0.4,1.7-1.4
		C899.8,105.6,895.2,104.5,894.1,104.3z M895.2,106.8c0,0.1-0.2,0.1-0.4,0c-0.1-0.1-0.2-0.2-0.2-0.3l0,0c-0.6-0.3-1.4-1.8-1.4-1.8
		l1.5,1.8c0.1,0,0.1,0,0.2,0.1C895.2,106.5,895.3,106.7,895.2,106.8z"/>
	<path fill="#F1BDC9" d="M892.3,102.4c-0.9,0-1.6,0.6-1.6,1.4c0,0.8,0.6,1.4,1.5,1.5c0.9,0,1.6-0.6,1.6-1.4
		C893.9,103.1,893.2,102.5,892.3,102.4z M891.4,104.5c0,0-0.1,0.1-0.1,0.1c-0.1,0-0.1-0.1-0.1-0.1c0,0,0.1-0.1,0.1-0.1
		S891.4,104.4,891.4,104.5c0-0.3,0.3-0.5,0.3-0.5L891.4,104.5L891.4,104.5z M891.7,102.8c0,0-0.1-0.1-0.2-0.1c-0.1,0-0.1-0.1,0-0.1
		c0.1,0,0.2,0,0.3,0.1c0.1,0,0.1,0.1,0,0.1L891.7,102.8c0.5,0.2,0.5,0.8,0.5,0.8L891.7,102.8z M892.9,104.8c0,0-0.1,0-0.2,0
		s0-0.1,0-0.2c0,0,0,0,0,0c-0.3-0.1-0.5-0.8-0.5-0.8l0.5,0.8c0,0,0.1,0,0.1,0C893,104.7,893,104.7,892.9,104.8z M893.6,104.1
		c0,0-0.1-0.1-0.2-0.1l0,0c-0.2,0.1-0.9-0.4-0.9-0.4l0.9,0.4c0,0,0,0,0,0c0,0,0.1,0.1,0.2,0.1S893.6,104.1,893.6,104.1z"/>
</g>
<g>
	<path fill="#F1BDC9" d="M670.4,149c0,0-0.1,0.1-0.3,0.1c-0.2,0-0.4-0.1-0.4-0.2c0-0.1,0.1-0.3,0.3-0.3c0.2,0,0.4,0.1,0.4,0.2
		C670.5,148.9,670.5,148.9,670.4,149c0.6-0.2,2,0.3,2.5,0.5l0,0c-0.2-0.7-0.2-1-0.3-1c-1.5-1.7-8.4-2.6-7.5,1.9
		c0.8,4.1,5.6,1.6,6.9,0.9c0,0,0.1-0.6,0.7-1.1l0.1-0.5L670.4,149z"/>
	<path fill="#F1BDC9" d="M673.6,141c0,0-2.3,0-3.1,1.2c-1.7,3.2,1,5.2,2.1,5.9c0.1,0,0.6,0.4,1.2,0l0.6,0.5c0.1-0.5,0.9-0.8,0.9-0.9
		C677.8,142.6,673.6,141,673.6,141z M673.6,145.4c-0.1,0-0.1-0.1-0.2-0.2c-0.1-0.2-0.1-0.4,0-0.5c0.1,0,0.3,0.1,0.4,0.2
		s0.1,0.4,0,0.5C673.8,145.4,673.7,145.4,673.6,145.4c0.5,0.6,0.4,2.7,0.4,2.7L673.6,145.4z"/>
	<path fill="#F1BDC9" d="M674.7,151.7c0,0-0.4-0.2-0.5-0.6l-0.7-0.2l-0.8,2.1c0,0.1,0.1,0.2,0,0.3c0,0.2-0.2,0.4-0.2,0.4
		c-0.1,0-0.2-0.2-0.2-0.4c0-0.2,0.2-0.4,0.2-0.4c0,0,0,0,0.1,0c0-0.5,0.4-1.5,0.8-2l-0.3-0.1c-0.3,0.2-0.7,0.2-0.8,0.2
		c-2.6,1.5-2.9,5-2.9,5s0.2,4.4,4.7,2.2C676.1,156.3,675,152.7,674.7,151.7z"/>
	<path fill="#F1BDC9" d="M682.8,146.9c0,0-0.4-2.8-1.9-3.1c-3.8-1.3-5.4,3.3-5.8,4.3c0,0,0.1,0.4-0.1,0.6l0.3,0.7
		c0.1-0.1,0.8,0.4,0.9,0.4C683.1,150.4,682.8,146.9,682.8,146.9z M677.4,146.3c-0.1,0.2-0.2,0.3-0.3,0.3c0,0,0,0,0,0
		c-0.1,0.8-1.6,2.2-1.6,2.2l1.6-2.3c0-0.1,0-0.2,0-0.3c0.1-0.2,0.2-0.3,0.3-0.3C677.5,145.8,677.5,146.1,677.4,146.3z"/>
	<path fill="#F1BDC9" d="M676.4,150c-0.1,0-0.4,0.2-0.8,0l-0.7,0.8c0.2-0.1,0.2,0.6-0.1,0.9c2.4,6.5,5.4,5.2,5.4,5.2
		s1.5-0.5,1.9-1.7C683,151.5,677.6,150.3,676.4,150z M677.6,153c0,0.1-0.3,0.1-0.4,0c-0.2-0.1-0.3-0.3-0.2-0.4l0,0
		c-0.7-0.3-1.6-2.2-1.6-2.2l1.7,2.1c0.1,0,0.2,0,0.3,0.1C677.6,152.6,677.7,152.8,677.6,153z"/>
	<path fill="#F1BDC9" d="M674.3,147.7c-1,0-1.8,0.7-1.9,1.6s0.8,1.7,1.7,1.8c1,0,1.8-0.7,1.9-1.6S675.3,147.8,674.3,147.7z
		 M673.3,150.2c0,0.1-0.1,0.1-0.2,0.1c-0.1,0-0.1-0.1-0.1-0.1c0-0.1,0.1-0.1,0.2-0.1C673.2,150.1,673.2,150.1,673.3,150.2
		c0-0.3,0.4-0.6,0.4-0.6L673.3,150.2L673.3,150.2z M673.6,148.2c-0.1,0-0.1-0.1-0.2-0.1c-0.1,0-0.1-0.1,0-0.1s0.3,0,0.4,0.1
		c0.1,0,0.1,0.1,0,0.1C673.8,148.2,673.7,148.2,673.6,148.2c0.5,0.2,0.5,0.9,0.5,0.9L673.6,148.2z M675,150.6c0,0-0.1,0.1-0.2,0
		c0,0,0-0.1,0-0.2c0,0,0,0,0,0c-0.3-0.1-0.5-0.9-0.5-0.9l0.6,0.9c0,0,0.1,0,0.1,0.1C675.1,150.4,675.1,150.6,675,150.6z
		 M675.7,149.8c0,0-0.1-0.1-0.2-0.1l0,0c-0.2,0.1-1-0.5-1-0.5l1,0.4c0,0,0,0,0,0c0,0,0.1,0.1,0.2,0.1
		C675.8,149.7,675.8,149.7,675.7,149.8z"/>
</g>
<g>
	<path fill="#F1BDC9" d="M697.5,131.9c0,0-0.1,0.1-0.3,0.1c-0.2,0-0.4-0.1-0.4-0.2c0-0.1,0.1-0.3,0.3-0.3c0.2,0,0.4,0.1,0.4,0.2
		C697.5,131.8,697.5,131.8,697.5,131.9c0.6-0.2,2,0.3,2.5,0.5l0,0c-0.2-0.7-0.2-1-0.3-1c-1.5-1.7-8.4-2.6-7.5,1.9
		c0.8,4.1,5.6,1.6,6.9,0.9c0,0,0.1-0.6,0.7-1.1l0.1-0.5L697.5,131.9z"/>
	<path fill="#F1BDC9" d="M700.6,123.9c0,0-2.3,0-3.1,1.2c-1.7,3.2,1,5.2,2.1,5.9c0.1,0,0.6,0.4,1.2,0l0.6,0.5
		c0.1-0.5,0.9-0.8,0.9-0.9C704.8,125.5,700.6,123.9,700.6,123.9z M700.6,128.4c-0.1,0-0.1-0.1-0.2-0.2c-0.1-0.2-0.1-0.4,0-0.5
		c0.1,0,0.3,0.1,0.4,0.2c0.1,0.2,0.1,0.4,0,0.5C700.8,128.4,700.8,128.4,700.6,128.4c0.5,0.6,0.4,2.7,0.4,2.7L700.6,128.4z"/>
	<path fill="#F1BDC9" d="M701.7,134.6c0,0-0.4-0.2-0.5-0.6l-0.7-0.2l-0.8,2.1c0,0.1,0.1,0.2,0,0.3c0,0.2-0.2,0.4-0.2,0.4
		c-0.1,0-0.2-0.2-0.2-0.4s0.2-0.4,0.2-0.4c0,0,0,0,0.1,0c0-0.5,0.4-1.5,0.8-2l-0.3-0.1c-0.3,0.2-0.7,0.2-0.8,0.2
		c-2.6,1.5-2.9,5-2.9,5s0.2,4.4,4.7,2.2C703.1,139.2,702,135.6,701.7,134.6z"/>
	<path fill="#F1BDC9" d="M709.8,129.8c0,0-0.4-2.8-1.9-3.1c-3.8-1.3-5.4,3.3-5.8,4.3c0,0,0.1,0.4-0.1,0.6l0.3,0.7
		c0.1-0.1,0.8,0.4,0.9,0.4C710.2,133.4,709.8,129.8,709.8,129.8z M704.4,129.2c-0.1,0.2-0.2,0.3-0.3,0.3c0,0,0,0,0,0
		c-0.1,0.8-1.6,2.2-1.6,2.2l1.6-2.3c0-0.1,0-0.2,0-0.3c0.1-0.2,0.2-0.3,0.3-0.3C704.5,128.8,704.5,129,704.4,129.2z"/>
	<path fill="#F1BDC9" d="M703.4,132.9c-0.1,0-0.4,0.2-0.8,0l-0.7,0.8c0.2-0.1,0.2,0.6-0.1,0.9c2.4,6.5,5.4,5.2,5.4,5.2
		s1.5-0.5,1.9-1.7C709.9,134.4,704.6,133.2,703.4,132.9z M704.6,135.9c0,0.1-0.3,0.1-0.4,0c-0.2-0.1-0.3-0.3-0.2-0.4l0,0
		c-0.7-0.3-1.6-2.2-1.6-2.2l1.7,2.1c0.1,0,0.2,0,0.3,0.1C704.7,135.6,704.7,135.8,704.6,135.9z"/>
	<path fill="#F1BDC9" d="M701.4,130.7c-1,0-1.8,0.7-1.9,1.6c0,1,0.8,1.7,1.7,1.8c1,0,1.8-0.7,1.9-1.6
		C703.1,131.5,702.3,130.7,701.4,130.7z M700.3,133.2c0,0.1-0.1,0.1-0.2,0.1c-0.1,0-0.1-0.1-0.1-0.1c0-0.1,0.1-0.1,0.2-0.1
		C700.2,133,700.2,133,700.3,133.2c0-0.3,0.4-0.6,0.4-0.6L700.3,133.2L700.3,133.2z M700.6,131.1c-0.1,0-0.1-0.1-0.2-0.1
		c-0.1,0-0.1-0.1,0-0.1s0.3,0,0.4,0.1c0.1,0,0.1,0.1,0,0.1C700.8,131.1,700.8,131.1,700.6,131.1c0.5,0.2,0.5,0.9,0.5,0.9
		L700.6,131.1z M702,133.6c0,0-0.1,0.1-0.2,0c0,0,0-0.1,0-0.2c0,0,0,0,0,0c-0.3-0.1-0.5-0.9-0.5-0.9l0.6,0.9c0,0,0.1,0,0.1,0.1
		C702,133.4,702,133.5,702,133.6z M702.7,132.7c0,0-0.1-0.1-0.2-0.1l0,0c-0.2,0.1-1-0.5-1-0.5l1,0.4c0,0,0,0,0,0
		c0,0,0.1,0.1,0.2,0.1C702.8,132.6,702.8,132.7,702.7,132.7z"/>
</g>
<g>
	<path fill="#F4DBDD" d="M850.5,104.7c-0.1,0.1-0.2,0.1-0.4,0.2c-0.3,0-0.6-0.1-0.6-0.3c0-0.2,0.2-0.4,0.5-0.4
		c0.3,0,0.6,0.1,0.6,0.3c0,0,0,0.1,0,0.1c0.9-0.2,3,0.5,3.7,0.8l0-0.1c-0.4-0.9-0.4-1.4-0.4-1.5c-2.4-2.6-13-3.8-11.5,2.8
		c1.3,6,8.7,2.4,10.7,1.3c0.1,0,0.1-1,1.1-1.7l0.1-0.7L850.5,104.7z"/>
	<path fill="#F4DBDD" d="M855.3,92.8c0,0-3.5,0-4.7,1.7c-2.6,4.8,1.6,7.8,3.2,8.7c0.1,0.1,0.8,0.6,1.8,0l0.8,0.7
		c0.2-0.7,1.3-1.2,1.4-1.3C861.8,95.2,855.3,92.8,855.3,92.8z M855.4,99.4c-0.1-0.1-0.2-0.2-0.3-0.3c-0.1-0.3-0.1-0.6,0.1-0.6
		s0.4,0.1,0.5,0.3c0.1,0.3,0.1,0.6-0.1,0.6c0,0-0.1,0-0.1,0c0.7,0.9,0.6,4,0.6,4L855.4,99.4z"/>
	<path fill="#F4DBDD" d="M857.1,108.7c0-0.1-0.7-0.4-0.7-0.9l-1.1-0.3l-1.2,3.1c0.1,0.1,0.1,0.3,0.1,0.4c0,0.3-0.2,0.5-0.4,0.5
		c-0.2,0-0.3-0.3-0.3-0.6c0-0.3,0.2-0.5,0.4-0.5c0,0,0.1,0,0.1,0c-0.1-0.7,0.7-2.1,1.2-3l-0.4-0.1c-0.4,0.4-1.1,0.2-1.2,0.3
		c-4.1,2.3-4.5,7.3-4.5,7.3s0.3,6.6,7.2,3.3C859.2,115.6,857.6,110.2,857.1,108.7z"/>
	<path fill="#F4DBDD" d="M869.5,101.6c0,0-0.6-4.1-2.9-4.5c-5.8-2-8.4,4.9-8.9,6.3c0,0,0.2,0.5-0.1,0.9l0.5,1.1
		c0.2-0.1,1.3,0.5,1.4,0.5C870.1,106.9,869.5,101.6,869.5,101.6z M861.2,100.7c-0.1,0.3-0.3,0.5-0.5,0.4c0,0-0.1,0-0.1,0
		c-0.2,1.1-2.4,3.3-2.4,3.3l2.4-3.4c0-0.1,0-0.3,0-0.5c0.1-0.3,0.3-0.5,0.5-0.4C861.3,100.1,861.3,100.4,861.2,100.7z"/>
	<path fill="#F4DBDD" d="M859.7,106.2c-0.1,0-0.7,0.3-1.2,0l-1.1,1.3c0.2-0.1,0.2,0.9-0.1,1.3c3.7,9.7,8.3,7.8,8.3,7.8
		s2.3-0.7,2.9-2.5C869.8,108.5,861.6,106.6,859.7,106.2z M861.6,110.6c-0.1,0.2-0.4,0.2-0.6,0c-0.2-0.2-0.4-0.4-0.3-0.6
		c0,0,0,0,0.1-0.1c-1-0.5-2.5-3.2-2.5-3.2l2.6,3.2c0.1,0,0.3,0.1,0.4,0.2C861.6,110.2,861.7,110.4,861.6,110.6z"/>
	<path fill="#F4DBDD" d="M856.5,102.9c-1.6-0.1-2.8,1-2.9,2.5c-0.1,1.4,1.1,2.6,2.7,2.7c1.6,0.1,2.8-1,2.9-2.5
		C859.2,104.1,858,102.9,856.5,102.9z M854.9,106.6c0,0.1-0.1,0.2-0.2,0.2c-0.1,0-0.2-0.1-0.2-0.2c0-0.1,0.1-0.2,0.2-0.2
		c0,0,0.1,0,0.1,0.1c0.1-0.3,0.7-0.8,0.7-0.8L854.9,106.6C854.9,106.5,854.9,106.6,854.9,106.6z M855.4,103.5
		c-0.1,0-0.2-0.1-0.3-0.1c-0.1-0.1-0.1-0.2,0.1-0.2s0.4,0,0.5,0.1c0.1,0.1,0.1,0.2-0.1,0.2c0,0-0.1,0-0.1,0c0.7,0.3,0.7,1.4,0.7,1.4
		L855.4,103.5z M857.5,107.1c-0.1,0.1-0.2,0.1-0.3,0c-0.1,0-0.1-0.2,0-0.3l0,0c-0.5-0.2-0.8-1.4-0.8-1.4l0.9,1.3
		c0.1,0,0.1,0,0.2,0.1C857.6,106.9,857.6,107,857.5,107.1z M858.6,105.8c-0.1,0-0.2-0.1-0.3-0.2c0,0,0,0,0,0
		c-0.3,0.1-1.6-0.7-1.6-0.7l1.6,0.6c0,0,0-0.1,0.1-0.1c0.1,0,0.2,0.1,0.3,0.2C858.8,105.7,858.7,105.8,858.6,105.8z"/>
</g>
<g>
	<path fill="#F4DBDD" d="M836.8,160.5c0,0-0.1,0.1-0.3,0.1c-0.2,0-0.4-0.1-0.4-0.2c0-0.1,0.1-0.2,0.3-0.3s0.4,0.1,0.4,0.2
		C836.9,160.4,836.9,160.4,836.8,160.5c0.6-0.2,2,0.3,2.5,0.5l0,0c-0.3-0.7-0.2-1-0.3-1c-1.6-1.7-8.7-2.5-7.7,1.9
		c0.9,4,5.8,1.6,7.2,0.9c0.1,0,0.1-0.6,0.8-1.1l0.1-0.5L836.8,160.5z"/>
	<path fill="#F4DBDD" d="M840,152.6c0,0-2.4,0-3.2,1.2c-1.8,3.2,1.1,5.2,2.2,5.9c0.1,0,0.6,0.4,1.2,0l0.6,0.5
		c0.2-0.5,0.9-0.8,0.9-0.9C844.3,154.2,840,152.6,840,152.6z M840.1,157c-0.1,0-0.1-0.1-0.2-0.2c-0.1-0.2-0.1-0.4,0-0.5
		c0.1,0,0.3,0.1,0.4,0.2s0.1,0.4,0,0.5C840.2,157,840.2,157,840.1,157c0.5,0.6,0.4,2.7,0.4,2.7L840.1,157z"/>
	<path fill="#F4DBDD" d="M841.2,163.2c0,0-0.4-0.2-0.5-0.6l-0.7-0.2l-0.8,2c0,0.1,0.1,0.2,0,0.3c0,0.2-0.2,0.4-0.2,0.4
		c-0.1,0-0.2-0.2-0.2-0.4c0-0.2,0.2-0.4,0.2-0.4c0,0,0,0,0.1,0c0-0.5,0.5-1.4,0.8-2l-0.3-0.1c-0.3,0.2-0.7,0.2-0.8,0.2
		c-2.7,1.5-3,4.9-3,4.9s0.2,4.4,4.8,2.2C842.7,167.8,841.5,164.2,841.2,163.2z"/>
	<path fill="#F4DBDD" d="M849.5,158.5c0,0-0.4-2.8-1.9-3c-3.9-1.3-5.6,3.2-5.9,4.3c0,0,0.1,0.3-0.1,0.6l0.3,0.7
		c0.1-0.1,0.8,0.4,0.9,0.4C849.9,162,849.5,158.5,849.5,158.5z M844,157.8c-0.1,0.2-0.2,0.3-0.3,0.3c0,0,0,0,0,0
		c-0.1,0.7-1.6,2.2-1.6,2.2l1.6-2.3c0-0.1,0-0.2,0-0.3c0.1-0.2,0.2-0.3,0.3-0.3C844,157.5,844.1,157.7,844,157.8z"/>
	<path fill="#F4DBDD" d="M842.9,161.6c-0.1,0-0.4,0.2-0.8,0l-0.8,0.8c0.2-0.1,0.2,0.6-0.1,0.9c2.5,6.5,5.6,5.2,5.6,5.2
		s1.5-0.5,1.9-1.7C849.7,163,844.2,161.8,842.9,161.6z M844.3,164.5c0,0.1-0.3,0.1-0.5,0c-0.2-0.1-0.3-0.3-0.2-0.4l0,0
		c-0.7-0.3-1.7-2.1-1.7-2.1l1.8,2.1c0.1,0,0.2,0,0.3,0.1C844.2,164.2,844.3,164.4,844.3,164.5z"/>
	<path fill="#F4DBDD" d="M840.8,159.3c-1,0-1.9,0.7-1.9,1.6c0,1,0.8,1.7,1.8,1.8c1,0,1.9-0.7,1.9-1.6
		C842.6,160.1,841.9,159.4,840.8,159.3z M839.7,161.8c0,0.1-0.1,0.1-0.2,0.1c-0.1,0-0.1-0.1-0.1-0.1c0-0.1,0.1-0.1,0.2-0.1
		C839.7,161.7,839.7,161.7,839.7,161.8c0-0.3,0.4-0.6,0.4-0.6L839.7,161.8C839.7,161.7,839.7,161.8,839.7,161.8z M840.1,159.8
		c-0.1,0-0.1-0.1-0.2-0.1c-0.1,0-0.1-0.1,0-0.1s0.3,0,0.4,0.1c0.1,0,0.1,0.1,0,0.1C840.2,159.8,840.2,159.8,840.1,159.8
		c0.5,0.2,0.5,0.9,0.5,0.9L840.1,159.8z M841.5,162.1c0,0-0.1,0.1-0.2,0c-0.1-0.1,0-0.1,0-0.2c0,0,0,0,0,0c-0.3-0.1-0.6-0.9-0.6-0.9
		l0.6,0.9c0,0,0.1,0,0.1,0.1C841.6,162,841.6,162.1,841.5,162.1z M842.2,161.3c0,0-0.1-0.1-0.2-0.1l0,0c-0.2,0.1-1.1-0.5-1.1-0.5
		l1.1,0.4c0,0,0,0,0,0c0,0,0.1,0.1,0.2,0.1C842.3,161.3,842.3,161.3,842.2,161.3z"/>
</g>
<g>
	<path fill="#F4DBDD" d="M665.8,216.6c-0.1,0-0.3-0.1-0.4-0.2c-0.2-0.2-0.4-0.4-0.3-0.6c0.1-0.1,0.4-0.1,0.6,0.1
		c0.2,0.2,0.4,0.4,0.3,0.6C666,216.6,666,216.6,665.8,216.6c0.9,0.4,2,2.1,2.4,2.8l0,0c0.2-0.9,0.6-1.2,0.5-1.3
		c-0.3-3.2-7.4-10.7-10.1-5.4c-2.4,4.9,5,7.1,7.2,7.7c0.1,0,0.6-0.5,1.8-0.4l0.5-0.4L665.8,216.6z"/>
	<path fill="#F4DBDD" d="M676.1,211.7c0,0-2.6-2.3-4.5-1.9c-4.6,1.5-3.2,6.2-2.5,7.9c0,0.1,0.3,1,1.4,1.1l0.2,1c0.5-0.3,1.6,0,1.7,0
		C679.5,217.4,676.1,211.7,676.1,211.7z M672.4,216.2c0-0.1-0.1-0.3,0-0.4c0.1-0.3,0.2-0.4,0.4-0.4c0.2,0.1,0.3,0.3,0.2,0.6
		c-0.1,0.3-0.2,0.4-0.4,0.4c0,0,0,0-0.1,0c0,1.1-1.8,3-1.8,3L672.4,216.2z"/>
	<path fill="#F4DBDD" d="M668.4,223.5c0-0.1-0.3-0.7-0.1-1.1l-0.7-0.9l-2.6,1.3c0,0.1-0.1,0.2-0.2,0.4c-0.2,0.2-0.5,0.2-0.6,0.1
		c-0.1-0.1-0.1-0.4,0.1-0.6c0.2-0.2,0.5-0.2,0.6-0.1c0,0,0,0,0,0.1c0.4-0.5,1.7-1,2.5-1.2l-0.3-0.3c-0.5,0-0.9-0.5-1.1-0.5
		c-4.3-1-7.5,2.1-7.5,2.1s-3.4,4.6,3.5,6.7C666.2,229.4,667.9,224.8,668.4,223.5z"/>
	<path fill="#F4DBDD" d="M681.6,226.6c0,0,1.9-3.1,0.4-4.9c-3.2-5-8.9-2-10.1-1.4c0,0-0.2,0.5-0.5,0.5l-0.3,1
		c0.2,0.1,0.6,1.1,0.7,1.2C679.1,230.5,681.6,226.6,681.6,226.6z M676,220.7c-0.2,0.1-0.5,0.1-0.6,0c0,0,0,0,0-0.1
		c-0.8,0.6-3.6,0.6-3.6,0.6l3.7-0.8c0-0.1,0.1-0.2,0.2-0.3c0.2-0.1,0.5-0.1,0.6,0S676.3,220.6,676,220.7z"/>
	<path fill="#F4DBDD" d="M671.7,223.4c-0.1-0.1-0.7-0.2-0.9-0.8l-1.6,0.1c0.3,0.1-0.3,0.7-0.9,0.8c-2.7,8.8,1.8,10.5,1.8,10.5
		s2.1,1,3.6,0.1C678,231.3,672.9,224.9,671.7,223.4z M670.7,227.6c-0.2,0-0.4-0.2-0.5-0.4c-0.1-0.3,0-0.6,0.1-0.6c0,0,0.1,0,0.1,0
		c-0.5-1,0-3.7,0-3.7l0.2,3.8c0.1,0.1,0.2,0.2,0.2,0.4C671,227.3,670.9,227.6,670.7,227.6z"/>
	<path fill="#F4DBDD" d="M671.3,219.2c-1.1-1-2.7-1.1-3.5-0.2c-0.8,0.9-0.6,2.5,0.5,3.5c1.1,1,2.7,1.1,3.5,0.2
		C672.6,221.8,672.4,220.2,671.3,219.2z M668,220.7c-0.1,0.1-0.2,0-0.3,0c-0.1-0.1-0.1-0.2,0-0.3c0,0,0.2,0,0.3,0c0,0,0,0.1,0.1,0.1
		c0.2-0.1,0.9-0.1,0.9-0.1l-0.9,0.1C668.1,220.6,668.1,220.7,668,220.7z M670.1,219c-0.1-0.1-0.1-0.2-0.2-0.3c0-0.1,0-0.2,0.1-0.1
		c0.1,0.1,0.3,0.3,0.4,0.4s0,0.2-0.1,0.1C670.2,219.1,670.2,219,670.1,219c0.4,0.8-0.2,1.5-0.2,1.5L670.1,219z M669.6,222.7
		c-0.1,0-0.2-0.1-0.2-0.2c0-0.1,0.1-0.2,0.2-0.2l0,0c-0.3-0.4,0.1-1.4,0.1-1.4l-0.1,1.4c0.1,0,0.1,0.1,0.1,0.1
		C669.9,222.6,669.8,222.7,669.6,222.7z M671.2,222.5c-0.1,0-0.1-0.2-0.1-0.3l0,0c-0.3-0.1-0.8-1.5-0.8-1.5l0.9,1.5c0,0,0.1,0,0.1,0
		c0.1,0,0.1,0.2,0.1,0.3C671.3,222.6,671.3,222.6,671.2,222.5z"/>
</g>
<g>
	<path fill="#F1BDC9" d="M745.2,143.4c-0.2-0.1-0.4-0.2-0.6-0.5c-0.3-0.5-0.4-1-0.1-1.2s0.7,0,1,0.5c0.3,0.5,0.4,1,0.1,1.2
		c0,0-0.1,0-0.2,0c1.1,1.2,1.9,5,2.2,6.4l0.1,0c1-1.4,1.7-1.8,1.7-1.9c1.5-5.8-6.1-23.3-14.1-15.7c-7.2,6.9,4.3,15.5,7.7,17.8
		c0.2,0.1,1.4-0.5,3.4,0.4l1.1-0.5L745.2,143.4z"/>
	<path fill="#F1BDC9" d="M766.1,141.1c0,0-3.1-5.5-6.6-6c-8.9-0.3-9.5,8.8-9.3,12.1c0,0.3-0.1,1.8,1.7,2.8l-0.3,1.9
		c1.1-0.2,2.9,1.1,3,1.1C768.5,153.2,766.1,141.1,766.1,141.1z M756.9,146.7c0-0.2,0.1-0.5,0.2-0.7c0.2-0.4,0.7-0.6,1-0.4
		c0.3,0.2,0.3,0.7,0,1.1c-0.3,0.4-0.7,0.6-1,0.4c0,0-0.1-0.1-0.1-0.1c-0.7,1.8-5.1,4.1-5.1,4.1L756.9,146.7z"/>
	<path fill="#F1BDC9" d="M745.5,156.8c0.1-0.1,0-1.4,0.6-1.9l-0.6-1.9l-5.3,0.6c-0.1,0.2-0.3,0.4-0.5,0.5c-0.5,0.2-0.9,0.1-1.1-0.2
		c-0.1-0.3,0.1-0.7,0.5-0.9c0.5-0.2,0.9-0.1,1.1,0.2c0,0,0,0.1,0,0.2c1-0.7,3.6-0.6,5.2-0.6l-0.2-0.7c-0.9-0.4-1.3-1.5-1.5-1.6
		c-6.7-4.5-14.3-1.1-14.3-1.1s-8.9,5.8,1.8,13.9C737.8,165.8,743.8,158.7,745.5,156.8z"/>
	<path fill="#F1BDC9" d="M766.4,170.6c0,0,5.2-4.2,3.8-8.2c-2.4-10.7-14.2-9.2-16.7-8.7c-0.1,0-0.6,0.7-1.3,0.6l-1.2,1.7
		c0.4,0.2,0.4,2.4,0.5,2.5C759.5,175.6,766.4,170.6,766.4,170.6z M760.4,156.8c-0.5,0.1-1-0.1-1-0.5c0,0,0-0.1,0-0.2
		c-1.7,0.6-6.7-1.2-6.7-1.2l6.8,1c0.1-0.2,0.4-0.3,0.7-0.3c0.5-0.1,1,0.1,1,0.5S760.8,156.8,760.4,156.8z"/>
	<path fill="#F1BDC9" d="M751.2,158.8c-0.1-0.2-1-0.7-1.1-1.9l-2.8-0.7c0.4,0.3-1,1.1-2,0.8c-10.3,13.5-3.5,19.3-3.5,19.3
		s3.1,3,6.2,2.5C757.1,176.5,752.4,162.1,751.2,158.8z M746.9,165.4c-0.3-0.1-0.6-0.5-0.6-1c0-0.5,0.3-1,0.6-0.9
		c0,0,0.1,0.1,0.2,0.1c-0.2-2,2.3-6.5,2.3-6.5l-2.1,6.7c0.1,0.2,0.2,0.5,0.2,0.8C747.4,165.1,747.1,165.5,746.9,165.4z"/>
	<path fill="#F1BDC9" d="M753.1,151.2c-1.3-2.4-3.9-3.6-6-2.5c-2,1.1-2.6,3.9-1.3,6.3c1.3,2.4,3.9,3.6,6,2.5
		C753.8,156.5,754.4,153.7,753.1,151.2z M746.5,151.7c-0.2,0.1-0.4,0-0.5-0.2c-0.1-0.2,0-0.4,0.2-0.5s0.4,0,0.5,0.2
		c0,0.1,0,0.2,0,0.2c0.5-0.1,1.7,0.4,1.7,0.4l-1.7-0.3C746.6,151.6,746.6,151.7,746.5,151.7z M751.2,150c-0.1-0.2-0.1-0.4-0.1-0.6
		c0-0.3,0.2-0.4,0.3-0.1c0.2,0.2,0.3,0.7,0.3,1c0,0.3-0.2,0.4-0.3,0.1c0,0-0.1-0.1-0.1-0.2c0.1,1.3-1.3,2.1-1.3,2.1L751.2,150z
		 M748,156.2c-0.2-0.1-0.4-0.2-0.3-0.5c0.1-0.2,0.2-0.3,0.5-0.3c0,0,0.1,0,0.1,0c-0.2-0.9,1.1-2.4,1.1-2.4l-1.1,2.4
		c0.1,0.1,0.2,0.2,0.1,0.4C748.5,156.2,748.3,156.3,748,156.2z M750.8,156.9c-0.1-0.1-0.1-0.4,0-0.6c0,0,0,0,0-0.1
		c-0.4-0.4-0.5-3.1-0.5-3.1l0.6,3c0.1,0,0.1,0,0.2,0.1c0.1,0.1,0.1,0.4,0,0.6C751.1,157.1,750.9,157.1,750.8,156.9z"/>
</g>
<g>
	<path fill="#F1BDC9" d="M696.5,306.2c-0.1,0-0.2,0.1-0.2,0c-0.2,0-0.3-0.1-0.3-0.2s0.1-0.2,0.3-0.2c0.2,0,0.3,0.1,0.3,0.2
		L696.5,306.2c0.6-0.1,1.6,0.6,2,0.8l0,0c-0.1-0.6,0-0.9,0-0.9c-1-1.7-6.7-3.7-6.7,0.2c0,3.5,4.5,2.4,5.7,2c0.1,0,0.2-0.5,0.8-0.8
		l0.1-0.4L696.5,306.2z"/>
	<path fill="#F1BDC9" d="M700.5,300.2c0,0-1.9-0.4-2.8,0.4c-2,2.3-0.1,4.5,0.7,5.2c0.1,0.1,0.4,0.4,1,0.2l0.4,0.5
		c0.2-0.3,0.9-0.5,0.9-0.6C703.8,302.3,700.5,300.2,700.5,300.2z M699.8,303.9c0-0.1-0.1-0.1-0.1-0.2c-0.1-0.2,0-0.3,0.1-0.4
		c0.1,0,0.2,0.1,0.3,0.3c0.1,0.2,0,0.3-0.1,0.4L699.8,303.9c0.4,0.6-0.1,2.3-0.1,2.3L699.8,303.9z"/>
	<path fill="#F1BDC9" d="M699.6,309.2c0,0-0.3-0.3-0.3-0.6l-0.5-0.3l-1.1,1.5c0,0.1,0,0.1,0,0.2c0,0.2-0.2,0.3-0.3,0.3
		c-0.1,0-0.1-0.2-0.1-0.4c0-0.2,0.2-0.3,0.3-0.3l0,0c0.1-0.4,0.6-1.1,1-1.5l-0.2-0.1c-0.3,0.1-0.6,0-0.7,0c-2.5,0.8-3.4,3.5-3.4,3.5
		s-0.6,3.7,3.6,2.7C700,313.2,699.7,310,699.6,309.2z"/>
	<path fill="#F1BDC9" d="M707.3,306.8c0,0,0.2-2.3-1.1-2.8c-2.9-1.8-5.2,1.7-5.6,2.4c0,0,0,0.3-0.1,0.5l0.1,0.7
		c0.1,0,0.6,0.4,0.7,0.5C707,309.7,707.3,306.8,707.3,306.8z M702.8,305.3c-0.1,0.2-0.2,0.2-0.3,0.2c0,0,0,0,0-0.1
		c-0.2,0.6-1.7,1.5-1.7,1.5l1.7-1.6c0-0.1,0-0.1,0.1-0.2c0.1-0.2,0.2-0.2,0.3-0.2C702.9,305,702.9,305.1,702.8,305.3z"/>
	<path fill="#F1BDC9" d="M701.3,308.1c0,0-0.4,0.1-0.7-0.1l-0.8,0.6c0.2-0.1,0,0.5-0.2,0.7c0.9,5.8,3.7,5.2,3.7,5.2s1.4-0.1,1.9-1.1
		C706.6,310.5,702.3,308.5,701.3,308.1z M701.9,310.7c-0.1,0.1-0.2,0-0.4-0.1c-0.1-0.1-0.2-0.3-0.1-0.4l0.1,0c-0.5-0.4-1-2.1-1-2.1
		l1.1,2.1c0.1,0,0.1,0,0.2,0.1C701.9,310.5,701.9,310.7,701.9,310.7z"/>
	<path fill="#F1BDC9" d="M700,305.9c-0.8-0.2-1.7,0.2-1.9,1c-0.2,0.8,0.3,1.5,1.2,1.8c0.8,0.2,1.7-0.2,1.9-1S700.8,306.1,700,305.9z
		 M698.6,307.7c0,0-0.1,0.1-0.2,0.1c-0.1,0-0.1-0.1-0.1-0.2c0,0,0.1-0.1,0.2-0.1s0,0,0.1,0.1c0.1-0.2,0.5-0.4,0.5-0.4L698.6,307.7
		L698.6,307.7z M699.3,306.2c0,0-0.1-0.1-0.2-0.1c-0.1-0.1-0.1-0.1,0-0.1c0.1,0,0.2,0.1,0.3,0.1c0.1,0.1,0.1,0.1,0,0.1L699.3,306.2
		c0.4,0.3,0.3,0.9,0.3,0.9L699.3,306.2z M700,308.4c-0.1,0-0.1,0-0.2,0c0-0.1,0-0.1,0-0.2c0,0,0,0,0.1,0c-0.2-0.2-0.3-0.8-0.3-0.8
		l0.3,0.8c0,0,0.1,0,0.1,0C700.1,308.3,700.1,308.3,700,308.4z M700.8,307.8c0,0-0.1-0.1-0.2-0.1l0,0c-0.2,0-0.8-0.6-0.8-0.6
		l0.8,0.5c0,0,0.1,0,0.1,0c0,0,0.1,0.1,0.2,0.1C700.9,307.7,700.8,307.8,700.8,307.8z"/>
</g>
<g>
	<path fill="#F1BDC9" d="M473.2,304.7c-0.1,0-0.2,0.1-0.3,0.1c-0.2,0-0.3-0.1-0.4-0.3c0-0.1,0.2-0.2,0.4-0.2c0.2,0,0.3,0.1,0.4,0.3
		C473.3,304.6,473.3,304.6,473.2,304.7c0.7-0.1,1.9,0.7,2.3,1l0,0c-0.1-0.7,0-1-0.1-1.1c-1.1-2-7.7-4.3-7.7,0.3
		c0,4.2,5.1,2.8,6.6,2.3c0.1,0,0.2-0.6,1-0.9l0.2-0.5L473.2,304.7z"/>
	<path fill="#F1BDC9" d="M477.9,297.5c0,0-2.2-0.5-3.2,0.5c-2.4,2.8-0.1,5.3,0.8,6.2c0.1,0.1,0.5,0.5,1.2,0.2l0.5,0.6
		c0.2-0.4,1-0.6,1.1-0.7C481.7,300,477.9,297.5,477.9,297.5z M477.1,301.9c-0.1-0.1-0.1-0.1-0.1-0.3c0-0.2,0-0.4,0.1-0.4
		c0.1,0,0.3,0.1,0.3,0.3s0,0.4-0.1,0.4C477.2,301.9,477.2,301.9,477.1,301.9c0.4,0.7-0.1,2.8-0.1,2.8L477.1,301.9z"/>
	<path fill="#F1BDC9" d="M476.8,308.2c0,0-0.4-0.3-0.3-0.7l-0.6-0.3l-1.2,1.9c0,0.1,0,0.2,0,0.3c-0.1,0.2-0.2,0.3-0.3,0.3
		c-0.1,0-0.2-0.2-0.1-0.4c0.1-0.2,0.2-0.3,0.3-0.3c0,0,0,0,0.1,0.1c0.1-0.5,0.7-1.3,1.2-1.8l-0.3-0.1c-0.3,0.2-0.7,0-0.8,0
		c-2.9,1-3.9,4.2-3.9,4.2s-0.7,4.4,4.1,3.1C477.2,313,476.9,309.3,476.8,308.2z"/>
	<path fill="#F1BDC9" d="M485.7,305.3c0,0,0.2-2.8-1.2-3.4c-3.4-2.1-6,2.1-6.5,3c0,0,0,0.4-0.2,0.6l0.1,0.8c0.2-0.1,0.7,0.5,0.8,0.5
		C485.3,308.8,485.7,305.3,485.7,305.3z M480.6,303.5c-0.1,0.2-0.3,0.3-0.4,0.2c0,0,0,0,0-0.1c-0.3,0.7-2,1.8-2,1.8l2-1.9
		c0-0.1,0-0.2,0.1-0.3c0.1-0.2,0.3-0.3,0.4-0.2S480.7,303.3,480.6,303.5z"/>
	<path fill="#F1BDC9" d="M478.8,306.9c-0.1,0-0.5,0.1-0.8-0.1l-0.9,0.7c0.2,0,0,0.6-0.3,0.8c0.9,6.9,4.2,6.2,4.2,6.2
		s1.6-0.2,2.2-1.3C484.9,309.8,480,307.5,478.8,306.9z M479.4,310.1c-0.1,0.1-0.3,0-0.4-0.1c-0.2-0.1-0.2-0.3-0.1-0.4l0.1,0
		c-0.6-0.4-1.1-2.5-1.1-2.5l1.2,2.4c0.1,0,0.2,0,0.2,0.2C479.5,309.8,479.5,310,479.4,310.1z"/>
	<path fill="#F1BDC9" d="M477.3,304.3c-1-0.3-1.9,0.3-2.2,1.2s0.4,1.8,1.3,2.1c0.9,0.2,1.9-0.3,2.2-1.2S478.3,304.6,477.3,304.3z
		 M475.7,306.5c0,0.1-0.1,0.1-0.2,0.1c-0.1,0-0.1-0.1-0.1-0.2c0-0.1,0.1-0.1,0.2-0.1c0,0,0,0,0.1,0.1c0.1-0.2,0.5-0.4,0.5-0.4
		L475.7,306.5L475.7,306.5z M476.5,304.6c-0.1,0-0.1-0.1-0.2-0.1c-0.1-0.1-0.1-0.2,0-0.1s0.3,0.1,0.3,0.2c0.1,0.1,0.1,0.2,0,0.1
		C476.6,304.7,476.6,304.6,476.5,304.6c0.5,0.3,0.3,1,0.3,1L476.5,304.6z M477.3,307.3c-0.1,0-0.2,0.1-0.2,0c0-0.1,0-0.1,0.1-0.2
		c0,0,0,0,0.1,0c-0.3-0.2-0.3-1-0.3-1l0.4,1c0,0,0.1,0,0.1,0.1C477.4,307.1,477.4,307.2,477.3,307.3z M478.2,306.6
		c0,0-0.1-0.1-0.1-0.2l0,0c-0.2,0-0.9-0.7-0.9-0.7l0.9,0.6c0,0,0.1,0,0.1,0c0,0,0.1,0.1,0.1,0.2
		C478.3,306.6,478.3,306.5,478.2,306.6z"/>
</g>
<g>
	<path fill="#F1BDC9" d="M358.2,355.7c-0.1,0-0.2,0.1-0.3,0.1c-0.2,0-0.3-0.1-0.4-0.3c0-0.1,0.2-0.2,0.4-0.2c0.2,0,0.3,0.1,0.4,0.3
		C358.3,355.6,358.3,355.6,358.2,355.7c0.7-0.1,1.9,0.7,2.3,1l0,0c-0.1-0.7,0-1-0.1-1.1c-1.1-2-7.7-4.3-7.7,0.3
		c0,4.2,5.1,2.8,6.6,2.3c0.1,0,0.2-0.6,1-0.9l0.2-0.5L358.2,355.7z"/>
	<path fill="#F1BDC9" d="M363,348.5c0,0-2.2-0.5-3.2,0.5c-2.4,2.8-0.1,5.3,0.8,6.2c0.1,0.1,0.5,0.5,1.2,0.2l0.5,0.6
		c0.2-0.4,1-0.6,1.1-0.7C366.7,351,363,348.5,363,348.5z M362.1,352.9c-0.1-0.1-0.1-0.1-0.1-0.3c0-0.2,0-0.4,0.1-0.4
		c0.1,0,0.3,0.1,0.3,0.3s0,0.4-0.1,0.4C362.3,352.9,362.2,352.9,362.1,352.9c0.4,0.7-0.1,2.8-0.1,2.8L362.1,352.9z"/>
	<path fill="#F1BDC9" d="M361.8,359.2c0,0-0.4-0.3-0.3-0.7l-0.6-0.3l-1.2,1.9c0,0.1,0,0.2,0,0.3c-0.1,0.2-0.2,0.3-0.3,0.3
		c-0.1,0-0.2-0.2-0.1-0.4c0.1-0.2,0.2-0.3,0.3-0.3c0,0,0,0,0.1,0.1c0.1-0.5,0.7-1.3,1.2-1.8l-0.3-0.1c-0.3,0.2-0.7,0-0.8,0
		c-2.9,1-3.9,4.2-3.9,4.2s-0.7,4.4,4.1,3.1C362.2,364,361.9,360.2,361.8,359.2z"/>
	<path fill="#F1BDC9" d="M370.8,356.3c0,0,0.2-2.8-1.2-3.4c-3.4-2.1-6,2.1-6.5,3c0,0,0,0.4-0.2,0.6l0.1,0.8c0.2-0.1,0.7,0.5,0.8,0.5
		C370.3,359.8,370.8,356.3,370.8,356.3z M365.6,354.5c-0.1,0.2-0.3,0.3-0.4,0.2c0,0,0,0,0-0.1c-0.3,0.7-2,1.8-2,1.8l2-1.9
		c0-0.1,0-0.2,0.1-0.3c0.1-0.2,0.3-0.3,0.4-0.2C365.8,354.1,365.7,354.3,365.6,354.5z"/>
	<path fill="#F1BDC9" d="M363.8,357.9c-0.1,0-0.5,0.1-0.8-0.1l-0.9,0.7c0.2,0,0,0.6-0.3,0.8c0.9,6.9,4.2,6.2,4.2,6.2
		s1.6-0.2,2.2-1.3C369.9,360.8,365,358.4,363.8,357.9z M364.4,361.1c-0.1,0.1-0.3,0-0.4-0.1c-0.2-0.1-0.2-0.3-0.1-0.4l0.1,0
		c-0.6-0.4-1.1-2.5-1.1-2.5l1.2,2.4c0.1,0,0.2,0,0.2,0.2C364.5,360.8,364.5,361,364.4,361.1z"/>
	<path fill="#F1BDC9" d="M362.3,355.3c-1-0.3-1.9,0.3-2.2,1.2s0.4,1.8,1.3,2.1c0.9,0.2,1.9-0.3,2.2-1.2
		C363.8,356.5,363.3,355.5,362.3,355.3z M360.8,357.5c0,0.1-0.1,0.1-0.2,0.1s-0.1-0.1-0.1-0.2c0-0.1,0.1-0.1,0.2-0.1
		c0,0,0,0,0.1,0.1c0.1-0.2,0.5-0.4,0.5-0.4L360.8,357.5L360.8,357.5z M361.5,355.6c-0.1,0-0.1-0.1-0.2-0.1c-0.1-0.1-0.1-0.2,0-0.1
		s0.3,0.1,0.3,0.2c0.1,0.1,0.1,0.2,0,0.1C361.7,355.6,361.6,355.6,361.5,355.6c0.5,0.3,0.3,1,0.3,1L361.5,355.6z M362.4,358.2
		c-0.1,0-0.2,0.1-0.2,0c0-0.1,0-0.1,0.1-0.2c0,0,0,0,0.1,0c-0.3-0.2-0.3-1-0.3-1l0.4,1c0,0,0.1,0,0.1,0.1
		C362.4,358.1,362.4,358.2,362.4,358.2z M363.2,357.6c0,0-0.1-0.1-0.1-0.2l0,0c-0.2,0-0.9-0.7-0.9-0.7l0.9,0.6c0,0,0.1,0,0.1,0
		c0,0,0.1,0.1,0.1,0.2C363.3,357.5,363.3,357.5,363.2,357.6z"/>
</g>
<g>
	<path fill="#F1BDC9" d="M503.2,293.7c-0.1,0-0.2,0.1-0.3,0.1c-0.2,0-0.3-0.1-0.4-0.3c0-0.1,0.2-0.2,0.4-0.2c0.2,0,0.3,0.1,0.4,0.3
		C503.3,293.6,503.3,293.6,503.2,293.7c0.7-0.1,1.9,0.7,2.3,1l0,0c-0.1-0.7,0-1-0.1-1.1c-1.1-2-7.7-4.3-7.7,0.3
		c0,4.2,5.1,2.8,6.6,2.3c0.1,0,0.2-0.6,1-0.9l0.2-0.5L503.2,293.7z"/>
	<path fill="#F1BDC9" d="M508,286.5c0,0-2.2-0.5-3.2,0.5c-2.4,2.8-0.1,5.3,0.8,6.2c0.1,0.1,0.5,0.5,1.2,0.2l0.5,0.6
		c0.2-0.4,1-0.6,1.1-0.7C511.7,289,508,286.5,508,286.5z M507.1,290.9c-0.1-0.1-0.1-0.1-0.1-0.3c0-0.2,0-0.4,0.1-0.4
		c0.1,0,0.3,0.1,0.3,0.3c0,0.2,0,0.4-0.1,0.4C507.3,290.9,507.2,290.9,507.1,290.9c0.4,0.7-0.1,2.8-0.1,2.8L507.1,290.9z"/>
	<path fill="#F1BDC9" d="M506.8,297.2c0,0-0.4-0.3-0.3-0.7l-0.6-0.3l-1.2,1.9c0,0.1,0,0.2,0,0.3c-0.1,0.2-0.2,0.3-0.3,0.3
		c-0.1,0-0.2-0.2-0.1-0.4c0.1-0.2,0.2-0.3,0.3-0.3c0,0,0,0,0.1,0.1c0.1-0.5,0.7-1.3,1.2-1.8l-0.3-0.1c-0.3,0.2-0.7,0-0.8,0
		c-2.9,1-3.9,4.2-3.9,4.2s-0.7,4.4,4.1,3.1C507.2,302,506.9,298.3,506.8,297.2z"/>
	<path fill="#F1BDC9" d="M515.7,294.3c0,0,0.2-2.8-1.2-3.4c-3.4-2.1-6,2.1-6.5,3c0,0,0,0.4-0.2,0.6l0.1,0.8c0.2-0.1,0.7,0.5,0.8,0.5
		C515.3,297.8,515.7,294.3,515.7,294.3z M510.6,292.5c-0.1,0.2-0.3,0.3-0.4,0.2c0,0,0,0,0-0.1c-0.3,0.7-2,1.8-2,1.8l2-1.9
		c0-0.1,0-0.2,0.1-0.3c0.1-0.2,0.3-0.3,0.4-0.2C510.7,292.2,510.7,292.4,510.6,292.5z"/>
	<path fill="#F1BDC9" d="M508.8,295.9c-0.1,0-0.5,0.1-0.8-0.1l-0.9,0.7c0.2,0,0,0.6-0.3,0.8c0.9,6.9,4.2,6.2,4.2,6.2
		s1.6-0.2,2.2-1.3C514.9,298.8,510,296.4,508.8,295.9z M509.4,299.1c-0.1,0.1-0.3,0-0.4-0.1c-0.2-0.1-0.2-0.3-0.1-0.4l0.1,0
		c-0.6-0.4-1.1-2.5-1.1-2.5l1.2,2.4c0.1,0,0.2,0,0.2,0.2C509.5,298.8,509.5,299,509.4,299.1z"/>
	<path fill="#F1BDC9" d="M507.3,293.3c-1-0.3-1.9,0.3-2.2,1.2c-0.2,0.9,0.4,1.8,1.3,2.1c0.9,0.2,1.9-0.3,2.2-1.2
		C508.8,294.5,508.2,293.6,507.3,293.3z M505.7,295.5c0,0.1-0.1,0.1-0.2,0.1s-0.1-0.1-0.1-0.2c0-0.1,0.1-0.1,0.2-0.1
		c0,0,0,0,0.1,0.1c0.1-0.2,0.5-0.4,0.5-0.4L505.7,295.5L505.7,295.5z M506.5,293.6c-0.1,0-0.1-0.1-0.2-0.1c-0.1-0.1-0.1-0.2,0-0.1
		c0.1,0,0.3,0.1,0.3,0.2c0.1,0.1,0.1,0.2,0,0.1C506.7,293.6,506.6,293.6,506.5,293.6c0.5,0.3,0.3,1,0.3,1L506.5,293.6z M507.3,296.3
		c-0.1,0-0.2,0.1-0.2,0c0-0.1,0-0.1,0.1-0.2c0,0,0,0,0.1,0c-0.3-0.2-0.3-1-0.3-1l0.4,1c0,0,0.1,0,0.1,0.1
		C507.4,296.1,507.4,296.2,507.3,296.3z M508.2,295.5c0,0-0.1-0.1-0.1-0.2l0,0c-0.2,0-0.9-0.7-0.9-0.7l0.9,0.6c0,0,0.1,0,0.1,0
		c0,0,0.1,0.1,0.1,0.2C508.3,295.5,508.3,295.6,508.2,295.5z"/>
</g>
<g>
	<path fill="#F4DBDD" d="M658.6,299.3c-0.1,0.1-0.3,0.1-0.4,0.1c-0.3,0-0.6-0.2-0.5-0.4c0-0.2,0.3-0.3,0.6-0.3
		c0.3,0,0.6,0.2,0.5,0.4c0,0,0,0.1,0,0.1c0.9,0,2.8,1.1,3.4,1.5l0-0.1c-0.2-1-0.1-1.5-0.1-1.6c-1.8-3-11.9-6.4-11.8,0.3
		c0,6.2,8,4.2,10.2,3.6c0.1,0,0.3-0.9,1.5-1.4l0.2-0.7L658.6,299.3z"/>
	<path fill="#F4DBDD" d="M665.7,288.7c0,0-3.4-0.8-5,0.7c-3.6,4.1-0.1,7.9,1.3,9.2c0.1,0.1,0.7,0.8,1.8,0.4l0.7,0.9
		c0.3-0.6,1.6-0.9,1.6-1C671.6,292.4,665.7,288.7,665.7,288.7z M664.4,295.2c-0.1-0.1-0.2-0.2-0.2-0.4c-0.1-0.3,0-0.6,0.2-0.6
		s0.4,0.1,0.5,0.4c0.1,0.3,0,0.6-0.2,0.6c0,0-0.1,0-0.1,0c0.4,1.1-0.3,4-0.3,4L664.4,295.2z"/>
	<path fill="#F4DBDD" d="M664.2,304.6c0-0.1-0.6-0.5-0.5-1l-1-0.5l-1.8,2.7c0.1,0.1,0,0.3,0,0.4c-0.1,0.3-0.3,0.5-0.5,0.4
		c-0.2,0-0.2-0.3-0.2-0.7c0.1-0.3,0.3-0.5,0.5-0.4c0,0,0.1,0,0.1,0.1c0.1-0.7,1.1-1.9,1.8-2.7l-0.4-0.2c-0.5,0.3-1.1,0-1.2,0.1
		c-4.5,1.4-5.9,6.2-5.9,6.2s-1.1,6.5,6.4,4.7C664.8,311.8,664.3,306.2,664.2,304.6z"/>
	<path fill="#F4DBDD" d="M677.8,300.3c0,0,0.3-4.1-1.9-5c-5.2-3.2-9.2,3-10,4.3c0,0,0.1,0.5-0.3,0.8l0.2,1.2
		c0.3-0.1,1.1,0.8,1.2,0.8C677.2,305.6,677.8,300.3,677.8,300.3z M669.9,297.7c-0.2,0.2-0.4,0.4-0.6,0.3c0,0-0.1-0.1-0.1-0.1
		c-0.4,1.1-3,2.7-3,2.7l3-2.8c0-0.1,0-0.3,0.1-0.4c0.2-0.2,0.4-0.4,0.6-0.3C670.1,297.1,670.1,297.4,669.9,297.7z"/>
	<path fill="#F4DBDD" d="M667.2,302.7c-0.1,0-0.7,0.2-1.2-0.3l-1.4,1c0.3-0.1,0,0.9-0.4,1.2c1.5,10.2,6.5,9.4,6.5,9.4
		s2.4-0.2,3.4-1.9C676.6,307.1,669,303.5,667.2,302.7z M668.2,307.4c-0.1,0.2-0.4,0.1-0.6-0.2s-0.3-0.5-0.1-0.6c0,0,0.1,0,0.1-0.1
		c-0.9-0.7-1.8-3.7-1.8-3.7l1.9,3.7c0.1,0,0.3,0.1,0.4,0.2C668.3,307,668.3,307.3,668.2,307.4z"/>
	<path fill="#F4DBDD" d="M664.8,298.8c-1.5-0.4-3,0.4-3.3,1.8c-0.4,1.4,0.6,2.8,2.1,3.2c1.5,0.4,3-0.4,3.3-1.8
		C667.2,300.6,666.3,299.2,664.8,298.8z M662.5,302.1c0,0.1-0.2,0.2-0.3,0.2c-0.1,0-0.2-0.1-0.2-0.3c0-0.1,0.2-0.2,0.3-0.2
		c0,0,0.1,0,0.1,0.1c0.2-0.2,0.8-0.6,0.8-0.6l-0.8,0.7C662.5,302,662.5,302.1,662.5,302.1z M663.6,299.2c-0.1,0-0.2-0.1-0.3-0.2
		c-0.1-0.1-0.1-0.2,0.1-0.2c0.2,0,0.4,0.1,0.5,0.2c0.1,0.1,0.1,0.2-0.1,0.2c0,0-0.1,0-0.1,0c0.6,0.5,0.4,1.5,0.4,1.5L663.6,299.2z
		 M664.9,303.2c-0.1,0.1-0.2,0-0.3,0c-0.1-0.1,0-0.2,0.1-0.3l0.1,0c-0.5-0.3-0.5-1.5-0.5-1.5l0.6,1.5c0.1,0,0.1,0,0.2,0.1
		C665.1,303,665,303.1,664.9,303.2z M666.3,302.1c-0.1,0-0.2-0.1-0.2-0.2c0,0,0,0,0-0.1c-0.3,0.1-1.4-1-1.4-1l1.5,0.9
		c0,0,0.1-0.1,0.1-0.1c0.1,0,0.2,0.1,0.2,0.2C666.4,302.1,666.4,302.2,666.3,302.1z"/>
</g>
<g>
	<path fill="#F4DBDD" d="M633.4,351c-0.1,0-0.2,0.1-0.3,0.1c-0.2,0-0.3-0.1-0.4-0.3c0-0.1,0.2-0.2,0.4-0.2c0.2,0,0.3,0.1,0.4,0.3
		C633.5,350.9,633.5,350.9,633.4,351c0.7-0.1,1.9,0.7,2.3,1l0,0c-0.2-0.7,0-1-0.1-1.1c-1.2-2-7.9-4.3-7.9,0.2c0,4.1,5.3,2.8,6.8,2.4
		c0.1,0,0.2-0.6,1-0.9l0.2-0.5L633.4,351z"/>
	<path fill="#F4DBDD" d="M638.2,343.9c0,0-2.3-0.5-3.3,0.5c-2.4,2.7,0,5.3,0.9,6.2c0.1,0.1,0.5,0.5,1.2,0.2l0.5,0.6
		c0.2-0.4,1.1-0.6,1.1-0.7C642.1,346.4,638.2,343.9,638.2,343.9z M637.4,348.2c-0.1-0.1-0.1-0.1-0.2-0.3c0-0.2,0-0.4,0.1-0.4
		c0.1,0,0.3,0.1,0.3,0.3c0,0.2,0,0.4-0.1,0.4C637.5,348.3,637.4,348.3,637.4,348.2c0.3,0.7-0.1,2.7-0.1,2.7L637.4,348.2z"/>
	<path fill="#F4DBDD" d="M637.2,354.5c0,0-0.4-0.3-0.4-0.7l-0.7-0.3l-1.2,1.8c0,0.1,0,0.2,0,0.3c-0.1,0.2-0.2,0.3-0.3,0.3
		c-0.1,0-0.2-0.2-0.1-0.4c0.1-0.2,0.2-0.3,0.3-0.3c0,0,0,0,0.1,0.1c0.1-0.5,0.8-1.3,1.2-1.8l-0.3-0.1c-0.3,0.2-0.8,0-0.8,0
		c-3,0.9-4,4.2-4,4.2s-0.7,4.4,4.2,3.2C637.6,359.4,637.3,355.6,637.2,354.5z"/>
	<path fill="#F4DBDD" d="M646.3,351.7c0,0,0.2-2.8-1.3-3.4c-3.5-2.1-6.1,2-6.7,2.9c0,0,0.1,0.3-0.2,0.6l0.1,0.8
		c0.2-0.1,0.7,0.5,0.8,0.5C645.9,355.2,646.3,351.7,646.3,351.7z M641,349.9c-0.1,0.2-0.3,0.3-0.4,0.2c0,0,0,0,0-0.1
		c-0.3,0.7-2.1,1.8-2.1,1.8l2-1.9c0-0.1,0-0.2,0.1-0.3c0.1-0.2,0.3-0.3,0.4-0.2C641.1,349.5,641.1,349.7,641,349.9z"/>
	<path fill="#F4DBDD" d="M639.2,353.3c-0.1,0-0.5,0.1-0.8-0.1l-0.9,0.7c0.2,0,0,0.6-0.3,0.8c1,6.8,4.4,6.3,4.4,6.3s1.6-0.2,2.3-1.3
		C645.5,356.2,640.4,353.8,639.2,353.3z M639.9,356.4c-0.1,0.1-0.3,0-0.4-0.1s-0.2-0.3-0.1-0.4l0.1,0c-0.6-0.4-1.2-2.4-1.2-2.4
		l1.3,2.5c0.1,0,0.2,0,0.2,0.2C639.9,356.1,640,356.3,639.9,356.4z"/>
	<path fill="#F4DBDD" d="M637.6,350.7c-1-0.3-2,0.3-2.2,1.2c-0.2,0.9,0.4,1.8,1.4,2.1c1,0.3,2-0.3,2.2-1.2
		C639.2,351.8,638.6,350.9,637.6,350.7z M636,352.9c0,0.1-0.1,0.1-0.2,0.1c-0.1,0-0.1-0.1-0.1-0.2c0-0.1,0.1-0.1,0.2-0.1
		c0,0,0,0,0.1,0.1c0.1-0.2,0.5-0.4,0.5-0.4L636,352.9C636.1,352.8,636,352.8,636,352.9z M636.8,350.9c-0.1,0-0.1-0.1-0.2-0.1
		c-0.1-0.1-0.1-0.2,0-0.1s0.3,0.1,0.3,0.2c0.1,0.1,0.1,0.2,0,0.1C636.9,351,636.9,351,636.8,350.9c0.4,0.3,0.3,1,0.3,1L636.8,350.9z
		 M637.7,353.6c-0.1,0-0.2,0.1-0.2-0.1s0-0.1,0.1-0.2c0,0,0,0,0.1,0c-0.3-0.2-0.4-1-0.4-1l0.4,1c0,0,0.1,0,0.1,0.1
		C637.8,353.4,637.7,353.6,637.7,353.6z M638.6,352.9c0,0-0.1-0.1-0.1-0.2l0,0c-0.2,0-1-0.7-1-0.7l1,0.6c0,0,0.1,0,0.1,0
		c0,0,0.1,0.1,0.1,0.2C638.7,352.9,638.7,352.9,638.6,352.9z"/>
</g>
<g>
	<path fill="#F4DBDD" d="M454.5,369.9c-0.1,0-0.3-0.1-0.4-0.2c-0.2-0.2-0.3-0.5-0.2-0.6c0.1-0.1,0.4,0,0.6,0.2
		c0.2,0.2,0.3,0.5,0.2,0.6c0,0-0.1,0-0.1,0c0.7,0.6,1.4,2.5,1.6,3.3l0.1,0c0.4-0.8,0.8-1.1,0.8-1.2c0.4-3.2-5-12.1-8.7-7.4
		c-3.4,4.2,3.4,8,5.4,9c0.1,0.1,0.7-0.4,1.8,0l0.6-0.3L454.5,369.9z"/>
	<path fill="#F4DBDD" d="M465.5,367.2c0,0-2.1-2.8-4-2.8c-4.8,0.5-4.4,5.4-4.1,7.2c0,0.1,0.1,1,1.1,1.4l0,1c0.6-0.2,1.6,0.4,1.7,0.3
		C467.7,373.5,465.5,367.2,465.5,367.2z M461,370.8c0-0.1,0-0.3,0.1-0.4c0.1-0.3,0.3-0.4,0.5-0.3s0.2,0.4,0.1,0.6
		c-0.1,0.3-0.3,0.4-0.5,0.3c0,0,0-0.1-0.1-0.1c-0.3,1-2.4,2.6-2.4,2.6L461,370.8z"/>
	<path fill="#F4DBDD" d="M455.6,377.1c0.1-0.1-0.1-0.7,0.2-1l-0.5-1l-2.8,0.7c0,0.1-0.1,0.2-0.3,0.3c-0.2,0.1-0.5,0.1-0.6,0
		c-0.1-0.2,0-0.4,0.2-0.6c0.2-0.1,0.5-0.1,0.6,0c0,0.1,0,0.1,0,0.1c0.5-0.4,1.9-0.6,2.7-0.7l-0.2-0.4c-0.5-0.1-0.8-0.7-0.9-0.8
		c-4-1.9-7.7,0.5-7.7,0.5s-4.3,3.8,2,7.3C452.1,382.4,454.8,378.3,455.6,377.1z"/>
	<path fill="#F4DBDD" d="M467.8,383c0,0,2.5-2.7,1.4-4.7c-2.1-5.6-8.3-3.9-9.6-3.5c-0.1,0-0.2,0.4-0.6,0.4l-0.5,1
		c0.2,0.1,0.4,1.2,0.4,1.3C464.5,386.2,467.8,383,467.8,383z M463.6,376c-0.3,0.1-0.5,0-0.6-0.1c0,0,0-0.1,0-0.1
		c-0.9,0.4-3.7-0.1-3.7-0.1l3.7,0c0.1-0.1,0.2-0.2,0.3-0.2c0.3-0.1,0.5,0,0.6,0.1C464,375.8,463.8,376,463.6,376z"/>
	<path fill="#F4DBDD" d="M458.8,377.7c-0.1-0.1-0.6-0.3-0.7-0.9l-1.6-0.2c0.3,0.1-0.4,0.6-1,0.6c-4.5,8-0.5,10.6-0.5,10.6
		s1.9,1.4,3.5,0.9C463.2,386.8,459.7,379.4,458.8,377.7z M456.9,381.6c-0.2,0-0.3-0.2-0.4-0.5c0-0.3,0.1-0.5,0.2-0.6
		c0,0,0.1,0,0.1,0c-0.3-1.1,0.7-3.6,0.7-3.6l-0.6,3.7c0.1,0.1,0.1,0.2,0.1,0.4C457.2,381.4,457.1,381.6,456.9,381.6z"/>
	<path fill="#F4DBDD" d="M459.3,373.5c-0.9-1.2-2.4-1.6-3.4-0.9c-1,0.7-1.1,2.3-0.2,3.5c0.9,1.2,2.4,1.6,3.4,0.9
		S460.1,374.8,459.3,373.5z M455.8,374.3c-0.1,0.1-0.2,0-0.3-0.1c-0.1-0.1,0-0.2,0-0.3s0.2,0,0.3,0.1c0,0.1,0,0.1,0.1,0.1
		c0.3-0.1,0.9,0.1,0.9,0.1l-0.9-0.1C455.8,374.2,455.8,374.3,455.8,374.3z M458.2,373c-0.1-0.1-0.1-0.2-0.1-0.3
		c0-0.1,0.1-0.2,0.2-0.1s0.2,0.3,0.3,0.5c0,0.1-0.1,0.2-0.2,0.1c0,0,0-0.1-0.1-0.1c0.2,0.7-0.6,1.3-0.6,1.3L458.2,373z M456.9,376.6
		c-0.1,0-0.2-0.1-0.2-0.2c0-0.1,0.1-0.2,0.2-0.2l0,0c-0.2-0.5,0.4-1.4,0.4-1.4l-0.4,1.4c0.1,0.1,0.1,0.1,0.1,0.2
		C457.2,376.5,457,376.6,456.9,376.6z M458.5,376.8c-0.1-0.1-0.1-0.2-0.1-0.3l0,0c-0.3-0.2-0.5-1.6-0.5-1.6l0.5,1.6c0,0,0.1,0,0.1,0
		c0.1,0.1,0.1,0.2,0.1,0.3C458.6,376.8,458.6,376.8,458.5,376.8z"/>
</g>
<g>
	<path fill="#F4DBDD" d="M745.4,259.2c0,0.1-0.1,0.2-0.2,0.2c-0.2,0.1-0.4,0-0.4-0.1c-0.1-0.1,0.1-0.3,0.2-0.4
		c0.2-0.1,0.4,0,0.4,0.1l0,0.1c0.5-0.3,2-0.3,2.5-0.3l0-0.1c-0.5-0.5-0.6-0.8-0.6-0.9c-2-1.1-9,0.4-6.7,4.2c2.1,3.5,6-0.3,7-1.5
		c0.1-0.1-0.1-0.6,0.4-1.3l-0.1-0.5L745.4,259.2z"/>
	<path fill="#F4DBDD" d="M745.9,250.7c0,0-2.2,0.8-2.6,2.1c-0.7,3.5,2.7,4.5,3.9,4.8c0.1,0,0.7,0.2,1.1-0.4l0.7,0.3
		c0-0.5,0.6-1,0.6-1.1C750.5,250.8,745.9,250.7,745.9,250.7z M747.4,254.8c-0.1,0-0.2,0-0.2-0.2c-0.2-0.1-0.2-0.3-0.1-0.4
		c0.1-0.1,0.3,0,0.4,0.1c0.2,0.1,0.2,0.3,0.1,0.4l-0.1,0c0.6,0.4,1.2,2.4,1.2,2.4L747.4,254.8z"/>
	<path fill="#F4DBDD" d="M750.4,260.3c0-0.1-0.5-0.1-0.7-0.4l-0.7,0.1l-0.1,2.2c0.1,0.1,0.1,0.1,0.1,0.3c0,0.2,0,0.4-0.1,0.4
		c-0.1,0-0.3-0.1-0.3-0.3c0-0.2,0-0.4,0.1-0.4c0,0,0,0,0.1,0c-0.2-0.5,0-1.5,0.1-2.1l-0.3,0c-0.2,0.3-0.6,0.4-0.7,0.4
		c-2.1,2.3-1.3,5.6-1.3,5.6s1.6,4.1,5.3,0.5C753.2,264.1,751,261.1,750.4,260.3z"/>
	<path fill="#F4DBDD" d="M756.8,253.2c0,0-1.3-2.5-2.8-2.2c-4.1,0-4.3,4.8-4.2,5.9c0,0,0.2,0.3,0.1,0.6l0.6,0.6c0.1-0.1,0.9,0,1,0.1
		C758.3,256.4,756.8,253.2,756.8,253.2z M751.4,254.4c0,0.2-0.1,0.4-0.2,0.4c0,0,0,0-0.1,0c0.1,0.7-0.8,2.5-0.8,2.5l0.8-2.6
		c0-0.1-0.1-0.2-0.1-0.3c0-0.2,0.1-0.4,0.2-0.4C751.3,254,751.4,254.2,751.4,254.4z"/>
	<path fill="#F4DBDD" d="M751.5,258.2c-0.1,0-0.3,0.3-0.8,0.3l-0.5,1c0.1-0.2,0.3,0.5,0.2,0.8c4.4,5.3,6.9,3.1,6.9,3.1
		s1.3-0.9,1.3-2.2C758.4,257.4,752.8,258,751.5,258.2z M753.7,260.5c0,0.1-0.2,0.2-0.4,0.1s-0.3-0.2-0.3-0.3c0,0,0,0,0-0.1
		c-0.7,0-2.2-1.5-2.2-1.5l2.3,1.4c0.1,0,0.2,0,0.3,0C753.6,260.2,753.7,260.3,753.7,260.5z"/>
	<path fill="#F4DBDD" d="M748.8,256.7c-1,0.3-1.6,1.3-1.3,2.1c0.3,0.9,1.3,1.4,2.3,1.1c1-0.3,1.6-1.3,1.3-2.1
		C750.8,257,749.8,256.5,748.8,256.7z M748.6,259.4c0,0.1,0,0.2-0.1,0.2c-0.1,0-0.2,0-0.2-0.1c0-0.1,0-0.2,0.1-0.2
		C748.5,259.3,748.5,259.3,748.6,259.4c-0.1-0.3,0.2-0.7,0.2-0.7L748.6,259.4C748.6,259.4,748.6,259.4,748.6,259.4z M748.2,257.4
		c-0.1,0-0.1,0-0.2,0c-0.1,0-0.1-0.1,0-0.1s0.3-0.1,0.4,0c0.1,0,0.1,0.1,0,0.1l-0.1,0c0.5,0.1,0.7,0.7,0.7,0.7L748.2,257.4z
		 M750.4,259.2c0,0.1-0.1,0.1-0.2,0.1s-0.1-0.1-0.1-0.2l0,0c-0.3,0-0.8-0.7-0.8-0.7l0.8,0.6c0.1,0,0.1,0,0.1,0
		C750.4,259,750.4,259.1,750.4,259.2z M750.8,258.1c-0.1,0-0.1,0-0.2-0.1c0,0,0,0,0-0.1c-0.2,0.1-1.2-0.1-1.2-0.1l1.2,0.1
		c0,0,0,0,0.1-0.1c0.1,0,0.1,0,0.2,0.1C750.9,258.1,750.9,258.1,750.8,258.1z"/>
</g>
<g>
	<path fill="#F1BDC9" d="M547.5,314.9c-0.2-0.1-0.3-0.3-0.5-0.6c-0.2-0.5-0.2-1,0.1-1.2c0.3-0.1,0.7,0.2,0.9,0.7
		c0.2,0.5,0.2,1-0.1,1.2c-0.1,0-0.1,0-0.2,0c0.8,1.4,0.8,5.3,0.8,6.7l0.1,0c1.3-1.2,2-1.4,2.1-1.5c2.7-5.3-1.1-24.1-10.4-18.3
		c-8.5,5.2,0.9,16,3.7,19c0.2,0.1,1.5-0.2,3.2,1.1l1.2-0.2L547.5,314.9z"/>
	<path fill="#F1BDC9" d="M568.4,317.2c0,0-1.9-6.1-5.2-7.3c-8.7-2.1-11.1,6.6-11.7,9.9c-0.1,0.3-0.5,1.8,1,3.1l-0.7,1.8
		c1.1,0,2.6,1.7,2.7,1.7C568.2,329.5,568.4,317.2,568.4,317.2z M558.2,320.6c0-0.2,0.2-0.5,0.4-0.7c0.3-0.4,0.8-0.5,1-0.2
		s0.1,0.7-0.2,1.1c-0.4,0.4-0.8,0.5-1,0.2c0-0.1-0.1-0.1-0.1-0.2c-1.1,1.6-5.9,2.9-5.9,2.9L558.2,320.6z"/>
	<path fill="#F1BDC9" d="M544.9,328.1c0.1-0.1,0.3-1.4,1-1.7l-0.2-2l-5.3-0.6c-0.1,0.2-0.4,0.3-0.6,0.4c-0.5,0.1-0.9-0.1-1-0.4
		c-0.1-0.3,0.3-0.7,0.7-0.8c0.5-0.1,0.9,0.1,1,0.4c0,0.1,0,0.1,0,0.2c1.1-0.5,3.6,0.1,5.2,0.5l0-0.8c-0.8-0.6-1-1.8-1.1-1.9
		c-5.7-5.8-13.7-4-13.7-4s-9.9,3.8-1.1,14C535.5,335.3,542.9,329.7,544.9,328.1z"/>
	<path fill="#F1BDC9" d="M562.5,346c0,0,6-3.1,5.4-7.2c-0.1-10.9-11.9-11.9-14.5-12c-0.1,0-0.7,0.6-1.4,0.3l-1.5,1.4
		c0.3,0.3-0.1,2.4-0.1,2.6C554.7,349.5,562.5,346,562.5,346z M559.5,331.3c-0.5,0-0.9-0.3-0.9-0.7c0,0,0-0.1,0-0.2
		c-1.8,0.2-6.3-2.6-6.3-2.6l6.4,2.4c0.2-0.1,0.4-0.2,0.7-0.2c0.5,0,0.9,0.3,0.9,0.7C560.4,331.1,559.9,331.3,559.5,331.3z"/>
	<path fill="#F1BDC9" d="M550.1,331.3c0-0.2-0.8-0.9-0.7-2.1l-2.6-1.3c0.3,0.4-1.2,0.8-2.1,0.4c-12.9,11.1-7.5,18.1-7.5,18.1
		s2.4,3.5,5.5,3.7C552.1,349.8,550.6,334.8,550.1,331.3z M544.5,336.9c-0.3-0.1-0.5-0.6-0.3-1.1c0.1-0.5,0.5-0.9,0.8-0.8
		c0,0,0.1,0.1,0.2,0.1c0.2-2,3.6-5.8,3.6-5.8l-3.4,6.1c0.1,0.2,0.1,0.5,0,0.8C545.1,336.6,544.7,337,544.5,336.9z"/>
	<path fill="#F1BDC9" d="M553.6,324.3c-0.7-2.6-3.1-4.3-5.3-3.7c-2.2,0.6-3.4,3.2-2.6,5.9s3.1,4.3,5.3,3.7
		C553.1,329.6,554.3,326.9,553.6,324.3z M547,323.4c-0.2,0-0.4-0.1-0.4-0.3c0-0.2,0.1-0.4,0.3-0.5c0.2,0,0.4,0.1,0.4,0.3
		c0,0.1,0,0.2,0,0.2c0.5,0,1.6,0.8,1.6,0.8l-1.6-0.7C547.1,323.3,547.1,323.3,547,323.4z M551.9,322.7c0-0.2,0-0.4,0-0.6
		c0.1-0.3,0.2-0.3,0.3-0.1c0.1,0.3,0.2,0.8,0.1,1c-0.1,0.3-0.2,0.3-0.3,0.1c0-0.1-0.1-0.1,0-0.2c-0.2,1.3-1.7,1.8-1.7,1.8
		L551.9,322.7z M547.6,328.1c-0.2-0.1-0.3-0.3-0.2-0.5c0.1-0.2,0.3-0.3,0.5-0.2c0,0,0.1,0,0.1,0.1c0-1,1.6-2.1,1.6-2.1l-1.5,2.2
		c0.1,0.1,0.1,0.3,0,0.4C548,328.2,547.8,328.2,547.6,328.1z M550.1,329.4c-0.1-0.2,0-0.4,0.1-0.6c0,0,0.1,0,0.1-0.1
		c-0.4-0.5,0.1-3.1,0.1-3.1l-0.1,3.1c0.1,0,0.1,0,0.2,0.1c0.1,0.2,0,0.4-0.1,0.6C550.4,329.6,550.2,329.6,550.1,329.4z"/>
</g>
<g>
	<path fill="#F4DBDD" d="M962.6,94.7c0,0.1-0.1,0.2-0.2,0.2c-0.2,0.1-0.4,0.1-0.4,0c-0.1-0.1,0-0.3,0.2-0.4c0.2-0.1,0.4-0.1,0.4,0
		l0,0c0.4-0.4,1.9-0.7,2.4-0.8l0,0c-0.6-0.4-0.7-0.7-0.8-0.7c-2.2-0.6-8.7,2.3-5.6,5.5c2.8,3,5.8-1.6,6.6-2.9c0-0.1-0.3-0.6,0.1-1.3
		l-0.2-0.5L962.6,94.7z"/>
	<path fill="#F4DBDD" d="M961.4,86.3c0,0-2,1.2-2.1,2.6c0.1,3.6,3.6,3.9,4.8,3.9c0.1,0,0.7,0.1,1-0.6l0.7,0.1
		c-0.1-0.5,0.4-1.1,0.3-1.2C965.9,85.4,961.4,86.3,961.4,86.3z M963.6,90c-0.1,0-0.2,0-0.3-0.1c-0.2-0.1-0.3-0.3-0.2-0.4
		c0-0.1,0.3-0.1,0.5,0c0.2,0.1,0.3,0.3,0.2,0.4l0,0c0.7,0.3,1.7,2.1,1.7,2.1L963.6,90z"/>
	<path fill="#F4DBDD" d="M967.8,94.7c0,0-0.6,0-0.7-0.3l-0.7,0.2l0.3,2.2c0.1,0,0.1,0.1,0.2,0.2c0.1,0.2,0.1,0.4-0.1,0.4
		c-0.1,0-0.3-0.1-0.4-0.2s-0.1-0.4,0.1-0.4c0,0,0,0,0.1,0c-0.3-0.4-0.3-1.4-0.3-2.1l-0.3,0.1c-0.1,0.4-0.5,0.5-0.6,0.6
		c-1.6,2.7-0.1,5.7-0.1,5.7s2.4,3.6,5.3-0.6C971.3,97.9,968.5,95.4,967.8,94.7z"/>
	<path fill="#F4DBDD" d="M972.5,86.4c0,0-1.8-2.1-3.2-1.5c-4,0.9-3.2,5.6-2.9,6.6c0,0,0.3,0.2,0.3,0.5l0.7,0.5
		c0.1-0.1,0.9-0.1,1-0.1C974.6,89.2,972.5,86.4,972.5,86.4z M967.5,88.8c0,0.2,0,0.4-0.2,0.4c0,0,0,0-0.1,0c0.3,0.7-0.3,2.6-0.3,2.6
		l0.2-2.7c0,0-0.1-0.1-0.1-0.2c0-0.2,0-0.4,0.2-0.4C967.3,88.4,967.4,88.5,967.5,88.8z"/>
	<path fill="#F4DBDD" d="M968.4,92.4c-0.1,0-0.2,0.4-0.7,0.4l-0.2,1.1c0.1-0.2,0.4,0.4,0.3,0.8c5.4,4.2,7.4,1.6,7.4,1.6
		s1.1-1.2,0.8-2.4C975,90.2,969.6,92,968.4,92.4z M971,94.2c0,0.1-0.2,0.2-0.4,0.2c-0.2,0-0.4-0.1-0.4-0.2c0,0,0,0,0-0.1
		c-0.7,0.1-2.5-1-2.5-1l2.6,0.9c0.1,0,0.2-0.1,0.3-0.1C970.9,94,971,94.1,971,94.2z"/>
	<path fill="#F4DBDD" d="M965.5,91.6c-0.9,0.5-1.3,1.6-0.8,2.4c0.4,0.8,1.5,1.1,2.5,0.6c0.9-0.5,1.3-1.6,0.8-2.4
		C967.4,91.4,966.4,91.1,965.5,91.6z M965.8,94.2c0,0.1,0,0.2-0.1,0.2c-0.1,0-0.2,0-0.2-0.1c0-0.1,0-0.2,0.1-0.2
		C965.6,94.2,965.6,94.2,965.8,94.2c-0.1-0.2,0-0.7,0-0.7L965.8,94.2C965.8,94.2,965.8,94.2,965.8,94.2z M965,92.3
		c-0.1,0-0.1,0-0.2,0c-0.1,0-0.1-0.1,0-0.1c0.1-0.1,0.2-0.1,0.4-0.1c0.1,0,0.1,0.1,0,0.1L965,92.3c0.6-0.1,0.9,0.5,0.9,0.5L965,92.3
		z M967.5,93.7c0,0.1-0.1,0.1-0.2,0.1s-0.1-0.1-0.1-0.2l0,0c-0.3,0.1-0.9-0.5-0.9-0.5l0.9,0.4c0,0,0.1,0,0.1,0
		C967.5,93.5,967.5,93.6,967.5,93.7z M967.7,92.5c0,0-0.1,0-0.2,0c0,0,0,0,0,0c-0.1,0.2-1.2,0.2-1.2,0.2l1.2-0.2c0,0,0,0,0-0.1
		c0,0,0.1,0,0.2,0C967.7,92.4,967.7,92.5,967.7,92.5z"/>
</g>
</svg>
