<?xml version="1.0" encoding="utf-8"?>
<!-- Generator: Adobe Illustrator 18.1.1, SVG Export Plug-In . SVG Version: 6.00 Build 0)  -->
<svg version="1.1" id="Layer_1" xmlns="http://www.w3.org/2000/svg" xmlns:xlink="http://www.w3.org/1999/xlink" x="0px" y="0px"
	 viewBox="0 0 397.8 524.7" enable-background="new 0 0 397.8 524.7" xml:space="preserve">
<g>
	<path fill="#F1BDC9" d="M260.6-98.2c0,0.1,0,0.2,0,0.2c-0.1,0.2-0.2,0.2-0.3,0.2c-0.1-0.1-0.1-0.2,0-0.4c0.1-0.2,0.2-0.2,0.3-0.2
		L260.6-98.2c0.1-0.6,1-1.3,1.4-1.7l0,0c-0.6-0.1-0.8-0.3-0.9-0.2c-1.9,0.4-5.6,5.2-2,6.4c3.3,1.1,3.7-3.5,3.7-4.8
		c0-0.1-0.4-0.3-0.5-1l-0.3-0.3L260.6-98.2z"/>
	<path fill="#F1BDC9" d="M256.1-103.9c0,0-1,1.7-0.5,2.8c1.5,2.6,4.2,1.5,5.2,1c0.1-0.1,0.5-0.2,0.5-0.9l0.6-0.2
		c-0.3-0.3-0.2-1-0.3-1C259.2-106.4,256.1-103.9,256.1-103.9z M259.4-102.1c-0.1,0-0.2,0.1-0.3,0.1c-0.2,0-0.3-0.1-0.3-0.2
		c0-0.1,0.2-0.2,0.3-0.2c0.2,0,0.3,0.1,0.3,0.2L259.4-102.1c0.7-0.1,2.2,0.8,2.2,0.8L259.4-102.1z"/>
	<path fill="#F1BDC9" d="M264.4-100.2c0,0-0.4,0.2-0.7,0.1l-0.4,0.4l1.1,1.5c0.1,0,0.1,0,0.2,0.1c0.2,0.1,0.2,0.3,0.1,0.4
		s-0.2,0.1-0.4,0c-0.2-0.1-0.2-0.3-0.1-0.4l0,0c-0.4-0.2-0.8-0.9-1.1-1.4l-0.2,0.2c0,0.3-0.2,0.6-0.2,0.7c-0.1,2.6,2.3,4.3,2.3,4.3
		s3.3,1.8,3.7-2.5C268.3-99.3,265.2-100,264.4-100.2z"/>
	<path fill="#F1BDC9" d="M264.6-108.3c0,0-2.1-0.9-3,0.1c-2.6,2.2-0.1,5.4,0.5,6.1c0,0,0.3,0.1,0.4,0.3l0.7,0.1
		c0-0.1,0.6-0.4,0.7-0.5C267.3-107,264.6-108.3,264.6-108.3z M261.7-104.5c0.1,0.1,0.1,0.3,0,0.4c0,0,0,0-0.1,0
		c0.5,0.4,0.9,2.1,0.9,2.1l-1-2.1c-0.1,0-0.1,0-0.2-0.1c-0.1-0.1-0.1-0.3,0-0.4C261.4-104.7,261.6-104.6,261.7-104.5z"/>
	<path fill="#F1BDC9" d="M263.9-102.2c0,0,0,0.4-0.3,0.6l0.3,0.9c0-0.2,0.5,0.2,0.6,0.4c5.7,1,6.1-1.8,6.1-1.8s0.3-1.3-0.4-2.2
		C267.9-106.4,264.6-103,263.9-102.2z M266.6-101.9c0.1,0.1,0,0.2-0.2,0.3c-0.2,0.1-0.3,0.1-0.4,0l0-0.1c-0.5,0.4-2.3,0.3-2.3,0.3
		l2.3-0.4c0.1-0.1,0.1-0.1,0.2-0.2C266.4-102,266.5-102,266.6-101.9z"/>
	<path fill="#F1BDC9" d="M261.4-101.6c-0.5,0.7-0.3,1.7,0.3,2.1c0.7,0.4,1.6,0.2,2-0.5c0.5-0.7,0.3-1.7-0.3-2.1
		C262.8-102.5,261.9-102.3,261.4-101.6z M262.7-99.8c0,0,0.1,0.2,0,0.2c-0.1,0.1-0.1,0.1-0.2,0c0,0-0.1-0.2,0-0.2c0,0,0,0,0.1-0.1
		c-0.1-0.1-0.2-0.6-0.2-0.6L262.7-99.8L262.7-99.8z M261.4-100.9c0,0-0.1,0.1-0.1,0.1c-0.1,0.1-0.1,0-0.1-0.1
		c0.1-0.1,0.1-0.2,0.2-0.2c0.1-0.1,0.1,0,0.1,0.1L261.4-100.9c0.4-0.3,0.9,0,0.9,0L261.4-100.9z M263.8-100.9c0,0.1,0,0.1-0.1,0.2
		c-0.1,0-0.1,0-0.2-0.1c0,0,0,0,0-0.1c-0.2,0.2-0.9,0-0.9,0l0.9,0c0,0,0.1-0.1,0.1-0.1C263.7-101,263.7-101,263.8-100.9z
		 M263.4-101.8c0,0-0.1,0.1-0.2,0.1l0,0c0,0.2-0.8,0.6-0.8,0.6l0.8-0.6c0,0,0-0.1,0-0.1c0,0,0.1-0.1,0.2-0.1
		S263.5-101.8,263.4-101.8z"/>
</g>
<g>
	<path fill="#F1BDC9" d="M187.6,112.8c0,0.1,0,0.2,0,0.3c-0.1,0.2-0.2,0.3-0.4,0.2c-0.1-0.1-0.2-0.3-0.1-0.4
		c0.1-0.2,0.2-0.3,0.4-0.2C187.5,112.7,187.5,112.7,187.6,112.8c0.2-0.7,1.3-1.5,1.7-1.9l0,0c-0.7-0.1-1-0.3-1-0.3
		c-2.3,0.4-6.5,5.9-2.2,7.4c3.9,1.4,4.3-4,4.3-5.5c0-0.1-0.5-0.4-0.6-1.2l-0.4-0.3L187.6,112.8z"/>
	<path fill="#F1BDC9" d="M182.3,106c0,0-1.2,2-0.6,3.2c1.8,3.1,5,1.8,6.1,1.2c0.1-0.1,0.7-0.3,0.6-1l0.7-0.2
		c-0.3-0.3-0.3-1.2-0.3-1.2C185.8,103.2,182.3,106,182.3,106z M186.1,108.2c-0.1,0.1-0.2,0.1-0.3,0c-0.2,0-0.4-0.1-0.4-0.3
		c0-0.1,0.2-0.2,0.4-0.2c0.2,0,0.4,0.1,0.4,0.3C186.2,108.1,186.2,108.1,186.1,108.2c0.8-0.1,2.6,1,2.6,1L186.1,108.2z"/>
	<path fill="#F1BDC9" d="M192.1,110.5c0,0-0.4,0.3-0.8,0.1l-0.5,0.5l1.4,1.8c0.1,0,0.2,0,0.3,0.1c0.2,0.1,0.2,0.3,0.2,0.4
		c-0.1,0.1-0.3,0.1-0.4,0c-0.2-0.1-0.2-0.3-0.2-0.4c0,0,0,0,0.1-0.1c-0.4-0.2-1-1.1-1.3-1.7l-0.2,0.2c0,0.4-0.2,0.7-0.2,0.8
		c0,3,2.8,5.1,2.8,5.1s3.9,2.1,4.3-2.9C196.8,111.7,193.1,110.7,192.1,110.5z"/>
	<path fill="#F1BDC9" d="M192.1,101.1c0,0-2.6-1.1-3.6,0.1c-3.1,2.5,0,6.4,0.7,7.1c0,0,0.4,0.1,0.5,0.4l0.8,0.1
		c0-0.2,0.7-0.5,0.7-0.6C195.3,102.6,192.1,101.1,192.1,101.1z M188.8,105.4c0.1,0.1,0.2,0.3,0.1,0.4c0,0,0,0-0.1,0
		c0.6,0.5,1.1,2.5,1.1,2.5l-1.2-2.5c-0.1,0-0.2-0.1-0.3-0.2c-0.1-0.1-0.2-0.3-0.1-0.4C188.5,105.1,188.7,105.3,188.8,105.4z"/>
	<path fill="#F1BDC9" d="M191.5,108.2c-0.1,0.1,0,0.5-0.4,0.7l0.4,1.1c0-0.2,0.6,0.2,0.7,0.5c6.8,1.3,7.2-2,7.2-2s0.3-1.5-0.5-2.5
		C196.2,103.3,192.3,107.3,191.5,108.2z M194.7,108.7c0.1,0.1-0.1,0.3-0.2,0.3c-0.2,0.1-0.4,0.1-0.4-0.1l0-0.1
		c-0.6,0.4-2.7,0.3-2.7,0.3l2.7-0.4c0.1-0.1,0.1-0.2,0.2-0.2C194.4,108.5,194.6,108.5,194.7,108.7z"/>
	<path fill="#F1BDC9" d="M188.5,108.8c-0.6,0.8-0.3,1.9,0.4,2.4s1.9,0.2,2.4-0.6s0.3-1.9-0.4-2.4C190.1,107.7,189,108,188.5,108.8z
		 M190.1,111c0.1,0.1,0.1,0.2,0,0.2c-0.1,0.1-0.2,0.1-0.2,0c-0.1-0.1-0.1-0.2,0-0.2c0,0,0,0,0.1-0.1c-0.1-0.1-0.2-0.6-0.2-0.6
		L190.1,111L190.1,111z M188.5,109.7c-0.1,0.1-0.1,0.1-0.2,0.1c-0.1,0.1-0.2,0-0.1-0.1c0.1-0.1,0.2-0.2,0.3-0.3
		c0.1-0.1,0.2,0,0.1,0.1C188.6,109.5,188.6,109.6,188.5,109.7c0.5-0.4,1.1,0,1.1,0L188.5,109.7z M191.3,109.7c0,0.1,0,0.2-0.1,0.2
		c-0.1,0-0.1,0-0.2-0.1c0,0,0,0,0-0.1c-0.3,0.2-1,0-1,0l1.1,0c0,0,0.1-0.1,0.1-0.1C191.2,109.6,191.3,109.6,191.3,109.7z
		 M190.9,108.7c0,0-0.1,0.1-0.2,0.1l0,0c0,0.2-0.9,0.7-0.9,0.7l0.9-0.7c0,0,0-0.1,0-0.1c0,0,0.1-0.1,0.2-0.1
		C191,108.5,190.9,108.6,190.9,108.7z"/>
</g>
<g>
	<path fill="#F1BDC9" d="M186.8,80.8c0,0.1,0,0.2,0,0.3c-0.1,0.2-0.2,0.3-0.4,0.2c-0.1-0.1-0.2-0.3-0.1-0.4c0.1-0.2,0.2-0.3,0.4-0.2
		C186.7,80.7,186.7,80.7,186.8,80.8c0.2-0.7,1.3-1.5,1.7-1.9l0,0c-0.7-0.1-1-0.3-1-0.3c-2.3,0.4-6.5,5.9-2.2,7.4
		c3.9,1.4,4.3-4,4.3-5.5c0-0.1-0.5-0.4-0.6-1.2l-0.4-0.3L186.8,80.8z"/>
	<path fill="#F1BDC9" d="M181.5,74c0,0-1.2,2-0.6,3.2c1.8,3.1,5,1.8,6.1,1.2c0.1-0.1,0.7-0.3,0.6-1l0.7-0.2C188,76.9,188,76,188,76
		C185,71.3,181.5,74,181.5,74z M185.3,76.3c-0.1,0.1-0.2,0.1-0.3,0c-0.2,0-0.4-0.1-0.4-0.3c0-0.1,0.2-0.2,0.4-0.2
		c0.2,0,0.4,0.1,0.4,0.3C185.4,76.1,185.4,76.2,185.3,76.3c0.8-0.1,2.6,1,2.6,1L185.3,76.3z"/>
	<path fill="#F1BDC9" d="M191.3,78.6c0,0-0.4,0.3-0.8,0.1l-0.5,0.5l1.4,1.8c0.1,0,0.2,0,0.3,0.1c0.2,0.1,0.2,0.3,0.2,0.4
		c-0.1,0.1-0.3,0.1-0.4,0s-0.2-0.3-0.2-0.4c0,0,0,0,0.1-0.1c-0.4-0.2-1-1.1-1.3-1.7l-0.2,0.2c0,0.4-0.2,0.7-0.2,0.8
		c0,3,2.8,5.1,2.8,5.1s3.9,2.1,4.3-2.9C195.9,79.8,192.3,78.8,191.3,78.6z"/>
	<path fill="#F1BDC9" d="M191.3,69.2c0,0-2.6-1.1-3.6,0.1c-3.1,2.5,0,6.4,0.7,7.1c0,0,0.4,0.1,0.5,0.4l0.8,0.1
		c0-0.2,0.7-0.5,0.7-0.6C194.5,70.7,191.3,69.2,191.3,69.2z M188,73.5c0.1,0.1,0.2,0.3,0.1,0.4c0,0,0,0-0.1,0
		c0.6,0.5,1.1,2.5,1.1,2.5l-1.2-2.5c-0.1,0-0.2-0.1-0.3-0.2c-0.1-0.1-0.2-0.3-0.1-0.4C187.7,73.2,187.9,73.3,188,73.5z"/>
	<path fill="#F1BDC9" d="M190.7,76.3c-0.1,0.1,0,0.5-0.4,0.7l0.4,1.1c0-0.2,0.6,0.2,0.7,0.5c6.8,1.3,7.2-2,7.2-2s0.3-1.5-0.5-2.5
		C195.3,71.4,191.5,75.3,190.7,76.3z M193.8,76.7c0.1,0.1-0.1,0.3-0.2,0.3c-0.2,0.1-0.4,0.1-0.4-0.1l0-0.1c-0.6,0.4-2.7,0.3-2.7,0.3
		l2.7-0.4c0.1-0.1,0.1-0.2,0.2-0.2C193.6,76.5,193.8,76.6,193.8,76.7z"/>
	<path fill="#F1BDC9" d="M187.7,76.9c-0.6,0.8-0.3,1.9,0.4,2.4c0.8,0.5,1.9,0.2,2.4-0.6c0.5-0.8,0.3-1.9-0.4-2.4
		S188.2,76.1,187.7,76.9z M189.3,79c0.1,0.1,0.1,0.2,0,0.2c-0.1,0.1-0.2,0.1-0.2,0c-0.1-0.1-0.1-0.2,0-0.2c0,0,0,0,0.1-0.1
		c-0.1-0.1-0.2-0.6-0.2-0.6L189.3,79L189.3,79z M187.7,77.7c-0.1,0.1-0.1,0.1-0.2,0.1c-0.1,0.1-0.2,0-0.1-0.1
		c0.1-0.1,0.2-0.2,0.3-0.3c0.1-0.1,0.2,0,0.1,0.1C187.8,77.6,187.8,77.6,187.7,77.7c0.5-0.4,1.1,0,1.1,0L187.7,77.7z M190.5,77.8
		c0,0.1,0,0.2-0.1,0.2c-0.1,0-0.1,0-0.2-0.1c0,0,0,0,0-0.1c-0.3,0.2-1,0-1,0l1.1,0c0,0,0.1-0.1,0.1-0.1
		C190.4,77.7,190.4,77.7,190.5,77.8z M190.1,76.7c0,0-0.1,0.1-0.2,0.1l0,0c0,0.2-0.9,0.7-0.9,0.7l0.9-0.7c0,0,0-0.1,0-0.1
		c0,0,0.1-0.1,0.2-0.1C190.1,76.6,190.2,76.6,190.1,76.7z"/>
</g>
<g>
	<path fill="#F4DBDD" d="M241.9-64.5c0,0.1,0,0.3-0.1,0.4c-0.1,0.3-0.4,0.4-0.6,0.3c-0.2-0.1-0.2-0.4-0.1-0.6
		c0.1-0.3,0.4-0.4,0.6-0.3c0,0,0.1,0.1,0.1,0.1c0.2-0.9,1.9-2.3,2.6-2.8l-0.1-0.1c-1-0.1-1.4-0.4-1.5-0.4c-3.4,0.7-9.9,9.2-3.5,11.3
		c5.8,1.9,6.5-6.2,6.6-8.5c0-0.1-0.8-0.6-0.9-1.8l-0.6-0.4L241.9-64.5z"/>
	<path fill="#F4DBDD" d="M234.1-74.7c0,0-1.8,3-1,4.9c2.7,4.7,7.5,2.6,9.2,1.7c0.2-0.1,1-0.4,0.9-1.6l1.1-0.4
		c-0.5-0.5-0.4-1.8-0.4-1.8C239.5-79.1,234.1-74.7,234.1-74.7z M239.9-71.4c-0.1,0.1-0.3,0.1-0.4,0.1c-0.3,0-0.5-0.2-0.5-0.4
		s0.3-0.3,0.6-0.3s0.5,0.2,0.5,0.4c0,0,0,0.1,0,0.1c1.1-0.1,3.7,1.6,3.7,1.6L239.9-71.4z"/>
	<path fill="#F4DBDD" d="M248.7-68.1c-0.1,0-0.7,0.4-1.2,0.2l-0.8,0.8l2,2.6c0.1,0,0.3,0.1,0.4,0.1c0.3,0.2,0.4,0.5,0.3,0.6
		s-0.4,0.1-0.7-0.1c-0.3-0.2-0.4-0.5-0.3-0.6c0,0,0.1-0.1,0.1-0.1c-0.7-0.3-1.5-1.7-2-2.5l-0.3,0.3c0.1,0.5-0.4,1.1-0.3,1.2
		c-0.1,4.7,4,7.6,4,7.6s5.8,3.1,6.5-4.5C255.7-66.4,250.2-67.8,248.7-68.1z"/>
	<path fill="#F4DBDD" d="M249-82.4c0,0-3.8-1.6-5.4,0.2c-4.7,3.9-0.1,9.7,0.9,10.9c0,0,0.5,0.1,0.7,0.5l1.2,0.2
		c0-0.3,1.1-0.8,1.1-0.9C253.8-80.2,249-82.4,249-82.4z M244-75.8c0.2,0.2,0.2,0.5,0.1,0.7c0,0-0.1,0.1-0.1,0.1
		c0.9,0.7,1.6,3.7,1.6,3.7l-1.7-3.8c-0.1,0-0.3-0.1-0.4-0.3c-0.2-0.2-0.2-0.5-0.1-0.7C243.5-76.1,243.7-76,244-75.8z"/>
	<path fill="#F4DBDD" d="M247.9-71.6c-0.1,0.1,0,0.7-0.6,1l0.5,1.6c0-0.3,0.9,0.2,1,0.8c10.2,1.8,11-3.1,11-3.1s0.5-2.3-0.7-3.8
		C255-79.1,249.2-73,247.9-71.6z M252.6-71c0.1,0.2-0.1,0.4-0.4,0.5c-0.3,0.1-0.6,0.1-0.6-0.1c0,0,0-0.1,0-0.1c-0.9,0.7-4,0.5-4,0.5
		l4.1-0.6c0.1-0.1,0.2-0.2,0.3-0.3C252.3-71.2,252.6-71.2,252.6-71z"/>
	<path fill="#F4DBDD" d="M243.4-70.6c-0.9,1.3-0.6,3,0.6,3.7s2.8,0.4,3.7-0.9c0.9-1.3,0.6-3-0.6-3.7
		C245.9-72.3,244.2-71.9,243.4-70.6z M245.7-67.3c0.1,0.1,0.1,0.2,0.1,0.3c-0.1,0.1-0.2,0.1-0.3,0.1c-0.1-0.1-0.1-0.2-0.1-0.3
		c0,0,0.1-0.1,0.1-0.1c-0.2-0.2-0.3-1-0.3-1l0.4,1C245.7-67.3,245.7-67.3,245.7-67.3z M243.4-69.3c-0.1,0.1-0.2,0.2-0.3,0.2
		c-0.2,0.1-0.2,0-0.2-0.2c0.1-0.2,0.2-0.3,0.4-0.4c0.2-0.1,0.2,0,0.2,0.2c0,0-0.1,0.1-0.1,0.1c0.6-0.4,1.6,0.1,1.6,0.1L243.4-69.3z
		 M247.6-69.3c0,0.1,0,0.2-0.1,0.3s-0.2,0-0.3-0.2l0-0.1c-0.4,0.3-1.6,0-1.6,0l1.6-0.1c0-0.1,0.1-0.1,0.2-0.2
		C247.4-69.5,247.5-69.4,247.6-69.3z M247-70.9c-0.1,0.1-0.2,0.1-0.3,0.1c0,0,0,0-0.1,0c-0.1,0.3-1.4,1.1-1.4,1.1l1.4-1.1
		c0,0-0.1-0.1,0-0.1c0.1-0.1,0.2-0.1,0.3-0.1C247-71,247.1-71,247-70.9z"/>
</g>
<g>
	<path fill="#F4DBDD" d="M282.8-24.1c0,0.1,0,0.2,0,0.3c-0.1,0.2-0.2,0.3-0.4,0.2c-0.1-0.1-0.1-0.2-0.1-0.4c0.1-0.2,0.2-0.3,0.4-0.2
		C282.7-24.2,282.7-24.2,282.8-24.1c0.2-0.7,1.3-1.6,1.7-1.9l0,0c-0.7-0.1-1-0.3-1-0.2c-2.3,0.5-6.6,6.1-2.3,7.5
		c3.9,1.3,4.4-4.1,4.4-5.7c0-0.1-0.5-0.4-0.6-1.2l-0.4-0.3L282.8-24.1z"/>
	<path fill="#F4DBDD" d="M277.6-31c0,0-1.2,2-0.6,3.3c1.8,3.2,5,1.8,6.1,1.2c0.1-0.1,0.7-0.3,0.6-1l0.7-0.2
		c-0.3-0.4-0.3-1.2-0.3-1.2C281.2-33.8,277.6-31,277.6-31z M281.4-28.7c-0.1,0.1-0.2,0.1-0.3,0.1c-0.2,0-0.4-0.1-0.4-0.3
		c0-0.1,0.2-0.2,0.4-0.2c0.2,0,0.4,0.1,0.4,0.3C281.5-28.8,281.5-28.8,281.4-28.7c0.8-0.1,2.5,1,2.5,1L281.4-28.7z"/>
	<path fill="#F4DBDD" d="M287.3-26.5c0,0-0.4,0.3-0.8,0.1l-0.5,0.5l1.3,1.7c0.1,0,0.2,0,0.3,0.1c0.2,0.1,0.2,0.3,0.2,0.4
		c-0.1,0.1-0.3,0.1-0.4,0c-0.2-0.1-0.2-0.3-0.2-0.4c0,0,0,0,0.1-0.1c-0.4-0.2-1-1.1-1.3-1.7l-0.2,0.2c0,0.4-0.2,0.7-0.2,0.8
		c-0.1,3.1,2.7,5.1,2.7,5.1s3.9,2.1,4.4-3C292.1-25.4,288.4-26.3,287.3-26.5z"/>
	<path fill="#F4DBDD" d="M287.6-36.1c0,0-2.6-1.1-3.6,0.1c-3.1,2.7-0.1,6.4,0.6,7.3c0,0,0.3,0.1,0.5,0.4l0.8,0.1
		c0-0.2,0.7-0.5,0.8-0.6C290.7-34.6,287.6-36.1,287.6-36.1z M284.2-31.6c0.1,0.1,0.2,0.3,0.1,0.4c0,0,0,0-0.1,0c0.6,0.5,1,2.5,1,2.5
		l-1.1-2.5c-0.1,0-0.2-0.1-0.2-0.2c-0.1-0.1-0.2-0.3-0.1-0.4C283.9-31.9,284.1-31.8,284.2-31.6z"/>
	<path fill="#F4DBDD" d="M286.8-28.8c-0.1,0.1,0,0.5-0.4,0.7l0.3,1.1c0-0.2,0.6,0.2,0.7,0.5c6.8,1.2,7.3-2.1,7.3-2.1
		s0.4-1.6-0.5-2.5C291.5-33.9,287.7-29.8,286.8-28.8z M290-28.5c0.1,0.1-0.1,0.3-0.3,0.4c-0.2,0.1-0.4,0.1-0.4-0.1l0-0.1
		c-0.6,0.4-2.7,0.3-2.7,0.3l2.7-0.4c0-0.1,0.1-0.2,0.2-0.2C289.7-28.6,289.9-28.6,290-28.5z"/>
	<path fill="#F4DBDD" d="M283.8-28.2c-0.6,0.8-0.4,2,0.4,2.5c0.8,0.5,1.9,0.2,2.4-0.6c0.6-0.8,0.4-2-0.4-2.5
		C285.4-29.3,284.4-29,283.8-28.2z M285.4-26c0.1,0.1,0.1,0.2,0,0.2c-0.1,0.1-0.2,0.1-0.2,0c-0.1-0.1-0.1-0.2,0-0.2c0,0,0,0,0.1-0.1
		c-0.1-0.1-0.2-0.6-0.2-0.6L285.4-26C285.3-26,285.4-26,285.4-26z M283.8-27.3c-0.1,0.1-0.1,0.1-0.2,0.1c-0.1,0.1-0.2,0-0.1-0.1
		c0.1-0.1,0.2-0.2,0.3-0.3c0.1-0.1,0.2,0,0.1,0.1C283.9-27.5,283.9-27.4,283.8-27.3c0.4-0.3,1.1,0,1.1,0L283.8-27.3z M286.6-27.3
		c0,0.1,0,0.2-0.1,0.2c-0.1,0-0.1,0-0.2-0.1c0,0,0,0,0-0.1c-0.3,0.2-1.1,0-1.1,0l1.1,0c0,0,0.1-0.1,0.1-0.1
		C286.5-27.5,286.6-27.4,286.6-27.3z M286.2-28.4c0,0-0.1,0.1-0.2,0.1l0,0c0,0.2-0.9,0.7-0.9,0.7l0.9-0.7c0,0,0-0.1,0-0.1
		c0,0,0.1-0.1,0.2-0.1C286.3-28.5,286.3-28.5,286.2-28.4z"/>
</g>
<g>
	<path fill="#F4DBDD" d="M243.3,151.4c-0.1,0.1-0.2,0.2-0.3,0.3c-0.3,0.1-0.5,0.1-0.6,0c-0.1-0.2,0.1-0.4,0.4-0.5
		c0.3-0.1,0.5-0.1,0.6,0c0,0,0,0.1,0,0.1c0.8-0.5,2.8-0.5,3.6-0.5l0-0.1c-0.7-0.7-0.8-1.1-0.9-1.1c-2.9-1.4-13,0.9-9.8,5.9
		c2.9,4.5,8.7-0.7,10.3-2.2c0.1-0.1-0.1-0.8,0.6-1.7l-0.1-0.6L243.3,151.4z"/>
	<path fill="#F4DBDD" d="M244.3,140.1c0,0-3.3,1.1-3.9,2.9c-1.1,4.7,3.7,5.9,5.5,6.2c0.1,0,1,0.3,1.7-0.6l1,0.3
		c0-0.6,0.9-1.4,0.9-1.5C251,140.1,244.3,140.1,244.3,140.1z M246.3,145.6c-0.1,0-0.3-0.1-0.4-0.2c-0.2-0.2-0.3-0.4-0.1-0.6
		c0.1-0.1,0.4-0.1,0.6,0.1c0.2,0.2,0.3,0.4,0.1,0.6c0,0-0.1,0-0.1,0.1c0.9,0.6,1.7,3.1,1.7,3.1L246.3,145.6z"/>
	<path fill="#F4DBDD" d="M250.5,152.7c-0.1-0.1-0.8-0.1-0.9-0.5l-1.1,0.1l-0.2,2.9c0.1,0.1,0.2,0.2,0.2,0.4c0.1,0.3-0.1,0.5-0.2,0.6
		c-0.2,0-0.4-0.1-0.4-0.4c-0.1-0.3,0.1-0.5,0.2-0.6c0.1,0,0.1,0,0.1,0c-0.3-0.6,0-2,0.2-2.8l-0.4,0.1c-0.3,0.4-0.9,0.5-1,0.6
		c-3.1,3.1-2,7.5-2,7.5s2.2,5.3,7.6,0.5C254.4,157.7,251.4,153.8,250.5,152.7z"/>
	<path fill="#F4DBDD" d="M260,143c0,0-1.7-3.2-4-2.8c-6,0.2-6.3,6.6-6.4,8c0,0.1,0.3,0.4,0.2,0.7l0.7,0.8c0.2-0.2,1.3,0,1.4,0
		C262,147.2,260,143,260,143z M252,144.8c0,0.3-0.2,0.5-0.3,0.5c0,0-0.1,0-0.1,0c0.1,1-1.3,3.4-1.3,3.4l1.2-3.5
		c-0.1-0.1-0.1-0.2-0.1-0.3c0-0.3,0.2-0.5,0.3-0.5C251.9,144.3,252,144.5,252,144.8z"/>
	<path fill="#F4DBDD" d="M252.1,149.9c-0.1,0-0.5,0.5-1.1,0.4l-0.7,1.4c0.2-0.2,0.5,0.6,0.2,1.1c6.1,6.8,9.9,3.8,9.9,3.8
		s1.9-1.3,2-3C262.1,148.6,254,149.6,252.1,149.9z M255.2,152.9c-0.1,0.2-0.3,0.2-0.6,0.2c-0.3-0.1-0.5-0.3-0.4-0.4
		c0,0,0.1-0.1,0.1-0.1c-1.1-0.1-3.2-1.9-3.2-1.9l3.3,1.8c0.1,0,0.3-0.1,0.4,0C255.1,152.5,255.3,152.7,255.2,152.9z"/>
	<path fill="#F4DBDD" d="M248.3,148.1c-1.4,0.4-2.3,1.7-2,2.9c0.3,1.2,1.8,1.8,3.2,1.3c1.4-0.4,2.3-1.7,2-2.9
		S249.7,147.7,248.3,148.1z M247.9,151.6c0,0.1-0.1,0.2-0.2,0.3c-0.1,0-0.2,0-0.3-0.1c0-0.1,0.1-0.2,0.2-0.3c0.1,0,0.1,0,0.1,0
		c0-0.3,0.4-0.8,0.4-0.8l-0.3,0.9C247.8,151.6,247.9,151.6,247.9,151.6z M247.5,149c-0.1,0-0.2,0-0.3,0c-0.1,0-0.2-0.1,0-0.2
		s0.4-0.1,0.5-0.1c0.1,0,0.2,0.1,0,0.2c0,0-0.1,0-0.1,0.1c0.7,0,1,0.9,1,0.9L247.5,149z M250.4,151.3c-0.1,0.1-0.2,0.2-0.3,0.1
		c-0.1-0.1-0.2-0.2-0.1-0.3l0,0c-0.5,0-1.1-0.9-1.1-0.9l1.2,0.8c0.1-0.1,0.2-0.1,0.2,0C250.4,151,250.5,151.2,250.4,151.3z
		 M251.1,149.9c-0.1,0.1-0.2,0-0.3-0.1l0,0c-0.3,0.2-1.7-0.1-1.7-0.1l1.7,0c0,0,0.1-0.1,0.1-0.1c0.1-0.1,0.2,0,0.3,0.1
		C251.2,149.8,251.2,149.8,251.1,149.9z"/>
</g>
<g>
	<path fill="#F1BDC9" d="M221.1,45.7c-0.2,0.1-0.4,0.2-0.7,0.2c-0.6,0-1-0.2-1.1-0.5c0-0.3,0.4-0.6,1-0.6c0.6,0,1,0.2,1.1,0.5
		c0,0.1,0,0.1-0.1,0.2c1.6-0.3,5.3,0.9,6.6,1.4l0-0.1c-0.7-1.6-0.7-2.3-0.8-2.5c-4.2-4.3-23.1-6.7-20.7,4c2.2,9.8,15.5,4.3,19.2,2.5
		c0.2-0.1,0.3-1.5,2.1-2.7l0.2-1.2L221.1,45.7z"/>
	<path fill="#F1BDC9" d="M229.9,26.6c0,0-6.3-0.2-8.6,2.6c-4.8,7.5,2.7,12.6,5.6,14.2c0.2,0.2,1.5,1,3.3,0l1.5,1.2
		c0.4-1.1,2.4-1.9,2.5-2C241.5,30.8,229.9,26.6,229.9,26.6z M229.9,37.4c-0.2-0.1-0.4-0.3-0.5-0.6c-0.3-0.4-0.2-0.9,0.1-1.1
		c0.3-0.1,0.8,0.1,1,0.6c0.2,0.5,0.2,0.9-0.1,1.1c-0.1,0-0.1,0-0.2,0c1.1,1.5,0.9,6.5,0.9,6.5L229.9,37.4z"/>
	<path fill="#F1BDC9" d="M232.7,52.4c-0.1-0.2-1.2-0.7-1.3-1.5l-1.9-0.5l-2.2,4.9c0.1,0.2,0.2,0.4,0.1,0.7c-0.1,0.5-0.4,0.8-0.7,0.8
		c-0.3-0.1-0.6-0.5-0.5-0.9c0.1-0.5,0.4-0.8,0.7-0.8c0.1,0,0.1,0,0.2,0.1c-0.1-1.2,1.3-3.4,2.2-4.8l-0.7-0.2c-0.8,0.5-2,0.4-2.2,0.5
		c-7.3,3.5-8.2,11.7-8.2,11.7s0.4,10.6,12.9,5.6C236.5,63.6,233.6,54.8,232.7,52.4z"/>
	<path fill="#F1BDC9" d="M255.3,41.5c0,0-1-6.6-5.1-7.4c-10.4-3.4-15.1,7.5-16.1,9.9c-0.1,0.1,0.3,0.9-0.1,1.4l0.8,1.8
		c0.4-0.2,2.2,0.9,2.4,0.9C256.1,50,255.3,41.5,255.3,41.5z M240.4,39.6c-0.2,0.5-0.6,0.8-0.9,0.7c0,0-0.1-0.1-0.2-0.1
		c-0.3,1.8-4.4,5.1-4.4,5.1l4.3-5.3c-0.1-0.2,0-0.5,0-0.7c0.2-0.5,0.6-0.8,0.9-0.7S240.6,39.2,240.4,39.6z"/>
	<path fill="#F1BDC9" d="M237.4,48.5c-0.2,0-1.2,0.5-2.2,0l-2,2c0.5-0.2,0.4,1.4-0.3,2.1c6.3,15.8,14.7,12.9,14.7,12.9
		s4.1-1.1,5.3-4C255.6,52.5,240.9,49.2,237.4,48.5z M240.9,55.6c-0.2,0.2-0.7,0.2-1.2-0.1c-0.5-0.3-0.7-0.7-0.5-1
		c0,0,0.1-0.1,0.2-0.1c-1.8-0.8-4.4-5.3-4.4-5.3l4.6,5.2c0.2,0,0.5,0.1,0.8,0.2C240.9,55,241.1,55.4,240.9,55.6z"/>
	<path fill="#F1BDC9" d="M231.9,43c-2.7-0.1-5.1,1.5-5.2,3.8s2,4.2,4.7,4.4c2.7,0.1,5.1-1.5,5.2-3.8S234.6,43.1,231.9,43z
		 M228.9,48.9c0,0.2-0.2,0.3-0.5,0.3c-0.2,0-0.4-0.2-0.3-0.4c0-0.2,0.2-0.3,0.5-0.3c0.1,0,0.2,0.1,0.2,0.1c0.2-0.4,1.2-1.2,1.2-1.2
		l-1.1,1.3C228.9,48.8,228.9,48.8,228.9,48.9z M229.8,44c-0.2,0-0.4-0.1-0.5-0.2c-0.3-0.2-0.2-0.3,0.1-0.3s0.8,0.1,1,0.2
		c0.3,0.2,0.2,0.3-0.1,0.3c-0.1,0-0.1,0-0.2,0c1.2,0.6,1.2,2.2,1.2,2.2L229.8,44z M233.6,49.9c-0.2,0.2-0.4,0.2-0.6,0
		c-0.2-0.2-0.1-0.4,0-0.5c0,0,0.1-0.1,0.1-0.1c-0.9-0.3-1.5-2.2-1.5-2.2l1.5,2.2c0.1,0,0.3,0,0.4,0.1
		C233.8,49.5,233.7,49.7,233.6,49.9z M235.6,47.9c-0.2,0-0.4-0.1-0.5-0.3c0,0,0-0.1-0.1-0.1c-0.6,0.2-2.9-1.1-2.9-1.1l2.9,1.1
		c0.1-0.1,0.1-0.1,0.2-0.1c0.2,0,0.4,0.1,0.5,0.3C235.9,47.7,235.8,47.8,235.6,47.9z"/>
</g>
<g>
	<path fill="#F1BDC9" d="M335.9,171.1c0,0.1,0,0.2-0.1,0.2c-0.1,0.2-0.3,0.2-0.3,0.1s-0.1-0.2,0-0.4c0.1-0.1,0.3-0.2,0.3-0.1
		L335.9,171.1c0.2-0.5,1.3-1.1,1.7-1.3l0,0c-0.6-0.2-0.7-0.4-0.8-0.4c-1.9,0-6.6,3.9-3.3,5.8c3,1.8,4.3-2.6,4.6-3.9
		c0-0.1-0.4-0.4-0.3-1.1l-0.3-0.3L335.9,171.1z"/>
	<path fill="#F1BDC9" d="M332.8,164.5c0,0-1.4,1.4-1.1,2.6c0.9,2.9,3.8,2.3,4.9,2c0.1,0,0.6-0.1,0.7-0.7l0.6-0.1c-0.2-0.3,0-1,0-1.1
		C336.3,162.8,332.8,164.5,332.8,164.5z M335.6,167c-0.1,0-0.2,0-0.3,0c-0.2,0-0.3-0.2-0.3-0.3c0-0.1,0.2-0.1,0.4-0.1
		C335.6,166.7,335.7,166.8,335.6,167L335.6,167c0.7,0,1.9,1.2,1.9,1.2L335.6,167z"/>
	<path fill="#F1BDC9" d="M340,169.9c0,0-0.5,0.1-0.7,0l-0.5,0.3l0.8,1.7c0.1,0,0.1,0.1,0.2,0.1c0.1,0.1,0.2,0.3,0.1,0.4
		c-0.1,0.1-0.2,0-0.4-0.1c-0.1-0.1-0.2-0.3-0.1-0.4l0,0c-0.3-0.3-0.6-1.1-0.8-1.6l-0.2,0.1c0,0.3-0.3,0.5-0.4,0.6
		c-0.6,2.6,1.3,4.7,1.3,4.7s2.8,2.4,4.1-1.7C343.7,171.7,340.8,170.3,340,169.9z"/>
	<path fill="#F1BDC9" d="M341.9,162.1c0,0-1.9-1.3-3-0.5c-3.1,1.6-1.2,5.3-0.8,6.1c0,0,0.3,0.1,0.4,0.4l0.6,0.3
		c0.1-0.1,0.7-0.3,0.7-0.4C344.3,163.9,341.9,162.1,341.9,162.1z M338.3,165.1c0.1,0.2,0.1,0.3,0,0.4c0,0,0,0-0.1,0
		c0.4,0.5,0.4,2.2,0.4,2.2l-0.5-2.3c-0.1,0-0.1-0.1-0.2-0.2c-0.1-0.2-0.1-0.3,0-0.4C338.1,164.9,338.2,165,338.3,165.1z"/>
	<path fill="#F1BDC9" d="M340,167.9c0,0-0.1,0.4-0.5,0.5l0.1,0.9c0-0.2,0.5,0.3,0.5,0.6c5.4,2.2,6.4-0.5,6.4-0.5s0.6-1.2,0.1-2.2
		C344.8,164.6,340.9,167.3,340,167.9z M342.6,168.8c0,0.1-0.1,0.2-0.3,0.3c-0.2,0-0.3,0-0.4-0.1l0-0.1c-0.6,0.3-2.3-0.2-2.3-0.2
		l2.3,0.1c0.1-0.1,0.1-0.1,0.2-0.1C342.4,168.6,342.5,168.7,342.6,168.8z"/>
	<path fill="#F1BDC9" d="M337.4,167.9c-0.6,0.6-0.7,1.6-0.1,2.1c0.5,0.6,1.5,0.5,2.1-0.1c0.6-0.6,0.7-1.6,0.1-2.1
		C339,167.3,338,167.3,337.4,167.9z M338.3,170c0,0,0,0.2,0,0.2c-0.1,0.1-0.1,0.1-0.2,0c0,0,0-0.2,0-0.2S338.2,170,338.3,170
		c-0.2-0.2-0.2-0.6-0.2-0.6L338.3,170L338.3,170z M337.3,168.6c0,0-0.1,0.1-0.2,0.1c-0.1,0-0.1,0-0.1-0.1c0.1-0.1,0.2-0.2,0.3-0.2
		C337.4,168.4,337.4,168.4,337.3,168.6L337.3,168.6c0.5-0.2,0.9,0.2,0.9,0.2L337.3,168.6z M339.6,169.1c0,0.1-0.1,0.1-0.1,0.1
		s-0.1-0.1-0.1-0.1c0,0,0,0,0-0.1c-0.3,0.1-0.9-0.2-0.9-0.2l0.9,0.2c0,0,0.1-0.1,0.1-0.1C339.5,169,339.5,169,339.6,169.1z
		 M339.5,168.2c0,0-0.1,0.1-0.2,0.1l0,0c-0.1,0.2-0.9,0.4-0.9,0.4l0.9-0.4c0,0,0-0.1,0-0.1c0,0,0.1-0.1,0.2-0.1
		C339.5,168,339.5,168.1,339.5,168.2z"/>
</g>
<g>
	<path fill="#F1BDC9" d="M220.1,361.9c0,0.1,0,0.2-0.1,0.3c-0.1,0.2-0.3,0.2-0.4,0.2c-0.1-0.1-0.1-0.3,0-0.4
		c0.1-0.2,0.3-0.2,0.4-0.2C220.1,361.8,220.1,361.8,220.1,361.9c0.3-0.6,1.6-1.2,2-1.5l0,0c-0.6-0.3-0.9-0.5-0.9-0.5
		c-2.3,0-7.6,4.4-3.7,6.7c3.6,2.2,5-3,5.4-4.5c0-0.1-0.4-0.5-0.3-1.3l-0.3-0.4L220.1,361.9z"/>
	<path fill="#F1BDC9" d="M216.4,354.2c0,0-1.6,1.7-1.2,3c1.2,3.4,4.5,2.8,5.8,2.5c0.1,0,0.7-0.1,0.8-0.9l0.7-0.1
		c-0.3-0.4,0-1.2,0-1.3C220.4,352.3,216.4,354.2,216.4,354.2z M219.7,357.2c-0.1,0-0.2,0-0.3,0c-0.2-0.1-0.3-0.2-0.3-0.3
		c0-0.1,0.2-0.2,0.4-0.1c0.2,0.1,0.3,0.2,0.3,0.3C219.8,357.1,219.8,357.1,219.7,357.2c0.8,0,2.3,1.5,2.3,1.5L219.7,357.2z"/>
	<path fill="#F1BDC9" d="M225,360.7c0,0-0.5,0.2-0.8-0.1l-0.6,0.4l1,2c0.1,0,0.2,0.1,0.2,0.2c0.2,0.2,0.2,0.4,0.1,0.4
		c-0.1,0.1-0.3,0-0.4-0.1c-0.2-0.2-0.2-0.4-0.1-0.4c0,0,0,0,0.1,0c-0.4-0.3-0.8-1.3-0.9-1.9l-0.2,0.2c0,0.4-0.4,0.6-0.4,0.7
		c-0.7,3,1.6,5.5,1.6,5.5s3.4,2.9,4.8-1.9C229.3,362.8,225.9,361.1,225,360.7z"/>
	<path fill="#F1BDC9" d="M227,351.5c0,0-2.3-1.6-3.5-0.7c-3.5,1.8-1.3,6.2-0.8,7.1c0,0,0.4,0.2,0.4,0.5l0.7,0.3
		c0-0.2,0.8-0.4,0.8-0.4C229.8,353.7,227,351.5,227,351.5z M222.9,355c0.1,0.2,0.1,0.4,0,0.4c0,0,0,0-0.1,0c0.5,0.6,0.5,2.7,0.5,2.7
		l-0.6-2.7c-0.1,0-0.2-0.1-0.2-0.2c-0.1-0.2-0.1-0.4,0-0.4C222.6,354.7,222.8,354.8,222.9,355z"/>
	<path fill="#F1BDC9" d="M224.9,358.3c-0.1,0.1-0.1,0.5-0.5,0.6l0.1,1.1c0.1-0.2,0.5,0.3,0.6,0.7c6.4,2.7,7.5-0.4,7.5-0.4
		s0.7-1.4,0-2.6C230.5,354.5,225.9,357.6,224.9,358.3z M227.9,359.4c0,0.1-0.1,0.3-0.3,0.3c-0.2,0.1-0.4,0-0.4-0.2l0-0.1
		c-0.7,0.3-2.7-0.3-2.7-0.3l2.7,0.2c0.1-0.1,0.1-0.1,0.3-0.1C227.7,359.2,227.9,359.3,227.9,359.4z"/>
	<path fill="#F1BDC9" d="M221.9,358.3c-0.7,0.7-0.7,1.8-0.1,2.5c0.6,0.7,1.8,0.6,2.5-0.1c0.7-0.7,0.7-1.8,0.1-2.5
		C223.7,357.6,222.6,357.5,221.9,358.3z M223,360.7c0.1,0.1,0,0.2,0,0.2s-0.2,0-0.2,0c-0.1-0.1,0-0.2,0-0.2
		C222.8,360.7,222.8,360.7,223,360.7c-0.2-0.2-0.2-0.7-0.2-0.7L223,360.7L223,360.7z M221.7,359.1c-0.1,0.1-0.1,0.1-0.2,0.1
		c-0.1,0-0.2,0-0.1-0.1s0.2-0.2,0.3-0.2c0.1,0,0.2,0,0.1,0.1C221.8,359,221.8,359,221.7,359.1c0.5-0.3,1,0.3,1,0.3L221.7,359.1z
		 M224.4,359.7c0,0.1,0,0.2-0.1,0.1c-0.1,0-0.1-0.1-0.2-0.2c0,0,0,0,0-0.1c-0.3,0.2-1-0.2-1-0.2l1,0.2c0,0,0.1-0.1,0.1-0.1
		C224.3,359.6,224.4,359.7,224.4,359.7z M224.3,358.6c0,0-0.1,0.1-0.2,0l0,0c-0.1,0.2-1,0.4-1,0.4l1-0.5c0,0,0-0.1,0-0.1
		c0,0,0.1-0.1,0.2,0S224.3,358.6,224.3,358.6z"/>
</g>
<g>
	<path fill="#F1BDC9" d="M204.9,486.8c0,0.1,0,0.2-0.1,0.3c-0.1,0.2-0.3,0.2-0.4,0.2c-0.1-0.1-0.1-0.3,0-0.4
		c0.1-0.2,0.3-0.2,0.4-0.2C204.9,486.7,204.9,486.7,204.9,486.8c0.3-0.6,1.6-1.2,2-1.5l0,0c-0.6-0.3-0.9-0.5-0.9-0.5
		c-2.3,0-7.6,4.4-3.7,6.7c3.6,2.2,5-3,5.4-4.5c0-0.1-0.4-0.5-0.3-1.3l-0.3-0.4L204.9,486.8z"/>
	<path fill="#F1BDC9" d="M201.2,479.1c0,0-1.6,1.7-1.2,3c1.2,3.4,4.5,2.8,5.8,2.5c0.1,0,0.7-0.1,0.8-0.9l0.7-0.1
		c-0.3-0.4,0-1.2,0-1.3C205.2,477.1,201.2,479.1,201.2,479.1z M204.5,482.1c-0.1,0-0.2,0-0.3,0c-0.2-0.1-0.3-0.2-0.3-0.3
		c0-0.1,0.2-0.2,0.4-0.1c0.2,0.1,0.3,0.2,0.3,0.3C204.6,481.9,204.6,482,204.5,482.1c0.8,0,2.3,1.5,2.3,1.5L204.5,482.1z"/>
	<path fill="#F1BDC9" d="M209.8,485.6c0,0-0.5,0.2-0.8-0.1l-0.6,0.4l1,2c0.1,0,0.2,0.1,0.2,0.2c0.2,0.2,0.2,0.4,0.1,0.4
		c-0.1,0.1-0.3,0-0.4-0.1c-0.2-0.2-0.2-0.4-0.1-0.4c0,0,0,0,0.1,0c-0.4-0.3-0.8-1.3-0.9-1.9l-0.2,0.2c0,0.4-0.4,0.6-0.4,0.7
		c-0.7,3,1.6,5.5,1.6,5.5s3.4,2.9,4.8-1.9C214.1,487.6,210.7,486,209.8,485.6z"/>
	<path fill="#F1BDC9" d="M211.8,476.4c0,0-2.3-1.6-3.5-0.7c-3.5,1.8-1.3,6.2-0.8,7.1c0,0,0.4,0.2,0.4,0.5l0.7,0.3
		c0-0.2,0.8-0.4,0.8-0.4C214.6,478.5,211.8,476.4,211.8,476.4z M207.7,479.8c0.1,0.2,0.1,0.4,0,0.4c0,0,0,0-0.1,0
		c0.5,0.6,0.5,2.7,0.5,2.7l-0.6-2.7c-0.1,0-0.2-0.1-0.2-0.2c-0.1-0.2-0.1-0.4,0-0.4C207.4,479.5,207.6,479.7,207.7,479.8z"/>
	<path fill="#F1BDC9" d="M209.7,483.2c-0.1,0.1-0.1,0.5-0.5,0.6l0.1,1.1c0.1-0.2,0.5,0.3,0.6,0.7c6.4,2.7,7.5-0.4,7.5-0.4
		s0.7-1.4,0-2.6C215.3,479.4,210.7,482.4,209.7,483.2z M212.7,484.3c0,0.1-0.1,0.3-0.3,0.3c-0.2,0.1-0.4,0-0.4-0.2l0-0.1
		c-0.7,0.3-2.7-0.3-2.7-0.3l2.7,0.2c0.1-0.1,0.1-0.1,0.3-0.1C212.5,484,212.7,484.1,212.7,484.3z"/>
	<path fill="#F1BDC9" d="M206.7,483.1c-0.7,0.7-0.7,1.8-0.1,2.5c0.6,0.7,1.8,0.6,2.5-0.1c0.7-0.7,0.7-1.8,0.1-2.5
		S207.4,482.4,206.7,483.1z M207.8,485.6c0.1,0.1,0,0.2,0,0.2c-0.1,0.1-0.2,0-0.2,0c-0.1-0.1,0-0.2,0-0.2
		C207.6,485.5,207.6,485.5,207.8,485.6c-0.2-0.2-0.2-0.7-0.2-0.7L207.8,485.6L207.8,485.6z M206.5,484c-0.1,0.1-0.1,0.1-0.2,0.1
		c-0.1,0-0.2,0-0.1-0.1c0.1-0.1,0.2-0.2,0.3-0.2c0.1,0,0.2,0,0.1,0.1C206.6,483.9,206.6,483.9,206.5,484c0.5-0.3,1,0.3,1,0.3
		L206.5,484z M209.2,484.6c0,0.1,0,0.2-0.1,0.1c-0.1,0-0.1-0.1-0.2-0.2c0,0,0,0,0-0.1c-0.3,0.2-1-0.2-1-0.2l1,0.2
		c0,0,0.1-0.1,0.1-0.1C209.1,484.4,209.2,484.5,209.2,484.6z M209.1,483.5c0,0-0.1,0.1-0.2,0l0,0c-0.1,0.2-1,0.4-1,0.4l1-0.5
		c0,0,0-0.1,0-0.1c0,0,0.1-0.1,0.2,0C209.1,483.4,209.1,483.4,209.1,483.5z"/>
</g>
<g>
	<path fill="#F1BDC9" d="M226.1,330.5c0,0.1,0,0.2-0.1,0.3c-0.1,0.2-0.3,0.2-0.4,0.2c-0.1-0.1-0.1-0.3,0-0.4
		c0.1-0.2,0.3-0.2,0.4-0.2C226,330.5,226,330.5,226.1,330.5c0.3-0.6,1.6-1.2,2-1.5l0,0c-0.6-0.3-0.9-0.5-0.9-0.5
		c-2.3,0-7.6,4.4-3.7,6.7c3.6,2.2,5-3,5.4-4.5c0-0.1-0.4-0.5-0.3-1.3l-0.3-0.4L226.1,330.5z"/>
	<path fill="#F1BDC9" d="M222.3,322.8c0,0-1.6,1.7-1.2,3c1.2,3.4,4.5,2.8,5.8,2.5c0.1,0,0.7-0.1,0.8-0.9l0.7-0.1
		c-0.3-0.4,0-1.2,0-1.3C226.4,320.8,222.3,322.8,222.3,322.8z M225.6,325.8c-0.1,0-0.2,0-0.3,0c-0.2-0.1-0.3-0.2-0.3-0.3
		c0-0.1,0.2-0.2,0.4-0.1s0.3,0.2,0.3,0.3C225.8,325.7,225.7,325.7,225.6,325.8c0.8,0,2.3,1.5,2.3,1.5L225.6,325.8z"/>
	<path fill="#F1BDC9" d="M230.9,329.3c0,0-0.5,0.2-0.8-0.1l-0.6,0.4l1,2c0.1,0,0.2,0.1,0.2,0.2c0.2,0.2,0.2,0.4,0.1,0.4
		c-0.1,0.1-0.3,0-0.4-0.1c-0.1-0.2-0.2-0.4-0.1-0.4c0,0,0,0,0.1,0c-0.4-0.3-0.8-1.3-0.9-1.9l-0.2,0.2c0,0.4-0.4,0.6-0.4,0.7
		c-0.7,3,1.6,5.5,1.6,5.5s3.4,2.9,4.8-1.9C235.3,331.4,231.9,329.8,230.9,329.3z"/>
	<path fill="#F1BDC9" d="M232.9,320.1c0,0-2.3-1.6-3.5-0.7c-3.5,1.8-1.3,6.2-0.8,7.1c0,0,0.4,0.2,0.4,0.5l0.7,0.3
		c0-0.2,0.8-0.4,0.8-0.4C235.8,322.3,232.9,320.1,232.9,320.1z M228.8,323.6c0.1,0.2,0.1,0.4,0,0.4c0,0,0,0-0.1,0
		c0.5,0.6,0.5,2.7,0.5,2.7l-0.6-2.7c-0.1,0-0.2-0.1-0.2-0.2c-0.1-0.2-0.1-0.4,0-0.4C228.6,323.3,228.7,323.4,228.8,323.6z"/>
	<path fill="#F1BDC9" d="M230.8,326.9c-0.1,0.1-0.1,0.5-0.5,0.6l0.1,1.1c0.1-0.2,0.5,0.3,0.6,0.7c6.4,2.7,7.5-0.4,7.5-0.4
		s0.7-1.4,0-2.6C236.4,323.1,231.8,326.2,230.8,326.9z M233.8,328c0,0.1-0.1,0.3-0.3,0.3c-0.2,0.1-0.4,0-0.4-0.2l0-0.1
		c-0.7,0.3-2.7-0.3-2.7-0.3l2.7,0.2c0.1-0.1,0.1-0.1,0.3-0.1C233.7,327.8,233.8,327.9,233.8,328z"/>
	<path fill="#F1BDC9" d="M227.8,326.9c-0.7,0.7-0.7,1.8-0.1,2.5c0.7,0.7,1.8,0.6,2.5-0.1c0.7-0.7,0.7-1.8,0.1-2.5
		C229.6,326.2,228.5,326.2,227.8,326.9z M228.9,329.3c0.1,0.1,0,0.2,0,0.2s-0.2,0-0.2,0c-0.1-0.1,0-0.2,0-0.2
		C228.8,329.3,228.8,329.3,228.9,329.3c-0.2-0.2-0.2-0.7-0.2-0.7L228.9,329.3L228.9,329.3z M227.6,327.7c-0.1,0.1-0.1,0.1-0.2,0.1
		c-0.1,0-0.2,0-0.1-0.1s0.2-0.2,0.3-0.2c0.1,0,0.2,0,0.1,0.1C227.8,327.6,227.7,327.6,227.6,327.7c0.5-0.3,1,0.3,1,0.3L227.6,327.7z
		 M230.3,328.4c0,0.1,0,0.2-0.1,0.1c-0.1,0-0.1-0.1-0.2-0.2c0,0,0,0,0-0.1c-0.3,0.2-1-0.2-1-0.2l1,0.2c0,0,0.1-0.1,0.1-0.1
		C230.2,328.2,230.3,328.3,230.3,328.4z M230.2,327.2c0,0-0.1,0.1-0.2,0l0,0c-0.1,0.2-1,0.4-1,0.4l1-0.5c0,0,0-0.1,0-0.1
		c0,0,0.1-0.1,0.2,0C230.2,327.1,230.3,327.2,230.2,327.2z"/>
</g>
<g>
	<path fill="#F4DBDD" d="M310.6,200c0,0.1-0.1,0.3-0.2,0.4c-0.2,0.3-0.5,0.4-0.6,0.2c-0.2-0.1-0.1-0.4,0.1-0.6
		c0.2-0.3,0.5-0.4,0.6-0.2c0,0,0.1,0.1,0.1,0.1c0.4-0.8,2.4-1.8,3.1-2.2l-0.1-0.1c-1-0.3-1.3-0.7-1.4-0.7c-3.5,0-11.6,6.9-5.8,10.3
		c5.3,3.1,7.7-4.7,8.3-6.9c0-0.1-0.6-0.7-0.5-2l-0.5-0.6L310.6,200z"/>
	<path fill="#F4DBDD" d="M305.1,188.5c0,0-2.4,2.5-2,4.6c1.7,5.2,6.8,4.1,8.6,3.6c0.2,0,1-0.2,1.2-1.4l1.1-0.1c-0.4-0.6,0-1.8,0-1.9
		C311.3,185.3,305.1,188.5,305.1,188.5z M310,192.9c-0.1,0.1-0.3,0-0.5,0c-0.3-0.1-0.5-0.3-0.4-0.5c0.1-0.2,0.3-0.3,0.6-0.2
		s0.5,0.3,0.4,0.5c0,0,0,0.1,0,0.1c1.1,0.2,3.3,2.3,3.3,2.3L310,192.9z"/>
	<path fill="#F4DBDD" d="M318,198c-0.1,0-0.7,0.2-1.2-0.1l-0.9,0.6l1.4,3c0.1,0,0.3,0.1,0.4,0.2c0.2,0.2,0.3,0.5,0.1,0.6
		c-0.1,0.1-0.4,0-0.6-0.2c-0.2-0.2-0.3-0.5-0.1-0.6c0,0,0.1-0.1,0.1,0c-0.6-0.5-1.1-1.9-1.4-2.9l-0.4,0.2c0,0.6-0.6,1-0.6,1.1
		c-1.1,4.5,2.3,8.3,2.3,8.3s5,4.2,7.3-3C324.5,201.1,319.4,198.7,318,198z"/>
	<path fill="#F4DBDD" d="M321.3,184.1c0,0-3.4-2.4-5.3-1c-5.4,2.9-2.2,9.4-1.4,10.8c0,0,0.5,0.2,0.6,0.7l1.1,0.4
		c0.1-0.3,1.2-0.6,1.3-0.6C325.5,187.2,321.3,184.1,321.3,184.1z M314.9,189.5c0.1,0.3,0.1,0.6,0,0.7c0,0-0.1,0-0.1,0
		c0.7,0.9,0.7,4,0.7,4l-0.9-4.1c-0.1-0.1-0.2-0.2-0.3-0.3c-0.1-0.3-0.1-0.6,0-0.7C314.5,189.1,314.8,189.2,314.9,189.5z"/>
	<path fill="#F4DBDD" d="M317.9,194.4c-0.1,0.1-0.2,0.7-0.8,0.9l0.2,1.7c0.1-0.3,0.8,0.4,0.8,1c9.6,3.9,11.4-0.8,11.4-0.8
		s1-2.2,0.1-3.9C326.4,188.5,319.5,193.3,317.9,194.4z M322.4,195.9c0.1,0.2-0.2,0.4-0.5,0.5c-0.3,0-0.6,0-0.6-0.2c0,0,0-0.1,0-0.1
		c-1,0.4-4-0.4-4-0.4l4.1,0.2c0.1-0.1,0.2-0.2,0.4-0.2C322.1,195.7,322.4,195.8,322.4,195.9z"/>
	<path fill="#F4DBDD" d="M313.3,194.4c-1.1,1.1-1.2,2.8-0.2,3.8c1,1,2.7,1,3.8-0.1c1.1-1.1,1.2-2.8,0.2-3.8
		C316.1,193.3,314.4,193.4,313.3,194.4z M314.9,198.1c0.1,0.1,0.1,0.3,0,0.3c-0.1,0.1-0.2,0.1-0.3,0c-0.1-0.1-0.1-0.3,0-0.3
		c0,0,0.1-0.1,0.1-0.1c-0.1-0.3-0.1-1-0.1-1L314.9,198.1C314.8,198.1,314.9,198.1,314.9,198.1z M313,195.7c-0.1,0.1-0.2,0.1-0.3,0.2
		c-0.2,0-0.2,0-0.1-0.2s0.3-0.3,0.5-0.3s0.2,0,0.1,0.2C313.2,195.6,313.1,195.6,313,195.7c0.8-0.4,1.6,0.4,1.6,0.4L313,195.7z
		 M317.1,196.6c0,0.1-0.1,0.2-0.2,0.3c-0.1,0-0.2-0.1-0.2-0.2l0-0.1c-0.5,0.3-1.6-0.3-1.6-0.3l1.6,0.3c0-0.1,0.1-0.1,0.2-0.1
		C317,196.4,317.1,196.5,317.1,196.6z M316.9,194.9c-0.1,0.1-0.2,0.1-0.3,0.1c0,0,0,0-0.1,0c-0.1,0.3-1.6,0.7-1.6,0.7l1.6-0.8
		c0,0,0-0.1,0-0.1c0.1-0.1,0.2-0.1,0.3-0.1C316.9,194.8,317,194.8,316.9,194.9z"/>
</g>
<g>
	<path fill="#F4DBDD" d="M342,248.1c0,0.1,0,0.2-0.1,0.3c-0.1,0.2-0.3,0.2-0.4,0.2c-0.1-0.1-0.1-0.3,0-0.4s0.3-0.2,0.4-0.2
		C342,248,342,248,342,248.1c0.3-0.6,1.6-1.3,2-1.5l0,0c-0.7-0.2-0.9-0.5-1-0.5c-2.3,0-7.8,4.6-3.9,6.9c3.6,2.1,5.2-3.1,5.5-4.6
		c0-0.1-0.4-0.5-0.3-1.3l-0.3-0.4L342,248.1z"/>
	<path fill="#F4DBDD" d="M338.4,240.4c0,0-1.6,1.7-1.3,3.1c1.1,3.5,4.6,2.8,5.8,2.4c0.1,0,0.7-0.1,0.8-0.9l0.7-0.1
		c-0.2-0.4,0-1.2,0-1.3C342.5,238.3,338.4,240.4,338.4,240.4z M341.7,243.4c-0.1,0-0.2,0-0.3,0c-0.2-0.1-0.3-0.2-0.3-0.3
		c0-0.1,0.2-0.2,0.4-0.1C341.6,243,341.8,243.2,341.7,243.4C341.8,243.3,341.7,243.3,341.7,243.4c0.8,0.1,2.3,1.5,2.3,1.5
		L341.7,243.4z"/>
	<path fill="#F4DBDD" d="M347,246.8c0,0-0.5,0.2-0.8,0l-0.6,0.4l0.9,2c0.1,0,0.2,0.1,0.2,0.2c0.2,0.2,0.2,0.4,0.1,0.4
		c-0.1,0.1-0.3,0-0.4-0.1c-0.2-0.2-0.2-0.4-0.1-0.4c0,0,0,0,0.1,0c-0.4-0.3-0.7-1.3-0.9-1.9l-0.2,0.2c0,0.4-0.4,0.6-0.4,0.7
		c-0.8,3,1.5,5.6,1.5,5.6s3.4,2.9,4.9-2C351.4,248.9,347.9,247.2,347,246.8z"/>
	<path fill="#F4DBDD" d="M349.2,237.5c0,0-2.3-1.6-3.5-0.6c-3.6,1.9-1.5,6.3-0.9,7.3c0,0,0.3,0.1,0.4,0.5l0.7,0.3
		c0-0.2,0.8-0.4,0.9-0.4C352,239.6,349.2,237.5,349.2,237.5z M345,241.1c0.1,0.2,0.1,0.4,0,0.4c0,0,0,0-0.1,0
		c0.5,0.6,0.5,2.7,0.5,2.7l-0.6-2.7c-0.1,0-0.2-0.1-0.2-0.2c-0.1-0.2-0.1-0.4,0-0.4S344.9,240.9,345,241.1z"/>
	<path fill="#F4DBDD" d="M346.9,244.4c-0.1,0.1-0.1,0.5-0.5,0.6l0.1,1.1c0.1-0.2,0.5,0.3,0.6,0.7c6.4,2.6,7.6-0.5,7.6-0.5
		s0.7-1.5,0.1-2.6C352.6,240.4,348,243.6,346.9,244.4z M350,245.4c0,0.1-0.1,0.3-0.3,0.3s-0.4,0-0.4-0.2l0-0.1
		c-0.7,0.3-2.7-0.2-2.7-0.2l2.8,0.2c0.1-0.1,0.1-0.1,0.3-0.1C349.8,245.2,350,245.3,350,245.4z"/>
	<path fill="#F4DBDD" d="M343.9,244.4c-0.7,0.7-0.8,1.9-0.1,2.5c0.7,0.7,1.8,0.6,2.5-0.1c0.7-0.7,0.8-1.9,0.1-2.5
		C345.7,243.6,344.6,243.7,343.9,244.4z M345,246.9c0.1,0.1,0,0.2,0,0.2c-0.1,0.1-0.2,0-0.2,0c-0.1-0.1,0-0.2,0-0.2
		C344.8,246.9,344.8,246.9,345,246.9c-0.2-0.2-0.2-0.7-0.2-0.7L345,246.9C344.9,246.8,344.9,246.9,345,246.9z M343.7,245.2
		c-0.1,0.1-0.1,0.1-0.2,0.1c-0.1,0-0.2,0-0.1-0.1c0.1-0.1,0.2-0.2,0.3-0.2C343.8,245,343.9,245.1,343.7,245.2
		C343.8,245.1,343.8,245.2,343.7,245.2c0.5-0.2,1,0.3,1,0.3L343.7,245.2z M346.4,245.8c0,0.1,0,0.2-0.2,0.2c-0.1,0-0.1-0.1-0.2-0.2
		c0,0,0,0,0-0.1c-0.3,0.2-1-0.2-1-0.2l1,0.2c0,0,0.1-0.1,0.1-0.1C346.3,245.7,346.4,245.8,346.4,245.8z M346.3,244.7
		c0,0-0.1,0.1-0.2,0l0,0c-0.1,0.2-1.1,0.5-1.1,0.5l1-0.5c0,0,0-0.1,0-0.1c0,0,0.1-0.1,0.2,0C346.3,244.6,346.4,244.7,346.3,244.7z"
		/>
</g>
<g>
	<path fill="#F4DBDD" d="M266.4,411.5c-0.1,0.1-0.2,0.2-0.4,0.2c-0.3,0-0.6,0-0.6-0.2c0-0.2,0.2-0.4,0.5-0.4c0.3,0,0.6,0,0.6,0.2
		C266.5,411.3,266.5,411.3,266.4,411.5c0.9-0.4,2.9,0,3.7,0.2l0-0.1c-0.5-0.8-0.5-1.2-0.6-1.3c-2.6-2-12.9-1.9-10.8,3.7
		c1.9,5.1,8.6,1.2,10.5,0c0.1,0,0-0.8,0.9-1.6l0-0.6L266.4,411.5z"/>
	<path fill="#F4DBDD" d="M269.8,400.6c0,0-3.4,0.4-4.4,2c-2,4.4,2.4,6.6,4.1,7.2c0.1,0.1,0.9,0.5,1.8-0.3l0.9,0.5
		c0.1-0.6,1.1-1.2,1.2-1.3C276.4,402,269.8,400.6,269.8,400.6z M270.6,406.4c-0.1,0-0.3-0.1-0.3-0.3c-0.2-0.2-0.2-0.5,0-0.6
		c0.2-0.1,0.4,0,0.6,0.3c0.2,0.2,0.2,0.5,0,0.6c0,0-0.1,0-0.1,0c0.7,0.7,1,3.4,1,3.4L270.6,406.4z"/>
	<path fill="#F4DBDD" d="M273.2,414.2c0-0.1-0.7-0.3-0.8-0.7l-1.1-0.1l-0.9,2.8c0.1,0.1,0.1,0.2,0.1,0.4c0,0.3-0.2,0.5-0.3,0.5
		c-0.2,0-0.3-0.2-0.4-0.5c0-0.3,0.2-0.5,0.3-0.5c0.1,0,0.1,0,0.1,0c-0.1-0.6,0.4-1.9,0.8-2.7l-0.4,0c-0.4,0.4-1,0.3-1.1,0.4
		c-3.7,2.4-3.6,6.9-3.6,6.9s1,5.6,7.3,2C276,420,273.8,415.5,273.2,414.2z"/>
	<path fill="#F4DBDD" d="M284.5,406.7c0,0-1-3.5-3.3-3.6c-5.9-1.1-7.6,5.1-7.9,6.5c0,0.1,0.2,0.4,0,0.7l0.5,0.9
		c0.2-0.1,1.3,0.3,1.4,0.3C285.6,411.2,284.5,406.7,284.5,406.7z M276.4,406.8c-0.1,0.3-0.3,0.5-0.4,0.4c0,0-0.1,0-0.1,0
		c-0.1,1-2,3.1-2,3.1l1.9-3.2c0-0.1-0.1-0.3,0-0.4c0.1-0.3,0.3-0.5,0.4-0.4C276.4,406.3,276.5,406.6,276.4,406.8z"/>
	<path fill="#F4DBDD" d="M275.4,411.8c-0.1,0-0.6,0.4-1.2,0.1l-1,1.2c0.2-0.2,0.3,0.7,0,1.2c4.6,8,8.9,5.8,8.9,5.8s2.1-0.9,2.6-2.5
		C285.4,412.6,277.3,411.9,275.4,411.8z M277.8,415.4c-0.1,0.2-0.4,0.2-0.6,0.1c-0.3-0.1-0.4-0.4-0.4-0.5c0,0,0.1-0.1,0.1-0.1
		c-1.1-0.3-2.7-2.5-2.7-2.5l2.9,2.4c0.1,0,0.3,0,0.4,0.1C277.8,415,277.9,415.2,277.8,415.4z"/>
	<path fill="#F4DBDD" d="M272.1,409.3c-1.5,0.1-2.6,1.2-2.5,2.5c0.1,1.2,1.4,2.1,2.9,2c1.5-0.1,2.6-1.2,2.5-2.5
		C274.8,410,273.5,409.1,272.1,409.3z M270.9,412.6c0,0.1-0.1,0.2-0.2,0.2c-0.1,0-0.2-0.1-0.2-0.2c0-0.1,0.1-0.2,0.2-0.2
		c0.1,0,0.1,0,0.1,0c0.1-0.3,0.6-0.7,0.6-0.7l-0.5,0.8C270.9,412.6,270.9,412.6,270.9,412.6z M271,409.9c-0.1,0-0.2,0-0.3-0.1
		c-0.1-0.1-0.2-0.2,0-0.2s0.4,0,0.6,0c0.1,0.1,0.2,0.2,0,0.2c0,0-0.1,0-0.1,0c0.7,0.2,0.8,1.1,0.8,1.1L271,409.9z M273.5,412.8
		c-0.1,0.1-0.2,0.1-0.3,0c-0.1-0.1-0.1-0.2,0-0.3l0,0c-0.5-0.1-0.9-1.1-0.9-1.1l1,1c0.1,0,0.2,0,0.2,0
		C273.5,412.6,273.6,412.7,273.5,412.8z M274.4,411.6c-0.1,0-0.2,0-0.3-0.1l0,0c-0.3,0.1-1.7-0.4-1.7-0.4l1.7,0.4
		c0,0,0.1-0.1,0.1-0.1c0.1,0,0.2,0,0.3,0.1C274.5,411.5,274.5,411.5,274.4,411.6z"/>
</g>
<g>
	<path fill="#F4DBDD" d="M320.6,104.9c0.1,0.1,0.1,0.2,0,0.3c0,0.2-0.2,0.4-0.3,0.3c-0.1,0-0.2-0.2-0.2-0.4c0-0.2,0.2-0.4,0.3-0.3
		L320.6,104.9c-0.1-0.7,0.7-1.9,0.9-2.4l-0.1,0c-0.7,0.2-1,0.1-1.1,0.1c-2,1.2-4.3,7.9,0.2,7.9c4.1,0,2.8-5.3,2.4-6.8
		c0-0.1-0.6-0.2-0.9-1l-0.5-0.2L320.6,104.9z"/>
	<path fill="#F4DBDD" d="M313.6,100.1c0,0-0.5,2.3,0.4,3.3c2.7,2.4,5.2,0,6.1-0.9c0.1-0.1,0.5-0.5,0.2-1.2l0.6-0.5
		c-0.4-0.2-0.6-1-0.6-1C316.1,96.2,313.6,100.1,313.6,100.1z M317.9,101c-0.1,0.1-0.1,0.1-0.3,0.1c-0.2,0.1-0.4,0-0.4-0.1
		c0-0.1,0.1-0.3,0.3-0.3c0.2-0.1,0.4,0,0.4,0.1l0,0.1c0.7-0.3,2.7,0.2,2.7,0.2L317.9,101z"/>
	<path fill="#F4DBDD" d="M324.1,101.2c-0.1,0-0.4,0.4-0.7,0.4l-0.3,0.6l1.8,1.2c0.1,0,0.2,0,0.3,0c0.2,0.1,0.3,0.2,0.3,0.3
		c0,0.1-0.2,0.2-0.4,0.1c-0.2-0.1-0.3-0.2-0.3-0.3c0,0,0,0,0.1-0.1c-0.5-0.1-1.3-0.8-1.7-1.2l-0.1,0.3c0.2,0.3,0,0.7,0,0.8
		c0.9,3,4.1,4,4.1,4s4.3,0.7,3.1-4.3C328.9,100.7,325.1,101.1,324.1,101.2z"/>
	<path fill="#F4DBDD" d="M321.3,92.1c0,0-2.8-0.2-3.3,1.3c-2.1,3.5,2,6.1,2.9,6.7c0,0,0.4,0,0.5,0.2l0.8-0.2c0-0.2,0.5-0.7,0.6-0.8
		C324.8,92.5,321.3,92.1,321.3,92.1z M319.6,97.4c0.2,0.1,0.3,0.3,0.2,0.4c0,0,0,0-0.1,0.1c0.7,0.3,1.7,2,1.7,2l-1.8-2
		c-0.1,0-0.2,0-0.3-0.1c-0.2-0.1-0.3-0.3-0.2-0.4C319.2,97.2,319.4,97.2,319.6,97.4z"/>
	<path fill="#F4DBDD" d="M322.9,99.2c0,0.1,0.1,0.5-0.2,0.8l0.6,0.9c-0.1-0.2,0.6,0,0.8,0.3c6.8-1,6.2-4.3,6.2-4.3s-0.2-1.6-1.2-2.3
		C325.7,92.9,323.4,98,322.9,99.2z M326,98.5c0.1,0.1,0,0.3-0.1,0.4c-0.1,0.1-0.3,0.2-0.4,0.1c0,0,0,0-0.1-0.1
		c-0.4,0.6-2.4,1.2-2.4,1.2l2.4-1.3c0-0.1,0.1-0.2,0.1-0.3C325.7,98.4,325.9,98.4,326,98.5z"/>
	<path fill="#F4DBDD" d="M320.3,100.7c-0.3,1,0.3,2,1.2,2.2c0.9,0.2,1.8-0.4,2.1-1.4c0.3-1-0.3-2-1.2-2.2
		C321.5,99.2,320.5,99.8,320.3,100.7z M322.4,102.3c0.1,0,0.1,0.1,0.1,0.2c0,0.1-0.1,0.1-0.2,0.1c-0.1,0-0.1-0.1-0.1-0.2
		C322.3,102.4,322.3,102.4,322.4,102.3c-0.3-0.1-0.5-0.5-0.5-0.5L322.4,102.3C322.4,102.3,322.4,102.3,322.4,102.3z M320.5,101.6
		c0,0.1-0.1,0.1-0.1,0.2c-0.1,0.1-0.1,0.1-0.1-0.1c0-0.1,0.1-0.3,0.2-0.4s0.1-0.1,0.1,0.1L320.5,101.6c0.4-0.5,1-0.4,1-0.4
		L320.5,101.6z M323.2,100.7c0.1,0.1,0,0.2,0,0.2s-0.2,0-0.2,0l0,0c-0.2,0.3-1,0.4-1,0.4l1-0.4c0-0.1,0-0.1,0.1-0.1
		C323,100.6,323.1,100.6,323.2,100.7z M322.5,99.8c0,0.1-0.1,0.1-0.2,0.2c0,0,0,0-0.1,0c0,0.2-0.7,1-0.7,1l0.7-1c0,0,0,0,0-0.1
		C322.2,99.8,322.3,99.7,322.5,99.8C322.4,99.7,322.5,99.7,322.5,99.8z"/>
</g>
<g>
	<path fill="#F1BDC9" d="M267,303.4c-0.2,0.1-0.5,0.1-0.8,0.1c-0.6-0.1-1-0.4-0.9-0.7c0-0.3,0.5-0.5,1.1-0.4c0.6,0.1,1,0.4,0.9,0.7
		c0,0.1,0,0.1-0.1,0.2c1.6,0,4.9,2,6.1,2.7l0.1-0.1c-0.4-1.7-0.2-2.4-0.2-2.6c-3.2-5-21.2-11.4-21.1-0.4c0.1,10,14.2,7.4,18.2,6.5
		c0.2-0.1,0.6-1.4,2.6-2.2l0.4-1.1L267,303.4z"/>
	<path fill="#F1BDC9" d="M279.6,286.7c0,0-6.1-1.5-8.9,0.7c-6.3,6.4-0.1,12.9,2.5,15.1c0.2,0.2,1.3,1.3,3.2,0.7l1.2,1.5
		c0.6-1,2.8-1.4,2.9-1.5C290.1,293.2,279.6,286.7,279.6,286.7z M277.4,297.1c-0.2-0.1-0.3-0.4-0.4-0.6c-0.2-0.5,0-0.9,0.4-1
		c0.3-0.1,0.7,0.3,0.8,0.8c0.1,0.5,0,0.9-0.4,1c-0.1,0-0.1,0-0.2,0c0.8,1.7-0.5,6.5-0.5,6.5L277.4,297.1z"/>
	<path fill="#F1BDC9" d="M277,312.4c0-0.2-1-0.9-1-1.7l-1.8-0.9l-3.2,4.3c0.1,0.2,0.1,0.5,0,0.7c-0.2,0.5-0.6,0.7-0.9,0.7
		c-0.3-0.1-0.5-0.6-0.3-1c0.2-0.5,0.6-0.7,0.9-0.7c0.1,0,0.1,0.1,0.2,0.1c0.2-1.2,2-3,3.1-4.2l-0.7-0.4c-0.9,0.4-2-0.1-2.2,0
		c-7.9,1.9-10.5,9.7-10.5,9.7s-1.8,10.5,11.4,8.1C278.3,324.2,277.3,315,277,312.4z"/>
	<path fill="#F1BDC9" d="M301.3,306.5c0,0,0.4-6.7-3.4-8.3c-9.4-5.5-16.4,4.1-17.8,6.3c-0.1,0.1,0.1,0.9-0.4,1.3l0.4,2
		c0.4-0.1,2,1.3,2.2,1.4C300.4,315,301.3,306.5,301.3,306.5z M287.2,301.6c-0.3,0.4-0.7,0.6-1,0.4c0,0-0.1-0.1-0.1-0.1
		c-0.7,1.7-5.4,4.1-5.4,4.1l5.3-4.3c0-0.2,0.1-0.5,0.2-0.7c0.3-0.4,0.7-0.6,1-0.4C287.4,300.6,287.4,301.2,287.2,301.6z"/>
	<path fill="#F1BDC9" d="M282.3,309.6c-0.2-0.1-1.2,0.3-2.1-0.5l-2.4,1.5c0.5-0.1,0.1,1.5-0.8,2c2.9,16.8,11.7,15.7,11.7,15.7
		s4.3-0.2,6-2.8C299.3,317.3,285.6,311,282.3,309.6z M284.3,317.3c-0.3,0.2-0.8,0.1-1.1-0.3c-0.4-0.4-0.5-0.8-0.3-1
		c0,0,0.1-0.1,0.2-0.1c-1.6-1.2-3.2-6.1-3.2-6.1l3.4,6.1c0.2,0,0.5,0.2,0.7,0.4C284.4,316.6,284.5,317.1,284.3,317.3z"/>
	<path fill="#F1BDC9" d="M278.1,303c-2.7-0.7-5.3,0.4-5.9,2.6c-0.6,2.2,1,4.6,3.7,5.3c2.7,0.7,5.3-0.4,5.9-2.6
		C282.4,306.1,280.8,303.8,278.1,303z M274,308.2c-0.1,0.2-0.3,0.3-0.5,0.2c-0.2-0.1-0.3-0.3-0.3-0.5c0.1-0.2,0.3-0.3,0.5-0.2
		c0.1,0,0.2,0.1,0.2,0.1c0.3-0.4,1.5-0.9,1.5-0.9L274,308C274,308.1,274,308.1,274,308.2z M275.9,303.6c-0.2-0.1-0.4-0.2-0.5-0.3
		c-0.2-0.2-0.2-0.4,0.1-0.3s0.7,0.2,0.9,0.4c0.2,0.2,0.2,0.4-0.1,0.3c-0.1,0-0.1,0-0.2-0.1c1.1,0.8,0.7,2.4,0.7,2.4L275.9,303.6z
		 M278.3,310.1c-0.2,0.1-0.4,0.1-0.6-0.1s-0.1-0.4,0.1-0.5c0,0,0.1-0.1,0.1,0c-0.8-0.5-1-2.5-1-2.5l1.1,2.4c0.1,0,0.3,0,0.4,0.2
		C278.6,309.8,278.5,310,278.3,310.1z M280.7,308.6c-0.2,0-0.4-0.2-0.4-0.4c0,0,0-0.1,0-0.1c-0.6,0.1-2.6-1.7-2.6-1.7l2.6,1.7
		c0.1-0.1,0.1-0.1,0.2-0.1c0.2,0,0.4,0.2,0.4,0.4C281,308.5,281,308.6,280.7,308.6z"/>
</g>
<g>
	<path fill="#F4DBDD" d="M290.8-165.9c0.1,0.1,0.1,0.2,0.1,0.3c0,0.2-0.1,0.4-0.2,0.4c-0.1,0-0.2-0.2-0.3-0.3c0-0.2,0.1-0.4,0.2-0.4
		l0.1,0c-0.2-0.6,0.3-2,0.5-2.5l-0.1,0c-0.6,0.3-0.9,0.3-1,0.3c-1.7,1.6-2.5,8.6,1.8,7.7c4-0.9,1.6-5.8,0.9-7.1
		c-0.1-0.1-0.6-0.1-1.1-0.8l-0.5-0.1L290.8-165.9z"/>
	<path fill="#F4DBDD" d="M282.9-169.1c0,0,0,2.4,1.1,3.1c3.1,1.8,5.1-1.1,5.8-2.1c0.1-0.1,0.4-0.6,0-1.2l0.5-0.6
		c-0.5-0.1-0.8-0.9-0.8-0.9C284.5-173.4,282.9-169.1,282.9-169.1z M287.3-169.2c-0.1,0.1-0.1,0.2-0.2,0.2c-0.2,0.1-0.4,0.1-0.4,0
		c-0.1-0.1,0.1-0.3,0.3-0.4c0.2-0.1,0.4-0.1,0.4,0l0,0.1c0.6-0.4,2.6-0.4,2.6-0.4L287.3-169.2z"/>
	<path fill="#F4DBDD" d="M293.4-170.3c-0.1,0-0.3,0.5-0.6,0.5l-0.2,0.7l2,0.8c0.1-0.1,0.2-0.1,0.3,0c0.2,0,0.4,0.1,0.3,0.3
		c0,0.1-0.2,0.2-0.4,0.2c-0.2,0-0.4-0.1-0.3-0.3c0,0,0,0,0-0.1c-0.5,0-1.4-0.5-2-0.8l-0.1,0.3c0.3,0.3,0.2,0.7,0.2,0.8
		c1.5,2.7,4.9,3,4.9,3s4.4-0.2,2.2-4.8C298-171.7,294.4-170.6,293.4-170.3z"/>
	<path fill="#F4DBDD" d="M288.8-178.6c0,0-2.7,0.4-3,1.9c-1.3,3.9,3.2,5.6,4.2,5.9c0,0,0.3-0.1,0.6,0l0.8-0.3
		c-0.1-0.2,0.3-0.8,0.4-0.9C292.2-179,288.8-178.6,288.8-178.6z M288.2-173.1c0.2,0.1,0.3,0.2,0.3,0.3c0,0,0,0,0,0.1
		c0.8,0.1,2.1,1.6,2.1,1.6l-2.2-1.6c-0.1,0-0.2,0-0.3,0c-0.2-0.1-0.3-0.2-0.3-0.3C287.8-173.1,288-173.2,288.2-173.1z"/>
	<path fill="#F4DBDD" d="M291.8-172c0,0.1,0.2,0.4,0,0.8l0.8,0.8c-0.1-0.2,0.6-0.2,0.9,0.1c6.4-2.4,5.2-5.6,5.2-5.6s-0.5-1.5-1.7-2
		C293.3-178.8,292-173.3,291.8-172z M294.7-173.3c0.1,0.1,0.1,0.3,0,0.4c-0.1,0.2-0.3,0.3-0.4,0.2c0,0,0,0-0.1-0.1
		c-0.3,0.7-2.1,1.6-2.1,1.6l2.1-1.8c0-0.1,0-0.2,0.1-0.3C294.4-173.3,294.6-173.4,294.7-173.3z"/>
	<path fill="#F4DBDD" d="M289.6-169.9c-0.1,1,0.7,1.9,1.6,1.9c0.9,0,1.7-0.8,1.8-1.8c0.1-1-0.7-1.9-1.6-1.9
		C290.4-171.7,289.6-170.9,289.6-169.9z M292-168.8c0.1,0,0.2,0.1,0.1,0.2c0,0.1-0.1,0.2-0.1,0.1c-0.1,0-0.2-0.1-0.1-0.2
		C291.9-168.7,291.9-168.7,292-168.8c-0.3,0-0.6-0.4-0.6-0.4L292-168.8C292-168.9,292-168.9,292-168.8z M290-169.2
		c0,0.1,0,0.1-0.1,0.2c-0.1,0.1-0.1,0.1-0.1,0c0-0.1,0-0.3,0.1-0.4c0.1-0.1,0.1-0.1,0.1,0l0,0.1c0.2-0.4,0.9-0.5,0.9-0.5L290-169.2z
		 M292.4-170.6c0.1,0.1,0.1,0.2,0,0.2s-0.2,0.1-0.2,0l0,0c-0.1,0.3-0.9,0.6-0.9,0.6l0.9-0.6c0-0.1,0-0.1,0-0.1
		C292.2-170.7,292.3-170.6,292.4-170.6z M291.5-171.3c0,0.1,0,0.1-0.1,0.2c0,0,0,0-0.1,0c0.1,0.2-0.4,1.1-0.4,1.1l0.4-1.1
		c0,0,0,0-0.1-0.1c0-0.1,0-0.1,0.1-0.2C291.5-171.4,291.5-171.4,291.5-171.3z"/>
</g>
</svg>
