<?xml version="1.0" encoding="utf-8"?>
<!-- Generator: Adobe Illustrator 16.0.4, SVG Export Plug-In . SVG Version: 6.00 Build 0)  -->
<!DOCTYPE svg PUBLIC "-//W3C//DTD SVG 1.1//EN" "http://www.w3.org/Graphics/SVG/1.1/DTD/svg11.dtd">
<svg version="1.1" id="Layer_1" xmlns="http://www.w3.org/2000/svg" xmlns:xlink="http://www.w3.org/1999/xlink" x="0px" y="0px"
	 width="612px" height="323.5px" viewBox="0 468.5 612 323.5" enable-background="new 0 468.5 612 323.5" xml:space="preserve">
<g>
	<path fill="#C4C4C4" d="M443.702,723.4c0,0-1.756,0.559-5.029,1.517s-8.143,2.155-14.37,3.672
		c-6.147,1.517-13.811,3.113-22.513,4.631c-8.781,1.517-18.681,3.033-29.538,4.071c-10.857,0.958-22.753,1.597-35.286,1.038
		c-6.307-0.24-12.693-0.879-19.24-1.916c-6.546-1.038-13.172-2.555-19.719-4.79c-6.546-2.235-13.013-5.109-18.92-9.102
		c-5.988-3.911-11.416-8.861-15.808-14.769c-4.391-5.908-7.584-12.614-9.659-19.799c-0.56-1.756-0.958-3.593-1.357-5.349
		c-0.16-0.958-0.399-1.836-0.479-2.715l-0.398-2.714c-0.239-1.836-0.639-3.513-1.038-5.27c-0.399-1.756-0.878-3.433-1.357-5.109
		c-2.155-6.785-5.349-13.252-9.42-19c-4.151-5.748-9.261-10.697-14.929-14.689c-5.668-4.071-11.976-7.185-18.441-9.42
		c-6.467-2.315-13.173-3.672-19.799-4.311s-13.252-0.56-19.559,0.398c-6.387,0.879-12.374,2.635-17.803,5.27
		c-1.277,0.639-2.714,1.357-3.912,2.155l-0.958,0.639l-0.958,0.639c-0.639,0.399-1.277,0.798-1.996,1.197
		c-2.714,1.597-5.429,3.034-8.223,4.231c-2.794,1.197-5.668,2.155-8.622,2.714c-2.874,0.56-5.908,0.799-8.782,0.399
		c-2.874-0.319-5.668-1.277-8.143-2.714c-2.395-1.357-4.47-3.193-6.147-5.109c-3.433-3.912-5.588-8.383-7.265-12.534
		c-3.193-8.462-4.551-16.126-5.509-22.513c-0.878-6.387-1.277-11.337-1.676-14.689c-0.16-1.677-0.399-3.033-0.559-3.832
		c-0.16-0.878-0.319-1.277-0.319-1.277l0.319-0.159c0,0,0.239,0.398,0.399,1.277c0.16,0.878,0.479,2.155,0.798,3.832
		c0.559,3.433,1.197,8.302,2.315,14.529c0.639,3.113,1.277,6.546,2.315,10.219c0.958,3.672,2.155,7.584,3.912,11.575
		c1.677,3.992,3.912,8.144,7.185,11.576c1.677,1.756,3.513,3.273,5.668,4.471c2.156,1.117,4.551,1.916,7.025,2.155
		c2.555,0.239,5.109,0.08,7.744-0.559c2.634-0.559,5.269-1.517,7.903-2.715c2.634-1.117,5.109-2.555,7.744-4.071
		c0.639-0.399,1.277-0.798,1.836-1.197l0.958-0.639l0.958-0.639c1.357-0.878,2.714-1.677,4.231-2.395
		c2.874-1.518,5.987-2.715,9.181-3.593c3.193-0.958,6.467-1.677,9.82-2.155c6.706-0.958,13.571-1.118,20.517-0.479
		c6.945,0.719,13.891,2.235,20.677,4.631c6.785,2.395,13.332,5.827,19.239,10.059c5.988,4.311,11.257,9.66,15.567,15.727
		c4.231,6.067,7.585,12.934,9.66,20.039c0.559,1.836,0.958,3.592,1.437,5.349c0.399,1.836,0.799,3.672,0.958,5.508l0.399,2.715
		c0.08,0.878,0.319,1.756,0.479,2.635c0.398,1.756,0.798,3.513,1.277,5.188c1.836,6.866,4.949,13.332,9.021,19
		c4.072,5.669,9.261,10.538,15.009,14.37c5.668,3.912,11.976,6.786,18.361,9.021c6.387,2.235,12.854,3.752,19.24,4.87
		c6.387,1.117,12.773,1.756,19,2.155c12.454,0.719,24.27,0.319,35.127-0.559c10.857-0.879,20.757-2.156,29.538-3.673
		c8.781-1.437,16.286-2.954,22.593-4.311c6.227-1.357,11.097-2.555,14.37-3.433c3.272-0.879,5.029-1.357,5.029-1.357L443.702,723.4z
		"/>
</g>
<polygon fill="#FF99A1" points="60.903,485.098 29.449,541.301 96.429,619.059 117.504,516.153 "/>
<g>
	<line fill="none" stroke="#FFFFFF" stroke-width="5" stroke-miterlimit="10" x1="29.848" y1="541.46" x2="117.983" y2="516.312"/>
	<line fill="none" stroke="#FFFFFF" stroke-width="5" stroke-miterlimit="10" x1="61.302" y1="485.258" x2="96.828" y2="619.138"/>
</g>
</svg>
