<?xml version="1.0" encoding="utf-8"?>
<!-- Generator: Adobe Illustrator 16.0.4, SVG Export Plug-In . SVG Version: 6.00 Build 0)  -->
<!DOCTYPE svg PUBLIC "-//W3C//DTD SVG 1.1//EN" "http://www.w3.org/Graphics/SVG/1.1/DTD/svg11.dtd">
<svg version="1.1" id="Layer_1" xmlns="http://www.w3.org/2000/svg" xmlns:xlink="http://www.w3.org/1999/xlink" x="0px" y="0px"
	 width="960px" height="391.5px" viewBox="0 0 960 391.5" enable-background="new 0 0 960 391.5" xml:space="preserve">
<g>
	<path fill="#C4C4C4" d="M633.959,317.378c0,0-1.796,0.571-5.143,1.551c-3.348,0.98-8.326,2.204-14.694,3.756
		c-6.285,1.552-14.122,3.185-23.021,4.734c-8.979,1.551-19.102,3.103-30.202,4.163c-11.104,0.979-23.267,1.633-36.082,1.062
		c-6.449-0.245-12.979-0.898-19.675-1.959c-6.692-1.062-13.469-2.612-20.163-4.898c-6.693-2.286-13.306-5.225-19.347-9.306
		c-6.123-4-11.674-9.062-16.164-15.104s-7.755-12.896-9.877-20.245c-0.571-1.796-0.979-3.673-1.388-5.469
		c-0.164-0.979-0.408-1.878-0.49-2.776l-0.408-2.774c-0.245-1.877-0.652-3.592-1.062-5.389c-0.408-1.796-0.898-3.51-1.389-5.225
		c-2.204-6.938-5.469-13.551-9.632-19.428c-4.245-5.878-9.47-10.939-15.266-15.021c-5.796-4.164-12.245-7.348-18.857-9.633
		c-6.611-2.367-13.469-3.755-20.245-4.408c-6.774-0.652-13.551-0.57-20,0.408c-6.529,0.897-12.652,2.693-18.203,5.388
		c-1.307,0.653-2.775,1.389-4,2.204l-0.979,0.653l-0.979,0.652c-0.653,0.407-1.307,0.815-2.041,1.225
		c-2.775,1.633-5.552,3.104-8.408,4.327c-2.857,1.225-5.796,2.204-8.816,2.774c-2.939,0.571-6.041,0.816-8.98,0.408
		c-2.938-0.327-5.796-1.307-8.326-2.774c-2.449-1.389-4.572-3.267-6.286-5.226c-3.51-4-5.714-8.57-7.429-12.815
		c-3.266-8.653-4.653-16.49-5.633-23.021c-0.898-6.53-1.306-11.592-1.714-15.021c-0.163-1.714-0.408-3.103-0.571-3.918
		c-0.163-0.898-0.327-1.308-0.327-1.308l0.327-0.163c0,0,0.245,0.408,0.408,1.307c0.245,0.897,0.49,2.204,0.816,3.919
		c0.571,3.51,1.224,8.489,2.367,14.855c0.653,3.186,1.306,6.694,2.367,10.449c0.98,3.756,2.204,7.756,4,11.837
		c1.714,4.082,4,8.326,7.347,11.837c1.714,1.796,3.592,3.348,5.796,4.571c2.204,1.143,4.653,1.959,7.184,2.204
		c2.612,0.245,5.225,0.082,7.918-0.571c2.693-0.571,5.388-1.551,8.081-2.775c2.694-1.144,5.226-2.611,7.919-4.162
		c0.652-0.408,1.306-0.816,1.877-1.226l0.979-0.653l0.98-0.652c1.388-0.897,2.774-1.714,4.325-2.449
		c2.939-1.551,6.123-2.775,9.389-3.673c3.266-0.979,6.611-1.715,10.041-2.204c6.856-0.979,13.877-1.143,20.979-0.49
		c7.103,0.735,14.204,2.286,21.144,4.735c6.938,2.448,13.633,5.959,19.673,10.285c6.123,4.408,11.51,9.878,15.918,16.082
		c4.327,6.204,7.755,13.225,9.877,20.489c0.571,1.878,0.979,3.674,1.469,5.47c0.408,1.878,0.816,3.755,0.98,5.633l0.408,2.775
		c0.081,0.896,0.326,1.796,0.489,2.693c0.408,1.796,0.816,3.592,1.307,5.307c1.877,7.021,5.061,13.633,9.224,19.429
		c4.164,5.796,9.47,10.775,15.347,14.693c5.796,4,12.245,6.938,18.775,9.225c6.531,2.286,13.144,3.837,19.674,4.979
		c6.531,1.145,13.062,1.797,19.429,2.204c12.734,0.735,24.816,0.327,35.919-0.57s21.225-2.204,30.203-3.756
		c8.98-1.47,16.653-3.021,23.104-4.407c6.367-1.389,11.347-2.612,14.692-3.511c3.349-0.897,5.145-1.389,5.145-1.389L633.959,317.378
		z"/>
</g>
<polygon fill="#FF99A1" points="242.531,73.704 210.367,131.174 278.857,210.685 300.408,105.46 "/>
<g>
	
		<line fill="none" stroke="#FFFFFF" stroke-width="5" stroke-miterlimit="10" x1="210.775" y1="131.337" x2="300.898" y2="105.623"/>
	<line fill="none" stroke="#FFFFFF" stroke-width="5" stroke-miterlimit="10" x1="242.939" y1="73.868" x2="279.265" y2="210.766"/>
</g>
</svg>
