<?xml version="1.0" encoding="utf-8"?>
<!-- Generator: Adobe Illustrator 16.0.4, SVG Export Plug-In . SVG Version: 6.00 Build 0)  -->
<!DOCTYPE svg PUBLIC "-//W3C//DTD SVG 1.1//EN" "http://www.w3.org/Graphics/SVG/1.1/DTD/svg11.dtd">
<svg version="1.1" id="Layer_1" xmlns="http://www.w3.org/2000/svg" xmlns:xlink="http://www.w3.org/1999/xlink" x="0px" y="0px"
	 width="960px" height="391.5px" viewBox="0 400.5 960 391.5" enable-background="new 0 400.5 960 391.5" xml:space="preserve">
<path opacity="0.43" fill="#FFFFFF" enable-background="new    " d="M414.694,486.355c-8.408,3.511-21.877,7.184-32.163,0.245
	c-24.327,17.878-43.184,0-43.184,0s-24,10.122-35.918,0c0,0-14.204-28.816,18.938-24c-7.428-8.489-0.816-22.041,15.021-16.327
	c9.714-13.633,40-9.387,57.388,0.246c13.306-0.735,10.531,11.836,10.531,11.836s11.102-1.388,9.306,9.388
	C426.123,477.049,414.694,486.355,414.694,486.355z"/>
<polygon fill="#7ACCBE" points="960,794.764 0,794.764 0,754.764 960,726.438 "/>
<polygon fill="#3DA8A4" points="960,797.294 0,797.294 0,757.294 960,728.968 "/>
<path opacity="0.52" fill="#FFFFFF" enable-background="new    " d="M740.816,563.743c-8.245,3.429-18.449-1.143-28.49-7.918
	c-8.081,5.959-22.693,7.102-26.856-4c-12,10.612-31.103,6.53-21.144-8.327c0,0-16.408-0.816-6.693-18.122
	c-1.959-3.102-5.062-14.612,10.612-9.062c9.551-13.388,28.979,3.348,28.979,3.348s27.51-26.286,46.693,1.061
	c14.857,7.184,9.796,15.511,0.653,21.062C758.122,556.723,740.816,563.743,740.816,563.743z"/>
<g>
	<rect x="226.204" y="696.886" fill="#7ACCBE" width="107.673" height="14.286"/>
	<rect x="212.735" y="711.172" fill="#7ACCBE" width="133.959" height="3.021"/>
	<rect x="215.347" y="713.458" fill="#7ACCBE" width="129.714" height="7.102"/>
	<rect x="210.857" y="750.029" fill="#7ACCBE" width="136.49" height="7.102"/>
	<polygon fill="#7ACCBE" points="240.735,750.846 235.592,750.846 235.592,722.927 235.021,721.376 235.021,719.254 
		241.388,719.254 241.388,721.376 240.735,723.172 	"/>
	<polygon fill="#7ACCBE" points="251.837,751.254 246.612,751.254 246.612,723.254 246.123,721.784 246.123,719.58 252.49,719.58 
		252.49,721.702 251.837,723.498 	"/>
	<polygon fill="#7ACCBE" points="263.347,751.254 258.123,751.254 258.123,723.254 257.633,721.784 257.633,719.58 264,719.58 
		264,721.702 263.347,723.498 	"/>
	<polygon fill="#7ACCBE" points="274.857,751.254 269.633,751.254 269.633,723.254 269.143,721.784 269.143,719.58 275.51,719.58 
		275.51,721.702 274.857,723.498 	"/>
	<polygon fill="#7ACCBE" points="286.531,751.254 281.388,751.254 281.388,723.254 280.816,721.784 280.816,719.58 287.184,719.58 
		287.184,721.702 286.531,723.498 	"/>
	<polygon fill="#7ACCBE" points="297.959,751.254 292.816,751.254 292.816,723.254 292.245,721.784 292.245,719.58 298.612,719.58 
		298.612,721.702 297.959,723.498 	"/>
	<polygon fill="#7ACCBE" points="309.306,751.254 304.163,751.254 304.163,723.254 303.673,721.784 303.673,719.58 310.041,719.58 
		310.041,721.702 309.306,723.498 	"/>
	<polygon fill="#7ACCBE" points="320.327,751.254 315.184,751.254 315.184,723.254 314.612,721.784 314.612,719.58 320.979,719.58 
		320.979,721.702 320.327,723.498 	"/>
	<polygon fill="#7ACCBE" points="331.592,751.254 326.367,751.254 326.367,723.254 325.877,721.784 325.877,719.58 332.245,719.58 
		332.245,721.702 331.592,723.498 	"/>
	<polygon fill="#7ACCBE" points="229.714,750.846 224.49,750.846 224.49,722.927 224,721.376 224,719.254 230.367,719.254 
		230.367,721.376 229.714,723.172 	"/>
	<rect x="215.347" y="719.254" fill="#7ACCBE" width="5.225" height="31.592"/>
	<rect x="337.714" y="719.254" fill="#7ACCBE" width="7.347" height="31.592"/>
</g>
<g>
	<rect x="224.327" y="697.376" fill="#3DA8A4" width="107.673" height="14.286"/>
	<rect x="210.857" y="711.662" fill="#3DA8A4" width="133.959" height="3.02"/>
	<rect x="213.469" y="713.947" fill="#3DA8A4" width="129.714" height="7.103"/>
	<rect x="208.979" y="750.438" fill="#3DA8A4" width="136.49" height="7.102"/>
	<polygon fill="#3DA8A4" points="238.857,751.335 233.714,751.335 233.714,723.417 233.143,721.866 233.143,719.743 239.51,719.743 
		239.51,721.866 238.857,723.662 	"/>
	<polygon fill="#3DA8A4" points="249.959,751.662 244.735,751.662 244.735,723.743 244.327,722.274 244.327,720.07 250.612,720.07 
		250.612,722.192 249.959,723.988 	"/>
	<polygon fill="#3DA8A4" points="261.469,751.662 256.245,751.662 256.245,723.743 255.755,722.274 255.755,720.07 262.041,720.07 
		262.041,722.192 261.469,723.988 	"/>
	<polygon fill="#3DA8A4" points="272.979,751.662 267.755,751.662 267.755,723.743 267.347,722.274 267.347,720.07 273.633,720.07 
		273.633,722.192 272.979,723.988 	"/>
	<polygon fill="#3DA8A4" points="284.653,751.662 279.51,751.662 279.51,723.743 278.939,722.274 278.939,720.07 285.306,720.07 
		285.306,722.192 284.653,723.988 	"/>
	<polygon fill="#3DA8A4" points="296.082,751.662 290.939,751.662 290.939,723.743 290.367,722.274 290.367,720.07 296.735,720.07 
		296.735,722.192 296.082,723.988 	"/>
	<polygon fill="#3DA8A4" points="307.51,751.662 302.286,751.662 302.286,723.743 301.796,722.274 301.796,720.07 308.082,720.07 
		308.082,722.192 307.51,723.988 	"/>
	<polygon fill="#3DA8A4" points="318.449,751.662 313.225,751.662 313.225,723.743 312.735,722.274 312.735,720.07 319.102,720.07 
		319.102,722.192 318.449,723.988 	"/>
	<polygon fill="#3DA8A4" points="329.714,751.662 324.571,751.662 324.571,723.743 324,722.274 324,720.07 330.367,720.07 
		330.367,722.192 329.714,723.988 	"/>
	<polygon fill="#3DA8A4" points="227.837,751.335 222.612,751.335 222.612,723.417 222.123,721.866 222.123,719.743 228.49,719.743 
		228.49,721.866 227.837,723.662 	"/>
	<rect x="213.469" y="719.743" fill="#3DA8A4" width="5.225" height="31.592"/>
	<rect x="335.837" y="719.743" fill="#3DA8A4" width="7.347" height="31.592"/>
</g>
<g>
	<polygon fill="#7ACCBE" points="650.204,746.682 625.714,746.682 628.898,564.56 644.408,564.56 	"/>
	<polygon fill="#7ACCBE" points="636.571,541.458 628.898,564.56 644.326,564.56 	"/>
</g>
<g>
	<polygon fill="#3DA8A4" points="647.592,747.172 623.021,747.172 626.286,565.05 641.796,565.05 	"/>
	<polygon fill="#3DA8A4" points="633.959,542.029 626.286,565.05 641.714,565.05 	"/>
</g>
<g>
	<polygon fill="#7ACCBE" points="764.734,735.417 688.734,735.417 688.734,711.743 690.041,711.743 693.47,710.192 693.47,707.58 
		698.122,707.58 698.122,710.11 701.796,711.743 748.408,711.743 751.918,709.947 751.918,707.417 756.653,707.417 756.653,709.784 
		760.326,711.743 764.734,711.743 	"/>
	<polygon fill="#7ACCBE" points="738.857,717.784 710.53,717.784 709.47,711.743 709.47,709.131 710.53,707.417 710.041,706.764 
		710.53,706.11 710.53,697.458 738.857,697.458 738.857,706.029 739.755,706.846 738.857,707.417 740.408,709.05 740.408,712.07 	
		"/>
	<rect x="709.47" y="698.682" fill="#7ACCBE" width="30.367" height="0.653"/>
	<path fill="#7ACCBE" d="M737.633,699.254h-25.551c0,0,1.551-6.368,0-7.429h24.897C735.837,694.438,737.633,699.254,737.633,699.254
		z"/>
	<path fill="#7ACCBE" d="M721.878,671.254h5.796c0,0-1.389,3.592,0,5.469c0,0-0.49,0.327-0.408,0.735l1.388,0.816l0.408,1.877
		c0,0,5.959,3.919,5.796,9.633c0,1.714,1.061,1.551,1.061,1.551l1.062,1.551h-24.897l0.815-1.143
		c0.735-0.326,1.388-1.306,1.388-1.306s-0.407-7.756,5.96-9.633c0.897-0.245,0.816-1.878,0.816-1.878l1.061-1.143l-0.408-0.979
		C721.633,676.479,723.429,675.335,721.878,671.254z"/>
	<path fill="#7ACCBE" d="M724.979,662.764c0,0,0.734,1.878,0.408,4s0.816,3.674,0.816,3.674l0.571,0.816h-4.489l0.652-0.898
		l0.898-1.306l0.081-1.715C723.918,667.417,723.51,662.764,724.979,662.764z"/>
</g>
<g>
	<polygon fill="#3DA8A4" points="763.021,737.05 687.021,737.05 687.021,713.294 688.408,713.294 691.755,711.825 691.755,709.213 
		696.49,709.213 696.49,711.743 700.163,713.294 746.693,713.294 750.204,711.498 750.204,708.968 754.938,708.968 754.938,711.417 
		758.693,713.294 763.021,713.294 	"/>
	<polygon fill="#3DA8A4" points="737.143,719.417 708.816,719.417 707.755,713.294 707.755,710.764 708.816,708.968 
		708.326,708.314 708.816,707.743 708.816,699.09 737.143,699.09 737.143,707.662 738.122,708.396 737.143,708.968 738.693,710.601 
		738.693,713.702 	"/>
	<rect x="707.755" y="700.233" fill="#3DA8A4" width="30.367" height="0.652"/>
	<path fill="#3DA8A4" d="M735.918,700.886h-25.551c0,0,1.551-6.367,0-7.428h24.898C734.204,696.07,735.918,700.886,735.918,700.886z
		"/>
	<path fill="#3DA8A4" d="M720.163,672.886h5.796c0,0-1.388,3.593,0,5.47c0,0-0.489,0.326-0.408,0.734l1.388,0.816l0.408,1.878
		c0,0,5.959,3.918,5.796,9.633c0,1.714,1.062,1.551,1.062,1.551l1.062,1.551h-24.898l0.816-1.143
		c0.734-0.326,1.388-1.306,1.388-1.306s-0.408-7.756,5.959-9.633c0.898-0.245,0.816-1.878,0.816-1.878l1.062-1.143L720,678.438
		C719.918,678.11,721.796,676.968,720.163,672.886z"/>
	<path fill="#3DA8A4" d="M723.266,664.396c0,0,0.734,1.878,0.408,4c-0.327,2.204,0.816,3.674,0.816,3.674l0.571,0.815h-4.49
		l0.653-0.897l0.897-1.307l0.082-1.714C722.286,668.968,721.796,664.396,723.266,664.396z"/>
</g>
<g>
	<g>
		<path fill="#F0BCC8" d="M681.143,683.662c-0.081,0.081-0.326,0.163-0.489,0.163c-0.408,0-0.735-0.163-0.735-0.408
			s0.245-0.408,0.653-0.49c0.408-0.081,0.735,0.163,0.735,0.408c0,0.082,0,0.082-0.082,0.082c1.143-0.245,3.674,0.816,4.653,1.143
			v-0.081c-0.408-1.225-0.408-1.878-0.49-1.96c-2.857-3.429-16.163-5.551-14.693,2.939c1.306,7.755,10.856,3.592,13.469,2.204
			c0.082-0.082,0.245-1.144,1.552-2.041l0.163-0.979L681.143,683.662z"/>
		<path fill="#F0BCC8" d="M687.918,668.805c0,0-4.489-0.245-6.122,1.877c-3.592,5.878,1.551,9.96,3.674,11.266
			c0.163,0.082,1.061,0.816,2.285,0.082l1.062,0.979c0.245-0.816,1.714-1.47,1.796-1.551
			C695.918,672.233,687.918,668.805,687.918,668.805z M687.592,677.213c-0.082-0.082-0.245-0.245-0.326-0.408
			c-0.164-0.326-0.082-0.734,0.081-0.816c0.245-0.082,0.49,0.082,0.653,0.408s0.082,0.734-0.082,0.816c-0.081,0-0.081,0-0.163,0
			c0.816,1.225,0.49,5.062,0.49,5.062L687.592,677.213z"/>
		<path fill="#F0BCC8" d="M689.225,689.05c-0.082-0.082-0.816-0.571-0.898-1.144l-1.306-0.408l-1.714,3.837
			c0.081,0.163,0.081,0.327,0.081,0.571c-0.081,0.408-0.245,0.653-0.489,0.653c-0.245-0.081-0.408-0.408-0.327-0.816
			c0.082-0.408,0.245-0.653,0.49-0.653c0.081,0,0.081,0,0.081,0.082c0-0.979,0.979-2.693,1.715-3.674l-0.49-0.163
			c-0.571,0.408-1.388,0.245-1.551,0.327c-5.225,2.612-6.123,9.061-6.123,9.061s0.082,8.327,8.98,4.571
			C691.674,697.947,689.796,691.009,689.225,689.05z"/>
		<path fill="#F0BCC8" d="M705.47,680.805c0,0-0.49-5.225-3.511-5.878c-7.184-2.856-10.857,5.633-11.592,7.592
			c0,0.082,0.245,0.653-0.163,1.144l0.489,1.469c0.245-0.081,1.552,0.735,1.715,0.735
			C705.878,687.498,705.47,680.805,705.47,680.805z M695.021,679.172c-0.082,0.408-0.408,0.653-0.653,0.49
			c-0.081,0-0.081-0.082-0.081-0.082c-0.245,1.388-3.266,4-3.266,4l3.184-4.163c-0.082-0.163-0.082-0.327,0.082-0.571
			c0.081-0.408,0.408-0.653,0.652-0.49C695.021,678.438,695.102,678.764,695.021,679.172z"/>
		<path fill="#F0BCC8" d="M692.653,686.029c-0.163-0.082-0.816,0.408-1.552-0.082l-1.551,1.551c0.327-0.163,0.245,1.144-0.245,1.633
			c4.082,12.49,10.041,10.286,10.041,10.286s2.938-0.816,3.837-3.103C705.388,689.458,695.021,686.601,692.653,686.029z
			 M694.857,691.743c-0.164,0.163-0.49,0.163-0.816-0.081c-0.327-0.245-0.408-0.572-0.327-0.816
			c0.082-0.082,0.082-0.082,0.082-0.082c-1.306-0.653-2.938-4.163-2.938-4.163l3.102,4.163c0.163,0,0.327,0.082,0.49,0.163
			C694.938,691.254,695.021,691.58,694.857,691.743z"/>
		<path fill="#F0BCC8" d="M688.816,681.702c-1.959-0.163-3.674,1.144-3.837,2.939s1.306,3.347,3.266,3.51
			c1.959,0.163,3.673-1.143,3.837-2.938C692.245,683.417,690.775,681.784,688.816,681.702z M686.612,686.274
			c0,0.163-0.163,0.244-0.327,0.244c-0.163,0-0.244-0.163-0.244-0.326s0.163-0.245,0.326-0.245c0.082,0,0.082,0.082,0.163,0.082
			c0.082-0.327,0.898-0.979,0.898-0.979l-0.816,1.061C686.612,686.192,686.612,686.274,686.612,686.274z M687.347,682.519
			c-0.163-0.081-0.245-0.081-0.408-0.163s-0.163-0.245,0.082-0.245s0.489,0.082,0.734,0.245c0.163,0.082,0.163,0.245-0.081,0.245
			c-0.082,0-0.082,0-0.164,0c0.816,0.408,0.816,1.796,0.816,1.796L687.347,682.519z M689.878,687.09
			c-0.082,0.082-0.245,0.082-0.408,0c-0.082-0.081-0.082-0.244,0-0.408l0.081-0.081c-0.653-0.245-0.979-1.715-0.979-1.715
			l0.979,1.715c0.082-0.082,0.245,0,0.245,0.081C690.041,686.764,690.041,687.009,689.878,687.09z M691.347,685.539
			c-0.081,0-0.245-0.081-0.326-0.245v-0.081c-0.408,0.081-2.041-0.979-2.041-0.979l2.041,0.897c0-0.081,0.081-0.081,0.081-0.081
			c0.082,0,0.245,0.081,0.327,0.244C691.51,685.458,691.51,685.539,691.347,685.539z"/>
	</g>
	<g>
		<path fill="#F0BCC8" d="M708.571,623.498c-0.081,0.082-0.163,0.082-0.326,0.082c-0.245,0-0.408-0.082-0.408-0.245
			s0.163-0.245,0.408-0.245s0.408,0.082,0.408,0.245c0,0.082,0,0.082,0,0.082c0.652-0.163,2.204,0.408,2.775,0.734v-0.081
			c-0.245-0.735-0.245-1.144-0.245-1.144c-1.714-2.04-9.551-3.265-8.653,1.715c0.816,4.571,6.368,2.122,7.919,1.306
			c0.081-0.081,0.081-0.653,0.897-1.225l0.082-0.571L708.571,623.498z"/>
		<path fill="#F0BCC8" d="M712.49,614.764c0,0-2.612-0.082-3.593,1.143c-2.122,3.511,0.98,5.878,2.123,6.612
			c0.081,0.082,0.653,0.49,1.306,0.082l0.653,0.571c0.163-0.49,0.979-0.897,1.062-0.897
			C717.225,616.723,712.49,614.764,712.49,614.764z M712.326,619.662c-0.081-0.082-0.163-0.082-0.244-0.245
			c-0.082-0.245-0.082-0.408,0.081-0.49c0.082-0.081,0.327,0.082,0.408,0.245c0.082,0.245,0.082,0.408-0.081,0.49h-0.082
			c0.408,0.734,0.245,3.02,0.245,3.02L712.326,619.662z"/>
		<path fill="#F0BCC8" d="M713.306,626.682c0-0.081-0.489-0.326-0.571-0.652l-0.816-0.245l-0.979,2.204
			c0.082,0.082,0.082,0.245,0.082,0.326c-0.082,0.245-0.163,0.408-0.327,0.408c-0.163,0-0.244-0.244-0.244-0.408
			c0-0.163,0.163-0.408,0.326-0.408c0.082,0,0.082,0,0.082,0.082c0-0.571,0.571-1.551,0.979-2.204l-0.327-0.082
			c-0.326,0.245-0.816,0.164-0.897,0.164c-3.103,1.551-3.592,5.306-3.592,5.306s0.081,4.898,5.225,2.694
			C714.693,631.906,713.551,627.825,713.306,626.682z"/>
		<path fill="#F0BCC8" d="M722.857,621.784c0,0-0.245-3.103-2.041-3.51c-4.245-1.715-6.367,3.347-6.857,4.407
			c0,0.082,0.082,0.408-0.081,0.653c0,0,0.244,0.816,0.326,0.816c0.163-0.081,0.897,0.408,0.979,0.408
			C723.021,625.702,722.857,621.784,722.857,621.784z M716.653,620.805c-0.082,0.245-0.245,0.326-0.408,0.245
			c0,0-0.082,0-0.082-0.082c-0.163,0.816-1.877,2.367-1.877,2.367l1.877-2.449c0-0.081,0-0.244,0.082-0.326
			c0.081-0.245,0.245-0.326,0.408-0.245C716.734,620.396,716.734,620.642,716.653,620.805z"/>
		<path fill="#F0BCC8" d="M715.266,624.886c-0.082,0-0.49,0.245-0.898-0.081l-0.897,0.897c0.163-0.081,0.163,0.653-0.163,0.979
			c2.367,7.348,5.959,6.041,5.959,6.041s1.714-0.489,2.285-1.796C722.775,626.927,716.734,625.213,715.266,624.886z
			 M716.571,628.233c-0.081,0.081-0.245,0.081-0.489-0.082c-0.164-0.081-0.245-0.326-0.164-0.408l0.082-0.081
			c-0.734-0.408-1.714-2.449-1.714-2.449l1.877,2.449c0.082,0,0.245,0.081,0.327,0.081
			C716.571,627.906,716.734,628.151,716.571,628.233z"/>
		<path fill="#F0BCC8" d="M713.062,622.274c-1.144-0.082-2.123,0.652-2.204,1.714c-0.082,1.062,0.816,1.959,1.877,2.041
			c1.144,0.081,2.123-0.653,2.204-1.715C715.021,623.335,714.204,622.438,713.062,622.274z M711.755,624.968
			c0,0.082-0.081,0.163-0.245,0.163c-0.081,0-0.163-0.081-0.163-0.163s0.082-0.163,0.245-0.163c0.082,0,0.082,0,0.082,0.081
			c0.081-0.244,0.571-0.571,0.571-0.571L711.755,624.968L711.755,624.968z M712.163,622.764c-0.081,0-0.163-0.082-0.245-0.082
			c-0.081-0.081-0.081-0.163,0.082-0.163c0.082,0,0.326,0.082,0.408,0.082c0.082,0.081,0.082,0.163-0.082,0.163h-0.081
			c0.489,0.245,0.408,1.062,0.408,1.062L712.163,622.764z M713.714,625.458c-0.081,0.081-0.163,0.081-0.244,0
			c-0.082-0.082-0.082-0.164,0-0.245c0,0,0,0,0.081-0.082c-0.408-0.081-0.571-0.979-0.571-0.979l0.653,0.979
			c0.081,0,0.081,0,0.163,0.082C713.714,625.294,713.714,625.458,713.714,625.458z M714.53,624.56c-0.081,0-0.163-0.081-0.244-0.163
			v-0.082c-0.245,0.082-1.144-0.571-1.144-0.571l1.144,0.49c0-0.082,0.081-0.082,0.081-0.082c0.082,0,0.163,0.082,0.245,0.163
			C714.612,624.56,714.612,624.56,714.53,624.56z"/>
	</g>
	<g>
		<path fill="#F0BCC8" d="M757.225,596.642c-0.082,0-0.082,0.081-0.082,0.081c-0.081,0-0.163-0.081-0.163-0.081
			c0-0.082,0.082-0.082,0.163-0.082C757.225,596.479,757.306,596.56,757.225,596.642
			C757.306,596.642,757.225,596.642,757.225,596.642c0.326-0.082,0.979,0.163,1.143,0.244l0,0c-0.081-0.244-0.081-0.407-0.081-0.489
			c-0.735-0.816-4-1.307-3.674,0.734c0.326,1.878,2.693,0.898,3.266,0.571c0.081,0,0.081-0.244,0.408-0.489l0.081-0.245
			L757.225,596.642z"/>
		<path fill="#F0BCC8" d="M758.857,593.05c0,0-1.144-0.082-1.552,0.408c-0.897,1.469,0.408,2.448,0.898,2.775
			c0.081,0,0.245,0.245,0.571,0l0.245,0.245c0.081-0.245,0.408-0.408,0.408-0.408C760.897,593.866,758.857,593.05,758.857,593.05z
			 M758.857,595.09c-0.082,0-0.082-0.081-0.082-0.081c-0.082-0.082,0-0.163,0-0.245c0.082,0,0.082,0,0.163,0.082
			C759.021,594.927,758.857,595.009,758.857,595.09L758.857,595.09c0.244,0.327,0.163,1.307,0.163,1.307L758.857,595.09z"/>
		<path fill="#F0BCC8" d="M759.184,598.029c0,0-0.245-0.082-0.245-0.245l-0.326-0.082l-0.408,0.979c0,0.082,0,0.082,0,0.082
			c0,0.082-0.082,0.163-0.082,0.163c-0.081,0-0.081-0.081-0.081-0.163s0.081-0.163,0.081-0.163s0,0,0.082,0
			c0-0.245,0.245-0.653,0.408-0.898l-0.082-0.081c-0.081,0.081-0.326,0.081-0.408,0.081c-1.306,0.653-1.551,2.204-1.551,2.204
			s0,2.041,2.204,1.144C759.837,600.151,759.347,598.519,759.184,598.029z"/>
		<path fill="#F0BCC8" d="M763.266,595.988c0,0-0.082-1.307-0.816-1.47c-1.796-0.734-2.694,1.388-2.857,1.878
			c0,0,0.082,0.163-0.082,0.245l0.082,0.326c0.082-0.082,0.408,0.163,0.408,0.163C763.347,597.621,763.266,595.988,763.266,595.988z
			 M760.653,595.58c-0.082,0.082-0.082,0.163-0.163,0.082c0,0,0,0-0.082,0c-0.082,0.326-0.816,0.979-0.816,0.979l0.816-0.979
			c0-0.082,0-0.082,0-0.082c0.082-0.082,0.082-0.163,0.163-0.082C760.653,595.335,760.653,595.498,760.653,595.58z"/>
		<path fill="#F0BCC8" d="M760.082,597.294c-0.082,0-0.245,0.082-0.408,0l-0.408,0.408c0.081-0.081,0.081,0.245-0.082,0.408
			c0.979,3.103,2.53,2.531,2.53,2.531s0.735-0.245,0.979-0.816C763.184,598.11,760.653,597.458,760.082,597.294z M760.653,598.682
			c-0.082,0.082-0.082,0.082-0.245,0c-0.082-0.081-0.082-0.163-0.082-0.163s0,0,0.082,0c-0.326-0.163-0.734-1.061-0.734-1.061
			l0.816,0.979c0.081,0,0.081,0,0.081,0.081C760.653,598.601,760.653,598.601,760.653,598.682z"/>
		<path fill="#F0BCC8" d="M759.184,596.233c-0.49-0.082-0.897,0.245-0.979,0.734c-0.082,0.49,0.326,0.816,0.816,0.816
			c0.408,0,0.897-0.245,0.979-0.734C760,596.642,759.592,596.233,759.184,596.233z M758.612,597.294
			C758.612,597.376,758.53,597.376,758.612,597.294c-0.082,0.082-0.082,0-0.082,0C758.449,597.294,758.53,597.294,758.612,597.294
			L758.612,597.294c0.081-0.163,0.245-0.244,0.245-0.244L758.612,597.294L758.612,597.294z M758.775,596.396
			c-0.082,0-0.082,0-0.082-0.082c-0.081-0.081-0.081-0.081,0-0.081C758.693,596.233,758.775,596.233,758.775,596.396
			C758.857,596.396,758.857,596.396,758.775,596.396C758.857,596.396,758.857,596.396,758.775,596.396
			c0.245,0.082,0.245,0.408,0.245,0.408L758.775,596.396z M759.347,597.539c0,0.082-0.081,0.082-0.081,0v-0.081l0,0
			c-0.164-0.082-0.245-0.408-0.245-0.408l0.245,0.408h0.081C759.429,597.458,759.429,597.539,759.347,597.539z M759.755,597.131
			c-0.081,0-0.081-0.081-0.081-0.081l0,0c-0.082,0.081-0.49-0.245-0.49-0.245l0.49,0.245
			C759.674,597.131,759.674,597.131,759.755,597.131L759.755,597.131C759.837,597.131,759.755,597.131,759.755,597.131z"/>
	</g>
	<g>
		<path fill="#F3DADC" d="M745.796,632.233c-0.082,0.081-0.082,0.081-0.245,0.081s-0.326-0.081-0.326-0.163
			c0-0.081,0.081-0.245,0.245-0.245c0.163,0,0.326,0.082,0.326,0.164v0.081c0.489-0.081,1.633,0.327,2.041,0.49v-0.082
			c-0.245-0.571-0.163-0.816-0.245-0.816c-1.225-1.551-7.102-2.449-6.449,1.307c0.653,3.347,4.735,1.551,5.959,0.979
			c0.082-0.082,0.082-0.49,0.653-0.898l0.082-0.408L745.796,632.233z"/>
		<path fill="#F3DADC" d="M748.653,625.702c0,0-1.96-0.081-2.694,0.816c-1.551,2.612,0.653,4.327,1.551,4.898
			c0.082,0.081,0.408,0.408,0.98,0l0.408,0.408c0.081-0.408,0.815-0.653,0.815-0.653
			C752.245,627.254,748.653,625.702,748.653,625.702z M748.571,629.458c-0.081-0.082-0.081-0.082-0.163-0.164
			c-0.082-0.163-0.082-0.326,0.082-0.326c0.081-0.082,0.244,0.082,0.244,0.245c0.082,0.163,0.082,0.326-0.081,0.326L748.571,629.458
			c0.408,0.571,0.245,2.285,0.245,2.285L748.571,629.458z"/>
		<path fill="#F3DADC" d="M749.306,634.682c0-0.081-0.407-0.244-0.407-0.489l-0.572-0.163l-0.734,1.714
			c0.082,0.082,0.082,0.163,0.082,0.245c0,0.163-0.082,0.245-0.245,0.245c-0.082,0-0.163-0.163-0.163-0.327
			c0-0.163,0.081-0.244,0.244-0.244h0.082c0-0.408,0.408-1.144,0.734-1.633l-0.244-0.082c-0.245,0.163-0.653,0.082-0.653,0.163
			c-2.286,1.144-2.694,4-2.694,4s0,3.674,3.919,2.041C750.285,638.519,749.551,635.417,749.306,634.682z"/>
		<path fill="#F3DADC" d="M756.408,631.009c0,0-0.245-2.286-1.551-2.612c-3.184-1.225-4.735,2.449-5.062,3.266
			c0,0.081,0.081,0.244-0.082,0.489l0.245,0.653c0.082-0.082,0.653,0.326,0.734,0.326
			C756.571,633.947,756.408,631.009,756.408,631.009z M751.837,630.274c-0.082,0.163-0.163,0.244-0.245,0.244
			c0,0-0.082,0-0.082-0.081c-0.081,0.652-1.469,1.714-1.469,1.714l1.388-1.796c0-0.082,0-0.163,0-0.245
			c0.081-0.163,0.163-0.244,0.245-0.244C751.837,629.947,751.918,630.11,751.837,630.274z"/>
		<path fill="#F3DADC" d="M750.775,633.294c-0.081,0-0.408,0.164-0.653,0l-0.734,0.735c0.163-0.082,0.082,0.489-0.082,0.734
			c1.796,5.47,4.408,4.571,4.408,4.571s1.307-0.326,1.715-1.306C756.326,634.764,751.837,633.539,750.775,633.294z M751.755,635.825
			c-0.081,0.081-0.245,0.081-0.408-0.082c-0.163-0.081-0.245-0.245-0.081-0.326l0.081-0.082c-0.571-0.245-1.306-1.877-1.306-1.877
			l1.388,1.877c0.081,0,0.163,0.082,0.245,0.082C751.755,635.58,751.837,635.743,751.755,635.825z"/>
		<path fill="#F3DADC" d="M749.143,631.335c-0.816-0.081-1.551,0.49-1.714,1.307c-0.082,0.816,0.571,1.469,1.388,1.551
			s1.551-0.49,1.714-1.307C750.612,632.151,749.959,631.498,749.143,631.335z M748.163,633.376c0,0.082-0.081,0.082-0.163,0.082
			s-0.082-0.082-0.082-0.082s0.082-0.082,0.164-0.082C748,633.294,748.082,633.294,748.163,633.376c0-0.245,0.327-0.408,0.327-0.408
			L748.163,633.376L748.163,633.376z M748.49,631.743c-0.082,0-0.082-0.081-0.164-0.081c-0.081-0.082-0.081-0.082,0-0.082
			c0.082,0,0.245,0.082,0.327,0.082c0.081,0.081,0.081,0.081,0,0.081h-0.082c0.408,0.245,0.327,0.816,0.327,0.816L748.49,631.743z
			 M749.551,633.784c-0.081,0.082-0.081,0.082-0.163,0s-0.082-0.082,0-0.163c0,0,0,0,0.082,0c-0.245-0.082-0.408-0.816-0.408-0.816
			l0.408,0.816c0.081,0,0.081,0,0.081,0.081C749.633,633.702,749.633,633.702,749.551,633.784z M750.204,633.131
			c-0.082,0-0.082-0.081-0.163-0.081c0,0,0,0,0-0.082c-0.163,0.082-0.898-0.408-0.898-0.408l0.898,0.408l0.081-0.082
			c0.082,0,0.082,0.082,0.163,0.082C750.285,633.05,750.285,633.131,750.204,633.131z"/>
	</g>
	<g>
		<path fill="#F3DADC" d="M713.633,655.906c-0.082,0.082-0.082,0.082-0.163,0.082c-0.082,0-0.245-0.082-0.245-0.082
			c0-0.081,0.081-0.081,0.245-0.163c0.081,0,0.244,0.082,0.244,0.082C713.714,655.906,713.714,655.906,713.633,655.906
			c0.408-0.081,1.143,0.164,1.388,0.245v-0.081c-0.082-0.327-0.082-0.572-0.163-0.572c-0.816-0.979-4.735-1.632-4.327,0.816
			c0.408,2.204,3.184,1.062,4,0.653c0.082,0,0.082-0.326,0.408-0.653l0.082-0.244L713.633,655.906z"/>
		<path fill="#F3DADC" d="M715.592,651.662c0,0-1.306-0.082-1.796,0.571c-1.062,1.714,0.408,2.938,1.062,3.265
			c0.081,0.082,0.326,0.245,0.652,0l0.327,0.245c0.081-0.245,0.489-0.408,0.489-0.408
			C717.959,652.642,715.592,651.662,715.592,651.662z M715.51,654.11c-0.081,0-0.081-0.081-0.081-0.081
			c-0.082-0.082-0.082-0.245,0.081-0.245c0.082-0.082,0.164,0.082,0.245,0.082c0.082,0.081,0.082,0.244-0.081,0.244
			C715.592,654.11,715.592,654.11,715.51,654.11c0.245,0.408,0.245,1.552,0.245,1.552L715.51,654.11z"/>
		<path fill="#F3DADC" d="M716,657.539c0-0.081-0.245-0.163-0.245-0.326l-0.408-0.082l-0.489,1.144c0,0.081,0.081,0.081,0,0.163
			c0,0.081-0.082,0.244-0.164,0.163c-0.081,0-0.081-0.082-0.081-0.245s0.081-0.245,0.163-0.163c0,0,0,0,0.082,0
			c0-0.245,0.244-0.816,0.489-1.062l-0.163-0.081c-0.163,0.081-0.408,0.081-0.408,0.081c-1.551,0.816-1.796,2.694-1.796,2.694
			s0,2.449,2.612,1.306C716.734,660.151,716.163,658.11,716,657.539z"/>
		<path fill="#F3DADC" d="M720.734,655.172c0,0-0.163-1.551-0.979-1.714c-2.122-0.816-3.184,1.714-3.429,2.204
			c0,0,0.082,0.244-0.081,0.326l0.163,0.408c0.082-0.082,0.408,0.245,0.49,0.245C720.897,657.05,720.734,655.172,720.734,655.172z
			 M717.633,654.682c-0.082,0.082-0.082,0.164-0.163,0.164c0,0,0,0-0.082,0c-0.082,0.408-0.979,1.143-0.979,1.143l0.979-1.225
			c0-0.082,0-0.082,0-0.163c0.082-0.082,0.082-0.163,0.163-0.163C717.633,654.438,717.714,654.519,717.633,654.682z"/>
		<path fill="#F3DADC" d="M716.979,656.642c-0.081,0-0.245,0.081-0.408,0l-0.408,0.408c0.082-0.082,0.082,0.326-0.081,0.489
			c1.224,3.674,2.938,3.021,2.938,3.021s0.816-0.245,1.143-0.897C720.734,657.702,717.714,656.805,716.979,656.642z
			 M717.633,658.355c-0.082,0.082-0.163,0.082-0.245,0c-0.082-0.081-0.082-0.163-0.082-0.245c0,0,0,0,0.082,0
			c-0.408-0.163-0.897-1.225-0.897-1.225l0.979,1.225c0.081,0,0.081,0,0.163,0.082C717.633,658.192,717.633,658.274,717.633,658.355
			z"/>
		<path fill="#F3DADC" d="M715.918,655.417c-0.571-0.082-1.061,0.326-1.143,0.816c-0.082,0.489,0.408,0.979,0.979,0.979
			s1.062-0.326,1.144-0.816C716.898,655.906,716.408,655.417,715.918,655.417z M715.184,656.723c0,0.082-0.082,0.082-0.082,0.082
			c-0.081,0-0.081-0.082-0.081-0.082c0-0.081,0.081-0.081,0.081-0.081h0.082c0.082-0.082,0.245-0.245,0.245-0.245L715.184,656.723
			L715.184,656.723z M715.429,655.58c-0.082,0-0.082,0-0.082-0.082c-0.081-0.081-0.081-0.081,0-0.081c0.082,0,0.163,0,0.245,0.081
			c0.082,0.082,0.082,0.082,0,0.082S715.51,655.58,715.429,655.58c0.245,0.163,0.245,0.571,0.245,0.571L715.429,655.58z
			 M716.163,657.05c-0.081,0.081-0.081,0.081-0.081,0c-0.082-0.082-0.082-0.082,0-0.082l0,0c-0.164-0.082-0.245-0.489-0.245-0.489
			l0.245,0.489h0.081C716.245,656.886,716.245,656.968,716.163,657.05z M716.571,656.479c-0.081,0-0.081-0.082-0.081-0.082l0,0
			c-0.082,0.082-0.653-0.245-0.653-0.245l0.653,0.245C716.49,656.479,716.49,656.479,716.571,656.479L716.571,656.479
			C716.734,656.479,716.653,656.479,716.571,656.479z"/>
	</g>
	<g>
		<path fill="#F3DADC" d="M641.062,674.274c-0.082,0.081-0.082,0.081-0.245,0.081s-0.326-0.081-0.326-0.163s0.081-0.245,0.244-0.245
			s0.327,0.082,0.327,0.163v0.082c0.489-0.082,1.632,0.326,2.04,0.489v-0.081c-0.244-0.571-0.163-0.816-0.244-0.816
			c-1.225-1.551-7.103-2.449-6.449,1.306c0.653,3.348,4.734,1.552,5.959,0.98c0.082-0.082,0.082-0.49,0.653-0.898l0.081-0.408
			L641.062,674.274z"/>
		<path fill="#F3DADC" d="M644.082,667.825c0,0-1.96-0.082-2.694,0.816c-1.551,2.612,0.653,4.326,1.551,4.897
			c0.082,0.082,0.408,0.408,0.979,0l0.408,0.408c0.082-0.408,0.816-0.653,0.816-0.653
			C647.592,669.294,644.082,667.825,644.082,667.825z M643.918,671.498c-0.081-0.081-0.081-0.081-0.163-0.163
			c-0.081-0.163-0.081-0.326,0.082-0.326c0.081-0.082,0.245,0.081,0.245,0.245c0.081,0.163,0.081,0.326-0.082,0.326L643.918,671.498
			c0.408,0.572,0.245,2.286,0.245,2.286L643.918,671.498z"/>
		<path fill="#F3DADC" d="M644.653,676.723c0-0.081-0.408-0.244-0.408-0.489l-0.571-0.163l-0.735,1.714
			c0.082,0.082,0.082,0.163,0.082,0.245c0,0.163-0.082,0.244-0.245,0.244c-0.082,0-0.163-0.163-0.163-0.326s0.081-0.245,0.245-0.245
			h0.081c0-0.408,0.408-1.143,0.735-1.632l-0.245-0.082c-0.245,0.163-0.653,0.082-0.653,0.163c-2.285,1.143-2.693,4-2.693,4
			s0,3.674,3.918,2.041C645.714,680.56,644.898,677.539,644.653,676.723z"/>
		<path fill="#F3DADC" d="M651.755,673.05c0,0-0.245-2.286-1.551-2.612c-3.184-1.225-4.734,2.448-5.062,3.265
			c0,0.082,0.082,0.245-0.081,0.49l0.244,0.653c0.082-0.082,0.653,0.326,0.735,0.326C651.918,675.988,651.755,673.05,651.755,673.05
			z M647.184,672.314c-0.082,0.164-0.163,0.245-0.245,0.245c0,0-0.081,0-0.081-0.081c-0.082,0.652-1.47,1.714-1.47,1.714
			l1.388-1.796c0-0.082,0-0.163,0-0.245c0.082-0.163,0.163-0.245,0.245-0.245C647.184,671.988,647.266,672.151,647.184,672.314z"/>
		<path fill="#F3DADC" d="M646.122,675.335c-0.081,0-0.408,0.163-0.652,0l-0.653,0.653c0.163-0.082,0.082,0.49-0.082,0.734
			c1.796,5.47,4.408,4.571,4.408,4.571s1.307-0.326,1.715-1.306C651.755,676.886,647.184,675.662,646.122,675.335z M647.102,677.866
			c-0.081,0.081-0.244,0.081-0.408-0.082c-0.081-0.082-0.244-0.245-0.081-0.326l0.081-0.082c-0.571-0.245-1.306-1.878-1.306-1.878
			l1.388,1.878c0.082,0,0.163,0.082,0.245,0.082C647.102,677.621,647.184,677.784,647.102,677.866z"/>
		<path fill="#F3DADC" d="M644.408,673.458c-0.816-0.082-1.551,0.489-1.714,1.306c-0.082,0.816,0.571,1.47,1.388,1.551
			c0.816,0.082,1.551-0.489,1.714-1.306S645.306,673.539,644.408,673.458z M643.51,675.498c0,0.082-0.081,0.082-0.163,0.082
			c-0.081,0-0.081-0.082-0.081-0.082s0.081-0.081,0.163-0.081C643.347,675.335,643.429,675.335,643.51,675.498
			c0-0.244,0.327-0.408,0.327-0.408L643.51,675.498C643.51,675.417,643.51,675.417,643.51,675.498z M643.837,673.784
			c-0.082,0-0.082-0.082-0.163-0.082c-0.082-0.081-0.082-0.081,0-0.081c0.081,0,0.244,0.081,0.326,0.081
			c0.082,0.082,0.082,0.082,0,0.082h-0.082c0.408,0.245,0.327,0.816,0.327,0.816L643.837,673.784z M644.979,675.825
			c-0.081,0.081-0.081,0.081-0.163,0c-0.082-0.082-0.082-0.082,0-0.163c0,0,0,0,0.081,0c-0.244-0.082-0.407-0.816-0.407-0.816
			l0.407,0.816c0.082,0,0.082,0,0.082,0.081V675.825z M645.551,675.172c-0.081,0-0.081-0.082-0.163-0.082c0,0,0,0,0-0.081
			c-0.163,0.081-0.897-0.408-0.897-0.408l0.897,0.408l0.082-0.082c0.081,0,0.081,0.082,0.163,0.082
			C645.714,675.09,645.633,675.172,645.551,675.172z"/>
	</g>
	<g>
		<path fill="#F3DADC" d="M621.47,703.009c-0.082,0-0.164,0-0.245-0.082c-0.082-0.081-0.163-0.245-0.082-0.326
			c0.082-0.082,0.245-0.082,0.408,0c0.082,0.081,0.163,0.245,0.082,0.326l-0.082,0.082c0.408,0.245,0.979,1.306,1.144,1.714
			l0.081-0.081c0.245-0.653,0.408-0.816,0.408-0.898c0.082-2.041-3.674-6.612-5.959-3.021c-2.041,3.266,2.53,4.327,3.837,4.653
			c0.081,0,0.408-0.408,1.143-0.326l0.326-0.327L621.47,703.009z"/>
		<path fill="#F3DADC" d="M628.571,699.335c0,0-1.47-1.306-2.693-0.979c-3.103,1.143-2.694,4.163-2.368,5.225
			c0,0.082,0.082,0.653,0.816,0.653l0.082,0.652c0.408-0.244,1.062-0.081,1.143-0.081
			C630.204,702.927,628.571,699.335,628.571,699.335z M625.714,702.438c0-0.082,0-0.164,0-0.245
			c0.082-0.163,0.245-0.245,0.245-0.245c0.082,0,0.163,0.163,0.082,0.408c-0.082,0.245-0.245,0.245-0.245,0.245
			C625.714,702.519,625.714,702.519,625.714,702.438c-0.081,0.734-1.551,2.122-1.551,2.122L625.714,702.438z"/>
		<path fill="#F3DADC" d="M622.367,707.335c0-0.081-0.081-0.408,0.082-0.653l-0.327-0.489l-1.796,0.979
			c0,0.082-0.081,0.163-0.163,0.245c-0.163,0.081-0.326,0.163-0.408,0.081c-0.081-0.081,0-0.244,0.082-0.408
			c0.163-0.081,0.326-0.163,0.408-0.081v0.081c0.244-0.408,1.143-0.734,1.796-0.979l-0.082-0.244c-0.326,0-0.571-0.245-0.653-0.327
			c-2.612-0.489-5.061,1.715-5.061,1.715s-2.694,3.102,1.551,4.163C620.326,711.335,621.959,708.151,622.367,707.335z"/>
		<path fill="#F3DADC" d="M630.53,708.805c0,0,1.552-2.123,0.735-3.184c-1.552-3.103-5.552-0.898-6.367-0.408
			c-0.082,0-0.164,0.245-0.408,0.408l-0.245,0.653c0.081,0.081,0.245,0.734,0.326,0.734
			C628.571,711.335,630.53,708.805,630.53,708.805z M627.51,705.213c-0.163,0.081-0.326,0.081-0.408,0v-0.082
			c-0.571,0.408-2.367,0.571-2.367,0.571l2.367-0.652c0.082-0.082,0.082-0.163,0.245-0.245s0.327-0.082,0.408,0
			C627.837,704.968,627.674,705.131,627.51,705.213z"/>
		<path fill="#F3DADC" d="M624.49,707.172c-0.082-0.082-0.408-0.082-0.49-0.408l-0.979,0.163c0.163,0.082-0.245,0.49-0.653,0.571
			c-2.693,5.796,0.082,6.694,0.082,6.694s1.306,0.49,2.285-0.082C627.674,711.988,625.225,708.07,624.49,707.172z M623.429,709.947
			c-0.082,0.082-0.245-0.081-0.245-0.245c-0.082-0.244,0.082-0.326,0.163-0.408h0.082c-0.245-0.652,0.326-2.367,0.326-2.367
			l-0.245,2.449c0.082,0.082,0.082,0.082,0.082,0.245C623.592,709.702,623.592,709.866,623.429,709.947z"/>
		<path fill="#F3DADC" d="M624.653,704.396c-0.653-0.653-1.633-0.571-2.204,0.082c-0.653,0.652-0.653,1.632-0.082,2.204
			c0.653,0.652,1.633,0.571,2.204-0.082C625.225,706.029,625.306,705.05,624.653,704.396z M622.449,705.539
			c-0.082,0.082-0.163,0.082-0.163,0c-0.082-0.081-0.082-0.081,0-0.163c0.081-0.082,0.163-0.082,0.163,0l0.081,0.082
			c0.163-0.082,0.653-0.082,0.653-0.082L622.449,705.539C622.449,705.458,622.449,705.539,622.449,705.539z M623.918,704.314
			c-0.081-0.081-0.081-0.081-0.081-0.163c0-0.081,0.081-0.081,0.081-0.081s0.164,0.163,0.164,0.244c0,0.082-0.082,0.082-0.082,0.082
			C624.082,704.396,624,704.396,623.918,704.314c0.245,0.408-0.244,0.979-0.244,0.979L623.918,704.314z M623.266,706.764
			c-0.082,0-0.082-0.082-0.082-0.082c0-0.081,0.082-0.163,0.082-0.163s0,0,0.081,0c-0.163-0.244,0.245-0.979,0.245-0.979
			l-0.245,0.979c0.082,0,0.082,0.082,0.082,0.082C623.429,706.764,623.347,706.764,623.266,706.764z M624.326,706.601
			c-0.081-0.082-0.081-0.082-0.081-0.163c0,0,0,0,0-0.082c-0.163-0.082-0.408-0.979-0.408-0.979l0.408,0.897h0.081
			c0.082,0.082,0.082,0.082,0.082,0.164C624.326,706.519,624.326,706.682,624.326,706.601z"/>
	</g>
	<g>
		<path fill="#F3DADC" d="M645.878,661.131c0,0.082-0.082,0.082-0.082,0.082c-0.082,0.081-0.245,0.081-0.245,0
			c-0.081-0.082,0-0.163,0.082-0.245c0.081-0.081,0.245-0.081,0.245,0C645.878,660.968,645.878,660.968,645.878,661.131
			c0.244-0.244,1.061-0.408,1.306-0.408v-0.081c-0.326-0.245-0.408-0.408-0.408-0.408c-1.225-0.408-4.897,0.979-3.266,2.938
			c1.552,1.796,3.266-0.734,3.756-1.47c0-0.081-0.082-0.326,0.081-0.815l-0.081-0.245L645.878,661.131z"/>
		<path fill="#F3DADC" d="M645.225,656.233c0,0-1.143,0.652-1.225,1.388c0,2.041,1.959,2.367,2.612,2.367
			c0.081,0,0.408,0.082,0.571-0.326l0.408,0.081c-0.082-0.245,0.245-0.653,0.245-0.653
			C647.837,655.906,645.225,656.233,645.225,656.233z M646.53,658.438c-0.081,0-0.081,0-0.163-0.082
			c-0.081-0.081-0.163-0.163-0.081-0.245c0.081-0.081,0.163-0.081,0.244,0C646.53,658.274,646.612,658.355,646.53,658.438
			C646.612,658.438,646.612,658.438,646.53,658.438c0.408,0.163,0.898,1.225,0.898,1.225L646.53,658.438z"/>
		<path fill="#F3DADC" d="M648.734,661.294c0,0-0.244,0-0.408-0.163l-0.408,0.082l0.164,1.225c0.081,0,0.081,0.081,0.081,0.081
			c0.082,0.082,0.082,0.245-0.081,0.245c-0.082,0-0.164-0.082-0.245-0.163c-0.082-0.082-0.082-0.245,0.081-0.245c0,0,0,0,0.082,0
			c-0.163-0.245-0.163-0.816-0.163-1.225l-0.163,0.082c-0.082,0.163-0.327,0.245-0.327,0.326c-0.897,1.551-0.081,3.266-0.081,3.266
			s1.306,2.204,2.938-0.163C650.693,663.254,649.225,661.702,648.734,661.294z"/>
		<path fill="#F3DADC" d="M651.592,656.723c0,0-0.979-1.306-1.796-0.979c-2.204,0.327-1.878,3.103-1.714,3.674
			c0,0,0.163,0.163,0.081,0.326l0.327,0.245c0.081-0.082,0.489-0.082,0.571-0.082C652.653,658.438,651.592,656.723,651.592,656.723z
			 M648.653,657.866c0,0.081,0,0.244-0.082,0.244h-0.081c0.163,0.408-0.245,1.552-0.245,1.552l0.163-1.552
			c-0.082-0.081-0.082-0.081-0.082-0.163c0-0.081,0-0.245,0.082-0.245S648.653,657.702,648.653,657.866z"/>
		<path fill="#F3DADC" d="M649.143,660.07c-0.081,0-0.163,0.244-0.408,0.244l-0.081,0.653c0.081-0.082,0.245,0.245,0.163,0.408
			c2.938,2.612,4.163,1.143,4.163,1.143s0.653-0.652,0.49-1.388C652.816,659.009,649.796,659.825,649.143,660.07z M650.612,661.131
			c0,0.082-0.082,0.082-0.245,0.082s-0.245-0.082-0.245-0.163v-0.082c-0.408,0-1.388-0.653-1.388-0.653l1.47,0.653
			c0.081,0,0.081-0.082,0.163-0.082C650.53,660.968,650.612,661.131,650.612,661.131z"/>
		<path fill="#F3DADC" d="M647.51,659.417c-0.489,0.245-0.734,0.816-0.489,1.306c0.245,0.49,0.816,0.653,1.306,0.408
			c0.49-0.244,0.735-0.816,0.49-1.306C648.653,659.335,648,659.172,647.51,659.417z M647.674,660.968c0,0.082,0,0.082-0.082,0.082
			s-0.082,0-0.082-0.082s0-0.082,0.082-0.082L647.674,660.968c-0.082-0.163,0-0.408,0-0.408V660.968L647.674,660.968z
			 M647.266,659.825c-0.082,0-0.082,0-0.082,0c-0.082,0-0.082-0.082,0-0.082c0.082-0.081,0.163-0.081,0.245-0.081
			c0.081,0,0.081,0.081,0,0.081C647.347,659.825,647.266,659.825,647.266,659.825c0.326-0.082,0.489,0.326,0.489,0.326
			L647.266,659.825z M648.571,660.723c0,0.082-0.081,0.082-0.081,0.082c-0.082,0-0.082-0.082-0.082-0.082l0,0
			c-0.163,0.082-0.49-0.326-0.49-0.326l0.49,0.245c0,0,0.082-0.082,0.082,0C648.571,660.56,648.653,660.642,648.571,660.723z
			 M648.734,660.07c-0.081,0-0.081,0-0.081,0l0,0c-0.082,0.081-0.653,0.081-0.653,0.081l0.653-0.081v-0.082
			C648.734,660.07,648.734,660.07,648.734,660.07L648.734,660.07z"/>
	</g>
	<g>
		<path fill="#F0BCC8" d="M726.775,690.11c0,0.082-0.082,0.082-0.163,0.164c-0.082,0.081-0.245,0.081-0.327,0
			c-0.081-0.082,0-0.245,0.082-0.327c0.082-0.081,0.245-0.081,0.326,0v0.082c0.327-0.327,1.552-0.49,1.96-0.571v-0.082
			c-0.408-0.408-0.571-0.653-0.653-0.653c-1.878-0.652-7.184,1.552-4.734,4.408c2.285,2.694,4.816-1.061,5.469-2.204
			c0.082-0.081-0.163-0.489,0.082-1.143l-0.163-0.408L726.775,690.11z"/>
		<path fill="#F0BCC8" d="M725.714,682.846c0,0-1.714,0.897-1.796,2.122c0.082,3.103,2.939,3.511,3.919,3.511
			c0.081,0,0.571,0.081,0.816-0.49l0.652,0.082c-0.081-0.408,0.245-0.98,0.245-0.98
			C729.551,682.355,725.714,682.846,725.714,682.846z M727.674,686.192c-0.082,0-0.164-0.082-0.245-0.082
			c-0.163-0.081-0.245-0.244-0.163-0.326c0.081-0.082,0.244-0.082,0.326,0c0.163,0.082,0.245,0.245,0.163,0.326
			C727.755,686.029,727.755,686.11,727.674,686.192c0.652,0.245,1.469,1.796,1.469,1.796L727.674,686.192z"/>
		<path fill="#F0BCC8" d="M731.021,690.355c-0.082-0.081-0.408,0-0.653-0.245l-0.571,0.245l0.245,1.878
			c0.081,0.081,0.081,0.081,0.163,0.245c0.081,0.163,0.081,0.326-0.082,0.407c-0.163,0.082-0.244-0.081-0.244-0.244
			c-0.082-0.163-0.082-0.327,0.081-0.408h0.082c-0.245-0.327-0.245-1.225-0.245-1.796l-0.245,0.081
			c-0.081,0.245-0.408,0.408-0.489,0.408c-1.307,2.204-0.082,4.898-0.082,4.898s1.959,3.184,4.327-0.245
			C733.878,693.294,731.592,691.009,731.021,690.355z"/>
		<path fill="#F0BCC8" d="M734.938,683.58c0,0-1.388-1.878-2.612-1.551c-3.265,0.489-2.693,4.653-2.448,5.551
			c0,0.082,0.244,0.245,0.244,0.408l0.49,0.408c0.081-0.082,0.734-0.082,0.816-0.082C736.653,686.029,734.938,683.58,734.938,683.58
			z M730.775,685.294c0.082,0.164,0,0.327-0.081,0.327h-0.082c0.245,0.652-0.245,2.204-0.245,2.204l0.245-2.286
			c-0.082-0.081-0.082-0.081-0.082-0.245c-0.081-0.163,0-0.326,0.082-0.326C730.612,684.968,730.693,685.131,730.775,685.294z"/>
		<path fill="#F0BCC8" d="M731.51,688.479c-0.081,0-0.244,0.326-0.571,0.326l-0.163,0.979c0.082-0.082,0.326,0.408,0.245,0.653
			c4.408,3.918,6.122,1.714,6.122,1.714s0.898-0.979,0.653-2.041C736.979,686.927,732.571,688.151,731.51,688.479z M733.714,690.192
			c0,0.082-0.163,0.163-0.326,0.163s-0.245-0.081-0.245-0.245v-0.081c-0.652,0.081-2.041-0.979-2.041-0.979l2.123,0.897
			c0.081-0.081,0.163-0.081,0.245-0.081C733.551,689.947,733.714,690.029,733.714,690.192z"/>
		<path fill="#F0BCC8" d="M729.062,687.662c-0.735,0.408-1.062,1.306-0.735,1.959c0.327,0.734,1.225,0.979,2.041,0.653
			c0.734-0.408,1.062-1.307,0.734-1.96C730.775,687.498,729.878,687.254,729.062,687.662z M729.388,689.866
			c0,0.081,0,0.163-0.082,0.163c-0.081,0-0.081,0-0.163-0.082c0-0.081,0-0.163,0.082-0.163h0.081
			c-0.081-0.163,0.082-0.571,0.082-0.571V689.866C729.306,689.866,729.388,689.866,729.388,689.866z M728.734,688.233
			c-0.081,0-0.081,0-0.163,0c-0.081,0-0.081-0.082-0.081-0.082c0.081-0.081,0.244-0.081,0.244-0.081
			c0.082,0,0.082,0.081,0.082,0.081C728.898,688.233,728.816,688.233,728.734,688.233c0.408,0,0.816,0.489,0.816,0.489
			L728.734,688.233z M730.775,689.458c0,0.081-0.081,0.081-0.163,0.081s-0.082-0.081-0.082-0.163c0,0,0,0,0-0.082
			c-0.244,0.082-0.816-0.408-0.816-0.408l0.816,0.408c0-0.081,0.082-0.081,0.082-0.081
			C730.693,689.294,730.775,689.458,730.775,689.458z M730.938,688.56c-0.081,0.082-0.081,0-0.163,0l0,0
			c-0.081,0.082-0.979,0.082-0.979,0.082l0.979-0.082c0,0,0-0.081,0.082-0.081C730.857,688.396,730.938,688.479,730.938,688.56
			C731.021,688.479,731.021,688.56,730.938,688.56z"/>
	</g>
</g>
<g>
	<path fill="#F1BBC8" d="M372.653,675.498c-0.082-0.081-0.326-0.244-0.571-0.244c-0.408-0.082-0.735,0.081-0.816,0.326
		s0.245,0.49,0.653,0.571c0.408,0.082,0.734-0.081,0.816-0.326c0-0.082,0-0.082,0-0.163c1.143,0.326,3.836-0.572,4.898-0.898v0.082
		c-0.572,1.225-0.572,1.877-0.653,2.04c-3.184,3.266-17.143,4.653-15.021-4c1.959-7.918,11.51-2.938,14.123-1.388
		c0.082,0.082,0.164,1.225,1.469,2.204l0.082,0.979L372.653,675.498z"/>
	<path fill="#F1BBC8" d="M382.123,678.438c-0.082-0.082-1.551-0.898-1.714-1.715l-1.143,0.979c-1.224-0.897-2.204-0.244-2.367-0.081
		c-2.204,1.225-7.837,5.061-4.571,11.429c1.551,2.285,6.123,2.367,6.123,2.367S387.102,688.314,382.123,678.438z M379.918,677.213
		c0,0,0,4.081-0.898,5.225c0.082,0,0.082,0,0.163,0.081c0.245,0.082,0.245,0.49,0.082,0.816c-0.163,0.327-0.49,0.571-0.734,0.408
		c-0.245-0.081-0.245-0.489-0.082-0.816c0.082-0.245,0.245-0.326,0.408-0.408L379.918,677.213z"/>
	<path fill="#F1BBC8" d="M381.306,670.355c-0.082,0.082-0.898,0.49-0.979,1.143l-1.388,0.327l-1.551-4
		c0.082-0.163,0.082-0.327,0.082-0.571c0-0.408-0.245-0.735-0.49-0.735c-0.245,0-0.408,0.327-0.408,0.816
		c0,0.408,0.245,0.735,0.49,0.735c0.082,0,0.082,0,0.164-0.082c-0.082,0.979,0.816,2.775,1.469,4l-0.571,0.082
		c-0.572-0.408-1.388-0.327-1.551-0.408c-5.225-3.103-5.714-9.796-5.714-9.796s0.653-8.653,9.551-4.082
		C384.408,661.376,381.959,668.396,381.306,670.355z"/>
	<path fill="#F1BBC8" d="M384.49,674.029c-0.163,0-1.551,0.816-1.796,0.652l-0.653,1.47c0.326,0.408,0.082,1.062,0.082,1.143
		c0.653,2.041,3.755,11.021,11.51,8.653c3.102-0.408,4-5.877,4-5.877S398.367,673.213,384.49,674.029z M386.367,681.866
		c-0.245,0.081-0.49-0.164-0.653-0.572c-0.082-0.244-0.082-0.408,0-0.571l-3.021-4.571c0,0,2.939,2.857,3.102,4.326
		c0.082-0.081,0.082-0.081,0.082-0.081c0.245-0.082,0.49,0.163,0.653,0.571C386.694,681.458,386.612,681.784,386.367,681.866z"/>
	<path fill="#F1BBC8" d="M396.408,663.825c-0.816-2.367-3.755-3.511-3.755-3.511s-6.041-2.693-11.102,9.96
		c0.49,0.571,0.49,1.877,0.164,1.714l1.469,1.714c0.735-0.408,1.388,0.082,1.551,0.082
		C387.184,673.376,398.041,671.09,396.408,663.825z M386.939,668.805c-0.164,0.081-0.408,0.163-0.572,0.163l-3.51,4.082
		c0,0,2.041-3.511,3.347-4.164c-0.082,0-0.082-0.081-0.082-0.081c-0.082-0.245,0.082-0.571,0.408-0.816
		c0.326-0.245,0.734-0.245,0.816,0C387.51,668.233,387.347,668.56,386.939,668.805z"/>
	<path fill="#F1BBC8" d="M384,674.682c0-1.877-1.714-3.265-3.673-3.265c-1.959,0-3.674,1.551-3.592,3.429
		c0,1.877,1.714,3.265,3.673,3.265C382.449,678.029,384.082,676.479,384,674.682z M378.367,673.213l0.816,1.143
		c0,0-0.816-0.653-0.898-1.062c-0.082,0.082-0.082,0.082-0.163,0.082c-0.164,0-0.327-0.082-0.327-0.245s0.082-0.244,0.245-0.244
		c0.163,0,0.326,0.081,0.326,0.244C378.367,673.213,378.367,673.213,378.367,673.213z M380.082,675.335c0,0,0,1.388-0.979,1.796
		c0.082,0,0.082,0,0.163,0c0.245,0.082,0.245,0.163,0.082,0.245c-0.163,0.082-0.49,0.163-0.734,0.163
		c-0.245-0.081-0.245-0.163-0.082-0.245c0.082-0.081,0.245-0.081,0.408-0.163L380.082,675.335z M381.877,672.886
		c-0.082,0.082-0.163,0.082-0.245,0.082l-1.143,1.714c0,0,0.408-1.551,1.143-1.714l-0.082-0.082c-0.082-0.081-0.082-0.326,0-0.407
		c0.082-0.082,0.245-0.082,0.408,0.081C381.959,672.642,381.959,672.805,381.877,672.886z M383.429,674.438
		c-0.082,0.081-0.245,0.244-0.408,0.244c-0.082,0-0.082-0.081-0.082-0.081l-2.204,0.816c0,0,1.714-0.979,2.204-0.816
		c0,0,0-0.082,0.082-0.082c0.082-0.081,0.245-0.244,0.408-0.244C383.51,674.274,383.429,674.274,383.429,674.438z"/>
	<g>
		<path fill="#F0BCC8" d="M432.735,675.172c-0.082-0.082-0.082-0.082-0.082-0.082c-0.082,0-0.163,0-0.163,0.082
			s0.082,0.082,0.163,0.082C432.735,675.254,432.735,675.335,432.735,675.172C432.735,675.254,432.735,675.254,432.735,675.172
			c0.326,0.082,0.979-0.082,1.224-0.163l0,0c-0.163,0.245-0.082,0.408-0.163,0.489c-0.816,0.816-4.245,1.144-3.673-0.979
			c0.49-1.959,2.857-0.734,3.51-0.326c0.082,0,0.082,0.245,0.326,0.571v0.245L432.735,675.172z"/>
		<path fill="#F0BCC8" d="M435.021,675.906c0,0-0.408-0.244-0.408-0.408l-0.245,0.245c-0.245-0.245-0.571-0.081-0.653,0
			c-0.572,0.245-1.959,1.225-1.143,2.775c0.408,0.571,1.551,0.653,1.551,0.653S436.245,678.438,435.021,675.906z M434.531,675.662
			c0,0,0,0.979-0.245,1.306c0,0,0,0,0.082,0c0.082,0.082,0.082,0.082,0,0.245c-0.082,0.081-0.082,0.081-0.163,0.081
			s-0.082-0.081,0-0.244c0-0.082,0.082-0.082,0.082-0.082L434.531,675.662z"/>
		<path fill="#F0BCC8" d="M434.857,673.947c0,0-0.245,0.082-0.245,0.245l-0.327,0.082l-0.408-0.98c0-0.081,0.082-0.081,0.082-0.163
			c0-0.081-0.082-0.163-0.082-0.163c-0.082,0-0.082,0.082-0.082,0.163c0,0.082,0.082,0.163,0.082,0.163s0,0,0.082,0
			c0,0.245,0.245,0.653,0.327,0.98l-0.082,0.081c-0.082-0.081-0.327-0.081-0.408-0.081c-1.306-0.816-1.388-2.368-1.388-2.368
			s0.163-2.122,2.367-0.979C435.592,671.743,435.021,673.458,434.857,673.947z"/>
		<path fill="#F0BCC8" d="M435.592,674.846c-0.082,0-0.408,0.244-0.408,0.163l-0.163,0.326c0.082,0.082,0,0.245,0,0.245
			c0.163,0.49,0.979,2.775,2.775,2.122c0.816-0.081,0.979-1.469,0.979-1.469S439.021,674.682,435.592,674.846z M436.082,676.805
			c-0.082,0-0.082-0.082-0.163-0.163c0-0.082,0-0.082,0-0.163l-0.735-1.144c0,0,0.735,0.735,0.816,1.062c0,0,0,0,0.082,0
			s0.082,0.082,0.164,0.163C436.163,676.723,436.163,676.805,436.082,676.805z"/>
		<path fill="#F0BCC8" d="M438.531,672.314c-0.245-0.652-0.98-0.816-0.98-0.816s-1.551-0.652-2.775,2.449
			c0.082,0.163,0.082,0.408,0.082,0.408l0.327,0.408c0.163-0.082,0.327,0,0.408,0C436.327,674.682,439.021,674.11,438.531,672.314z
			 M436.245,673.621c-0.082,0.081-0.082,0.081-0.082,0.081l-0.898,0.979c0,0,0.49-0.897,0.816-0.979l0,0
			c-0.082-0.081,0-0.081,0.082-0.163c0.082-0.081,0.164-0.081,0.245,0C436.327,673.458,436.327,673.539,436.245,673.621z"/>
		<path fill="#F0BCC8" d="M435.51,675.009c0-0.408-0.408-0.816-0.898-0.816s-0.898,0.408-0.898,0.816s0.408,0.816,0.898,0.816
			C435.102,675.906,435.51,675.498,435.51,675.009z M434.123,674.682l0.245,0.245C434.286,675.009,434.123,674.846,434.123,674.682
			C434.041,674.764,434.041,674.764,434.123,674.682c-0.082,0.082-0.082,0-0.082,0C433.959,674.682,433.959,674.682,434.123,674.682
			C434.041,674.601,434.123,674.601,434.123,674.682L434.123,674.682z M434.531,675.172c0,0,0,0.326-0.245,0.408c0,0,0,0,0.082,0
			c0.082,0,0.082,0.082,0,0.082c-0.082,0.081-0.082,0.081-0.163,0.081s-0.082-0.081,0-0.081l0.082-0.082L434.531,675.172z
			 M434.938,674.601L434.938,674.601l-0.326,0.408C434.612,675.009,434.694,674.682,434.938,674.601L434.938,674.601
			c-0.082-0.082-0.082-0.082-0.082-0.082c0.082,0,0.082,0,0.082,0S435.021,674.601,434.938,674.601z M435.347,675.009
			c0,0.081-0.082,0.081-0.082,0.081h-0.082l-0.571,0.164c0,0,0.408-0.245,0.571-0.245l0,0
			C435.184,674.927,435.265,674.927,435.347,675.009C435.347,674.927,435.347,674.927,435.347,675.009z"/>
	</g>
	<g>
		<path fill="#F0BCC8" d="M307.265,645.947c-0.082-0.081-0.082-0.081-0.163-0.081s-0.245,0.081-0.245,0.081
			c0,0.082,0.082,0.163,0.164,0.163s0.245-0.081,0.245-0.081V645.947c0.408,0.163,1.143-0.081,1.388-0.245v0.082
			c-0.163,0.408-0.163,0.571-0.163,0.653c-0.898,0.979-4.898,1.306-4.245-1.144c0.571-2.285,3.265-0.897,4-0.407
			c0.082,0,0.082,0.407,0.408,0.652v0.245L307.265,645.947z"/>
		<path fill="#F0BCC8" d="M309.959,646.846c0-0.082-0.408-0.245-0.49-0.49l-0.326,0.245c-0.327-0.245-0.653-0.082-0.653-0.082
			c-0.653,0.327-2.204,1.552-1.306,3.348c0.408,0.652,1.714,0.734,1.714,0.734S311.429,649.702,309.959,646.846z M309.388,646.438
			c0,0,0,1.143-0.245,1.551h0.082c0.082,0.082,0.082,0.163,0,0.245c-0.082,0.081-0.164,0.163-0.245,0.081
			c-0.082-0.081-0.082-0.163,0-0.244c0.082-0.082,0.082-0.082,0.082-0.082L309.388,646.438z"/>
		<path fill="#F0BCC8" d="M309.796,644.396c0,0.082-0.245,0.163-0.245,0.326l-0.408,0.082l-0.408-1.143
			c0-0.082,0.082-0.082,0.082-0.164c0-0.081-0.082-0.244-0.164-0.244c-0.082,0-0.082,0.081-0.082,0.244
			c0,0.082,0.082,0.245,0.164,0.245c0,0,0,0,0.082,0c0,0.245,0.245,0.816,0.408,1.143l-0.164,0.082
			c-0.163-0.082-0.408-0.082-0.408-0.082c-1.551-0.897-1.632-2.938-1.632-2.938s0.163-2.612,2.775-1.143
			C310.694,641.784,309.959,643.825,309.796,644.396z"/>
		<path fill="#F0BCC8" d="M310.694,645.539c-0.082,0-0.408,0.245-0.49,0.163l-0.163,0.408c0.082,0.082,0,0.327,0,0.327
			c0.163,0.571,1.061,3.265,3.265,2.53c0.898-0.082,1.143-1.714,1.143-1.714S314.612,645.294,310.694,645.539z M311.184,647.825
			c-0.082,0-0.163-0.082-0.163-0.163c0-0.082,0-0.082,0-0.164l-0.816-1.306c0,0,0.816,0.816,0.898,1.306c0,0,0,0,0.082,0
			s0.163,0.082,0.163,0.164C311.265,647.743,311.265,647.825,311.184,647.825z"/>
		<path fill="#F0BCC8" d="M314.041,642.519c-0.245-0.734-1.062-0.979-1.062-0.979s-1.714-0.816-3.184,2.939
			c0.163,0.163,0.082,0.571,0.082,0.489l0.408,0.49c0.245-0.082,0.408,0,0.408,0C311.429,645.294,314.531,644.642,314.041,642.519z
			 M311.429,643.988c-0.082,0.082-0.082,0.082-0.164,0.082l-0.979,1.224c0,0,0.571-1.061,0.979-1.224c0,0,0,0-0.082-0.082
			s0-0.163,0.082-0.245c0.082-0.081,0.245-0.081,0.245,0C311.51,643.825,311.51,643.906,311.429,643.988z"/>
		<path fill="#F0BCC8" d="M310.531,645.702c0-0.571-0.49-0.979-1.062-0.979c-0.571,0.082-0.979,0.408-0.979,0.979
			c0,0.572,0.49,0.979,1.061,0.979C310.123,646.682,310.531,646.274,310.531,645.702z M308.898,645.294l0.245,0.327
			C309.143,645.621,308.898,645.458,308.898,645.294C308.898,645.376,308.898,645.376,308.898,645.294c-0.082,0.082-0.163,0-0.163,0
			c0-0.081,0.082-0.081,0.082-0.081C308.898,645.131,308.898,645.213,308.898,645.294L308.898,645.294z M309.469,645.866
			c0,0,0,0.408-0.245,0.489h0.082c0.082,0,0.082,0.082,0,0.082c-0.082,0.081-0.163,0.081-0.245,0.081c-0.082,0-0.082-0.081,0-0.081
			c0.082,0,0.082-0.082,0.082-0.082L309.469,645.866z M309.959,645.213L309.959,645.213l-0.408,0.489
			C309.551,645.702,309.633,645.294,309.959,645.213L309.959,645.213c-0.082-0.082-0.082-0.082-0.082-0.082c0.082,0,0.082,0,0.082,0
			C309.959,645.05,309.959,645.131,309.959,645.213z M310.367,645.621c0,0.081-0.082,0.081-0.082,0.081s-0.082,0-0.082-0.081
			l-0.653,0.245c0,0,0.49-0.245,0.653-0.245l0,0C310.204,645.621,310.286,645.621,310.367,645.621L310.367,645.621z"/>
	</g>
	<g>
		<path fill="#F0BCC8" d="M322.612,656.151c-0.082-0.081-0.082-0.081-0.163-0.081c-0.082,0-0.245,0.081-0.245,0.081
			c0,0.082,0.082,0.163,0.163,0.163c0.082,0,0.245-0.081,0.245-0.081S322.612,656.233,322.612,656.151
			c0.408,0.163,1.143-0.081,1.388-0.245v0.082c-0.163,0.408-0.163,0.571-0.163,0.653c-0.898,0.979-4.898,1.306-4.245-1.144
			c0.571-2.285,3.265-0.897,4-0.408c0.082,0,0.082,0.408,0.408,0.653v0.245L322.612,656.151z"/>
		<path fill="#F0BCC8" d="M325.306,657.05c0-0.082-0.408-0.245-0.49-0.49l-0.327,0.245c-0.327-0.245-0.653-0.082-0.653-0.082
			c-0.653,0.327-2.204,1.552-1.306,3.348c0.408,0.652,1.714,0.734,1.714,0.734S326.694,659.906,325.306,657.05z M324.735,656.642
			c0,0,0,1.143-0.245,1.551h0.082c0.082,0.082,0.082,0.163,0,0.245c-0.082,0.081-0.163,0.163-0.245,0.081
			c-0.082-0.081-0.082-0.163,0-0.244c0.082-0.082,0.082-0.082,0.082-0.082L324.735,656.642z"/>
		<path fill="#F0BCC8" d="M325.143,654.682c0,0.082-0.245,0.164-0.245,0.327l-0.408,0.081l-0.408-1.143
			c0-0.081,0.082-0.081,0.082-0.163s-0.082-0.245-0.163-0.245s-0.082,0.082-0.082,0.245c0,0.082,0.082,0.245,0.163,0.245
			c0,0,0,0,0.082,0c0,0.244,0.245,0.816,0.408,1.143l-0.163,0.082c-0.163-0.082-0.408-0.082-0.408-0.082
			c-1.551-0.898-1.633-2.938-1.633-2.938s0.164-2.612,2.775-1.144C326.041,651.988,325.306,654.11,325.143,654.682z"/>
		<path fill="#F0BCC8" d="M326.041,655.743c-0.082,0-0.408,0.245-0.49,0.163l-0.163,0.408c0.082,0.082,0,0.327,0,0.327
			c0.163,0.571,1.061,3.265,3.265,2.53c0.898-0.082,1.143-1.714,1.143-1.714S329.959,655.498,326.041,655.743z M326.531,658.11
			c-0.082,0-0.164-0.081-0.164-0.163c0-0.081,0-0.081,0-0.163l-0.816-1.306c0,0,0.816,0.815,0.898,1.306c0,0,0,0,0.082,0
			s0.163,0.082,0.163,0.163C326.612,657.866,326.612,658.029,326.531,658.11z"/>
		<path fill="#F0BCC8" d="M329.388,652.723c-0.245-0.734-1.061-0.979-1.061-0.979s-1.714-0.816-3.184,2.938
			c0.163,0.164,0.082,0.572,0.082,0.49l0.408,0.49c0.245-0.082,0.408,0,0.408,0C326.775,655.498,329.877,654.846,329.388,652.723z
			 M326.694,654.192c-0.082,0.082-0.082,0.082-0.163,0.082l-0.98,1.224c0,0,0.572-1.061,0.98-1.224c0,0,0,0-0.082-0.082
			c-0.082-0.082,0-0.163,0.082-0.245c0.082-0.081,0.245-0.081,0.245,0C326.857,654.029,326.857,654.192,326.694,654.192z"/>
		<path fill="#F0BCC8" d="M325.877,655.906c0-0.571-0.49-0.979-1.061-0.979c-0.571,0.082-0.979,0.408-0.979,0.979
			c0,0.572,0.49,0.979,1.061,0.979S325.877,656.479,325.877,655.906z M324.245,655.498l0.245,0.327
			C324.49,655.825,324.245,655.662,324.245,655.498C324.245,655.58,324.245,655.58,324.245,655.498c-0.082,0.082-0.164,0-0.164,0
			c0-0.081,0.082-0.081,0.082-0.081C324.245,655.417,324.245,655.417,324.245,655.498L324.245,655.498z M324.735,656.151
			c0,0,0,0.408-0.245,0.49h0.082c0.082,0,0.082,0.081,0,0.081c-0.082,0.082-0.163,0.082-0.245,0.082s-0.082-0.082,0-0.082
			s0.082-0.081,0.082-0.081L324.735,656.151z M325.306,655.417L325.306,655.417l-0.408,0.489
			C324.898,655.906,324.979,655.417,325.306,655.417L325.306,655.417c-0.082-0.082-0.082-0.082-0.082-0.082c0.082,0,0.082,0,0.082,0
			V655.417z M325.714,655.825c0,0.081-0.082,0.081-0.082,0.081s-0.082,0-0.082-0.081l-0.653,0.245c0,0,0.49-0.245,0.653-0.245l0,0
			C325.551,655.743,325.633,655.743,325.714,655.825C325.714,655.743,325.714,655.825,325.714,655.825z"/>
	</g>
	<g>
		<path fill="#F3DADC" d="M410.531,673.947c-0.082-0.081-0.082-0.081-0.245-0.081c-0.163,0-0.327,0.081-0.327,0.163
			c0,0.081,0.082,0.245,0.245,0.245s0.327-0.082,0.327-0.164V673.947c0.571,0.245,1.714-0.163,2.204-0.326v0.081
			c-0.245,0.572-0.245,0.816-0.245,0.898c-1.388,1.47-7.51,2.041-6.612-1.715c0.816-3.51,5.062-1.306,6.204-0.652
			c0.082,0.081,0.082,0.571,0.653,0.979l0.082,0.408L410.531,673.947z"/>
		<path fill="#F3DADC" d="M414.694,675.254c0-0.082-0.653-0.408-0.816-0.816l-0.49,0.408c-0.571-0.408-0.979-0.082-1.061-0.082
			c-0.98,0.49-3.429,2.204-1.959,4.979c0.653,0.979,2.694,1.062,2.694,1.062S416.898,679.58,414.694,675.254z M413.714,674.764
			c0,0,0,1.796-0.408,2.286h0.082c0.082,0.081,0.082,0.244,0,0.408c-0.082,0.163-0.245,0.244-0.327,0.163
			c-0.082-0.082-0.082-0.245,0-0.408c0.082-0.082,0.082-0.163,0.164-0.163L413.714,674.764z"/>
		<path fill="#F3DADC" d="M414.367,671.743c0,0.082-0.408,0.245-0.408,0.49l-0.653,0.163l-0.653-1.796
			c0.082-0.082,0.082-0.163,0.082-0.245c0-0.163-0.082-0.326-0.245-0.326c-0.082,0-0.163,0.163-0.163,0.326s0.082,0.326,0.245,0.326
			h0.082c-0.082,0.408,0.326,1.225,0.653,1.715l-0.245,0.082c-0.245-0.245-0.653-0.164-0.653-0.164
			c-2.286-1.306-2.531-4.326-2.531-4.326s0.245-3.837,4.164-1.796C415.673,667.825,414.612,670.927,414.367,671.743z"/>
		<path fill="#F3DADC" d="M415.673,673.376c-0.082,0-0.653,0.326-0.816,0.245l-0.245,0.653c0.163,0.244,0,0.407,0.082,0.489
			c0.245,0.898,1.633,4.898,5.061,3.837c1.306-0.245,1.714-2.612,1.714-2.612S421.877,672.968,415.673,673.376z M416.571,676.805
			c-0.082,0.081-0.245-0.082-0.245-0.245c-0.082-0.081-0.082-0.163,0-0.245l-1.306-1.959c0,0,1.306,1.225,1.306,1.878l0.082-0.082
			c0.082-0.081,0.245,0.082,0.245,0.245C416.735,676.56,416.653,676.805,416.571,676.805z"/>
		<path fill="#F3DADC" d="M420.979,668.805c-0.326-1.062-1.714-1.551-1.714-1.551s-2.612-1.144-4.898,4.326
			c0.245,0.245,0.245,0.816,0.082,0.734l0.653,0.735c0.327-0.164,0.653,0.081,0.653,0
			C416.898,673.05,421.714,672.07,420.979,668.805z M416.816,671.09c-0.082,0.082-0.164,0.082-0.245,0.082l-1.551,1.796
			c0,0,0.898-1.551,1.469-1.796c0,0-0.082,0-0.082-0.082c-0.082-0.081,0-0.244,0.163-0.326c0.164-0.082,0.327-0.082,0.408,0
			C417.061,670.764,416.979,670.927,416.816,671.09z"/>
		<path fill="#F3DADC" d="M415.51,673.621c0-0.816-0.735-1.47-1.633-1.47s-1.551,0.653-1.551,1.551c0,0.898,0.734,1.47,1.632,1.47
			C414.857,675.09,415.51,674.438,415.51,673.621z M413.061,673.05l0.327,0.489C413.388,673.539,413.061,673.213,413.061,673.05
			c-0.082,0.081-0.082,0.081-0.082,0.081c-0.082,0-0.082-0.081-0.163-0.081c0-0.082,0.082-0.082,0.082-0.082
			C412.979,672.886,412.979,672.886,413.061,673.05C413.061,672.968,413.061,672.968,413.061,673.05z M413.796,673.947
			c0,0,0,0.653-0.408,0.816h0.082c0.082,0,0.082,0.082,0,0.082c-0.082,0.081-0.245,0.081-0.327,0.081c-0.082,0-0.082-0.081,0-0.081
			c0.082-0.082,0.082-0.082,0.164-0.082L413.796,673.947z M414.612,672.886c-0.082,0.082-0.082,0.082-0.082,0l-0.49,0.735
			c0,0,0.245-0.653,0.49-0.816l0,0c-0.082-0.082-0.082-0.163,0-0.163c0.082-0.082,0.082-0.082,0.163,0
			C414.612,672.723,414.612,672.805,414.612,672.886z M415.265,673.539c-0.082,0.082-0.082,0.082-0.163,0.082s-0.082,0-0.082-0.082
			l-0.979,0.327c0,0,0.816-0.408,0.979-0.408c0,0,0,0,0-0.082c0.082-0.082,0.082-0.082,0.163-0.082S415.265,673.458,415.265,673.539
			z"/>
	</g>
	<g>
		<path fill="#F3DADC" d="M403.347,641.539c-0.082-0.081-0.082-0.081-0.163-0.081s-0.245,0.081-0.245,0.081
			c0,0.082,0.082,0.163,0.245,0.163c0.082,0,0.245-0.081,0.245-0.081C403.429,641.702,403.429,641.702,403.347,641.539
			c0.408,0.163,1.143-0.081,1.47-0.245v0.082c-0.164,0.408-0.164,0.571-0.164,0.653c-0.979,0.979-5.061,1.306-4.408-1.143
			c0.571-2.286,3.347-0.816,4.163-0.408c0.082,0,0.082,0.326,0.408,0.652v0.245L403.347,641.539z"/>
		<path fill="#F3DADC" d="M406.204,642.438c0-0.082-0.408-0.245-0.49-0.49l-0.327,0.245c-0.327-0.245-0.653-0.082-0.734-0.082
			c-0.653,0.327-2.286,1.552-1.307,3.348c0.408,0.652,1.796,0.734,1.796,0.734S407.592,645.376,406.204,642.438z M405.551,642.11
			c0,0,0,1.144-0.245,1.552h0.082c0.082,0.081,0.082,0.163,0,0.244c-0.082,0.082-0.163,0.164-0.245,0.082
			c-0.082-0.082-0.082-0.163,0-0.245c0.082-0.081,0.082-0.081,0.082-0.081L405.551,642.11z"/>
		<path fill="#F3DADC" d="M405.959,640.07c0,0.081-0.245,0.163-0.245,0.326l-0.408,0.082l-0.408-1.144
			c0-0.081,0.082-0.081,0.082-0.163s-0.082-0.245-0.163-0.245s-0.082,0.082-0.082,0.245c0,0.082,0.082,0.245,0.163,0.245h0.082
			c0,0.245,0.245,0.816,0.408,1.143l-0.163,0.082c-0.164-0.082-0.408-0.082-0.408-0.082c-1.551-0.897-1.714-2.857-1.714-2.857
			s0.163-2.53,2.775-1.143C406.857,637.458,406.204,639.58,405.959,640.07z"/>
		<path fill="#F3DADC" d="M406.857,641.131c-0.082,0-0.408,0.245-0.49,0.163l-0.163,0.408c0.082,0.082,0,0.327,0,0.327
			c0.163,0.571,1.143,3.265,3.347,2.53c0.898-0.081,1.143-1.714,1.143-1.714S410.939,640.968,406.857,641.131z M407.429,643.498
			c-0.082,0-0.164-0.081-0.164-0.163c0-0.081,0-0.081,0-0.163l-0.898-1.306c0,0,0.816,0.815,0.898,1.306c0,0,0,0,0.082,0
			c0.082,0,0.164,0.082,0.164,0.163C407.429,643.335,407.51,643.498,407.429,643.498z"/>
		<path fill="#F3DADC" d="M410.367,638.11c-0.245-0.734-1.143-0.979-1.143-0.979s-1.796-0.816-3.266,2.939
			c0.164,0.163,0.164,0.571,0.082,0.489l0.408,0.49c0.245-0.082,0.408,0,0.408,0C407.673,640.968,410.857,640.314,410.367,638.11z
			 M407.592,639.662c-0.082,0.081-0.082,0.081-0.163,0.081l-1.062,1.143c0,0,0.572-1.061,0.979-1.224c0,0,0,0-0.082-0.082
			s0-0.163,0.082-0.245c0.082-0.081,0.245-0.081,0.245,0C407.755,639.498,407.755,639.58,407.592,639.662z"/>
		<path fill="#F3DADC" d="M406.694,641.294c0-0.571-0.49-0.979-1.061-0.979c-0.653,0-1.062,0.408-1.062,0.979
			c0,0.572,0.49,0.98,1.062,0.98C406.286,642.355,406.694,641.866,406.694,641.294z M405.143,640.968l0.245,0.326
			C405.306,641.294,405.143,641.05,405.143,640.968C405.061,640.968,405.061,640.968,405.143,640.968c-0.082,0.082-0.163,0-0.163,0
			l0.082-0.082C405.061,640.805,405.143,640.805,405.143,640.968C405.143,640.886,405.143,640.968,405.143,640.968z
			 M405.633,641.539c0,0,0,0.408-0.245,0.49h0.082c0.082,0,0.082,0.081,0,0.081c-0.082,0.082-0.163,0.082-0.245,0.082
			s-0.082-0.082,0-0.082s0.082-0.081,0.082-0.081L405.633,641.539z M406.123,640.805L406.123,640.805l-0.408,0.489
			C405.714,641.294,405.877,640.886,406.123,640.805L406.123,640.805c-0.082-0.082-0.082-0.082-0.082-0.082c0.082,0,0.082,0,0.082,0
			C406.123,640.805,406.123,640.805,406.123,640.805z M406.531,641.294c0,0.082-0.082,0.082-0.082,0.082s-0.082,0-0.082-0.082
			l-0.653,0.245c0,0,0.49-0.245,0.653-0.245l0,0C406.367,641.213,406.449,641.213,406.531,641.294
			C406.531,641.213,406.531,641.294,406.531,641.294z"/>
	</g>
	<g>
		<path fill="#F3DADC" d="M334.939,685.376c-0.082-0.082-0.082-0.082-0.245-0.082s-0.327,0.082-0.327,0.164
			c0,0.081,0.082,0.244,0.245,0.244s0.327-0.081,0.327-0.163V685.376c0.571,0.245,1.714-0.163,2.204-0.326v0.081
			c-0.245,0.571-0.245,0.816-0.245,0.898c-1.388,1.469-7.51,2.041-6.612-1.715c0.816-3.51,5.061-1.306,6.204-0.652
			c0.082,0.081,0.082,0.571,0.653,0.979l0.082,0.408L334.939,685.376z"/>
		<path fill="#F3DADC" d="M339.102,686.601c0-0.082-0.653-0.408-0.816-0.816l-0.49,0.408c-0.571-0.408-0.979-0.082-1.061-0.082
			c-0.98,0.49-3.429,2.204-1.959,4.979c0.653,0.98,2.694,1.062,2.694,1.062S341.306,690.927,339.102,686.601z M338.123,686.11
			c0,0,0,1.796-0.408,2.286h0.082c0.082,0.082,0.082,0.245,0,0.408s-0.245,0.245-0.327,0.163s-0.082-0.245,0-0.408
			c0.082-0.081,0.082-0.163,0.164-0.163L338.123,686.11z"/>
		<path fill="#F3DADC" d="M338.694,683.09c0,0.082-0.408,0.245-0.408,0.49l-0.653,0.163l-0.653-1.796
			c0.082-0.081,0.082-0.163,0.082-0.245c0-0.163-0.082-0.326-0.245-0.326c-0.082,0-0.163,0.163-0.163,0.326
			c0,0.164,0.082,0.327,0.245,0.327h0.082c-0.082,0.408,0.327,1.225,0.653,1.714l-0.245,0.082c-0.245-0.245-0.653-0.163-0.653-0.163
			c-2.286-1.307-2.531-4.327-2.531-4.327s0.245-3.837,4.163-1.796C340.082,679.172,339.021,682.274,338.694,683.09z"/>
		<path fill="#F3DADC" d="M340.082,684.723c-0.082,0-0.653,0.327-0.816,0.245l-0.245,0.653c0.163,0.245,0,0.408,0.082,0.489
			c0.245,0.898,1.633,4.898,5.061,3.837c1.306-0.245,1.714-2.612,1.714-2.612S346.204,684.314,340.082,684.723z M340.979,688.151
			c-0.082,0.082-0.245-0.081-0.245-0.245c-0.082-0.081-0.082-0.163,0-0.244l-1.306-1.96c0,0,1.306,1.225,1.306,1.878l0.082-0.082
			c0.082-0.081,0.245,0.082,0.245,0.245C341.061,687.988,341.061,688.151,340.979,688.151z"/>
		<path fill="#F3DADC" d="M345.306,680.151c-0.327-1.062-1.714-1.551-1.714-1.551s-2.612-1.143-4.898,4.326
			c0.245,0.245,0.245,0.816,0.082,0.735l0.653,0.734c0.326-0.163,0.653,0.082,0.653,0
			C341.306,684.396,346.041,683.417,345.306,680.151z M341.225,682.438c-0.082,0.081-0.164,0.081-0.245,0.081l-1.551,1.796
			c0,0,0.898-1.551,1.469-1.796c0,0-0.082,0-0.082-0.081c-0.082-0.082,0-0.245,0.163-0.327c0.164-0.081,0.327-0.081,0.408,0
			C341.469,682.11,341.306,682.355,341.225,682.438z"/>
		<path fill="#F3DADC" d="M339.918,684.968c0-0.816-0.735-1.47-1.633-1.47s-1.551,0.653-1.551,1.552
			c0,0.897,0.734,1.469,1.632,1.469C339.184,686.438,339.918,685.784,339.918,684.968z M337.388,684.396l0.327,0.49
			C337.796,684.886,337.469,684.56,337.388,684.396c-0.082,0.082-0.082,0.082-0.082,0.082c-0.082,0-0.082-0.082-0.164-0.082
			c-0.082-0.082,0.082-0.082,0.082-0.082C337.306,684.233,337.388,684.314,337.388,684.396
			C337.469,684.314,337.388,684.314,337.388,684.396z M338.204,685.294c0,0,0,0.653-0.408,0.816h0.082c0.082,0,0.082,0.082,0,0.082
			c-0.082,0.082-0.245,0.082-0.327,0.082c-0.082,0-0.082-0.082,0-0.082c0.082-0.082,0.082-0.082,0.164-0.082L338.204,685.294z
			 M339.021,684.233c-0.082,0.081-0.082,0.081-0.082,0l-0.571,0.816c0,0,0.245-0.653,0.49-0.816l0,0
			c-0.082-0.082-0.082-0.163,0-0.163s0.082-0.082,0.164,0C339.021,684.07,339.021,684.151,339.021,684.233z M339.673,684.886
			c-0.082,0.082-0.082,0.082-0.163,0.082s-0.082,0-0.082-0.082l-0.98,0.327c0,0,0.816-0.408,0.98-0.408c0,0,0,0,0-0.082
			c0.082-0.081,0.082-0.081,0.163-0.081C339.673,684.805,339.673,684.805,339.673,684.886z"/>
	</g>
	<g>
		<path fill="#F3DADC" d="M305.551,606.846c-0.082,0-0.163,0-0.245,0.081c-0.164,0.082-0.245,0.245-0.164,0.327
			c0.082,0.081,0.245,0.081,0.327,0c0.082-0.082,0.245-0.245,0.164-0.327C305.714,606.927,305.714,606.846,305.551,606.846
			c0.49-0.245,1.143-1.225,1.388-1.633l0.082,0.081c0.082,0.49,0.245,0.735,0.245,0.816c-0.245,1.878-4.408,6.123-5.877,2.939
			c-1.306-2.857,3.021-4,4.245-4.327c0.082,0,0.326,0.327,0.979,0.245l0.245,0.245L305.551,606.846z"/>
		<path fill="#F3DADC" d="M309.388,605.05c-0.082,0-0.735,0.163-0.979,0l-0.163,0.652c-0.653,0.082-0.816,0.572-0.816,0.653
			c-0.408,0.979-1.306,3.674,1.306,4.571c1.061,0.245,2.612-0.979,2.612-0.979S313.469,606.601,309.388,605.05z M308.408,605.376
			c0,0,0.979,1.143,0.979,1.796c0,0,0.082,0,0.082-0.082c0.082,0,0.245,0.082,0.245,0.245s-0.082,0.245-0.082,0.327
			c-0.082,0-0.245-0.082-0.245-0.245c0-0.082,0-0.163,0.082-0.245L308.408,605.376z"/>
		<path fill="#F3DADC" d="M307.102,602.927c0,0.082-0.163,0.408-0.082,0.653l-0.408,0.49l-1.551-0.816
			c0-0.082-0.082-0.082-0.082-0.245c-0.082-0.082-0.245-0.163-0.327-0.082c-0.082,0.082-0.082,0.245,0.082,0.327
			c0.082,0.081,0.245,0.163,0.326,0.081c0,0,0-0.081,0.082-0.081c0.245,0.326,0.979,0.652,1.469,0.734l-0.163,0.163
			c-0.245,0-0.572,0.245-0.653,0.245c-2.449,0.571-4.245-1.307-4.245-1.307s-1.877-2.693,2.123-3.836
			C305.959,599.498,306.939,602.192,307.102,602.927z"/>
		<path fill="#F3DADC" d="M309.061,603.172c-0.082,0.082-0.245,0.653-0.408,0.653l0.164,0.653c0.245,0.081,0.245,0.244,0.245,0.326
			c0.653,0.408,4,2.204,5.878-0.653c0.898-0.979-0.164-2.775-0.164-2.775S313.388,599.09,309.061,603.172z M311.592,604.968
			c-0.082,0.082-0.245,0.082-0.327,0s-0.082-0.082-0.163-0.163l-2.041-0.49c0,0,1.633,0.082,2.041,0.408v-0.081
			c0.082-0.082,0.245-0.082,0.327,0C311.592,604.723,311.673,604.805,311.592,604.968z"/>
		<path fill="#F3DADC" d="M310.449,596.805c-0.816-0.49-2.041,0.081-2.041,0.081s-2.612,0.898-1.143,5.96
			c0.245,0.081,0.653,0.408,0.408,0.408l0.898,0.081c0.082-0.326,0.49-0.408,0.49-0.408
			C309.796,602.192,312.816,598.601,310.449,596.805z M308.571,600.886c-0.082,0.082-0.082,0.164-0.163,0.245l-0.163,2.204
			c0,0-0.245-1.551,0.082-2.122h-0.082c-0.082,0-0.082-0.163-0.082-0.327c0.082-0.163,0.164-0.244,0.245-0.244
			C308.653,600.642,308.653,600.723,308.571,600.886z"/>
		<path fill="#F3DADC" d="M309.061,603.417c-0.408-0.571-1.306-0.49-2.041,0.081c-0.653,0.572-0.816,1.47-0.327,2.041
			s1.306,0.49,2.041-0.081C309.388,604.886,309.551,603.988,309.061,603.417z M306.939,604.642l0.571,0.081
			C307.429,604.723,307.021,604.723,306.939,604.642c0,0.081,0,0.081-0.082,0.081c-0.082,0.082-0.082,0.082-0.163,0
			c-0.082-0.081-0.082-0.081,0-0.163C306.775,604.479,306.857,604.479,306.939,604.642
			C306.939,604.56,306.939,604.642,306.939,604.642z M308,604.723c0,0,0.327,0.408,0.163,0.816c0,0,0.082,0,0.082-0.081
			c0.082-0.082,0.082,0,0.082,0.081c-0.082,0.082-0.082,0.245-0.245,0.245c-0.082,0.082-0.082,0-0.082-0.082
			c0-0.081,0.082-0.081,0.082-0.163L308,604.723z M308,603.58c0,0.082-0.082,0.082-0.082,0.082l0.082,0.816
			c0,0-0.245-0.572-0.082-0.816c0,0,0,0-0.082,0c-0.082,0-0.082-0.082-0.082-0.082c0-0.082,0.082-0.082,0.164-0.082
			S308,603.498,308,603.58z M308.816,603.58c0,0.082,0,0.082-0.082,0.163h-0.082l-0.49,0.816c0,0,0.327-0.816,0.49-0.816
			c0,0,0,0,0-0.081C308.735,603.58,308.735,603.58,308.816,603.58C308.735,603.498,308.816,603.498,308.816,603.58z"/>
	</g>
	<g>
		<path fill="#F3DADC" d="M453.796,708.233c0-0.082-0.082-0.082-0.082-0.082c-0.082-0.081-0.245-0.081-0.245-0.081
			c-0.082,0.081,0,0.163,0.082,0.244c0.082,0.082,0.245,0.082,0.245,0.082C453.796,708.314,453.796,708.314,453.796,708.233
			c0.245,0.326,1.061,0.489,1.306,0.571v0.081c-0.327,0.245-0.408,0.408-0.408,0.408c-1.306,0.327-4.979-1.388-3.184-3.265
			c1.714-1.715,3.265,0.979,3.755,1.796c0,0.081-0.163,0.326,0.082,0.816l-0.082,0.244L453.796,708.233z"/>
		<path fill="#F3DADC" d="M455.755,710.355c0-0.081-0.245-0.408-0.163-0.653l-0.408,0.082c-0.163-0.408-0.49-0.408-0.571-0.408
			c-0.735,0-2.775,0.082-2.857,2.122c0.082,0.816,1.143,1.552,1.143,1.552S455.592,713.539,455.755,710.355z M455.347,709.784
			c0,0-0.653,0.979-0.979,1.143c0,0,0,0,0.082,0.082c0.082,0.081,0,0.163-0.082,0.245c-0.082,0.081-0.245,0.081-0.245,0
			c-0.082-0.082,0-0.164,0.082-0.245c0.082-0.082,0.082-0.082,0.163-0.082L455.347,709.784z"/>
		<path fill="#F3DADC" d="M456.735,708.233c0,0-0.245,0-0.408,0.081l-0.408-0.081l0.245-1.225c0.082,0,0.082-0.082,0.082-0.082
			c0.082-0.081,0.082-0.245,0-0.245c-0.082-0.081-0.164,0-0.245,0.082s-0.082,0.245,0,0.245c0,0,0,0,0.082,0
			c-0.163,0.245-0.245,0.816-0.245,1.143l-0.164-0.081c-0.082-0.245-0.245-0.245-0.327-0.327c-0.816-1.551,0-3.265,0-3.265
			s1.47-2.041,3.021,0.407C458.857,706.519,457.225,707.906,456.735,708.233z"/>
		<path fill="#F3DADC" d="M456.979,709.621c-0.082,0-0.49,0-0.571-0.082L456,709.784c0,0.163-0.163,0.245-0.163,0.245
			c-0.164,0.571-0.653,3.265,1.632,3.837c0.816,0.326,1.877-0.816,1.877-0.816S460.571,711.58,456.979,709.621z M456.245,711.906
			c-0.082,0-0.082-0.081-0.082-0.244c0-0.082,0.082-0.082,0.082-0.164l-0.082-1.551c0,0,0.245,1.143,0.082,1.551h0.082
			c0.082,0,0.082,0.082,0.082,0.245C456.408,711.825,456.408,711.906,456.245,711.906z"/>
		<path fill="#F3DADC" d="M461.469,708.886c0.164-0.734-0.408-1.388-0.408-1.388s-1.143-1.551-4.326,0.816
			c0.082,0.245-0.164,0.571-0.245,0.408l0.082,0.653c0.245,0,0.327,0.245,0.408,0.245
			C457.796,709.866,460.816,710.927,461.469,708.886z M458.367,708.723c-0.082,0-0.082,0-0.163-0.081l-1.551,0.489
			c0,0,0.98-0.571,1.47-0.489c0,0,0,0,0-0.082c0-0.081,0.082-0.081,0.245-0.081c0.164,0,0.245,0.081,0.245,0.081
			C458.612,708.723,458.531,708.723,458.367,708.723z"/>
		<path fill="#F3DADC" d="M456.816,709.702c0.245-0.408,0.082-1.061-0.408-1.388c-0.49-0.244-1.143-0.163-1.388,0.245
			c-0.245,0.408-0.082,1.062,0.408,1.388C455.918,710.274,456.49,710.192,456.816,709.702z M455.592,708.479l0.082,0.407
			C455.592,708.886,455.51,708.642,455.592,708.479c-0.082,0-0.082,0-0.082,0c-0.082,0-0.082-0.082-0.082-0.082
			c0-0.082,0.082-0.082,0.082-0.082C455.592,708.396,455.592,708.479,455.592,708.479L455.592,708.479z M455.755,709.294
			c0,0-0.245,0.327-0.49,0.245c0,0,0,0,0.082,0c0.082,0.082,0.082,0.082-0.082,0.082c-0.082,0-0.163-0.082-0.245-0.082
			c-0.082-0.081-0.082-0.081,0.082-0.081c0.082,0,0.082,0,0.082,0L455.755,709.294z M456.49,708.968
			C456.408,708.968,456.408,708.968,456.49,708.968l-0.653,0.163c0,0,0.326-0.326,0.571-0.245l0,0c0-0.081,0-0.081,0.082-0.081
			s0.082,0,0.082,0.081C456.571,708.886,456.571,708.968,456.49,708.968z M456.653,709.539c-0.082,0-0.082,0-0.082,0v-0.081
			l-0.653-0.082c0,0,0.653,0,0.653,0.082l0,0C456.653,709.539,456.653,709.539,456.653,709.539
			C456.735,709.539,456.735,709.539,456.653,709.539z"/>
	</g>
	<g>
		<path fill="#F0BCC8" d="M350.367,650.274c-0.082,0.081-0.245,0.163-0.326,0.244c-0.164,0.245-0.245,0.571-0.082,0.653
			c0.082,0.082,0.408,0,0.653-0.245c0.245-0.245,0.245-0.571,0.082-0.652l-0.082-0.082c0.653-0.653,1.143-2.857,1.306-3.674
			l0.082,0.082c0.571,0.816,0.979,1.062,0.979,1.143c0.816,3.347-3.837,13.307-8.327,8.816c-4.082-4.081,2.694-8.897,4.653-10.122
			c0.082-0.082,0.816,0.326,1.959-0.164l0.653,0.245L350.367,650.274z"/>
		<path fill="#F0BCC8" d="M355.918,644.723c-0.082,0-1.143,0.735-1.714,0.571l0.082,1.144c-0.979,0.489-0.979,1.469-0.979,1.551
			c-0.082,1.878,0.082,7.184,5.225,7.102c2.041-0.244,3.836-3.347,3.836-3.347S363.837,644.805,355.918,644.723z M354.286,645.866
			c0,0,2.531,1.388,2.857,2.448c0-0.081,0.082-0.081,0.082-0.081c0.163-0.082,0.408,0,0.571,0.245c0.163,0.244,0.082,0.571,0,0.652
			c-0.163,0.082-0.408,0-0.571-0.245c-0.082-0.163-0.082-0.244-0.082-0.407L354.286,645.866z"/>
		<path fill="#F0BCC8" d="M350.612,642.438c0.082,0.081-0.082,0.816,0.245,1.143l-0.326,1.062l-3.102-0.408
			c-0.082-0.082-0.164-0.245-0.245-0.245c-0.245-0.082-0.571-0.082-0.653,0.082c-0.082,0.163,0.082,0.408,0.326,0.571
			c0.245,0.163,0.572,0.081,0.653-0.082c0-0.081,0-0.081,0-0.081c0.571,0.407,2.041,0.407,2.939,0.407l-0.082,0.408
			c-0.49,0.245-0.816,0.816-0.898,0.898c-4,2.53-8.245,0.408-8.245,0.408s-5.062-3.511,1.225-8
			C346.367,637.213,349.714,641.294,350.612,642.438z"/>
		<path fill="#F0BCC8" d="M354.123,641.621c-0.082,0.081-0.082,1.306-0.245,1.469l0.653,0.98c0.408-0.082,0.653,0.326,0.734,0.326
			c1.47,0.245,8.245,1.306,9.714-4.816c0.898-2.286-2.041-4.734-2.041-4.734S359.021,631.825,354.123,641.621z M359.673,643.09
			c-0.082,0.164-0.327,0.245-0.653,0.245c-0.164-0.081-0.245-0.081-0.327-0.245l-3.918,0.408c0,0,2.857-0.979,3.837-0.652
			c0-0.082,0-0.082,0-0.082c0.082-0.163,0.327-0.245,0.653-0.245C359.51,642.601,359.673,642.927,359.673,643.09z"/>
		<path fill="#F0BCC8" d="M352.49,629.784c-1.796-0.245-3.592,1.306-3.592,1.306s-4,3.185,1.714,11.103
			c0.571-0.082,1.306,0.326,1.143,0.489l1.633-0.407c0.082-0.653,0.653-0.98,0.653-1.062
			C354.694,639.498,357.633,631.335,352.49,629.784z M351.918,638.029c0,0.163-0.082,0.326-0.082,0.408l1.143,3.837
			c0,0-1.388-2.612-1.225-3.756c-0.082,0-0.082,0.082-0.082,0.082c-0.163,0-0.327-0.245-0.327-0.571
			c0-0.327,0.164-0.571,0.327-0.653C351.755,637.458,351.918,637.702,351.918,638.029z"/>
		<path fill="#F0BCC8" d="M354.286,642.11c-1.143-0.652-2.694,0-3.51,1.307c-0.816,1.388-0.408,3.021,0.653,3.673
			c1.143,0.653,2.694,0,3.51-1.306C355.755,644.479,355.429,642.764,354.286,642.11z M351.265,645.458l0.98-0.164
			C352.245,645.294,351.51,645.621,351.265,645.458c0.082,0.081,0.082,0.163,0,0.163c-0.082,0.081-0.163,0.163-0.245,0.081
			c-0.082-0.081-0.082-0.163-0.082-0.244c0.082-0.082,0.164-0.164,0.245-0.082C351.184,645.458,351.265,645.458,351.265,645.458z
			 M353.143,645.05c0,0,0.816,0.489,0.735,1.306c0-0.081,0.082-0.081,0.082-0.081c0.082-0.082,0.245-0.082,0.245,0.081
			s-0.082,0.408-0.245,0.571c-0.082,0.082-0.245,0.082-0.245-0.081c0-0.082,0-0.245,0.082-0.327L353.143,645.05z M352.408,643.009
			c0,0.081,0,0.163-0.082,0.245l0.653,1.388c0,0-0.816-0.816-0.653-1.388h-0.082c-0.082,0-0.245-0.082-0.245-0.164
			c0-0.081,0.082-0.244,0.163-0.244C352.245,642.764,352.408,642.846,352.408,643.009z M353.959,642.519
			c0.082,0.082,0.082,0.245,0,0.327c-0.082,0.081-0.082,0.081-0.082,0.081l-0.408,1.715c0,0,0.082-1.552,0.327-1.796
			c0,0,0-0.082-0.082-0.082c-0.082-0.082-0.082-0.245,0-0.326C353.796,642.438,353.877,642.438,353.959,642.519z"/>
	</g>
</g>
<path fill="#FFFFFF" d="M197.877,576.314c3.265-10.612,20.735-20.408,32.408-13.306c26.123-21.143,47.918-2.123,47.918-2.123
	s12-5.469,11.592,6.612c0,0,15.429,4.98,3.347,18.776c6.531,3.836,7.103,24.815-10.775,19.347
	c-22.367,16.653-32.979-2.286-32.979-2.286s-11.021,14.694-30.775,4.898c-16.164,6.367-22.204-3.674-22.204-3.674
	s-18.775-2.204-15.755-18.122C184.979,571.498,197.877,576.314,197.877,576.314z"/>
<g>
	<path fill="#C4C4C4" d="M633.959,723.172c0,0-1.796,0.571-5.143,1.551s-8.326,2.204-14.694,3.756
		c-6.285,1.551-14.122,3.184-23.021,4.734c-8.979,1.551-19.102,3.102-30.203,4.163c-11.103,0.979-23.266,1.633-36.082,1.062
		c-6.449-0.245-12.979-0.898-19.674-1.959c-6.693-1.062-13.469-2.612-20.163-4.898c-6.694-2.286-13.306-5.225-19.347-9.306
		c-6.123-4-11.674-9.062-16.164-15.103s-7.755-12.897-9.877-20.245c-0.571-1.796-0.979-3.673-1.388-5.469
		c-0.164-0.979-0.408-1.878-0.49-2.776l-0.408-2.775c-0.245-1.877-0.653-3.592-1.062-5.388c-0.408-1.796-0.898-3.51-1.388-5.225
		c-2.204-6.938-5.469-13.551-9.632-19.428c-4.245-5.878-9.47-10.939-15.266-15.021c-5.796-4.164-12.245-7.348-18.857-9.633
		c-6.612-2.367-13.469-3.755-20.245-4.408c-6.775-0.653-13.551-0.571-20,0.408c-6.53,0.897-12.653,2.693-18.204,5.388
		c-1.306,0.653-2.775,1.388-4,2.204l-0.979,0.653l-0.979,0.652c-0.653,0.408-1.306,0.816-2.041,1.225
		c-2.775,1.633-5.551,3.103-8.408,4.327c-2.857,1.225-5.796,2.204-8.816,2.775c-2.939,0.571-6.041,0.816-8.98,0.408
		c-2.938-0.327-5.796-1.307-8.326-2.775c-2.449-1.388-4.572-3.266-6.286-5.225c-3.51-4-5.714-8.571-7.429-12.816
		c-3.266-8.653-4.653-16.49-5.633-23.021c-0.898-6.53-1.306-11.592-1.714-15.021c-0.163-1.714-0.408-3.102-0.571-3.918
		c-0.163-0.898-0.327-1.307-0.327-1.307l0.327-0.163c0,0,0.245,0.408,0.408,1.306c0.245,0.898,0.49,2.204,0.816,3.919
		c0.571,3.51,1.224,8.489,2.367,14.856c0.653,3.185,1.306,6.694,2.367,10.449c0.98,3.756,2.204,7.756,4,11.837
		c1.714,4.082,4,8.326,7.347,11.837c1.714,1.796,3.592,3.347,5.796,4.571c2.204,1.143,4.653,1.959,7.184,2.204
		c2.612,0.245,5.225,0.082,7.918-0.571c2.694-0.571,5.388-1.551,8.082-2.775c2.694-1.144,5.225-2.612,7.918-4.163
		c0.653-0.408,1.306-0.816,1.877-1.225l0.979-0.653l0.98-0.653c1.388-0.897,2.775-1.714,4.326-2.449
		c2.939-1.551,6.123-2.775,9.388-3.673c3.266-0.979,6.612-1.715,10.041-2.204c6.857-0.979,13.877-1.143,20.979-0.49
		c7.102,0.735,14.204,2.286,21.143,4.735c6.938,2.448,13.633,5.959,19.673,10.285c6.123,4.408,11.51,9.878,15.918,16.082
		c4.327,6.204,7.755,13.225,9.877,20.489c0.571,1.878,0.979,3.674,1.469,5.47c0.408,1.878,0.816,3.755,0.98,5.633l0.408,2.775
		c0.082,0.897,0.327,1.796,0.49,2.694c0.408,1.796,0.816,3.592,1.306,5.306c1.877,7.021,5.061,13.633,9.224,19.429
		c4.164,5.796,9.47,10.775,15.347,14.693c5.796,4,12.245,6.939,18.775,9.225c6.531,2.286,13.144,3.837,19.674,4.979
		c6.531,1.144,13.062,1.796,19.429,2.204c12.734,0.735,24.816,0.327,35.919-0.571c11.102-0.897,21.224-2.204,30.203-3.755
		c8.98-1.47,16.653-3.021,23.103-4.408c6.367-1.388,11.347-2.612,14.693-3.51c3.348-0.898,5.144-1.389,5.144-1.389L633.959,723.172z
		"/>
</g>
<polygon fill="#FF99A1" points="242.531,479.498 210.367,536.968 278.857,616.479 300.408,511.254 "/>
<g>
	
		<line fill="none" stroke="#FFFFFF" stroke-width="5" stroke-miterlimit="10" x1="210.775" y1="537.131" x2="300.898" y2="511.417"/>
	<line fill="none" stroke="#FFFFFF" stroke-width="5" stroke-miterlimit="10" x1="242.939" y1="479.662" x2="279.265" y2="616.56"/>
</g>
<path fill="#FFFFFF" d="M619.674,623.335c-14.123,10.449-25.062,0-25.062,0s-12.653,2.939-10.204-6.285
	c0,0-11.674-1.796-1.143-8.735c-2.939-3.265,0.979-11.673,10.285-8.326c5.633-7.918,24.898-11.674,33.307,0.163
	c9.388,4.734,0.489,9.388,0.489,9.388S638.53,625.621,619.674,623.335z"/>
</svg>
