<?xml version="1.0" encoding="utf-8"?>
<!-- Generator: Adobe Illustrator 18.1.1, SVG Export Plug-In . SVG Version: 6.00 Build 0)  -->
<svg version="1.1" id="Layer_1" xmlns="http://www.w3.org/2000/svg" xmlns:xlink="http://www.w3.org/1999/xlink" x="0px" y="0px"
	 viewBox="109.4 84 766.6 433" enable-background="new 109.4 84 766.6 433" xml:space="preserve">
<path opacity="0.43" fill="#FFFFFF" enable-background="new    " d="M396,156.7c-10.3,4.3-26.8,8.8-39.4,0.3
	c-29.8,21.9-52.9,0-52.9,0s-29.4,12.4-44,0c0,0-17.4-35.3,23.2-29.4c-9.1-10.4-1-27,18.4-20c11.9-16.7,49-11.5,70.3,0.3
	c16.3-0.9,12.9,14.5,12.9,14.5s13.6-1.7,11.4,11.5C410,145.3,396,156.7,396,156.7z"/>
<polygon fill="#7ACCBE" points="876,513.9 109,513.9 109,464.9 876,430.2 "/>
<polygon fill="#3DA8A4" points="876,517 109,517 109,468 876,433.3 "/>
<path opacity="0.52" fill="#FFFFFF" enable-background="new    " d="M795.5,230.9c-10.1,4.2-22.6-1.4-34.9-9.7
	c-9.9,7.3-27.8,8.7-32.9-4.9c-14.7,13-38.1,8-25.9-10.2c0,0-20.1-1-8.2-22.2c-2.4-3.8-6.2-17.9,13-11.1c11.7-16.4,35.5,4.1,35.5,4.1
	s33.7-32.2,57.2,1.3c18.2,8.8,12,19,0.8,25.8C816.7,222.3,795.5,230.9,795.5,230.9z"/>
<g>
	<rect x="165.1" y="394" fill="#7ACCBE" width="131.9" height="17.5"/>
	<rect x="148.6" y="411.5" fill="#7ACCBE" width="164.1" height="3.7"/>
	<rect x="151.8" y="414.3" fill="#7ACCBE" width="158.9" height="8.7"/>
	<rect x="146.3" y="459.1" fill="#7ACCBE" width="167.2" height="8.7"/>
	<polygon fill="#7ACCBE" points="182.9,460.1 176.6,460.1 176.6,425.9 175.9,424 175.9,421.4 183.7,421.4 183.7,424 182.9,426.2 	
		"/>
	<polygon fill="#7ACCBE" points="196.5,460.6 190.1,460.6 190.1,426.3 189.5,424.5 189.5,421.8 197.3,421.8 197.3,424.4 
		196.5,426.6 	"/>
	<polygon fill="#7ACCBE" points="210.6,460.6 204.2,460.6 204.2,426.3 203.6,424.5 203.6,421.8 211.4,421.8 211.4,424.4 
		210.6,426.6 	"/>
	<polygon fill="#7ACCBE" points="224.7,460.6 218.3,460.6 218.3,426.3 217.7,424.5 217.7,421.8 225.5,421.8 225.5,424.4 
		224.7,426.6 	"/>
	<polygon fill="#7ACCBE" points="239,460.6 232.7,460.6 232.7,426.3 232,424.5 232,421.8 239.8,421.8 239.8,424.4 239,426.6 	"/>
	<polygon fill="#7ACCBE" points="253,460.6 246.7,460.6 246.7,426.3 246,424.5 246,421.8 253.8,421.8 253.8,424.4 253,426.6 	"/>
	<polygon fill="#7ACCBE" points="266.9,460.6 260.6,460.6 260.6,426.3 260,424.5 260,421.8 267.8,421.8 267.8,424.4 266.9,426.6 	
		"/>
	<polygon fill="#7ACCBE" points="280.4,460.6 274.1,460.6 274.1,426.3 273.4,424.5 273.4,421.8 281.2,421.8 281.2,424.4 
		280.4,426.6 	"/>
	<polygon fill="#7ACCBE" points="294.2,460.6 287.8,460.6 287.8,426.3 287.2,424.5 287.2,421.8 295,421.8 295,424.4 294.2,426.6 	
		"/>
	<polygon fill="#7ACCBE" points="169.4,460.1 163,460.1 163,425.9 162.4,424 162.4,421.4 170.2,421.4 170.2,424 169.4,426.2 	"/>
	<rect x="151.8" y="421.4" fill="#7ACCBE" width="6.4" height="38.7"/>
	<rect x="301.7" y="421.4" fill="#7ACCBE" width="9" height="38.7"/>
</g>
<g>
	<rect x="162.8" y="394.6" fill="#3DA8A4" width="131.9" height="17.5"/>
	<rect x="146.3" y="412.1" fill="#3DA8A4" width="164.1" height="3.7"/>
	<rect x="149.5" y="414.9" fill="#3DA8A4" width="158.9" height="8.7"/>
	<rect x="144" y="459.6" fill="#3DA8A4" width="167.2" height="8.7"/>
	<polygon fill="#3DA8A4" points="180.6,460.7 174.3,460.7 174.3,426.5 173.6,424.6 173.6,422 181.4,422 181.4,424.6 180.6,426.8 	
		"/>
	<polygon fill="#3DA8A4" points="194.2,461.1 187.8,461.1 187.8,426.9 187.3,425.1 187.3,422.4 195,422.4 195,425 194.2,427.2 	"/>
	<polygon fill="#3DA8A4" points="208.3,461.1 201.9,461.1 201.9,426.9 201.3,425.1 201.3,422.4 209,422.4 209,425 208.3,427.2 	"/>
	<polygon fill="#3DA8A4" points="222.4,461.1 216,461.1 216,426.9 215.5,425.1 215.5,422.4 223.2,422.4 223.2,425 222.4,427.2 	"/>
	<polygon fill="#3DA8A4" points="236.7,461.1 230.4,461.1 230.4,426.9 229.7,425.1 229.7,422.4 237.5,422.4 237.5,425 236.7,427.2 	
		"/>
	<polygon fill="#3DA8A4" points="250.7,461.1 244.4,461.1 244.4,426.9 243.7,425.1 243.7,422.4 251.5,422.4 251.5,425 250.7,427.2 	
		"/>
	<polygon fill="#3DA8A4" points="264.7,461.1 258.3,461.1 258.3,426.9 257.7,425.1 257.7,422.4 265.4,422.4 265.4,425 264.7,427.2 	
		"/>
	<polygon fill="#3DA8A4" points="278.1,461.1 271.7,461.1 271.7,426.9 271.1,425.1 271.1,422.4 278.9,422.4 278.9,425 278.1,427.2 	
		"/>
	<polygon fill="#3DA8A4" points="291.9,461.1 285.6,461.1 285.6,426.9 284.9,425.1 284.9,422.4 292.7,422.4 292.7,425 291.9,427.2 	
		"/>
	<polygon fill="#3DA8A4" points="167.1,460.7 160.7,460.7 160.7,426.5 160.1,424.6 160.1,422 167.9,422 167.9,424.6 167.1,426.8 	
		"/>
	<rect x="149.5" y="422" fill="#3DA8A4" width="6.4" height="38.7"/>
	<rect x="299.4" y="422" fill="#3DA8A4" width="9" height="38.7"/>
</g>
<g>
	<polygon fill="#7ACCBE" points="684.5,455 654.5,455 658.4,231.9 677.4,231.9 	"/>
	<polygon fill="#7ACCBE" points="667.8,203.6 658.4,231.9 677.3,231.9 	"/>
</g>
<g>
	<polygon fill="#3DA8A4" points="681.3,455.6 651.2,455.6 655.2,232.5 674.2,232.5 	"/>
	<polygon fill="#3DA8A4" points="664.6,204.3 655.2,232.5 674.1,232.5 	"/>
</g>
<g>
	<polygon fill="#7ACCBE" points="824.8,441.2 731.7,441.2 731.7,412.2 733.3,412.2 737.5,410.3 737.5,407.1 743.2,407.1 
		743.2,410.2 747.7,412.2 804.8,412.2 809.1,410 809.1,406.9 814.9,406.9 814.9,409.8 819.4,412.2 824.8,412.2 	"/>
	<polygon fill="#7ACCBE" points="793.1,419.6 758.4,419.6 757.1,412.2 757.1,409 758.4,406.9 757.8,406.1 758.4,405.3 758.4,394.7 
		793.1,394.7 793.1,405.2 794.2,406.2 793.1,406.9 795,408.9 795,412.6 	"/>
	<rect x="757.1" y="396.2" fill="#7ACCBE" width="37.2" height="0.8"/>
	<path fill="#7ACCBE" d="M791.6,396.9h-31.3c0,0,1.9-7.8,0-9.1h30.5C789.4,391,791.6,396.9,791.6,396.9z"/>
	<path fill="#7ACCBE" d="M772.3,362.6h7.1c0,0-1.7,4.4,0,6.7c0,0-0.6,0.4-0.5,0.9l1.7,1l0.5,2.3c0,0,7.3,4.8,7.1,11.8
		c0,2.1,1.3,1.9,1.3,1.9l1.3,1.9h-30.5l1-1.4c0.9-0.4,1.7-1.6,1.7-1.6s-0.5-9.5,7.3-11.8c1.1-0.3,1-2.3,1-2.3l1.3-1.4l-0.5-1.2
		C772,369,774.2,367.6,772.3,362.6z"/>
	<path fill="#7ACCBE" d="M776.1,352.2c0,0,0.9,2.3,0.5,4.9c-0.4,2.7,1,4.5,1,4.5l0.7,1h-5.5l0.8-1.1l1.1-1.6l0.1-2.1
		C774.8,357.9,774.3,352.2,776.1,352.2z"/>
</g>
<g>
	<polygon fill="#3DA8A4" points="822.7,443.2 729.6,443.2 729.6,414.1 731.3,414.1 735.4,412.3 735.4,409.1 741.2,409.1 
		741.2,412.2 745.7,414.1 802.7,414.1 807,411.9 807,408.8 812.8,408.8 812.8,411.8 817.4,414.1 822.7,414.1 	"/>
	<polygon fill="#3DA8A4" points="791,421.6 756.3,421.6 755,414.1 755,411 756.3,408.8 755.7,408 756.3,407.3 756.3,396.7 
		791,396.7 791,407.2 792.2,408.1 791,408.8 792.9,410.8 792.9,414.6 	"/>
	<rect x="755" y="398.1" fill="#3DA8A4" width="37.2" height="0.8"/>
	<path fill="#3DA8A4" d="M789.5,398.9h-31.3c0,0,1.9-7.8,0-9.1h30.5C787.4,393,789.5,398.9,789.5,398.9z"/>
	<path fill="#3DA8A4" d="M770.2,364.6h7.1c0,0-1.7,4.4,0,6.7c0,0-0.6,0.4-0.5,0.9l1.7,1l0.5,2.3c0,0,7.3,4.8,7.1,11.8
		c0,2.1,1.3,1.9,1.3,1.9l1.3,1.9h-30.5l1-1.4c0.9-0.4,1.7-1.6,1.7-1.6s-0.5-9.5,7.3-11.8c1.1-0.3,1-2.3,1-2.3l1.3-1.4l-0.5-1.2
		C769.9,371,772.2,369.6,770.2,364.6z"/>
	<path fill="#3DA8A4" d="M774,354.2c0,0,0.9,2.3,0.5,4.9c-0.4,2.7,1,4.5,1,4.5l0.7,1h-5.5l0.8-1.1l1.1-1.6l0.1-2.1
		C772.8,359.8,772.2,354.2,774,354.2z"/>
</g>
<g>
	<g>
		<path fill="#F0BCC8" d="M722.4,377.8c-0.1,0.1-0.4,0.2-0.6,0.2c-0.5,0-0.9-0.2-0.9-0.5c0-0.3,0.3-0.5,0.8-0.6
			c0.5-0.1,0.9,0.2,0.9,0.5c0,0.1,0,0.1-0.1,0.1c1.4-0.3,4.5,1,5.7,1.4v-0.1c-0.5-1.5-0.5-2.3-0.6-2.4c-3.5-4.2-19.8-6.8-18,3.6
			c1.6,9.5,13.3,4.4,16.5,2.7c0.1-0.1,0.3-1.4,1.9-2.5l0.2-1.2L722.4,377.8z"/>
		<path fill="#F0BCC8" d="M730.7,359.6c0,0-5.5-0.3-7.5,2.3c-4.4,7.2,1.9,12.2,4.5,13.8c0.2,0.1,1.3,1,2.8,0.1l1.3,1.2
			c0.3-1,2.1-1.8,2.2-1.9C740.5,363.8,730.7,359.6,730.7,359.6z M730.3,369.9c-0.1-0.1-0.3-0.3-0.4-0.5c-0.2-0.4-0.1-0.9,0.1-1
			c0.3-0.1,0.6,0.1,0.8,0.5c0.2,0.4,0.1,0.9-0.1,1c-0.1,0-0.1,0-0.2,0c1,1.5,0.6,6.2,0.6,6.2L730.3,369.9z"/>
		<path fill="#F0BCC8" d="M732.3,384.4c-0.1-0.1-1-0.7-1.1-1.4l-1.6-0.5l-2.1,4.7c0.1,0.2,0.1,0.4,0.1,0.7c-0.1,0.5-0.3,0.8-0.6,0.8
			c-0.3-0.1-0.5-0.5-0.4-1c0.1-0.5,0.3-0.8,0.6-0.8c0.1,0,0.1,0,0.1,0.1c0-1.2,1.2-3.3,2.1-4.5l-0.6-0.2c-0.7,0.5-1.7,0.3-1.9,0.4
			c-6.4,3.2-7.5,11.1-7.5,11.1s0.1,10.2,11,5.6C735.3,395.3,733,386.8,732.3,384.4z"/>
		<path fill="#F0BCC8" d="M752.2,374.3c0,0-0.6-6.4-4.3-7.2c-8.8-3.5-13.3,6.9-14.2,9.3c0,0.1,0.3,0.8-0.2,1.4l0.6,1.8
			c0.3-0.1,1.9,0.9,2.1,0.9C752.7,382.5,752.2,374.3,752.2,374.3z M739.4,372.3c-0.1,0.5-0.5,0.8-0.8,0.6c-0.1,0-0.1-0.1-0.1-0.1
			c-0.3,1.7-4,4.9-4,4.9l3.9-5.1c-0.1-0.2-0.1-0.4,0.1-0.7c0.1-0.5,0.5-0.8,0.8-0.6C739.4,371.4,739.5,371.8,739.4,372.3z"/>
		<path fill="#F0BCC8" d="M736.5,380.7c-0.2-0.1-1,0.5-1.9-0.1l-1.9,1.9c0.4-0.2,0.3,1.4-0.3,2c5,15.3,12.3,12.6,12.3,12.6
			s3.6-1,4.7-3.8C752.1,384.9,739.4,381.4,736.5,380.7z M739.2,387.7c-0.2,0.2-0.6,0.2-1-0.1c-0.4-0.3-0.5-0.7-0.4-1
			c0.1-0.1,0.1-0.1,0.1-0.1c-1.6-0.8-3.6-5.1-3.6-5.1l3.8,5.1c0.2,0,0.4,0.1,0.6,0.2C739.3,387.1,739.4,387.5,739.2,387.7z"/>
		<path fill="#F0BCC8" d="M731.8,375.4c-2.4-0.2-4.5,1.4-4.7,3.6c-0.2,2.2,1.6,4.1,4,4.3s4.5-1.4,4.7-3.6
			C736,377.5,734.2,375.5,731.8,375.4z M729.1,381c0,0.2-0.2,0.3-0.4,0.3c-0.2,0-0.3-0.2-0.3-0.4c0-0.2,0.2-0.3,0.4-0.3
			c0.1,0,0.1,0.1,0.2,0.1c0.1-0.4,1.1-1.2,1.1-1.2l-1,1.3C729.1,380.9,729.1,381,729.1,381z M730,376.4c-0.2-0.1-0.3-0.1-0.5-0.2
			c-0.2-0.1-0.2-0.3,0.1-0.3c0.3,0,0.6,0.1,0.9,0.3c0.2,0.1,0.2,0.3-0.1,0.3c-0.1,0-0.1,0-0.2,0c1,0.5,1,2.2,1,2.2L730,376.4z
			 M733.1,382c-0.1,0.1-0.3,0.1-0.5,0c-0.1-0.1-0.1-0.3,0-0.5l0.1-0.1c-0.8-0.3-1.2-2.1-1.2-2.1l1.2,2.1c0.1-0.1,0.3,0,0.3,0.1
			C733.3,381.6,733.3,381.9,733.1,382z M734.9,380.1c-0.1,0-0.3-0.1-0.4-0.3v-0.1c-0.5,0.1-2.5-1.2-2.5-1.2l2.5,1.1
			c0-0.1,0.1-0.1,0.1-0.1c0.1,0,0.3,0.1,0.4,0.3C735.1,380,735.1,380.1,734.9,380.1z"/>
	</g>
	<g>
		<path fill="#F0BCC8" d="M756,304.1c-0.1,0.1-0.2,0.1-0.4,0.1c-0.3,0-0.5-0.1-0.5-0.3c0-0.2,0.2-0.3,0.5-0.3c0.3,0,0.5,0.1,0.5,0.3
			c0,0.1,0,0.1,0,0.1c0.8-0.2,2.7,0.5,3.4,0.9v-0.1c-0.3-0.9-0.3-1.4-0.3-1.4c-2.1-2.5-11.7-4-10.6,2.1c1,5.6,7.8,2.6,9.7,1.6
			c0.1-0.1,0.1-0.8,1.1-1.5l0.1-0.7L756,304.1z"/>
		<path fill="#F0BCC8" d="M760.8,293.4c0,0-3.2-0.1-4.4,1.4c-2.6,4.3,1.2,7.2,2.6,8.1c0.1,0.1,0.8,0.6,1.6,0.1l0.8,0.7
			c0.2-0.6,1.2-1.1,1.3-1.1C766.6,295.8,760.8,293.4,760.8,293.4z M760.6,299.4c-0.1-0.1-0.2-0.1-0.3-0.3c-0.1-0.3-0.1-0.5,0.1-0.6
			c0.1-0.1,0.4,0.1,0.5,0.3c0.1,0.3,0.1,0.5-0.1,0.6h-0.1c0.5,0.9,0.3,3.7,0.3,3.7L760.6,299.4z"/>
		<path fill="#F0BCC8" d="M761.8,308c0-0.1-0.6-0.4-0.7-0.8l-1-0.3l-1.2,2.7c0.1,0.1,0.1,0.3,0.1,0.4c-0.1,0.3-0.2,0.5-0.4,0.5
			c-0.2,0-0.3-0.3-0.3-0.5s0.2-0.5,0.4-0.5c0.1,0,0.1,0,0.1,0.1c0-0.7,0.7-1.9,1.2-2.7l-0.4-0.1c-0.4,0.3-1,0.2-1.1,0.2
			c-3.8,1.9-4.4,6.5-4.4,6.5s0.1,6,6.4,3.3C763.5,314.4,762.1,309.4,761.8,308z"/>
		<path fill="#F0BCC8" d="M773.5,302c0,0-0.3-3.8-2.5-4.3c-5.2-2.1-7.8,4.1-8.4,5.4c0,0.1,0.1,0.5-0.1,0.8c0,0,0.3,1,0.4,1
			c0.2-0.1,1.1,0.5,1.2,0.5C773.7,306.8,773.5,302,773.5,302z M765.9,300.8c-0.1,0.3-0.3,0.4-0.5,0.3c0,0-0.1,0-0.1-0.1
			c-0.2,1-2.3,2.9-2.3,2.9l2.3-3c0-0.1,0-0.3,0.1-0.4c0.1-0.3,0.3-0.4,0.5-0.3C766,300.3,766,300.6,765.9,300.8z"/>
		<path fill="#F0BCC8" d="M764.2,305.8c-0.1,0-0.6,0.3-1.1-0.1l-1.1,1.1c0.2-0.1,0.2,0.8-0.2,1.2c2.9,9,7.3,7.4,7.3,7.4
			s2.1-0.6,2.8-2.2C773.4,308.3,766,306.2,764.2,305.8z M765.8,309.9c-0.1,0.1-0.3,0.1-0.6-0.1c-0.2-0.1-0.3-0.4-0.2-0.5l0.1-0.1
			c-0.9-0.5-2.1-3-2.1-3l2.3,3c0.1,0,0.3,0.1,0.4,0.1C765.8,309.5,766,309.8,765.8,309.9z"/>
		<path fill="#F0BCC8" d="M761.5,302.6c-1.4-0.1-2.6,0.8-2.7,2.1s1,2.4,2.3,2.5c1.4,0.1,2.6-0.8,2.7-2.1
			C763.9,303.9,762.9,302.8,761.5,302.6z M759.9,305.9c0,0.1-0.1,0.2-0.3,0.2c-0.1,0-0.2-0.1-0.2-0.2c0-0.1,0.1-0.2,0.3-0.2
			c0.1,0,0.1,0,0.1,0.1c0.1-0.3,0.7-0.7,0.7-0.7L759.9,305.9C759.9,305.9,759.9,305.9,759.9,305.9z M760.4,303.2
			c-0.1,0-0.2-0.1-0.3-0.1c-0.1-0.1-0.1-0.2,0.1-0.2c0.1,0,0.4,0.1,0.5,0.1c0.1,0.1,0.1,0.2-0.1,0.2h-0.1c0.6,0.3,0.5,1.3,0.5,1.3
			L760.4,303.2z M762.3,306.5c-0.1,0.1-0.2,0.1-0.3,0c-0.1-0.1-0.1-0.2,0-0.3c0,0,0,0,0.1-0.1c-0.5-0.1-0.7-1.2-0.7-1.2l0.8,1.2
			c0.1,0,0.1,0,0.2,0.1C762.3,306.3,762.3,306.5,762.3,306.5z M763.3,305.4c-0.1,0-0.2-0.1-0.3-0.2v-0.1c-0.3,0.1-1.4-0.7-1.4-0.7
			l1.4,0.6c0-0.1,0.1-0.1,0.1-0.1c0.1,0,0.2,0.1,0.3,0.2C763.4,305.4,763.4,305.4,763.3,305.4z"/>
	</g>
	<g>
		<path fill="#F0BCC8" d="M815.6,271.2c-0.1,0-0.1,0.1-0.1,0.1c-0.1,0-0.2-0.1-0.2-0.1c0-0.1,0.1-0.1,0.2-0.1
			C815.6,271,815.7,271.1,815.6,271.2C815.7,271.2,815.6,271.2,815.6,271.2c0.4-0.1,1.2,0.2,1.4,0.3l0,0c-0.1-0.3-0.1-0.5-0.1-0.6
			c-0.9-1-4.9-1.6-4.5,0.9c0.4,2.3,3.3,1.1,4,0.7c0.1,0,0.1-0.3,0.5-0.6l0.1-0.3L815.6,271.2z"/>
		<path fill="#F0BCC8" d="M817.6,266.8c0,0-1.4-0.1-1.9,0.5c-1.1,1.8,0.5,3,1.1,3.4c0.1,0,0.3,0.3,0.7,0l0.3,0.3
			c0.1-0.3,0.5-0.5,0.5-0.5C820.1,267.8,817.6,266.8,817.6,266.8z M817.6,269.3c-0.1,0-0.1-0.1-0.1-0.1c-0.1-0.1,0-0.2,0-0.3
			c0.1,0,0.1,0,0.2,0.1S817.6,269.2,817.6,269.3C817.6,269.3,817.6,269.3,817.6,269.3c0.3,0.4,0.2,1.6,0.2,1.6L817.6,269.3z"/>
		<path fill="#F0BCC8" d="M818,272.9c0,0-0.3-0.1-0.3-0.3l-0.4-0.1l-0.5,1.2c0,0.1,0,0.1,0,0.1c0,0.1-0.1,0.2-0.1,0.2
			c-0.1,0-0.1-0.1-0.1-0.2c0-0.1,0.1-0.2,0.1-0.2c0,0,0,0,0.1,0c0-0.3,0.3-0.8,0.5-1.1l-0.1-0.1c-0.1,0.1-0.4,0.1-0.5,0.1
			c-1.6,0.8-1.9,2.7-1.9,2.7s0,2.5,2.7,1.4C818.8,275.5,818.2,273.5,818,272.9z"/>
		<path fill="#F0BCC8" d="M823,270.4c0,0-0.1-1.6-1-1.8c-2.2-0.9-3.3,1.7-3.5,2.3c0,0,0.1,0.2-0.1,0.3l0.1,0.4
			c0.1-0.1,0.5,0.2,0.5,0.2C823.1,272.4,823,270.4,823,270.4z M819.8,269.9c-0.1,0.1-0.1,0.2-0.2,0.1c0,0,0,0-0.1,0
			c-0.1,0.4-1,1.2-1,1.2l1-1.2c0-0.1,0-0.1,0-0.1c0.1-0.1,0.1-0.2,0.2-0.1C819.8,269.6,819.8,269.8,819.8,269.9z"/>
		<path fill="#F0BCC8" d="M819.1,272c-0.1,0-0.3,0.1-0.5,0l-0.5,0.5c0.1-0.1,0.1,0.3-0.1,0.5c1.2,3.8,3.1,3.1,3.1,3.1s0.9-0.3,1.2-1
			C822.9,273,819.8,272.2,819.1,272z M819.8,273.7c-0.1,0.1-0.1,0.1-0.3,0c-0.1-0.1-0.1-0.2-0.1-0.2c0,0,0,0,0.1,0
			c-0.4-0.2-0.9-1.3-0.9-1.3l1,1.2c0.1,0,0.1,0,0.1,0.1C819.8,273.6,819.8,273.6,819.8,273.7z"/>
		<path fill="#F0BCC8" d="M818,270.7c-0.6-0.1-1.1,0.3-1.2,0.9s0.4,1,1,1c0.5,0,1.1-0.3,1.2-0.9C819,271.2,818.5,270.7,818,270.7z
			 M817.3,272C817.3,272.1,817.2,272.1,817.3,272c-0.1,0.1-0.1,0-0.1,0C817.1,272,817.2,272,817.3,272L817.3,272
			c0.1-0.2,0.3-0.3,0.3-0.3L817.3,272L817.3,272z M817.5,270.9c-0.1,0-0.1,0-0.1-0.1c-0.1-0.1-0.1-0.1,0-0.1
			C817.4,270.7,817.5,270.7,817.5,270.9C817.6,270.9,817.6,270.9,817.5,270.9C817.6,270.9,817.6,270.9,817.5,270.9
			c0.3,0.1,0.3,0.5,0.3,0.5L817.5,270.9z M818.2,272.3c0,0.1-0.1,0.1-0.1,0c0,0,0-0.1,0-0.1l0,0c-0.2-0.1-0.3-0.5-0.3-0.5l0.3,0.5
			h0.1C818.3,272.2,818.3,272.3,818.2,272.3z M818.7,271.8c-0.1,0-0.1-0.1-0.1-0.1l0,0c-0.1,0.1-0.6-0.3-0.6-0.3l0.6,0.3
			C818.6,271.8,818.6,271.8,818.7,271.8C818.7,271.8,818.7,271.8,818.7,271.8C818.8,271.8,818.7,271.8,818.7,271.8z"/>
	</g>
	<g>
		<path fill="#F3DADC" d="M801.6,314.8c-0.1,0.1-0.1,0.1-0.3,0.1c-0.2,0-0.4-0.1-0.4-0.2c0-0.1,0.1-0.3,0.3-0.3
			c0.2,0,0.4,0.1,0.4,0.2v0.1c0.6-0.1,2,0.4,2.5,0.6v-0.1c-0.3-0.7-0.2-1-0.3-1c-1.5-1.9-8.7-3-7.9,1.6c0.8,4.1,5.8,1.9,7.3,1.2
			c0.1-0.1,0.1-0.6,0.8-1.1l0.1-0.5L801.6,314.8z"/>
		<path fill="#F3DADC" d="M805.1,306.8c0,0-2.4-0.1-3.3,1c-1.9,3.2,0.8,5.3,1.9,6c0.1,0.1,0.5,0.5,1.2,0l0.5,0.5
			c0.1-0.5,1-0.8,1-0.8C809.5,308.7,805.1,306.8,805.1,306.8z M805,311.4c-0.1-0.1-0.1-0.1-0.2-0.2c-0.1-0.2-0.1-0.4,0.1-0.4
			c0.1-0.1,0.3,0.1,0.3,0.3c0.1,0.2,0.1,0.4-0.1,0.4L805,311.4c0.5,0.7,0.3,2.8,0.3,2.8L805,311.4z"/>
		<path fill="#F3DADC" d="M805.9,317.8c0-0.1-0.5-0.3-0.5-0.6l-0.7-0.2l-0.9,2.1c0.1,0.1,0.1,0.2,0.1,0.3c0,0.2-0.1,0.3-0.3,0.3
			c-0.1,0-0.2-0.2-0.2-0.4c0-0.2,0.1-0.3,0.3-0.3h0.1c0-0.5,0.5-1.4,0.9-2l-0.3-0.1c-0.3,0.2-0.8,0.1-0.8,0.2
			c-2.8,1.4-3.3,4.9-3.3,4.9s0,4.5,4.8,2.5C807.1,322.5,806.2,318.7,805.9,317.8z"/>
		<path fill="#F3DADC" d="M814.6,313.3c0,0-0.3-2.8-1.9-3.2c-3.9-1.5-5.8,3-6.2,4c0,0.1,0.1,0.3-0.1,0.6l0.3,0.8
			c0.1-0.1,0.8,0.4,0.9,0.4C814.8,316.9,814.6,313.3,814.6,313.3z M809,312.4c-0.1,0.2-0.2,0.3-0.3,0.3c0,0-0.1,0-0.1-0.1
			c-0.1,0.8-1.8,2.1-1.8,2.1l1.7-2.2c0-0.1,0-0.2,0-0.3c0.1-0.2,0.2-0.3,0.3-0.3C809,312,809.1,312.2,809,312.4z"/>
		<path fill="#F3DADC" d="M807.7,316.1c-0.1,0-0.5,0.2-0.8,0L806,317c0.2-0.1,0.1,0.6-0.1,0.9c2.2,6.7,5.4,5.6,5.4,5.6
			s1.6-0.4,2.1-1.6C814.5,317.9,809,316.4,807.7,316.1z M808.9,319.2c-0.1,0.1-0.3,0.1-0.5-0.1c-0.2-0.1-0.3-0.3-0.1-0.4l0.1-0.1
			c-0.7-0.3-1.6-2.3-1.6-2.3l1.7,2.3c0.1,0,0.2,0.1,0.3,0.1C808.9,318.9,809,319.1,808.9,319.2z"/>
		<path fill="#F3DADC" d="M805.7,313.7c-1-0.1-1.9,0.6-2.1,1.6c-0.1,1,0.7,1.8,1.7,1.9c1,0.1,1.9-0.6,2.1-1.6
			C807.5,314.7,806.7,313.9,805.7,313.7z M804.5,316.2c0,0.1-0.1,0.1-0.2,0.1c-0.1,0-0.1-0.1-0.1-0.1s0.1-0.1,0.2-0.1
			C804.3,316.1,804.4,316.1,804.5,316.2c0-0.3,0.4-0.5,0.4-0.5L804.5,316.2C804.5,316.2,804.5,316.2,804.5,316.2z M804.9,314.2
			c-0.1,0-0.1-0.1-0.2-0.1c-0.1-0.1-0.1-0.1,0-0.1c0.1,0,0.3,0.1,0.4,0.1c0.1,0.1,0.1,0.1,0,0.1H805c0.5,0.3,0.4,1,0.4,1
			L804.9,314.2z M806.2,316.7c-0.1,0.1-0.1,0.1-0.2,0c-0.1-0.1-0.1-0.1,0-0.2c0,0,0,0,0.1,0c-0.3-0.1-0.5-1-0.5-1l0.5,1
			c0.1,0,0.1,0,0.1,0.1C806.3,316.6,806.3,316.6,806.2,316.7z M807,315.9c-0.1,0-0.1-0.1-0.2-0.1c0,0,0,0,0-0.1
			c-0.2,0.1-1.1-0.5-1.1-0.5l1.1,0.5l0.1-0.1c0.1,0,0.1,0.1,0.2,0.1C807.1,315.8,807.1,315.9,807,315.9z"/>
	</g>
	<g>
		<path fill="#F3DADC" d="M762.2,343.8c-0.1,0.1-0.1,0.1-0.2,0.1c-0.1,0-0.3-0.1-0.3-0.1c0-0.1,0.1-0.1,0.3-0.2
			c0.1,0,0.3,0.1,0.3,0.1C762.3,343.8,762.3,343.8,762.2,343.8c0.5-0.1,1.4,0.2,1.7,0.3v-0.1c-0.1-0.4-0.1-0.7-0.2-0.7
			c-1-1.2-5.8-2-5.3,1c0.5,2.7,3.9,1.3,4.9,0.8c0.1,0,0.1-0.4,0.5-0.8l0.1-0.3L762.2,343.8z"/>
		<path fill="#F3DADC" d="M764.6,338.6c0,0-1.6-0.1-2.2,0.7c-1.3,2.1,0.5,3.6,1.3,4c0.1,0.1,0.4,0.3,0.8,0l0.4,0.3
			c0.1-0.3,0.6-0.5,0.6-0.5C767.5,339.8,764.6,338.6,764.6,338.6z M764.5,341.6c-0.1,0-0.1-0.1-0.1-0.1c-0.1-0.1-0.1-0.3,0.1-0.3
			c0.1-0.1,0.2,0.1,0.3,0.1c0.1,0.1,0.1,0.3-0.1,0.3C764.6,341.6,764.6,341.6,764.5,341.6c0.3,0.5,0.3,1.9,0.3,1.9L764.5,341.6z"/>
		<path fill="#F3DADC" d="M765.1,345.8c0-0.1-0.3-0.2-0.3-0.4l-0.5-0.1l-0.6,1.4c0,0.1,0.1,0.1,0,0.2c0,0.1-0.1,0.3-0.2,0.2
			c-0.1,0-0.1-0.1-0.1-0.3s0.1-0.3,0.2-0.2c0,0,0,0,0.1,0c0-0.3,0.3-1,0.6-1.3l-0.2-0.1c-0.2,0.1-0.5,0.1-0.5,0.1
			c-1.9,1-2.2,3.3-2.2,3.3s0,3,3.2,1.6C766,349,765.3,346.5,765.1,345.8z"/>
		<path fill="#F3DADC" d="M770.9,342.9c0,0-0.2-1.9-1.2-2.1c-2.6-1-3.9,2.1-4.2,2.7c0,0,0.1,0.3-0.1,0.4l0.2,0.5
			c0.1-0.1,0.5,0.3,0.6,0.3C771.1,345.2,770.9,342.9,770.9,342.9z M767.1,342.3c-0.1,0.1-0.1,0.2-0.2,0.2c0,0,0,0-0.1,0
			c-0.1,0.5-1.2,1.4-1.2,1.4l1.2-1.5c0-0.1,0-0.1,0-0.2c0.1-0.1,0.1-0.2,0.2-0.2S767.2,342.1,767.1,342.3z"/>
		<path fill="#F3DADC" d="M766.3,344.7c-0.1,0-0.3,0.1-0.5,0l-0.5,0.5c0.1-0.1,0.1,0.4-0.1,0.6c1.5,4.5,3.6,3.7,3.6,3.7
			s1-0.3,1.4-1.1C770.9,346,767.2,344.9,766.3,344.7z M767.1,346.8c-0.1,0.1-0.2,0.1-0.3,0c-0.1-0.1-0.1-0.2-0.1-0.3c0,0,0,0,0.1,0
			c-0.5-0.2-1.1-1.5-1.1-1.5l1.2,1.5c0.1,0,0.1,0,0.2,0.1C767.1,346.6,767.1,346.7,767.1,346.8z"/>
		<path fill="#F3DADC" d="M765,343.2c-0.7-0.1-1.3,0.4-1.4,1c-0.1,0.6,0.5,1.2,1.2,1.2s1.3-0.4,1.4-1
			C766.2,343.8,765.6,343.2,765,343.2z M764.1,344.8c0,0.1-0.1,0.1-0.1,0.1c-0.1,0-0.1-0.1-0.1-0.1c0-0.1,0.1-0.1,0.1-0.1h0.1
			c0.1-0.1,0.3-0.3,0.3-0.3L764.1,344.8L764.1,344.8z M764.4,343.4c-0.1,0-0.1,0-0.1-0.1c-0.1-0.1-0.1-0.1,0-0.1s0.2,0,0.3,0.1
			c0.1,0.1,0.1,0.1,0,0.1C764.5,343.4,764.5,343.4,764.4,343.4c0.3,0.2,0.3,0.7,0.3,0.7L764.4,343.4z M765.3,345.2
			c-0.1,0.1-0.1,0.1-0.1,0c-0.1-0.1-0.1-0.1,0-0.1l0,0c-0.2-0.1-0.3-0.6-0.3-0.6l0.3,0.6h0.1C765.4,345,765.4,345.1,765.3,345.2z
			 M765.8,344.5c-0.1,0-0.1-0.1-0.1-0.1l0,0c-0.1,0.1-0.8-0.3-0.8-0.3l0.8,0.3C765.7,344.5,765.7,344.5,765.8,344.5
			C765.8,344.5,765.8,344.5,765.8,344.5C766,344.5,765.9,344.5,765.8,344.5z"/>
	</g>
	<g>
		<path fill="#F3DADC" d="M673.3,366.3c-0.1,0.1-0.1,0.1-0.3,0.1c-0.2,0-0.4-0.1-0.4-0.2s0.1-0.3,0.3-0.3s0.4,0.1,0.4,0.2v0.1
			c0.6-0.1,2,0.4,2.5,0.6v-0.1c-0.3-0.7-0.2-1-0.3-1c-1.5-1.9-8.7-3-7.9,1.6c0.8,4.1,5.8,1.9,7.3,1.2c0.1-0.1,0.1-0.6,0.8-1.1
			l0.1-0.5L673.3,366.3z"/>
		<path fill="#F3DADC" d="M677,358.4c0,0-2.4-0.1-3.3,1c-1.9,3.2,0.8,5.3,1.9,6c0.1,0.1,0.5,0.5,1.2,0l0.5,0.5c0.1-0.5,1-0.8,1-0.8
			C681.3,360.2,677,358.4,677,358.4z M676.8,362.9c-0.1-0.1-0.1-0.1-0.2-0.2c-0.1-0.2-0.1-0.4,0.1-0.4c0.1-0.1,0.3,0.1,0.3,0.3
			c0.1,0.2,0.1,0.4-0.1,0.4L676.8,362.9c0.5,0.7,0.3,2.8,0.3,2.8L676.8,362.9z"/>
		<path fill="#F3DADC" d="M677.7,369.3c0-0.1-0.5-0.3-0.5-0.6l-0.7-0.2l-0.9,2.1c0.1,0.1,0.1,0.2,0.1,0.3c0,0.2-0.1,0.3-0.3,0.3
			c-0.1,0-0.2-0.2-0.2-0.4s0.1-0.3,0.3-0.3h0.1c0-0.5,0.5-1.4,0.9-2l-0.3-0.1c-0.3,0.2-0.8,0.1-0.8,0.2c-2.8,1.4-3.3,4.9-3.3,4.9
			s0,4.5,4.8,2.5C679,374,678,370.3,677.7,369.3z"/>
		<path fill="#F3DADC" d="M686.4,364.8c0,0-0.3-2.8-1.9-3.2c-3.9-1.5-5.8,3-6.2,4c0,0.1,0.1,0.3-0.1,0.6l0.3,0.8
			c0.1-0.1,0.8,0.4,0.9,0.4C686.6,368.4,686.4,364.8,686.4,364.8z M680.8,363.9c-0.1,0.2-0.2,0.3-0.3,0.3c0,0-0.1,0-0.1-0.1
			c-0.1,0.8-1.8,2.1-1.8,2.1l1.7-2.2c0-0.1,0-0.2,0-0.3c0.1-0.2,0.2-0.3,0.3-0.3C680.8,363.5,680.9,363.7,680.8,363.9z"/>
		<path fill="#F3DADC" d="M679.5,367.6c-0.1,0-0.5,0.2-0.8,0l-0.8,0.8c0.2-0.1,0.1,0.6-0.1,0.9c2.2,6.7,5.4,5.6,5.4,5.6
			s1.6-0.4,2.1-1.6C686.4,369.5,680.8,368,679.5,367.6z M680.7,370.7c-0.1,0.1-0.3,0.1-0.5-0.1c-0.1-0.1-0.3-0.3-0.1-0.4l0.1-0.1
			c-0.7-0.3-1.6-2.3-1.6-2.3l1.7,2.3c0.1,0,0.2,0.1,0.3,0.1C680.7,370.4,680.8,370.6,680.7,370.7z"/>
		<path fill="#F3DADC" d="M677.4,365.3c-1-0.1-1.9,0.6-2.1,1.6c-0.1,1,0.7,1.8,1.7,1.9c1,0.1,1.9-0.6,2.1-1.6
			C679.3,366.2,678.5,365.4,677.4,365.3z M676.3,367.8c0,0.1-0.1,0.1-0.2,0.1c-0.1,0-0.1-0.1-0.1-0.1s0.1-0.1,0.2-0.1
			C676.1,367.6,676.2,367.6,676.3,367.8c0-0.3,0.4-0.5,0.4-0.5L676.3,367.8C676.3,367.7,676.3,367.7,676.3,367.8z M676.7,365.7
			c-0.1,0-0.1-0.1-0.2-0.1c-0.1-0.1-0.1-0.1,0-0.1c0.1,0,0.3,0.1,0.4,0.1c0.1,0.1,0.1,0.1,0,0.1h-0.1c0.5,0.3,0.4,1,0.4,1
			L676.7,365.7z M678.1,368.2c-0.1,0.1-0.1,0.1-0.2,0c-0.1-0.1-0.1-0.1,0-0.2c0,0,0,0,0.1,0c-0.3-0.1-0.5-1-0.5-1l0.5,1
			c0.1,0,0.1,0,0.1,0.1C678.1,368.1,678.1,368.2,678.1,368.2z M678.8,367.4c-0.1,0-0.1-0.1-0.2-0.1c0,0,0,0,0-0.1
			c-0.2,0.1-1.1-0.5-1.1-0.5l1.1,0.5l0.1-0.1c0.1,0,0.1,0.1,0.2,0.1C679,367.3,678.9,367.4,678.8,367.4z"/>
	</g>
	<g>
		<path fill="#F3DADC" d="M649.3,401.5c-0.1,0-0.2,0-0.3-0.1c-0.1-0.1-0.2-0.3-0.1-0.4c0.1-0.1,0.3-0.1,0.5,0
			c0.1,0.1,0.2,0.3,0.1,0.4l-0.1,0.1c0.5,0.3,1.2,1.6,1.4,2.1l0.1-0.1c0.3-0.8,0.5-1,0.5-1.1c0.1-2.5-4.5-8.1-7.3-3.7
			c-2.5,4,3.1,5.3,4.7,5.7c0.1,0,0.5-0.5,1.4-0.4l0.4-0.4L649.3,401.5z"/>
		<path fill="#F3DADC" d="M658,397c0,0-1.8-1.6-3.3-1.2c-3.8,1.4-3.3,5.1-2.9,6.4c0,0.1,0.1,0.8,1,0.8l0.1,0.8
			c0.5-0.3,1.3-0.1,1.4-0.1C660,401.4,658,397,658,397z M654.5,400.8c0-0.1,0-0.2,0-0.3c0.1-0.2,0.3-0.3,0.3-0.3
			c0.1,0,0.2,0.2,0.1,0.5c-0.1,0.3-0.3,0.3-0.3,0.3C654.5,400.9,654.5,400.9,654.5,400.8c-0.1,0.9-1.9,2.6-1.9,2.6L654.5,400.8z"/>
		<path fill="#F3DADC" d="M650.4,406.8c0-0.1-0.1-0.5,0.1-0.8l-0.4-0.6l-2.2,1.2c0,0.1-0.1,0.2-0.2,0.3c-0.2,0.1-0.4,0.2-0.5,0.1
			c-0.1-0.1,0-0.3,0.1-0.5c0.2-0.1,0.4-0.2,0.5-0.1v0.1c0.3-0.5,1.4-0.9,2.2-1.2l-0.1-0.3c-0.4,0-0.7-0.3-0.8-0.4
			c-3.2-0.6-6.2,2.1-6.2,2.1s-3.3,3.8,1.9,5.1C647.9,411.7,649.9,407.8,650.4,406.8z"/>
		<path fill="#F3DADC" d="M660.4,408.6c0,0,1.9-2.6,0.9-3.9c-1.9-3.8-6.8-1.1-7.8-0.5c-0.1,0-0.2,0.3-0.5,0.5l-0.3,0.8
			c0.1,0.1,0.3,0.9,0.4,0.9C658,411.7,660.4,408.6,660.4,408.6z M656.7,404.2c-0.2,0.1-0.4,0.1-0.5,0v-0.1c-0.7,0.5-2.9,0.7-2.9,0.7
			l2.9-0.8c0.1-0.1,0.1-0.2,0.3-0.3c0.2-0.1,0.4-0.1,0.5,0C657.1,403.9,656.9,404.1,656.7,404.2z"/>
		<path fill="#F3DADC" d="M653,406.6c-0.1-0.1-0.5-0.1-0.6-0.5l-1.2,0.2c0.2,0.1-0.3,0.6-0.8,0.7c-3.3,7.1,0.1,8.2,0.1,8.2
			s1.6,0.6,2.8-0.1C656.9,412.5,653.9,407.7,653,406.6z M651.7,410c-0.1,0.1-0.3-0.1-0.3-0.3c-0.1-0.3,0.1-0.4,0.2-0.5h0.1
			c-0.3-0.8,0.4-2.9,0.4-2.9l-0.3,3c0.1,0.1,0.1,0.1,0.1,0.3C651.9,409.7,651.9,409.9,651.7,410z"/>
		<path fill="#F3DADC" d="M653.2,403.2c-0.8-0.8-2-0.7-2.7,0.1c-0.8,0.8-0.8,2-0.1,2.7c0.8,0.8,2,0.7,2.7-0.1
			C653.9,405.2,654,404,653.2,403.2z M650.5,404.6c-0.1,0.1-0.2,0.1-0.2,0c-0.1-0.1-0.1-0.1,0-0.2c0.1-0.1,0.2-0.1,0.2,0l0.1,0.1
			c0.2-0.1,0.8-0.1,0.8-0.1L650.5,404.6C650.5,404.5,650.5,404.6,650.5,404.6z M652.3,403.1c-0.1-0.1-0.1-0.1-0.1-0.2
			c0-0.1,0.1-0.1,0.1-0.1s0.2,0.2,0.2,0.3s-0.1,0.1-0.1,0.1C652.5,403.2,652.4,403.2,652.3,403.1c0.3,0.5-0.3,1.2-0.3,1.2
			L652.3,403.1z M651.5,406.1c-0.1,0-0.1-0.1-0.1-0.1c0-0.1,0.1-0.2,0.1-0.2c0,0,0,0,0.1,0c-0.2-0.3,0.3-1.2,0.3-1.2l-0.3,1.2
			c0.1,0,0.1,0.1,0.1,0.1C651.7,406.1,651.6,406.1,651.5,406.1z M652.8,405.9c-0.1-0.1-0.1-0.1-0.1-0.2c0,0,0,0,0-0.1
			c-0.2-0.1-0.5-1.2-0.5-1.2l0.5,1.1h0.1c0.1,0.1,0.1,0.1,0.1,0.2C652.8,405.8,652.8,406,652.8,405.9z"/>
	</g>
	<g>
		<path fill="#F3DADC" d="M679.2,350.2c0,0.1-0.1,0.1-0.1,0.1c-0.1,0.1-0.3,0.1-0.3,0c-0.1-0.1,0-0.2,0.1-0.3c0.1-0.1,0.3-0.1,0.3,0
			C679.2,350,679.2,350,679.2,350.2c0.3-0.3,1.3-0.5,1.6-0.5v-0.1c-0.4-0.3-0.5-0.5-0.5-0.5c-1.5-0.5-6,1.2-4,3.6
			c1.9,2.2,4-0.9,4.6-1.8c0-0.1-0.1-0.4,0.1-1l-0.1-0.3L679.2,350.2z"/>
		<path fill="#F3DADC" d="M678.4,344.2c0,0-1.4,0.8-1.5,1.7c0,2.5,2.4,2.9,3.2,2.9c0.1,0,0.5,0.1,0.7-0.4l0.5,0.1
			c-0.1-0.3,0.3-0.8,0.3-0.8C681.6,343.8,678.4,344.2,678.4,344.2z M680,346.9c-0.1,0-0.1,0-0.2-0.1c-0.1-0.1-0.2-0.2-0.1-0.3
			c0.1-0.1,0.2-0.1,0.3,0C680,346.7,680.1,346.8,680,346.9C680.1,346.9,680.1,346.9,680,346.9c0.5,0.2,1.1,1.5,1.1,1.5L680,346.9z"
			/>
		<path fill="#F3DADC" d="M682.7,350.4c0,0-0.3,0-0.5-0.2l-0.5,0.1l0.2,1.5c0.1,0,0.1,0.1,0.1,0.1c0.1,0.1,0.1,0.3-0.1,0.3
			c-0.1,0-0.2-0.1-0.3-0.2c-0.1-0.1-0.1-0.3,0.1-0.3c0,0,0,0,0.1,0c-0.2-0.3-0.2-1-0.2-1.5l-0.2,0.1c-0.1,0.2-0.4,0.3-0.4,0.4
			c-1.1,1.9-0.1,4-0.1,4s1.6,2.7,3.6-0.2C685.1,352.8,683.3,350.9,682.7,350.4z"/>
		<path fill="#F3DADC" d="M686.2,344.8c0,0-1.2-1.6-2.2-1.2c-2.7,0.4-2.3,3.8-2.1,4.5c0,0,0.2,0.2,0.1,0.4l0.4,0.3
			c0.1-0.1,0.6-0.1,0.7-0.1C687.5,346.9,686.2,344.8,686.2,344.8z M682.6,346.2c0,0.1,0,0.3-0.1,0.3h-0.1c0.2,0.5-0.3,1.9-0.3,1.9
			l0.2-1.9c-0.1-0.1-0.1-0.1-0.1-0.2c0-0.1,0-0.3,0.1-0.3C682.5,345.9,682.6,346,682.6,346.2z"/>
		<path fill="#F3DADC" d="M683.2,348.9c-0.1,0-0.2,0.3-0.5,0.3l-0.1,0.8c0.1-0.1,0.3,0.3,0.2,0.5c3.6,3.2,5.1,1.4,5.1,1.4
			s0.8-0.8,0.6-1.7C687.7,347.6,684,348.6,683.2,348.9z M685,350.2c0,0.1-0.1,0.1-0.3,0.1s-0.3-0.1-0.3-0.2v-0.1
			c-0.5,0-1.7-0.8-1.7-0.8l1.8,0.8c0.1,0,0.1-0.1,0.2-0.1C684.9,350,685,350.2,685,350.2z"/>
		<path fill="#F3DADC" d="M681.2,348.1c-0.6,0.3-0.9,1-0.6,1.6c0.3,0.6,1,0.8,1.6,0.5s0.9-1,0.6-1.6
			C682.6,348,681.8,347.8,681.2,348.1z M681.4,350c0,0.1,0,0.1-0.1,0.1s-0.1,0-0.1-0.1c0-0.1,0-0.1,0.1-0.1L681.4,350
			c-0.1-0.2,0-0.5,0-0.5V350C681.4,350,681.4,350,681.4,350z M680.9,348.6c-0.1,0-0.1,0-0.1,0c-0.1,0-0.1-0.1,0-0.1
			c0.1-0.1,0.2-0.1,0.3-0.1s0.1,0.1,0,0.1C681,348.6,680.9,348.6,680.9,348.6c0.4-0.1,0.6,0.4,0.6,0.4L680.9,348.6z M682.5,349.7
			c0,0.1-0.1,0.1-0.1,0.1c-0.1,0-0.1-0.1-0.1-0.1l0,0c-0.2,0.1-0.6-0.4-0.6-0.4l0.6,0.3c0,0,0.1-0.1,0.1,0
			C682.5,349.5,682.6,349.6,682.5,349.7z M682.7,348.9c-0.1,0-0.1,0-0.1,0l0,0c-0.1,0.1-0.8,0.1-0.8,0.1l0.8-0.1v-0.1
			C682.7,348.9,682.7,348.9,682.7,348.9C682.7,348.9,682.7,348.9,682.7,348.9z"/>
	</g>
	<g>
		<path fill="#F0BCC8" d="M778.3,385.7c0,0.1-0.1,0.1-0.2,0.2c-0.1,0.1-0.3,0.1-0.4,0c-0.1-0.1,0-0.3,0.1-0.4c0.1-0.1,0.3-0.1,0.4,0
			v0.1c0.4-0.4,1.9-0.6,2.4-0.7v-0.1c-0.5-0.5-0.7-0.8-0.8-0.8c-2.3-0.8-8.8,1.9-5.8,5.4c2.8,3.3,5.9-1.3,6.7-2.7
			c0.1-0.1-0.2-0.6,0.1-1.4l-0.2-0.5L778.3,385.7z"/>
		<path fill="#F0BCC8" d="M777,376.8c0,0-2.1,1.1-2.2,2.6c0.1,3.8,3.6,4.3,4.8,4.3c0.1,0,0.7,0.1,1-0.6l0.8,0.1
			c-0.1-0.5,0.3-1.2,0.3-1.2C781.7,376.2,777,376.8,777,376.8z M779.4,380.9c-0.1,0-0.2-0.1-0.3-0.1c-0.2-0.1-0.3-0.3-0.2-0.4
			c0.1-0.1,0.3-0.1,0.4,0c0.2,0.1,0.3,0.3,0.2,0.4C779.5,380.7,779.5,380.8,779.4,380.9c0.8,0.3,1.8,2.2,1.8,2.2L779.4,380.9z"/>
		<path fill="#F0BCC8" d="M783.5,386c-0.1-0.1-0.5,0-0.8-0.3L782,386l0.3,2.3c0.1,0.1,0.1,0.1,0.2,0.3c0.1,0.2,0.1,0.4-0.1,0.5
			s-0.3-0.1-0.3-0.3c-0.1-0.2-0.1-0.4,0.1-0.5h0.1c-0.3-0.4-0.3-1.5-0.3-2.2l-0.3,0.1c-0.1,0.3-0.5,0.5-0.6,0.5
			c-1.6,2.7-0.1,6-0.1,6s2.4,3.9,5.3-0.3C787,389.6,784.2,386.8,783.5,386z"/>
		<path fill="#F0BCC8" d="M788.3,377.7c0,0-1.7-2.3-3.2-1.9c-4,0.6-3.3,5.7-3,6.8c0,0.1,0.3,0.3,0.3,0.5l0.6,0.5
			c0.1-0.1,0.9-0.1,1-0.1C790.4,380.7,788.3,377.7,788.3,377.7z M783.2,379.8c0.1,0.2,0,0.4-0.1,0.4H783c0.3,0.8-0.3,2.7-0.3,2.7
			l0.3-2.8c-0.1-0.1-0.1-0.1-0.1-0.3c-0.1-0.2,0-0.4,0.1-0.4C783,379.4,783.1,379.6,783.2,379.8z"/>
		<path fill="#F0BCC8" d="M784.1,383.7c-0.1,0-0.3,0.4-0.7,0.4l-0.2,1.2c0.1-0.1,0.4,0.5,0.3,0.8c5.4,4.8,7.5,2.1,7.5,2.1
			s1.1-1.2,0.8-2.5C790.8,381.8,785.4,383.3,784.1,383.7z M786.8,385.8c0,0.1-0.2,0.2-0.4,0.2s-0.3-0.1-0.3-0.3v-0.1
			c-0.8,0.1-2.5-1.2-2.5-1.2l2.6,1.1c0.1-0.1,0.2-0.1,0.3-0.1C786.6,385.5,786.8,385.6,786.8,385.8z"/>
		<path fill="#F0BCC8" d="M781.1,382.7c-0.9,0.5-1.3,1.6-0.9,2.4c0.4,0.9,1.5,1.2,2.5,0.8c0.9-0.5,1.3-1.6,0.9-2.4
			C783.2,382.5,782.1,382.2,781.1,382.7z M781.5,385.4c0,0.1,0,0.2-0.1,0.2c-0.1,0-0.1,0-0.2-0.1c0-0.1,0-0.2,0.1-0.2h0.1
			c-0.1-0.2,0.1-0.7,0.1-0.7L781.5,385.4C781.4,385.4,781.5,385.4,781.5,385.4z M780.7,383.4c-0.1,0-0.1,0-0.2,0
			c-0.1,0-0.1-0.1-0.1-0.1c0.1-0.1,0.3-0.1,0.3-0.1c0.1,0,0.1,0.1,0.1,0.1C780.9,383.4,780.8,383.4,780.7,383.4c0.5,0,1,0.6,1,0.6
			L780.7,383.4z M783.2,384.9c0,0.1-0.1,0.1-0.2,0.1c-0.1,0-0.1-0.1-0.1-0.2c0,0,0,0,0-0.1c-0.3,0.1-1-0.5-1-0.5l1,0.5
			c0-0.1,0.1-0.1,0.1-0.1C783.1,384.7,783.2,384.9,783.2,384.9z M783.4,383.8c-0.1,0.1-0.1,0-0.2,0l0,0c-0.1,0.1-1.2,0.1-1.2,0.1
			l1.2-0.1c0,0,0-0.1,0.1-0.1C783.3,383.6,783.4,383.7,783.4,383.8C783.5,383.7,783.5,383.8,783.4,383.8z"/>
	</g>
</g>
<g>
	<path fill="#F1BBC8" d="M344.5,367.8c-0.1-0.1-0.4-0.3-0.7-0.3c-0.5-0.1-0.9,0.1-1,0.4c-0.1,0.3,0.3,0.6,0.8,0.7
		c0.5,0.1,0.9-0.1,1-0.4c0-0.1,0-0.1,0-0.2c1.4,0.4,4.7-0.7,6-1.1v0.1c-0.7,1.5-0.7,2.3-0.8,2.5c-3.9,4-21,5.7-18.4-4.9
		c2.4-9.7,14.1-3.6,17.3-1.7c0.1,0.1,0.2,1.5,1.8,2.7l0.1,1.2L344.5,367.8z"/>
	<path fill="#F1BBC8" d="M356.1,371.4c-0.1-0.1-1.9-1.1-2.1-2.1l-1.4,1.2c-1.5-1.1-2.7-0.3-2.9-0.1c-2.7,1.5-9.6,6.2-5.6,14
		c1.9,2.8,7.5,2.9,7.5,2.9S362.2,383.5,356.1,371.4z M353.4,369.9c0,0,0,5-1.1,6.4c0.1,0,0.1,0,0.2,0.1c0.3,0.1,0.3,0.6,0.1,1
		c-0.2,0.4-0.6,0.7-0.9,0.5c-0.3-0.1-0.3-0.6-0.1-1c0.1-0.3,0.3-0.4,0.5-0.5L353.4,369.9z"/>
	<path fill="#F1BBC8" d="M355.1,361.5c-0.1,0.1-1.1,0.6-1.2,1.4l-1.7,0.4l-1.9-4.9c0.1-0.2,0.1-0.4,0.1-0.7c0-0.5-0.3-0.9-0.6-0.9
		c-0.3,0-0.5,0.4-0.5,1c0,0.5,0.3,0.9,0.6,0.9c0.1,0,0.1,0,0.2-0.1c-0.1,1.2,1,3.4,1.8,4.9l-0.7,0.1c-0.7-0.5-1.7-0.4-1.9-0.5
		c-6.4-3.8-7-12-7-12s0.8-10.6,11.7-5C358.9,350.5,355.9,359.1,355.1,361.5z"/>
	<path fill="#F1BBC8" d="M359,366c-0.2,0-1.9,1-2.2,0.8l-0.8,1.8c0.4,0.5,0.1,1.3,0.1,1.4c0.8,2.5,4.6,13.5,14.1,10.6
		c3.8-0.5,4.9-7.2,4.9-7.2S376,365,359,366z M361.3,375.6c-0.3,0.1-0.6-0.2-0.8-0.7c-0.1-0.3-0.1-0.5,0-0.7l-3.7-5.6
		c0,0,3.6,3.5,3.8,5.3c0.1-0.1,0.1-0.1,0.1-0.1c0.3-0.1,0.6,0.2,0.8,0.7C361.7,375.1,361.6,375.5,361.3,375.6z"/>
	<path fill="#F1BBC8" d="M373.6,353.5c-1-2.9-4.6-4.3-4.6-4.3s-7.4-3.3-13.6,12.2c0.6,0.7,0.6,2.3,0.2,2.1l1.8,2.1
		c0.9-0.5,1.7,0.1,1.9,0.1C362.3,365.2,375.6,362.4,373.6,353.5z M362,359.6c-0.2,0.1-0.5,0.2-0.7,0.2l-4.3,5c0,0,2.5-4.3,4.1-5.1
		c-0.1,0-0.1-0.1-0.1-0.1c-0.1-0.3,0.1-0.7,0.5-1c0.4-0.3,0.9-0.3,1,0C362.7,358.9,362.5,359.3,362,359.6z"/>
	<path fill="#F1BBC8" d="M358.4,366.8c0-2.3-2.1-4-4.5-4s-4.5,1.9-4.4,4.2c0,2.3,2.1,4,4.5,4C356.5,370.9,358.5,369,358.4,366.8z
		 M351.5,365l1,1.4c0,0-1-0.8-1.1-1.3c-0.1,0.1-0.1,0.1-0.2,0.1c-0.2,0-0.4-0.1-0.4-0.3c0-0.2,0.1-0.3,0.3-0.3s0.4,0.1,0.4,0.3
		C351.5,365,351.5,365,351.5,365z M353.6,367.6c0,0,0,1.7-1.2,2.2c0.1,0,0.1,0,0.2,0c0.3,0.1,0.3,0.2,0.1,0.3
		c-0.2,0.1-0.6,0.2-0.9,0.2c-0.3-0.1-0.3-0.2-0.1-0.3c0.1-0.1,0.3-0.1,0.5-0.2L353.6,367.6z M355.8,364.6c-0.1,0.1-0.2,0.1-0.3,0.1
		l-1.4,2.1c0,0,0.5-1.9,1.4-2.1l-0.1-0.1c-0.1-0.1-0.1-0.4,0-0.5c0.1-0.1,0.3-0.1,0.5,0.1C355.9,364.3,355.9,364.5,355.8,364.6z
		 M357.7,366.5c-0.1,0.1-0.3,0.3-0.5,0.3c-0.1,0-0.1-0.1-0.1-0.1l-2.7,1c0,0,2.1-1.2,2.7-1c0,0,0-0.1,0.1-0.1
		c0.1-0.1,0.3-0.3,0.5-0.3C357.8,366.3,357.7,366.3,357.7,366.5z"/>
	<g>
		<path fill="#F0BCC8" d="M418.1,367.4c-0.1-0.1-0.1-0.1-0.1-0.1c-0.1,0-0.2,0-0.2,0.1c0,0.1,0.1,0.1,0.2,0.1
			C418.1,367.6,418.1,367.6,418.1,367.4C418.1,367.5,418.1,367.5,418.1,367.4c0.4,0.1,1.2-0.1,1.5-0.2l0,0c-0.2,0.3-0.1,0.5-0.2,0.6
			c-1,1-5.2,1.4-4.5-1.2c0.6-2.4,3.5-0.9,4.3-0.4c0.1,0,0.1,0.3,0.4,0.7v0.3L418.1,367.4z"/>
		<path fill="#F0BCC8" d="M420.9,368.3c0,0-0.5-0.3-0.5-0.5l-0.3,0.3c-0.3-0.3-0.7-0.1-0.8,0c-0.7,0.3-2.4,1.5-1.4,3.4
			c0.5,0.7,1.9,0.8,1.9,0.8S422.4,371.4,420.9,368.3z M420.3,368c0,0,0,1.2-0.3,1.6c0,0,0,0,0.1,0c0.1,0.1,0.1,0.1,0,0.3
			c-0.1,0.1-0.1,0.1-0.2,0.1s-0.1-0.1,0-0.3c0-0.1,0.1-0.1,0.1-0.1L420.3,368z"/>
		<path fill="#F0BCC8" d="M420.7,365.9c0,0-0.3,0.1-0.3,0.3l-0.4,0.1l-0.5-1.2c0-0.1,0.1-0.1,0.1-0.2c0-0.1-0.1-0.2-0.1-0.2
			c-0.1,0-0.1,0.1-0.1,0.2c0,0.1,0.1,0.2,0.1,0.2c0,0,0,0,0.1,0c0,0.3,0.3,0.8,0.4,1.2l-0.1,0.1c-0.1-0.1-0.4-0.1-0.5-0.1
			c-1.6-1-1.7-2.9-1.7-2.9s0.2-2.6,2.9-1.2C421.6,363.2,420.9,365.3,420.7,365.9z"/>
		<path fill="#F0BCC8" d="M421.6,367c-0.1,0-0.5,0.3-0.5,0.2l-0.2,0.4c0.1,0.1,0,0.3,0,0.3c0.2,0.6,1.2,3.4,3.4,2.6
			c1-0.1,1.2-1.8,1.2-1.8S425.8,366.8,421.6,367z M422.2,369.4c-0.1,0-0.1-0.1-0.2-0.2c0-0.1,0-0.1,0-0.2l-0.9-1.4
			c0,0,0.9,0.9,1,1.3c0,0,0,0,0.1,0s0.1,0.1,0.2,0.2C422.3,369.3,422.3,369.4,422.2,369.4z"/>
		<path fill="#F0BCC8" d="M425.2,363.9c-0.3-0.8-1.2-1-1.2-1s-1.9-0.8-3.4,3c0.1,0.2,0.1,0.5,0.1,0.5l0.4,0.5c0.2-0.1,0.4,0,0.5,0
			C422.5,366.8,425.8,366.1,425.2,363.9z M422.4,365.5c-0.1,0.1-0.1,0.1-0.1,0.1l-1.1,1.2c0,0,0.6-1.1,1-1.2l0,0
			c-0.1-0.1,0-0.1,0.1-0.2c0.1-0.1,0.2-0.1,0.3,0C422.5,365.3,422.5,365.4,422.4,365.5z"/>
		<path fill="#F0BCC8" d="M421.5,367.2c0-0.5-0.5-1-1.1-1c-0.6,0-1.1,0.5-1.1,1s0.5,1,1.1,1C421,368.3,421.5,367.8,421.5,367.2z
			 M419.8,366.8l0.3,0.3C420,367.2,419.8,367,419.8,366.8C419.7,366.9,419.7,366.9,419.8,366.8c-0.1,0.1-0.1,0-0.1,0
			C419.6,366.8,419.6,366.8,419.8,366.8C419.7,366.7,419.8,366.7,419.8,366.8C419.8,366.8,419.8,366.8,419.8,366.8z M420.3,367.4
			c0,0,0,0.4-0.3,0.5c0,0,0,0,0.1,0c0.1,0,0.1,0.1,0,0.1c-0.1,0.1-0.1,0.1-0.2,0.1s-0.1-0.1,0-0.1c0,0,0.1-0.1,0.1-0.1L420.3,367.4z
			 M420.8,366.7L420.8,366.7l-0.4,0.5C420.4,367.2,420.5,366.8,420.8,366.7L420.8,366.7c-0.1-0.1-0.1-0.1-0.1-0.1c0.1,0,0.1,0,0.1,0
			S420.9,366.7,420.8,366.7z M421.3,367.2c0,0.1-0.1,0.1-0.1,0.1h-0.1l-0.7,0.2c0,0,0.5-0.3,0.7-0.3l0,0
			C421.1,367.1,421.2,367.1,421.3,367.2C421.3,367.1,421.3,367.1,421.3,367.2z"/>
	</g>
	<g>
		<path fill="#F0BCC8" d="M264.4,331.6c-0.1-0.1-0.1-0.1-0.2-0.1c-0.1,0-0.3,0.1-0.3,0.1c0,0.1,0.1,0.2,0.2,0.2
			c0.1,0,0.3-0.1,0.3-0.1C264.4,331.7,264.4,331.6,264.4,331.6c0.5,0.2,1.4-0.1,1.7-0.3v0.1c-0.2,0.5-0.2,0.7-0.2,0.8
			c-1.1,1.2-6,1.6-5.2-1.4c0.7-2.8,4-1.1,4.9-0.5c0.1,0,0.1,0.5,0.5,0.8v0.3L264.4,331.6z"/>
		<path fill="#F0BCC8" d="M267.7,332.7c0-0.1-0.5-0.3-0.6-0.6l-0.4,0.3c-0.4-0.3-0.8-0.1-0.8-0.1c-0.8,0.4-2.7,1.9-1.6,4.1
			c0.5,0.8,2.1,0.9,2.1,0.9S269.5,336.2,267.7,332.7z M267,332.2c0,0,0,1.4-0.3,1.9h0.1c0.1,0.1,0.1,0.2,0,0.3
			c-0.1,0.1-0.2,0.2-0.3,0.1c-0.1-0.1-0.1-0.2,0-0.3c0.1-0.1,0.1-0.1,0.1-0.1L267,332.2z"/>
		<path fill="#F0BCC8" d="M267.5,329.7c0,0.1-0.3,0.2-0.3,0.4l-0.5,0.1l-0.5-1.4c0-0.1,0.1-0.1,0.1-0.2c0-0.1-0.1-0.3-0.2-0.3
			c-0.1,0-0.1,0.1-0.1,0.3c0,0.1,0.1,0.3,0.2,0.3c0,0,0,0,0.1,0c0,0.3,0.3,1,0.5,1.4l-0.2,0.1c-0.2-0.1-0.5-0.1-0.5-0.1
			c-1.9-1.1-2-3.6-2-3.6s0.2-3.2,3.4-1.4C268.6,326.5,267.7,329,267.5,329.7z"/>
		<path fill="#F0BCC8" d="M268.6,331.1c-0.1,0-0.5,0.3-0.6,0.2l-0.2,0.5c0.1,0.1,0,0.4,0,0.4c0.2,0.7,1.3,4,4,3.1
			c1.1-0.1,1.4-2.1,1.4-2.1S273.4,330.8,268.6,331.1z M269.2,333.9c-0.1,0-0.2-0.1-0.2-0.2c0-0.1,0-0.1,0-0.2l-1-1.6
			c0,0,1,1,1.1,1.6c0,0,0,0,0.1,0c0.1,0,0.2,0.1,0.2,0.2C269.3,333.8,269.3,333.9,269.2,333.9z"/>
		<path fill="#F0BCC8" d="M272.7,327.4c-0.3-0.9-1.3-1.2-1.3-1.2s-2.1-1-3.9,3.6c0.2,0.2,0.1,0.7,0.1,0.6l0.5,0.6
			c0.3-0.1,0.5,0,0.5,0C269.5,330.8,273.3,330,272.7,327.4z M269.5,329.2c-0.1,0.1-0.1,0.1-0.2,0.1l-1.2,1.5c0,0,0.7-1.3,1.2-1.5
			c0,0,0,0-0.1-0.1c-0.1-0.1,0-0.2,0.1-0.3c0.1-0.1,0.3-0.1,0.3,0C269.6,329,269.6,329.1,269.5,329.2z"/>
		<path fill="#F0BCC8" d="M268.4,331.3c0-0.7-0.6-1.2-1.3-1.2c-0.7,0.1-1.2,0.5-1.2,1.2s0.6,1.2,1.3,1.2
			C267.9,332.5,268.4,332,268.4,331.3z M266.4,330.8l0.3,0.4C266.7,331.2,266.4,331,266.4,330.8
			C266.4,330.9,266.4,330.9,266.4,330.8c-0.1,0.1-0.2,0-0.2,0c0-0.1,0.1-0.1,0.1-0.1C266.4,330.6,266.4,330.7,266.4,330.8
			C266.4,330.8,266.4,330.8,266.4,330.8z M267.1,331.5c0,0,0,0.5-0.3,0.6h0.1c0.1,0,0.1,0.1,0,0.1c-0.1,0.1-0.2,0.1-0.3,0.1
			c-0.1,0-0.1-0.1,0-0.1c0.1,0,0.1-0.1,0.1-0.1L267.1,331.5z M267.7,330.7L267.7,330.7l-0.5,0.6
			C267.2,331.3,267.3,330.8,267.7,330.7L267.7,330.7c-0.1-0.1-0.1-0.1-0.1-0.1c0.1,0,0.1,0,0.1,0
			C267.7,330.5,267.7,330.6,267.7,330.7z M268.2,331.2c0,0.1-0.1,0.1-0.1,0.1c0,0-0.1,0-0.1-0.1l-0.8,0.3c0,0,0.6-0.3,0.8-0.3l0,0
			C268,331.2,268.1,331.2,268.2,331.2C268.2,331.2,268.2,331.2,268.2,331.2z"/>
	</g>
	<g>
		<path fill="#F0BCC8" d="M283.2,344.1c-0.1-0.1-0.1-0.1-0.2-0.1c-0.1,0-0.3,0.1-0.3,0.1c0,0.1,0.1,0.2,0.2,0.2
			c0.1,0,0.3-0.1,0.3-0.1S283.2,344.2,283.2,344.1c0.5,0.2,1.4-0.1,1.7-0.3v0.1c-0.2,0.5-0.2,0.7-0.2,0.8c-1.1,1.2-6,1.6-5.2-1.4
			c0.7-2.8,4-1.1,4.9-0.5c0.1,0,0.1,0.5,0.5,0.8v0.3L283.2,344.1z"/>
		<path fill="#F0BCC8" d="M286.5,345.2c0-0.1-0.5-0.3-0.6-0.6l-0.4,0.3c-0.4-0.3-0.8-0.1-0.8-0.1c-0.8,0.4-2.7,1.9-1.6,4.1
			c0.5,0.8,2.1,0.9,2.1,0.9S288.2,348.7,286.5,345.2z M285.8,344.7c0,0,0,1.4-0.3,1.9h0.1c0.1,0.1,0.1,0.2,0,0.3
			c-0.1,0.1-0.2,0.2-0.3,0.1c-0.1-0.1-0.1-0.2,0-0.3c0.1-0.1,0.1-0.1,0.1-0.1L285.8,344.7z"/>
		<path fill="#F0BCC8" d="M286.3,342.3c0,0.1-0.3,0.2-0.3,0.4l-0.5,0.1l-0.5-1.4c0-0.1,0.1-0.1,0.1-0.2c0-0.1-0.1-0.3-0.2-0.3
			s-0.1,0.1-0.1,0.3c0,0.1,0.1,0.3,0.2,0.3c0,0,0,0,0.1,0c0,0.3,0.3,1,0.5,1.4l-0.2,0.1c-0.2-0.1-0.5-0.1-0.5-0.1
			c-1.9-1.1-2-3.6-2-3.6s0.2-3.2,3.4-1.4C287.4,339,286.5,341.6,286.3,342.3z"/>
		<path fill="#F0BCC8" d="M287.4,343.6c-0.1,0-0.5,0.3-0.6,0.2l-0.2,0.5c0.1,0.1,0,0.4,0,0.4c0.2,0.7,1.3,4,4,3.1
			c1.1-0.1,1.4-2.1,1.4-2.1S292.2,343.3,287.4,343.6z M288,346.5c-0.1,0-0.2-0.1-0.2-0.2c0-0.1,0-0.1,0-0.2l-1-1.6c0,0,1,1,1.1,1.6
			c0,0,0,0,0.1,0c0.1,0,0.2,0.1,0.2,0.2C288.1,346.2,288.1,346.4,288,346.5z"/>
		<path fill="#F0BCC8" d="M291.5,339.9c-0.3-0.9-1.3-1.2-1.3-1.2s-2.1-1-3.9,3.6c0.2,0.2,0.1,0.7,0.1,0.6l0.5,0.6
			c0.3-0.1,0.5,0,0.5,0C288.3,343.3,292.1,342.5,291.5,339.9z M288.2,341.7c-0.1,0.1-0.1,0.1-0.2,0.1l-1.2,1.5c0,0,0.7-1.3,1.2-1.5
			c0,0,0,0-0.1-0.1c-0.1-0.1,0-0.2,0.1-0.3c0.1-0.1,0.3-0.1,0.3,0C288.4,341.5,288.4,341.7,288.2,341.7z"/>
		<path fill="#F0BCC8" d="M287.2,343.8c0-0.7-0.6-1.2-1.3-1.2c-0.7,0.1-1.2,0.5-1.2,1.2c0,0.7,0.6,1.2,1.3,1.2
			C286.7,345,287.2,344.5,287.2,343.8z M285.2,343.3l0.3,0.4C285.5,343.7,285.2,343.5,285.2,343.3
			C285.2,343.4,285.2,343.4,285.2,343.3c-0.1,0.1-0.2,0-0.2,0c0-0.1,0.1-0.1,0.1-0.1C285.2,343.2,285.2,343.2,285.2,343.3
			L285.2,343.3z M285.8,344.1c0,0,0,0.5-0.3,0.6h0.1c0.1,0,0.1,0.1,0,0.1c-0.1,0.1-0.2,0.1-0.3,0.1c-0.1,0-0.1-0.1,0-0.1
			c0.1,0,0.1-0.1,0.1-0.1L285.8,344.1z M286.5,343.2L286.5,343.2l-0.5,0.6C286,343.8,286.1,343.2,286.5,343.2L286.5,343.2
			c-0.1-0.1-0.1-0.1-0.1-0.1c0.1,0,0.1,0,0.1,0C286.5,343.1,286.5,343.2,286.5,343.2z M287,343.7c0,0.1-0.1,0.1-0.1,0.1
			c0,0-0.1,0-0.1-0.1l-0.8,0.3c0,0,0.6-0.3,0.8-0.3l0,0C286.8,343.6,286.9,343.6,287,343.7C287,343.6,287,343.7,287,343.7z"/>
	</g>
	<g>
		<path fill="#F3DADC" d="M390.9,365.9c-0.1-0.1-0.1-0.1-0.3-0.1c-0.2,0-0.4,0.1-0.4,0.2c0,0.1,0.1,0.3,0.3,0.3
			c0.2,0,0.4-0.1,0.4-0.2L390.9,365.9c0.7,0.3,2.1-0.2,2.7-0.4v0.1c-0.3,0.7-0.3,1-0.3,1.1c-1.7,1.8-9.2,2.5-8.1-2.1
			c1-4.3,6.2-1.6,7.6-0.8c0.1,0.1,0.1,0.7,0.8,1.2l0.1,0.5L390.9,365.9z"/>
		<path fill="#F3DADC" d="M396,367.5c0-0.1-0.8-0.5-1-1l-0.6,0.5c-0.7-0.5-1.2-0.1-1.3-0.1c-1.2,0.6-4.2,2.7-2.4,6.1
			c0.8,1.2,3.3,1.3,3.3,1.3S398.7,372.8,396,367.5z M394.8,366.9c0,0,0,2.2-0.5,2.8h0.1c0.1,0.1,0.1,0.3,0,0.5
			c-0.1,0.2-0.3,0.3-0.4,0.2c-0.1-0.1-0.1-0.3,0-0.5c0.1-0.1,0.1-0.2,0.2-0.2L394.8,366.9z"/>
		<path fill="#F3DADC" d="M395.6,363.2c0,0.1-0.5,0.3-0.5,0.6l-0.8,0.2l-0.8-2.2c0.1-0.1,0.1-0.2,0.1-0.3c0-0.2-0.1-0.4-0.3-0.4
			c-0.1,0-0.2,0.2-0.2,0.4c0,0.2,0.1,0.4,0.3,0.4h0.1c-0.1,0.5,0.4,1.5,0.8,2.1l-0.3,0.1c-0.3-0.3-0.8-0.2-0.8-0.2
			c-2.8-1.6-3.1-5.3-3.1-5.3s0.3-4.7,5.1-2.2C397.2,358.4,395.9,362.2,395.6,363.2z"/>
		<path fill="#F3DADC" d="M397.2,365.2c-0.1,0-0.8,0.4-1,0.3l-0.3,0.8c0.2,0.3,0,0.5,0.1,0.6c0.3,1.1,2,6,6.2,4.7
			c1.6-0.3,2.1-3.2,2.1-3.2S404.8,364.7,397.2,365.2z M398.3,369.4c-0.1,0.1-0.3-0.1-0.3-0.3c-0.1-0.1-0.1-0.2,0-0.3l-1.6-2.4
			c0,0,1.6,1.5,1.6,2.3l0.1-0.1c0.1-0.1,0.3,0.1,0.3,0.3C398.5,369.1,398.4,369.4,398.3,369.4z"/>
		<path fill="#F3DADC" d="M403.7,359.6c-0.4-1.3-2.1-1.9-2.1-1.9s-3.2-1.4-6,5.3c0.3,0.3,0.3,1,0.1,0.9l0.8,0.9
			c0.4-0.2,0.8,0.1,0.8,0C398.7,364.8,404.6,363.6,403.7,359.6z M398.6,362.4c-0.1,0.1-0.2,0.1-0.3,0.1l-1.9,2.2
			c0,0,1.1-1.9,1.8-2.2c0,0-0.1,0-0.1-0.1c-0.1-0.1,0-0.3,0.2-0.4c0.2-0.1,0.4-0.1,0.5,0C398.9,362,398.8,362.2,398.6,362.4z"/>
		<path fill="#F3DADC" d="M397,365.5c0-1-0.9-1.8-2-1.8c-1.1,0-1.9,0.8-1.9,1.9s0.9,1.8,2,1.8C396.2,367.3,397,366.5,397,365.5z
			 M394,364.8l0.4,0.6C394.4,365.4,394,365,394,364.8c-0.1,0.1-0.1,0.1-0.1,0.1c-0.1,0-0.1-0.1-0.2-0.1c0-0.1,0.1-0.1,0.1-0.1
			C393.9,364.6,393.9,364.6,394,364.8C394,364.7,394,364.7,394,364.8z M394.9,365.9c0,0,0,0.8-0.5,1h0.1c0.1,0,0.1,0.1,0,0.1
			c-0.1,0.1-0.3,0.1-0.4,0.1c-0.1,0-0.1-0.1,0-0.1c0.1-0.1,0.1-0.1,0.2-0.1L394.9,365.9z M395.9,364.6c-0.1,0.1-0.1,0.1-0.1,0
			l-0.6,0.9c0,0,0.3-0.8,0.6-1l0,0c-0.1-0.1-0.1-0.2,0-0.2c0.1-0.1,0.1-0.1,0.2,0C395.9,364.4,395.9,364.5,395.9,364.6z
			 M396.7,365.4c-0.1,0.1-0.1,0.1-0.2,0.1s-0.1,0-0.1-0.1l-1.2,0.4c0,0,1-0.5,1.2-0.5c0,0,0,0,0-0.1c0.1-0.1,0.1-0.1,0.2-0.1
			C396.7,365.2,396.7,365.3,396.7,365.4z"/>
	</g>
	<g>
		<path fill="#F3DADC" d="M382.1,326.2c-0.1-0.1-0.1-0.1-0.2-0.1c-0.1,0-0.3,0.1-0.3,0.1c0,0.1,0.1,0.2,0.3,0.2
			c0.1,0,0.3-0.1,0.3-0.1C382.2,326.4,382.2,326.4,382.1,326.2c0.5,0.2,1.4-0.1,1.8-0.3v0.1c-0.2,0.5-0.2,0.7-0.2,0.8
			c-1.2,1.2-6.2,1.6-5.4-1.4c0.7-2.8,4.1-1,5.1-0.5c0.1,0,0.1,0.4,0.5,0.8v0.3L382.1,326.2z"/>
		<path fill="#F3DADC" d="M385.6,327.3c0-0.1-0.5-0.3-0.6-0.6l-0.4,0.3c-0.4-0.3-0.8-0.1-0.9-0.1c-0.8,0.4-2.8,1.9-1.6,4.1
			c0.5,0.8,2.2,0.9,2.2,0.9S387.3,330.9,385.6,327.3z M384.8,326.9c0,0,0,1.4-0.3,1.9h0.1c0.1,0.1,0.1,0.2,0,0.3s-0.2,0.2-0.3,0.1
			c-0.1-0.1-0.1-0.2,0-0.3c0.1-0.1,0.1-0.1,0.1-0.1L384.8,326.9z"/>
		<path fill="#F3DADC" d="M385.3,324.4c0,0.1-0.3,0.2-0.3,0.4l-0.5,0.1l-0.5-1.4c0-0.1,0.1-0.1,0.1-0.2c0-0.1-0.1-0.3-0.2-0.3
			c-0.1,0-0.1,0.1-0.1,0.3c0,0.1,0.1,0.3,0.2,0.3h0.1c0,0.3,0.3,1,0.5,1.4l-0.2,0.1c-0.2-0.1-0.5-0.1-0.5-0.1
			c-1.9-1.1-2.1-3.5-2.1-3.5s0.2-3.1,3.4-1.4C386.4,321.2,385.6,323.8,385.3,324.4z"/>
		<path fill="#F3DADC" d="M386.4,325.7c-0.1,0-0.5,0.3-0.6,0.2l-0.2,0.5c0.1,0.1,0,0.4,0,0.4c0.2,0.7,1.4,4,4.1,3.1
			c1.1-0.1,1.4-2.1,1.4-2.1S391.4,325.5,386.4,325.7z M387.1,328.6c-0.1,0-0.2-0.1-0.2-0.2c0-0.1,0-0.1,0-0.2l-1.1-1.6
			c0,0,1,1,1.1,1.6c0,0,0,0,0.1,0s0.2,0.1,0.2,0.2C387.1,328.4,387.2,328.6,387.1,328.6z"/>
		<path fill="#F3DADC" d="M390.7,322c-0.3-0.9-1.4-1.2-1.4-1.2s-2.2-1-4,3.6c0.2,0.2,0.2,0.7,0.1,0.6l0.5,0.6c0.3-0.1,0.5,0,0.5,0
			C387.4,325.5,391.3,324.7,390.7,322z M387.3,323.9c-0.1,0.1-0.1,0.1-0.2,0.1l-1.3,1.4c0,0,0.7-1.3,1.2-1.5c0,0,0,0-0.1-0.1
			c-0.1-0.1,0-0.2,0.1-0.3c0.1-0.1,0.3-0.1,0.3,0C387.5,323.7,387.5,323.8,387.3,323.9z"/>
		<path fill="#F3DADC" d="M386.2,325.9c0-0.7-0.6-1.2-1.3-1.2c-0.8,0-1.3,0.5-1.3,1.2c0,0.7,0.6,1.2,1.3,1.2
			C385.7,327.2,386.2,326.6,386.2,325.9z M384.3,325.5l0.3,0.4C384.5,325.9,384.3,325.6,384.3,325.5
			C384.2,325.5,384.2,325.5,384.3,325.5c-0.1,0.1-0.2,0-0.2,0l0.1-0.1C384.2,325.3,384.3,325.3,384.3,325.5
			C384.3,325.4,384.3,325.5,384.3,325.5z M384.9,326.2c0,0,0,0.5-0.3,0.6h0.1c0.1,0,0.1,0.1,0,0.1c-0.1,0.1-0.2,0.1-0.3,0.1
			c-0.1,0-0.1-0.1,0-0.1c0.1,0,0.1-0.1,0.1-0.1L384.9,326.2z M385.5,325.3L385.5,325.3l-0.5,0.6C385,325.9,385.2,325.4,385.5,325.3
			L385.5,325.3c-0.1-0.1-0.1-0.1-0.1-0.1c0.1,0,0.1,0,0.1,0C385.5,325.3,385.5,325.3,385.5,325.3z M386,325.9c0,0.1-0.1,0.1-0.1,0.1
			c0,0-0.1,0-0.1-0.1l-0.8,0.3c0,0,0.6-0.3,0.8-0.3l0,0C385.8,325.8,385.9,325.8,386,325.9C386,325.8,386,325.9,386,325.9z"/>
	</g>
	<g>
		<path fill="#F3DADC" d="M298.3,379.9c-0.1-0.1-0.1-0.1-0.3-0.1c-0.2,0-0.4,0.1-0.4,0.2c0,0.1,0.1,0.3,0.3,0.3
			c0.2,0,0.4-0.1,0.4-0.2L298.3,379.9c0.7,0.3,2.1-0.2,2.7-0.4v0.1c-0.3,0.7-0.3,1-0.3,1.1c-1.7,1.8-9.2,2.5-8.1-2.1
			c1-4.3,6.2-1.6,7.6-0.8c0.1,0.1,0.1,0.7,0.8,1.2l0.1,0.5L298.3,379.9z"/>
		<path fill="#F3DADC" d="M303.4,381.4c0-0.1-0.8-0.5-1-1l-0.6,0.5c-0.7-0.5-1.2-0.1-1.3-0.1c-1.2,0.6-4.2,2.7-2.4,6.1
			c0.8,1.2,3.3,1.3,3.3,1.3S306.1,386.7,303.4,381.4z M302.2,380.8c0,0,0,2.2-0.5,2.8h0.1c0.1,0.1,0.1,0.3,0,0.5
			c-0.1,0.2-0.3,0.3-0.4,0.2s-0.1-0.3,0-0.5c0.1-0.1,0.1-0.2,0.2-0.2L302.2,380.8z"/>
		<path fill="#F3DADC" d="M302.9,377.1c0,0.1-0.5,0.3-0.5,0.6l-0.8,0.2l-0.8-2.2c0.1-0.1,0.1-0.2,0.1-0.3c0-0.2-0.1-0.4-0.3-0.4
			c-0.1,0-0.2,0.2-0.2,0.4c0,0.2,0.1,0.4,0.3,0.4h0.1c-0.1,0.5,0.4,1.5,0.8,2.1l-0.3,0.1c-0.3-0.3-0.8-0.2-0.8-0.2
			c-2.8-1.6-3.1-5.3-3.1-5.3s0.3-4.7,5.1-2.2C304.6,372.3,303.3,376.1,302.9,377.1z"/>
		<path fill="#F3DADC" d="M304.6,379.1c-0.1,0-0.8,0.4-1,0.3l-0.3,0.8c0.2,0.3,0,0.5,0.1,0.6c0.3,1.1,2,6,6.2,4.7
			c1.6-0.3,2.1-3.2,2.1-3.2S312.1,378.6,304.6,379.1z M305.7,383.3c-0.1,0.1-0.3-0.1-0.3-0.3c-0.1-0.1-0.1-0.2,0-0.3l-1.6-2.4
			c0,0,1.6,1.5,1.6,2.3l0.1-0.1c0.1-0.1,0.3,0.1,0.3,0.3C305.8,383.1,305.8,383.3,305.7,383.3z"/>
		<path fill="#F3DADC" d="M311,373.5c-0.4-1.3-2.1-1.9-2.1-1.9s-3.2-1.4-6,5.3c0.3,0.3,0.3,1,0.1,0.9l0.8,0.9c0.4-0.2,0.8,0.1,0.8,0
			C306.1,378.7,311.9,377.5,311,373.5z M306,376.3c-0.1,0.1-0.2,0.1-0.3,0.1l-1.9,2.2c0,0,1.1-1.9,1.8-2.2c0,0-0.1,0-0.1-0.1
			c-0.1-0.1,0-0.3,0.2-0.4c0.2-0.1,0.4-0.1,0.5,0C306.3,375.9,306.1,376.2,306,376.3z"/>
		<path fill="#F3DADC" d="M304.4,379.4c0-1-0.9-1.8-2-1.8c-1.1,0-1.9,0.8-1.9,1.9s0.9,1.8,2,1.8
			C303.5,381.2,304.4,380.4,304.4,379.4z M301.3,378.7l0.4,0.6C301.8,379.3,301.4,378.9,301.3,378.7c-0.1,0.1-0.1,0.1-0.1,0.1
			c-0.1,0-0.1-0.1-0.2-0.1c-0.1-0.1,0.1-0.1,0.1-0.1C301.2,378.5,301.3,378.6,301.3,378.7C301.4,378.6,301.3,378.6,301.3,378.7z
			 M302.3,379.8c0,0,0,0.8-0.5,1h0.1c0.1,0,0.1,0.1,0,0.1c-0.1,0.1-0.3,0.1-0.4,0.1c-0.1,0-0.1-0.1,0-0.1c0.1-0.1,0.1-0.1,0.2-0.1
			L302.3,379.8z M303.3,378.5c-0.1,0.1-0.1,0.1-0.1,0l-0.7,1c0,0,0.3-0.8,0.6-1l0,0c-0.1-0.1-0.1-0.2,0-0.2c0.1,0,0.1-0.1,0.2,0
			C303.3,378.3,303.3,378.4,303.3,378.5z M304.1,379.3c-0.1,0.1-0.1,0.1-0.2,0.1s-0.1,0-0.1-0.1l-1.2,0.4c0,0,1-0.5,1.2-0.5
			c0,0,0,0,0-0.1c0.1-0.1,0.1-0.1,0.2-0.1C304.1,379.2,304.1,379.2,304.1,379.3z"/>
	</g>
	<g>
		<path fill="#F3DADC" d="M262.3,283.7c-0.1,0-0.2,0-0.3,0.1c-0.2,0.1-0.3,0.3-0.2,0.4c0.1,0.1,0.3,0.1,0.4,0
			c0.1-0.1,0.3-0.3,0.2-0.4C262.5,283.8,262.5,283.7,262.3,283.7c0.6-0.3,1.4-1.5,1.7-2l0.1,0.1c0.1,0.6,0.3,0.9,0.3,1
			c-0.3,2.3-5.4,7.5-7.2,3.6c-1.6-3.5,3.7-4.9,5.2-5.3c0.1,0,0.4,0.4,1.2,0.3l0.3,0.3L262.3,283.7z"/>
		<path fill="#F3DADC" d="M267,281.5c-0.1,0-0.9,0.2-1.2,0l-0.2,0.8c-0.8,0.1-1,0.7-1,0.8c-0.5,1.2-1.6,4.5,1.6,5.6
			c1.3,0.3,3.2-1.2,3.2-1.2S272,283.4,267,281.5z M265.8,281.9c0,0,1.2,1.4,1.2,2.2c0,0,0.1,0,0.1-0.1c0.1,0,0.3,0.1,0.3,0.3
			c0,0.2-0.1,0.3-0.1,0.4c-0.1,0-0.3-0.1-0.3-0.3c0-0.1,0-0.2,0.1-0.3L265.8,281.9z"/>
		<path fill="#F3DADC" d="M264.2,278.9c0,0.1-0.2,0.5-0.1,0.8l-0.5,0.6l-1.9-1c0-0.1-0.1-0.1-0.1-0.3c-0.1-0.1-0.3-0.2-0.4-0.1
			c-0.1,0.1-0.1,0.3,0.1,0.4c0.1,0.1,0.3,0.2,0.4,0.1c0,0,0-0.1,0.1-0.1c0.3,0.4,1.2,0.8,1.8,0.9l-0.2,0.2c-0.3,0-0.7,0.3-0.8,0.3
			c-3,0.7-5.2-1.6-5.2-1.6s-2.3-3.3,2.6-4.7C262.8,274.7,264,278,264.2,278.9z"/>
		<path fill="#F3DADC" d="M266.6,279.2c-0.1,0.1-0.3,0.8-0.5,0.8l0.2,0.8c0.3,0.1,0.3,0.3,0.3,0.4c0.8,0.5,4.9,2.7,7.2-0.8
			c1.1-1.2-0.2-3.4-0.2-3.4S271.9,274.2,266.6,279.2z M269.7,281.4c-0.1,0.1-0.3,0.1-0.4,0c-0.1-0.1-0.1-0.1-0.2-0.2l-2.5-0.6
			c0,0,2,0.1,2.5,0.5V281c0.1-0.1,0.3-0.1,0.4,0C269.7,281.1,269.8,281.2,269.7,281.4z"/>
		<path fill="#F3DADC" d="M268.3,271.4c-1-0.6-2.5,0.1-2.5,0.1s-3.2,1.1-1.4,7.3c0.3,0.1,0.8,0.5,0.5,0.5l1.1,0.1
			c0.1-0.4,0.6-0.5,0.6-0.5C267.5,278,271.2,273.6,268.3,271.4z M266,276.4c-0.1,0.1-0.1,0.2-0.2,0.3l-0.2,2.7c0,0-0.3-1.9,0.1-2.6
			h-0.1c-0.1,0-0.1-0.2-0.1-0.4c0.1-0.2,0.2-0.3,0.3-0.3C266.1,276.1,266.1,276.2,266,276.4z"/>
		<path fill="#F3DADC" d="M266.6,279.5c-0.5-0.7-1.6-0.6-2.5,0.1c-0.8,0.7-1,1.8-0.4,2.5s1.6,0.6,2.5-0.1
			C267,281.3,267.2,280.2,266.6,279.5z M264,281l0.7,0.1C264.6,281.1,264.1,281.1,264,281c0,0.1,0,0.1-0.1,0.1
			c-0.1,0.1-0.1,0.1-0.2,0c-0.1-0.1-0.1-0.1,0-0.2C263.8,280.8,263.9,280.8,264,281C264,280.9,264,281,264,281z M265.3,281.1
			c0,0,0.4,0.5,0.2,1c0,0,0.1,0,0.1-0.1c0.1-0.1,0.1,0,0.1,0.1c-0.1,0.1-0.1,0.3-0.3,0.3c-0.1,0.1-0.1,0-0.1-0.1s0.1-0.1,0.1-0.2
			L265.3,281.1z M265.3,279.7c0,0.1-0.1,0.1-0.1,0.1l0.1,1c0,0-0.3-0.7-0.1-1c0,0,0,0-0.1,0c-0.1,0-0.1-0.1-0.1-0.1
			c0-0.1,0.1-0.1,0.2-0.1S265.3,279.6,265.3,279.7z M266.3,279.7c0,0.1,0,0.1-0.1,0.2h-0.1l-0.6,1c0,0,0.4-1,0.6-1c0,0,0,0,0-0.1
			C266.2,279.7,266.2,279.7,266.3,279.7C266.2,279.6,266.3,279.6,266.3,279.7z"/>
	</g>
	<g>
		<path fill="#F3DADC" d="M443.9,407.9c0-0.1-0.1-0.1-0.1-0.1c-0.1-0.1-0.3-0.1-0.3-0.1c-0.1,0.1,0,0.2,0.1,0.3
			c0.1,0.1,0.3,0.1,0.3,0.1C443.9,408,443.9,408,443.9,407.9c0.3,0.4,1.3,0.6,1.6,0.7v0.1c-0.4,0.3-0.5,0.5-0.5,0.5
			c-1.6,0.4-6.1-1.7-3.9-4c2.1-2.1,4,1.2,4.6,2.2c0,0.1-0.2,0.4,0.1,1l-0.1,0.3L443.9,407.9z"/>
		<path fill="#F3DADC" d="M446.3,410.5c0-0.1-0.3-0.5-0.2-0.8l-0.5,0.1c-0.2-0.5-0.6-0.5-0.7-0.5c-0.9,0-3.4,0.1-3.5,2.6
			c0.1,1,1.4,1.9,1.4,1.9S446.1,414.4,446.3,410.5z M445.8,409.8c0,0-0.8,1.2-1.2,1.4c0,0,0,0,0.1,0.1c0.1,0.1,0,0.2-0.1,0.3
			c-0.1,0.1-0.3,0.1-0.3,0c-0.1-0.1,0-0.2,0.1-0.3c0.1-0.1,0.1-0.1,0.2-0.1L445.8,409.8z"/>
		<path fill="#F3DADC" d="M447.5,407.9c0,0-0.3,0-0.5,0.1l-0.5-0.1l0.3-1.5c0.1,0,0.1-0.1,0.1-0.1c0.1-0.1,0.1-0.3,0-0.3
			c-0.1-0.1-0.2,0-0.3,0.1c-0.1,0.1-0.1,0.3,0,0.3c0,0,0,0,0.1,0c-0.2,0.3-0.3,1-0.3,1.4l-0.2-0.1c-0.1-0.3-0.3-0.3-0.4-0.4
			c-1-1.9,0-4,0-4s1.8-2.5,3.7,0.5C450.1,405.8,448.1,407.5,447.5,407.9z"/>
		<path fill="#F3DADC" d="M447.8,409.6c-0.1,0-0.6,0-0.7-0.1l-0.5,0.3c0,0.2-0.2,0.3-0.2,0.3c-0.2,0.7-0.8,4,2,4.7
			c1,0.4,2.3-1,2.3-1S452.2,412,447.8,409.6z M446.9,412.4c-0.1,0-0.1-0.1-0.1-0.3c0-0.1,0.1-0.1,0.1-0.2l-0.1-1.9
			c0,0,0.3,1.4,0.1,1.9h0.1c0.1,0,0.1,0.1,0.1,0.3C447.1,412.3,447.1,412.4,446.9,412.4z"/>
		<path fill="#F3DADC" d="M453.3,408.7c0.2-0.9-0.5-1.7-0.5-1.7s-1.4-1.9-5.3,1c0.1,0.3-0.2,0.7-0.3,0.5l0.1,0.8
			c0.3,0,0.4,0.3,0.5,0.3C448.8,409.9,452.5,411.2,453.3,408.7z M449.5,408.5c-0.1,0-0.1,0-0.2-0.1l-1.9,0.6c0,0,1.2-0.7,1.8-0.6
			c0,0,0,0,0-0.1s0.1-0.1,0.3-0.1s0.3,0.1,0.3,0.1C449.8,408.5,449.7,408.5,449.5,408.5z"/>
		<path fill="#F3DADC" d="M447.6,409.7c0.3-0.5,0.1-1.3-0.5-1.7c-0.6-0.3-1.4-0.2-1.7,0.3c-0.3,0.5-0.1,1.3,0.5,1.7
			C446.5,410.4,447.2,410.3,447.6,409.7z M446.1,408.2l0.1,0.5C446.1,408.7,446,408.4,446.1,408.2c-0.1,0-0.1,0-0.1,0
			c-0.1,0-0.1-0.1-0.1-0.1c0-0.1,0.1-0.1,0.1-0.1C446.1,408.1,446.1,408.2,446.1,408.2C446.1,408.2,446.1,408.2,446.1,408.2z
			 M446.3,409.2c0,0-0.3,0.4-0.6,0.3c0,0,0,0,0.1,0c0.1,0.1,0.1,0.1-0.1,0.1c-0.1,0-0.2-0.1-0.3-0.1c-0.1-0.1-0.1-0.1,0.1-0.1
			c0.1,0,0.1,0,0.1,0L446.3,409.2z M447.2,408.8C447.1,408.8,447.1,408.8,447.2,408.8l-0.8,0.2c0,0,0.4-0.4,0.7-0.3l0,0
			c0-0.1,0-0.1,0.1-0.1s0.1,0,0.1,0.1C447.3,408.7,447.3,408.8,447.2,408.8z M447.4,409.5c-0.1,0-0.1,0-0.1,0v-0.1l-0.8-0.1
			c0,0,0.8,0,0.8,0.1l0,0C447.4,409.5,447.4,409.5,447.4,409.5C447.5,409.5,447.5,409.5,447.4,409.5z"/>
	</g>
	<g>
		<path fill="#F0BCC8" d="M317.2,336.9c-0.1,0.1-0.3,0.2-0.4,0.3c-0.2,0.3-0.3,0.7-0.1,0.8c0.1,0.1,0.5,0,0.8-0.3
			c0.3-0.3,0.3-0.7,0.1-0.8c0,0-0.1-0.1-0.1-0.1c0.8-0.8,1.4-3.5,1.6-4.5l0.1,0.1c0.7,1,1.2,1.3,1.2,1.4c1,4.1-4.7,16.3-10.2,10.8
			c-5-5,3.3-10.9,5.7-12.4c0.1-0.1,1,0.4,2.4-0.2l0.8,0.3L317.2,336.9z"/>
		<path fill="#F0BCC8" d="M324,330.1c-0.1,0-1.4,0.9-2.1,0.7l0.1,1.4c-1.2,0.6-1.2,1.8-1.2,1.9c-0.1,2.3,0.1,8.8,6.4,8.7
			c2.5-0.3,4.7-4.1,4.7-4.1S333.7,330.2,324,330.1z M322,331.5c0,0,3.1,1.7,3.5,3c0-0.1,0.1-0.1,0.1-0.1c0.2-0.1,0.5,0,0.7,0.3
			c0.2,0.3,0.1,0.7,0,0.8c-0.2,0.1-0.5,0-0.7-0.3c-0.1-0.2-0.1-0.3-0.1-0.5L322,331.5z"/>
		<path fill="#F0BCC8" d="M317.5,327.3c0.1,0.1-0.1,1,0.3,1.4l-0.4,1.3l-3.8-0.5c-0.1-0.1-0.2-0.3-0.3-0.3c-0.3-0.1-0.7-0.1-0.8,0.1
			c-0.1,0.2,0.1,0.5,0.4,0.7s0.7,0.1,0.8-0.1c0-0.1,0-0.1,0-0.1c0.7,0.5,2.5,0.5,3.6,0.5l-0.1,0.5c-0.6,0.3-1,1-1.1,1.1
			c-4.9,3.1-10.1,0.5-10.1,0.5s-6.2-4.3,1.5-9.8C312.3,320.9,316.4,325.9,317.5,327.3z"/>
		<path fill="#F0BCC8" d="M321.8,326.3c-0.1,0.1-0.1,1.6-0.3,1.8l0.8,1.2c0.5-0.1,0.8,0.4,0.9,0.4c1.8,0.3,10.1,1.6,11.9-5.9
			c1.1-2.8-2.5-5.8-2.5-5.8S327.8,314.3,321.8,326.3z M328.6,328.1c-0.1,0.2-0.4,0.3-0.8,0.3c-0.2-0.1-0.3-0.1-0.4-0.3l-4.8,0.5
			c0,0,3.5-1.2,4.7-0.8c0-0.1,0-0.1,0-0.1c0.1-0.2,0.4-0.3,0.8-0.3C328.4,327.5,328.6,327.9,328.6,328.1z"/>
		<path fill="#F0BCC8" d="M319.8,311.8c-2.2-0.3-4.4,1.6-4.4,1.6s-4.9,3.9,2.1,13.6c0.7-0.1,1.6,0.4,1.4,0.6l2-0.5
			c0.1-0.8,0.8-1.2,0.8-1.3C322.5,323.7,326.1,313.7,319.8,311.8z M319.1,321.9c0,0.2-0.1,0.4-0.1,0.5l1.4,4.7c0,0-1.7-3.2-1.5-4.6
			c-0.1,0-0.1,0.1-0.1,0.1c-0.2,0-0.4-0.3-0.4-0.7c0-0.4,0.2-0.7,0.4-0.8C318.9,321.2,319.1,321.5,319.1,321.9z"/>
		<path fill="#F0BCC8" d="M322,326.9c-1.4-0.8-3.3,0-4.3,1.6c-1,1.7-0.5,3.7,0.8,4.5c1.4,0.8,3.3,0,4.3-1.6S323.4,327.7,322,326.9z
			 M318.3,331l1.2-0.2C319.5,330.8,318.6,331.2,318.3,331c0.1,0.1,0.1,0.2,0,0.2c-0.1,0.1-0.2,0.2-0.3,0.1s-0.1-0.2-0.1-0.3
			c0.1-0.1,0.2-0.2,0.3-0.1C318.2,331,318.3,331,318.3,331z M320.6,330.5c0,0,1,0.6,0.9,1.6c0-0.1,0.1-0.1,0.1-0.1
			c0.1-0.1,0.3-0.1,0.3,0.1c0,0.2-0.1,0.5-0.3,0.7c-0.1,0.1-0.3,0.1-0.3-0.1c0-0.1,0-0.3,0.1-0.4L320.6,330.5z M319.7,328
			c0,0.1,0,0.2-0.1,0.3l0.8,1.7c0,0-1-1-0.8-1.7h-0.1c-0.1,0-0.3-0.1-0.3-0.2c0-0.1,0.1-0.3,0.2-0.3
			C319.5,327.7,319.7,327.8,319.7,328z M321.6,327.4c0.1,0.1,0.1,0.3,0,0.4c-0.1,0.1-0.1,0.1-0.1,0.1L321,330c0,0,0.1-1.9,0.4-2.2
			c0,0,0-0.1-0.1-0.1c-0.1-0.1-0.1-0.3,0-0.4C321.4,327.3,321.5,327.3,321.6,327.4z"/>
	</g>
</g>
<path fill="#FFFFFF" d="M130.4,246.3c4-13,25.4-25,39.7-16.3c32-25.9,58.7-2.6,58.7-2.6s14.7-6.7,14.2,8.1c0,0,18.9,6.1,4.1,23
	c8,4.7,8.7,30.4-13.2,23.7c-27.4,20.4-40.4-2.8-40.4-2.8s-13.5,18-37.7,6c-19.8,7.8-27.2-4.5-27.2-4.5s-23-2.7-19.3-22.2
	C114.6,240.4,130.4,246.3,130.4,246.3z"/>
<g>
	<path fill="#C4C4C4" d="M664.6,426.2c0,0-2.2,0.7-6.3,1.9c-4.1,1.2-10.2,2.7-18,4.6c-7.7,1.9-17.3,3.9-28.2,5.8
		c-11,1.9-23.4,3.8-37,5.1c-13.6,1.2-28.5,2-44.2,1.3c-7.9-0.3-15.9-1.1-24.1-2.4c-8.2-1.3-16.5-3.2-24.7-6
		c-8.2-2.8-16.3-6.4-23.7-11.4c-7.5-4.9-14.3-11.1-19.8-18.5c-5.5-7.4-9.5-15.8-12.1-24.8c-0.7-2.2-1.2-4.5-1.7-6.7
		c-0.2-1.2-0.5-2.3-0.6-3.4l-0.5-3.4c-0.3-2.3-0.8-4.4-1.3-6.6c-0.5-2.2-1.1-4.3-1.7-6.4c-2.7-8.5-6.7-16.6-11.8-23.8
		c-5.2-7.2-11.6-13.4-18.7-18.4c-7.1-5.1-15-9-23.1-11.8c-8.1-2.9-16.5-4.6-24.8-5.4c-8.3-0.8-16.6-0.7-24.5,0.5
		c-8,1.1-15.5,3.3-22.3,6.6c-1.6,0.8-3.4,1.7-4.9,2.7l-1.2,0.8l-1.2,0.8c-0.8,0.5-1.6,1-2.5,1.5c-3.4,2-6.8,3.8-10.3,5.3
		s-7.1,2.7-10.8,3.4c-3.6,0.7-7.4,1-11,0.5c-3.6-0.4-7.1-1.6-10.2-3.4c-3-1.7-5.6-4-7.7-6.4c-4.3-4.9-7-10.5-9.1-15.7
		c-4-10.6-5.7-20.2-6.9-28.2c-1.1-8-1.6-14.2-2.1-18.4c-0.2-2.1-0.5-3.8-0.7-4.8c-0.2-1.1-0.4-1.6-0.4-1.6l0.4-0.2
		c0,0,0.3,0.5,0.5,1.6s0.6,2.7,1,4.8c0.7,4.3,1.5,10.4,2.9,18.2c0.8,3.9,1.6,8.2,2.9,12.8c1.2,4.6,2.7,9.5,4.9,14.5
		c2.1,5,4.9,10.2,9,14.5c2.1,2.2,4.4,4.1,7.1,5.6c2.7,1.4,5.7,2.4,8.8,2.7c3.2,0.3,6.4,0.1,9.7-0.7c3.3-0.7,6.6-1.9,9.9-3.4
		c3.3-1.4,6.4-3.2,9.7-5.1c0.8-0.5,1.6-1,2.3-1.5l1.2-0.8l1.2-0.8c1.7-1.1,3.4-2.1,5.3-3c3.6-1.9,7.5-3.4,11.5-4.5
		c4-1.2,8.1-2.1,12.3-2.7c8.4-1.2,17-1.4,25.7-0.6c8.7,0.9,17.4,2.8,25.9,5.8s16.7,7.3,24.1,12.6c7.5,5.4,14.1,12.1,19.5,19.7
		c5.3,7.6,9.5,16.2,12.1,25.1c0.7,2.3,1.2,4.5,1.8,6.7c0.5,2.3,1,4.6,1.2,6.9l0.5,3.4c0.1,1.1,0.4,2.2,0.6,3.3
		c0.5,2.2,1,4.4,1.6,6.5c2.3,8.6,6.2,16.7,11.3,23.8c5.1,7.1,11.6,13.2,18.8,18c7.1,4.9,15,8.5,23,11.3c8,2.8,16.1,4.7,24.1,6.1
		c8,1.4,16,2.2,23.8,2.7c15.6,0.9,30.4,0.4,44-0.7c13.6-1.1,26-2.7,37-4.6c11-1.8,20.4-3.7,28.3-5.4c7.8-1.7,13.9-3.2,18-4.3
		s6.3-1.7,6.3-1.7L664.6,426.2z"/>
</g>
<polygon fill="#FF99A1" points="185.1,127.7 145.7,198.1 229.6,295.5 256,166.6 "/>
<g>
	<line fill="none" stroke="#FFFFFF" stroke-width="5" stroke-miterlimit="10" x1="146.2" y1="198.3" x2="256.6" y2="166.8"/>
	<line fill="none" stroke="#FFFFFF" stroke-width="5" stroke-miterlimit="10" x1="185.6" y1="127.9" x2="230.1" y2="295.6"/>
</g>
<path fill="#FFFFFF" d="M647.1,303.9c-17.3,12.8-30.7,0-30.7,0s-15.5,3.6-12.5-7.7c0,0-14.3-2.2-1.4-10.7c-3.6-4,1.2-14.3,12.6-10.2
	c6.9-9.7,30.5-14.3,40.8,0.2c11.5,5.8,0.6,11.5,0.6,11.5S670.2,306.7,647.1,303.9z"/>
</svg>
