<?xml version="1.0" encoding="utf-8"?>
<!-- Generator: Adobe Illustrator 18.1.1, SVG Export Plug-In . SVG Version: 6.00 Build 0)  -->
<svg version="1.1" id="Isolation_Mode" xmlns="http://www.w3.org/2000/svg" xmlns:xlink="http://www.w3.org/1999/xlink" x="0px"
	 y="0px" viewBox="0 0 331.3 114.4" enable-background="new 0 0 331.3 114.4" xml:space="preserve">
<path fill="#3DA8A4" d="M34.9,88.5c18.4,8.2,48.1,16.8,70.6,0.6c31.6,56.9,94.7,0,94.7,0s52.6,23.8,78.9,0c0,0,52.1,3.6,52.1-45.5
	S304,10.9,279.2,5H34.9C34.9,5,2,14,2,46S34.9,88.5,34.9,88.5z"/>
<path fill="#FFFFFF" d="M32.9,83.5c18.4,8.2,48.1,16.8,70.6,0.6c31.6,56.9,94.7,0,94.7,0s52.6,23.8,78.9,0c0,0,52.1,3.6,52.1-45.5
	S302,5.9,277.2,0H32.9C32.9,0,0,9,0,41S32.9,83.5,32.9,83.5z"/>
</svg>
