<?xml version="1.0" encoding="utf-8"?>
<!-- Generator: Adobe Illustrator 18.1.1, SVG Export Plug-In . SVG Version: 6.00 Build 0)  -->
<svg version="1.1" id="Capa_1" xmlns="http://www.w3.org/2000/svg" xmlns:xlink="http://www.w3.org/1999/xlink" x="0px" y="0px"
	 viewBox="147 -163.6 466.6 466.6" enable-background="new 147 -163.6 466.6 466.6" xml:space="preserve">
<g>
	<path fill="#FEF9BD" d="M380.3-163.6C295.2-163.6,226-94.3,226-9.2c0,34.3,21.9,90.2,66.9,170.8c31.8,57.1,63.2,104.6,64.5,106.6
		l22.9,34.8l22.9-34.8c1.3-2,32.6-49.6,64.5-106.6c45-80.7,66.9-136.6,66.9-170.8C534.6-94.3,465.4-163.6,380.3-163.6z M380.3,69.7
		c-44.2,0-80-35.8-80-80s35.8-80,80-80s80,35.8,80,80S424.5,69.7,380.3,69.7z"/>
</g>
</svg>
