<?xml version="1.0" encoding="utf-8"?>
<!-- Generator: Adobe Illustrator 18.1.1, SVG Export Plug-In . SVG Version: 6.00 Build 0)  -->
<svg version="1.1" id="Capa_1" xmlns="http://www.w3.org/2000/svg" xmlns:xlink="http://www.w3.org/1999/xlink" x="0px" y="0px"
	 viewBox="0 0 171 140" enable-background="new 0 0 171 140" xml:space="preserve">
<g>
	<path fill="#3DA8A4" d="M85.5,0C46.9,0,15.6,31.3,15.6,69.9s31.3,69.9,69.9,69.9s69.9-31.3,69.9-69.9S124.1,0,85.5,0z M85.5,128.8
		c-32.6,0-59-26.4-59-59s26.4-59,59-59s59,26.4,59,59S118.1,128.8,85.5,128.8z"/>
	<path fill="#3DA8A4" d="M85.5,48H50.6v43.7h34.9h34.9V48H85.5z M85.5,52.4H110L85.5,69.8L61,52.4H85.5z M54.9,53.6l14.9,10.1
		L54.9,79.9V53.6z M85.5,87.4H60.3l12.4-21.7l12.8,8.6l12.8-8.6l12.4,21.7H85.5z M116.1,79.9l-14.9-16.2l14.9-10.1V79.9z"/>
</g>
</svg>
