<?xml version="1.0" encoding="utf-8"?>
<!-- Generator: Adobe Illustrator 18.1.1, SVG Export Plug-In . SVG Version: 6.00 Build 0)  -->
<svg version="1.1" id="Capa_1" xmlns="http://www.w3.org/2000/svg" xmlns:xlink="http://www.w3.org/1999/xlink" x="0px" y="0px"
	 viewBox="0 0 171 140" enable-background="new 0 0 171 140" xml:space="preserve">
<g>
	<path fill="#3DA8A4" d="M85.9-0.2c-38.7,0-70.1,31.4-70.1,70.1S47.2,140,85.9,140s70.1-31.4,70.1-70.1S124.7-0.2,85.9-0.2z
		 M85.9,129c-32.7,0-59.2-26.5-59.2-59.2s26.5-59.2,59.2-59.2s59.2,26.5,59.2,59.2S118.6,129,85.9,129z"/>
	<path fill="#3DA8A4" d="M105.4,104.9c1.6,0,15.6-10.4,15.6-11.7c0-1.3-15.7-11.2-17-11.2s-5.9,5.5-7.1,6.1
		c-1.2,0.6-8.9,0.4-17.4-8.2C70.8,71.4,67.9,61.6,67.9,60s7.1-6.3,7.3-7.4c0.2-1.1-9.4-17.8-11-17.8S50.9,49.2,50.9,50.4
		c0,1.2,1.1,16.6,20.6,36.1S103.9,104.9,105.4,104.9z"/>
</g>
</svg>
