<?xml version="1.0" encoding="utf-8"?>
<!-- Generator: Adobe Illustrator 18.1.1, SVG Export Plug-In . SVG Version: 6.00 Build 0)  -->
<svg version="1.1" id="Isolation_Mode" xmlns="http://www.w3.org/2000/svg" xmlns:xlink="http://www.w3.org/1999/xlink" x="0px"
	 y="0px" viewBox="0 0 490.9 102" enable-background="new 0 0 490.9 102" xml:space="preserve">
<path fill="#3DA8A4" d="M55.9,86.3c43.9,21.4,81.8-2.2,81.8-2.2s42.1,17.1,63.2,9c54.4,24.1,105.3-9,105.3-9s47.4,27.8,82.5,6.4
	c38.5,8.1,65.3,0.2,79.5-6.4c0,0,22.9-18.1,22.9-40.3S468,4.6,468,4.6H55.8c0,0-43.6,0-28.9,34.8C8.7,42-12.4,64.2,9,80.9
	s46.9,2.4,46.9,2.4L55.9,86.3z"/>
<path fill="#FFFFFF" d="M55.9,81.7c43.9,21.4,81.8-2.2,81.8-2.2s42.1,17.1,63.2,9c54.4,24.1,105.3-9,105.3-9s47.4,27.8,82.5,6.4
	c38.5,8.1,65.3,0.2,79.5-6.4c0,0,22.9-18.1,22.9-40.3S468,0,468,0H55.8c0,0-43.6,0-28.9,34.8C8.7,37.5-12.4,59.7,9,76.3
	s46.9,2.4,46.9,2.4L55.9,81.7z"/>
</svg>
