<?xml version="1.0" encoding="utf-8"?>
<!-- Generator: Adobe Illustrator 18.1.1, SVG Export Plug-In . SVG Version: 6.00 Build 0)  -->
<svg version="1.1" id="Layer_1" xmlns="http://www.w3.org/2000/svg" xmlns:xlink="http://www.w3.org/1999/xlink" x="0px" y="0px"
	 viewBox="0 86 171 54" enable-background="new 0 86 171 54" xml:space="preserve">
<polygon fill="#7ACCBE" points="173.2,139.5 -3.8,141.3 -3.9,138.5 173.1,134.7 "/>
<polygon fill="#3DA8A4" points="173.2,140.6 -4.1,142.4 -4.2,139.2 173.1,135.1 "/>
<g>
	<g>
		<path fill="#F0BCC8" d="M153.6,125.7c0,0-0.1,0-0.1,0c-0.1,0-0.1,0-0.1-0.1s0-0.1,0.1-0.1C153.6,125.6,153.6,125.6,153.6,125.7
			L153.6,125.7c0.2-0.1,0.6,0.1,0.8,0.1l0,0c-0.1-0.2-0.1-0.3-0.1-0.3c-0.5-0.6-2.8-0.9-2.5,0.5c0.2,1.4,1.9,0.6,2.3,0.4
			c0,0,0-0.2,0.3-0.3l0-0.2L153.6,125.7z"/>
		<path fill="#F0BCC8" d="M154.8,123.2c0,0-0.8,0-1.1,0.3c-0.6,1,0.3,1.7,0.6,2c0,0,0.2,0.1,0.4,0l0.2,0.2c0-0.1,0.3-0.3,0.3-0.3
			C156.2,123.7,154.8,123.2,154.8,123.2z M154.7,124.6C154.7,124.6,154.7,124.6,154.7,124.6c-0.1-0.1-0.1-0.2-0.1-0.2
			c0,0,0.1,0,0.1,0.1C154.8,124.5,154.8,124.6,154.7,124.6C154.8,124.6,154.8,124.6,154.7,124.6c0.2,0.2,0.1,0.9,0.1,0.9
			L154.7,124.6z"/>
		<path fill="#F0BCC8" d="M155,126.6c0,0-0.1-0.1-0.2-0.2l-0.2-0.1l-0.3,0.7c0,0,0,0.1,0,0.1c0,0.1,0,0.1-0.1,0.1
			c0,0-0.1-0.1-0.1-0.1c0-0.1,0-0.1,0.1-0.1l0,0c0-0.2,0.2-0.5,0.3-0.6l-0.1,0c-0.1,0.1-0.2,0-0.3,0.1c-0.9,0.4-1.1,1.6-1.1,1.6
			s0,1.5,1.6,0.8C155.5,128.2,155.1,127,155,126.6z"/>
		<path fill="#F0BCC8" d="M157.8,125.2c0,0-0.1-0.9-0.6-1c-1.3-0.5-1.9,1-2,1.3c0,0,0,0.1,0,0.2l0.1,0.3c0,0,0.3,0.1,0.3,0.1
			C157.9,126.4,157.8,125.2,157.8,125.2z M156,125c0,0.1-0.1,0.1-0.1,0.1l0,0c0,0.2-0.6,0.7-0.6,0.7l0.5-0.7c0,0,0-0.1,0-0.1
			c0-0.1,0.1-0.1,0.1-0.1S156,124.8,156,125z"/>
		<path fill="#F0BCC8" d="M155.6,126.1c0,0-0.1,0.1-0.3,0l-0.3,0.3c0.1,0,0,0.2,0,0.3c0.7,2.2,1.7,1.8,1.7,1.8s0.5-0.1,0.7-0.5
			C157.8,126.7,156,126.2,155.6,126.1z M156,127.1c0,0-0.1,0-0.1,0c-0.1,0-0.1-0.1-0.1-0.1l0,0c-0.2-0.1-0.5-0.7-0.5-0.7l0.5,0.7
			c0,0,0.1,0,0.1,0C156,127,156,127.1,156,127.1z"/>
		<path fill="#F0BCC8" d="M155,125.4c-0.3,0-0.6,0.2-0.7,0.5c0,0.3,0.2,0.6,0.6,0.6c0.3,0,0.6-0.2,0.7-0.5
			C155.6,125.7,155.3,125.4,155,125.4z M154.6,126.2C154.6,126.2,154.5,126.2,154.6,126.2c-0.1,0-0.1,0-0.1,0
			S154.5,126.1,154.6,126.2C154.5,126.1,154.5,126.1,154.6,126.2c0-0.1,0.2-0.2,0.2-0.2L154.6,126.2
			C154.6,126.1,154.6,126.2,154.6,126.2z M154.7,125.5C154.7,125.5,154.7,125.5,154.7,125.5C154.6,125.5,154.6,125.5,154.7,125.5
			C154.7,125.5,154.7,125.5,154.7,125.5C154.8,125.5,154.8,125.5,154.7,125.5C154.7,125.5,154.7,125.5,154.7,125.5
			c0.2,0.1,0.2,0.3,0.2,0.3L154.7,125.5z M155.2,126.3C155.2,126.3,155.1,126.3,155.2,126.3C155.1,126.3,155.1,126.3,155.2,126.3
			L155.2,126.3c-0.2-0.1-0.2-0.4-0.2-0.4L155.2,126.3L155.2,126.3C155.2,126.2,155.2,126.3,155.2,126.3z M155.4,126
			C155.4,126,155.4,126,155.4,126L155.4,126c-0.1,0-0.4-0.2-0.4-0.2L155.4,126L155.4,126C155.3,126,155.4,126,155.4,126
			C155.4,126,155.4,126,155.4,126z"/>
	</g>
	<g>
		<path fill="#F0BCC8" d="M166.8,110.6C166.8,110.6,166.8,110.6,166.8,110.6C166.8,110.6,166.8,110.6,166.8,110.6
			C166.8,110.6,166.8,110.6,166.8,110.6L166.8,110.6L166.8,110.6c0.1,0,0.2,0,0.2,0l0,0c0,0,0-0.1,0-0.1c-0.1-0.1-0.7-0.2-0.6,0.1
			c0.1,0.3,0.5,0.2,0.6,0.1c0,0,0,0,0.1-0.1v0L166.8,110.6z"/>
		<path fill="#F0BCC8" d="M167.1,110c0,0-0.2,0-0.3,0.1c-0.2,0.3,0.1,0.4,0.2,0.5c0,0,0,0,0.1,0l0,0c0,0,0.1-0.1,0.1-0.1
			C167.5,110.1,167.1,110,167.1,110z M167.1,110.3L167.1,110.3C167.1,110.3,167.1,110.3,167.1,110.3
			C167.1,110.3,167.1,110.3,167.1,110.3C167.1,110.3,167.1,110.3,167.1,110.3L167.1,110.3c0,0.1,0,0.2,0,0.2L167.1,110.3z"/>
		<path fill="#F0BCC8" d="M167.2,110.8C167.2,110.8,167.1,110.8,167.2,110.8l-0.1,0L167,111l0,0v0c0,0,0,0,0,0c0,0,0,0,0,0l0,0
			c0,0,0-0.1,0.1-0.2l0,0H167c-0.2,0.1-0.3,0.4-0.3,0.4s0,0.3,0.4,0.2C167.3,111.2,167.2,110.9,167.2,110.8z"/>
		<path fill="#F0BCC8" d="M167.9,110.5c0,0,0-0.2-0.1-0.3c-0.3-0.1-0.5,0.2-0.5,0.3v0v0.1l0.1,0
			C167.9,110.8,167.9,110.5,167.9,110.5z M167.4,110.4C167.4,110.4,167.4,110.5,167.4,110.4C167.4,110.4,167.4,110.4,167.4,110.4
			c0,0.1-0.2,0.2-0.2,0.2L167.4,110.4L167.4,110.4C167.4,110.4,167.4,110.4,167.4,110.4C167.4,110.4,167.4,110.4,167.4,110.4z"/>
		<path fill="#F0BCC8" d="M167.3,110.7C167.3,110.7,167.3,110.7,167.3,110.7l-0.1,0.1c0,0,0,0,0,0.1c0.2,0.5,0.4,0.4,0.4,0.4
			s0.1,0,0.2-0.1C167.9,110.9,167.4,110.8,167.3,110.7z M167.4,111C167.4,111,167.4,111,167.4,111L167.4,111L167.4,111
			c-0.1-0.1-0.2-0.2-0.2-0.2L167.4,111C167.4,110.9,167.4,110.9,167.4,111C167.4,110.9,167.4,110.9,167.4,111z"/>
		<path fill="#F0BCC8" d="M167.2,110.5c-0.1,0-0.2,0-0.2,0.1c0,0.1,0.1,0.1,0.1,0.1c0.1,0,0.2,0,0.2-0.1
			C167.3,110.6,167.2,110.5,167.2,110.5z M167.1,110.7L167.1,110.7L167.1,110.7C167,110.7,167.1,110.7,167.1,110.7L167.1,110.7
			C167.1,110.7,167.1,110.7,167.1,110.7L167.1,110.7L167.1,110.7z M167.1,110.6L167.1,110.6C167.1,110.5,167.1,110.5,167.1,110.6
			C167.1,110.5,167.1,110.5,167.1,110.6L167.1,110.6L167.1,110.6C167.1,110.6,167.1,110.6,167.1,110.6L167.1,110.6z M167.2,110.8
			C167.2,110.8,167.2,110.8,167.2,110.8L167.2,110.8L167.2,110.8c0,0-0.1-0.1-0.1-0.1L167.2,110.8L167.2,110.8L167.2,110.8z
			 M167.3,110.7C167.3,110.7,167.3,110.7,167.3,110.7L167.3,110.7c0,0-0.1-0.1-0.1-0.1L167.3,110.7L167.3,110.7L167.3,110.7
			L167.3,110.7z"/>
	</g>
	<g>
		<path fill="#F3DADC" d="M164.9,116.8C164.9,116.8,164.9,116.8,164.9,116.8c-0.1,0-0.1,0-0.1,0
			C164.8,116.7,164.8,116.7,164.9,116.8C164.8,116.7,164.9,116.7,164.9,116.8L164.9,116.8c0.1,0,0.3,0,0.3,0.1l0,0
			c0-0.1,0-0.1,0-0.1c-0.2-0.3-1.2-0.4-1.1,0.2c0.1,0.6,0.8,0.3,1,0.2c0,0,0-0.1,0.1-0.2v-0.1L164.9,116.8z"/>
		<path fill="#F3DADC" d="M165.3,115.7c0,0-0.3,0-0.5,0.1c-0.3,0.4,0.1,0.7,0.3,0.8c0,0,0.1,0.1,0.2,0l0.1,0.1
			c0-0.1,0.1-0.1,0.1-0.1C166,115.9,165.3,115.7,165.3,115.7z M165.3,116.3C165.3,116.3,165.3,116.3,165.3,116.3c0-0.1,0-0.1,0-0.1
			C165.3,116.2,165.4,116.2,165.3,116.3C165.4,116.3,165.4,116.3,165.3,116.3L165.3,116.3c0.1,0.1,0,0.4,0,0.4L165.3,116.3z"/>
		<path fill="#F3DADC" d="M165.5,117.2c0,0-0.1,0-0.1-0.1l-0.1,0l-0.1,0.3v0c0,0,0,0,0,0c0,0,0,0,0-0.1c0,0,0,0,0,0l0,0
			c0-0.1,0.1-0.2,0.1-0.3h0c0,0-0.1,0-0.1,0c-0.4,0.2-0.5,0.7-0.5,0.7s0,0.6,0.7,0.3C165.6,117.9,165.5,117.4,165.5,117.2z"/>
		<path fill="#F3DADC" d="M166.7,116.6c0,0,0-0.4-0.3-0.4c-0.5-0.2-0.8,0.4-0.9,0.6c0,0,0,0,0,0.1l0,0.1c0,0,0.1,0.1,0.1,0.1
			C166.7,117.1,166.7,116.6,166.7,116.6z M165.9,116.4C165.9,116.5,165.8,116.5,165.9,116.4L165.9,116.4c0,0.1-0.3,0.3-0.3,0.3
			L165.9,116.4L165.9,116.4C165.8,116.4,165.8,116.4,165.9,116.4C165.9,116.4,165.9,116.4,165.9,116.4z"/>
		<path fill="#F3DADC" d="M165.7,117c0,0-0.1,0-0.1,0l-0.1,0.1c0,0,0,0.1,0,0.1c0.3,0.9,0.8,0.8,0.8,0.8s0.2-0.1,0.3-0.2
			C166.7,117.2,165.9,117,165.7,117z M165.9,117.4C165.9,117.4,165.8,117.4,165.9,117.4C165.8,117.4,165.8,117.4,165.9,117.4
			L165.9,117.4c-0.2-0.1-0.3-0.4-0.3-0.4L165.9,117.4L165.9,117.4C165.9,117.4,165.9,117.4,165.9,117.4z"/>
		<path fill="#F3DADC" d="M165.4,116.6c-0.1,0-0.3,0.1-0.3,0.2c0,0.1,0.1,0.3,0.2,0.3c0.1,0,0.3-0.1,0.3-0.2
			C165.7,116.8,165.6,116.7,165.4,116.6z M165.3,117C165.3,117,165.2,117,165.3,117C165.2,117,165.2,117,165.3,117
			C165.2,117,165.2,117,165.3,117C165.2,117,165.2,117,165.3,117C165.3,116.9,165.3,116.9,165.3,117L165.3,117L165.3,117z
			 M165.3,116.7L165.3,116.7C165.3,116.7,165.3,116.7,165.3,116.7C165.3,116.7,165.3,116.7,165.3,116.7
			C165.4,116.7,165.4,116.7,165.3,116.7L165.3,116.7c0.1,0,0.1,0.1,0.1,0.1L165.3,116.7z M165.5,117
			C165.5,117.1,165.5,117.1,165.5,117C165.5,117,165.5,117,165.5,117C165.5,117,165.5,117,165.5,117c-0.1,0-0.1-0.2-0.1-0.2
			L165.5,117L165.5,117L165.5,117z M165.6,116.9L165.6,116.9C165.6,116.9,165.6,116.9,165.6,116.9c-0.1,0-0.2-0.1-0.2-0.1
			L165.6,116.9L165.6,116.9C165.6,116.9,165.6,116.9,165.6,116.9C165.6,116.9,165.6,116.9,165.6,116.9z"/>
	</g>
	<g>
		<path fill="#F3DADC" d="M159.3,120.9L159.3,120.9C159.2,120.9,159.2,120.9,159.3,120.9C159.2,120.9,159.2,120.9,159.3,120.9
			C159.3,120.9,159.3,120.9,159.3,120.9L159.3,120.9c0.1,0,0.2,0,0.2,0l0,0c0-0.1,0-0.1,0-0.1c-0.1-0.2-0.8-0.3-0.7,0.1
			c0.1,0.4,0.5,0.2,0.7,0.1c0,0,0-0.1,0.1-0.1v0L159.3,120.9z"/>
		<path fill="#F3DADC" d="M159.6,120.2c0,0-0.2,0-0.3,0.1c-0.2,0.3,0.1,0.5,0.2,0.6c0,0,0.1,0,0.1,0l0.1,0c0,0,0.1-0.1,0.1-0.1
			C160,120.3,159.6,120.2,159.6,120.2z M159.6,120.6C159.6,120.6,159.6,120.6,159.6,120.6C159.6,120.5,159.6,120.5,159.6,120.6
			L159.6,120.6C159.6,120.6,159.6,120.6,159.6,120.6L159.6,120.6c0,0.1,0,0.3,0,0.3L159.6,120.6z"/>
		<path fill="#F3DADC" d="M159.7,121.2C159.7,121.2,159.6,121.2,159.7,121.2l-0.1-0.1l-0.1,0.2c0,0,0,0,0,0c0,0,0,0,0,0c0,0,0,0,0,0
			c0,0,0,0,0,0l0,0c0,0,0-0.1,0.1-0.2h0c0,0-0.1,0-0.1,0c-0.3,0.1-0.3,0.5-0.3,0.5s0,0.4,0.4,0.2
			C159.8,121.6,159.7,121.3,159.7,121.2z"/>
		<path fill="#F3DADC" d="M160.5,120.8c0,0,0-0.3-0.2-0.3c-0.4-0.1-0.5,0.3-0.6,0.4c0,0,0,0,0,0.1l0,0.1c0,0,0.1,0,0.1,0
			C160.5,121.1,160.5,120.8,160.5,120.8z M160,120.7C159.9,120.7,159.9,120.7,160,120.7C159.9,120.7,159.9,120.7,160,120.7
			c0,0.1-0.2,0.2-0.2,0.2L160,120.7C159.9,120.7,159.9,120.7,160,120.7C159.9,120.7,159.9,120.6,160,120.7
			C160,120.6,160,120.6,160,120.7z"/>
		<path fill="#F3DADC" d="M159.8,121C159.8,121,159.8,121,159.8,121l-0.1,0.1c0,0,0,0.1,0,0.1c0.2,0.6,0.5,0.5,0.5,0.5
			s0.1,0,0.2-0.2C160.5,121.2,160,121,159.8,121z M160,121.3L160,121.3L160,121.3L160,121.3c-0.1-0.1-0.2-0.2-0.2-0.2L160,121.3
			C159.9,121.3,159.9,121.3,160,121.3C160,121.3,160,121.3,160,121.3z"/>
		<path fill="#F3DADC" d="M159.7,120.8c-0.1,0-0.2,0.1-0.2,0.1c0,0.1,0.1,0.2,0.2,0.2s0.2-0.1,0.2-0.1
			C159.8,120.9,159.7,120.8,159.7,120.8z M159.5,121L159.5,121C159.5,121,159.5,121,159.5,121C159.5,121,159.5,121,159.5,121
			L159.5,121C159.5,121,159.6,121,159.5,121L159.5,121L159.5,121z M159.6,120.8L159.6,120.8C159.5,120.8,159.5,120.8,159.6,120.8
			C159.6,120.8,159.6,120.8,159.6,120.8C159.6,120.8,159.6,120.8,159.6,120.8C159.6,120.8,159.6,120.8,159.6,120.8c0,0,0,0.1,0,0.1
			L159.6,120.8z M159.7,121.1C159.7,121.1,159.7,121.1,159.7,121.1C159.7,121.1,159.7,121.1,159.7,121.1L159.7,121.1
			c0,0-0.1-0.1-0.1-0.1L159.7,121.1L159.7,121.1L159.7,121.1z M159.8,121L159.8,121L159.8,121c0,0-0.1-0.1-0.1-0.1L159.8,121
			L159.8,121L159.8,121C159.8,121,159.8,121,159.8,121z"/>
	</g>
	<g>
		<path fill="#F3DADC" d="M143.3,129.1L143.3,129.1C143.2,129.1,143.2,129,143.3,129.1C143.2,129,143.3,129,143.3,129.1
			C143.3,129,143.3,129.1,143.3,129.1L143.3,129.1c0.1,0,0.2,0.2,0.2,0.3l0,0c0-0.1,0.1-0.1,0.1-0.2c0-0.3-0.6-1.2-1-0.5
			c-0.3,0.6,0.4,0.7,0.7,0.8c0,0,0.1-0.1,0.2-0.1l0.1-0.1L143.3,129.1z"/>
		<path fill="#F3DADC" d="M144.5,128.4c0,0-0.3-0.2-0.5-0.2c-0.5,0.2-0.5,0.7-0.4,0.9c0,0,0,0.1,0.1,0.1v0.1c0.1,0,0.2,0,0.2,0
			C144.8,129.1,144.5,128.4,144.5,128.4z M144,129L144,129C144,128.9,144,128.9,144,129C144,128.9,144.1,129,144,129
			C144.1,129,144,129,144,129L144,129c0,0.1-0.3,0.4-0.3,0.4L144,129z"/>
		<path fill="#F3DADC" d="M143.4,129.8c0,0,0-0.1,0-0.1l-0.1-0.1l-0.3,0.2c0,0,0,0,0,0c0,0-0.1,0-0.1,0c0,0,0,0,0-0.1
			c0,0,0.1,0,0.1,0l0,0c0-0.1,0.2-0.1,0.3-0.2v0c-0.1,0-0.1,0-0.1-0.1c-0.4-0.1-0.9,0.3-0.9,0.3s-0.5,0.5,0.3,0.7
			C143.1,130.5,143.3,130,143.4,129.8z"/>
		<path fill="#F3DADC" d="M144.8,130.1c0,0,0.3-0.4,0.1-0.5c-0.3-0.5-0.9-0.2-1.1-0.1c0,0,0,0-0.1,0.1l0,0.1c0,0,0,0.1,0.1,0.1
			C144.5,130.5,144.8,130.1,144.8,130.1z M144.3,129.5C144.3,129.5,144.3,129.5,144.3,129.5L144.3,129.5c-0.2,0.1-0.5,0.1-0.5,0.1
			L144.3,129.5C144.3,129.5,144.3,129.4,144.3,129.5C144.3,129.4,144.4,129.4,144.3,129.5C144.4,129.4,144.3,129.4,144.3,129.5z"/>
		<path fill="#F3DADC" d="M143.8,129.8c0,0-0.1,0-0.1-0.1l-0.2,0c0,0,0,0.1-0.1,0.1c-0.5,1,0,1.2,0,1.2s0.2,0.1,0.4,0
			C144.3,130.6,143.9,129.9,143.8,129.8z M143.6,130.3C143.6,130.3,143.6,130.3,143.6,130.3c0-0.1,0-0.1,0-0.1l0,0
			c0-0.1,0.1-0.4,0.1-0.4L143.6,130.3C143.7,130.2,143.7,130.2,143.6,130.3C143.6,130.2,143.6,130.3,143.6,130.3z"/>
		<path fill="#F3DADC" d="M143.8,129.3c-0.1-0.1-0.3-0.1-0.4,0c-0.1,0.1-0.1,0.3,0,0.4c0.1,0.1,0.3,0.1,0.4,0
			C143.9,129.6,143.9,129.4,143.8,129.3z M143.4,129.5C143.4,129.5,143.4,129.5,143.4,129.5C143.4,129.5,143.4,129.5,143.4,129.5
			C143.4,129.5,143.4,129.5,143.4,129.5L143.4,129.5c0,0,0.1,0,0.1,0L143.4,129.5L143.4,129.5z M143.7,129.3L143.7,129.3
			C143.7,129.3,143.7,129.3,143.7,129.3C143.7,129.3,143.7,129.3,143.7,129.3C143.7,129.3,143.7,129.3,143.7,129.3
			C143.7,129.3,143.7,129.3,143.7,129.3c0,0.1,0,0.2,0,0.2L143.7,129.3z M143.6,129.7C143.6,129.7,143.6,129.7,143.6,129.7
			C143.6,129.7,143.6,129.7,143.6,129.7L143.6,129.7c0-0.1,0-0.2,0-0.2L143.6,129.7C143.6,129.7,143.6,129.7,143.6,129.7
			C143.6,129.7,143.6,129.7,143.6,129.7z M143.8,129.7C143.8,129.7,143.8,129.7,143.8,129.7C143.8,129.7,143.8,129.7,143.8,129.7
			c0,0-0.1-0.2-0.1-0.2L143.8,129.7L143.8,129.7C143.8,129.7,143.8,129.7,143.8,129.7C143.8,129.7,143.8,129.7,143.8,129.7z"/>
	</g>
	<g>
		<path fill="#F3DADC" d="M147.5,121.8C147.5,121.8,147.5,121.8,147.5,121.8C147.5,121.8,147.4,121.8,147.5,121.8L147.5,121.8
			C147.5,121.8,147.5,121.8,147.5,121.8C147.5,121.8,147.5,121.8,147.5,121.8c0,0,0.2-0.1,0.2-0.1l0,0c-0.1,0-0.1-0.1-0.1-0.1
			c-0.2-0.1-0.8,0.2-0.6,0.5c0.3,0.3,0.6-0.1,0.6-0.3c0,0,0-0.1,0-0.1v0L147.5,121.8z"/>
		<path fill="#F3DADC" d="M147.4,120.9c0,0-0.2,0.1-0.2,0.2c0,0.3,0.3,0.4,0.4,0.4c0,0,0.1,0,0.1-0.1h0.1c0,0,0-0.1,0-0.1
			C147.8,120.9,147.4,120.9,147.4,120.9z M147.6,121.3C147.6,121.3,147.6,121.3,147.6,121.3C147.6,121.3,147.6,121.3,147.6,121.3
			L147.6,121.3C147.6,121.3,147.6,121.3,147.6,121.3L147.6,121.3c0.1,0,0.2,0.2,0.2,0.2L147.6,121.3z"/>
		<path fill="#F3DADC" d="M148,121.8C148,121.8,148,121.8,148,121.8l-0.1,0l0,0.2l0,0v0c0,0,0,0,0,0v0l0,0c0,0,0-0.1,0-0.2h0
			c0,0-0.1,0-0.1,0.1c-0.2,0.3,0,0.6,0,0.6s0.2,0.4,0.5,0C148.3,122.2,148.1,121.9,148,121.8z"/>
		<path fill="#F3DADC" d="M148.5,121c0,0-0.2-0.2-0.3-0.2c-0.4,0.1-0.3,0.5-0.3,0.6c0,0,0,0,0,0.1l0.1,0h0.1
			C148.7,121.3,148.5,121,148.5,121z M148,121.3L148,121.3L148,121.3c0,0.1,0,0.3,0,0.3L148,121.3C148,121.3,148,121.3,148,121.3
			L148,121.3C148,121.2,148,121.2,148,121.3z"/>
		<path fill="#F3DADC" d="M148.1,121.6C148.1,121.6,148,121.7,148.1,121.6l-0.1,0.1c0,0,0,0,0,0.1c0.5,0.4,0.7,0.2,0.7,0.2
			s0.1-0.1,0.1-0.2C148.7,121.4,148.2,121.6,148.1,121.6z M148.3,121.8C148.3,121.8,148.3,121.8,148.3,121.8
			C148.3,121.8,148.3,121.8,148.3,121.8L148.3,121.8c-0.1,0-0.3-0.1-0.3-0.1L148.3,121.8C148.3,121.8,148.3,121.8,148.3,121.8
			C148.3,121.8,148.3,121.8,148.3,121.8z"/>
		<path fill="#F3DADC" d="M147.8,121.5c-0.1,0-0.1,0.1-0.1,0.2c0,0.1,0.1,0.1,0.2,0.1c0.1,0,0.1-0.1,0.1-0.2
			C148,121.5,147.9,121.5,147.8,121.5z M147.8,121.8C147.8,121.8,147.8,121.8,147.8,121.8C147.8,121.8,147.8,121.8,147.8,121.8
			C147.8,121.8,147.8,121.8,147.8,121.8L147.8,121.8C147.8,121.7,147.8,121.7,147.8,121.8L147.8,121.8L147.8,121.8z M147.8,121.6
			C147.7,121.6,147.7,121.6,147.8,121.6C147.7,121.6,147.7,121.6,147.8,121.6C147.8,121.6,147.8,121.6,147.8,121.6
			C147.8,121.6,147.8,121.6,147.8,121.6L147.8,121.6c0.1,0,0.1,0.1,0.1,0.1L147.8,121.6z M148,121.7C148,121.8,148,121.8,148,121.7
			C147.9,121.8,147.9,121.7,148,121.7L148,121.7c-0.1,0-0.1-0.1-0.1-0.1L148,121.7C147.9,121.7,148,121.7,148,121.7
			C148,121.7,148,121.7,148,121.7z M148,121.6L148,121.6L148,121.6c0,0-0.1,0-0.1,0H148L148,121.6L148,121.6L148,121.6z"/>
	</g>
	<g>
		<path fill="#F0BCC8" d="M161.5,126.8C161.5,126.9,161.5,126.9,161.5,126.8c0,0-0.1,0-0.1,0c0,0,0,0,0-0.1
			C161.5,126.8,161.5,126.8,161.5,126.8L161.5,126.8c0-0.1,0.3-0.1,0.3-0.1l0,0c-0.1-0.1-0.1-0.1-0.1-0.1c-0.3-0.1-1.3,0.3-0.8,0.8
			c0.4,0.5,0.8-0.2,0.9-0.4c0,0,0-0.1,0-0.2l0-0.1L161.5,126.8z"/>
		<path fill="#F0BCC8" d="M161.4,125.6c0,0-0.3,0.2-0.3,0.4c0,0.5,0.5,0.6,0.7,0.6c0,0,0.1,0,0.1-0.1h0.1c0-0.1,0-0.2,0-0.2
			C162,125.5,161.4,125.6,161.4,125.6z M161.7,126.1L161.7,126.1C161.6,126.1,161.6,126.1,161.7,126.1
			C161.6,126.1,161.7,126.1,161.7,126.1C161.7,126.1,161.7,126.1,161.7,126.1L161.7,126.1c0.1,0,0.3,0.3,0.3,0.3L161.7,126.1z"/>
		<path fill="#F0BCC8" d="M162.3,126.9c0,0-0.1,0-0.1,0l-0.1,0l0,0.3c0,0,0,0,0,0c0,0,0,0.1,0,0.1c0,0,0,0,0,0s0-0.1,0-0.1l0,0
			c0-0.1,0-0.2,0-0.3h0c0,0-0.1,0.1-0.1,0.1c-0.2,0.4,0,0.8,0,0.8s0.3,0.5,0.7,0C162.8,127.4,162.4,127,162.3,126.9z"/>
		<path fill="#F0BCC8" d="M163,125.7c0,0-0.2-0.3-0.4-0.3c-0.6,0.1-0.5,0.8-0.4,0.9c0,0,0,0,0,0.1l0.1,0.1h0.1
			C163.3,126.1,163,125.7,163,125.7z M162.2,126C162.2,126,162.2,126.1,162.2,126L162.2,126c0,0.2,0,0.4,0,0.4L162.2,126
			C162.2,126,162.2,126,162.2,126S162.2,125.9,162.2,126C162.2,125.9,162.2,126,162.2,126z"/>
		<path fill="#F0BCC8" d="M162.4,126.5c0,0,0,0.1-0.1,0.1l0,0.2c0,0,0.1,0.1,0,0.1c0.8,0.7,1.1,0.3,1.1,0.3s0.2-0.2,0.1-0.3
			C163.3,126.3,162.6,126.5,162.4,126.5z M162.8,126.9C162.8,126.9,162.7,126.9,162.8,126.9c-0.1,0-0.1,0-0.1,0l0,0
			c-0.1,0-0.3-0.2-0.3-0.2L162.8,126.9L162.8,126.9C162.7,126.8,162.8,126.8,162.8,126.9z"/>
		<path fill="#F0BCC8" d="M161.9,126.4c-0.1,0.1-0.2,0.2-0.1,0.3c0.1,0.1,0.2,0.2,0.3,0.1c0.1-0.1,0.2-0.2,0.1-0.3
			C162.2,126.4,162.1,126.3,161.9,126.4z M162,126.8C162,126.8,162,126.8,162,126.8C162,126.8,162,126.8,162,126.8
			C161.9,126.8,161.9,126.8,162,126.8L162,126.8c0,0,0-0.1,0-0.1V126.8C162,126.8,162,126.8,162,126.8z M161.9,126.5L161.9,126.5
			C161.8,126.5,161.8,126.5,161.9,126.5C161.8,126.5,161.9,126.5,161.9,126.5C161.9,126.5,161.9,126.5,161.9,126.5
			C161.9,126.5,161.9,126.5,161.9,126.5c0.1,0,0.1,0.1,0.1,0.1L161.9,126.5z M162.2,126.7C162.2,126.7,162.2,126.7,162.2,126.7
			C162.2,126.7,162.2,126.7,162.2,126.7L162.2,126.7c-0.1,0-0.2-0.1-0.2-0.1L162.2,126.7L162.2,126.7
			C162.2,126.7,162.2,126.7,162.2,126.7z M162.3,126.6C162.2,126.6,162.2,126.6,162.3,126.6L162.3,126.6c0,0-0.2,0-0.2,0H162.3
			C162.2,126.6,162.2,126.5,162.3,126.6C162.2,126.5,162.3,126.5,162.3,126.6C162.3,126.5,162.3,126.6,162.3,126.6z"/>
	</g>
</g>
<g>
	<g>
		<path fill="#F0BCC8" d="M39.3,118.8C39.2,118.7,39.2,118.7,39.3,118.8C39.2,118.8,39.2,118.8,39.3,118.8
			C39.2,118.8,39.2,118.8,39.3,118.8C39.3,118.8,39.3,118.8,39.3,118.8L39.3,118.8c0.1,0,0.2,0,0.2,0l0,0c0,0,0,0.1,0,0.1
			c-0.2,0.2-0.8,0.2-0.7-0.2c0.1-0.4,0.6-0.1,0.7-0.1c0,0,0,0,0.1,0.1v0L39.3,118.8z"/>
		<path fill="#F0BCC8" d="M39.7,118.9C39.7,118.9,39.6,118.9,39.7,118.9l-0.1,0c0,0-0.1,0-0.1,0c-0.1,0-0.4,0.2-0.2,0.6
			c0.1,0.1,0.3,0.1,0.3,0.1S40,119.4,39.7,118.9z M39.6,118.9c0,0,0,0.2,0,0.3l0,0c0,0,0,0,0,0c0,0,0,0,0,0c0,0,0,0,0,0l0,0
			L39.6,118.9z"/>
		<path fill="#F0BCC8" d="M39.7,118.5C39.7,118.5,39.6,118.5,39.7,118.5l-0.1,0l-0.1-0.2c0,0,0,0,0,0v0c0,0,0,0,0,0v0l0,0
			c0,0,0,0.1,0.1,0.2l0,0h-0.1c-0.3-0.2-0.3-0.5-0.3-0.5s0-0.4,0.5-0.2C39.8,118.1,39.7,118.4,39.7,118.5z"/>
		<path fill="#F0BCC8" d="M39.8,118.7L39.8,118.7l-0.1,0.1v0c0,0.1,0.2,0.6,0.6,0.4c0.2,0,0.2-0.3,0.2-0.3S40.5,118.7,39.8,118.7z
			 M39.9,119.1C39.9,119.1,39.9,119.1,39.9,119.1C39.9,119.1,39.9,119.1,39.9,119.1l-0.2-0.3c0,0,0.1,0.1,0.2,0.2l0,0
			C39.9,119,39.9,119,39.9,119.1C39.9,119.1,39.9,119.1,39.9,119.1z"/>
		<path fill="#F0BCC8" d="M40.4,118.2c0-0.1-0.2-0.2-0.2-0.2s-0.3-0.1-0.6,0.5c0,0,0,0.1,0,0.1l0.1,0.1c0,0,0.1,0,0.1,0
			C40,118.7,40.5,118.5,40.4,118.2z M40,118.4C39.9,118.5,39.9,118.5,40,118.4l-0.2,0.2C39.8,118.7,39.9,118.5,40,118.4L40,118.4
			C39.9,118.4,39.9,118.4,40,118.4L40,118.4L40,118.4z"/>
		<path fill="#F0BCC8" d="M39.8,118.7c0-0.1-0.1-0.2-0.2-0.2c-0.1,0-0.2,0.1-0.2,0.2s0.1,0.2,0.2,0.2S39.8,118.8,39.8,118.7z
			 M39.5,118.7L39.5,118.7C39.6,118.7,39.5,118.7,39.5,118.7C39.5,118.7,39.5,118.7,39.5,118.7C39.5,118.7,39.5,118.7,39.5,118.7
			C39.5,118.7,39.5,118.7,39.5,118.7C39.5,118.6,39.5,118.6,39.5,118.7L39.5,118.7z M39.6,118.8C39.6,118.8,39.6,118.8,39.6,118.8
			L39.6,118.8L39.6,118.8C39.6,118.8,39.6,118.8,39.6,118.8L39.6,118.8L39.6,118.8L39.6,118.8z M39.7,118.6L39.7,118.6L39.7,118.6
			C39.6,118.7,39.6,118.7,39.7,118.6L39.7,118.6C39.7,118.6,39.7,118.6,39.7,118.6L39.7,118.6L39.7,118.6z M39.8,118.7L39.8,118.7
			L39.8,118.7l-0.1,0C39.6,118.8,39.7,118.7,39.8,118.7L39.8,118.7C39.7,118.7,39.8,118.7,39.8,118.7
			C39.8,118.7,39.8,118.7,39.8,118.7z"/>
	</g>
	<g>
		<path fill="#F0BCC8" d="M13.7,112.8C13.7,112.8,13.7,112.8,13.7,112.8C13.7,112.8,13.7,112.8,13.7,112.8
			C13.7,112.8,13.7,112.9,13.7,112.8C13.7,112.9,13.7,112.8,13.7,112.8L13.7,112.8c0.1,0,0.2,0,0.3,0l0,0c0,0.1,0,0.1,0,0.1
			c-0.2,0.2-1,0.3-0.8-0.2c0.1-0.5,0.7-0.2,0.8-0.1c0,0,0,0.1,0.1,0.1v0L13.7,112.8z"/>
		<path fill="#F0BCC8" d="M14.3,113c0,0-0.1,0-0.1-0.1l-0.1,0c-0.1,0-0.1,0-0.1,0c-0.1,0.1-0.4,0.3-0.3,0.7c0.1,0.1,0.3,0.1,0.3,0.1
			S14.6,113.6,14.3,113z M14.2,112.9c0,0,0,0.2,0,0.3l0,0v0c0,0,0,0,0,0v0l0,0L14.2,112.9z"/>
		<path fill="#F0BCC8" d="M14.3,112.5C14.3,112.5,14.3,112.6,14.3,112.5l-0.1,0.1l-0.1-0.2c0,0,0,0,0,0c0,0,0,0,0,0s0,0,0,0
			c0,0,0,0,0,0l0,0c0,0,0,0.2,0.1,0.2h0c0,0-0.1,0-0.1,0c-0.3-0.2-0.3-0.6-0.3-0.6s0-0.5,0.6-0.2C14.5,112,14.3,112.4,14.3,112.5z"
			/>
		<path fill="#F0BCC8" d="M14.5,112.7c0,0-0.1,0-0.1,0l0,0.1v0.1c0,0.1,0.2,0.7,0.7,0.5c0.2,0,0.2-0.3,0.2-0.3
			S15.2,112.7,14.5,112.7z M14.6,113.2C14.5,113.2,14.5,113.2,14.6,113.2C14.5,113.2,14.5,113.2,14.6,113.2l-0.2-0.3
			C14.4,112.9,14.5,113,14.6,113.2L14.6,113.2C14.6,113.1,14.6,113.2,14.6,113.2L14.6,113.2z"/>
		<path fill="#F0BCC8" d="M15.1,112.1c0-0.1-0.2-0.2-0.2-0.2s-0.3-0.2-0.6,0.6c0,0,0,0.1,0,0.1l0.1,0.1c0,0,0.1,0,0.1,0
			C14.6,112.7,15.2,112.6,15.1,112.1z M14.6,112.4C14.6,112.5,14.6,112.5,14.6,112.4l-0.2,0.3C14.4,112.7,14.5,112.5,14.6,112.4
			C14.6,112.4,14.6,112.4,14.6,112.4L14.6,112.4L14.6,112.4C14.6,112.4,14.6,112.4,14.6,112.4z"/>
		<path fill="#F0BCC8" d="M14.4,112.8c0-0.1-0.1-0.2-0.2-0.2s-0.2,0.1-0.2,0.2c0,0.1,0.1,0.2,0.2,0.2
			C14.4,113,14.4,112.9,14.4,112.8z M14.1,112.7L14.1,112.7C14.1,112.8,14.1,112.7,14.1,112.7L14.1,112.7
			C14.1,112.7,14,112.7,14.1,112.7C14,112.7,14.1,112.7,14.1,112.7C14.1,112.7,14.1,112.7,14.1,112.7L14.1,112.7z M14.2,112.8
			c0,0,0,0.1,0,0.1l0,0l0,0h0l0,0l0,0L14.2,112.8z M14.3,112.7L14.3,112.7l-0.1,0.1C14.2,112.8,14.3,112.7,14.3,112.7L14.3,112.7
			C14.3,112.7,14.3,112.7,14.3,112.7L14.3,112.7C14.3,112.6,14.3,112.7,14.3,112.7z M14.4,112.8C14.4,112.8,14.4,112.8,14.4,112.8
			C14.4,112.8,14.4,112.8,14.4,112.8l-0.2,0C14.2,112.8,14.3,112.8,14.4,112.8L14.4,112.8C14.4,112.8,14.4,112.8,14.4,112.8
			L14.4,112.8z"/>
	</g>
	<g>
		<path fill="#F0BCC8" d="M16.9,114.9C16.9,114.9,16.9,114.9,16.9,114.9C16.8,114.9,16.8,114.9,16.9,114.9
			C16.8,114.9,16.8,114.9,16.9,114.9C16.8,114.9,16.9,114.9,16.9,114.9L16.9,114.9c0.1,0,0.2,0,0.3,0l0,0c0,0.1,0,0.1,0,0.1
			c-0.2,0.2-1,0.3-0.8-0.2c0.1-0.5,0.7-0.2,0.8-0.1c0,0,0,0.1,0.1,0.1v0L16.9,114.9z"/>
		<path fill="#F0BCC8" d="M17.4,115.1c0,0-0.1,0-0.1-0.1l-0.1,0c-0.1,0-0.1,0-0.1,0c-0.1,0.1-0.4,0.3-0.3,0.7
			c0.1,0.1,0.3,0.1,0.3,0.1S17.7,115.7,17.4,115.1z M17.3,115c0,0,0,0.2,0,0.3l0,0v0c0,0,0,0,0,0v0l0,0L17.3,115z"/>
		<path fill="#F0BCC8" d="M17.4,114.6C17.4,114.6,17.3,114.6,17.4,114.6l-0.1,0.1l-0.1-0.2c0,0,0,0,0,0c0,0,0,0,0,0c0,0,0,0,0,0
			c0,0,0,0,0,0l0,0c0,0,0,0.2,0.1,0.2h0c0,0-0.1,0-0.1,0c-0.3-0.2-0.3-0.6-0.3-0.6s0-0.5,0.6-0.2C17.6,114.1,17.4,114.5,17.4,114.6z
			"/>
		<path fill="#F0BCC8" d="M17.6,114.8c0,0-0.1,0-0.1,0l0,0.1v0.1c0,0.1,0.2,0.7,0.7,0.5c0.2,0,0.2-0.3,0.2-0.3
			S18.4,114.8,17.6,114.8z M17.7,115.3C17.6,115.3,17.6,115.3,17.7,115.3C17.6,115.3,17.6,115.3,17.7,115.3l-0.2-0.3
			C17.5,115,17.6,115.1,17.7,115.3L17.7,115.3C17.6,115.2,17.7,115.2,17.7,115.3C17.7,115.2,17.7,115.3,17.7,115.3z"/>
		<path fill="#F0BCC8" d="M18.3,114.2c0-0.1-0.2-0.2-0.2-0.2s-0.3-0.2-0.6,0.6c0,0,0,0.1,0,0.1l0.1,0.1c0,0,0.1,0,0.1,0
			C17.7,114.8,18.4,114.6,18.3,114.2z M17.7,114.5C17.7,114.5,17.7,114.5,17.7,114.5l-0.2,0.3C17.5,114.8,17.6,114.6,17.7,114.5
			C17.7,114.5,17.7,114.5,17.7,114.5L17.7,114.5L17.7,114.5C17.7,114.5,17.7,114.5,17.7,114.5z"/>
		<path fill="#F0BCC8" d="M17.5,114.8c0-0.1-0.1-0.2-0.2-0.2s-0.2,0.1-0.2,0.2c0,0.1,0.1,0.2,0.2,0.2S17.5,115,17.5,114.8z
			 M17.2,114.8L17.2,114.8C17.3,114.8,17.2,114.8,17.2,114.8L17.2,114.8C17.2,114.8,17.2,114.8,17.2,114.8
			C17.2,114.8,17.2,114.8,17.2,114.8L17.2,114.8L17.2,114.8z M17.3,114.9c0,0,0,0.1,0,0.1l0,0l0,0h0l0,0l0,0L17.3,114.9z
			 M17.4,114.8L17.4,114.8l-0.1,0.1C17.3,114.8,17.3,114.8,17.4,114.8L17.4,114.8C17.4,114.7,17.4,114.7,17.4,114.8
			C17.4,114.7,17.4,114.7,17.4,114.8L17.4,114.8z M17.5,114.8C17.5,114.8,17.5,114.8,17.5,114.8C17.5,114.8,17.5,114.8,17.5,114.8
			l-0.2,0C17.3,114.9,17.4,114.8,17.5,114.8L17.5,114.8C17.5,114.8,17.5,114.8,17.5,114.8C17.5,114.8,17.5,114.8,17.5,114.8z"/>
	</g>
	<g>
		<path fill="#F3DADC" d="M34.7,118.5L34.7,118.5c-0.1,0-0.1,0-0.1,0C34.6,118.5,34.6,118.6,34.7,118.5
			C34.7,118.6,34.7,118.6,34.7,118.5L34.7,118.5c0.1,0,0.3,0,0.4-0.1l0,0c0,0.1,0,0.2,0,0.2c-0.3,0.3-1.5,0.4-1.4-0.3
			c0.2-0.7,1-0.3,1.3-0.1c0,0,0,0.1,0.1,0.2v0.1L34.7,118.5z"/>
		<path fill="#F3DADC" d="M35.6,118.8c0,0-0.1-0.1-0.2-0.2l-0.1,0.1c-0.1-0.1-0.2,0-0.2,0c-0.2,0.1-0.7,0.4-0.4,1
			c0.1,0.2,0.5,0.2,0.5,0.2S36,119.7,35.6,118.8z M35.4,118.7c0,0,0,0.4-0.1,0.5l0,0c0,0,0,0,0,0.1c0,0,0,0-0.1,0c0,0,0,0,0-0.1
			c0,0,0,0,0,0L35.4,118.7z"/>
		<path fill="#F3DADC" d="M35.5,118.1c0,0-0.1,0-0.1,0.1l-0.1,0l-0.1-0.4v0c0,0,0-0.1,0-0.1c0,0,0,0,0,0.1c0,0,0,0.1,0,0.1l0,0
			c0,0.1,0.1,0.2,0.1,0.3h0c0,0-0.1,0-0.1,0c-0.5-0.3-0.5-0.9-0.5-0.9s0-0.8,0.8-0.4C35.8,117.3,35.6,117.9,35.5,118.1z"/>
		<path fill="#F3DADC" d="M35.8,118.4c0,0-0.1,0.1-0.2,0l0,0.1c0,0,0,0.1,0,0.1c0,0.2,0.3,1,1,0.8c0.3,0,0.3-0.5,0.3-0.5
			S37,118.3,35.8,118.4z M36,119.1C36,119.1,35.9,119.1,36,119.1L36,119.1l-0.3-0.5c0,0,0.3,0.2,0.3,0.4l0,0
			C35.9,119,36,119,36,119.1C36,119,36,119.1,36,119.1z"/>
		<path fill="#F3DADC" d="M36.8,117.5c-0.1-0.2-0.3-0.3-0.3-0.3s-0.5-0.2-1,0.9c0,0,0,0.2,0,0.1l0.1,0.1c0.1,0,0.1,0,0.1,0
			C36,118.3,37,118.1,36.8,117.5z M36,117.9L36,117.9l-0.3,0.4C35.7,118.3,35.8,118,36,117.9L36,117.9C36,117.9,36,117.9,36,117.9
			C36,117.9,36.1,117.9,36,117.9C36.1,117.9,36,117.9,36,117.9z"/>
		<path fill="#F3DADC" d="M35.8,118.4c0-0.2-0.1-0.3-0.3-0.3s-0.3,0.1-0.3,0.3s0.1,0.3,0.3,0.3C35.6,118.7,35.8,118.6,35.8,118.4z
			 M35.3,118.3l0.1,0.1C35.3,118.4,35.3,118.4,35.3,118.3C35.2,118.4,35.2,118.4,35.3,118.3C35.2,118.3,35.2,118.3,35.3,118.3
			C35.2,118.3,35.2,118.3,35.3,118.3C35.2,118.3,35.2,118.3,35.3,118.3L35.3,118.3z M35.4,118.5c0,0,0,0.1-0.1,0.2l0,0l0,0
			c0,0,0,0-0.1,0l0,0c0,0,0,0,0,0L35.4,118.5z M35.6,118.3C35.6,118.3,35.6,118.3,35.6,118.3l-0.1,0.1
			C35.5,118.4,35.5,118.3,35.6,118.3L35.6,118.3C35.5,118.3,35.5,118.3,35.6,118.3C35.6,118.3,35.6,118.3,35.6,118.3
			C35.6,118.3,35.6,118.3,35.6,118.3z M35.7,118.4L35.7,118.4C35.7,118.4,35.7,118.4,35.7,118.4l-0.2,0.1
			C35.5,118.5,35.6,118.4,35.7,118.4L35.7,118.4C35.7,118.4,35.7,118.4,35.7,118.4C35.7,118.4,35.7,118.4,35.7,118.4z"/>
	</g>
	<g>
		<path fill="#F3DADC" d="M33.3,111.9C33.3,111.9,33.3,111.9,33.3,111.9C33.3,111.9,33.2,111.9,33.3,111.9
			C33.2,112,33.2,112,33.3,111.9C33.3,112,33.3,112,33.3,111.9C33.3,112,33.3,112,33.3,111.9c0.1,0,0.2,0,0.3,0l0,0
			c0,0.1,0,0.1,0,0.1c-0.2,0.2-1,0.3-0.9-0.2c0.1-0.5,0.7-0.2,0.8-0.1c0,0,0,0.1,0.1,0.1v0L33.3,111.9z"/>
		<path fill="#F3DADC" d="M33.9,112.1c0,0-0.1,0-0.1-0.1l-0.1,0c-0.1,0-0.1,0-0.1,0c-0.1,0.1-0.5,0.3-0.3,0.7
			c0.1,0.1,0.4,0.1,0.4,0.1S34.1,112.7,33.9,112.1z M33.7,112.1c0,0,0,0.2,0,0.3l0,0v0c0,0,0,0,0,0c0,0,0,0,0,0l0,0L33.7,112.1z"/>
		<path fill="#F3DADC" d="M33.8,111.7C33.8,111.7,33.8,111.7,33.8,111.7l-0.1,0.1l-0.1-0.2c0,0,0,0,0,0c0,0,0,0,0,0s0,0,0,0
			c0,0,0,0,0,0l0,0c0,0,0,0.2,0.1,0.2h0c0,0-0.1,0-0.1,0c-0.3-0.2-0.3-0.6-0.3-0.6s0-0.5,0.6-0.2C34,111.1,33.9,111.5,33.8,111.7z"
			/>
		<path fill="#F3DADC" d="M34,111.9c0,0-0.1,0-0.1,0l0,0.1v0.1c0,0.1,0.2,0.7,0.7,0.5c0.2,0,0.2-0.3,0.2-0.3S34.8,111.8,34,111.9z
			 M34.1,112.3C34.1,112.3,34.1,112.3,34.1,112.3C34.1,112.3,34.1,112.3,34.1,112.3l-0.2-0.3C33.9,112,34.1,112.2,34.1,112.3
			L34.1,112.3C34.1,112.3,34.1,112.3,34.1,112.3C34.1,112.3,34.1,112.3,34.1,112.3z"/>
		<path fill="#F3DADC" d="M34.7,111.2c0-0.1-0.2-0.2-0.2-0.2s-0.4-0.2-0.7,0.6c0,0,0,0.1,0,0.1l0.1,0.1c0,0,0.1,0,0.1,0
			C34.2,111.8,34.8,111.7,34.7,111.2z M34.1,111.5C34.1,111.6,34.1,111.6,34.1,111.5l-0.2,0.2C33.9,111.8,34,111.6,34.1,111.5
			L34.1,111.5L34.1,111.5L34.1,111.5C34.2,111.5,34.2,111.5,34.1,111.5z"/>
		<path fill="#F3DADC" d="M34,111.9c0-0.1-0.1-0.2-0.2-0.2c-0.1,0-0.2,0.1-0.2,0.2c0,0.1,0.1,0.2,0.2,0.2
			C33.9,112.1,34,112,34,111.9z M33.6,111.8L33.6,111.8C33.7,111.9,33.6,111.8,33.6,111.8L33.6,111.8
			C33.6,111.8,33.6,111.8,33.6,111.8L33.6,111.8C33.6,111.8,33.6,111.8,33.6,111.8C33.6,111.8,33.6,111.8,33.6,111.8z M33.7,111.9
			c0,0,0,0.1,0,0.1l0,0l0,0h0l0,0l0,0L33.7,111.9z M33.8,111.8L33.8,111.8l-0.1,0.1C33.8,111.9,33.8,111.8,33.8,111.8L33.8,111.8
			L33.8,111.8L33.8,111.8L33.8,111.8z M33.9,111.9C33.9,111.9,33.9,111.9,33.9,111.9C33.9,111.9,33.9,111.9,33.9,111.9l-0.2,0
			C33.8,111.9,33.9,111.9,33.9,111.9L33.9,111.9C33.9,111.9,33.9,111.9,33.9,111.9C33.9,111.9,33.9,111.9,33.9,111.9z"/>
	</g>
	<g>
		<path fill="#F3DADC" d="M26.5,118.1L26.5,118.1c-0.1,0-0.1,0-0.1,0C26.4,118.1,26.4,118.1,26.5,118.1
			C26.5,118.1,26.5,118.1,26.5,118.1L26.5,118.1c0.1,0,0.3,0,0.4-0.1l0,0c0,0.1,0,0.2,0,0.2c-0.3,0.3-1.5,0.4-1.4-0.3
			c0.2-0.7,1-0.3,1.3-0.1c0,0,0,0.1,0.1,0.2v0.1L26.5,118.1z"/>
		<path fill="#F3DADC" d="M27.3,118.3c0,0-0.1-0.1-0.2-0.2l-0.1,0.1c-0.1-0.1-0.2,0-0.2,0c-0.2,0.1-0.7,0.4-0.4,1
			c0.1,0.2,0.5,0.2,0.5,0.2S27.8,119.2,27.3,118.3z M27.1,118.2c0,0,0,0.4-0.1,0.5l0,0c0,0,0,0,0,0.1c0,0,0,0-0.1,0c0,0,0,0,0-0.1
			c0,0,0,0,0,0L27.1,118.2z"/>
		<path fill="#F3DADC" d="M27.3,117.6c0,0-0.1,0-0.1,0.1l-0.1,0l-0.1-0.4v0c0,0,0-0.1,0-0.1c0,0,0,0,0,0.1c0,0,0,0.1,0,0.1l0,0
			c0,0.1,0.1,0.2,0.1,0.3h0c0,0-0.1,0-0.1,0c-0.5-0.3-0.5-0.9-0.5-0.9s0-0.8,0.8-0.4C27.6,116.8,27.3,117.4,27.3,117.6z"/>
		<path fill="#F3DADC" d="M27.6,117.9c0,0-0.1,0.1-0.2,0l0,0.1c0,0,0,0.1,0,0.1c0,0.2,0.3,1,1,0.8c0.3,0,0.3-0.5,0.3-0.5
			S28.8,117.9,27.6,117.9z M27.7,118.6C27.7,118.6,27.7,118.6,27.7,118.6L27.7,118.6l-0.3-0.5c0,0,0.3,0.2,0.3,0.4l0,0
			C27.7,118.5,27.7,118.5,27.7,118.6C27.8,118.6,27.8,118.6,27.7,118.6z"/>
		<path fill="#F3DADC" d="M28.6,117c-0.1-0.2-0.3-0.3-0.3-0.3s-0.5-0.2-1,0.9c0,0,0,0.2,0,0.1l0.1,0.1c0.1,0,0.1,0,0.1,0
			C27.8,117.9,28.8,117.7,28.6,117z M27.8,117.5L27.8,117.5l-0.3,0.4C27.4,117.8,27.6,117.5,27.8,117.5L27.8,117.5
			C27.8,117.5,27.8,117.4,27.8,117.5C27.8,117.4,27.9,117.4,27.8,117.5C27.8,117.4,27.8,117.5,27.8,117.5z"/>
		<path fill="#F3DADC" d="M27.5,118c0-0.2-0.1-0.3-0.3-0.3s-0.3,0.1-0.3,0.3s0.1,0.3,0.3,0.3C27.4,118.3,27.5,118.1,27.5,118z
			 M27,117.9l0.1,0.1C27.1,118,27,117.9,27,117.9C27,117.9,27,117.9,27,117.9C27,117.9,27,117.9,27,117.9
			C26.9,117.9,27,117.9,27,117.9C27,117.8,27,117.9,27,117.9L27,117.9z M27.2,118c0,0,0,0.1-0.1,0.2l0,0l0,0c0,0,0,0-0.1,0l0,0
			c0,0,0,0,0,0L27.2,118z M27.3,117.8C27.3,117.9,27.3,117.9,27.3,117.8l-0.1,0.2C27.2,118,27.2,117.9,27.3,117.8L27.3,117.8
			C27.3,117.8,27.3,117.8,27.3,117.8C27.3,117.8,27.3,117.8,27.3,117.8C27.3,117.8,27.3,117.8,27.3,117.8z M27.4,118L27.4,118
			C27.4,118,27.4,118,27.4,118l-0.2,0.1C27.2,118,27.4,118,27.4,118L27.4,118C27.4,118,27.4,118,27.4,118
			C27.4,117.9,27.4,117.9,27.4,118z"/>
	</g>
	<g>
		<path fill="#F3DADC" d="M13.4,104.9L13.4,104.9C13.3,104.9,13.3,104.9,13.4,104.9C13.3,105,13.4,105,13.4,104.9
			C13.4,105,13.4,104.9,13.4,104.9C13.4,104.9,13.4,104.9,13.4,104.9c0.1,0,0.2-0.2,0.3-0.3l0,0c0,0.1,0,0.1,0,0.2
			c0,0.4-0.9,1.3-1.2,0.6c-0.3-0.6,0.6-0.8,0.8-0.9c0,0,0.1,0.1,0.2,0l0,0L13.4,104.9z"/>
		<path fill="#F3DADC" d="M14.2,104.5c0,0-0.1,0-0.2,0l0,0.1c-0.1,0-0.2,0.1-0.2,0.1c-0.1,0.2-0.3,0.7,0.3,0.9
			c0.2,0,0.5-0.2,0.5-0.2S15,104.8,14.2,104.5z M14,104.6c0,0,0.2,0.2,0.2,0.4l0,0c0,0,0,0,0,0c0,0,0,0,0,0.1c0,0,0,0,0,0v0
			L14,104.6z"/>
		<path fill="#F3DADC" d="M13.7,104.1c0,0,0,0.1,0,0.1l-0.1,0.1l-0.3-0.2c0,0,0,0,0,0c0,0,0,0-0.1,0c0,0,0,0,0,0.1c0,0,0,0,0.1,0
			l0,0c0,0.1,0.2,0.1,0.3,0.1l0,0c0,0-0.1,0-0.1,0c-0.5,0.1-0.8-0.3-0.8-0.3s-0.4-0.5,0.4-0.8C13.5,103.4,13.7,103.9,13.7,104.1z"/>
		<path fill="#F3DADC" d="M14.1,104.2c0,0,0,0.1-0.1,0.1l0,0.1c0,0,0,0,0,0.1c0.1,0.1,0.8,0.4,1.2-0.1c0.2-0.2,0-0.6,0-0.6
			S15,103.3,14.1,104.2z M14.6,104.5C14.6,104.5,14.6,104.5,14.6,104.5c-0.1,0-0.1,0-0.1,0l-0.4-0.1c0,0,0.3,0,0.4,0.1l0,0
			C14.5,104.4,14.6,104.4,14.6,104.5C14.6,104.5,14.7,104.5,14.6,104.5z"/>
		<path fill="#F3DADC" d="M14.4,102.9c-0.2-0.1-0.4,0-0.4,0s-0.5,0.2-0.2,1.2c0,0,0.1,0.1,0.1,0.1H14c0-0.1,0.1-0.1,0.1-0.1
			C14.3,103.9,14.9,103.2,14.4,102.9z M14,103.7C14,103.7,14,103.7,14,103.7l-0.1,0.5C13.9,104.2,13.9,103.8,14,103.7L14,103.7
			C13.9,103.7,13.9,103.7,14,103.7C13.9,103.6,14,103.6,14,103.7C14,103.6,14,103.6,14,103.7z"/>
		<path fill="#F3DADC" d="M14.1,104.2c-0.1-0.1-0.3-0.1-0.4,0s-0.2,0.3-0.1,0.4c0.1,0.1,0.3,0.1,0.4,0
			C14.2,104.5,14.2,104.3,14.1,104.2z M13.7,104.4h0.1C13.8,104.5,13.7,104.5,13.7,104.4C13.7,104.5,13.7,104.5,13.7,104.4
			C13.6,104.5,13.6,104.5,13.7,104.4C13.6,104.4,13.6,104.4,13.7,104.4C13.6,104.4,13.7,104.4,13.7,104.4L13.7,104.4z M13.9,104.5
			c0,0,0.1,0.1,0,0.2l0,0l0,0c0,0,0,0,0,0l0,0c0,0,0,0,0,0V104.5z M13.9,104.2C13.9,104.3,13.9,104.3,13.9,104.2v0.2
			C13.9,104.4,13.8,104.3,13.9,104.2C13.9,104.3,13.9,104.3,13.9,104.2C13.9,104.2,13.9,104.2,13.9,104.2
			C13.8,104.2,13.9,104.2,13.9,104.2L13.9,104.2z M14.1,104.2C14.1,104.3,14.1,104.3,14.1,104.2L14.1,104.2l-0.1,0.2
			C13.9,104.4,14,104.3,14.1,104.2C14,104.3,14,104.3,14.1,104.2C14,104.2,14,104.2,14.1,104.2C14,104.2,14.1,104.2,14.1,104.2z"/>
	</g>
	<g>
		<path fill="#F3DADC" d="M43,121.1C43,121.1,43,121.1,43,121.1C43,121.1,43,121.1,43,121.1L43,121.1C43,121.2,43,121.2,43,121.1
			L43,121.1c0,0.1,0.2,0.1,0.3,0.1l0,0c-0.1,0-0.1,0.1-0.1,0.1c-0.3,0.1-1-0.3-0.6-0.7c0.3-0.3,0.7,0.2,0.7,0.4c0,0,0,0.1,0,0.2v0
			L43,121.1z"/>
		<path fill="#F3DADC" d="M43.4,121.5c0,0,0-0.1,0-0.1h-0.1c0-0.1-0.1-0.1-0.1-0.1c-0.1,0-0.6,0-0.6,0.4c0,0.2,0.2,0.3,0.2,0.3
			S43.4,122.2,43.4,121.5z M43.3,121.4c0,0-0.1,0.2-0.2,0.2l0,0v0h0v0c0,0,0,0,0,0L43.3,121.4z"/>
		<path fill="#F3DADC" d="M43.6,121.1C43.6,121.1,43.6,121.1,43.6,121.1h-0.1l0-0.2l0,0v0h0v0l0,0c0,0,0,0.2,0,0.2h0
			c0,0,0,0-0.1-0.1c-0.2-0.3,0-0.7,0-0.7s0.3-0.4,0.6,0.1C44,120.7,43.7,121,43.6,121.1z"/>
		<path fill="#F3DADC" d="M43.7,121.4h-0.1l-0.1,0c0,0,0,0,0,0c0,0.1-0.1,0.7,0.3,0.8c0.2,0.1,0.4-0.2,0.4-0.2
			S44.4,121.8,43.7,121.4z M43.5,121.9C43.5,121.9,43.5,121.9,43.5,121.9C43.5,121.8,43.5,121.8,43.5,121.9v-0.4
			C43.5,121.5,43.5,121.7,43.5,121.9L43.5,121.9C43.5,121.8,43.5,121.8,43.5,121.9C43.5,121.8,43.5,121.9,43.5,121.9z"/>
		<path fill="#F3DADC" d="M44.6,121.3c0-0.1-0.1-0.3-0.1-0.3s-0.2-0.3-0.9,0.2c0,0,0,0.1,0,0.1v0.1c0,0,0.1,0,0.1,0
			C43.8,121.5,44.4,121.7,44.6,121.3z M43.9,121.2L43.9,121.2l-0.3,0.1C43.6,121.3,43.8,121.2,43.9,121.2L43.9,121.2
			C43.9,121.2,43.9,121.2,43.9,121.2C44,121.2,44,121.2,43.9,121.2C44,121.2,44,121.2,43.9,121.2z"/>
		<path fill="#F3DADC" d="M43.6,121.4c0-0.1,0-0.2-0.1-0.3c-0.1,0-0.2,0-0.3,0c0,0.1,0,0.2,0.1,0.3
			C43.4,121.5,43.6,121.5,43.6,121.4z M43.4,121.2L43.4,121.2C43.4,121.3,43.4,121.2,43.4,121.2C43.4,121.2,43.4,121.2,43.4,121.2
			C43.4,121.2,43.4,121.2,43.4,121.2C43.4,121.1,43.4,121.1,43.4,121.2L43.4,121.2L43.4,121.2z M43.4,121.3c0,0,0,0.1-0.1,0l0,0l0,0
			h0l0,0l0,0L43.4,121.3z M43.6,121.3C43.5,121.3,43.5,121.3,43.6,121.3l-0.1,0C43.4,121.3,43.5,121.2,43.6,121.3L43.6,121.3
			C43.5,121.2,43.5,121.2,43.6,121.3C43.6,121.2,43.6,121.2,43.6,121.3L43.6,121.3z M43.6,121.4C43.6,121.4,43.6,121.4,43.6,121.4
			L43.6,121.4l-0.1,0C43.4,121.4,43.6,121.4,43.6,121.4L43.6,121.4L43.6,121.4L43.6,121.4z"/>
	</g>
	<g>
		<path fill="#F0BCC8" d="M22.5,113.7C22.5,113.7,22.5,113.8,22.5,113.7c-0.1,0.1-0.1,0.1-0.1,0.2c0,0,0.1,0,0.1,0
			C22.6,113.8,22.6,113.8,22.5,113.7L22.5,113.7c0.2-0.1,0.3-0.6,0.3-0.7l0,0c0.1,0.2,0.2,0.2,0.2,0.2c0.2,0.7-0.8,2.7-1.7,1.8
			c-0.8-0.8,0.5-1.8,1-2.1c0,0,0.2,0.1,0.4,0l0.1,0L22.5,113.7z"/>
		<path fill="#F0BCC8" d="M23.6,112.6c0,0-0.2,0.1-0.3,0.1v0.2c-0.2,0.1-0.2,0.3-0.2,0.3c0,0.4,0,1.5,1.1,1.5c0.4,0,0.8-0.7,0.8-0.7
			S25.2,112.6,23.6,112.6z M23.3,112.8c0,0,0.5,0.3,0.6,0.5l0,0c0,0,0.1,0,0.1,0c0,0,0,0.1,0,0.1c0,0-0.1,0-0.1,0c0,0,0,0,0-0.1
			L23.3,112.8z"/>
		<path fill="#F0BCC8" d="M22.6,112.1c0,0,0,0.2,0,0.2l-0.1,0.2l-0.6-0.1l0,0c0,0-0.1,0-0.1,0c0,0,0,0.1,0.1,0.1c0,0,0.1,0,0.1,0
			l0,0c0.1,0.1,0.4,0.1,0.6,0.1v0.1c-0.1,0-0.2,0.2-0.2,0.2c-0.8,0.5-1.7,0.1-1.7,0.1s-1-0.7,0.2-1.6
			C21.7,111.1,22.4,111.9,22.6,112.1z"/>
		<path fill="#F0BCC8" d="M23.3,112c0,0,0,0.3,0,0.3l0.1,0.2c0.1,0,0.1,0.1,0.1,0.1c0.3,0,1.7,0.3,2-1c0.2-0.5-0.4-0.9-0.4-0.9
			S24.3,110,23.3,112z M24.4,112.3c0,0-0.1,0-0.1,0c0,0,0,0-0.1,0l-0.8,0.1c0,0,0.6-0.2,0.8-0.1l0,0c0,0,0.1,0,0.1,0
			C24.4,112.2,24.4,112.2,24.4,112.3z"/>
		<path fill="#F0BCC8" d="M22.9,109.5c-0.4,0-0.7,0.3-0.7,0.3s-0.8,0.6,0.3,2.2c0.1,0,0.3,0.1,0.2,0.1l0.3-0.1
			c0-0.1,0.1-0.2,0.1-0.2C23.4,111.5,24,109.9,22.9,109.5z M22.8,111.2C22.8,111.2,22.8,111.3,22.8,111.2l0.2,0.8
			c0,0-0.3-0.5-0.2-0.7l0,0C22.8,111.3,22.8,111.3,22.8,111.2c-0.1-0.1,0-0.1,0-0.1C22.8,111.1,22.8,111.1,22.8,111.2z"/>
		<path fill="#F0BCC8" d="M23.3,112.1c-0.2-0.1-0.5,0-0.7,0.3c-0.2,0.3-0.1,0.6,0.1,0.7c0.2,0.1,0.5,0,0.7-0.3
			C23.6,112.5,23.5,112.2,23.3,112.1z M22.7,112.7l0.2,0C22.9,112.7,22.7,112.8,22.7,112.7C22.7,112.7,22.7,112.8,22.7,112.7
			C22.7,112.8,22.7,112.8,22.7,112.7L22.7,112.7C22.6,112.7,22.7,112.7,22.7,112.7C22.7,112.7,22.7,112.7,22.7,112.7z M23.1,112.6
			c0,0,0.2,0.1,0.1,0.3l0,0h0c0,0,0,0.1,0,0.1h0c0,0,0,0,0-0.1L23.1,112.6z M22.9,112.2L22.9,112.2l0.1,0.3
			C23.1,112.5,22.9,112.4,22.9,112.2L22.9,112.2C22.9,112.3,22.9,112.3,22.9,112.2C22.9,112.2,22.9,112.2,22.9,112.2
			C22.9,112.2,22.9,112.2,22.9,112.2z M23.2,112.1C23.2,112.1,23.2,112.2,23.2,112.1L23.2,112.1l-0.1,0.4
			C23.2,112.5,23.2,112.2,23.2,112.1L23.2,112.1C23.2,112.2,23.2,112.1,23.2,112.1C23.2,112.1,23.2,112.1,23.2,112.1z"/>
	</g>
</g>
<path fill="#FFFFFF" d="M43.5,109.3c0.6-1.8,3.6-3.5,5.6-2.3c4.5-3.7,8.3-0.4,8.3-0.4s2.1-0.9,2,1.2c0,0,2.7,0.8,0.6,3.3
	c1.1,0.7,1.2,4.3-1.9,3.4c-3.9,2.9-5.7-0.4-5.7-0.4s-1.9,2.5-5.3,0.8c-2.8,1.1-3.9-0.6-3.9-0.6s-3.3-0.4-2.7-3.2
	C41.2,108.4,43.5,109.3,43.5,109.3z"/>
<path fill="#FFFFFF" d="M77.2,108.9c-2.1,1.5-3.7,0-3.7,0s-1.9,0.4-1.5-0.9c0,0-1.7-0.3-0.2-1.3c-0.4-0.5,0.1-1.7,1.5-1.2
	c0.8-1.2,3.7-1.7,4.9,0c1.4,0.7,0.1,1.4,0.1,1.4S80,109.2,77.2,108.9z"/>
<line fill="none" stroke="#3DA8A4" stroke-miterlimit="10" x1="-1.6" y1="139.8" x2="177.5" y2="139.8"/>
<g>
	<g>
		<path fill="#C4C4C4" d="M122.1,127.4c0,0,0.1,0.1,0.3,0.2s0.5,0.2,1,0.4c0.4,0.2,0.9,0.4,1.6,0.6c0.6,0.2,1.3,0.4,2,0.5
			c0.7,0.2,1.6,0.3,2.4,0.3c0.4,0,0.9,0,1.4-0.1c0.5,0,0.9-0.2,1.4-0.3c0.5-0.2,0.9-0.4,1.3-0.7c0.4-0.3,0.8-0.8,1.1-1.3
			c0.3-0.5,0.5-1.2,0.7-1.8c0-0.2,0.1-0.3,0.1-0.5c0-0.1,0-0.2,0-0.3l0-0.3c0-0.2,0.1-0.3,0.1-0.5c0-0.2,0.1-0.3,0.1-0.5
			c0.2-0.7,0.4-1.3,0.7-1.9c0.3-0.6,0.7-1.1,1.2-1.4s0.9-0.7,1.4-0.9c0.5-0.2,1-0.3,1.5-0.3c0.5,0,1,0.1,1.4,0.2
			c0.2,0.1,0.5,0.2,0.7,0.3c0.2,0.1,0.4,0.2,0.6,0.4c0.1,0.1,0.2,0.2,0.3,0.3l0.1,0.1l0.1,0.1c0,0,0.1,0.1,0.1,0.1
			c0.2,0.2,0.3,0.3,0.5,0.5c0.2,0.1,0.4,0.2,0.5,0.3c0.2,0.1,0.4,0.1,0.5,0.1c0.2,0,0.3-0.1,0.5-0.2c0.2-0.1,0.3-0.2,0.4-0.4
			c0.2-0.3,0.4-0.7,0.5-1.1s0.2-0.7,0.3-1.1c0.1-0.3,0.1-0.7,0.2-1c0.1-0.6,0.2-1.1,0.2-1.4c0-0.2,0.1-0.3,0.1-0.4
			c0-0.1,0-0.1,0-0.1l0,0c0,0,0,0,0,0.1c0,0.1,0,0.2-0.1,0.4c0,0.3-0.1,0.8-0.2,1.4c-0.1,0.6-0.2,1.4-0.5,2.2
			c-0.1,0.4-0.3,0.8-0.5,1.2c-0.1,0.2-0.3,0.3-0.5,0.5c-0.2,0.1-0.4,0.2-0.6,0.2c-0.2,0-0.4,0-0.6-0.1c-0.2-0.1-0.4-0.2-0.6-0.3
			s-0.4-0.3-0.5-0.5c-0.1,0-0.1-0.1-0.1-0.1l-0.1-0.1l-0.1-0.1c-0.1-0.1-0.2-0.2-0.3-0.2c-0.4-0.3-0.8-0.5-1.2-0.6s-0.9-0.2-1.4-0.2
			c-0.4,0-0.9,0.1-1.4,0.3c-0.5,0.2-0.9,0.4-1.3,0.8c-0.4,0.3-0.8,0.8-1.1,1.4c-0.3,0.5-0.5,1.2-0.7,1.8c0,0.2-0.1,0.3-0.1,0.5
			c0,0.2-0.1,0.3-0.1,0.5l0,0.3c0,0.1,0,0.2,0,0.3c0,0.2-0.1,0.3-0.1,0.5c-0.2,0.7-0.4,1.3-0.7,1.9c-0.3,0.5-0.7,1-1.2,1.4
			s-0.9,0.6-1.4,0.7c-0.4,0.1-0.9,0.3-1.4,0.3c-0.5,0.1-0.9,0.1-1.4,0.1c-0.9,0-1.7-0.2-2.5-0.3c-0.7-0.2-1.4-0.4-2-0.6
			c-0.6-0.2-1.1-0.4-1.6-0.6c-0.4-0.2-0.8-0.3-1-0.5C122.2,127.4,122.1,127.4,122.1,127.4L122.1,127.4z"/>
	</g>
	<polygon fill="#FEF9BD" points="144.6,106.9 147,119 154.9,109.9 151.2,103.3 	"/>
	<g>
		<line fill="none" stroke="#FFFFFF" stroke-miterlimit="10" x1="144.5" y1="106.9" x2="154.8" y2="109.9"/>
		<line fill="none" stroke="#FFFFFF" stroke-miterlimit="10" x1="147" y1="119" x2="151.2" y2="103.3"/>
	</g>
</g>
<g>
	<g>
		<path fill="#C4C4C4" d="M101.4,131.9c0,0-0.1,0-0.3,0.1c-0.1,0.1-0.4,0.2-0.7,0.3c-0.3,0.1-0.6,0.3-1.1,0.4
			c-0.4,0.1-0.9,0.3-1.4,0.4c-0.5,0.1-1.1,0.2-1.7,0.2c-0.3,0-0.6,0-0.9,0c-0.3-0.1-0.6-0.1-0.9-0.2c-0.3-0.1-0.6-0.3-0.9-0.5
			c-0.3-0.2-0.6-0.5-0.8-0.9c-0.2-0.4-0.4-0.8-0.5-1.3c0-0.1,0-0.2-0.1-0.3c0-0.1,0-0.1,0-0.2l0-0.2c0-0.1,0-0.2-0.1-0.3
			c0-0.1,0-0.2-0.1-0.3c-0.1-0.4-0.3-0.9-0.5-1.3c-0.2-0.4-0.5-0.7-0.7-0.9c-0.3-0.3-0.6-0.4-0.9-0.5c-0.3-0.1-0.6-0.2-0.9-0.2
			c-0.3,0-0.6,0-0.9,0.1c-0.3,0.1-0.6,0.2-0.8,0.4c0,0.1-0.1,0.1-0.2,0.2l0,0l0,0c0,0,0,0.1-0.1,0.1c-0.1,0.1-0.2,0.2-0.4,0.3
			c-0.1,0.1-0.3,0.2-0.4,0.2c-0.1,0-0.3,0.1-0.4,0.1s-0.3-0.1-0.4-0.1c-0.1-0.1-0.2-0.2-0.3-0.3c-0.2-0.2-0.3-0.5-0.4-0.8
			c-0.2-0.5-0.3-1.1-0.3-1.5c-0.1-0.4-0.1-0.7-0.1-1c0-0.1,0-0.2,0-0.3c0-0.1,0-0.1,0-0.1v0c0,0,0,0,0,0.1c0,0.1,0,0.1,0,0.3
			c0,0.2,0.1,0.5,0.1,1c0,0.2,0.1,0.4,0.1,0.7c0,0.2,0.1,0.5,0.2,0.7c0.1,0.3,0.2,0.5,0.4,0.7c0.1,0.1,0.2,0.2,0.3,0.3
			c0.1,0.1,0.2,0.1,0.3,0.1c0.1,0,0.2,0,0.4-0.1c0.1-0.1,0.2-0.1,0.4-0.2c0.1-0.1,0.2-0.2,0.3-0.3c0,0,0.1-0.1,0.1-0.1l0,0l0,0
			c0.1-0.1,0.1-0.1,0.2-0.2c0.1-0.1,0.3-0.2,0.4-0.3c0.1-0.1,0.3-0.1,0.5-0.2c0.3-0.1,0.6-0.1,1-0.1c0.3,0,0.7,0.1,1,0.2
			c0.3,0.1,0.6,0.3,0.9,0.6c0.3,0.3,0.6,0.6,0.8,1c0.2,0.4,0.4,0.8,0.5,1.3c0,0.1,0.1,0.2,0.1,0.3c0,0.1,0,0.2,0.1,0.4l0,0.2
			c0,0.1,0,0.1,0,0.2c0,0.1,0,0.2,0.1,0.3c0.1,0.5,0.3,0.9,0.5,1.3c0.2,0.4,0.5,0.7,0.7,0.9c0.3,0.2,0.6,0.4,0.9,0.5
			c0.3,0.1,0.6,0.2,0.9,0.2c0.3,0,0.6,0.1,0.9,0.1c0.6,0,1.2-0.1,1.7-0.2c0.5-0.1,1-0.2,1.4-0.4c0.4-0.1,0.8-0.3,1.1-0.4
			c0.3-0.1,0.5-0.2,0.7-0.3C101.4,131.9,101.4,131.9,101.4,131.9L101.4,131.9z"/>
	</g>
	<polygon fill="#FF99A1" points="81.5,115.3 78.9,119.8 84.3,126.1 86,117.8 	"/>
	<g>
		<line fill="none" stroke="#FFFFFF" stroke-width="0.7" stroke-miterlimit="10" x1="79" y1="119.8" x2="86.1" y2="117.8"/>
		<line fill="none" stroke="#FFFFFF" stroke-width="0.7" stroke-miterlimit="10" x1="81.5" y1="115.3" x2="84.3" y2="126.1"/>
	</g>
</g>
<g>
	<g>
		<circle fill="#3DA8A4" cx="118.2" cy="123.3" r="1.3"/>
		<path fill="#3DA8A4" d="M118.6,125.2c-0.3-0.1-0.6-0.1-1,0c-2.1,0.2-2.8,2.7-2.6,4.6c0.1,0.8,1.4,0.8,1.3,0
			c-0.1-0.7,0-1.7,0.3-2.4c0,0.9,0,1.8,0,2.7c0,0,0,0.1,0,0.1s0,0,0,0c0,2.1,0,4.2-0.1,6.3c0,0.9,1.4,0.9,1.5,0
			c0.1-1.7,0.1-3.3,0.1-5c0.1,0,0.1,0,0.2,0c0,1.7,0,3.3,0.1,5c0,0.9,1.5,0.9,1.5,0c-0.1-2.1-0.1-4.2-0.1-6.3c0-0.1,0-0.1,0-0.2
			c0-0.9,0-1.8,0-2.7c0.1-1,1.8,0.6,3.3,0.1c0.4-0.1,0.7-1.2-0.2-1.2C121.6,126.7,120.8,125.3,118.6,125.2z"/>
	</g>
</g>
<g>
	<g>
		<circle fill="#3DA8A4" cx="104.3" cy="127.4" r="0.9"/>
		<path fill="#3DA8A4" d="M104.6,128.7c-0.2-0.1-0.5,0-0.7,0c-1.5,0.2-1.3,1.6-2.3,2.6c-0.6,0.5-0.7,0.8,0,1.2
			c0.5-0.3,1.3-1.8,1.6-2.3c0,0.6,0,1.3,0,1.9c0,0,0,0,0,0.1s0,0,0,0c0,1.5,0,3-0.1,4.5c0,0.6,1,0.6,1,0c0.1-1.2,0.1-2.3,0.1-3.5
			c0.1,0,0.1,0,0.1,0c0,1.2,0,2.3,0.1,3.5c0,0.6,1.1,0.6,1,0c-0.1-1.5-0.1-3-0.1-4.5c0-0.1,0-0.1,0-0.1c0-0.6,0-1.3,0-1.9
			c0.3,0.5,0.3,1.3,0.3,1.8c-0.1,0.6,0.8,0.6,0.9,0C106.7,130.6,106.1,128.8,104.6,128.7z"/>
	</g>
</g>
</svg>
