<?xml version="1.0" encoding="utf-8"?>
<!-- Generator: Adobe Illustrator 18.1.1, SVG Export Plug-In . SVG Version: 6.00 Build 0)  -->
<svg version="1.1" id="Layer_1" xmlns="http://www.w3.org/2000/svg" xmlns:xlink="http://www.w3.org/1999/xlink" x="0px" y="0px"
	 viewBox="0 0 504 504" enable-background="new 0 0 504 504" xml:space="preserve">
<g>
	<path fill="#3EA8A4" d="M341.9,714.3c-36.7-34.7-63.8-60.7-81.6-77c-12.6-11.5-20.9-12.7-25.2-12.7c-4.1,0-109.3,0-121.5,0
		c-12.2,0-19,2.3-25.2,12.7c-6.2,10.4-40.6,51.2-48.3,64.9c-50.9,10.6-58.4,20.3-58.4,35.4c0,8.6,0,65.2,0,65.2
		c0,8.2,20.5,29.7,28.4,29.7h12.7c7.8,22,28.7,37.8,53.4,37.8c24.7,0,45.6-15.8,53.4-37.8h176.8c7.8,22,28.7,37.8,53.4,37.8
		c25.9,0,47.6-17.3,54.5-40.9c9.2-6.3,21.2-20.3,21.2-26.6c0,0,0-44.7,0-53.3C435.5,735.2,405.7,726.9,341.9,714.3z M75,702.7
		c7.3-10.2,24.6-32.5,28.7-38.2c5.3-7.3,8.7-9.8,18-9.8c3.9,0,23.5,0,45.1,0v64.5c-43.6,0-82.5,0-87.4,0
		C70.7,719.2,66.6,714.3,75,702.7z M76.3,842.1c-15.6,0-28.4-12.7-28.4-28.4s12.7-28.4,28.4-28.4s28.4,12.7,28.4,28.4
		S91.9,842.1,76.3,842.1z M174.9,719.2v-64.5c27.7,0,55.6,0,55.6,0c7.3,0,15.1,3.3,20.3,7.9c7.2,6.5,36.2,33.8,47.6,44.7
		c10.2,9.8,5.5,11.8-2,11.8C296.3,719.2,233.1,719.2,174.9,719.2z M359.9,842.1c-15.6,0-28.4-12.7-28.4-28.4s12.7-28.4,28.4-28.4
		c15.6,0,28.4,12.7,28.4,28.4S375.5,842.1,359.9,842.1z"/>
</g>
<g>
	<path fill="#3EA8A4" d="M451.9,176.8h-24.5c-8.1,0-15,6.8-15,14.9c0,0,0.2,7.3,0.2,7.7l-8.2,8.8l-9.8-37.9
		c-6.2-23.9-27.8-40.7-52.5-40.7h-20.5V99c0-10.5-7-19.9-17.5-19.9h-92.7c-10.5,0-17,9.5-17,19.9v30.5h-20.9
		c-24.7,0-46.3,16.8-52.5,40.7l-9.8,37.6l-7.9-8.5c0-0.4,0.2-7.7,0.2-7.7c0-8.1-6.9-14.9-15-14.9H64.2c-8.1,0-14.8,6.8-14.8,14.9
		v6.6c0,8.1,6.7,15,14.8,15h24.5c0.8,0,1.5-0.2,2.3-0.4l8.8,9.4c-17.4,4.5-30.2,20.3-30.2,39.1v65.9c0,20,14.7,36.7,34.1,39.8v41.9
		c0,8.9,6.8,16.1,15.7,16.1h42.5c8.9,0,16.3-7.2,16.3-16.1v-41.3H338v41.3c0,8.9,6.9,16.1,15.7,16.1h42.5c8.9,0,16.2-7.2,16.2-16.1
		v-41.8c19.4-2.9,34.1-19.7,34.1-39.9v-65.9c0-18.8-12.9-34.6-30.3-39.1l8.9-9.4c0.7,0.1,1.5,0.4,2.3,0.4h24.5
		c8.1,0,14.8-6.9,14.8-15v-6.6C466.7,183.6,460,176.8,451.9,176.8z M127.4,318c-13.3,0-24-10.8-24-24c0-13.3,10.8-24.1,24-24.1
		c13.3,0,24.1,10.8,24.1,24.1C151.5,307.2,140.7,318,127.4,318z M338,303.8c0,8.2-6.7,14.9-14.9,14.9h-130
		c-8.2,0-14.9-6.7-14.9-14.9v-19.1c0-8.2,6.7-14.9,14.9-14.9h130c8.2,0,14.9,6.7,14.9,14.9L338,303.8L338,303.8z M136.1,221l11.4-44
		c3.1-11.9,13.8-20.4,26.2-20.4h168.6c12.3,0,23.1,8.5,26.2,20.4l11.4,44H136.1z M391.2,318c-13.3,0-24.1-10.8-24.1-24
		c0-13.3,10.8-24.1,24.1-24.1s24,10.8,24,24.1C415.2,307.2,404.5,318,391.2,318z"/>
</g>
<g>
	<g id="_x31_9_65_">
		<path fill="#3EA8A4" d="M-357,213.6c-9,0-18.1,1.6-26.9,4.6l-1.8,0.6l-29.6-53.8v-23.4h35.5c6.8,0,12.4-5.5,12.4-12.4
			c0-6.8-5.5-12.4-12.4-12.4h-47c-6.8,0-12.4,5.5-12.4,12.4c0,1,0.1,2,0.4,3.1l0.1,0.3v23.7h-107.9l-8.9-19.8h25.7
			c6.5,0,11.7-5.3,11.7-11.7c0-6.5-5.3-11.7-11.7-11.7h-87.6c-6.5,0-11.7,5.3-11.7,11.7c0,6.5,5.3,11.7,11.7,11.7h36.2l7.8,17.7
			l-35.2,64.6l-1.8-0.6c-8.8-3.1-17.9-4.7-26.9-4.7c-45.1,0-81.8,36.7-81.8,81.8c0,45.1,36.7,81.8,81.8,81.8
			c40,0,73.9-28.7,80.6-68.2l0.3-1.9h34.8l0.7,0.6c5.3,5,12.3,7.8,19.6,7.8c15.7,0,28.5-12.8,28.5-28.5c0-2.7-0.4-5.4-1.2-8
			l-0.3-0.9l47.2-85.8l20.8,37.8l-1.5,1.2c-19.7,15.7-31,39-31,64c0,45.1,36.7,81.8,81.8,81.8s81.8-36.7,81.8-81.8
			C-275.2,250.3-311.9,213.6-357,213.6z M-599.5,251l2.2,2c8,7.6,13.7,17.2,16.5,27.8l0.7,2.9h-37.4L-599.5,251z M-580.9,310
			c-6.7,25.8-29.9,43.8-56.5,43.8c-32.2,0-58.4-26.2-58.4-58.4s26.2-58.4,58.4-58.4c4.7,0,9.6,0.6,14.4,1.9l2.9,0.7l-27.6,50.1
			c-0.1,0.2-0.1,0.4-0.2,0.5c-0.2,0.4-0.3,0.7-0.4,1.1c-0.2,0.4-0.3,0.8-0.4,1.1c-0.1,0.3-0.2,0.7-0.2,1.1c-0.1,0.5-0.1,0.9-0.1,1.2
			l0,0.1c0,0.2,0,0.3-0.1,0.5l0,0.1l0,0c0,0.1,0,0.3,0,0.4c0,0.5,0.1,0.9,0.1,1.3c0,0.3,0.1,0.7,0.2,1c0.1,0.3,0.2,0.7,0.3,1.1
			c0.1,0.4,0.3,0.7,0.4,1.1c0.1,0.3,0.3,0.6,0.5,0.9l0,0.1c0.2,0.3,0.4,0.6,0.6,0.9c0.2,0.3,0.4,0.6,0.8,0.9
			c0.2,0.3,0.5,0.5,0.8,0.8c0.3,0.3,0.6,0.5,0.9,0.7c0.3,0.2,0.6,0.5,0.9,0.7l0.1,0.1c0.1,0.1,0.2,0.1,0.3,0.2l0.1,0.1
			c0.2,0.1,0.4,0.1,0.6,0.2c0.3,0.2,0.7,0.3,1,0.4c0.4,0.2,0.8,0.3,1.2,0.4c0.3,0.1,0.6,0.1,1,0.2c0.5,0.1,0.9,0.1,1.3,0.1
			c0.1,0,0.3,0,0.5,0l57.2,0L-580.9,310z M-523.3,268.9c-3.1,3.7-5.2,8.2-6.1,12.9l-0.4,1.9h-26.7l-0.3-1.9
			c-3.4-19.9-13.9-37.8-29.8-50.4l-1.5-1.2l26.9-48.9l38.8,86.5L-523.3,268.9z M-491.3,260.4l-1.8-0.5c-2.1-0.6-4.2-1-6.4-1.2
			l-1.4-0.1l-35.3-78.8h89.3L-491.3,260.4z M-357,353.8c-32.2,0-58.4-26.2-58.4-58.4c0-16.2,6.5-31.2,18.4-42.4l2.2-2l27.6,50.1
			c2.1,3.7,6,6.1,10.3,6.1c2,0,3.9-0.5,5.6-1.5c2.7-1.5,4.7-4,5.6-7c0.9-3,0.5-6.2-1-8.9l-27.6-50.1l2.9-0.7
			c4.9-1.2,9.7-1.9,14.4-1.9c32.2,0,58.4,26.2,58.4,58.4C-298.6,327.6-324.8,353.8-357,353.8z"/>
	</g>
</g>
<g>
	<g id="Layer_1_21_">
		<path fill="#3EA8A4" d="M797.7,875.5l-51.5-93.8c14.6-2.3,25.4-15.4,25.4-30V613.4c0-36.9-30-66.9-66.9-66.9H617
			c-36.9,0-67.7,30-67.7,67.7v137.6c0,15.4,10.8,27.7,25.4,30L524,875.5c-3.8,7.7-1.5,16.9,6.2,20.8c2.3,1.5,4.6,1.5,6.9,1.5
			c5.4,0,10.8-3.1,13.1-7.7l4.6-7.7h212.2l4.6,7.7c3.1,5.4,7.7,7.7,13.1,7.7c2.3,0,4.6-0.8,6.9-1.5
			C799.2,892.4,801.5,883.2,797.7,875.5z M725.4,806.3H596.2l13.1-23.8h103L725.4,806.3z M723.1,754.8c-12.3,0-22.3-10-22.3-22.3
			c0-12.3,10-22.3,22.3-22.3c12.3,0,22.3,10,22.3,22.3C745.4,744.1,735.4,754.8,723.1,754.8z M576.3,622.6
			c0-23.8,19.2-43.1,42.3-43.1h83.8c23.1,0,43.1,19.2,43.1,43.1v36.9c0,8.5-6.9,14.6-15.4,14.6H591.6c-8.5,0-14.6-6.9-14.6-14.6
			L576.3,622.6L576.3,622.6z M598.6,709.5c12.3,0,22.3,10,22.3,22.3c0,12.3-10,22.3-22.3,22.3c-12.3,0-22.3-10-22.3-22.3
			C576.3,719.5,586.3,709.5,598.6,709.5z M567,859.4l16.9-30h153.8l16.9,30H567z"/>
	</g>
</g>
</svg>
