<?xml version="1.0" encoding="utf-8"?>
<!-- Generator: Adobe Illustrator 18.1.1, SVG Export Plug-In . SVG Version: 6.00 Build 0)  -->
<svg version="1.1" id="Capa_1" xmlns="http://www.w3.org/2000/svg" xmlns:xlink="http://www.w3.org/1999/xlink" x="0px" y="0px"
	 viewBox="97 0 560 561" enable-background="new 97 0 560 561" xml:space="preserve">
<g>
	<path fill="#FF99A1" d="M377,1C222.3,1,97,126.3,97,281s125.3,280,280,280s280-125.3,280-280S531.7,1,377,1z M377,517.3
		c-130.5,0-236.3-105.8-236.3-236.3S246.5,44.8,377,44.8S613.3,150.5,613.3,281S507.5,517.3,377,517.3z"/>
	<path fill="#FF99A1" d="M517,187.9c-4.7,2.8-18.8,8.4-32,9.8c8.4-4.9,21-21,24.1-33.8c-8.1,5.6-26.8,13.8-36.1,13.8l0,0
		c-10.5-11.8-25.4-19.3-41.8-19.3c-31.9,0-57.8,27.9-57.8,62.2c0,4.8,0.5,9.4,1.5,13.9l0,0c-43.3-1.2-93.8-24.5-122.4-64.5
		c-17.5,32.7-2.4,68.9,17.5,82.1c-6.8,0.5-19.4-0.9-25.3-7c-0.4,21.7,9.3,50.3,44.5,60.8c-6.8,3.9-18.8,2.8-24.1,2
		c1.9,18.4,25.6,42.2,51.6,42.2c-9.1,11.5-40.7,32.5-79.8,25.7c26.6,17.4,57.5,27.6,90.3,27.6c93.2,0,165.6-81.4,161.7-181.7
		c0-0.1,0-0.2,0-0.3c0-0.3,0-0.5,0-0.8c0-0.3,0-0.7,0-1C497.4,213.5,508.8,202.5,517,187.9z"/>
</g>
</svg>
