<?xml version="1.0" encoding="utf-8"?>
<!-- Generator: Adobe Illustrator 18.1.1, SVG Export Plug-In . SVG Version: 6.00 Build 0)  -->
<svg version="1.1" id="Layer_1" xmlns="http://www.w3.org/2000/svg" xmlns:xlink="http://www.w3.org/1999/xlink" x="0px" y="0px"
	 viewBox="0 0 600 328.3" enable-background="new 0 0 600 328.3" xml:space="preserve">
<path fill="#7ACCBE" d="M505,161.3v-5h-60.7l-8.3-11h-97v-13h-11v9h1v1h-31v-7h-9v-101h-1v2.1l-37.5,8.9l3.5,17.1l34-4.9v77.8h-9v7
	h-30v-1h1v-9h-10v13h-96l-5.5,11H77v5H39v22h4v127h157v9.6c0,0,71,16.8,179,0v-6.6h162v-130h3v-22H505z M383,190.1
	c-3.8-0.7-10.8-1.2-20-1.7v95.9h-3v9.9c-3,0.4-6,0.7-9,1v-10.9h-4v-96.5c-2.6-0.1-5.3-0.1-8-0.2v96.7h-3v12.2c-6,0.4-12,0.7-18,1
	v-13.1h-3v-97.1c-3,0-6-0.1-9-0.1v97.2h-3v13.5c-8,0.1-14,0.1-22-0.1v-13.5h-3v-97.2c-3,0-6,0-9,0.1v97.1h-3v13c-6-0.3-12-0.6-18-1
	v-12.1h-3v-96.7c-3.1,0.1-6.1,0.2-9,0.2v96.5h-3v10.9c-3-0.3-6-0.6-9-0.9v-10.1h-4v-95.8c-8.1,0.4-14,1-17,1.6v-11
	c49-5.3,138.3-3.7,180,0V190.1z"/>
<path fill="#3DA8A4" d="M42.1,331.7c0,0-34.7-4.5,2.1-43.9c-1.1-34.9,36.9-34.2,41.2-6.8c0.4-21.3,10-30.8,31.5-19.9
	c19.7-17.3,35.8,12,23.3,29.6c2.9-5.4,10-13.9,21.5,2.3c9.7,0.4,15.4,10.1,4.3,21.4c-3.6,24.8-21.1,19.1-21.1,19.1L42.1,331.7z"/>
<path fill="#3DA8A4" d="M419.8,333.7c0,0-31.6-21.3-8-43.2c2.2-16.9,24.4-19.3,34.5-6.1c-3.9-29.4,23.9-36.9,29.3-18
	c7.6-11,29.3-10,25.1,20.3c16.3-17.4,18.9-20.2,37.9-11.4c19,8.9,25.2,41.4,4.7,46.4c14.9,8.6-3.9,13.3-6.5,14.1
	C534.4,336.8,419.8,333.7,419.8,333.7z"/>
</svg>
