<?xml version="1.0" encoding="utf-8"?>
<!-- Generator: Adobe Illustrator 18.1.1, SVG Export Plug-In . SVG Version: 6.00 Build 0)  -->
<svg version="1.1" id="Layer_1" xmlns="http://www.w3.org/2000/svg" xmlns:xlink="http://www.w3.org/1999/xlink" x="0px" y="0px"
	 viewBox="198 0 563 560" enable-background="new 198 0 563 560" xml:space="preserve">
<g>
	<g>
		<path fill="#3DA8A4" d="M408.7,268.9c5.1-45.3,45.4-58.3,69.3-58.3h-69.8L408.7,268.9z"/>
		<path fill="#3DA8A4" d="M408.1,278.8c0-2.4,0.1-4.6,0.2-6.8l-33-61.3h-63.3l0.6,63.2l-28.4-63.2H226L285.4,356H359v-44.5
			l21.3,44.5h96C450.7,356,408.1,332.2,408.1,278.8z"/>
		<path fill="#3DA8A4" d="M666.2,210.7l-27.8,72.7v-72.7h-60l-34.4,66.1v-66.1h-66c25.6,0,66,18.2,66,71.6s-42,73.7-67.6,73.7h91.6
			l25.1-43.1V356h73.6l59.9-145.3H666.2z"/>
	</g>
	<polygon fill="#3DA8A4" points="476.1,210.7 423.4,262.1 476.3,356 529.2,262.9 	"/>
	<path fill="none" stroke="#3DA8A4" stroke-width="7" stroke-miterlimit="10" d="M467,477.8c0,0-18-21,9.3-39.8
		c27.3-18.8-2.2-36.8-2.2-36.8s-18-22.2,0.4-43.4c6.5-7.6,2.4-15.1,3-15.7"/>
</g>
<circle fill="none" stroke="#3DA8A4" stroke-width="13" stroke-miterlimit="10" cx="480.6" cy="280.2" r="273.9"/>
</svg>
