<?xml version="1.0" encoding="utf-8"?>
<!-- Generator: Adobe Illustrator 18.1.1, SVG Export Plug-In . SVG Version: 6.00 Build 0)  -->
<svg version="1.1" id="Layer_1" xmlns="http://www.w3.org/2000/svg" xmlns:xlink="http://www.w3.org/1999/xlink" x="0px" y="0px"
	 viewBox="-107 109 288 288" enable-background="new -107 109 288 288" xml:space="preserve">
<g>
	<g>
		<path fill="#FFFFFF" d="M8,242.8c2.2-19.5,19.5-25,29.8-25h-30L8,242.8z"/>
		<path fill="#FFFFFF" d="M7.7,247.1c0-1,0-2,0.1-2.9l-14.2-26.3h-27.2l0.3,27.2l-12.2-27.2h-25l25.5,62.4h31.6v-19.1l9.2,19.1H37
			C26,280.3,7.7,270,7.7,247.1z"/>
		<path fill="#FFFFFF" d="M118.6,217.8l-11.9,31.2v-31.2H80.9l-14.8,28.4v-28.4H37.7c11,0,28.4,7.8,28.4,30.8s-18,31.7-29,31.7h39.4
			l10.8-18.5v18.5h31.6l25.7-62.4H118.6z"/>
	</g>
	<polygon fill="#FFFFFF" points="36.9,217.8 14.3,239.9 37,280.3 59.7,240.3 	"/>
	<path fill="#FFFFFF" d="M33,332.6c0,0-7.7-9,4-17.1c11.7-8.1-0.9-15.8-0.9-15.8s-7.7-9.5,0.2-18.6c2.8-3.3,1-6.5,1.3-6.7"/>
</g>
</svg>
